%TF.GenerationSoftware,KiCad,Pcbnew,8.0.6*%
%TF.CreationDate,2026-05-30T20:21:56+02:00*%
%TF.ProjectId,_anal,5f616e61-6c2e-46b6-9963-61645f706362,rev?*%
%TF.SameCoordinates,Original*%
%TF.FileFunction,Copper,L1,Top*%
%TF.FilePolarity,Positive*%
%FSLAX46Y46*%
G04 Gerber Fmt 4.6, Leading zero omitted, Abs format (unit mm)*
G04 Created by KiCad (PCBNEW 8.0.6) date 2026-05-30 20:21:56*
%MOMM*%
%LPD*%
G01*
G04 APERTURE LIST*
%TA.AperFunction,ComponentPad*%
%ADD10C,5.600000*%
%TD*%
%TA.AperFunction,ComponentPad*%
%ADD11R,1.750000X1.750000*%
%TD*%
%TA.AperFunction,ComponentPad*%
%ADD12C,1.750000*%
%TD*%
%TA.AperFunction,ComponentPad*%
%ADD13C,2.700000*%
%TD*%
%TA.AperFunction,ComponentPad*%
%ADD14O,1.700000X1.700000*%
%TD*%
%TA.AperFunction,ComponentPad*%
%ADD15R,1.700000X1.700000*%
%TD*%
%TA.AperFunction,Conductor*%
%ADD16C,2.000000*%
%TD*%
G04 APERTURE END LIST*
D10*
%TO.P,REF\u002A\u002A,1*%
%TO.N,N/C*%
X59110000Y-118525000D03*
%TD*%
D11*
%TO.P,RV2,1,1*%
%TO.N,Net-(J1-Pin_1)*%
X83545000Y-62730000D03*
D12*
%TO.P,RV2,2,2*%
%TO.N,Net-(J1-Pin_5)*%
X80045000Y-62730000D03*
%TO.P,RV2,3,3*%
%TO.N,Net-(J1-Pin_6)*%
X83545000Y-121230000D03*
D13*
%TO.P,RV2,MP*%
%TO.N,N/C*%
X77595000Y-66880000D03*
X85995000Y-68080000D03*
X85995000Y-115880000D03*
X77595000Y-117080000D03*
%TD*%
D10*
%TO.P,REF\u002A\u002A,1*%
%TO.N,N/C*%
X58800000Y-62125000D03*
%TD*%
%TO.P,REF\u002A\u002A,1*%
%TO.N,N/C*%
X93440000Y-89980000D03*
%TD*%
D14*
%TO.P,RV4,3,3*%
%TO.N,Net-(J1-Pin_6)*%
X91930000Y-80990000D03*
%TO.P,RV4,2,2*%
%TO.N,Net-(J1-Pin_3)*%
X94470000Y-80990000D03*
D15*
%TO.P,RV4,1,1*%
%TO.N,Net-(J1-Pin_1)*%
X97010000Y-80990000D03*
%TD*%
%TO.P,RV3,1,1*%
%TO.N,Net-(J1-Pin_1)*%
X97010000Y-73880000D03*
D14*
%TO.P,RV3,2,2*%
%TO.N,Net-(J1-Pin_2)*%
X94470000Y-73880000D03*
%TO.P,RV3,3,3*%
%TO.N,Net-(J1-Pin_6)*%
X91930000Y-73880000D03*
%TD*%
D15*
%TO.P,J1,1,Pin_1*%
%TO.N,Net-(J1-Pin_1)*%
X56990000Y-72230000D03*
D14*
%TO.P,J1,2,Pin_2*%
%TO.N,Net-(J1-Pin_2)*%
X56990000Y-74770000D03*
%TO.P,J1,3,Pin_3*%
%TO.N,Net-(J1-Pin_3)*%
X56990000Y-77310000D03*
%TO.P,J1,4,Pin_4*%
%TO.N,Net-(J1-Pin_4)*%
X56990000Y-79850000D03*
%TO.P,J1,5,Pin_5*%
%TO.N,Net-(J1-Pin_5)*%
X56990000Y-82390000D03*
%TO.P,J1,6,Pin_6*%
%TO.N,Net-(J1-Pin_6)*%
X56990000Y-84930000D03*
%TD*%
D11*
%TO.P,RV1,1,1*%
%TO.N,Net-(J1-Pin_1)*%
X70390000Y-62495000D03*
D12*
%TO.P,RV1,2,2*%
%TO.N,Net-(J1-Pin_4)*%
X66890000Y-62495000D03*
%TO.P,RV1,3,3*%
%TO.N,Net-(J1-Pin_6)*%
X70390000Y-120995000D03*
D13*
%TO.P,RV1,MP*%
%TO.N,N/C*%
X64440000Y-66645000D03*
X72840000Y-67845000D03*
X72840000Y-115645000D03*
X64440000Y-116845000D03*
%TD*%
D16*
%TO.N,Net-(J1-Pin_6)*%
X81795000Y-84935000D02*
X81795000Y-119480000D01*
X81795000Y-119480000D02*
X83545000Y-121230000D01*
X81790000Y-84930000D02*
X81795000Y-84935000D01*
X56990000Y-84930000D02*
X83955000Y-84930000D01*
X83955000Y-84930000D02*
X83955000Y-80501270D01*
%TO.N,Net-(J1-Pin_5)*%
X81715000Y-64400000D02*
X80045000Y-62730000D01*
X81715000Y-82203730D02*
X81715000Y-64400000D01*
X81528730Y-82390000D02*
X81715000Y-82203730D01*
X56990000Y-82390000D02*
X81528730Y-82390000D01*
%TO.N,Net-(J1-Pin_4)*%
X68610000Y-64215000D02*
X68610000Y-79850000D01*
X66890000Y-62495000D02*
X68610000Y-64215000D01*
X68610000Y-79850000D02*
X56990000Y-79850000D01*
%TO.N,Net-(J1-Pin_6)*%
X68480000Y-119085000D02*
X70390000Y-120995000D01*
X68480000Y-85300000D02*
X68480000Y-119085000D01*
X68110000Y-84930000D02*
X68480000Y-85300000D01*
X56990000Y-84930000D02*
X68110000Y-84930000D01*
%TO.N,Net-(J1-Pin_1)*%
X96715000Y-71680000D02*
X97010000Y-71975000D01*
X88710000Y-69745000D02*
X90645000Y-71680000D01*
X88710000Y-65515000D02*
X88710000Y-69745000D01*
X85860000Y-62665000D02*
X88710000Y-65515000D01*
X83610000Y-62665000D02*
X85860000Y-62665000D01*
X83545000Y-62730000D02*
X83610000Y-62665000D01*
X90645000Y-71680000D02*
X96715000Y-71680000D01*
X97010000Y-71975000D02*
X97010000Y-73880000D01*
X80690000Y-59875000D02*
X83545000Y-62730000D01*
X69250000Y-59875000D02*
X80690000Y-59875000D01*
X60810000Y-71145000D02*
X59725000Y-72230000D01*
X60810000Y-66085000D02*
X60810000Y-71145000D01*
X64690000Y-62205000D02*
X60810000Y-66085000D01*
X64690000Y-60190766D02*
X64690000Y-62205000D01*
X59725000Y-72230000D02*
X56990000Y-72230000D01*
X64971227Y-59909539D02*
X64690000Y-60190766D01*
X68821227Y-59909539D02*
X64971227Y-59909539D01*
X97010000Y-78790000D02*
X97010000Y-80990000D01*
X86155000Y-76080000D02*
X86155000Y-78790000D01*
X97010000Y-76080000D02*
X86155000Y-76080000D01*
X97010000Y-73880000D02*
X97010000Y-76080000D01*
X86155000Y-78790000D02*
X97010000Y-78790000D01*
%TO.N,Net-(J1-Pin_6)*%
X83941270Y-80515000D02*
X84416270Y-80990000D01*
X83955000Y-80501270D02*
X83941270Y-80515000D01*
X83955000Y-73880000D02*
X83955000Y-80501270D01*
X84416270Y-80990000D02*
X91930000Y-80990000D01*
X91930000Y-73880000D02*
X83955000Y-73880000D01*
X89795000Y-80990000D02*
X91930000Y-80990000D01*
X89195000Y-81590000D02*
X89795000Y-80990000D01*
%TO.N,Net-(J1-Pin_1)*%
X69795000Y-60420000D02*
X70390000Y-61015000D01*
X70390000Y-61015000D02*
X70390000Y-62495000D01*
%TD*%
M02*
