%TF.GenerationSoftware,KiCad,Pcbnew,8.0.6*%
%TF.CreationDate,2026-05-30T20:21:56+02:00*%
%TF.ProjectId,_anal,5f616e61-6c2e-46b6-9963-61645f706362,rev?*%
%TF.SameCoordinates,Original*%
%TF.FileFunction,Legend,Top*%
%TF.FilePolarity,Positive*%
%FSLAX46Y46*%
G04 Gerber Fmt 4.6, Leading zero omitted, Abs format (unit mm)*
G04 Created by KiCad (PCBNEW 8.0.6) date 2026-05-30 20:21:56*
%MOMM*%
%LPD*%
G01*
G04 APERTURE LIST*
%ADD10C,0.150000*%
%ADD11C,0.120000*%
G04 APERTURE END LIST*
D10*
X60048207Y-75319819D02*
X59714874Y-74843628D01*
X59476779Y-75319819D02*
X59476779Y-74319819D01*
X59476779Y-74319819D02*
X59857731Y-74319819D01*
X59857731Y-74319819D02*
X59952969Y-74367438D01*
X59952969Y-74367438D02*
X60000588Y-74415057D01*
X60000588Y-74415057D02*
X60048207Y-74510295D01*
X60048207Y-74510295D02*
X60048207Y-74653152D01*
X60048207Y-74653152D02*
X60000588Y-74748390D01*
X60000588Y-74748390D02*
X59952969Y-74796009D01*
X59952969Y-74796009D02*
X59857731Y-74843628D01*
X59857731Y-74843628D02*
X59476779Y-74843628D01*
X60667255Y-74319819D02*
X60857731Y-74319819D01*
X60857731Y-74319819D02*
X60952969Y-74367438D01*
X60952969Y-74367438D02*
X61048207Y-74462676D01*
X61048207Y-74462676D02*
X61095826Y-74653152D01*
X61095826Y-74653152D02*
X61095826Y-74986485D01*
X61095826Y-74986485D02*
X61048207Y-75176961D01*
X61048207Y-75176961D02*
X60952969Y-75272200D01*
X60952969Y-75272200D02*
X60857731Y-75319819D01*
X60857731Y-75319819D02*
X60667255Y-75319819D01*
X60667255Y-75319819D02*
X60572017Y-75272200D01*
X60572017Y-75272200D02*
X60476779Y-75176961D01*
X60476779Y-75176961D02*
X60429160Y-74986485D01*
X60429160Y-74986485D02*
X60429160Y-74653152D01*
X60429160Y-74653152D02*
X60476779Y-74462676D01*
X60476779Y-74462676D02*
X60572017Y-74367438D01*
X60572017Y-74367438D02*
X60667255Y-74319819D01*
X61381541Y-74319819D02*
X61952969Y-74319819D01*
X61667255Y-75319819D02*
X61667255Y-74319819D01*
X62810112Y-75319819D02*
X62238684Y-75319819D01*
X62524398Y-75319819D02*
X62524398Y-74319819D01*
X62524398Y-74319819D02*
X62429160Y-74462676D01*
X62429160Y-74462676D02*
X62333922Y-74557914D01*
X62333922Y-74557914D02*
X62238684Y-74605533D01*
X60143207Y-77589819D02*
X59809874Y-77113628D01*
X59571779Y-77589819D02*
X59571779Y-76589819D01*
X59571779Y-76589819D02*
X59952731Y-76589819D01*
X59952731Y-76589819D02*
X60047969Y-76637438D01*
X60047969Y-76637438D02*
X60095588Y-76685057D01*
X60095588Y-76685057D02*
X60143207Y-76780295D01*
X60143207Y-76780295D02*
X60143207Y-76923152D01*
X60143207Y-76923152D02*
X60095588Y-77018390D01*
X60095588Y-77018390D02*
X60047969Y-77066009D01*
X60047969Y-77066009D02*
X59952731Y-77113628D01*
X59952731Y-77113628D02*
X59571779Y-77113628D01*
X60762255Y-76589819D02*
X60952731Y-76589819D01*
X60952731Y-76589819D02*
X61047969Y-76637438D01*
X61047969Y-76637438D02*
X61143207Y-76732676D01*
X61143207Y-76732676D02*
X61190826Y-76923152D01*
X61190826Y-76923152D02*
X61190826Y-77256485D01*
X61190826Y-77256485D02*
X61143207Y-77446961D01*
X61143207Y-77446961D02*
X61047969Y-77542200D01*
X61047969Y-77542200D02*
X60952731Y-77589819D01*
X60952731Y-77589819D02*
X60762255Y-77589819D01*
X60762255Y-77589819D02*
X60667017Y-77542200D01*
X60667017Y-77542200D02*
X60571779Y-77446961D01*
X60571779Y-77446961D02*
X60524160Y-77256485D01*
X60524160Y-77256485D02*
X60524160Y-76923152D01*
X60524160Y-76923152D02*
X60571779Y-76732676D01*
X60571779Y-76732676D02*
X60667017Y-76637438D01*
X60667017Y-76637438D02*
X60762255Y-76589819D01*
X61476541Y-76589819D02*
X62047969Y-76589819D01*
X61762255Y-77589819D02*
X61762255Y-76589819D01*
X62333684Y-76685057D02*
X62381303Y-76637438D01*
X62381303Y-76637438D02*
X62476541Y-76589819D01*
X62476541Y-76589819D02*
X62714636Y-76589819D01*
X62714636Y-76589819D02*
X62809874Y-76637438D01*
X62809874Y-76637438D02*
X62857493Y-76685057D01*
X62857493Y-76685057D02*
X62905112Y-76780295D01*
X62905112Y-76780295D02*
X62905112Y-76875533D01*
X62905112Y-76875533D02*
X62857493Y-77018390D01*
X62857493Y-77018390D02*
X62286065Y-77589819D01*
X62286065Y-77589819D02*
X62905112Y-77589819D01*
X59494160Y-80277200D02*
X59637017Y-80324819D01*
X59637017Y-80324819D02*
X59875112Y-80324819D01*
X59875112Y-80324819D02*
X59970350Y-80277200D01*
X59970350Y-80277200D02*
X60017969Y-80229580D01*
X60017969Y-80229580D02*
X60065588Y-80134342D01*
X60065588Y-80134342D02*
X60065588Y-80039104D01*
X60065588Y-80039104D02*
X60017969Y-79943866D01*
X60017969Y-79943866D02*
X59970350Y-79896247D01*
X59970350Y-79896247D02*
X59875112Y-79848628D01*
X59875112Y-79848628D02*
X59684636Y-79801009D01*
X59684636Y-79801009D02*
X59589398Y-79753390D01*
X59589398Y-79753390D02*
X59541779Y-79705771D01*
X59541779Y-79705771D02*
X59494160Y-79610533D01*
X59494160Y-79610533D02*
X59494160Y-79515295D01*
X59494160Y-79515295D02*
X59541779Y-79420057D01*
X59541779Y-79420057D02*
X59589398Y-79372438D01*
X59589398Y-79372438D02*
X59684636Y-79324819D01*
X59684636Y-79324819D02*
X59922731Y-79324819D01*
X59922731Y-79324819D02*
X60065588Y-79372438D01*
X60970350Y-80324819D02*
X60494160Y-80324819D01*
X60494160Y-80324819D02*
X60494160Y-79324819D01*
X61303684Y-80324819D02*
X61303684Y-79324819D01*
X61303684Y-79324819D02*
X61541779Y-79324819D01*
X61541779Y-79324819D02*
X61684636Y-79372438D01*
X61684636Y-79372438D02*
X61779874Y-79467676D01*
X61779874Y-79467676D02*
X61827493Y-79562914D01*
X61827493Y-79562914D02*
X61875112Y-79753390D01*
X61875112Y-79753390D02*
X61875112Y-79896247D01*
X61875112Y-79896247D02*
X61827493Y-80086723D01*
X61827493Y-80086723D02*
X61779874Y-80181961D01*
X61779874Y-80181961D02*
X61684636Y-80277200D01*
X61684636Y-80277200D02*
X61541779Y-80324819D01*
X61541779Y-80324819D02*
X61303684Y-80324819D01*
X62827493Y-80324819D02*
X62256065Y-80324819D01*
X62541779Y-80324819D02*
X62541779Y-79324819D01*
X62541779Y-79324819D02*
X62446541Y-79467676D01*
X62446541Y-79467676D02*
X62351303Y-79562914D01*
X62351303Y-79562914D02*
X62256065Y-79610533D01*
X59459160Y-82872200D02*
X59602017Y-82919819D01*
X59602017Y-82919819D02*
X59840112Y-82919819D01*
X59840112Y-82919819D02*
X59935350Y-82872200D01*
X59935350Y-82872200D02*
X59982969Y-82824580D01*
X59982969Y-82824580D02*
X60030588Y-82729342D01*
X60030588Y-82729342D02*
X60030588Y-82634104D01*
X60030588Y-82634104D02*
X59982969Y-82538866D01*
X59982969Y-82538866D02*
X59935350Y-82491247D01*
X59935350Y-82491247D02*
X59840112Y-82443628D01*
X59840112Y-82443628D02*
X59649636Y-82396009D01*
X59649636Y-82396009D02*
X59554398Y-82348390D01*
X59554398Y-82348390D02*
X59506779Y-82300771D01*
X59506779Y-82300771D02*
X59459160Y-82205533D01*
X59459160Y-82205533D02*
X59459160Y-82110295D01*
X59459160Y-82110295D02*
X59506779Y-82015057D01*
X59506779Y-82015057D02*
X59554398Y-81967438D01*
X59554398Y-81967438D02*
X59649636Y-81919819D01*
X59649636Y-81919819D02*
X59887731Y-81919819D01*
X59887731Y-81919819D02*
X60030588Y-81967438D01*
X60935350Y-82919819D02*
X60459160Y-82919819D01*
X60459160Y-82919819D02*
X60459160Y-81919819D01*
X61268684Y-82919819D02*
X61268684Y-81919819D01*
X61268684Y-81919819D02*
X61506779Y-81919819D01*
X61506779Y-81919819D02*
X61649636Y-81967438D01*
X61649636Y-81967438D02*
X61744874Y-82062676D01*
X61744874Y-82062676D02*
X61792493Y-82157914D01*
X61792493Y-82157914D02*
X61840112Y-82348390D01*
X61840112Y-82348390D02*
X61840112Y-82491247D01*
X61840112Y-82491247D02*
X61792493Y-82681723D01*
X61792493Y-82681723D02*
X61744874Y-82776961D01*
X61744874Y-82776961D02*
X61649636Y-82872200D01*
X61649636Y-82872200D02*
X61506779Y-82919819D01*
X61506779Y-82919819D02*
X61268684Y-82919819D01*
X62221065Y-82015057D02*
X62268684Y-81967438D01*
X62268684Y-81967438D02*
X62363922Y-81919819D01*
X62363922Y-81919819D02*
X62602017Y-81919819D01*
X62602017Y-81919819D02*
X62697255Y-81967438D01*
X62697255Y-81967438D02*
X62744874Y-82015057D01*
X62744874Y-82015057D02*
X62792493Y-82110295D01*
X62792493Y-82110295D02*
X62792493Y-82205533D01*
X62792493Y-82205533D02*
X62744874Y-82348390D01*
X62744874Y-82348390D02*
X62173446Y-82919819D01*
X62173446Y-82919819D02*
X62792493Y-82919819D01*
X60000588Y-84702438D02*
X59905350Y-84654819D01*
X59905350Y-84654819D02*
X59762493Y-84654819D01*
X59762493Y-84654819D02*
X59619636Y-84702438D01*
X59619636Y-84702438D02*
X59524398Y-84797676D01*
X59524398Y-84797676D02*
X59476779Y-84892914D01*
X59476779Y-84892914D02*
X59429160Y-85083390D01*
X59429160Y-85083390D02*
X59429160Y-85226247D01*
X59429160Y-85226247D02*
X59476779Y-85416723D01*
X59476779Y-85416723D02*
X59524398Y-85511961D01*
X59524398Y-85511961D02*
X59619636Y-85607200D01*
X59619636Y-85607200D02*
X59762493Y-85654819D01*
X59762493Y-85654819D02*
X59857731Y-85654819D01*
X59857731Y-85654819D02*
X60000588Y-85607200D01*
X60000588Y-85607200D02*
X60048207Y-85559580D01*
X60048207Y-85559580D02*
X60048207Y-85226247D01*
X60048207Y-85226247D02*
X59857731Y-85226247D01*
X59708866Y-72568220D02*
X59708866Y-71806316D01*
X60089819Y-72187268D02*
X59327914Y-72187268D01*
X94899819Y-86011792D02*
X94423628Y-86345125D01*
X94899819Y-86583220D02*
X93899819Y-86583220D01*
X93899819Y-86583220D02*
X93899819Y-86202268D01*
X93899819Y-86202268D02*
X93947438Y-86107030D01*
X93947438Y-86107030D02*
X93995057Y-86059411D01*
X93995057Y-86059411D02*
X94090295Y-86011792D01*
X94090295Y-86011792D02*
X94233152Y-86011792D01*
X94233152Y-86011792D02*
X94328390Y-86059411D01*
X94328390Y-86059411D02*
X94376009Y-86107030D01*
X94376009Y-86107030D02*
X94423628Y-86202268D01*
X94423628Y-86202268D02*
X94423628Y-86583220D01*
X93899819Y-85392744D02*
X93899819Y-85202268D01*
X93899819Y-85202268D02*
X93947438Y-85107030D01*
X93947438Y-85107030D02*
X94042676Y-85011792D01*
X94042676Y-85011792D02*
X94233152Y-84964173D01*
X94233152Y-84964173D02*
X94566485Y-84964173D01*
X94566485Y-84964173D02*
X94756961Y-85011792D01*
X94756961Y-85011792D02*
X94852200Y-85107030D01*
X94852200Y-85107030D02*
X94899819Y-85202268D01*
X94899819Y-85202268D02*
X94899819Y-85392744D01*
X94899819Y-85392744D02*
X94852200Y-85487982D01*
X94852200Y-85487982D02*
X94756961Y-85583220D01*
X94756961Y-85583220D02*
X94566485Y-85630839D01*
X94566485Y-85630839D02*
X94233152Y-85630839D01*
X94233152Y-85630839D02*
X94042676Y-85583220D01*
X94042676Y-85583220D02*
X93947438Y-85487982D01*
X93947438Y-85487982D02*
X93899819Y-85392744D01*
X93899819Y-84678458D02*
X93899819Y-84107030D01*
X94899819Y-84392744D02*
X93899819Y-84392744D01*
X93995057Y-83821315D02*
X93947438Y-83773696D01*
X93947438Y-83773696D02*
X93899819Y-83678458D01*
X93899819Y-83678458D02*
X93899819Y-83440363D01*
X93899819Y-83440363D02*
X93947438Y-83345125D01*
X93947438Y-83345125D02*
X93995057Y-83297506D01*
X93995057Y-83297506D02*
X94090295Y-83249887D01*
X94090295Y-83249887D02*
X94185533Y-83249887D01*
X94185533Y-83249887D02*
X94328390Y-83297506D01*
X94328390Y-83297506D02*
X94899819Y-83868934D01*
X94899819Y-83868934D02*
X94899819Y-83249887D01*
X94964819Y-70871792D02*
X94488628Y-71205125D01*
X94964819Y-71443220D02*
X93964819Y-71443220D01*
X93964819Y-71443220D02*
X93964819Y-71062268D01*
X93964819Y-71062268D02*
X94012438Y-70967030D01*
X94012438Y-70967030D02*
X94060057Y-70919411D01*
X94060057Y-70919411D02*
X94155295Y-70871792D01*
X94155295Y-70871792D02*
X94298152Y-70871792D01*
X94298152Y-70871792D02*
X94393390Y-70919411D01*
X94393390Y-70919411D02*
X94441009Y-70967030D01*
X94441009Y-70967030D02*
X94488628Y-71062268D01*
X94488628Y-71062268D02*
X94488628Y-71443220D01*
X93964819Y-70252744D02*
X93964819Y-70062268D01*
X93964819Y-70062268D02*
X94012438Y-69967030D01*
X94012438Y-69967030D02*
X94107676Y-69871792D01*
X94107676Y-69871792D02*
X94298152Y-69824173D01*
X94298152Y-69824173D02*
X94631485Y-69824173D01*
X94631485Y-69824173D02*
X94821961Y-69871792D01*
X94821961Y-69871792D02*
X94917200Y-69967030D01*
X94917200Y-69967030D02*
X94964819Y-70062268D01*
X94964819Y-70062268D02*
X94964819Y-70252744D01*
X94964819Y-70252744D02*
X94917200Y-70347982D01*
X94917200Y-70347982D02*
X94821961Y-70443220D01*
X94821961Y-70443220D02*
X94631485Y-70490839D01*
X94631485Y-70490839D02*
X94298152Y-70490839D01*
X94298152Y-70490839D02*
X94107676Y-70443220D01*
X94107676Y-70443220D02*
X94012438Y-70347982D01*
X94012438Y-70347982D02*
X93964819Y-70252744D01*
X93964819Y-69538458D02*
X93964819Y-68967030D01*
X94964819Y-69252744D02*
X93964819Y-69252744D01*
X94964819Y-68109887D02*
X94964819Y-68681315D01*
X94964819Y-68395601D02*
X93964819Y-68395601D01*
X93964819Y-68395601D02*
X94107676Y-68490839D01*
X94107676Y-68490839D02*
X94202914Y-68586077D01*
X94202914Y-68586077D02*
X94250533Y-68681315D01*
X91377438Y-83229411D02*
X91329819Y-83324649D01*
X91329819Y-83324649D02*
X91329819Y-83467506D01*
X91329819Y-83467506D02*
X91377438Y-83610363D01*
X91377438Y-83610363D02*
X91472676Y-83705601D01*
X91472676Y-83705601D02*
X91567914Y-83753220D01*
X91567914Y-83753220D02*
X91758390Y-83800839D01*
X91758390Y-83800839D02*
X91901247Y-83800839D01*
X91901247Y-83800839D02*
X92091723Y-83753220D01*
X92091723Y-83753220D02*
X92186961Y-83705601D01*
X92186961Y-83705601D02*
X92282200Y-83610363D01*
X92282200Y-83610363D02*
X92329819Y-83467506D01*
X92329819Y-83467506D02*
X92329819Y-83372268D01*
X92329819Y-83372268D02*
X92282200Y-83229411D01*
X92282200Y-83229411D02*
X92234580Y-83181792D01*
X92234580Y-83181792D02*
X91901247Y-83181792D01*
X91901247Y-83181792D02*
X91901247Y-83372268D01*
X96983866Y-83848220D02*
X96983866Y-83086316D01*
X97364819Y-83467268D02*
X96602914Y-83467268D01*
X91442438Y-70854411D02*
X91394819Y-70949649D01*
X91394819Y-70949649D02*
X91394819Y-71092506D01*
X91394819Y-71092506D02*
X91442438Y-71235363D01*
X91442438Y-71235363D02*
X91537676Y-71330601D01*
X91537676Y-71330601D02*
X91632914Y-71378220D01*
X91632914Y-71378220D02*
X91823390Y-71425839D01*
X91823390Y-71425839D02*
X91966247Y-71425839D01*
X91966247Y-71425839D02*
X92156723Y-71378220D01*
X92156723Y-71378220D02*
X92251961Y-71330601D01*
X92251961Y-71330601D02*
X92347200Y-71235363D01*
X92347200Y-71235363D02*
X92394819Y-71092506D01*
X92394819Y-71092506D02*
X92394819Y-70997268D01*
X92394819Y-70997268D02*
X92347200Y-70854411D01*
X92347200Y-70854411D02*
X92299580Y-70806792D01*
X92299580Y-70806792D02*
X91966247Y-70806792D01*
X91966247Y-70806792D02*
X91966247Y-70997268D01*
X96953866Y-71543220D02*
X96953866Y-70781316D01*
X97334819Y-71162268D02*
X96572914Y-71162268D01*
X76399819Y-72793571D02*
X75923628Y-73126904D01*
X76399819Y-73364999D02*
X75399819Y-73364999D01*
X75399819Y-73364999D02*
X75399819Y-72984047D01*
X75399819Y-72984047D02*
X75447438Y-72888809D01*
X75447438Y-72888809D02*
X75495057Y-72841190D01*
X75495057Y-72841190D02*
X75590295Y-72793571D01*
X75590295Y-72793571D02*
X75733152Y-72793571D01*
X75733152Y-72793571D02*
X75828390Y-72841190D01*
X75828390Y-72841190D02*
X75876009Y-72888809D01*
X75876009Y-72888809D02*
X75923628Y-72984047D01*
X75923628Y-72984047D02*
X75923628Y-73364999D01*
X76495057Y-72603095D02*
X76495057Y-71841190D01*
X76352200Y-71650713D02*
X76399819Y-71507856D01*
X76399819Y-71507856D02*
X76399819Y-71269761D01*
X76399819Y-71269761D02*
X76352200Y-71174523D01*
X76352200Y-71174523D02*
X76304580Y-71126904D01*
X76304580Y-71126904D02*
X76209342Y-71079285D01*
X76209342Y-71079285D02*
X76114104Y-71079285D01*
X76114104Y-71079285D02*
X76018866Y-71126904D01*
X76018866Y-71126904D02*
X75971247Y-71174523D01*
X75971247Y-71174523D02*
X75923628Y-71269761D01*
X75923628Y-71269761D02*
X75876009Y-71460237D01*
X75876009Y-71460237D02*
X75828390Y-71555475D01*
X75828390Y-71555475D02*
X75780771Y-71603094D01*
X75780771Y-71603094D02*
X75685533Y-71650713D01*
X75685533Y-71650713D02*
X75590295Y-71650713D01*
X75590295Y-71650713D02*
X75495057Y-71603094D01*
X75495057Y-71603094D02*
X75447438Y-71555475D01*
X75447438Y-71555475D02*
X75399819Y-71460237D01*
X75399819Y-71460237D02*
X75399819Y-71222142D01*
X75399819Y-71222142D02*
X75447438Y-71079285D01*
X76399819Y-70174523D02*
X76399819Y-70650713D01*
X76399819Y-70650713D02*
X75399819Y-70650713D01*
X76399819Y-69841189D02*
X75399819Y-69841189D01*
X75399819Y-69841189D02*
X75399819Y-69603094D01*
X75399819Y-69603094D02*
X75447438Y-69460237D01*
X75447438Y-69460237D02*
X75542676Y-69364999D01*
X75542676Y-69364999D02*
X75637914Y-69317380D01*
X75637914Y-69317380D02*
X75828390Y-69269761D01*
X75828390Y-69269761D02*
X75971247Y-69269761D01*
X75971247Y-69269761D02*
X76161723Y-69317380D01*
X76161723Y-69317380D02*
X76256961Y-69364999D01*
X76256961Y-69364999D02*
X76352200Y-69460237D01*
X76352200Y-69460237D02*
X76399819Y-69603094D01*
X76399819Y-69603094D02*
X76399819Y-69841189D01*
X75495057Y-68888808D02*
X75447438Y-68841189D01*
X75447438Y-68841189D02*
X75399819Y-68745951D01*
X75399819Y-68745951D02*
X75399819Y-68507856D01*
X75399819Y-68507856D02*
X75447438Y-68412618D01*
X75447438Y-68412618D02*
X75495057Y-68364999D01*
X75495057Y-68364999D02*
X75590295Y-68317380D01*
X75590295Y-68317380D02*
X75685533Y-68317380D01*
X75685533Y-68317380D02*
X75828390Y-68364999D01*
X75828390Y-68364999D02*
X76399819Y-68936427D01*
X76399819Y-68936427D02*
X76399819Y-68317380D01*
X89614819Y-82942381D02*
X89138628Y-83275714D01*
X89614819Y-83513809D02*
X88614819Y-83513809D01*
X88614819Y-83513809D02*
X88614819Y-83132857D01*
X88614819Y-83132857D02*
X88662438Y-83037619D01*
X88662438Y-83037619D02*
X88710057Y-82990000D01*
X88710057Y-82990000D02*
X88805295Y-82942381D01*
X88805295Y-82942381D02*
X88948152Y-82942381D01*
X88948152Y-82942381D02*
X89043390Y-82990000D01*
X89043390Y-82990000D02*
X89091009Y-83037619D01*
X89091009Y-83037619D02*
X89138628Y-83132857D01*
X89138628Y-83132857D02*
X89138628Y-83513809D01*
X89710057Y-82751905D02*
X89710057Y-81990000D01*
X89614819Y-81180476D02*
X89138628Y-81513809D01*
X89614819Y-81751904D02*
X88614819Y-81751904D01*
X88614819Y-81751904D02*
X88614819Y-81370952D01*
X88614819Y-81370952D02*
X88662438Y-81275714D01*
X88662438Y-81275714D02*
X88710057Y-81228095D01*
X88710057Y-81228095D02*
X88805295Y-81180476D01*
X88805295Y-81180476D02*
X88948152Y-81180476D01*
X88948152Y-81180476D02*
X89043390Y-81228095D01*
X89043390Y-81228095D02*
X89091009Y-81275714D01*
X89091009Y-81275714D02*
X89138628Y-81370952D01*
X89138628Y-81370952D02*
X89138628Y-81751904D01*
X88614819Y-80561428D02*
X88614819Y-80370952D01*
X88614819Y-80370952D02*
X88662438Y-80275714D01*
X88662438Y-80275714D02*
X88757676Y-80180476D01*
X88757676Y-80180476D02*
X88948152Y-80132857D01*
X88948152Y-80132857D02*
X89281485Y-80132857D01*
X89281485Y-80132857D02*
X89471961Y-80180476D01*
X89471961Y-80180476D02*
X89567200Y-80275714D01*
X89567200Y-80275714D02*
X89614819Y-80370952D01*
X89614819Y-80370952D02*
X89614819Y-80561428D01*
X89614819Y-80561428D02*
X89567200Y-80656666D01*
X89567200Y-80656666D02*
X89471961Y-80751904D01*
X89471961Y-80751904D02*
X89281485Y-80799523D01*
X89281485Y-80799523D02*
X88948152Y-80799523D01*
X88948152Y-80799523D02*
X88757676Y-80751904D01*
X88757676Y-80751904D02*
X88662438Y-80656666D01*
X88662438Y-80656666D02*
X88614819Y-80561428D01*
X88614819Y-79847142D02*
X88614819Y-79275714D01*
X89614819Y-79561428D02*
X88614819Y-79561428D01*
X88710057Y-78989999D02*
X88662438Y-78942380D01*
X88662438Y-78942380D02*
X88614819Y-78847142D01*
X88614819Y-78847142D02*
X88614819Y-78609047D01*
X88614819Y-78609047D02*
X88662438Y-78513809D01*
X88662438Y-78513809D02*
X88710057Y-78466190D01*
X88710057Y-78466190D02*
X88805295Y-78418571D01*
X88805295Y-78418571D02*
X88900533Y-78418571D01*
X88900533Y-78418571D02*
X89043390Y-78466190D01*
X89043390Y-78466190D02*
X89614819Y-79037618D01*
X89614819Y-79037618D02*
X89614819Y-78418571D01*
X89614819Y-75832381D02*
X89138628Y-76165714D01*
X89614819Y-76403809D02*
X88614819Y-76403809D01*
X88614819Y-76403809D02*
X88614819Y-76022857D01*
X88614819Y-76022857D02*
X88662438Y-75927619D01*
X88662438Y-75927619D02*
X88710057Y-75880000D01*
X88710057Y-75880000D02*
X88805295Y-75832381D01*
X88805295Y-75832381D02*
X88948152Y-75832381D01*
X88948152Y-75832381D02*
X89043390Y-75880000D01*
X89043390Y-75880000D02*
X89091009Y-75927619D01*
X89091009Y-75927619D02*
X89138628Y-76022857D01*
X89138628Y-76022857D02*
X89138628Y-76403809D01*
X89710057Y-75641905D02*
X89710057Y-74880000D01*
X89614819Y-74070476D02*
X89138628Y-74403809D01*
X89614819Y-74641904D02*
X88614819Y-74641904D01*
X88614819Y-74641904D02*
X88614819Y-74260952D01*
X88614819Y-74260952D02*
X88662438Y-74165714D01*
X88662438Y-74165714D02*
X88710057Y-74118095D01*
X88710057Y-74118095D02*
X88805295Y-74070476D01*
X88805295Y-74070476D02*
X88948152Y-74070476D01*
X88948152Y-74070476D02*
X89043390Y-74118095D01*
X89043390Y-74118095D02*
X89091009Y-74165714D01*
X89091009Y-74165714D02*
X89138628Y-74260952D01*
X89138628Y-74260952D02*
X89138628Y-74641904D01*
X88614819Y-73451428D02*
X88614819Y-73260952D01*
X88614819Y-73260952D02*
X88662438Y-73165714D01*
X88662438Y-73165714D02*
X88757676Y-73070476D01*
X88757676Y-73070476D02*
X88948152Y-73022857D01*
X88948152Y-73022857D02*
X89281485Y-73022857D01*
X89281485Y-73022857D02*
X89471961Y-73070476D01*
X89471961Y-73070476D02*
X89567200Y-73165714D01*
X89567200Y-73165714D02*
X89614819Y-73260952D01*
X89614819Y-73260952D02*
X89614819Y-73451428D01*
X89614819Y-73451428D02*
X89567200Y-73546666D01*
X89567200Y-73546666D02*
X89471961Y-73641904D01*
X89471961Y-73641904D02*
X89281485Y-73689523D01*
X89281485Y-73689523D02*
X88948152Y-73689523D01*
X88948152Y-73689523D02*
X88757676Y-73641904D01*
X88757676Y-73641904D02*
X88662438Y-73546666D01*
X88662438Y-73546666D02*
X88614819Y-73451428D01*
X88614819Y-72737142D02*
X88614819Y-72165714D01*
X89614819Y-72451428D02*
X88614819Y-72451428D01*
X89614819Y-71308571D02*
X89614819Y-71879999D01*
X89614819Y-71594285D02*
X88614819Y-71594285D01*
X88614819Y-71594285D02*
X88757676Y-71689523D01*
X88757676Y-71689523D02*
X88852914Y-71784761D01*
X88852914Y-71784761D02*
X88900533Y-71879999D01*
X56656666Y-68914819D02*
X56656666Y-69629104D01*
X56656666Y-69629104D02*
X56609047Y-69771961D01*
X56609047Y-69771961D02*
X56513809Y-69867200D01*
X56513809Y-69867200D02*
X56370952Y-69914819D01*
X56370952Y-69914819D02*
X56275714Y-69914819D01*
X57656666Y-69914819D02*
X57085238Y-69914819D01*
X57370952Y-69914819D02*
X57370952Y-68914819D01*
X57370952Y-68914819D02*
X57275714Y-69057676D01*
X57275714Y-69057676D02*
X57180476Y-69152914D01*
X57180476Y-69152914D02*
X57085238Y-69200533D01*
X75084819Y-113168571D02*
X74608628Y-113501904D01*
X75084819Y-113739999D02*
X74084819Y-113739999D01*
X74084819Y-113739999D02*
X74084819Y-113359047D01*
X74084819Y-113359047D02*
X74132438Y-113263809D01*
X74132438Y-113263809D02*
X74180057Y-113216190D01*
X74180057Y-113216190D02*
X74275295Y-113168571D01*
X74275295Y-113168571D02*
X74418152Y-113168571D01*
X74418152Y-113168571D02*
X74513390Y-113216190D01*
X74513390Y-113216190D02*
X74561009Y-113263809D01*
X74561009Y-113263809D02*
X74608628Y-113359047D01*
X74608628Y-113359047D02*
X74608628Y-113739999D01*
X75180057Y-112978095D02*
X75180057Y-112216190D01*
X75037200Y-112025713D02*
X75084819Y-111882856D01*
X75084819Y-111882856D02*
X75084819Y-111644761D01*
X75084819Y-111644761D02*
X75037200Y-111549523D01*
X75037200Y-111549523D02*
X74989580Y-111501904D01*
X74989580Y-111501904D02*
X74894342Y-111454285D01*
X74894342Y-111454285D02*
X74799104Y-111454285D01*
X74799104Y-111454285D02*
X74703866Y-111501904D01*
X74703866Y-111501904D02*
X74656247Y-111549523D01*
X74656247Y-111549523D02*
X74608628Y-111644761D01*
X74608628Y-111644761D02*
X74561009Y-111835237D01*
X74561009Y-111835237D02*
X74513390Y-111930475D01*
X74513390Y-111930475D02*
X74465771Y-111978094D01*
X74465771Y-111978094D02*
X74370533Y-112025713D01*
X74370533Y-112025713D02*
X74275295Y-112025713D01*
X74275295Y-112025713D02*
X74180057Y-111978094D01*
X74180057Y-111978094D02*
X74132438Y-111930475D01*
X74132438Y-111930475D02*
X74084819Y-111835237D01*
X74084819Y-111835237D02*
X74084819Y-111597142D01*
X74084819Y-111597142D02*
X74132438Y-111454285D01*
X75084819Y-110549523D02*
X75084819Y-111025713D01*
X75084819Y-111025713D02*
X74084819Y-111025713D01*
X75084819Y-110216189D02*
X74084819Y-110216189D01*
X74084819Y-110216189D02*
X74084819Y-109978094D01*
X74084819Y-109978094D02*
X74132438Y-109835237D01*
X74132438Y-109835237D02*
X74227676Y-109739999D01*
X74227676Y-109739999D02*
X74322914Y-109692380D01*
X74322914Y-109692380D02*
X74513390Y-109644761D01*
X74513390Y-109644761D02*
X74656247Y-109644761D01*
X74656247Y-109644761D02*
X74846723Y-109692380D01*
X74846723Y-109692380D02*
X74941961Y-109739999D01*
X74941961Y-109739999D02*
X75037200Y-109835237D01*
X75037200Y-109835237D02*
X75084819Y-109978094D01*
X75084819Y-109978094D02*
X75084819Y-110216189D01*
X75084819Y-108692380D02*
X75084819Y-109263808D01*
X75084819Y-108978094D02*
X74084819Y-108978094D01*
X74084819Y-108978094D02*
X74227676Y-109073332D01*
X74227676Y-109073332D02*
X74322914Y-109168570D01*
X74322914Y-109168570D02*
X74370533Y-109263808D01*
D11*
%TO.C,RV2*%
X84045000Y-61055000D02*
X83045000Y-61055000D01*
X83045000Y-61055000D02*
X83545000Y-61555000D01*
X83545000Y-61555000D02*
X84045000Y-61055000D01*
X86415000Y-61860000D02*
X84720000Y-61860000D01*
X86415000Y-61860000D02*
X86415000Y-66445000D01*
X82370000Y-61860000D02*
X80867000Y-61860000D01*
X79222000Y-61860000D02*
X77175000Y-61860000D01*
X77175000Y-61860000D02*
X77175000Y-65245000D01*
X77175000Y-68516000D02*
X77175000Y-115445000D01*
X83295000Y-69480000D02*
X80295000Y-69480000D01*
X81795000Y-69480000D02*
X81045000Y-70230000D01*
X81795000Y-69480000D02*
X81795000Y-114480000D01*
X86415000Y-69716000D02*
X86415000Y-114245000D01*
X82545000Y-70230000D02*
X81795000Y-69480000D01*
X82545000Y-113730000D02*
X81795000Y-114480000D01*
X83295000Y-114480000D02*
X80295000Y-114480000D01*
X81795000Y-114480000D02*
X81045000Y-113730000D01*
X86415000Y-117516000D02*
X86415000Y-122100000D01*
X77175000Y-118716000D02*
X77175000Y-122100000D01*
X86415000Y-122100000D02*
X84368000Y-122100000D01*
X82722000Y-122100000D02*
X77175000Y-122100000D01*
%TO.C,RV4*%
X95740000Y-82320000D02*
X90600000Y-82320000D01*
X98340000Y-82320000D02*
X97010000Y-82320000D01*
X98340000Y-80990000D02*
X98340000Y-82320000D01*
X90600000Y-79660000D02*
X90600000Y-82320000D01*
X95740000Y-79660000D02*
X95740000Y-82320000D01*
X95740000Y-79660000D02*
X90600000Y-79660000D01*
%TO.C,RV3*%
X95740000Y-72550000D02*
X90600000Y-72550000D01*
X95740000Y-72550000D02*
X95740000Y-75210000D01*
X90600000Y-72550000D02*
X90600000Y-75210000D01*
X98340000Y-73880000D02*
X98340000Y-75210000D01*
X98340000Y-75210000D02*
X97010000Y-75210000D01*
X95740000Y-75210000D02*
X90600000Y-75210000D01*
%TO.C,J1*%
X55660000Y-73500000D02*
X55660000Y-86260000D01*
X55660000Y-73500000D02*
X58320000Y-73500000D01*
X55660000Y-86260000D02*
X58320000Y-86260000D01*
X56990000Y-70900000D02*
X58320000Y-70900000D01*
X58320000Y-70900000D02*
X58320000Y-72230000D01*
X58320000Y-73500000D02*
X58320000Y-86260000D01*
%TO.C,RV1*%
X70890000Y-60820000D02*
X69890000Y-60820000D01*
X69890000Y-60820000D02*
X70390000Y-61320000D01*
X70390000Y-61320000D02*
X70890000Y-60820000D01*
X73260000Y-61625000D02*
X71565000Y-61625000D01*
X73260000Y-61625000D02*
X73260000Y-66210000D01*
X69215000Y-61625000D02*
X67712000Y-61625000D01*
X66067000Y-61625000D02*
X64020000Y-61625000D01*
X64020000Y-61625000D02*
X64020000Y-65010000D01*
X64020000Y-68281000D02*
X64020000Y-115210000D01*
X70140000Y-69245000D02*
X67140000Y-69245000D01*
X68640000Y-69245000D02*
X67890000Y-69995000D01*
X68640000Y-69245000D02*
X68640000Y-114245000D01*
X73260000Y-69481000D02*
X73260000Y-114010000D01*
X69390000Y-69995000D02*
X68640000Y-69245000D01*
X69390000Y-113495000D02*
X68640000Y-114245000D01*
X70140000Y-114245000D02*
X67140000Y-114245000D01*
X68640000Y-114245000D02*
X67890000Y-113495000D01*
X73260000Y-117281000D02*
X73260000Y-121865000D01*
X64020000Y-118481000D02*
X64020000Y-121865000D01*
X73260000Y-121865000D02*
X71213000Y-121865000D01*
X69567000Y-121865000D02*
X64020000Y-121865000D01*
%TD*%
M02*
