M48
; DRILL file {KiCad 8.0.6} date 2026-05-30T20:21:54+0200
; FORMAT={-:-/ absolute / inch / decimal}
; #@! TF.CreationDate,2026-05-30T20:21:54+02:00
; #@! TF.GenerationSoftware,Kicad,Pcbnew,8.0.6
; #@! TF.FileFunction,Plated,1,2,PTH
FMAT,2
INCH
; #@! TA.AperFunction,Plated,PTH,ComponentDrill
T1C0.0394
; #@! TA.AperFunction,Plated,PTH,ComponentDrill
T2C0.0472
; #@! TA.AperFunction,Plated,PTH,ComponentDrill
T3C0.0669
; #@! TA.AperFunction,Plated,PTH,ComponentDrill
T4C0.1260
%
G90
G05
T1
X2.2437Y-2.8437
X2.2437Y-2.9437
X2.2437Y-3.0437
X2.2437Y-3.1437
X2.2437Y-3.2437
X2.2437Y-3.3437
X3.6193Y-2.9087
X3.6193Y-3.1886
X3.7193Y-2.9087
X3.7193Y-3.1886
X3.8193Y-2.9087
X3.8193Y-3.1886
T2
X2.6335Y-2.4604
X2.7713Y-2.4604
X2.7713Y-4.7636
X3.1514Y-2.4697
X3.2892Y-2.4697
X3.2892Y-4.7728
T3
X2.537Y-2.6238
X2.537Y-4.6002
X2.8677Y-2.6711
X2.8677Y-4.553
X3.0549Y-2.6331
X3.0549Y-4.6094
X3.3856Y-2.6803
X3.3856Y-4.5622
T4
X2.315Y-2.4459
X2.3272Y-4.6663
X3.6787Y-3.5425
M30
