%TF.GenerationSoftware,KiCad,Pcbnew,8.0.6*%
%TF.CreationDate,2026-05-30T20:21:56+02:00*%
%TF.ProjectId,_anal,5f616e61-6c2e-46b6-9963-61645f706362,rev?*%
%TF.SameCoordinates,Original*%
%TF.FileFunction,Legend,Bot*%
%TF.FilePolarity,Positive*%
%FSLAX46Y46*%
G04 Gerber Fmt 4.6, Leading zero omitted, Abs format (unit mm)*
G04 Created by KiCad (PCBNEW 8.0.6) date 2026-05-30 20:21:56*
%MOMM*%
%LPD*%
G01*
G04 APERTURE LIST*
%ADD10C,0.100000*%
%ADD11C,0.300000*%
%ADD12C,0.150000*%
G04 APERTURE END LIST*
D10*
X86550000Y-77560000D02*
X86550000Y-77345000D01*
X85290000Y-77580000D02*
X86550000Y-77560000D01*
X85740000Y-77915000D02*
X85290000Y-77580000D01*
X86550000Y-77915000D02*
X85740000Y-77915000D01*
X86550000Y-77345000D02*
X86550000Y-77915000D01*
X86550000Y-77055000D02*
X86550000Y-77345000D01*
X85775000Y-77055000D02*
X86550000Y-77055000D01*
X85310000Y-77390000D02*
X85775000Y-77055000D01*
X81730000Y-77575000D02*
X81395000Y-77575000D01*
X81730000Y-77840000D02*
X81730000Y-77575000D01*
X81395000Y-77575000D02*
X81730000Y-77840000D01*
X81750000Y-77335000D02*
X81415000Y-77350000D01*
X81750000Y-77100000D02*
X81750000Y-77335000D01*
X81415000Y-77350000D02*
X81750000Y-77100000D01*
D11*
X80895000Y-77475000D02*
X86645000Y-77475000D01*
D10*
X63005000Y-77680000D02*
X62565000Y-77640000D01*
X62570000Y-76880000D01*
X62980000Y-76815000D01*
X63005000Y-77680000D01*
G36*
X63005000Y-77680000D02*
G01*
X62565000Y-77640000D01*
X62570000Y-76880000D01*
X62980000Y-76815000D01*
X63005000Y-77680000D01*
G37*
X68370000Y-74090000D02*
X66780000Y-76230000D01*
X68270000Y-76245000D01*
X68260000Y-76470000D01*
X69750000Y-76445000D01*
X70775000Y-75275000D01*
X71435000Y-75260000D01*
X71470000Y-76435000D01*
X71370000Y-76445000D01*
X71390000Y-76900000D01*
X69545000Y-76895000D01*
X69545000Y-77145000D01*
X69225000Y-77155000D01*
X69225000Y-77325000D01*
X69545000Y-77340000D01*
X69555000Y-77770000D01*
X71380000Y-77760000D01*
X71375000Y-78030000D01*
X71460000Y-78045000D01*
X71460000Y-79155000D01*
X70755000Y-79160000D01*
X69700000Y-78030000D01*
X68265000Y-78010000D01*
X68272500Y-78135000D01*
X66830000Y-78260000D01*
X68410000Y-80405000D01*
X68005000Y-80420000D01*
X66155000Y-78255000D01*
X65920000Y-78245000D01*
X64910000Y-77980000D01*
X64920000Y-77445000D01*
X65655000Y-77195000D01*
X64920000Y-77010000D01*
X64905000Y-76425000D01*
X66210000Y-76155000D01*
X67995000Y-74050000D01*
X68370000Y-74090000D01*
G36*
X68370000Y-74090000D02*
G01*
X66780000Y-76230000D01*
X68270000Y-76245000D01*
X68260000Y-76470000D01*
X69750000Y-76445000D01*
X70775000Y-75275000D01*
X71435000Y-75260000D01*
X71470000Y-76435000D01*
X71370000Y-76445000D01*
X71390000Y-76900000D01*
X69545000Y-76895000D01*
X69545000Y-77145000D01*
X69225000Y-77155000D01*
X69225000Y-77325000D01*
X69545000Y-77340000D01*
X69555000Y-77770000D01*
X71380000Y-77760000D01*
X71375000Y-78030000D01*
X71460000Y-78045000D01*
X71460000Y-79155000D01*
X70755000Y-79160000D01*
X69700000Y-78030000D01*
X68265000Y-78010000D01*
X68272500Y-78135000D01*
X66830000Y-78260000D01*
X68410000Y-80405000D01*
X68005000Y-80420000D01*
X66155000Y-78255000D01*
X65920000Y-78245000D01*
X64910000Y-77980000D01*
X64920000Y-77445000D01*
X65655000Y-77195000D01*
X64920000Y-77010000D01*
X64905000Y-76425000D01*
X66210000Y-76155000D01*
X67995000Y-74050000D01*
X68370000Y-74090000D01*
G37*
X64920000Y-77445000D02*
X64430000Y-77415000D01*
X65655000Y-77195000D02*
X64920000Y-77445000D01*
X64920000Y-77010000D02*
X65655000Y-77195000D01*
X64270000Y-77025000D02*
X64920000Y-77010000D01*
X64905000Y-76425000D02*
X64920000Y-77010000D01*
X64910000Y-77980000D02*
X64920000Y-77445000D01*
X62980000Y-76815000D02*
X63005000Y-77680000D01*
X62570000Y-76880000D02*
X62565000Y-77640000D01*
X68880000Y-74050000D02*
X67995000Y-74050000D01*
X68875000Y-80420000D02*
X68005000Y-80420000D01*
X68265000Y-78010000D02*
X68280000Y-78260000D01*
X68880000Y-78015000D02*
X68265000Y-78010000D01*
X68600000Y-79760000D02*
X68280000Y-78260000D01*
X68855000Y-79750000D02*
X68600000Y-79760000D01*
X68410000Y-80405000D02*
X68725000Y-80420000D01*
X66830000Y-78260000D02*
X68410000Y-80405000D01*
X68280000Y-78260000D02*
X66830000Y-78260000D01*
X68725000Y-80420000D02*
X68280000Y-78260000D01*
X68880000Y-74725000D02*
X68585000Y-74720000D01*
X68260000Y-76470000D02*
X68890000Y-76465000D01*
X68270000Y-76245000D02*
X68260000Y-76470000D01*
X68705000Y-74080000D02*
X68270000Y-76245000D01*
X68370000Y-74090000D02*
X68705000Y-74080000D01*
X66780000Y-76230000D02*
X68370000Y-74090000D01*
X68270000Y-76245000D02*
X66780000Y-76230000D01*
X71610000Y-77155000D02*
X71600000Y-76970000D01*
X71590000Y-77515000D02*
X71595000Y-77340000D01*
X69225000Y-77155000D02*
X71885000Y-77155000D01*
X71885000Y-77325000D01*
X69225000Y-77325000D01*
X69225000Y-77155000D01*
X63100000Y-77380000D02*
X63005000Y-77245000D01*
X63410000Y-77475000D02*
X63100000Y-77380000D01*
X63915000Y-77480000D02*
X63410000Y-77475000D01*
X64430000Y-77415000D02*
X63915000Y-77480000D01*
X64675000Y-77280000D02*
X64430000Y-77415000D01*
X64585000Y-77090000D02*
X64675000Y-77280000D01*
X64270000Y-77025000D02*
X64585000Y-77090000D01*
X63755000Y-77025000D02*
X64270000Y-77025000D01*
X63265000Y-77080000D02*
X63755000Y-77025000D01*
X63005000Y-77245000D02*
X63265000Y-77080000D01*
X62565000Y-77640000D02*
X61185000Y-77270000D01*
X63005000Y-77680000D02*
X62565000Y-77640000D01*
X64325000Y-77840000D02*
X63005000Y-77680000D01*
X64910000Y-77980000D02*
X64325000Y-77840000D01*
X65920000Y-78245000D02*
X64910000Y-77980000D01*
X66155000Y-78255000D02*
X65920000Y-78245000D01*
X68005000Y-80420000D02*
X66155000Y-78255000D01*
X67680000Y-80460000D02*
X68005000Y-80420000D01*
X67680000Y-80530000D02*
X67680000Y-80460000D01*
X67195000Y-80600000D02*
X67680000Y-80530000D01*
X69060000Y-80605000D02*
X67195000Y-80600000D01*
X69055000Y-80425000D02*
X69060000Y-80605000D01*
X68875000Y-80420000D02*
X69055000Y-80425000D01*
X68880000Y-78015000D02*
X68875000Y-80420000D01*
X69700000Y-78030000D02*
X68880000Y-78015000D01*
X70755000Y-79160000D02*
X69700000Y-78030000D01*
X71460000Y-79155000D02*
X70755000Y-79160000D01*
X71460000Y-78045000D02*
X71460000Y-79155000D01*
X71375000Y-78030000D02*
X71460000Y-78045000D01*
X71380000Y-77760000D02*
X71375000Y-78030000D01*
X71590000Y-77515000D02*
X71380000Y-77760000D01*
X71390000Y-76900000D02*
X71600000Y-76970000D01*
X71370000Y-76445000D02*
X71390000Y-76900000D01*
X71470000Y-76435000D02*
X71370000Y-76445000D01*
X71435000Y-75260000D02*
X71470000Y-76435000D01*
X70775000Y-75275000D02*
X71435000Y-75260000D01*
X69750000Y-76445000D02*
X70775000Y-75275000D01*
X68890000Y-76465000D02*
X69750000Y-76445000D01*
X68880000Y-74050000D02*
X68890000Y-76465000D01*
X69075000Y-74050000D02*
X68880000Y-74050000D01*
X69065000Y-73920000D02*
X69075000Y-74050000D01*
X67260000Y-73940000D02*
X69065000Y-73920000D01*
X67640000Y-73980000D02*
X67260000Y-73940000D01*
X67670000Y-74045000D02*
X67640000Y-73980000D01*
X67995000Y-74050000D02*
X67670000Y-74045000D01*
X66210000Y-76155000D02*
X67995000Y-74050000D01*
X65970000Y-76175000D02*
X66210000Y-76155000D01*
X64485000Y-76565000D02*
X65970000Y-76175000D01*
X63655000Y-76695000D02*
X64485000Y-76565000D01*
X62810000Y-76845000D02*
X63655000Y-76695000D01*
X62330000Y-76915000D02*
X62810000Y-76845000D01*
X61865000Y-77000000D02*
X62330000Y-76915000D01*
X61535000Y-77065000D02*
X61865000Y-77000000D01*
X61185000Y-77270000D02*
X61535000Y-77065000D01*
X60460000Y-77270000D02*
X61185000Y-77270000D01*
D12*
G36*
X89526900Y-121252903D02*
G01*
X89586380Y-121258012D01*
X89642748Y-121268798D01*
X89696003Y-121285260D01*
X89746146Y-121307400D01*
X89793176Y-121335216D01*
X89837093Y-121368709D01*
X89853537Y-121383505D01*
X89890007Y-121423077D01*
X89919846Y-121466333D01*
X89943053Y-121513275D01*
X89959630Y-121563901D01*
X89969577Y-121618213D01*
X89972892Y-121676210D01*
X89972892Y-122021814D01*
X89035000Y-122021814D01*
X89035000Y-121714068D01*
X89035197Y-121707229D01*
X89175683Y-121707229D01*
X89175683Y-121847913D01*
X89832208Y-121847913D01*
X89832208Y-121687201D01*
X89826346Y-121633315D01*
X89808761Y-121584986D01*
X89779452Y-121542213D01*
X89738419Y-121504996D01*
X89708096Y-121485083D01*
X89662238Y-121462876D01*
X89612406Y-121447283D01*
X89558601Y-121438305D01*
X89509319Y-121435875D01*
X89499034Y-121435953D01*
X89450005Y-121438657D01*
X89396445Y-121447004D01*
X89348637Y-121460914D01*
X89300133Y-121484175D01*
X89259459Y-121515010D01*
X89222807Y-121556608D01*
X89196627Y-121602510D01*
X89180919Y-121652717D01*
X89175683Y-121707229D01*
X89035197Y-121707229D01*
X89036176Y-121673254D01*
X89041404Y-121621654D01*
X89053821Y-121561683D01*
X89072774Y-121506745D01*
X89098262Y-121456840D01*
X89130286Y-121411968D01*
X89168845Y-121372128D01*
X89185860Y-121357636D01*
X89230629Y-121325495D01*
X89278582Y-121299199D01*
X89329719Y-121278746D01*
X89384041Y-121264136D01*
X89441546Y-121255371D01*
X89502236Y-121252449D01*
X89526900Y-121252903D01*
G37*
G36*
X89390607Y-120514670D02*
G01*
X89446833Y-120518471D01*
X89499057Y-120527974D01*
X89547280Y-120543178D01*
X89591501Y-120564084D01*
X89638035Y-120595680D01*
X89672150Y-120628449D01*
X89703030Y-120672650D01*
X89724302Y-120723278D01*
X89734890Y-120771789D01*
X89738419Y-120825024D01*
X89738319Y-120834442D01*
X89733510Y-120888366D01*
X89721489Y-120937860D01*
X89702255Y-120982923D01*
X89670699Y-121029896D01*
X89635837Y-121065359D01*
X89622804Y-121076095D01*
X89581188Y-121104148D01*
X89535793Y-121125966D01*
X89486620Y-121141551D01*
X89433669Y-121150902D01*
X89376939Y-121154019D01*
X89366702Y-121153933D01*
X89308084Y-121149812D01*
X89254274Y-121139508D01*
X89205273Y-121123021D01*
X89161080Y-121100352D01*
X89115600Y-121066092D01*
X89082896Y-121031144D01*
X89053293Y-120985379D01*
X89032901Y-120934239D01*
X89022751Y-120886125D01*
X89019368Y-120834061D01*
X89019428Y-120826590D01*
X89023230Y-120776511D01*
X89034816Y-120724030D01*
X89054127Y-120676616D01*
X89081161Y-120634270D01*
X89101289Y-120610594D01*
X89141635Y-120574437D01*
X89187276Y-120546589D01*
X89238210Y-120527048D01*
X89253841Y-120668464D01*
X89211205Y-120689814D01*
X89175302Y-120723058D01*
X89151259Y-120771733D01*
X89144420Y-120825024D01*
X89144451Y-120828744D01*
X89152297Y-120879856D01*
X89175928Y-120924675D01*
X89205600Y-120954461D01*
X89249933Y-120977920D01*
X89263970Y-120981790D01*
X89314238Y-120989464D01*
X89363262Y-120991353D01*
X89457051Y-120991353D01*
X89483884Y-120987260D01*
X89530390Y-120971552D01*
X89572578Y-120940551D01*
X89584329Y-120926516D01*
X89606635Y-120881637D01*
X89613367Y-120832595D01*
X89612683Y-120816620D01*
X89599533Y-120765877D01*
X89569647Y-120723175D01*
X89552368Y-120708042D01*
X89508861Y-120685800D01*
X89457051Y-120677990D01*
X89457051Y-120991353D01*
X89363262Y-120991353D01*
X89363262Y-120515324D01*
X89380847Y-120514591D01*
X89390607Y-120514670D01*
G37*
G36*
X89191315Y-120460369D02*
G01*
X89222578Y-120313335D01*
X89181362Y-120284350D01*
X89155411Y-120239528D01*
X89145107Y-120185647D01*
X89144420Y-120164836D01*
X89147254Y-120115365D01*
X89159848Y-120065326D01*
X89193615Y-120026232D01*
X89225020Y-120019267D01*
X89267519Y-120041981D01*
X89288783Y-120087903D01*
X89290478Y-120095471D01*
X89314658Y-120221988D01*
X89326667Y-120271219D01*
X89347122Y-120323526D01*
X89373622Y-120365576D01*
X89413404Y-120402499D01*
X89461893Y-120424653D01*
X89519089Y-120432037D01*
X89568406Y-120426763D01*
X89618037Y-120408530D01*
X89662230Y-120377275D01*
X89674427Y-120365359D01*
X89705361Y-120322713D01*
X89724358Y-120276177D01*
X89735357Y-120221520D01*
X89738419Y-120167034D01*
X89735732Y-120114750D01*
X89724818Y-120056910D01*
X89705507Y-120007417D01*
X89677801Y-119966273D01*
X89633471Y-119927919D01*
X89587294Y-119905140D01*
X89566472Y-119898367D01*
X89535209Y-120037829D01*
X89579707Y-120062524D01*
X89605734Y-120106381D01*
X89613290Y-120156519D01*
X89613367Y-120162882D01*
X89609884Y-120211608D01*
X89592825Y-120260457D01*
X89549396Y-120287445D01*
X89540582Y-120287934D01*
X89497901Y-120262655D01*
X89477696Y-120215948D01*
X89470973Y-120186817D01*
X89439954Y-120037829D01*
X89425892Y-119987731D01*
X89400911Y-119938821D01*
X89367085Y-119902139D01*
X89324415Y-119877684D01*
X89272901Y-119865457D01*
X89243827Y-119863928D01*
X89190964Y-119869515D01*
X89139996Y-119889157D01*
X89098030Y-119922942D01*
X89075055Y-119953321D01*
X89050692Y-120000017D01*
X89033290Y-120050957D01*
X89023773Y-120099011D01*
X89019585Y-120150314D01*
X89019368Y-120165568D01*
X89022024Y-120217271D01*
X89029993Y-120265891D01*
X89045307Y-120316902D01*
X89061866Y-120353879D01*
X89089288Y-120395383D01*
X89128004Y-120430894D01*
X89175402Y-120455242D01*
X89191315Y-120460369D01*
G37*
G36*
X89813646Y-119584759D02*
G01*
X89813646Y-119741318D01*
X89972892Y-119741318D01*
X89972892Y-119584759D01*
X89813646Y-119584759D01*
G37*
G36*
X89035000Y-119584759D02*
G01*
X89035000Y-119741318D01*
X89722787Y-119741318D01*
X89722787Y-119584759D01*
X89035000Y-119584759D01*
G37*
G36*
X89063266Y-118771436D02*
G01*
X89110653Y-118791444D01*
X89151748Y-118825652D01*
X89167650Y-118845543D01*
X89191368Y-118892016D01*
X89203497Y-118941469D01*
X89206946Y-118991493D01*
X89206946Y-119197634D01*
X89208511Y-119222393D01*
X89226730Y-119268464D01*
X89270694Y-119291667D01*
X89304006Y-119282458D01*
X89334197Y-119243551D01*
X89328138Y-119216635D01*
X89319780Y-119166718D01*
X89316819Y-119121919D01*
X89410157Y-119121919D01*
X89417241Y-119172276D01*
X89442397Y-119215464D01*
X89476969Y-119239656D01*
X89526660Y-119249169D01*
X89567673Y-119242671D01*
X89610924Y-119215219D01*
X89612998Y-119213055D01*
X89638178Y-119168018D01*
X89644630Y-119119232D01*
X89637546Y-119068374D01*
X89612390Y-119026175D01*
X89581328Y-119004303D01*
X89533011Y-118994180D01*
X89485141Y-119000292D01*
X89440870Y-119026114D01*
X89416035Y-119072145D01*
X89410157Y-119121919D01*
X89316819Y-119121919D01*
X89316367Y-119115080D01*
X89316426Y-119107191D01*
X89320153Y-119054691D01*
X89331510Y-119000530D01*
X89350439Y-118952597D01*
X89376939Y-118910893D01*
X89392579Y-118892746D01*
X89431395Y-118860763D01*
X89480415Y-118839592D01*
X89529836Y-118833468D01*
X89555264Y-118835477D01*
X89603903Y-118851553D01*
X89645149Y-118879767D01*
X89679801Y-118915778D01*
X89696924Y-118905793D01*
X89730603Y-118869371D01*
X89732435Y-118863326D01*
X89738419Y-118814173D01*
X89738419Y-118766057D01*
X89863471Y-118766057D01*
X89863471Y-118824431D01*
X89861292Y-118856694D01*
X89846992Y-118905330D01*
X89814305Y-118948721D01*
X89771404Y-118976020D01*
X89724009Y-118991493D01*
X89730313Y-119025321D01*
X89736392Y-119075604D01*
X89738419Y-119125338D01*
X89738179Y-119143094D01*
X89734587Y-119192917D01*
X89724949Y-119244510D01*
X89706749Y-119294858D01*
X89677114Y-119340516D01*
X89669352Y-119349063D01*
X89627563Y-119383529D01*
X89580814Y-119404209D01*
X89529103Y-119411102D01*
X89492180Y-119407728D01*
X89442592Y-119390011D01*
X89399959Y-119357109D01*
X89367903Y-119315115D01*
X89350287Y-119346919D01*
X89318356Y-119386593D01*
X89276923Y-119414731D01*
X89224043Y-119425512D01*
X89194551Y-119421482D01*
X89147928Y-119397743D01*
X89109738Y-119361032D01*
X89100421Y-119379059D01*
X89067835Y-119422501D01*
X89023470Y-119452054D01*
X88970519Y-119461905D01*
X88917044Y-119453706D01*
X88872631Y-119429108D01*
X88837283Y-119388113D01*
X88815530Y-119343510D01*
X88799578Y-119288412D01*
X88791421Y-119240202D01*
X88786526Y-119186088D01*
X88784895Y-119126071D01*
X88784959Y-119114997D01*
X88785935Y-119091877D01*
X88878684Y-119091877D01*
X88879279Y-119121552D01*
X88884042Y-119174675D01*
X88895093Y-119224512D01*
X88916786Y-119271151D01*
X88921595Y-119277953D01*
X88957880Y-119313283D01*
X89004958Y-119327327D01*
X89028016Y-119322587D01*
X89067972Y-119293621D01*
X89064873Y-119281551D01*
X89054966Y-119232866D01*
X89050631Y-119181025D01*
X89050631Y-119014940D01*
X89048818Y-118990483D01*
X89032069Y-118942889D01*
X89023094Y-118930517D01*
X88977114Y-118911137D01*
X88959523Y-118912726D01*
X88913384Y-118940966D01*
X88890315Y-118988975D01*
X88881087Y-119039808D01*
X88878684Y-119091877D01*
X88785935Y-119091877D01*
X88787187Y-119062200D01*
X88794065Y-119004495D01*
X88805529Y-118952955D01*
X88824698Y-118900617D01*
X88850108Y-118856671D01*
X88875765Y-118825710D01*
X88913714Y-118794394D01*
X88961516Y-118772775D01*
X89014727Y-118765568D01*
X89063266Y-118771436D01*
G37*
G36*
X89035000Y-118099518D02*
G01*
X89035000Y-118256322D01*
X89461692Y-118256322D01*
X89511139Y-118261562D01*
X89556836Y-118282399D01*
X89563541Y-118288073D01*
X89592092Y-118330052D01*
X89597735Y-118364033D01*
X89587637Y-118414609D01*
X89560177Y-118456466D01*
X89544979Y-118471256D01*
X89502388Y-118497398D01*
X89452700Y-118511747D01*
X89399048Y-118516994D01*
X89385976Y-118517173D01*
X89035000Y-118517173D01*
X89035000Y-118673977D01*
X89722787Y-118673977D01*
X89722787Y-118531095D01*
X89562076Y-118531095D01*
X89612878Y-118506190D01*
X89655069Y-118478340D01*
X89694333Y-118441031D01*
X89721198Y-118399480D01*
X89736869Y-118345643D01*
X89738419Y-118320802D01*
X89733879Y-118271506D01*
X89718184Y-118221627D01*
X89691279Y-118176900D01*
X89681022Y-118164487D01*
X89641995Y-118133081D01*
X89595757Y-118113793D01*
X89546383Y-118103579D01*
X89497439Y-118099772D01*
X89479766Y-118099518D01*
X89035000Y-118099518D01*
G37*
G36*
X89390607Y-117320951D02*
G01*
X89446833Y-117324752D01*
X89499057Y-117334255D01*
X89547280Y-117349459D01*
X89591501Y-117370364D01*
X89638035Y-117401960D01*
X89672150Y-117434730D01*
X89703030Y-117478930D01*
X89724302Y-117529558D01*
X89734890Y-117578070D01*
X89738419Y-117631304D01*
X89738319Y-117640723D01*
X89733510Y-117694647D01*
X89721489Y-117744140D01*
X89702255Y-117789203D01*
X89670699Y-117836176D01*
X89635837Y-117871639D01*
X89622804Y-117882376D01*
X89581188Y-117910428D01*
X89535793Y-117932247D01*
X89486620Y-117947832D01*
X89433669Y-117957183D01*
X89376939Y-117960300D01*
X89366702Y-117960214D01*
X89308084Y-117956092D01*
X89254274Y-117945788D01*
X89205273Y-117929302D01*
X89161080Y-117906633D01*
X89115600Y-117872372D01*
X89082896Y-117837424D01*
X89053293Y-117791660D01*
X89032901Y-117740519D01*
X89022751Y-117692405D01*
X89019368Y-117640341D01*
X89019428Y-117632871D01*
X89023230Y-117582792D01*
X89034816Y-117530310D01*
X89054127Y-117482896D01*
X89081161Y-117440551D01*
X89101289Y-117416874D01*
X89141635Y-117380718D01*
X89187276Y-117352869D01*
X89238210Y-117333328D01*
X89253841Y-117474745D01*
X89211205Y-117496094D01*
X89175302Y-117529338D01*
X89151259Y-117578014D01*
X89144420Y-117631304D01*
X89144451Y-117635025D01*
X89152297Y-117686137D01*
X89175928Y-117730956D01*
X89205600Y-117760742D01*
X89249933Y-117784200D01*
X89263970Y-117788070D01*
X89314238Y-117795745D01*
X89363262Y-117797634D01*
X89457051Y-117797634D01*
X89483884Y-117793541D01*
X89530390Y-117777833D01*
X89572578Y-117746831D01*
X89584329Y-117732797D01*
X89606635Y-117687917D01*
X89613367Y-117638876D01*
X89612683Y-117622901D01*
X89599533Y-117572158D01*
X89569647Y-117529455D01*
X89552368Y-117514323D01*
X89508861Y-117492081D01*
X89457051Y-117484270D01*
X89457051Y-117797634D01*
X89363262Y-117797634D01*
X89363262Y-117321605D01*
X89380847Y-117320872D01*
X89390607Y-117320951D01*
G37*
G36*
X89972892Y-116768639D02*
G01*
X89612145Y-116768639D01*
X89641741Y-116782980D01*
X89684037Y-116814212D01*
X89714249Y-116853252D01*
X89732377Y-116900098D01*
X89738419Y-116954752D01*
X89736751Y-116986427D01*
X89725807Y-117037377D01*
X89704648Y-117082624D01*
X89673274Y-117122168D01*
X89631685Y-117156008D01*
X89583319Y-117183512D01*
X89531400Y-117204260D01*
X89484071Y-117216668D01*
X89434130Y-117224113D01*
X89381580Y-117226594D01*
X89325463Y-117224207D01*
X89272884Y-117217046D01*
X89223843Y-117205110D01*
X89171100Y-117185151D01*
X89123171Y-117158695D01*
X89104620Y-117145394D01*
X89068431Y-117110285D01*
X89039237Y-117063177D01*
X89024335Y-117015846D01*
X89019368Y-116962812D01*
X89019987Y-116945097D01*
X89025679Y-116914940D01*
X89160052Y-116914940D01*
X89161939Y-116940955D01*
X89181018Y-116991705D01*
X89220643Y-117028524D01*
X89270961Y-117048994D01*
X89324423Y-117058234D01*
X89374741Y-117060509D01*
X89395093Y-117060165D01*
X89444621Y-117055891D01*
X89496828Y-117043679D01*
X89541803Y-117021430D01*
X89560811Y-117005628D01*
X89588504Y-116964143D01*
X89597735Y-116912742D01*
X89596998Y-116897175D01*
X89582820Y-116848522D01*
X89550596Y-116808939D01*
X89528699Y-116793236D01*
X89481273Y-116774306D01*
X89429696Y-116768639D01*
X89327358Y-116768639D01*
X89302614Y-116770201D01*
X89253303Y-116784310D01*
X89209877Y-116813091D01*
X89200973Y-116821498D01*
X89171000Y-116863853D01*
X89160052Y-116914940D01*
X89025679Y-116914940D01*
X89029275Y-116895889D01*
X89054198Y-116845947D01*
X89087634Y-116809540D01*
X89132216Y-116779040D01*
X89177882Y-116758136D01*
X89035000Y-116758136D01*
X89035000Y-116611835D01*
X89972892Y-116611835D01*
X89972892Y-116768639D01*
G37*
G36*
X89393889Y-115464944D02*
G01*
X89443532Y-115467507D01*
X89498412Y-115475415D01*
X89548175Y-115488595D01*
X89599763Y-115510636D01*
X89644385Y-115539853D01*
X89650171Y-115544563D01*
X89685525Y-115579680D01*
X89714911Y-115624422D01*
X89732542Y-115674080D01*
X89738419Y-115728653D01*
X89738323Y-115736073D01*
X89732252Y-115784706D01*
X89713750Y-115833189D01*
X89693157Y-115860995D01*
X89654780Y-115894426D01*
X89611413Y-115922337D01*
X89972892Y-115922337D01*
X89972892Y-116079141D01*
X89035000Y-116079141D01*
X89035000Y-116008311D01*
X89149061Y-115966301D01*
X89104986Y-115935277D01*
X89070029Y-115899909D01*
X89040772Y-115853154D01*
X89023927Y-115800486D01*
X89021870Y-115777990D01*
X89160052Y-115777990D01*
X89160395Y-115789780D01*
X89171081Y-115839294D01*
X89199131Y-115882281D01*
X89228192Y-115903405D01*
X89274903Y-115918426D01*
X89323695Y-115922337D01*
X89418705Y-115922337D01*
X89453710Y-115920339D01*
X89505562Y-115907613D01*
X89550108Y-115880572D01*
X89563828Y-115866895D01*
X89589875Y-115822763D01*
X89597735Y-115774082D01*
X89595837Y-115749352D01*
X89578706Y-115703312D01*
X89543757Y-115667592D01*
X89540339Y-115665263D01*
X89492322Y-115643081D01*
X89442443Y-115632729D01*
X89389884Y-115629734D01*
X89349477Y-115631534D01*
X89300240Y-115637279D01*
X89249505Y-115650196D01*
X89206702Y-115674431D01*
X89195769Y-115685185D01*
X89168981Y-115727754D01*
X89160052Y-115777990D01*
X89021870Y-115777990D01*
X89019368Y-115750635D01*
X89021036Y-115717139D01*
X89031980Y-115663352D01*
X89053139Y-115615712D01*
X89084513Y-115574220D01*
X89126102Y-115538876D01*
X89132816Y-115534323D01*
X89182217Y-115506499D01*
X89227909Y-115488286D01*
X89276693Y-115475277D01*
X89328568Y-115467472D01*
X89383534Y-115464870D01*
X89393889Y-115464944D01*
G37*
G36*
X89722787Y-114815673D02*
G01*
X88934616Y-115085561D01*
X88887767Y-115106787D01*
X88845386Y-115135519D01*
X88826172Y-115153461D01*
X88797955Y-115197686D01*
X88786346Y-115246458D01*
X88784895Y-115274605D01*
X88786708Y-115324141D01*
X88789535Y-115364487D01*
X88911413Y-115364487D01*
X88909947Y-115289504D01*
X88915458Y-115239957D01*
X88925579Y-115216475D01*
X88964551Y-115186571D01*
X88984441Y-115179106D01*
X89031833Y-115165763D01*
X89035000Y-115165429D01*
X89077254Y-115179839D01*
X89722787Y-115418220D01*
X89722787Y-115253845D01*
X89270694Y-115085561D01*
X89722787Y-114940725D01*
X89722787Y-114815673D01*
G37*
G36*
X89700211Y-113629707D02*
G01*
X89751669Y-113634606D01*
X89805097Y-113649535D01*
X89852786Y-113674418D01*
X89894734Y-113709253D01*
X89899543Y-113714317D01*
X89928928Y-113754697D01*
X89950834Y-113803703D01*
X89963657Y-113852572D01*
X89970984Y-113907779D01*
X89972892Y-113958625D01*
X89972892Y-114365289D01*
X89035000Y-114365289D01*
X89035000Y-114196273D01*
X89410157Y-114196273D01*
X89410157Y-113986224D01*
X89550840Y-113986224D01*
X89550840Y-114196273D01*
X89832208Y-114196273D01*
X89832208Y-113972302D01*
X89830869Y-113943946D01*
X89820152Y-113894602D01*
X89794106Y-113849448D01*
X89786800Y-113841591D01*
X89744020Y-113813899D01*
X89694699Y-113805484D01*
X89678358Y-113806183D01*
X89628256Y-113819627D01*
X89589187Y-113850181D01*
X89567355Y-113886422D01*
X89554585Y-113933688D01*
X89550840Y-113986224D01*
X89410157Y-113986224D01*
X89410157Y-113958625D01*
X89035000Y-113813056D01*
X89035000Y-113634515D01*
X89438977Y-113798646D01*
X89463456Y-113749955D01*
X89493541Y-113709516D01*
X89537041Y-113671884D01*
X89588612Y-113646135D01*
X89637754Y-113633756D01*
X89692501Y-113629630D01*
X89700211Y-113629707D01*
G37*
G36*
X89390607Y-112888432D02*
G01*
X89446833Y-112892233D01*
X89499057Y-112901735D01*
X89547280Y-112916940D01*
X89591501Y-112937845D01*
X89638035Y-112969441D01*
X89672150Y-113002211D01*
X89703030Y-113046411D01*
X89724302Y-113097039D01*
X89734890Y-113145551D01*
X89738419Y-113198785D01*
X89738319Y-113208203D01*
X89733510Y-113262128D01*
X89721489Y-113311621D01*
X89702255Y-113356684D01*
X89670699Y-113403657D01*
X89635837Y-113439120D01*
X89622804Y-113449856D01*
X89581188Y-113477909D01*
X89535793Y-113499728D01*
X89486620Y-113515313D01*
X89433669Y-113524663D01*
X89376939Y-113527780D01*
X89366702Y-113527695D01*
X89308084Y-113523573D01*
X89254274Y-113513269D01*
X89205273Y-113496783D01*
X89161080Y-113474114D01*
X89115600Y-113439853D01*
X89082896Y-113404905D01*
X89053293Y-113359141D01*
X89032901Y-113308000D01*
X89022751Y-113259886D01*
X89019368Y-113207822D01*
X89019428Y-113200351D01*
X89023230Y-113150273D01*
X89034816Y-113097791D01*
X89054127Y-113050377D01*
X89081161Y-113008032D01*
X89101289Y-112984355D01*
X89141635Y-112948199D01*
X89187276Y-112920350D01*
X89238210Y-112900809D01*
X89253841Y-113042226D01*
X89211205Y-113063575D01*
X89175302Y-113096819D01*
X89151259Y-113145495D01*
X89144420Y-113198785D01*
X89144451Y-113202506D01*
X89152297Y-113253618D01*
X89175928Y-113298436D01*
X89205600Y-113328223D01*
X89249933Y-113351681D01*
X89263970Y-113355551D01*
X89314238Y-113363226D01*
X89363262Y-113365115D01*
X89457051Y-113365115D01*
X89483884Y-113361022D01*
X89530390Y-113345314D01*
X89572578Y-113314312D01*
X89584329Y-113300278D01*
X89606635Y-113255398D01*
X89613367Y-113206357D01*
X89612683Y-113190382D01*
X89599533Y-113139638D01*
X89569647Y-113096936D01*
X89552368Y-113081803D01*
X89508861Y-113059562D01*
X89457051Y-113051751D01*
X89457051Y-113365115D01*
X89363262Y-113365115D01*
X89363262Y-112889085D01*
X89380847Y-112888353D01*
X89390607Y-112888432D01*
G37*
G36*
X89269473Y-112357857D02*
G01*
X89253841Y-112223279D01*
X89204462Y-112237050D01*
X89155327Y-112258513D01*
X89113977Y-112286082D01*
X89076765Y-112324396D01*
X89049019Y-112368890D01*
X89030354Y-112418291D01*
X89021386Y-112466323D01*
X89019368Y-112504891D01*
X89023034Y-112556337D01*
X89036580Y-112610496D01*
X89060107Y-112658345D01*
X89093615Y-112699882D01*
X89123660Y-112725687D01*
X89171520Y-112755760D01*
X89223844Y-112778447D01*
X89272247Y-112792014D01*
X89323930Y-112800154D01*
X89378893Y-112802868D01*
X89435431Y-112799897D01*
X89488173Y-112790984D01*
X89537120Y-112776129D01*
X89582271Y-112755332D01*
X89623628Y-112728593D01*
X89636570Y-112718360D01*
X89676255Y-112678699D01*
X89706193Y-112633663D01*
X89726384Y-112583250D01*
X89736828Y-112527461D01*
X89738419Y-112493168D01*
X89734755Y-112439369D01*
X89723764Y-112391303D01*
X89699722Y-112339281D01*
X89664230Y-112296215D01*
X89617290Y-112262106D01*
X89571494Y-112241267D01*
X89518371Y-112226160D01*
X89503946Y-112223279D01*
X89488314Y-112357857D01*
X89537041Y-112370029D01*
X89582103Y-112398524D01*
X89607383Y-112441470D01*
X89613367Y-112484863D01*
X89604910Y-112534606D01*
X89576397Y-112577087D01*
X89541803Y-112600879D01*
X89494295Y-112619812D01*
X89446521Y-112630857D01*
X89393995Y-112636221D01*
X89369124Y-112636782D01*
X89318336Y-112634447D01*
X89268536Y-112626236D01*
X89222311Y-112610179D01*
X89202794Y-112599413D01*
X89164999Y-112563975D01*
X89145845Y-112514901D01*
X89144420Y-112494633D01*
X89154312Y-112442143D01*
X89183988Y-112400626D01*
X89226974Y-112372935D01*
X89269473Y-112357857D01*
G37*
G36*
X89191315Y-112191284D02*
G01*
X89222578Y-112044249D01*
X89181362Y-112015265D01*
X89155411Y-111970442D01*
X89145107Y-111916561D01*
X89144420Y-111895750D01*
X89147254Y-111846279D01*
X89159848Y-111796240D01*
X89193615Y-111757147D01*
X89225020Y-111750181D01*
X89267519Y-111772896D01*
X89288783Y-111818817D01*
X89290478Y-111826385D01*
X89314658Y-111952903D01*
X89326667Y-112002133D01*
X89347122Y-112054440D01*
X89373622Y-112096491D01*
X89413404Y-112133413D01*
X89461893Y-112155567D01*
X89519089Y-112162951D01*
X89568406Y-112157677D01*
X89618037Y-112139445D01*
X89662230Y-112108189D01*
X89674427Y-112096273D01*
X89705361Y-112053627D01*
X89724358Y-112007091D01*
X89735357Y-111952435D01*
X89738419Y-111897948D01*
X89735732Y-111845665D01*
X89724818Y-111787824D01*
X89705507Y-111738331D01*
X89677801Y-111697187D01*
X89633471Y-111658833D01*
X89587294Y-111636055D01*
X89566472Y-111629281D01*
X89535209Y-111768743D01*
X89579707Y-111793438D01*
X89605734Y-111837295D01*
X89613290Y-111887433D01*
X89613367Y-111893796D01*
X89609884Y-111942522D01*
X89592825Y-111991371D01*
X89549396Y-112018360D01*
X89540582Y-112018848D01*
X89497901Y-111993569D01*
X89477696Y-111946862D01*
X89470973Y-111917732D01*
X89439954Y-111768743D01*
X89425892Y-111718645D01*
X89400911Y-111669735D01*
X89367085Y-111633053D01*
X89324415Y-111608598D01*
X89272901Y-111596371D01*
X89243827Y-111594842D01*
X89190964Y-111600430D01*
X89139996Y-111620072D01*
X89098030Y-111653856D01*
X89075055Y-111684235D01*
X89050692Y-111730932D01*
X89033290Y-111781871D01*
X89023773Y-111829925D01*
X89019585Y-111881228D01*
X89019368Y-111896482D01*
X89022024Y-111948186D01*
X89029993Y-111996805D01*
X89045307Y-112047816D01*
X89061866Y-112084794D01*
X89089288Y-112126297D01*
X89128004Y-112161808D01*
X89175402Y-112186156D01*
X89191315Y-112191284D01*
G37*
G36*
X89035000Y-110897285D02*
G01*
X89035000Y-111054089D01*
X89461692Y-111054089D01*
X89511139Y-111059329D01*
X89556836Y-111080166D01*
X89563541Y-111085840D01*
X89592092Y-111127819D01*
X89597735Y-111161800D01*
X89587637Y-111212376D01*
X89560177Y-111254233D01*
X89544979Y-111269023D01*
X89502388Y-111295165D01*
X89452700Y-111309514D01*
X89399048Y-111314761D01*
X89385976Y-111314940D01*
X89035000Y-111314940D01*
X89035000Y-111471744D01*
X89722787Y-111471744D01*
X89722787Y-111328862D01*
X89562076Y-111328862D01*
X89612878Y-111303957D01*
X89655069Y-111276107D01*
X89694333Y-111238797D01*
X89721198Y-111197247D01*
X89736869Y-111143409D01*
X89738419Y-111118569D01*
X89733879Y-111069273D01*
X89718184Y-111019394D01*
X89691279Y-110974667D01*
X89681022Y-110962254D01*
X89641995Y-110930848D01*
X89595757Y-110911560D01*
X89546383Y-110901345D01*
X89497439Y-110897539D01*
X89479766Y-110897285D01*
X89035000Y-110897285D01*
G37*
G36*
X89813646Y-110557543D02*
G01*
X89813646Y-110714103D01*
X89972892Y-110714103D01*
X89972892Y-110557543D01*
X89813646Y-110557543D01*
G37*
G36*
X89035000Y-110557543D02*
G01*
X89035000Y-110714103D01*
X89722787Y-110714103D01*
X89722787Y-110557543D01*
X89035000Y-110557543D01*
G37*
G36*
X89035000Y-109725896D02*
G01*
X89035000Y-109890760D01*
X89390861Y-110068080D01*
X89218426Y-110221953D01*
X89035000Y-110221953D01*
X89035000Y-110371674D01*
X89972892Y-110371674D01*
X89972892Y-110221953D01*
X89393304Y-110221953D01*
X89431406Y-110190446D01*
X89722787Y-109915429D01*
X89722787Y-109747145D01*
X89499061Y-109955973D01*
X89035000Y-109725896D01*
G37*
G36*
X89301957Y-108568628D02*
G01*
X89352943Y-108575573D01*
X89399349Y-108592441D01*
X89441175Y-108619232D01*
X89452631Y-108629180D01*
X89484955Y-108668450D01*
X89508263Y-108717117D01*
X89521531Y-108768953D01*
X89535485Y-108722551D01*
X89560145Y-108679279D01*
X89594560Y-108644145D01*
X89632413Y-108620188D01*
X89678624Y-108604084D01*
X89729626Y-108598715D01*
X89779123Y-108603080D01*
X89828722Y-108617965D01*
X89873241Y-108643412D01*
X89897956Y-108663750D01*
X89931027Y-108702258D01*
X89953597Y-108749169D01*
X89954784Y-108753016D01*
X89966090Y-108804021D01*
X89971366Y-108853347D01*
X89972892Y-108903042D01*
X89972892Y-109268429D01*
X89035000Y-109268429D01*
X89035000Y-108889853D01*
X89175683Y-108889853D01*
X89175683Y-109108450D01*
X89441420Y-109108450D01*
X89441420Y-108902309D01*
X89582103Y-108902309D01*
X89582103Y-109108450D01*
X89832208Y-109108450D01*
X89832208Y-108905729D01*
X89832179Y-108902217D01*
X89824820Y-108852972D01*
X89802655Y-108807543D01*
X89798862Y-108802456D01*
X89759249Y-108773574D01*
X89711064Y-108765533D01*
X89659834Y-108774754D01*
X89618496Y-108802414D01*
X89614089Y-108807098D01*
X89589069Y-108852054D01*
X89582103Y-108902309D01*
X89441420Y-108902309D01*
X89441420Y-108889364D01*
X89441091Y-108876959D01*
X89430873Y-108825254D01*
X89404050Y-108781165D01*
X89399327Y-108776196D01*
X89358608Y-108749148D01*
X89308551Y-108740132D01*
X89304760Y-108740171D01*
X89253780Y-108750207D01*
X89211587Y-108780432D01*
X89203172Y-108790904D01*
X89181609Y-108838331D01*
X89175683Y-108889853D01*
X89035000Y-108889853D01*
X89035000Y-108858346D01*
X89035648Y-108831313D01*
X89040834Y-108781293D01*
X89053440Y-108729752D01*
X89076490Y-108679835D01*
X89108761Y-108639504D01*
X89142786Y-108611810D01*
X89191376Y-108586198D01*
X89239141Y-108572872D01*
X89291210Y-108568429D01*
X89301957Y-108568628D01*
G37*
G36*
X89206946Y-108267278D02*
G01*
X89035000Y-108267278D01*
X89035000Y-108437027D01*
X89206946Y-108437027D01*
X89206946Y-108267278D01*
G37*
G36*
X89160052Y-106895122D02*
G01*
X89160148Y-106900954D01*
X89171043Y-106949588D01*
X89198506Y-106985720D01*
X89233569Y-107020662D01*
X89272140Y-106988190D01*
X89312139Y-106959037D01*
X89364144Y-106927265D01*
X89418380Y-106900681D01*
X89474845Y-106879285D01*
X89533541Y-106863076D01*
X89582103Y-106853845D01*
X89613367Y-106994528D01*
X89574131Y-107001184D01*
X89526536Y-107012767D01*
X89471547Y-107031451D01*
X89418877Y-107055356D01*
X89368524Y-107084482D01*
X89328335Y-107112742D01*
X89556458Y-107316196D01*
X89563420Y-107300066D01*
X89587061Y-107255952D01*
X89618178Y-107214460D01*
X89654399Y-107180886D01*
X89685708Y-107160049D01*
X89733759Y-107139956D01*
X89783115Y-107133258D01*
X89800621Y-107133874D01*
X89848889Y-107143116D01*
X89895042Y-107166391D01*
X89933325Y-107203356D01*
X89952084Y-107231042D01*
X89972945Y-107277820D01*
X89985074Y-107330897D01*
X89988524Y-107383363D01*
X89987128Y-107415864D01*
X89977584Y-107469676D01*
X89958998Y-107517461D01*
X89931371Y-107559218D01*
X89920398Y-107571483D01*
X89879449Y-107603655D01*
X89831774Y-107622421D01*
X89783115Y-107627850D01*
X89741411Y-107622752D01*
X89692304Y-107604827D01*
X89646707Y-107578059D01*
X89605307Y-107546273D01*
X89592585Y-107573785D01*
X89566922Y-107623244D01*
X89536613Y-107671570D01*
X89505907Y-107709797D01*
X89465844Y-107744110D01*
X89456838Y-107749670D01*
X89410924Y-107772091D01*
X89363530Y-107785543D01*
X89314658Y-107790027D01*
X89284074Y-107788489D01*
X89233527Y-107778397D01*
X89186768Y-107758884D01*
X89143795Y-107729951D01*
X89104609Y-107691598D01*
X89099364Y-107685373D01*
X89067316Y-107638597D01*
X89046339Y-107594038D01*
X89031355Y-107545357D01*
X89022365Y-107492555D01*
X89019368Y-107435631D01*
X89019734Y-107415029D01*
X89019966Y-107412184D01*
X89160052Y-107412184D01*
X89163607Y-107456772D01*
X89177607Y-107505130D01*
X89204993Y-107550181D01*
X89229432Y-107574010D01*
X89273018Y-107596988D01*
X89324916Y-107604647D01*
X89345326Y-107603415D01*
X89395575Y-107588081D01*
X89439748Y-107555223D01*
X89473416Y-107512096D01*
X89498572Y-107464452D01*
X89417948Y-107393133D01*
X89660261Y-107393133D01*
X89691723Y-107426793D01*
X89734035Y-107457372D01*
X89782627Y-107470069D01*
X89799831Y-107468207D01*
X89841001Y-107440272D01*
X89853794Y-107418463D01*
X89863471Y-107370418D01*
X89861301Y-107346867D01*
X89841245Y-107302274D01*
X89827567Y-107288343D01*
X89780673Y-107273454D01*
X89758864Y-107276376D01*
X89714788Y-107303374D01*
X89682719Y-107346500D01*
X89660261Y-107393133D01*
X89417948Y-107393133D01*
X89221357Y-107219232D01*
X89194536Y-107265272D01*
X89175378Y-107312777D01*
X89163883Y-107361748D01*
X89160052Y-107412184D01*
X89019966Y-107412184D01*
X89023856Y-107364375D01*
X89032557Y-107314937D01*
X89045838Y-107266716D01*
X89063698Y-107219711D01*
X89086138Y-107173922D01*
X89113157Y-107129351D01*
X89092460Y-107106003D01*
X89062144Y-107067527D01*
X89036709Y-107024082D01*
X89034609Y-107018863D01*
X89022687Y-106970656D01*
X89019368Y-106919057D01*
X89020833Y-106853845D01*
X89163471Y-106853845D01*
X89160052Y-106895122D01*
G37*
G36*
X89359354Y-105854403D02*
G01*
X89342257Y-105697843D01*
X89291161Y-105706287D01*
X89243568Y-105720260D01*
X89192470Y-105743551D01*
X89146141Y-105774369D01*
X89110226Y-105806775D01*
X89074823Y-105850613D01*
X89048116Y-105900061D01*
X89032145Y-105946910D01*
X89022562Y-105997880D01*
X89019368Y-106052972D01*
X89022465Y-106106865D01*
X89031757Y-106156129D01*
X89049960Y-106206763D01*
X89076255Y-106251353D01*
X89084092Y-106261556D01*
X89119340Y-106299306D01*
X89160357Y-106332447D01*
X89207145Y-106360978D01*
X89252818Y-106382160D01*
X89259703Y-106384898D01*
X89309303Y-106401743D01*
X89361076Y-106414451D01*
X89415023Y-106423021D01*
X89471145Y-106427454D01*
X89504190Y-106428129D01*
X89556668Y-106426542D01*
X89606635Y-106421779D01*
X89665562Y-106411360D01*
X89720565Y-106395981D01*
X89771645Y-106375640D01*
X89818802Y-106350338D01*
X89853702Y-106326524D01*
X89892542Y-106292842D01*
X89924799Y-106255451D01*
X89954818Y-106205685D01*
X89972592Y-106160134D01*
X89983784Y-106110874D01*
X89988392Y-106057905D01*
X89988524Y-106046866D01*
X89985501Y-105996208D01*
X89974335Y-105941252D01*
X89954940Y-105890761D01*
X89927318Y-105844734D01*
X89902550Y-105814591D01*
X89861491Y-105777282D01*
X89813325Y-105746564D01*
X89766385Y-105725481D01*
X89714224Y-105709241D01*
X89656842Y-105697843D01*
X89640233Y-105854403D01*
X89688891Y-105866844D01*
X89740590Y-105886989D01*
X89789248Y-105917901D01*
X89823308Y-105956163D01*
X89842771Y-106001776D01*
X89847840Y-106045401D01*
X89840865Y-106095364D01*
X89816756Y-106143039D01*
X89780333Y-106178891D01*
X89759668Y-106192679D01*
X89710621Y-106215653D01*
X89659565Y-106230371D01*
X89609757Y-106238986D01*
X89554367Y-106243909D01*
X89503946Y-106245191D01*
X89452780Y-106243820D01*
X89396749Y-106238553D01*
X89346574Y-106229337D01*
X89295439Y-106213592D01*
X89246758Y-106189016D01*
X89204844Y-106154401D01*
X89176648Y-106114028D01*
X89161407Y-106062418D01*
X89160052Y-106039783D01*
X89168329Y-105987336D01*
X89193162Y-105941002D01*
X89218914Y-105913510D01*
X89262066Y-105882943D01*
X89310587Y-105863114D01*
X89359354Y-105854403D01*
G37*
G36*
X89191315Y-105662184D02*
G01*
X89222578Y-105515150D01*
X89181362Y-105486165D01*
X89155411Y-105441342D01*
X89145107Y-105387461D01*
X89144420Y-105366650D01*
X89147254Y-105317179D01*
X89159848Y-105267140D01*
X89193615Y-105228047D01*
X89225020Y-105221081D01*
X89267519Y-105243796D01*
X89288783Y-105289717D01*
X89290478Y-105297285D01*
X89314658Y-105423803D01*
X89326667Y-105473033D01*
X89347122Y-105525340D01*
X89373622Y-105567391D01*
X89413404Y-105604313D01*
X89461893Y-105626467D01*
X89519089Y-105633852D01*
X89568406Y-105628577D01*
X89618037Y-105610345D01*
X89662230Y-105579089D01*
X89674427Y-105567173D01*
X89705361Y-105524528D01*
X89724358Y-105477992D01*
X89735357Y-105423335D01*
X89738419Y-105368848D01*
X89735732Y-105316565D01*
X89724818Y-105258724D01*
X89705507Y-105209232D01*
X89677801Y-105168087D01*
X89633471Y-105129733D01*
X89587294Y-105106955D01*
X89566472Y-105100181D01*
X89535209Y-105239644D01*
X89579707Y-105264338D01*
X89605734Y-105308196D01*
X89613290Y-105358333D01*
X89613367Y-105364696D01*
X89609884Y-105413422D01*
X89592825Y-105462271D01*
X89549396Y-105489260D01*
X89540582Y-105489748D01*
X89497901Y-105464469D01*
X89477696Y-105417762D01*
X89470973Y-105388632D01*
X89439954Y-105239644D01*
X89425892Y-105189545D01*
X89400911Y-105140636D01*
X89367085Y-105103953D01*
X89324415Y-105079499D01*
X89272901Y-105067271D01*
X89243827Y-105065743D01*
X89190964Y-105071330D01*
X89139996Y-105090972D01*
X89098030Y-105124756D01*
X89075055Y-105155136D01*
X89050692Y-105201832D01*
X89033290Y-105252772D01*
X89023773Y-105300825D01*
X89019585Y-105352128D01*
X89019368Y-105367383D01*
X89022024Y-105419086D01*
X89029993Y-105467705D01*
X89045307Y-105518717D01*
X89061866Y-105555694D01*
X89089288Y-105597197D01*
X89128004Y-105632708D01*
X89175402Y-105657056D01*
X89191315Y-105662184D01*
G37*
G36*
X89390607Y-104347748D02*
G01*
X89446833Y-104351549D01*
X89499057Y-104361052D01*
X89547280Y-104376256D01*
X89591501Y-104397161D01*
X89638035Y-104428757D01*
X89672150Y-104461527D01*
X89703030Y-104505727D01*
X89724302Y-104556355D01*
X89734890Y-104604867D01*
X89738419Y-104658101D01*
X89738319Y-104667520D01*
X89733510Y-104721444D01*
X89721489Y-104770937D01*
X89702255Y-104816000D01*
X89670699Y-104862973D01*
X89635837Y-104898436D01*
X89622804Y-104909173D01*
X89581188Y-104937225D01*
X89535793Y-104959044D01*
X89486620Y-104974629D01*
X89433669Y-104983980D01*
X89376939Y-104987096D01*
X89366702Y-104987011D01*
X89308084Y-104982889D01*
X89254274Y-104972585D01*
X89205273Y-104956099D01*
X89161080Y-104933430D01*
X89115600Y-104899169D01*
X89082896Y-104864221D01*
X89053293Y-104818457D01*
X89032901Y-104767316D01*
X89022751Y-104719202D01*
X89019368Y-104667138D01*
X89019428Y-104659667D01*
X89023230Y-104609589D01*
X89034816Y-104557107D01*
X89054127Y-104509693D01*
X89081161Y-104467348D01*
X89101289Y-104443671D01*
X89141635Y-104407515D01*
X89187276Y-104379666D01*
X89238210Y-104360125D01*
X89253841Y-104501542D01*
X89211205Y-104522891D01*
X89175302Y-104556135D01*
X89151259Y-104604811D01*
X89144420Y-104658101D01*
X89144451Y-104661822D01*
X89152297Y-104712934D01*
X89175928Y-104757752D01*
X89205600Y-104787539D01*
X89249933Y-104810997D01*
X89263970Y-104814867D01*
X89314238Y-104822542D01*
X89363262Y-104824431D01*
X89457051Y-104824431D01*
X89483884Y-104820338D01*
X89530390Y-104804630D01*
X89572578Y-104773628D01*
X89584329Y-104759594D01*
X89606635Y-104714714D01*
X89613367Y-104665673D01*
X89612683Y-104649698D01*
X89599533Y-104598955D01*
X89569647Y-104556252D01*
X89552368Y-104541120D01*
X89508861Y-104518878D01*
X89457051Y-104511067D01*
X89457051Y-104824431D01*
X89363262Y-104824431D01*
X89363262Y-104348401D01*
X89380847Y-104347669D01*
X89390607Y-104347748D01*
G37*
G36*
X89035000Y-104052135D02*
G01*
X89035000Y-104208939D01*
X89722787Y-104208939D01*
X89722787Y-104067278D01*
X89553039Y-104067278D01*
X89603329Y-104048465D01*
X89649553Y-104023392D01*
X89688665Y-103990742D01*
X89694455Y-103984235D01*
X89723394Y-103940729D01*
X89738060Y-103892884D01*
X89739152Y-103875547D01*
X89738419Y-103855031D01*
X89566472Y-103855031D01*
X89561831Y-103909711D01*
X89545517Y-103959183D01*
X89513612Y-103999197D01*
X89492222Y-104013300D01*
X89446269Y-104033779D01*
X89396768Y-104047546D01*
X89348363Y-104052135D01*
X89035000Y-104052135D01*
G37*
G36*
X89035000Y-103174326D02*
G01*
X89035000Y-103331130D01*
X89469996Y-103331130D01*
X89520414Y-103336290D01*
X89565422Y-103358607D01*
X89569159Y-103362393D01*
X89593716Y-103405574D01*
X89597735Y-103435422D01*
X89589351Y-103486091D01*
X89564197Y-103529746D01*
X89546933Y-103547529D01*
X89504381Y-103573255D01*
X89452174Y-103587375D01*
X89401135Y-103592317D01*
X89379870Y-103592714D01*
X89035000Y-103592714D01*
X89035000Y-103749274D01*
X89972892Y-103749274D01*
X89972892Y-103592714D01*
X89588698Y-103592714D01*
X89639580Y-103567733D01*
X89679934Y-103536569D01*
X89713709Y-103492397D01*
X89733155Y-103439810D01*
X89738419Y-103388039D01*
X89734687Y-103337950D01*
X89719524Y-103284730D01*
X89692698Y-103241946D01*
X89654208Y-103209597D01*
X89604055Y-103187683D01*
X89555534Y-103177665D01*
X89499549Y-103174326D01*
X89035000Y-103174326D01*
G37*
G36*
X89390607Y-102398690D02*
G01*
X89446833Y-102402491D01*
X89499057Y-102411994D01*
X89547280Y-102427198D01*
X89591501Y-102448103D01*
X89638035Y-102479699D01*
X89672150Y-102512469D01*
X89703030Y-102556669D01*
X89724302Y-102607297D01*
X89734890Y-102655809D01*
X89738419Y-102709043D01*
X89738319Y-102718462D01*
X89733510Y-102772386D01*
X89721489Y-102821879D01*
X89702255Y-102866942D01*
X89670699Y-102913916D01*
X89635837Y-102949378D01*
X89622804Y-102960115D01*
X89581188Y-102988167D01*
X89535793Y-103009986D01*
X89486620Y-103025571D01*
X89433669Y-103034922D01*
X89376939Y-103038039D01*
X89366702Y-103037953D01*
X89308084Y-103033831D01*
X89254274Y-103023527D01*
X89205273Y-103007041D01*
X89161080Y-102984372D01*
X89115600Y-102950111D01*
X89082896Y-102915163D01*
X89053293Y-102869399D01*
X89032901Y-102818258D01*
X89022751Y-102770144D01*
X89019368Y-102718080D01*
X89019428Y-102710610D01*
X89023230Y-102660531D01*
X89034816Y-102608049D01*
X89054127Y-102560635D01*
X89081161Y-102518290D01*
X89101289Y-102494613D01*
X89141635Y-102458457D01*
X89187276Y-102430608D01*
X89238210Y-102411067D01*
X89253841Y-102552484D01*
X89211205Y-102573833D01*
X89175302Y-102607077D01*
X89151259Y-102655753D01*
X89144420Y-102709043D01*
X89144451Y-102712764D01*
X89152297Y-102763876D01*
X89175928Y-102808695D01*
X89205600Y-102838481D01*
X89249933Y-102861939D01*
X89263970Y-102865809D01*
X89314238Y-102873484D01*
X89363262Y-102875373D01*
X89457051Y-102875373D01*
X89483884Y-102871280D01*
X89530390Y-102855572D01*
X89572578Y-102824570D01*
X89584329Y-102810536D01*
X89606635Y-102765656D01*
X89613367Y-102716615D01*
X89612683Y-102700640D01*
X89599533Y-102649897D01*
X89569647Y-102607194D01*
X89552368Y-102592062D01*
X89508861Y-102569820D01*
X89457051Y-102562009D01*
X89457051Y-102875373D01*
X89363262Y-102875373D01*
X89363262Y-102399344D01*
X89380847Y-102398611D01*
X89390607Y-102398690D01*
G37*
G36*
X89063266Y-101632427D02*
G01*
X89110653Y-101652435D01*
X89151748Y-101686643D01*
X89167650Y-101706534D01*
X89191368Y-101753007D01*
X89203497Y-101802460D01*
X89206946Y-101852484D01*
X89206946Y-102058625D01*
X89208511Y-102083384D01*
X89226730Y-102129455D01*
X89270694Y-102152658D01*
X89304006Y-102143449D01*
X89334197Y-102104542D01*
X89328138Y-102077626D01*
X89319780Y-102027709D01*
X89316819Y-101982909D01*
X89410157Y-101982909D01*
X89417241Y-102033267D01*
X89442397Y-102076454D01*
X89476969Y-102100647D01*
X89526660Y-102110160D01*
X89567673Y-102103662D01*
X89610924Y-102076210D01*
X89612998Y-102074046D01*
X89638178Y-102029009D01*
X89644630Y-101980223D01*
X89637546Y-101929365D01*
X89612390Y-101887166D01*
X89581328Y-101865294D01*
X89533011Y-101855170D01*
X89485141Y-101861283D01*
X89440870Y-101887105D01*
X89416035Y-101933136D01*
X89410157Y-101982909D01*
X89316819Y-101982909D01*
X89316367Y-101976071D01*
X89316426Y-101968181D01*
X89320153Y-101915682D01*
X89331510Y-101861521D01*
X89350439Y-101813588D01*
X89376939Y-101771884D01*
X89392579Y-101753737D01*
X89431395Y-101721754D01*
X89480415Y-101700583D01*
X89529836Y-101694459D01*
X89555264Y-101696468D01*
X89603903Y-101712544D01*
X89645149Y-101740758D01*
X89679801Y-101776769D01*
X89696924Y-101766784D01*
X89730603Y-101730362D01*
X89732435Y-101724317D01*
X89738419Y-101675163D01*
X89738419Y-101627048D01*
X89863471Y-101627048D01*
X89863471Y-101685422D01*
X89861292Y-101717685D01*
X89846992Y-101766321D01*
X89814305Y-101809712D01*
X89771404Y-101837011D01*
X89724009Y-101852484D01*
X89730313Y-101886311D01*
X89736392Y-101936595D01*
X89738419Y-101986329D01*
X89738179Y-102004085D01*
X89734587Y-102053908D01*
X89724949Y-102105501D01*
X89706749Y-102155849D01*
X89677114Y-102201507D01*
X89669352Y-102210054D01*
X89627563Y-102244520D01*
X89580814Y-102265200D01*
X89529103Y-102272093D01*
X89492180Y-102268718D01*
X89442592Y-102251002D01*
X89399959Y-102218100D01*
X89367903Y-102176106D01*
X89350287Y-102207910D01*
X89318356Y-102247584D01*
X89276923Y-102275722D01*
X89224043Y-102286503D01*
X89194551Y-102282473D01*
X89147928Y-102258734D01*
X89109738Y-102222023D01*
X89100421Y-102240050D01*
X89067835Y-102283492D01*
X89023470Y-102313045D01*
X88970519Y-102322896D01*
X88917044Y-102314696D01*
X88872631Y-102290099D01*
X88837283Y-102249104D01*
X88815530Y-102204501D01*
X88799578Y-102149403D01*
X88791421Y-102101193D01*
X88786526Y-102047079D01*
X88784895Y-101987062D01*
X88784959Y-101975988D01*
X88785935Y-101952868D01*
X88878684Y-101952868D01*
X88879279Y-101982543D01*
X88884042Y-102035666D01*
X88895093Y-102085503D01*
X88916786Y-102132142D01*
X88921595Y-102138944D01*
X88957880Y-102174274D01*
X89004958Y-102188318D01*
X89028016Y-102183578D01*
X89067972Y-102154612D01*
X89064873Y-102142541D01*
X89054966Y-102093857D01*
X89050631Y-102042016D01*
X89050631Y-101875931D01*
X89048818Y-101851473D01*
X89032069Y-101803879D01*
X89023094Y-101791508D01*
X88977114Y-101772128D01*
X88959523Y-101773716D01*
X88913384Y-101801957D01*
X88890315Y-101849966D01*
X88881087Y-101900799D01*
X88878684Y-101952868D01*
X88785935Y-101952868D01*
X88787187Y-101923191D01*
X88794065Y-101865486D01*
X88805529Y-101813946D01*
X88824698Y-101761608D01*
X88850108Y-101717662D01*
X88875765Y-101686701D01*
X88913714Y-101655385D01*
X88961516Y-101633766D01*
X89014727Y-101626559D01*
X89063266Y-101632427D01*
G37*
G36*
X89722787Y-101016929D02*
G01*
X88934616Y-101286817D01*
X88887767Y-101308044D01*
X88845386Y-101336775D01*
X88826172Y-101354717D01*
X88797955Y-101398942D01*
X88786346Y-101447714D01*
X88784895Y-101475861D01*
X88786708Y-101525397D01*
X88789535Y-101565743D01*
X88911413Y-101565743D01*
X88909947Y-101490760D01*
X88915458Y-101441213D01*
X88925579Y-101417732D01*
X88964551Y-101387827D01*
X88984441Y-101380362D01*
X89031833Y-101367019D01*
X89035000Y-101366685D01*
X89077254Y-101381095D01*
X89722787Y-101619476D01*
X89722787Y-101455101D01*
X89270694Y-101286817D01*
X89722787Y-101141981D01*
X89722787Y-101016929D01*
G37*
G36*
X89813646Y-100760474D02*
G01*
X89813646Y-100917034D01*
X89972892Y-100917034D01*
X89972892Y-100760474D01*
X89813646Y-100760474D01*
G37*
G36*
X89035000Y-100760474D02*
G01*
X89035000Y-100917034D01*
X89722787Y-100917034D01*
X89722787Y-100760474D01*
X89035000Y-100760474D01*
G37*
G36*
X89700211Y-99480231D02*
G01*
X89751669Y-99485129D01*
X89805097Y-99500059D01*
X89852786Y-99524941D01*
X89894734Y-99559776D01*
X89899543Y-99564841D01*
X89928928Y-99605221D01*
X89950834Y-99654226D01*
X89963657Y-99703095D01*
X89970984Y-99758302D01*
X89972892Y-99809148D01*
X89972892Y-100215812D01*
X89035000Y-100215812D01*
X89035000Y-100046796D01*
X89410157Y-100046796D01*
X89410157Y-99836748D01*
X89550840Y-99836748D01*
X89550840Y-100046796D01*
X89832208Y-100046796D01*
X89832208Y-99822826D01*
X89830869Y-99794470D01*
X89820152Y-99745125D01*
X89794106Y-99699972D01*
X89786800Y-99692115D01*
X89744020Y-99664423D01*
X89694699Y-99656008D01*
X89678358Y-99656706D01*
X89628256Y-99670150D01*
X89589187Y-99700704D01*
X89567355Y-99736946D01*
X89554585Y-99784212D01*
X89550840Y-99836748D01*
X89410157Y-99836748D01*
X89410157Y-99809148D01*
X89035000Y-99663579D01*
X89035000Y-99485038D01*
X89438977Y-99649169D01*
X89463456Y-99600478D01*
X89493541Y-99560040D01*
X89537041Y-99522407D01*
X89588612Y-99496658D01*
X89637754Y-99484279D01*
X89692501Y-99480153D01*
X89700211Y-99480231D01*
G37*
G36*
X89206946Y-99165812D02*
G01*
X89035000Y-99165812D01*
X89035000Y-99335561D01*
X89206946Y-99335561D01*
X89206946Y-99165812D01*
G37*
M02*
