%TF.GenerationSoftware,KiCad,Pcbnew,8.0.6*%
%TF.CreationDate,2026-05-30T16:06:03+02:00*%
%TF.ProjectId,_kb,5f6b622e-6b69-4636-9164-5f7063625858,rev?*%
%TF.SameCoordinates,Original*%
%TF.FileFunction,Copper,L2,Bot*%
%TF.FilePolarity,Positive*%
%FSLAX46Y46*%
G04 Gerber Fmt 4.6, Leading zero omitted, Abs format (unit mm)*
G04 Created by KiCad (PCBNEW 8.0.6) date 2026-05-30 16:06:03*
%MOMM*%
%LPD*%
G01*
G04 APERTURE LIST*
%TA.AperFunction,ComponentPad*%
%ADD10R,1.700000X1.700000*%
%TD*%
%TA.AperFunction,ComponentPad*%
%ADD11R,1.600000X1.600000*%
%TD*%
%TA.AperFunction,ComponentPad*%
%ADD12O,1.600000X1.600000*%
%TD*%
%TA.AperFunction,ComponentPad*%
%ADD13O,1.700000X1.700000*%
%TD*%
%TA.AperFunction,ViaPad*%
%ADD14C,1.500000*%
%TD*%
%TA.AperFunction,ViaPad*%
%ADD15C,0.600000*%
%TD*%
%TA.AperFunction,Conductor*%
%ADD16C,0.500000*%
%TD*%
%TA.AperFunction,Conductor*%
%ADD17C,2.000000*%
%TD*%
G04 APERTURE END LIST*
D10*
%TO.P,J5,1,Pin_1*%
%TO.N,GND*%
X124445000Y-52835000D03*
%TD*%
D11*
%TO.P,U2,1,Ds*%
%TO.N,3>2*%
X109065000Y-29130000D03*
D12*
%TO.P,U2,2,A*%
%TO.N,Net-(J3-Pin_8)*%
X109065000Y-31670000D03*
%TO.P,U2,3,B*%
%TO.N,Net-(J3-Pin_7)*%
X109065000Y-34210000D03*
%TO.P,U2,4,C*%
%TO.N,Net-(J3-Pin_6)*%
X109065000Y-36750000D03*
%TO.P,U2,5,D*%
%TO.N,Net-(J3-Pin_5)*%
X109065000Y-39290000D03*
%TO.P,U2,6,CE*%
%TO.N,GND*%
X109065000Y-41830000D03*
%TO.P,U2,7,Clk*%
%TO.N,CLK*%
X109065000Y-44370000D03*
%TO.P,U2,8,GND*%
%TO.N,GND*%
X109065000Y-46910000D03*
%TO.P,U2,9,Clr*%
%TO.N,+5V*%
X116685000Y-46910000D03*
%TO.P,U2,10,E*%
%TO.N,Net-(J3-Pin_4)*%
X116685000Y-44370000D03*
%TO.P,U2,11,F*%
%TO.N,Net-(J3-Pin_3)*%
X116685000Y-41830000D03*
%TO.P,U2,12,G*%
%TO.N,Net-(J3-Pin_2)*%
X116685000Y-39290000D03*
%TO.P,U2,13,Qh*%
%TO.N,2>1*%
X116685000Y-36750000D03*
%TO.P,U2,14,H*%
%TO.N,Net-(J3-Pin_1)*%
X116685000Y-34210000D03*
%TO.P,U2,15,PE*%
%TO.N,SH{slash}LD*%
X116685000Y-31670000D03*
%TO.P,U2,16,VCC*%
%TO.N,+5V*%
X116685000Y-29130000D03*
%TD*%
D11*
%TO.P,U3,1,Ds*%
%TO.N,GND*%
X132370000Y-29240000D03*
D12*
%TO.P,U3,2,A*%
%TO.N,Net-(J4-Pin_8)*%
X132370000Y-31780000D03*
%TO.P,U3,3,B*%
%TO.N,Net-(J4-Pin_7)*%
X132370000Y-34320000D03*
%TO.P,U3,4,C*%
%TO.N,Net-(J4-Pin_6)*%
X132370000Y-36860000D03*
%TO.P,U3,5,D*%
%TO.N,Net-(J4-Pin_5)*%
X132370000Y-39400000D03*
%TO.P,U3,6,CE*%
%TO.N,GND*%
X132370000Y-41940000D03*
%TO.P,U3,7,Clk*%
%TO.N,CLK*%
X132370000Y-44480000D03*
%TO.P,U3,8,GND*%
%TO.N,GND*%
X132370000Y-47020000D03*
%TO.P,U3,9,Clr*%
%TO.N,+5V*%
X139990000Y-47020000D03*
%TO.P,U3,10,E*%
%TO.N,Net-(J4-Pin_4)*%
X139990000Y-44480000D03*
%TO.P,U3,11,F*%
%TO.N,Net-(J4-Pin_3)*%
X139990000Y-41940000D03*
%TO.P,U3,12,G*%
%TO.N,Net-(J4-Pin_2)*%
X139990000Y-39400000D03*
%TO.P,U3,13,Qh*%
%TO.N,3>2*%
X139990000Y-36860000D03*
%TO.P,U3,14,H*%
%TO.N,Net-(J4-Pin_1)*%
X139990000Y-34320000D03*
%TO.P,U3,15,PE*%
%TO.N,SH{slash}LD*%
X139990000Y-31780000D03*
%TO.P,U3,16,VCC*%
%TO.N,+5V*%
X139990000Y-29240000D03*
%TD*%
D11*
%TO.P,U1,1,Ds*%
%TO.N,2>1*%
X85650000Y-28915000D03*
D12*
%TO.P,U1,2,A*%
%TO.N,Net-(J2-Pin_8)*%
X85650000Y-31455000D03*
%TO.P,U1,3,B*%
%TO.N,Net-(J2-Pin_7)*%
X85650000Y-33995000D03*
%TO.P,U1,4,C*%
%TO.N,Net-(J2-Pin_6)*%
X85650000Y-36535000D03*
%TO.P,U1,5,D*%
%TO.N,Net-(J2-Pin_5)*%
X85650000Y-39075000D03*
%TO.P,U1,6,CE*%
%TO.N,GND*%
X85650000Y-41615000D03*
%TO.P,U1,7,Clk*%
%TO.N,CLK*%
X85650000Y-44155000D03*
%TO.P,U1,8,GND*%
%TO.N,GND*%
X85650000Y-46695000D03*
%TO.P,U1,9,Clr*%
%TO.N,+5V*%
X93270000Y-46695000D03*
%TO.P,U1,10,E*%
%TO.N,Net-(J2-Pin_4)*%
X93270000Y-44155000D03*
%TO.P,U1,11,F*%
%TO.N,Net-(J2-Pin_3)*%
X93270000Y-41615000D03*
%TO.P,U1,12,G*%
%TO.N,Net-(J2-Pin_2)*%
X93270000Y-39075000D03*
%TO.P,U1,13,Qh*%
%TO.N,Qh*%
X93270000Y-36535000D03*
%TO.P,U1,14,H*%
%TO.N,Net-(J2-Pin_1)*%
X93270000Y-33995000D03*
%TO.P,U1,15,PE*%
%TO.N,SH{slash}LD*%
X93270000Y-31455000D03*
%TO.P,U1,16,VCC*%
%TO.N,+5V*%
X93270000Y-28915000D03*
%TD*%
D10*
%TO.P,J4,1,Pin_1*%
%TO.N,Net-(J4-Pin_1)*%
X144995000Y-52735000D03*
D13*
%TO.P,J4,2,Pin_2*%
%TO.N,Net-(J4-Pin_2)*%
X142455000Y-52735000D03*
%TO.P,J4,3,Pin_3*%
%TO.N,Net-(J4-Pin_3)*%
X139915000Y-52735000D03*
%TO.P,J4,4,Pin_4*%
%TO.N,Net-(J4-Pin_4)*%
X137375000Y-52735000D03*
%TO.P,J4,5,Pin_5*%
%TO.N,Net-(J4-Pin_5)*%
X134835000Y-52735000D03*
%TO.P,J4,6,Pin_6*%
%TO.N,Net-(J4-Pin_6)*%
X132295000Y-52735000D03*
%TO.P,J4,7,Pin_7*%
%TO.N,Net-(J4-Pin_7)*%
X129755000Y-52735000D03*
%TO.P,J4,8,Pin_8*%
%TO.N,Net-(J4-Pin_8)*%
X127215000Y-52735000D03*
%TD*%
D10*
%TO.P,J3,1,Pin_1*%
%TO.N,Net-(J3-Pin_1)*%
X121685000Y-52845000D03*
D13*
%TO.P,J3,2,Pin_2*%
%TO.N,Net-(J3-Pin_2)*%
X119145000Y-52845000D03*
%TO.P,J3,3,Pin_3*%
%TO.N,Net-(J3-Pin_3)*%
X116605000Y-52845000D03*
%TO.P,J3,4,Pin_4*%
%TO.N,Net-(J3-Pin_4)*%
X114065000Y-52845000D03*
%TO.P,J3,5,Pin_5*%
%TO.N,Net-(J3-Pin_5)*%
X111525000Y-52845000D03*
%TO.P,J3,6,Pin_6*%
%TO.N,Net-(J3-Pin_6)*%
X108985000Y-52845000D03*
%TO.P,J3,7,Pin_7*%
%TO.N,Net-(J3-Pin_7)*%
X106445000Y-52845000D03*
%TO.P,J3,8,Pin_8*%
%TO.N,Net-(J3-Pin_8)*%
X103905000Y-52845000D03*
%TD*%
D10*
%TO.P,J2,1,Pin_1*%
%TO.N,Net-(J2-Pin_1)*%
X98380000Y-52725000D03*
D13*
%TO.P,J2,2,Pin_2*%
%TO.N,Net-(J2-Pin_2)*%
X95840000Y-52725000D03*
%TO.P,J2,3,Pin_3*%
%TO.N,Net-(J2-Pin_3)*%
X93300000Y-52725000D03*
%TO.P,J2,4,Pin_4*%
%TO.N,Net-(J2-Pin_4)*%
X90760000Y-52725000D03*
%TO.P,J2,5,Pin_5*%
%TO.N,Net-(J2-Pin_5)*%
X88220000Y-52725000D03*
%TO.P,J2,6,Pin_6*%
%TO.N,Net-(J2-Pin_6)*%
X85680000Y-52725000D03*
%TO.P,J2,7,Pin_7*%
%TO.N,Net-(J2-Pin_7)*%
X83140000Y-52725000D03*
%TO.P,J2,8,Pin_8*%
%TO.N,Net-(J2-Pin_8)*%
X80600000Y-52725000D03*
%TD*%
D10*
%TO.P,J1,1,Pin_1*%
%TO.N,CLK*%
X107945000Y-19465000D03*
D13*
%TO.P,J1,2,Pin_2*%
%TO.N,SH{slash}LD*%
X110485000Y-19465000D03*
%TO.P,J1,3,Pin_3*%
%TO.N,Qh*%
X113025000Y-19465000D03*
%TO.P,J1,4,Pin_4*%
%TO.N,GND*%
X115565000Y-19465000D03*
%TO.P,J1,5,Pin_5*%
%TO.N,+5V*%
X118105000Y-19465000D03*
%TD*%
D14*
%TO.N,+5V*%
X120000000Y-23700000D03*
D15*
%TO.N,2>1*%
X91760661Y-27260661D03*
X94945661Y-27275661D03*
X112900000Y-28235000D03*
%TO.N,SH{slash}LD*%
X119180000Y-35480000D03*
%TO.N,3>2*%
X102462800Y-48913400D03*
X143260000Y-48435000D03*
%TO.N,Qh*%
X96645000Y-48913400D03*
X82897169Y-30642169D03*
%TO.N,SH{slash}LD*%
X120954961Y-22222795D03*
X134651300Y-27351300D03*
X120016082Y-49034580D03*
X101550000Y-48913400D03*
%TD*%
D16*
%TO.N,SH{slash}LD*%
X132105000Y-24805000D02*
X134651300Y-27351300D01*
X121797795Y-22222795D02*
X124380000Y-24805000D01*
X120954961Y-22222795D02*
X121797795Y-22222795D01*
X124380000Y-24805000D02*
X132105000Y-24805000D01*
D17*
%TO.N,+5V*%
X118105000Y-19465000D02*
X118105000Y-21805000D01*
X118105000Y-21805000D02*
X120000000Y-23700000D01*
%TO.N,GND*%
X124445000Y-27215000D02*
X124445000Y-52835000D01*
X123695000Y-26465000D02*
X124445000Y-27215000D01*
X132370000Y-27470000D02*
X132370000Y-29240000D01*
X131365000Y-26465000D02*
X132370000Y-27470000D01*
X123695000Y-26465000D02*
X131365000Y-26465000D01*
X115835000Y-26465000D02*
X123695000Y-26465000D01*
X115565000Y-26735000D02*
X115835000Y-26465000D01*
D16*
%TO.N,Qh*%
X94570000Y-36535000D02*
X93270000Y-36535000D01*
X96922200Y-38887200D02*
X94570000Y-36535000D01*
X96922200Y-48636200D02*
X96922200Y-38887200D01*
X96645000Y-48913400D02*
X96922200Y-48636200D01*
%TO.N,SH{slash}LD*%
X99131400Y-36016400D02*
X94570000Y-31455000D01*
X99131400Y-48577800D02*
X99131400Y-36016400D01*
X99467000Y-48913400D02*
X99131400Y-48577800D01*
X101550000Y-48913400D02*
X99467000Y-48913400D01*
X94570000Y-31455000D02*
X93270000Y-31455000D01*
X120400000Y-36700000D02*
X119180000Y-35480000D01*
X120400000Y-48650662D02*
X120400000Y-36700000D01*
X120016082Y-49034580D02*
X120400000Y-48650662D01*
%TO.N,3>2*%
X141290000Y-36860000D02*
X139990000Y-36860000D01*
X143398800Y-38968800D02*
X141290000Y-36860000D01*
X143398800Y-48296200D02*
X143398800Y-38968800D01*
X143260000Y-48435000D02*
X143398800Y-48296200D01*
%TO.N,Qh*%
X91099390Y-23750000D02*
X108740000Y-23750000D01*
X88149390Y-26700000D02*
X91099390Y-23750000D01*
X85482193Y-26700000D02*
X88149390Y-26700000D01*
X83770000Y-29769338D02*
X83770000Y-28412193D01*
X83770000Y-28412193D02*
X85482193Y-26700000D01*
X108740000Y-23750000D02*
X113025000Y-19465000D01*
X82897169Y-30642169D02*
X83770000Y-29769338D01*
%TO.N,2>1*%
X112900000Y-35800000D02*
X112900000Y-28235000D01*
X113850000Y-36750000D02*
X112900000Y-35800000D01*
X116685000Y-36750000D02*
X113850000Y-36750000D01*
X91775661Y-27275661D02*
X91760661Y-27260661D01*
X94945661Y-27275661D02*
X91775661Y-27275661D01*
D17*
%TO.N,GND*%
X111400000Y-37400000D02*
X112900000Y-38900000D01*
X111400000Y-26735000D02*
X111400000Y-37400000D01*
X115565000Y-26735000D02*
X111400000Y-26735000D01*
D16*
%TO.N,3>2*%
X106855600Y-29130000D02*
X109065000Y-29130000D01*
X102462800Y-48913400D02*
X102462800Y-33522800D01*
X102462800Y-33522800D02*
X106855600Y-29130000D01*
%TO.N,SH{slash}LD*%
X138256400Y-27351300D02*
X134651300Y-27351300D01*
D17*
%TO.N,GND*%
X114530000Y-25700000D02*
X91200000Y-25700000D01*
X91200000Y-25700000D02*
X89200000Y-27700000D01*
X115565000Y-26735000D02*
X114530000Y-25700000D01*
X89200000Y-27700000D02*
X89200000Y-39000000D01*
D16*
%TO.N,Net-(J4-Pin_6)*%
X130460000Y-36640000D02*
X132150000Y-36640000D01*
X129510000Y-37590000D02*
X130460000Y-36640000D01*
X129510000Y-49479900D02*
X129510000Y-37590000D01*
X130320000Y-50290000D02*
X129510000Y-49479900D01*
X131910000Y-50290000D02*
X130320000Y-50290000D01*
X132295000Y-50675000D02*
X131910000Y-50290000D01*
X132295000Y-52735000D02*
X132295000Y-50675000D01*
X132150000Y-36640000D02*
X132375000Y-36640000D01*
X132150000Y-36640000D02*
X132370000Y-36860000D01*
%TO.N,Net-(J4-Pin_4)*%
X139995000Y-44260000D02*
X139770000Y-44260000D01*
X137375000Y-45225000D02*
X137375000Y-52735000D01*
X138340000Y-44260000D02*
X137375000Y-45225000D01*
X139770000Y-44260000D02*
X138340000Y-44260000D01*
X139770000Y-44260000D02*
X139990000Y-44480000D01*
%TO.N,Net-(J4-Pin_3)*%
X139995000Y-41720000D02*
X140210000Y-41720000D01*
X139915000Y-50485000D02*
X139915000Y-52735000D01*
X141810000Y-48590000D02*
X139915000Y-50485000D01*
X141810000Y-42090000D02*
X141810000Y-48590000D01*
X141440000Y-41720000D02*
X141810000Y-42090000D01*
X140210000Y-41720000D02*
X141440000Y-41720000D01*
X140210000Y-41720000D02*
X139990000Y-41940000D01*
%TO.N,Net-(J4-Pin_7)*%
X130500000Y-34100000D02*
X132150000Y-34100000D01*
X128810000Y-35790000D02*
X130500000Y-34100000D01*
X128810000Y-49790000D02*
X128810000Y-35790000D01*
X129755000Y-50735000D02*
X128810000Y-49790000D01*
X129755000Y-52735000D02*
X129755000Y-50735000D01*
X132150000Y-34100000D02*
X132375000Y-34100000D01*
X132150000Y-34100000D02*
X132370000Y-34320000D01*
%TO.N,Net-(J4-Pin_5)*%
X132375000Y-39180000D02*
X132150000Y-39180000D01*
X134835000Y-50315000D02*
X134835000Y-52735000D01*
X134110000Y-49590000D02*
X134835000Y-50315000D01*
X130610000Y-49590000D02*
X134110000Y-49590000D01*
X130210000Y-49190000D02*
X130610000Y-49590000D01*
X130210000Y-39790000D02*
X130210000Y-49190000D01*
X130820000Y-39180000D02*
X130210000Y-39790000D01*
X132150000Y-39180000D02*
X130820000Y-39180000D01*
X132150000Y-39180000D02*
X132370000Y-39400000D01*
%TO.N,Net-(J4-Pin_8)*%
X128640000Y-31560000D02*
X132150000Y-31560000D01*
X127215000Y-32985000D02*
X128640000Y-31560000D01*
X127215000Y-52735000D02*
X127215000Y-32985000D01*
X132150000Y-31560000D02*
X132375000Y-31560000D01*
X132150000Y-31560000D02*
X132370000Y-31780000D01*
%TO.N,Net-(J4-Pin_2)*%
X139995000Y-39180000D02*
X140210000Y-39180000D01*
X142510000Y-52680000D02*
X142455000Y-52735000D01*
X142510000Y-39890000D02*
X142510000Y-52680000D01*
X141800000Y-39180000D02*
X142510000Y-39890000D01*
X140210000Y-39180000D02*
X141800000Y-39180000D01*
X140210000Y-39180000D02*
X139990000Y-39400000D01*
%TO.N,Net-(J4-Pin_1)*%
X140210000Y-34100000D02*
X139995000Y-34100000D01*
X144995000Y-36475000D02*
X142620000Y-34100000D01*
X144995000Y-52735000D02*
X144995000Y-36475000D01*
X140210000Y-34100000D02*
X139990000Y-34320000D01*
%TO.N,Net-(J3-Pin_4)*%
X114065000Y-45335000D02*
X114065000Y-52845000D01*
X115030000Y-44370000D02*
X114065000Y-45335000D01*
X116685000Y-44370000D02*
X115030000Y-44370000D01*
%TO.N,Net-(J3-Pin_8)*%
X105330000Y-31670000D02*
X109065000Y-31670000D01*
X103905000Y-33095000D02*
X105330000Y-31670000D01*
X103905000Y-52845000D02*
X103905000Y-33095000D01*
%TO.N,Net-(J3-Pin_6)*%
X107150000Y-36750000D02*
X109065000Y-36750000D01*
X106200000Y-37700000D02*
X107150000Y-36750000D01*
X106200000Y-49589900D02*
X106200000Y-37700000D01*
X107010000Y-50400000D02*
X106200000Y-49589900D01*
X108600000Y-50400000D02*
X107010000Y-50400000D01*
X108985000Y-50785000D02*
X108600000Y-50400000D01*
X108985000Y-52845000D02*
X108985000Y-50785000D01*
%TO.N,Net-(J3-Pin_1)*%
X119310000Y-34210000D02*
X116685000Y-34210000D01*
X121685000Y-36585000D02*
X119310000Y-34210000D01*
X121685000Y-52845000D02*
X121685000Y-36585000D01*
%TO.N,Net-(J3-Pin_2)*%
X119200000Y-52790000D02*
X119145000Y-52845000D01*
X119200000Y-40000000D02*
X119200000Y-52790000D01*
X118490000Y-39290000D02*
X119200000Y-40000000D01*
X116685000Y-39290000D02*
X118490000Y-39290000D01*
%TO.N,Net-(J3-Pin_5)*%
X111525000Y-50425000D02*
X111525000Y-52845000D01*
X110800000Y-49700000D02*
X111525000Y-50425000D01*
X107300000Y-49700000D02*
X110800000Y-49700000D01*
X106900000Y-49300000D02*
X107300000Y-49700000D01*
X106900000Y-39900000D02*
X106900000Y-49300000D01*
X107510000Y-39290000D02*
X106900000Y-39900000D01*
X109065000Y-39290000D02*
X107510000Y-39290000D01*
%TO.N,Net-(J3-Pin_7)*%
X107190000Y-34210000D02*
X109065000Y-34210000D01*
X105500000Y-35900000D02*
X107190000Y-34210000D01*
X105500000Y-49900000D02*
X105500000Y-35900000D01*
X106445000Y-50845000D02*
X105500000Y-49900000D01*
X106445000Y-52845000D02*
X106445000Y-50845000D01*
%TO.N,Net-(J3-Pin_3)*%
X116605000Y-50595000D02*
X116605000Y-52845000D01*
X118500000Y-48700000D02*
X116605000Y-50595000D01*
X118500000Y-42200000D02*
X118500000Y-48700000D01*
X118130000Y-41830000D02*
X118500000Y-42200000D01*
X116685000Y-41830000D02*
X118130000Y-41830000D01*
%TO.N,Net-(J2-Pin_6)*%
X83845000Y-36630000D02*
X85555000Y-36630000D01*
X82895000Y-37580000D02*
X83845000Y-36630000D01*
X82895000Y-49469900D02*
X82895000Y-37580000D01*
X83705100Y-50280000D02*
X82895000Y-49469900D01*
X85295000Y-50280000D02*
X83705100Y-50280000D01*
X85680000Y-50665000D02*
X85295000Y-50280000D01*
X85680000Y-52725000D02*
X85680000Y-50665000D01*
X85555000Y-36630000D02*
X85760000Y-36630000D01*
X85555000Y-36630000D02*
X85650000Y-36535000D01*
%TO.N,Net-(J2-Pin_1)*%
X96005000Y-34090000D02*
X93380000Y-34090000D01*
X98380000Y-36465000D02*
X96005000Y-34090000D01*
X98380000Y-52725000D02*
X98380000Y-36465000D01*
X93365000Y-34090000D02*
X93270000Y-33995000D01*
X93380000Y-34090000D02*
X93365000Y-34090000D01*
%TO.N,Net-(J2-Pin_5)*%
X85760000Y-39170000D02*
X85555000Y-39170000D01*
X88220000Y-50305000D02*
X88220000Y-52725000D01*
X87495000Y-49580000D02*
X88220000Y-50305000D01*
X83995000Y-49580000D02*
X87495000Y-49580000D01*
X83595000Y-49180000D02*
X83995000Y-49580000D01*
X83595000Y-39780000D02*
X83595000Y-49180000D01*
X84205000Y-39170000D02*
X83595000Y-39780000D01*
X85555000Y-39170000D02*
X84205000Y-39170000D01*
X85555000Y-39170000D02*
X85650000Y-39075000D01*
%TO.N,Net-(J2-Pin_2)*%
X95895000Y-52670000D02*
X95840000Y-52725000D01*
X95895000Y-39880000D02*
X95895000Y-52670000D01*
X95185000Y-39170000D02*
X95895000Y-39880000D01*
X93380000Y-39170000D02*
X95185000Y-39170000D01*
X93365000Y-39170000D02*
X93270000Y-39075000D01*
X93380000Y-39170000D02*
X93365000Y-39170000D01*
%TO.N,Net-(J2-Pin_7)*%
X83885000Y-34090000D02*
X85555000Y-34090000D01*
X82195000Y-35780000D02*
X83885000Y-34090000D01*
X82195000Y-49780000D02*
X82195000Y-35780000D01*
X83140000Y-50725000D02*
X82195000Y-49780000D01*
X83140000Y-52725000D02*
X83140000Y-50725000D01*
X85555000Y-34090000D02*
X85760000Y-34090000D01*
X85555000Y-34090000D02*
X85650000Y-33995000D01*
%TO.N,Net-(J2-Pin_8)*%
X82025000Y-31550000D02*
X85555000Y-31550000D01*
X80600000Y-32975000D02*
X82025000Y-31550000D01*
X80600000Y-52725000D02*
X80600000Y-32975000D01*
X85555000Y-31550000D02*
X85760000Y-31550000D01*
X85555000Y-31550000D02*
X85650000Y-31455000D01*
%TO.N,Net-(J2-Pin_4)*%
X93380000Y-44250000D02*
X93175000Y-44250000D01*
X90760000Y-45215000D02*
X90760000Y-52725000D01*
X91725000Y-44250000D02*
X90760000Y-45215000D01*
X93175000Y-44250000D02*
X91725000Y-44250000D01*
X93175000Y-44250000D02*
X93270000Y-44155000D01*
%TO.N,Net-(J2-Pin_3)*%
X93300000Y-50475000D02*
X93300000Y-52725000D01*
X95195000Y-48580000D02*
X93300000Y-50475000D01*
X95195000Y-42080000D02*
X95195000Y-48580000D01*
X94825000Y-41710000D02*
X95195000Y-42080000D01*
X93380000Y-41710000D02*
X94825000Y-41710000D01*
X93365000Y-41710000D02*
X93270000Y-41615000D01*
X93380000Y-41710000D02*
X93365000Y-41710000D01*
%TO.N,SH{slash}LD*%
X138256400Y-30046400D02*
X138256400Y-27351300D01*
X139990000Y-31780000D02*
X138256400Y-30046400D01*
D17*
%TO.N,GND*%
X89200000Y-39000000D02*
X89200000Y-44030000D01*
X86585000Y-41615000D02*
X89200000Y-39000000D01*
X85650000Y-41615000D02*
X86585000Y-41615000D01*
X86781400Y-46695000D02*
X85650000Y-46695000D01*
X89100000Y-44376400D02*
X86781400Y-46695000D01*
X89100000Y-44130000D02*
X89100000Y-44376400D01*
X89200000Y-44030000D02*
X89100000Y-44130000D01*
X110196000Y-46910000D02*
X109065000Y-46910000D01*
X112900000Y-44206400D02*
X110196000Y-46910000D01*
X112900000Y-38900000D02*
X112900000Y-44206400D01*
X136000000Y-29000000D02*
X136000000Y-38598400D01*
X132610000Y-29000000D02*
X136000000Y-29000000D01*
X132370000Y-29240000D02*
X132610000Y-29000000D01*
X132658000Y-47020000D02*
X132370000Y-47020000D01*
X136000000Y-43678400D02*
X132658000Y-47020000D01*
X136000000Y-38598400D02*
X136000000Y-43678400D01*
X132658000Y-41940000D02*
X132370000Y-41940000D01*
X134370000Y-40228400D02*
X132658000Y-41940000D01*
X136000000Y-38598400D02*
X134370000Y-40228400D01*
X109970000Y-41830000D02*
X109065000Y-41830000D01*
X112900000Y-38900000D02*
X109970000Y-41830000D01*
X115565000Y-19465000D02*
X115565000Y-26735000D01*
X89200000Y-39000000D02*
X89200000Y-44030000D01*
D16*
%TO.N,Net-(J4-Pin_1)*%
X142620000Y-34100000D02*
X140210000Y-34100000D01*
%TD*%
M02*
