%TF.GenerationSoftware,KiCad,Pcbnew,8.0.6*%
%TF.CreationDate,2026-05-30T16:06:03+02:00*%
%TF.ProjectId,_kb,5f6b622e-6b69-4636-9164-5f7063625858,rev?*%
%TF.SameCoordinates,Original*%
%TF.FileFunction,Legend,Bot*%
%TF.FilePolarity,Positive*%
%FSLAX46Y46*%
G04 Gerber Fmt 4.6, Leading zero omitted, Abs format (unit mm)*
G04 Created by KiCad (PCBNEW 8.0.6) date 2026-05-30 16:06:03*
%MOMM*%
%LPD*%
G01*
G04 APERTURE LIST*
%ADD10C,0.125000*%
G04 APERTURE END LIST*
D10*
G36*
X146503211Y-49459933D02*
G01*
X146543664Y-49464449D01*
X146580582Y-49473746D01*
X146617454Y-49489685D01*
X146624328Y-49493519D01*
X146656077Y-49515025D01*
X146683461Y-49540431D01*
X146706481Y-49569736D01*
X146724463Y-49600086D01*
X146740028Y-49635083D01*
X146751177Y-49671769D01*
X146756316Y-49695256D01*
X146762189Y-49733686D01*
X146764366Y-49772702D01*
X146764366Y-50082280D01*
X146729195Y-50090157D01*
X146723333Y-50060298D01*
X146712892Y-50027142D01*
X146698787Y-50011571D01*
X146679187Y-50007541D01*
X146667096Y-50009007D01*
X146653724Y-50011755D01*
X146132937Y-50133387D01*
X146101980Y-50146577D01*
X146081830Y-50174603D01*
X146075235Y-50209408D01*
X146072670Y-50247144D01*
X146037500Y-50255020D01*
X146037500Y-49936100D01*
X146037963Y-49913148D01*
X146038184Y-49910272D01*
X146072670Y-49910272D01*
X146072782Y-49920974D01*
X146075448Y-49958022D01*
X146085310Y-49994719D01*
X146093972Y-50007204D01*
X146129274Y-50020547D01*
X146142096Y-50019631D01*
X146156934Y-50016884D01*
X146727180Y-49886092D01*
X146728463Y-49850554D01*
X146728674Y-49843496D01*
X146729195Y-49806774D01*
X146728191Y-49781767D01*
X146721598Y-49741076D01*
X146708851Y-49704294D01*
X146689952Y-49671422D01*
X146664898Y-49642459D01*
X146638964Y-49621418D01*
X146604101Y-49602371D01*
X146564277Y-49589251D01*
X146526193Y-49582721D01*
X146484464Y-49580544D01*
X146445446Y-49581872D01*
X146407344Y-49585856D01*
X146370158Y-49592496D01*
X146333888Y-49601793D01*
X146298843Y-49613677D01*
X146265149Y-49628263D01*
X146232806Y-49645551D01*
X146201814Y-49665540D01*
X146184064Y-49679115D01*
X146154976Y-49706187D01*
X146129568Y-49736650D01*
X146107841Y-49770504D01*
X146095889Y-49794617D01*
X146082597Y-49832599D01*
X146074869Y-49872754D01*
X146072670Y-49910272D01*
X146038184Y-49910272D01*
X146041006Y-49873602D01*
X146046889Y-49834844D01*
X146055612Y-49796876D01*
X146067175Y-49759696D01*
X146075035Y-49738873D01*
X146090910Y-49703604D01*
X146109486Y-49669826D01*
X146130761Y-49637537D01*
X146154736Y-49606739D01*
X146169156Y-49590647D01*
X146196567Y-49564388D01*
X146226748Y-49540549D01*
X146259699Y-49519128D01*
X146295420Y-49500127D01*
X146327895Y-49486307D01*
X146367475Y-49473797D01*
X146408878Y-49465179D01*
X146445818Y-49460890D01*
X146484098Y-49459460D01*
X146503211Y-49459933D01*
G37*
G36*
X146459110Y-48977336D02*
G01*
X146494543Y-48988136D01*
X146523665Y-49012679D01*
X146525491Y-49014949D01*
X146542879Y-49048051D01*
X146550993Y-49083900D01*
X146553340Y-49122588D01*
X146553227Y-49130902D01*
X146549245Y-49171137D01*
X146539574Y-49209155D01*
X146524214Y-49244954D01*
X146520525Y-49251802D01*
X146499931Y-49284023D01*
X146475760Y-49312882D01*
X146448011Y-49338377D01*
X146441927Y-49343203D01*
X146410350Y-49365124D01*
X146376840Y-49383360D01*
X146341399Y-49397911D01*
X146334094Y-49400373D01*
X146296885Y-49410302D01*
X146258532Y-49416259D01*
X146219033Y-49418244D01*
X146180577Y-49415939D01*
X146141565Y-49407659D01*
X146107820Y-49393356D01*
X146076151Y-49370068D01*
X146054112Y-49343289D01*
X146036845Y-49306730D01*
X146028186Y-49268517D01*
X146025776Y-49230666D01*
X146026719Y-49210002D01*
X146033174Y-49173394D01*
X146045743Y-49137540D01*
X146064427Y-49102438D01*
X146082582Y-49076341D01*
X146109582Y-49045698D01*
X146137036Y-49021209D01*
X146167742Y-48999307D01*
X146189907Y-49028616D01*
X146162392Y-49050164D01*
X146134351Y-49076816D01*
X146110772Y-49106285D01*
X146100494Y-49124094D01*
X146088104Y-49160238D01*
X146084394Y-49197144D01*
X146087027Y-49224518D01*
X146100852Y-49259011D01*
X146126526Y-49285621D01*
X146137649Y-49292662D01*
X146174316Y-49307184D01*
X146210950Y-49313785D01*
X146248525Y-49315662D01*
X146248937Y-49312548D01*
X146283696Y-49312548D01*
X146308228Y-49308470D01*
X146348666Y-49298453D01*
X146385931Y-49284773D01*
X146420023Y-49267428D01*
X146450942Y-49246420D01*
X146466698Y-49233176D01*
X146491909Y-49205813D01*
X146511604Y-49169968D01*
X146518169Y-49132297D01*
X146516521Y-49111231D01*
X146509010Y-49091631D01*
X146491974Y-49077159D01*
X146460650Y-49071481D01*
X146451901Y-49071664D01*
X146414054Y-49077374D01*
X146378951Y-49092363D01*
X146370582Y-49097925D01*
X146342664Y-49124847D01*
X146322897Y-49155928D01*
X146320997Y-49159721D01*
X146307499Y-49194445D01*
X146298168Y-49231215D01*
X146297016Y-49236835D01*
X146289879Y-49274172D01*
X146283696Y-49312548D01*
X146248937Y-49312548D01*
X146252819Y-49283192D01*
X146258815Y-49245710D01*
X146266294Y-49207585D01*
X146272018Y-49183119D01*
X146282151Y-49146720D01*
X146294138Y-49110682D01*
X146295584Y-49106625D01*
X146309969Y-49072850D01*
X146330897Y-49038261D01*
X146355504Y-49011031D01*
X146375768Y-48996044D01*
X146409686Y-48981593D01*
X146447827Y-48976775D01*
X146459110Y-48977336D01*
G37*
G36*
X146025776Y-48771978D02*
G01*
X146027877Y-48812828D01*
X146034180Y-48849651D01*
X146046112Y-48885840D01*
X146052337Y-48898923D01*
X146074714Y-48929844D01*
X146106681Y-48947881D01*
X146122313Y-48949665D01*
X146157061Y-48937478D01*
X146160415Y-48934827D01*
X146178027Y-48902185D01*
X146178183Y-48898190D01*
X146168658Y-48864851D01*
X146146493Y-48845068D01*
X146114619Y-48831512D01*
X146084577Y-48821437D01*
X146068274Y-48800188D01*
X146060975Y-48763802D01*
X146060947Y-48760621D01*
X146064837Y-48722668D01*
X146079207Y-48688026D01*
X146088607Y-48676357D01*
X146121168Y-48654924D01*
X146157698Y-48647892D01*
X146163529Y-48647780D01*
X146199669Y-48657273D01*
X146218667Y-48674708D01*
X146238405Y-48708002D01*
X146253295Y-48744696D01*
X146256585Y-48754392D01*
X146270641Y-48789825D01*
X146275087Y-48799272D01*
X146293939Y-48831007D01*
X146301831Y-48840488D01*
X146330820Y-48865036D01*
X146340300Y-48870347D01*
X146376758Y-48880806D01*
X146393239Y-48881704D01*
X146432165Y-48875944D01*
X146467657Y-48858663D01*
X146496663Y-48833261D01*
X146505713Y-48822719D01*
X146526550Y-48791533D01*
X146541434Y-48756957D01*
X146550364Y-48718992D01*
X146553340Y-48677639D01*
X146551657Y-48640313D01*
X146551142Y-48634591D01*
X146543792Y-48597119D01*
X146539419Y-48583483D01*
X146521867Y-48551232D01*
X146513956Y-48542267D01*
X146480040Y-48525830D01*
X146470359Y-48525232D01*
X146435156Y-48536171D01*
X146430608Y-48539520D01*
X146412814Y-48572457D01*
X146412657Y-48576706D01*
X146421449Y-48608213D01*
X146445080Y-48628729D01*
X146476953Y-48642285D01*
X146510476Y-48653459D01*
X146516521Y-48671045D01*
X146518169Y-48691561D01*
X146513725Y-48728588D01*
X146496054Y-48763038D01*
X146491242Y-48768131D01*
X146459787Y-48788427D01*
X146427311Y-48794143D01*
X146391245Y-48785877D01*
X146373639Y-48770696D01*
X146354151Y-48737149D01*
X146339897Y-48703073D01*
X146336270Y-48693210D01*
X146321780Y-48656788D01*
X146304320Y-48623458D01*
X146281479Y-48593379D01*
X146279483Y-48591360D01*
X146248523Y-48569697D01*
X146211743Y-48560165D01*
X146200165Y-48559670D01*
X146163311Y-48563436D01*
X146126148Y-48576679D01*
X146093534Y-48599455D01*
X146074319Y-48619937D01*
X146053081Y-48652039D01*
X146037912Y-48688080D01*
X146028810Y-48728060D01*
X146025823Y-48766273D01*
X146025776Y-48771978D01*
G37*
G36*
X146096118Y-48222431D02*
G01*
X146061496Y-48230125D01*
X146047269Y-48265529D01*
X146035236Y-48300471D01*
X146033653Y-48305963D01*
X146026399Y-48342351D01*
X146025776Y-48354323D01*
X146031773Y-48392324D01*
X146047025Y-48416238D01*
X146079175Y-48434330D01*
X146099415Y-48436755D01*
X146123961Y-48434740D01*
X146156385Y-48427962D01*
X146373822Y-48373374D01*
X146409736Y-48365978D01*
X146412290Y-48365497D01*
X146447095Y-48361650D01*
X146483274Y-48369473D01*
X146485197Y-48371175D01*
X146494713Y-48408197D01*
X146494722Y-48410010D01*
X146490326Y-48440235D01*
X146482998Y-48468811D01*
X146516887Y-48461118D01*
X146532139Y-48425188D01*
X146544364Y-48388944D01*
X146552280Y-48352707D01*
X146553340Y-48338386D01*
X146548349Y-48301887D01*
X146533374Y-48277020D01*
X146499425Y-48259829D01*
X146479701Y-48257969D01*
X146454605Y-48260167D01*
X146422915Y-48266212D01*
X146205661Y-48321533D01*
X146168867Y-48330023D01*
X146166460Y-48330509D01*
X146134952Y-48334356D01*
X146098843Y-48324966D01*
X146095019Y-48321167D01*
X146084560Y-48285744D01*
X146084394Y-48278668D01*
X146087875Y-48250458D01*
X146096118Y-48222431D01*
G37*
G36*
X146744583Y-48185978D02*
G01*
X146708868Y-48194183D01*
X146692742Y-48205029D01*
X146672330Y-48237241D01*
X146670577Y-48252473D01*
X146682427Y-48287747D01*
X146691643Y-48297719D01*
X146725048Y-48315263D01*
X146739820Y-48316770D01*
X146775814Y-48307766D01*
X146789829Y-48297719D01*
X146809566Y-48266643D01*
X146811261Y-48252473D01*
X146800851Y-48215756D01*
X146791111Y-48204480D01*
X146757451Y-48187135D01*
X146744583Y-48185978D01*
G37*
G36*
X146541617Y-47645041D02*
G01*
X146517620Y-47739380D01*
X146528743Y-47757868D01*
X146542716Y-47792503D01*
X146550342Y-47824300D01*
X146553340Y-47862479D01*
X146553233Y-47869923D01*
X146549476Y-47906545D01*
X146540353Y-47942166D01*
X146525863Y-47976784D01*
X146522381Y-47983548D01*
X146502868Y-48015562D01*
X146479849Y-48044570D01*
X146453323Y-48070573D01*
X146447454Y-48075590D01*
X146416521Y-48098652D01*
X146382940Y-48118351D01*
X146346711Y-48134687D01*
X146339209Y-48137527D01*
X146301270Y-48148975D01*
X146262616Y-48155845D01*
X146223246Y-48158135D01*
X146190022Y-48156711D01*
X146150071Y-48150386D01*
X146111066Y-48137221D01*
X146078349Y-48117651D01*
X146068954Y-48109761D01*
X146044310Y-48079135D01*
X146029934Y-48041855D01*
X146025776Y-48002613D01*
X146026457Y-47986444D01*
X146032526Y-47957733D01*
X146084394Y-47957733D01*
X146084761Y-47968007D01*
X146094836Y-48003895D01*
X146096869Y-48007166D01*
X146124328Y-48032472D01*
X146132889Y-48036893D01*
X146168475Y-48047676D01*
X146186521Y-48050179D01*
X146223979Y-48052072D01*
X146258826Y-48050462D01*
X146296993Y-48044972D01*
X146334987Y-48035586D01*
X146358401Y-48027900D01*
X146394869Y-48012521D01*
X146429143Y-47992721D01*
X146441651Y-47983731D01*
X146470153Y-47958724D01*
X146494356Y-47929157D01*
X146495821Y-47926943D01*
X146512216Y-47892749D01*
X146518169Y-47854235D01*
X146517995Y-47845943D01*
X146511025Y-47809356D01*
X146491608Y-47780596D01*
X146463581Y-47764293D01*
X146434272Y-47759897D01*
X146158033Y-47818698D01*
X146152090Y-47824707D01*
X146127035Y-47853598D01*
X146105094Y-47886109D01*
X146090236Y-47919546D01*
X146084394Y-47957733D01*
X146032526Y-47957733D01*
X146034385Y-47948941D01*
X146040267Y-47933882D01*
X146056734Y-47901130D01*
X146061789Y-47892170D01*
X146082562Y-47861746D01*
X146105460Y-47832620D01*
X146104544Y-47828956D01*
X146080402Y-47833548D01*
X146044696Y-47841900D01*
X146008824Y-47852774D01*
X145974302Y-47866692D01*
X145955995Y-47875682D01*
X145923709Y-47894435D01*
X145893335Y-47917616D01*
X145869572Y-47943937D01*
X145851203Y-47976784D01*
X145843278Y-48000535D01*
X145838197Y-48037601D01*
X145838197Y-48052988D01*
X145865675Y-48065444D01*
X145897365Y-48082480D01*
X145920996Y-48104096D01*
X145931987Y-48136519D01*
X145931850Y-48140963D01*
X145916416Y-48174621D01*
X145913398Y-48177109D01*
X145877581Y-48188543D01*
X145851570Y-48183230D01*
X145827206Y-48162348D01*
X145822680Y-48154992D01*
X145809804Y-48119849D01*
X145804721Y-48088846D01*
X145803026Y-48050057D01*
X145804618Y-48012075D01*
X145810048Y-47973271D01*
X145819330Y-47937583D01*
X145830121Y-47910237D01*
X145849875Y-47875895D01*
X145873368Y-47846542D01*
X145878097Y-47841542D01*
X145907817Y-47815400D01*
X145940281Y-47793626D01*
X145973935Y-47775650D01*
X145981969Y-47771869D01*
X146016321Y-47757604D01*
X146054223Y-47744712D01*
X146090298Y-47734559D01*
X146129091Y-47725458D01*
X146533923Y-47638813D01*
X146541617Y-47645041D01*
G37*
G36*
X146096118Y-47001339D02*
G01*
X146062229Y-47009033D01*
X146048473Y-47043302D01*
X146035686Y-47077898D01*
X146034569Y-47081207D01*
X146026471Y-47118525D01*
X146025776Y-47133230D01*
X146031825Y-47171232D01*
X146047208Y-47195146D01*
X146079677Y-47213238D01*
X146100148Y-47215662D01*
X146125244Y-47213647D01*
X146157667Y-47207053D01*
X146350558Y-47156495D01*
X146387272Y-47148158D01*
X146390675Y-47147519D01*
X146419801Y-47144038D01*
X146457425Y-47150478D01*
X146474572Y-47160525D01*
X146493128Y-47192551D01*
X146494722Y-47209617D01*
X146488404Y-47247349D01*
X146474755Y-47280143D01*
X146453848Y-47313532D01*
X146428281Y-47342904D01*
X146416870Y-47353782D01*
X146037500Y-47440793D01*
X146037500Y-47536781D01*
X146372356Y-47460027D01*
X146408077Y-47452517D01*
X146445265Y-47447576D01*
X146446179Y-47447571D01*
X146482103Y-47455144D01*
X146484830Y-47457463D01*
X146494683Y-47493055D01*
X146494722Y-47496664D01*
X146490326Y-47525423D01*
X146482998Y-47552718D01*
X146516887Y-47545024D01*
X146532139Y-47509336D01*
X146544364Y-47473949D01*
X146552280Y-47437104D01*
X146553340Y-47420826D01*
X146547033Y-47384184D01*
X146530992Y-47362758D01*
X146496631Y-47347216D01*
X146469626Y-47344073D01*
X146469626Y-47340959D01*
X146491793Y-47310337D01*
X146512343Y-47279167D01*
X146531337Y-47245731D01*
X146532641Y-47243140D01*
X146546043Y-47207777D01*
X146552613Y-47168666D01*
X146553340Y-47149351D01*
X146548624Y-47112732D01*
X146531462Y-47079346D01*
X146524764Y-47072048D01*
X146491883Y-47051165D01*
X146455749Y-47044313D01*
X146450026Y-47044204D01*
X146417236Y-47047135D01*
X146380649Y-47053553D01*
X146370525Y-47056111D01*
X146205661Y-47099342D01*
X146169077Y-47108043D01*
X146167742Y-47108318D01*
X146134769Y-47112714D01*
X146098612Y-47103585D01*
X146094836Y-47099891D01*
X146084557Y-47064649D01*
X146084394Y-47057576D01*
X146088241Y-47029366D01*
X146096118Y-47001339D01*
G37*
G36*
X146459110Y-46497783D02*
G01*
X146494543Y-46508582D01*
X146523665Y-46533126D01*
X146525491Y-46535396D01*
X146542879Y-46568497D01*
X146550993Y-46604347D01*
X146553340Y-46643035D01*
X146553227Y-46651348D01*
X146549245Y-46691584D01*
X146539574Y-46729602D01*
X146524214Y-46765401D01*
X146520525Y-46772249D01*
X146499931Y-46804470D01*
X146475760Y-46833328D01*
X146448011Y-46858824D01*
X146441927Y-46863650D01*
X146410350Y-46885571D01*
X146376840Y-46903807D01*
X146341399Y-46918358D01*
X146334094Y-46920820D01*
X146296885Y-46930748D01*
X146258532Y-46936705D01*
X146219033Y-46938691D01*
X146180577Y-46936386D01*
X146141565Y-46928105D01*
X146107820Y-46913803D01*
X146076151Y-46890514D01*
X146054112Y-46863735D01*
X146036845Y-46827177D01*
X146028186Y-46788963D01*
X146025776Y-46751113D01*
X146026719Y-46730449D01*
X146033174Y-46693841D01*
X146045743Y-46657986D01*
X146064427Y-46622885D01*
X146082582Y-46596788D01*
X146109582Y-46566144D01*
X146137036Y-46541655D01*
X146167742Y-46519754D01*
X146189907Y-46549063D01*
X146162392Y-46570611D01*
X146134351Y-46597262D01*
X146110772Y-46626732D01*
X146100494Y-46644541D01*
X146088104Y-46680685D01*
X146084394Y-46717590D01*
X146087027Y-46744964D01*
X146100852Y-46779457D01*
X146126526Y-46806067D01*
X146137649Y-46813108D01*
X146174316Y-46827630D01*
X146210950Y-46834231D01*
X146248525Y-46836109D01*
X146248937Y-46832995D01*
X146283696Y-46832995D01*
X146308228Y-46828916D01*
X146348666Y-46818900D01*
X146385931Y-46805219D01*
X146420023Y-46787875D01*
X146450942Y-46766866D01*
X146466698Y-46753623D01*
X146491909Y-46726260D01*
X146511604Y-46690414D01*
X146518169Y-46652744D01*
X146516521Y-46631678D01*
X146509010Y-46612077D01*
X146491974Y-46597606D01*
X146460650Y-46591927D01*
X146451901Y-46592111D01*
X146414054Y-46597821D01*
X146378951Y-46612810D01*
X146370582Y-46618371D01*
X146342664Y-46645293D01*
X146322897Y-46676374D01*
X146320997Y-46680167D01*
X146307499Y-46714892D01*
X146298168Y-46751662D01*
X146297016Y-46757282D01*
X146289879Y-46794618D01*
X146283696Y-46832995D01*
X146248937Y-46832995D01*
X146252819Y-46803639D01*
X146258815Y-46766156D01*
X146266294Y-46728032D01*
X146272018Y-46703565D01*
X146282151Y-46667166D01*
X146294138Y-46631128D01*
X146295584Y-46627071D01*
X146309969Y-46593297D01*
X146330897Y-46558707D01*
X146355504Y-46531477D01*
X146375768Y-46516491D01*
X146409686Y-46502039D01*
X146447827Y-46497222D01*
X146459110Y-46497783D01*
G37*
G36*
X146834708Y-45862130D02*
G01*
X146822984Y-46070774D01*
X146787814Y-46078101D01*
X146787563Y-46075887D01*
X146784150Y-46038900D01*
X146778105Y-46004829D01*
X146763450Y-45984129D01*
X146735240Y-45976618D01*
X146718204Y-45977901D01*
X146696589Y-45982297D01*
X146521467Y-46022414D01*
X146532361Y-46044638D01*
X146543998Y-46080116D01*
X146550704Y-46113038D01*
X146553340Y-46150642D01*
X146553313Y-46154346D01*
X146549425Y-46194459D01*
X146540180Y-46229911D01*
X146525497Y-46264398D01*
X146521973Y-46271115D01*
X146502356Y-46302874D01*
X146479411Y-46331593D01*
X146453140Y-46357271D01*
X146447295Y-46362174D01*
X146416526Y-46384714D01*
X146383181Y-46403962D01*
X146347260Y-46419919D01*
X146339801Y-46422692D01*
X146301966Y-46433873D01*
X146263236Y-46440581D01*
X146223613Y-46442817D01*
X146190618Y-46441323D01*
X146150833Y-46434683D01*
X146111823Y-46420862D01*
X146078899Y-46400319D01*
X146069405Y-46392067D01*
X146044504Y-46360468D01*
X146029978Y-46322572D01*
X146025776Y-46283082D01*
X146026257Y-46268473D01*
X146031164Y-46243515D01*
X146084394Y-46243515D01*
X146084911Y-46256017D01*
X146095202Y-46291509D01*
X146097332Y-46294802D01*
X146125061Y-46319169D01*
X146132808Y-46322846D01*
X146169207Y-46333274D01*
X146186445Y-46335256D01*
X146224162Y-46336755D01*
X146258702Y-46335252D01*
X146296613Y-46330128D01*
X146334438Y-46321367D01*
X146357798Y-46314073D01*
X146394296Y-46299325D01*
X146428777Y-46280151D01*
X146441087Y-46271535D01*
X146469368Y-46247249D01*
X146493806Y-46218053D01*
X146495305Y-46215839D01*
X146512079Y-46181645D01*
X146518169Y-46143131D01*
X146517964Y-46135234D01*
X146509743Y-46098618D01*
X146488677Y-46067843D01*
X146463581Y-46050990D01*
X146434822Y-46043114D01*
X146159499Y-46107960D01*
X146147108Y-46120489D01*
X146122297Y-46149100D01*
X146101064Y-46181966D01*
X146090906Y-46206163D01*
X146084394Y-46243515D01*
X146031164Y-46243515D01*
X146033469Y-46231791D01*
X146038319Y-46219740D01*
X146055451Y-46186179D01*
X146059758Y-46178887D01*
X146081097Y-46148627D01*
X146104911Y-46119317D01*
X146104911Y-46115654D01*
X146077425Y-46112588D01*
X146045010Y-46093855D01*
X146031862Y-46071746D01*
X146025776Y-46034870D01*
X146026563Y-46019346D01*
X146033836Y-45982297D01*
X146034340Y-45980508D01*
X146046639Y-45945660D01*
X146062046Y-45910673D01*
X146096118Y-45902979D01*
X146088058Y-45930823D01*
X146084394Y-45958667D01*
X146084488Y-45964014D01*
X146095019Y-46000432D01*
X146098795Y-46003968D01*
X146134952Y-46012705D01*
X146168292Y-46008309D01*
X146171020Y-46007761D01*
X146207309Y-45999883D01*
X146827015Y-45857001D01*
X146834708Y-45862130D01*
G37*
G36*
X146391392Y-45075658D02*
G01*
X146430146Y-45082670D01*
X146468326Y-45097265D01*
X146500767Y-45118960D01*
X146518634Y-45136962D01*
X146538503Y-45168360D01*
X146550055Y-45205032D01*
X146553340Y-45242058D01*
X146549402Y-45276038D01*
X146537587Y-45310935D01*
X146526711Y-45331691D01*
X146505944Y-45362070D01*
X146480617Y-45392634D01*
X146480617Y-45394649D01*
X146826831Y-45316247D01*
X146834708Y-45321376D01*
X146822984Y-45512618D01*
X146787814Y-45519762D01*
X146784150Y-45486423D01*
X146778105Y-45459129D01*
X146763084Y-45441543D01*
X146734691Y-45435315D01*
X146717655Y-45437147D01*
X146697505Y-45441543D01*
X146120115Y-45574351D01*
X146112618Y-45569433D01*
X146083112Y-45545591D01*
X146074085Y-45535886D01*
X146053253Y-45505291D01*
X146043860Y-45484428D01*
X146033286Y-45447955D01*
X146032377Y-45443678D01*
X146027213Y-45406526D01*
X146025962Y-45374499D01*
X146060947Y-45374499D01*
X146060970Y-45377187D01*
X146066992Y-45414249D01*
X146084760Y-45446673D01*
X146105826Y-45466273D01*
X146128175Y-45475432D01*
X146427494Y-45406922D01*
X146450392Y-45380910D01*
X146472557Y-45351784D01*
X146488677Y-45318811D01*
X146494722Y-45284923D01*
X146494024Y-45270337D01*
X146483548Y-45233998D01*
X146479912Y-45227744D01*
X146453323Y-45201392D01*
X146443694Y-45196125D01*
X146408077Y-45185272D01*
X146391265Y-45182663D01*
X146354405Y-45180326D01*
X146319604Y-45181685D01*
X146281860Y-45186321D01*
X146244678Y-45194248D01*
X146218564Y-45202102D01*
X146181753Y-45217231D01*
X146147775Y-45236379D01*
X146138049Y-45242994D01*
X146108066Y-45268625D01*
X146084394Y-45298112D01*
X146081555Y-45302596D01*
X146066099Y-45337461D01*
X146060947Y-45374499D01*
X146025962Y-45374499D01*
X146025776Y-45369736D01*
X146028334Y-45333690D01*
X146037057Y-45295403D01*
X146051971Y-45258545D01*
X146055321Y-45252015D01*
X146074348Y-45220634D01*
X146097167Y-45191365D01*
X146123778Y-45164206D01*
X146129431Y-45159185D01*
X146159671Y-45135947D01*
X146193201Y-45115822D01*
X146230024Y-45098810D01*
X146249458Y-45091685D01*
X146285162Y-45081905D01*
X146321792Y-45076036D01*
X146359351Y-45074080D01*
X146391392Y-45075658D01*
G37*
G36*
X146111688Y-44671812D02*
G01*
X146111688Y-44674926D01*
X146088297Y-44704132D01*
X146066451Y-44735224D01*
X146048674Y-44765235D01*
X146033848Y-44801879D01*
X146026872Y-44839192D01*
X146025776Y-44862505D01*
X146030522Y-44899304D01*
X146047795Y-44933350D01*
X146054535Y-44940907D01*
X146085442Y-44961550D01*
X146121406Y-44969414D01*
X146130006Y-44969666D01*
X146159499Y-44967651D01*
X146196466Y-44961037D01*
X146210423Y-44957943D01*
X146372356Y-44917643D01*
X146408581Y-44909668D01*
X146413023Y-44908850D01*
X146446545Y-44905736D01*
X146483057Y-44913559D01*
X146485013Y-44915261D01*
X146494684Y-44950670D01*
X146494722Y-44954279D01*
X146490143Y-44983039D01*
X146482998Y-45010333D01*
X146516338Y-45002639D01*
X146531539Y-44967122D01*
X146543998Y-44931931D01*
X146552428Y-44895417D01*
X146553340Y-44882655D01*
X146548015Y-44844912D01*
X146534473Y-44821655D01*
X146501823Y-44804048D01*
X146478236Y-44801688D01*
X146452590Y-44803886D01*
X146420350Y-44809931D01*
X146229841Y-44856826D01*
X146193797Y-44864680D01*
X146188991Y-44865619D01*
X146160048Y-44869282D01*
X146123667Y-44863406D01*
X146104727Y-44852613D01*
X146086003Y-44820343D01*
X146084394Y-44803337D01*
X146089294Y-44766105D01*
X146103995Y-44729881D01*
X146125590Y-44697227D01*
X146151556Y-44668567D01*
X146157850Y-44662653D01*
X146547112Y-44577107D01*
X146553340Y-44488080D01*
X146545464Y-44481852D01*
X146136967Y-44570329D01*
X146098951Y-44579422D01*
X146063442Y-44589548D01*
X146025930Y-44602388D01*
X145991692Y-44616579D01*
X145983644Y-44620338D01*
X145949728Y-44638254D01*
X145916598Y-44660064D01*
X145888262Y-44683878D01*
X145880696Y-44691413D01*
X145855087Y-44721557D01*
X145834933Y-44753303D01*
X145821345Y-44783553D01*
X145810915Y-44819201D01*
X145804815Y-44858140D01*
X145803026Y-44896393D01*
X145804395Y-44933493D01*
X145809255Y-44966003D01*
X145822399Y-45000719D01*
X145826290Y-45006669D01*
X145849738Y-45026819D01*
X145875566Y-45031948D01*
X145911679Y-45020966D01*
X145914951Y-45018576D01*
X145931837Y-44984560D01*
X145931987Y-44979924D01*
X145921179Y-44947501D01*
X145897548Y-44925886D01*
X145866041Y-44908850D01*
X145838197Y-44896393D01*
X145838197Y-44884120D01*
X145843922Y-44846038D01*
X145852852Y-44822021D01*
X145873024Y-44788733D01*
X145898464Y-44761938D01*
X145928906Y-44739091D01*
X145962694Y-44719720D01*
X145984926Y-44709181D01*
X146020053Y-44695457D01*
X146055154Y-44684696D01*
X146093559Y-44675441D01*
X146111688Y-44671812D01*
G37*
G36*
X146076700Y-43528756D02*
G01*
X146087325Y-43562278D01*
X146110406Y-43591587D01*
X146125187Y-43603503D01*
X146157667Y-43623094D01*
X146165760Y-43627297D01*
X146200159Y-43645376D01*
X146234506Y-43663865D01*
X146267576Y-43682262D01*
X146282265Y-43690524D01*
X146316311Y-43709222D01*
X146352275Y-43728527D01*
X146388476Y-43747658D01*
X146393012Y-43729401D01*
X146404740Y-43691832D01*
X146419068Y-43656983D01*
X146424077Y-43646816D01*
X146444042Y-43613397D01*
X146467794Y-43583344D01*
X146473219Y-43577654D01*
X146503388Y-43552632D01*
X146536121Y-43534434D01*
X146548859Y-43529210D01*
X146586666Y-43519292D01*
X146624598Y-43516299D01*
X146652733Y-43518899D01*
X146687979Y-43532053D01*
X146708135Y-43546757D01*
X146731393Y-43575101D01*
X146744370Y-43600901D01*
X146755573Y-43636467D01*
X146757145Y-43643371D01*
X146762683Y-43679969D01*
X146764366Y-43717250D01*
X146764366Y-44046062D01*
X146729195Y-44053756D01*
X146724066Y-44019867D01*
X146716006Y-43988360D01*
X146703183Y-43972972D01*
X146684316Y-43968759D01*
X146673874Y-43969492D01*
X146663433Y-43971324D01*
X146134952Y-44094422D01*
X146103445Y-44107978D01*
X146082929Y-44136188D01*
X146076151Y-44170259D01*
X146072670Y-44206713D01*
X146037500Y-44214956D01*
X146037500Y-43905928D01*
X146072670Y-43897684D01*
X146072750Y-43899639D01*
X146076517Y-43936519D01*
X146082745Y-43967110D01*
X146096484Y-43982864D01*
X146116634Y-43987260D01*
X146124694Y-43986528D01*
X146134769Y-43984696D01*
X146365762Y-43930108D01*
X146365762Y-43853904D01*
X146353231Y-43847126D01*
X146412657Y-43847126D01*
X146412657Y-43920216D01*
X146729195Y-43847676D01*
X146729195Y-43765793D01*
X146728165Y-43744863D01*
X146719922Y-43708490D01*
X146699886Y-43675301D01*
X146690163Y-43666013D01*
X146656945Y-43648382D01*
X146618187Y-43643061D01*
X146612720Y-43643120D01*
X146576044Y-43646794D01*
X146537541Y-43657991D01*
X146502679Y-43676652D01*
X146471458Y-43702779D01*
X146445732Y-43734194D01*
X146427357Y-43768724D01*
X146416332Y-43806368D01*
X146412657Y-43847126D01*
X146353231Y-43847126D01*
X146350848Y-43845837D01*
X146316525Y-43827314D01*
X146282867Y-43809212D01*
X146249876Y-43791530D01*
X146212988Y-43771838D01*
X146179671Y-43754540D01*
X146143515Y-43736786D01*
X146110263Y-43721206D01*
X146074924Y-43705290D01*
X146037500Y-43689040D01*
X146037500Y-43504026D01*
X146072670Y-43495783D01*
X146076700Y-43528756D01*
G37*
G36*
X146459110Y-42988746D02*
G01*
X146494543Y-42999545D01*
X146523665Y-43024089D01*
X146525491Y-43026359D01*
X146542879Y-43059461D01*
X146550993Y-43095310D01*
X146553340Y-43133998D01*
X146553227Y-43142311D01*
X146549245Y-43182547D01*
X146539574Y-43220565D01*
X146524214Y-43256364D01*
X146520525Y-43263212D01*
X146499931Y-43295433D01*
X146475760Y-43324291D01*
X146448011Y-43349787D01*
X146441927Y-43354613D01*
X146410350Y-43376534D01*
X146376840Y-43394770D01*
X146341399Y-43409321D01*
X146334094Y-43411783D01*
X146296885Y-43421711D01*
X146258532Y-43427668D01*
X146219033Y-43429654D01*
X146180577Y-43427349D01*
X146141565Y-43419068D01*
X146107820Y-43404766D01*
X146076151Y-43381477D01*
X146054112Y-43354698D01*
X146036845Y-43318140D01*
X146028186Y-43279926D01*
X146025776Y-43242076D01*
X146026719Y-43221412D01*
X146033174Y-43184804D01*
X146045743Y-43148949D01*
X146064427Y-43113848D01*
X146082582Y-43087751D01*
X146109582Y-43057107D01*
X146137036Y-43032618D01*
X146167742Y-43010717D01*
X146189907Y-43040026D01*
X146162392Y-43061574D01*
X146134351Y-43088225D01*
X146110772Y-43117695D01*
X146100494Y-43135504D01*
X146088104Y-43171648D01*
X146084394Y-43208553D01*
X146087027Y-43235928D01*
X146100852Y-43270420D01*
X146126526Y-43297030D01*
X146137649Y-43304071D01*
X146174316Y-43318593D01*
X146210950Y-43325194D01*
X146248525Y-43327072D01*
X146248937Y-43323958D01*
X146283696Y-43323958D01*
X146308228Y-43319879D01*
X146348666Y-43309863D01*
X146385931Y-43296182D01*
X146420023Y-43278838D01*
X146450942Y-43257829D01*
X146466698Y-43244586D01*
X146491909Y-43217223D01*
X146511604Y-43181377D01*
X146518169Y-43143707D01*
X146516521Y-43122641D01*
X146509010Y-43103040D01*
X146491974Y-43088569D01*
X146460650Y-43082890D01*
X146451901Y-43083074D01*
X146414054Y-43088784D01*
X146378951Y-43103773D01*
X146370582Y-43109334D01*
X146342664Y-43136256D01*
X146322897Y-43167337D01*
X146320997Y-43171130D01*
X146307499Y-43205855D01*
X146298168Y-43242625D01*
X146297016Y-43248245D01*
X146289879Y-43285581D01*
X146283696Y-43323958D01*
X146248937Y-43323958D01*
X146252819Y-43294602D01*
X146258815Y-43257119D01*
X146266294Y-43218995D01*
X146272018Y-43194528D01*
X146282151Y-43158129D01*
X146294138Y-43122091D01*
X146295584Y-43118034D01*
X146309969Y-43084260D01*
X146330897Y-43049670D01*
X146355504Y-43022440D01*
X146375768Y-43007454D01*
X146409686Y-42993002D01*
X146447827Y-42988185D01*
X146459110Y-42988746D01*
G37*
G36*
X146025776Y-42740706D02*
G01*
X146028256Y-42778330D01*
X146037167Y-42816907D01*
X146052557Y-42850767D01*
X146077616Y-42883222D01*
X146106353Y-42906062D01*
X146140539Y-42922377D01*
X146180175Y-42932166D01*
X146219327Y-42935378D01*
X146225261Y-42935429D01*
X146264470Y-42933497D01*
X146302641Y-42927701D01*
X146339775Y-42918041D01*
X146347077Y-42915645D01*
X146382215Y-42901645D01*
X146414812Y-42884604D01*
X146447735Y-42862347D01*
X146450575Y-42860141D01*
X146479734Y-42833479D01*
X146504996Y-42802359D01*
X146524581Y-42770198D01*
X146539747Y-42735032D01*
X146549296Y-42697541D01*
X146553228Y-42657724D01*
X146553340Y-42649481D01*
X146550863Y-42610767D01*
X146542297Y-42574346D01*
X146523943Y-42539801D01*
X146522016Y-42537374D01*
X146494024Y-42512467D01*
X146457859Y-42499845D01*
X146443431Y-42498906D01*
X146406028Y-42504238D01*
X146380783Y-42515758D01*
X146357198Y-42544895D01*
X146354038Y-42565950D01*
X146363229Y-42602006D01*
X146367960Y-42607716D01*
X146399284Y-42621638D01*
X146435842Y-42613552D01*
X146444530Y-42610280D01*
X146479045Y-42596829D01*
X146491242Y-42592145D01*
X146511575Y-42617424D01*
X146518111Y-42654154D01*
X146518169Y-42658091D01*
X146511808Y-42696019D01*
X146492725Y-42730876D01*
X146465082Y-42759280D01*
X146437752Y-42778991D01*
X146400915Y-42798762D01*
X146366577Y-42811844D01*
X146329688Y-42821358D01*
X146290250Y-42827305D01*
X146248261Y-42829683D01*
X146241015Y-42829733D01*
X146202868Y-42827153D01*
X146165988Y-42818238D01*
X146132115Y-42801075D01*
X146126709Y-42797126D01*
X146100923Y-42769314D01*
X146087039Y-42735062D01*
X146084394Y-42708649D01*
X146088929Y-42669861D01*
X146102533Y-42634762D01*
X146111871Y-42619806D01*
X146135811Y-42591032D01*
X146163368Y-42565516D01*
X146189907Y-42545251D01*
X146167742Y-42515942D01*
X146136516Y-42537960D01*
X146107753Y-42564035D01*
X146081454Y-42594168D01*
X146067908Y-42612662D01*
X146047541Y-42647452D01*
X146033840Y-42683199D01*
X146026804Y-42719902D01*
X146025776Y-42740706D01*
G37*
G36*
X146025776Y-42307114D02*
G01*
X146027877Y-42347964D01*
X146034180Y-42384787D01*
X146046112Y-42420976D01*
X146052337Y-42434059D01*
X146074714Y-42464980D01*
X146106681Y-42483017D01*
X146122313Y-42484801D01*
X146157061Y-42472615D01*
X146160415Y-42469963D01*
X146178027Y-42437321D01*
X146178183Y-42433326D01*
X146168658Y-42399987D01*
X146146493Y-42380204D01*
X146114619Y-42366648D01*
X146084577Y-42356573D01*
X146068274Y-42335324D01*
X146060975Y-42298938D01*
X146060947Y-42295757D01*
X146064837Y-42257804D01*
X146079207Y-42223162D01*
X146088607Y-42211493D01*
X146121168Y-42190061D01*
X146157698Y-42183028D01*
X146163529Y-42182916D01*
X146199669Y-42192410D01*
X146218667Y-42209844D01*
X146238405Y-42243138D01*
X146253295Y-42279833D01*
X146256585Y-42289528D01*
X146270641Y-42324961D01*
X146275087Y-42334408D01*
X146293939Y-42366143D01*
X146301831Y-42375624D01*
X146330820Y-42400172D01*
X146340300Y-42405483D01*
X146376758Y-42415942D01*
X146393239Y-42416840D01*
X146432165Y-42411080D01*
X146467657Y-42393799D01*
X146496663Y-42368397D01*
X146505713Y-42357855D01*
X146526550Y-42326669D01*
X146541434Y-42292093D01*
X146550364Y-42254129D01*
X146553340Y-42212775D01*
X146551657Y-42175449D01*
X146551142Y-42169727D01*
X146543792Y-42132255D01*
X146539419Y-42118620D01*
X146521867Y-42086368D01*
X146513956Y-42077404D01*
X146480040Y-42060967D01*
X146470359Y-42060368D01*
X146435156Y-42071307D01*
X146430608Y-42074656D01*
X146412814Y-42107593D01*
X146412657Y-42111842D01*
X146421449Y-42143349D01*
X146445080Y-42163866D01*
X146476953Y-42177421D01*
X146510476Y-42188595D01*
X146516521Y-42206181D01*
X146518169Y-42226697D01*
X146513725Y-42263724D01*
X146496054Y-42298174D01*
X146491242Y-42303267D01*
X146459787Y-42323563D01*
X146427311Y-42329279D01*
X146391245Y-42321013D01*
X146373639Y-42305832D01*
X146354151Y-42272285D01*
X146339897Y-42238209D01*
X146336270Y-42228346D01*
X146321780Y-42191924D01*
X146304320Y-42158594D01*
X146281479Y-42128515D01*
X146279483Y-42126496D01*
X146248523Y-42104833D01*
X146211743Y-42095301D01*
X146200165Y-42094806D01*
X146163311Y-42098573D01*
X146126148Y-42111815D01*
X146093534Y-42134591D01*
X146074319Y-42155073D01*
X146053081Y-42187175D01*
X146037912Y-42223217D01*
X146028810Y-42263196D01*
X146025823Y-42301409D01*
X146025776Y-42307114D01*
G37*
G36*
X146096118Y-41449455D02*
G01*
X146062229Y-41457149D01*
X146048473Y-41491418D01*
X146035686Y-41526014D01*
X146034569Y-41529323D01*
X146026471Y-41566641D01*
X146025776Y-41581346D01*
X146031825Y-41619348D01*
X146047208Y-41643262D01*
X146079677Y-41661354D01*
X146100148Y-41663778D01*
X146125244Y-41661763D01*
X146157667Y-41655169D01*
X146350558Y-41604610D01*
X146387272Y-41596274D01*
X146390675Y-41595635D01*
X146419801Y-41592154D01*
X146457425Y-41598594D01*
X146474572Y-41608640D01*
X146493128Y-41640667D01*
X146494722Y-41657733D01*
X146488404Y-41695465D01*
X146474755Y-41728258D01*
X146453848Y-41761648D01*
X146428281Y-41791019D01*
X146416870Y-41801898D01*
X146037500Y-41888909D01*
X146037500Y-41984897D01*
X146372356Y-41908143D01*
X146408077Y-41900633D01*
X146445265Y-41895692D01*
X146446179Y-41895687D01*
X146482103Y-41903260D01*
X146484830Y-41905579D01*
X146494683Y-41941170D01*
X146494722Y-41944780D01*
X146490326Y-41973539D01*
X146482998Y-42000833D01*
X146516887Y-41993140D01*
X146532139Y-41957451D01*
X146544364Y-41922065D01*
X146552280Y-41885220D01*
X146553340Y-41868942D01*
X146547033Y-41832300D01*
X146530992Y-41810874D01*
X146496631Y-41795332D01*
X146469626Y-41792189D01*
X146469626Y-41789075D01*
X146491793Y-41758453D01*
X146512343Y-41727283D01*
X146531337Y-41693847D01*
X146532641Y-41691256D01*
X146546043Y-41655893D01*
X146552613Y-41616782D01*
X146553340Y-41597466D01*
X146548624Y-41560848D01*
X146531462Y-41527462D01*
X146524764Y-41520163D01*
X146491883Y-41499281D01*
X146455749Y-41492429D01*
X146450026Y-41492320D01*
X146417236Y-41495251D01*
X146380649Y-41501668D01*
X146370525Y-41504227D01*
X146205661Y-41547458D01*
X146169077Y-41556159D01*
X146167742Y-41556434D01*
X146134769Y-41560830D01*
X146098612Y-41551701D01*
X146094836Y-41548007D01*
X146084557Y-41512765D01*
X146084394Y-41505692D01*
X146088241Y-41477482D01*
X146096118Y-41449455D01*
G37*
G36*
X146096118Y-41138412D02*
G01*
X146061496Y-41146106D01*
X146047269Y-41181510D01*
X146035236Y-41216452D01*
X146033653Y-41221943D01*
X146026399Y-41258331D01*
X146025776Y-41270303D01*
X146031773Y-41308305D01*
X146047025Y-41332219D01*
X146079175Y-41350311D01*
X146099415Y-41352735D01*
X146123961Y-41350720D01*
X146156385Y-41343942D01*
X146373822Y-41289354D01*
X146409736Y-41281959D01*
X146412290Y-41281477D01*
X146447095Y-41277630D01*
X146483274Y-41285454D01*
X146485197Y-41287156D01*
X146494713Y-41324178D01*
X146494722Y-41325990D01*
X146490326Y-41356215D01*
X146482998Y-41384792D01*
X146516887Y-41377098D01*
X146532139Y-41341168D01*
X146544364Y-41304924D01*
X146552280Y-41268688D01*
X146553340Y-41254366D01*
X146548349Y-41217867D01*
X146533374Y-41193000D01*
X146499425Y-41175810D01*
X146479701Y-41173949D01*
X146454605Y-41176147D01*
X146422915Y-41182192D01*
X146205661Y-41237513D01*
X146168867Y-41246004D01*
X146166460Y-41246489D01*
X146134952Y-41250336D01*
X146098843Y-41240947D01*
X146095019Y-41237147D01*
X146084560Y-41201724D01*
X146084394Y-41194649D01*
X146087875Y-41166439D01*
X146096118Y-41138412D01*
G37*
G36*
X146744583Y-41101959D02*
G01*
X146708868Y-41110163D01*
X146692742Y-41121010D01*
X146672330Y-41153222D01*
X146670577Y-41168454D01*
X146682427Y-41203728D01*
X146691643Y-41213700D01*
X146725048Y-41231244D01*
X146739820Y-41232751D01*
X146775814Y-41223746D01*
X146789829Y-41213700D01*
X146809566Y-41182623D01*
X146811261Y-41168454D01*
X146800851Y-41131737D01*
X146791111Y-41120460D01*
X146757451Y-41103115D01*
X146744583Y-41101959D01*
G37*
G36*
X146498019Y-40558457D02*
G01*
X146462987Y-40570187D01*
X146455521Y-40576226D01*
X146437033Y-40609133D01*
X146436104Y-40620190D01*
X146440683Y-40653712D01*
X146454209Y-40688577D01*
X146454788Y-40689799D01*
X146434483Y-40722321D01*
X146415404Y-40748417D01*
X146391340Y-40777789D01*
X146366838Y-40805198D01*
X146358618Y-40813996D01*
X146321970Y-40799903D01*
X146284874Y-40785389D01*
X146248788Y-40770927D01*
X146232772Y-40764354D01*
X146198588Y-40749817D01*
X146165024Y-40735006D01*
X146152721Y-40729366D01*
X146119886Y-40709903D01*
X146099049Y-40688517D01*
X146085553Y-40653951D01*
X146084394Y-40639241D01*
X146088241Y-40605352D01*
X146096118Y-40571830D01*
X146060397Y-40579523D01*
X146045965Y-40615102D01*
X146033843Y-40651318D01*
X146032920Y-40654811D01*
X146026474Y-40692600D01*
X146025776Y-40709949D01*
X146032931Y-40747444D01*
X146044094Y-40766369D01*
X146072127Y-40790765D01*
X146104866Y-40808723D01*
X146110772Y-40811432D01*
X146145188Y-40826587D01*
X146179191Y-40840455D01*
X146201631Y-40848984D01*
X146237279Y-40862289D01*
X146273844Y-40876414D01*
X146286444Y-40881407D01*
X146234603Y-40941674D01*
X146037500Y-40986004D01*
X146037500Y-41081809D01*
X146697138Y-40928852D01*
X146719120Y-40923906D01*
X146734508Y-40922623D01*
X146762901Y-40928852D01*
X146778105Y-40946437D01*
X146784150Y-40973731D01*
X146787814Y-41007070D01*
X146822984Y-40999926D01*
X146834708Y-40808867D01*
X146827015Y-40803738D01*
X146289558Y-40929401D01*
X146289558Y-40927386D01*
X146316401Y-40902409D01*
X146345103Y-40875109D01*
X146371699Y-40849138D01*
X146399101Y-40821507D01*
X146425404Y-40794369D01*
X146451967Y-40766535D01*
X146478791Y-40738006D01*
X146493806Y-40721856D01*
X146518071Y-40694212D01*
X146539890Y-40664420D01*
X146540701Y-40663054D01*
X146552736Y-40627379D01*
X146553340Y-40616709D01*
X146543545Y-40580738D01*
X146538503Y-40574394D01*
X146504262Y-40558706D01*
X146498019Y-40558457D01*
G37*
G36*
X146658604Y-39636911D02*
G01*
X146694024Y-39650607D01*
X146713198Y-39665611D01*
X146735240Y-39694937D01*
X146746735Y-39718550D01*
X146757772Y-39755020D01*
X146762505Y-39785777D01*
X146764366Y-39823164D01*
X146764366Y-40145748D01*
X146729195Y-40153991D01*
X146724249Y-40123033D01*
X146712342Y-40091160D01*
X146698787Y-40075956D01*
X146680286Y-40071559D01*
X146670211Y-40072292D01*
X146660319Y-40074124D01*
X146134952Y-40196306D01*
X146104544Y-40210045D01*
X146084944Y-40237522D01*
X146077067Y-40273060D01*
X146072670Y-40310245D01*
X146037500Y-40318489D01*
X146037500Y-39989127D01*
X146072670Y-39989127D01*
X146074914Y-40023278D01*
X146084394Y-40058736D01*
X146089374Y-40068012D01*
X146122862Y-40086031D01*
X146134586Y-40085298D01*
X146148691Y-40082916D01*
X146398918Y-40024665D01*
X146400200Y-39989677D01*
X146400647Y-39970941D01*
X146400805Y-39950476D01*
X146436104Y-39950476D01*
X146436104Y-40014956D01*
X146726997Y-39949560D01*
X146728279Y-39914206D01*
X146729195Y-39876287D01*
X146729124Y-39870686D01*
X146724616Y-39833239D01*
X146723733Y-39829390D01*
X146709228Y-39795504D01*
X146706961Y-39792374D01*
X146677904Y-39768759D01*
X146667669Y-39764431D01*
X146630643Y-39758867D01*
X146593935Y-39761202D01*
X146557004Y-39769492D01*
X146527372Y-39782340D01*
X146495638Y-39804296D01*
X146471366Y-39830034D01*
X146452407Y-39863281D01*
X146447710Y-39875118D01*
X146438794Y-39911783D01*
X146436104Y-39950476D01*
X146400805Y-39950476D01*
X146400933Y-39933989D01*
X146398455Y-39898742D01*
X146388697Y-39862076D01*
X146369609Y-39830125D01*
X146354782Y-39815636D01*
X146321294Y-39798168D01*
X146283513Y-39792939D01*
X146248296Y-39795778D01*
X146212622Y-39804296D01*
X146178138Y-39818356D01*
X146146493Y-39837819D01*
X146140708Y-39842183D01*
X146114441Y-39868209D01*
X146093920Y-39898818D01*
X146085640Y-39916226D01*
X146075659Y-39952041D01*
X146072670Y-39989127D01*
X146037500Y-39989127D01*
X146037500Y-39961467D01*
X146038370Y-39934814D01*
X146042938Y-39895521D01*
X146051421Y-39857053D01*
X146059355Y-39832083D01*
X146074906Y-39796131D01*
X146094836Y-39761981D01*
X146109513Y-39742266D01*
X146135393Y-39716043D01*
X146165910Y-39693838D01*
X146191698Y-39680732D01*
X146229372Y-39669930D01*
X146267210Y-39666727D01*
X146298996Y-39670022D01*
X146333888Y-39683946D01*
X146355086Y-39699599D01*
X146379867Y-39728459D01*
X146393636Y-39752251D01*
X146407527Y-39786345D01*
X146414862Y-39811909D01*
X146421449Y-39848077D01*
X146425662Y-39848077D01*
X146426658Y-39843180D01*
X146436267Y-39806684D01*
X146449659Y-39770591D01*
X146451753Y-39765814D01*
X146469554Y-39731993D01*
X146491058Y-39701714D01*
X146492592Y-39699859D01*
X146520150Y-39673195D01*
X146551142Y-39653354D01*
X146557972Y-39650015D01*
X146595069Y-39638246D01*
X146634124Y-39634670D01*
X146658604Y-39636911D01*
G37*
G36*
X146095568Y-39410821D02*
G01*
X146059755Y-39420692D01*
X146046109Y-39431704D01*
X146027762Y-39464141D01*
X146025776Y-39481346D01*
X146035386Y-39517333D01*
X146046109Y-39531172D01*
X146078302Y-39550015D01*
X146095568Y-39552055D01*
X146131555Y-39542184D01*
X146145394Y-39531172D01*
X146164403Y-39498648D01*
X146166460Y-39481346D01*
X146156503Y-39445525D01*
X146145394Y-39431704D01*
X146112870Y-39412861D01*
X146095568Y-39410821D01*
G37*
G36*
X146506446Y-38563421D02*
G01*
X146471275Y-38571664D01*
X146465417Y-38547212D01*
X146453872Y-38512313D01*
X146431524Y-38491430D01*
X146397819Y-38499490D01*
X146386048Y-38504442D01*
X146352939Y-38521838D01*
X146348185Y-38524673D01*
X146316669Y-38544278D01*
X146284429Y-38566168D01*
X146282551Y-38567524D01*
X146252251Y-38590582D01*
X146223429Y-38614528D01*
X146235753Y-38622224D01*
X146270579Y-38643689D01*
X146302188Y-38662719D01*
X146336453Y-38682672D01*
X146351583Y-38691149D01*
X146385386Y-38709846D01*
X146419846Y-38728662D01*
X146453689Y-38746969D01*
X146463343Y-38727243D01*
X146482457Y-38691231D01*
X146504431Y-38655012D01*
X146526054Y-38625034D01*
X146553340Y-38595661D01*
X146559403Y-38590448D01*
X146591603Y-38569428D01*
X146626951Y-38556817D01*
X146665448Y-38552613D01*
X146692341Y-38555063D01*
X146727057Y-38567926D01*
X146755024Y-38591814D01*
X146770874Y-38615487D01*
X146783939Y-38652101D01*
X146787814Y-38690732D01*
X146787759Y-38695745D01*
X146783884Y-38733253D01*
X146773892Y-38770600D01*
X146773011Y-38773072D01*
X146757359Y-38807236D01*
X146735607Y-38837644D01*
X146707305Y-38863473D01*
X146674057Y-38883440D01*
X146667320Y-38886484D01*
X146631412Y-38897215D01*
X146594556Y-38900476D01*
X146560379Y-38897578D01*
X146523299Y-38887287D01*
X146514612Y-38883826D01*
X146479028Y-38867944D01*
X146444347Y-38850467D01*
X146440646Y-38857462D01*
X146422062Y-38890728D01*
X146399585Y-38926880D01*
X146376914Y-38958923D01*
X146350220Y-38991114D01*
X146323264Y-39017712D01*
X146291172Y-39041434D01*
X146256814Y-39058379D01*
X146220189Y-39068545D01*
X146181297Y-39071934D01*
X146157927Y-39070682D01*
X146119828Y-39062117D01*
X146086830Y-39045437D01*
X146058932Y-39020643D01*
X146043680Y-39000462D01*
X146026718Y-38966641D01*
X146016857Y-38928560D01*
X146014052Y-38891133D01*
X146015624Y-38865213D01*
X146021334Y-38839110D01*
X146084394Y-38839110D01*
X146085650Y-38859503D01*
X146096987Y-38897503D01*
X146120115Y-38927037D01*
X146142310Y-38942091D01*
X146178125Y-38954498D01*
X146217201Y-38958178D01*
X146225011Y-38958051D01*
X146262728Y-38953619D01*
X146298226Y-38942853D01*
X146331507Y-38925755D01*
X146337887Y-38921599D01*
X146367468Y-38897728D01*
X146393185Y-38868705D01*
X146415038Y-38834530D01*
X146396261Y-38824572D01*
X146362169Y-38806085D01*
X146327701Y-38786873D01*
X146292855Y-38766936D01*
X146285002Y-38762356D01*
X146483182Y-38762356D01*
X146488236Y-38764954D01*
X146522016Y-38781133D01*
X146557187Y-38795329D01*
X146586289Y-38803469D01*
X146623499Y-38807236D01*
X146635372Y-38806770D01*
X146673499Y-38797789D01*
X146706297Y-38777377D01*
X146716271Y-38767577D01*
X146735205Y-38735139D01*
X146740919Y-38698426D01*
X146738430Y-38674708D01*
X146719853Y-38641090D01*
X146698230Y-38627441D01*
X146661051Y-38621123D01*
X146633471Y-38623207D01*
X146595492Y-38634146D01*
X146561584Y-38654462D01*
X146548512Y-38665839D01*
X146523282Y-38694683D01*
X146501614Y-38727586D01*
X146483182Y-38762356D01*
X146285002Y-38762356D01*
X146261153Y-38748446D01*
X146228329Y-38729063D01*
X146194384Y-38708787D01*
X146159316Y-38687618D01*
X146148595Y-38698061D01*
X146124321Y-38726509D01*
X146103995Y-38759242D01*
X146101621Y-38764084D01*
X146088701Y-38801033D01*
X146084394Y-38839110D01*
X146021334Y-38839110D01*
X146023578Y-38828852D01*
X146034349Y-38800526D01*
X146051421Y-38768035D01*
X146066221Y-38744212D01*
X146089157Y-38714180D01*
X146105771Y-38695515D01*
X146130922Y-38668018D01*
X146037500Y-38609399D01*
X146037500Y-38411563D01*
X146072670Y-38402770D01*
X146074929Y-38426171D01*
X146081646Y-38462854D01*
X146086425Y-38481541D01*
X146101796Y-38516526D01*
X146111584Y-38528984D01*
X146139166Y-38554811D01*
X146164335Y-38573723D01*
X146195586Y-38594378D01*
X146202361Y-38587976D01*
X146231794Y-38562487D01*
X146262447Y-38538508D01*
X146269982Y-38532873D01*
X146299771Y-38510802D01*
X146330041Y-38488866D01*
X146359173Y-38468149D01*
X146390858Y-38445635D01*
X146399936Y-38439021D01*
X146428410Y-38414677D01*
X146447486Y-38388187D01*
X146460833Y-38353494D01*
X146465474Y-38332782D01*
X146471275Y-38296158D01*
X146506446Y-38287915D01*
X146506446Y-38563421D01*
G37*
G36*
X146014052Y-37757419D02*
G01*
X146016390Y-37795346D01*
X146023403Y-37831801D01*
X146033836Y-37863665D01*
X146051250Y-37899342D01*
X146073815Y-37931362D01*
X146091721Y-37950676D01*
X146120095Y-37974693D01*
X146152321Y-37994857D01*
X146184961Y-38009844D01*
X146220553Y-38021050D01*
X146258864Y-38028105D01*
X146295668Y-38030907D01*
X146308426Y-38031093D01*
X146350911Y-38029516D01*
X146392134Y-38024782D01*
X146432095Y-38016893D01*
X146470794Y-38005849D01*
X146492341Y-37998121D01*
X146528891Y-37982512D01*
X146563687Y-37964536D01*
X146596731Y-37944194D01*
X146628021Y-37921485D01*
X146645115Y-37907445D01*
X146672106Y-37882013D01*
X146696661Y-37854441D01*
X146718779Y-37824731D01*
X146738460Y-37792882D01*
X146748613Y-37773722D01*
X146763887Y-37739249D01*
X146775410Y-37704109D01*
X146783181Y-37668303D01*
X146787201Y-37631831D01*
X146787814Y-37610690D01*
X146786186Y-37572025D01*
X146780635Y-37533006D01*
X146771144Y-37497667D01*
X146757508Y-37463544D01*
X146738735Y-37429854D01*
X146729745Y-37417433D01*
X146764366Y-37388674D01*
X146764366Y-37347458D01*
X146506446Y-37402962D01*
X146506446Y-37445277D01*
X146526962Y-37445277D01*
X146565444Y-37446766D01*
X146602235Y-37451234D01*
X146607013Y-37452055D01*
X146643283Y-37461763D01*
X146675889Y-37477700D01*
X146704007Y-37501235D01*
X146723150Y-37528442D01*
X146736477Y-37565124D01*
X146740849Y-37604509D01*
X146740919Y-37610690D01*
X146737556Y-37649427D01*
X146727466Y-37686410D01*
X146710651Y-37721641D01*
X146706481Y-37728476D01*
X146682817Y-37760952D01*
X146657666Y-37787763D01*
X146628863Y-37812285D01*
X146614890Y-37822449D01*
X146581537Y-37843194D01*
X146548484Y-37859614D01*
X146512225Y-37874134D01*
X146477869Y-37885280D01*
X146442128Y-37894488D01*
X146406072Y-37901434D01*
X146369700Y-37906119D01*
X146333012Y-37908542D01*
X146311906Y-37908911D01*
X146271485Y-37907018D01*
X146234025Y-37901337D01*
X146194067Y-37889925D01*
X146158141Y-37873358D01*
X146130556Y-37855055D01*
X146103433Y-37829732D01*
X146080592Y-37796476D01*
X146066453Y-37758617D01*
X146061219Y-37721715D01*
X146060947Y-37710525D01*
X146063935Y-37673453D01*
X146072899Y-37637893D01*
X146087840Y-37603844D01*
X146108757Y-37571306D01*
X146134689Y-37540909D01*
X146164674Y-37513466D01*
X146198711Y-37488977D01*
X146231819Y-37469972D01*
X146236802Y-37467442D01*
X146217018Y-37430256D01*
X146183762Y-37450887D01*
X146153716Y-37472252D01*
X146121901Y-37498858D01*
X146094709Y-37526520D01*
X146068829Y-37560127D01*
X146059665Y-37574970D01*
X146041892Y-37610999D01*
X146028484Y-37649202D01*
X146019442Y-37689578D01*
X146014765Y-37732129D01*
X146014052Y-37757419D01*
G37*
G36*
X146025776Y-37221978D02*
G01*
X146027877Y-37262828D01*
X146034180Y-37299651D01*
X146046112Y-37335840D01*
X146052337Y-37348923D01*
X146074714Y-37379844D01*
X146106681Y-37397881D01*
X146122313Y-37399665D01*
X146157061Y-37387478D01*
X146160415Y-37384827D01*
X146178027Y-37352185D01*
X146178183Y-37348190D01*
X146168658Y-37314851D01*
X146146493Y-37295068D01*
X146114619Y-37281512D01*
X146084577Y-37271437D01*
X146068274Y-37250188D01*
X146060975Y-37213802D01*
X146060947Y-37210621D01*
X146064837Y-37172668D01*
X146079207Y-37138026D01*
X146088607Y-37126357D01*
X146121168Y-37104924D01*
X146157698Y-37097892D01*
X146163529Y-37097780D01*
X146199669Y-37107273D01*
X146218667Y-37124708D01*
X146238405Y-37158002D01*
X146253295Y-37194696D01*
X146256585Y-37204392D01*
X146270641Y-37239825D01*
X146275087Y-37249272D01*
X146293939Y-37281007D01*
X146301831Y-37290488D01*
X146330820Y-37315036D01*
X146340300Y-37320347D01*
X146376758Y-37330806D01*
X146393239Y-37331704D01*
X146432165Y-37325944D01*
X146467657Y-37308663D01*
X146496663Y-37283261D01*
X146505713Y-37272719D01*
X146526550Y-37241533D01*
X146541434Y-37206957D01*
X146550364Y-37168992D01*
X146553340Y-37127639D01*
X146551657Y-37090313D01*
X146551142Y-37084591D01*
X146543792Y-37047119D01*
X146539419Y-37033483D01*
X146521867Y-37001232D01*
X146513956Y-36992267D01*
X146480040Y-36975830D01*
X146470359Y-36975232D01*
X146435156Y-36986171D01*
X146430608Y-36989520D01*
X146412814Y-37022457D01*
X146412657Y-37026706D01*
X146421449Y-37058213D01*
X146445080Y-37078729D01*
X146476953Y-37092285D01*
X146510476Y-37103459D01*
X146516521Y-37121045D01*
X146518169Y-37141561D01*
X146513725Y-37178588D01*
X146496054Y-37213038D01*
X146491242Y-37218131D01*
X146459787Y-37238427D01*
X146427311Y-37244143D01*
X146391245Y-37235877D01*
X146373639Y-37220696D01*
X146354151Y-37187149D01*
X146339897Y-37153073D01*
X146336270Y-37143210D01*
X146321780Y-37106788D01*
X146304320Y-37073458D01*
X146281479Y-37043379D01*
X146279483Y-37041360D01*
X146248523Y-37019697D01*
X146211743Y-37010165D01*
X146200165Y-37009670D01*
X146163311Y-37013436D01*
X146126148Y-37026679D01*
X146093534Y-37049455D01*
X146074319Y-37069937D01*
X146053081Y-37102039D01*
X146037912Y-37138080D01*
X146028810Y-37178060D01*
X146025823Y-37216273D01*
X146025776Y-37221978D01*
G37*
G36*
X146459110Y-36479918D02*
G01*
X146494543Y-36490718D01*
X146523665Y-36515261D01*
X146525491Y-36517531D01*
X146542879Y-36550633D01*
X146550993Y-36586482D01*
X146553340Y-36625170D01*
X146553227Y-36633484D01*
X146549245Y-36673719D01*
X146539574Y-36711737D01*
X146524214Y-36747536D01*
X146520525Y-36754384D01*
X146499931Y-36786605D01*
X146475760Y-36815464D01*
X146448011Y-36840959D01*
X146441927Y-36845785D01*
X146410350Y-36867706D01*
X146376840Y-36885942D01*
X146341399Y-36900493D01*
X146334094Y-36902955D01*
X146296885Y-36912884D01*
X146258532Y-36918841D01*
X146219033Y-36920826D01*
X146180577Y-36918521D01*
X146141565Y-36910241D01*
X146107820Y-36895938D01*
X146076151Y-36872650D01*
X146054112Y-36845871D01*
X146036845Y-36809312D01*
X146028186Y-36771099D01*
X146025776Y-36733248D01*
X146026719Y-36712584D01*
X146033174Y-36675976D01*
X146045743Y-36640122D01*
X146064427Y-36605020D01*
X146082582Y-36578923D01*
X146109582Y-36548280D01*
X146137036Y-36523791D01*
X146167742Y-36501889D01*
X146189907Y-36531198D01*
X146162392Y-36552746D01*
X146134351Y-36579398D01*
X146110772Y-36608867D01*
X146100494Y-36626676D01*
X146088104Y-36662820D01*
X146084394Y-36699726D01*
X146087027Y-36727100D01*
X146100852Y-36761593D01*
X146126526Y-36788203D01*
X146137649Y-36795244D01*
X146174316Y-36809766D01*
X146210950Y-36816367D01*
X146248525Y-36818244D01*
X146248937Y-36815130D01*
X146283696Y-36815130D01*
X146308228Y-36811052D01*
X146348666Y-36801035D01*
X146385931Y-36787355D01*
X146420023Y-36770010D01*
X146450942Y-36749002D01*
X146466698Y-36735758D01*
X146491909Y-36708395D01*
X146511604Y-36672550D01*
X146518169Y-36634879D01*
X146516521Y-36613813D01*
X146509010Y-36594213D01*
X146491974Y-36579741D01*
X146460650Y-36574063D01*
X146451901Y-36574246D01*
X146414054Y-36579956D01*
X146378951Y-36594945D01*
X146370582Y-36600507D01*
X146342664Y-36627429D01*
X146322897Y-36658510D01*
X146320997Y-36662303D01*
X146307499Y-36697027D01*
X146298168Y-36733797D01*
X146297016Y-36739417D01*
X146289879Y-36776754D01*
X146283696Y-36815130D01*
X146248937Y-36815130D01*
X146252819Y-36785774D01*
X146258815Y-36748292D01*
X146266294Y-36710167D01*
X146272018Y-36685701D01*
X146282151Y-36649302D01*
X146294138Y-36613264D01*
X146295584Y-36609207D01*
X146309969Y-36575432D01*
X146330897Y-36540843D01*
X146355504Y-36513613D01*
X146375768Y-36498626D01*
X146409686Y-36484175D01*
X146447827Y-36479357D01*
X146459110Y-36479918D01*
G37*
G36*
X146467978Y-35969562D02*
G01*
X146435737Y-35973775D01*
X146406795Y-35985498D01*
X146384996Y-36006015D01*
X146377486Y-36037522D01*
X146386434Y-36073578D01*
X146391041Y-36079288D01*
X146421266Y-36093210D01*
X146456254Y-36085516D01*
X146491147Y-36070938D01*
X146494722Y-36069396D01*
X146491608Y-36089912D01*
X146480068Y-36124167D01*
X146462036Y-36157312D01*
X146453872Y-36169780D01*
X146430643Y-36199468D01*
X146407527Y-36224002D01*
X146037500Y-36306983D01*
X146037500Y-36402787D01*
X146372356Y-36327683D01*
X146409359Y-36320172D01*
X146446179Y-36315226D01*
X146482103Y-36322800D01*
X146484830Y-36325118D01*
X146494683Y-36360710D01*
X146494722Y-36364319D01*
X146490326Y-36393079D01*
X146482998Y-36420373D01*
X146516887Y-36412679D01*
X146532139Y-36376991D01*
X146544364Y-36341605D01*
X146552280Y-36304759D01*
X146553340Y-36288482D01*
X146546981Y-36251411D01*
X146530809Y-36229863D01*
X146496174Y-36215180D01*
X146463398Y-36212278D01*
X146463398Y-36209164D01*
X146486525Y-36180336D01*
X146510152Y-36149517D01*
X146532096Y-36118117D01*
X146533374Y-36116107D01*
X146548953Y-36081661D01*
X146553340Y-36049979D01*
X146549127Y-36018105D01*
X146535022Y-35991727D01*
X146509560Y-35975057D01*
X146472981Y-35969610D01*
X146467978Y-35969562D01*
G37*
G36*
X146096118Y-35413054D02*
G01*
X146062229Y-35420748D01*
X146048473Y-35455017D01*
X146035686Y-35489613D01*
X146034569Y-35492922D01*
X146026471Y-35530240D01*
X146025776Y-35544945D01*
X146031825Y-35582947D01*
X146047208Y-35606861D01*
X146079677Y-35624953D01*
X146100148Y-35627377D01*
X146125244Y-35625362D01*
X146157667Y-35618768D01*
X146350558Y-35568210D01*
X146387272Y-35559873D01*
X146390675Y-35559234D01*
X146419801Y-35555753D01*
X146457425Y-35562193D01*
X146474572Y-35572240D01*
X146493128Y-35604266D01*
X146494722Y-35621332D01*
X146488622Y-35657917D01*
X146473107Y-35692773D01*
X146451022Y-35725537D01*
X146424551Y-35754641D01*
X146412840Y-35765497D01*
X146037500Y-35852508D01*
X146037500Y-35948312D01*
X146697138Y-35795355D01*
X146717105Y-35790959D01*
X146734508Y-35789127D01*
X146762901Y-35795355D01*
X146778105Y-35812941D01*
X146784150Y-35839685D01*
X146787814Y-35873574D01*
X146822984Y-35866430D01*
X146834708Y-35675371D01*
X146826831Y-35670242D01*
X146467428Y-35752674D01*
X146467428Y-35750659D01*
X146491950Y-35718566D01*
X146514213Y-35685826D01*
X146531542Y-35655771D01*
X146545656Y-35619992D01*
X146552297Y-35583692D01*
X146553340Y-35561065D01*
X146548624Y-35524447D01*
X146531462Y-35491061D01*
X146524764Y-35483763D01*
X146491883Y-35462880D01*
X146455749Y-35456028D01*
X146450026Y-35455919D01*
X146417236Y-35458850D01*
X146380649Y-35465156D01*
X146370525Y-35467643D01*
X146205661Y-35511057D01*
X146169077Y-35519553D01*
X146167742Y-35519849D01*
X146134769Y-35524429D01*
X146098612Y-35515300D01*
X146094836Y-35511606D01*
X146084557Y-35476364D01*
X146084394Y-35469291D01*
X146088241Y-35441081D01*
X146096118Y-35413054D01*
G37*
G36*
X146459110Y-34909681D02*
G01*
X146494543Y-34920480D01*
X146523665Y-34945024D01*
X146525491Y-34947294D01*
X146542879Y-34980396D01*
X146550993Y-35016245D01*
X146553340Y-35054933D01*
X146553227Y-35063247D01*
X146549245Y-35103482D01*
X146539574Y-35141500D01*
X146524214Y-35177299D01*
X146520525Y-35184147D01*
X146499931Y-35216368D01*
X146475760Y-35245227D01*
X146448011Y-35270722D01*
X146441927Y-35275548D01*
X146410350Y-35297469D01*
X146376840Y-35315705D01*
X146341399Y-35330256D01*
X146334094Y-35332718D01*
X146296885Y-35342647D01*
X146258532Y-35348604D01*
X146219033Y-35350589D01*
X146180577Y-35348284D01*
X146141565Y-35340003D01*
X146107820Y-35325701D01*
X146076151Y-35302412D01*
X146054112Y-35275633D01*
X146036845Y-35239075D01*
X146028186Y-35200862D01*
X146025776Y-35163011D01*
X146026719Y-35142347D01*
X146033174Y-35105739D01*
X146045743Y-35069884D01*
X146064427Y-35034783D01*
X146082582Y-35008686D01*
X146109582Y-34978043D01*
X146137036Y-34953553D01*
X146167742Y-34931652D01*
X146189907Y-34960961D01*
X146162392Y-34982509D01*
X146134351Y-35009161D01*
X146110772Y-35038630D01*
X146100494Y-35056439D01*
X146088104Y-35092583D01*
X146084394Y-35129488D01*
X146087027Y-35156863D01*
X146100852Y-35191355D01*
X146126526Y-35217965D01*
X146137649Y-35225006D01*
X146174316Y-35239529D01*
X146210950Y-35246130D01*
X146248525Y-35248007D01*
X146248937Y-35244893D01*
X146283696Y-35244893D01*
X146308228Y-35240814D01*
X146348666Y-35230798D01*
X146385931Y-35217117D01*
X146420023Y-35199773D01*
X146450942Y-35178764D01*
X146466698Y-35165521D01*
X146491909Y-35138158D01*
X146511604Y-35102312D01*
X146518169Y-35064642D01*
X146516521Y-35043576D01*
X146509010Y-35023975D01*
X146491974Y-35009504D01*
X146460650Y-35003825D01*
X146451901Y-35004009D01*
X146414054Y-35009719D01*
X146378951Y-35024708D01*
X146370582Y-35030269D01*
X146342664Y-35057191D01*
X146322897Y-35088272D01*
X146320997Y-35092066D01*
X146307499Y-35126790D01*
X146298168Y-35163560D01*
X146297016Y-35169180D01*
X146289879Y-35206516D01*
X146283696Y-35244893D01*
X146248937Y-35244893D01*
X146252819Y-35215537D01*
X146258815Y-35178054D01*
X146266294Y-35139930D01*
X146272018Y-35115463D01*
X146282151Y-35079065D01*
X146294138Y-35043026D01*
X146295584Y-35038970D01*
X146309969Y-35005195D01*
X146330897Y-34970605D01*
X146355504Y-34943375D01*
X146375768Y-34928389D01*
X146409686Y-34913937D01*
X146447827Y-34909120D01*
X146459110Y-34909681D01*
G37*
G36*
X146541617Y-34341622D02*
G01*
X146517620Y-34435961D01*
X146528743Y-34454449D01*
X146542716Y-34489084D01*
X146550342Y-34520881D01*
X146553340Y-34559059D01*
X146553233Y-34566504D01*
X146549476Y-34603126D01*
X146540353Y-34638746D01*
X146525863Y-34673365D01*
X146522381Y-34680128D01*
X146502868Y-34712142D01*
X146479849Y-34741151D01*
X146453323Y-34767154D01*
X146447454Y-34772170D01*
X146416521Y-34795232D01*
X146382940Y-34814932D01*
X146346711Y-34831268D01*
X146339209Y-34834107D01*
X146301270Y-34845556D01*
X146262616Y-34852425D01*
X146223246Y-34854715D01*
X146190022Y-34853292D01*
X146150071Y-34846966D01*
X146111066Y-34833801D01*
X146078349Y-34814232D01*
X146068954Y-34806342D01*
X146044310Y-34775716D01*
X146029934Y-34738436D01*
X146025776Y-34699193D01*
X146026457Y-34683024D01*
X146032526Y-34654314D01*
X146084394Y-34654314D01*
X146084761Y-34664588D01*
X146094836Y-34700476D01*
X146096869Y-34703746D01*
X146124328Y-34729052D01*
X146132889Y-34733474D01*
X146168475Y-34744256D01*
X146186521Y-34746759D01*
X146223979Y-34748653D01*
X146258826Y-34747043D01*
X146296993Y-34741553D01*
X146334987Y-34732166D01*
X146358401Y-34724480D01*
X146394869Y-34709101D01*
X146429143Y-34689302D01*
X146441651Y-34680312D01*
X146470153Y-34655305D01*
X146494356Y-34625737D01*
X146495821Y-34623524D01*
X146512216Y-34589330D01*
X146518169Y-34550816D01*
X146517995Y-34542524D01*
X146511025Y-34505936D01*
X146491608Y-34477177D01*
X146463581Y-34460874D01*
X146434272Y-34456477D01*
X146158033Y-34515279D01*
X146152090Y-34521287D01*
X146127035Y-34550178D01*
X146105094Y-34582690D01*
X146090236Y-34616127D01*
X146084394Y-34654314D01*
X146032526Y-34654314D01*
X146034385Y-34645521D01*
X146040267Y-34630462D01*
X146056734Y-34597711D01*
X146061789Y-34588751D01*
X146082562Y-34558326D01*
X146105460Y-34529200D01*
X146104544Y-34525537D01*
X146080402Y-34530129D01*
X146044696Y-34538481D01*
X146008824Y-34549355D01*
X145974302Y-34563272D01*
X145955995Y-34572263D01*
X145923709Y-34591016D01*
X145893335Y-34614197D01*
X145869572Y-34640518D01*
X145851203Y-34673365D01*
X145843278Y-34697116D01*
X145838197Y-34734181D01*
X145838197Y-34749569D01*
X145865675Y-34762025D01*
X145897365Y-34779061D01*
X145920996Y-34800676D01*
X145931987Y-34833100D01*
X145931850Y-34837543D01*
X145916416Y-34871202D01*
X145913398Y-34873690D01*
X145877581Y-34885123D01*
X145851570Y-34879811D01*
X145827206Y-34858928D01*
X145822680Y-34851573D01*
X145809804Y-34816430D01*
X145804721Y-34785426D01*
X145803026Y-34746638D01*
X145804618Y-34708656D01*
X145810048Y-34669851D01*
X145819330Y-34634164D01*
X145830121Y-34606818D01*
X145849875Y-34572476D01*
X145873368Y-34543122D01*
X145878097Y-34538123D01*
X145907817Y-34511981D01*
X145940281Y-34490206D01*
X145973935Y-34472231D01*
X145981969Y-34468450D01*
X146016321Y-34454185D01*
X146054223Y-34441293D01*
X146090298Y-34431140D01*
X146129091Y-34422039D01*
X146533923Y-34335394D01*
X146541617Y-34341622D01*
G37*
G36*
X146111688Y-33920486D02*
G01*
X146111688Y-33923600D01*
X146088297Y-33952806D01*
X146066451Y-33983899D01*
X146048674Y-34013909D01*
X146033848Y-34050553D01*
X146026872Y-34087866D01*
X146025776Y-34111179D01*
X146030522Y-34147978D01*
X146047795Y-34182025D01*
X146054535Y-34189581D01*
X146085442Y-34210224D01*
X146121406Y-34218088D01*
X146130006Y-34218340D01*
X146159499Y-34216325D01*
X146196466Y-34209711D01*
X146210423Y-34206617D01*
X146372356Y-34166317D01*
X146408581Y-34158343D01*
X146413023Y-34157524D01*
X146446545Y-34154410D01*
X146483057Y-34162233D01*
X146485013Y-34163935D01*
X146494684Y-34199345D01*
X146494722Y-34202953D01*
X146490143Y-34231713D01*
X146482998Y-34259007D01*
X146516338Y-34251313D01*
X146531539Y-34215797D01*
X146543998Y-34180605D01*
X146552428Y-34144091D01*
X146553340Y-34131329D01*
X146548015Y-34093586D01*
X146534473Y-34070329D01*
X146501823Y-34052722D01*
X146478236Y-34050362D01*
X146452590Y-34052561D01*
X146420350Y-34058606D01*
X146229841Y-34105500D01*
X146193797Y-34113354D01*
X146188991Y-34114293D01*
X146160048Y-34117957D01*
X146123667Y-34112080D01*
X146104727Y-34101287D01*
X146086003Y-34069017D01*
X146084394Y-34052011D01*
X146089294Y-34014779D01*
X146103995Y-33978555D01*
X146125590Y-33945902D01*
X146151556Y-33917241D01*
X146157850Y-33911327D01*
X146547112Y-33825781D01*
X146553340Y-33736755D01*
X146545464Y-33730526D01*
X146136967Y-33819003D01*
X146098951Y-33828096D01*
X146063442Y-33838222D01*
X146025930Y-33851062D01*
X145991692Y-33865253D01*
X145983644Y-33869012D01*
X145949728Y-33886928D01*
X145916598Y-33908738D01*
X145888262Y-33932552D01*
X145880696Y-33940087D01*
X145855087Y-33970231D01*
X145834933Y-34001977D01*
X145821345Y-34032227D01*
X145810915Y-34067876D01*
X145804815Y-34106814D01*
X145803026Y-34145068D01*
X145804395Y-34182167D01*
X145809255Y-34214677D01*
X145822399Y-34249393D01*
X145826290Y-34255343D01*
X145849738Y-34275493D01*
X145875566Y-34280622D01*
X145911679Y-34269640D01*
X145914951Y-34267250D01*
X145931837Y-34233234D01*
X145931987Y-34228599D01*
X145921179Y-34196175D01*
X145897548Y-34174560D01*
X145866041Y-34157524D01*
X145838197Y-34145068D01*
X145838197Y-34132794D01*
X145843922Y-34094712D01*
X145852852Y-34070696D01*
X145873024Y-34037408D01*
X145898464Y-34010612D01*
X145928906Y-33987766D01*
X145962694Y-33968394D01*
X145984926Y-33957855D01*
X146020053Y-33944131D01*
X146055154Y-33933370D01*
X146093559Y-33924116D01*
X146111688Y-33920486D01*
G37*
G36*
X146096118Y-33419117D02*
G01*
X146061496Y-33426810D01*
X146047269Y-33462215D01*
X146035236Y-33497157D01*
X146033653Y-33502648D01*
X146026399Y-33539036D01*
X146025776Y-33551008D01*
X146031773Y-33589010D01*
X146047025Y-33612923D01*
X146079175Y-33631016D01*
X146099415Y-33633440D01*
X146123961Y-33631425D01*
X146156385Y-33624647D01*
X146373822Y-33570059D01*
X146409736Y-33562664D01*
X146412290Y-33562182D01*
X146447095Y-33558335D01*
X146483274Y-33566158D01*
X146485197Y-33567861D01*
X146494713Y-33604883D01*
X146494722Y-33606695D01*
X146490326Y-33636920D01*
X146482998Y-33665497D01*
X146516887Y-33657803D01*
X146532139Y-33621873D01*
X146544364Y-33585629D01*
X146552280Y-33549393D01*
X146553340Y-33535071D01*
X146548349Y-33498572D01*
X146533374Y-33473705D01*
X146499425Y-33456515D01*
X146479701Y-33454654D01*
X146454605Y-33456852D01*
X146422915Y-33462897D01*
X146205661Y-33518218D01*
X146168867Y-33526708D01*
X146166460Y-33527194D01*
X146134952Y-33531041D01*
X146098843Y-33521652D01*
X146095019Y-33517852D01*
X146084560Y-33482429D01*
X146084394Y-33475354D01*
X146087875Y-33447144D01*
X146096118Y-33419117D01*
G37*
G36*
X146744583Y-33382663D02*
G01*
X146708868Y-33390868D01*
X146692742Y-33401714D01*
X146672330Y-33433926D01*
X146670577Y-33449159D01*
X146682427Y-33484433D01*
X146691643Y-33494405D01*
X146725048Y-33511949D01*
X146739820Y-33513456D01*
X146775814Y-33504451D01*
X146789829Y-33494405D01*
X146809566Y-33463328D01*
X146811261Y-33449159D01*
X146800851Y-33412441D01*
X146791111Y-33401165D01*
X146757451Y-33383820D01*
X146744583Y-33382663D01*
G37*
G36*
X146076700Y-32465287D02*
G01*
X146087325Y-32498810D01*
X146110406Y-32528119D01*
X146125187Y-32540035D01*
X146157667Y-32559626D01*
X146165760Y-32563829D01*
X146200159Y-32581907D01*
X146234506Y-32600397D01*
X146267576Y-32618794D01*
X146282265Y-32627056D01*
X146316311Y-32645753D01*
X146352275Y-32665059D01*
X146388476Y-32684190D01*
X146393012Y-32665933D01*
X146404740Y-32628363D01*
X146419068Y-32593515D01*
X146424077Y-32583348D01*
X146444042Y-32549929D01*
X146467794Y-32519876D01*
X146473219Y-32514185D01*
X146503388Y-32489163D01*
X146536121Y-32470966D01*
X146548859Y-32465742D01*
X146586666Y-32455824D01*
X146624598Y-32452831D01*
X146652733Y-32455431D01*
X146687979Y-32468585D01*
X146708135Y-32483289D01*
X146731393Y-32511632D01*
X146744370Y-32537433D01*
X146755573Y-32572998D01*
X146757145Y-32579903D01*
X146762683Y-32616501D01*
X146764366Y-32653782D01*
X146764366Y-32982594D01*
X146729195Y-32990287D01*
X146724066Y-32956399D01*
X146716006Y-32924891D01*
X146703183Y-32909504D01*
X146684316Y-32905291D01*
X146673874Y-32906024D01*
X146663433Y-32907855D01*
X146134952Y-33030954D01*
X146103445Y-33044509D01*
X146082929Y-33072719D01*
X146076151Y-33106791D01*
X146072670Y-33143244D01*
X146037500Y-33151488D01*
X146037500Y-32842459D01*
X146072670Y-32834216D01*
X146072750Y-32836171D01*
X146076517Y-32873051D01*
X146082745Y-32903642D01*
X146096484Y-32919396D01*
X146116634Y-32923792D01*
X146124694Y-32923060D01*
X146134769Y-32921228D01*
X146365762Y-32866639D01*
X146365762Y-32790436D01*
X146353233Y-32783658D01*
X146412657Y-32783658D01*
X146412657Y-32856748D01*
X146729195Y-32784207D01*
X146729195Y-32702325D01*
X146728165Y-32681395D01*
X146719922Y-32645022D01*
X146699886Y-32611833D01*
X146690163Y-32602545D01*
X146656945Y-32584914D01*
X146618187Y-32579593D01*
X146612720Y-32579651D01*
X146576044Y-32583325D01*
X146537541Y-32594522D01*
X146502679Y-32613184D01*
X146471458Y-32639310D01*
X146445732Y-32670726D01*
X146427357Y-32705256D01*
X146416332Y-32742900D01*
X146412657Y-32783658D01*
X146353233Y-32783658D01*
X146350848Y-32782368D01*
X146316525Y-32763846D01*
X146282867Y-32745744D01*
X146249876Y-32728062D01*
X146212988Y-32708370D01*
X146179671Y-32691072D01*
X146143515Y-32673318D01*
X146110263Y-32657737D01*
X146074924Y-32641822D01*
X146037500Y-32625572D01*
X146037500Y-32440558D01*
X146072670Y-32432315D01*
X146076700Y-32465287D01*
G37*
G36*
X146095568Y-32195643D02*
G01*
X146059755Y-32205514D01*
X146046109Y-32216526D01*
X146027762Y-32248963D01*
X146025776Y-32266168D01*
X146035386Y-32302155D01*
X146046109Y-32315994D01*
X146078302Y-32334837D01*
X146095568Y-32336877D01*
X146131555Y-32327006D01*
X146145394Y-32315994D01*
X146164403Y-32283471D01*
X146166460Y-32266168D01*
X146156503Y-32230347D01*
X146145394Y-32216526D01*
X146112870Y-32197683D01*
X146095568Y-32195643D01*
G37*
M02*
