%TF.GenerationSoftware,KiCad,Pcbnew,8.0.6*%
%TF.CreationDate,2026-05-30T16:06:03+02:00*%
%TF.ProjectId,_kb,5f6b622e-6b69-4636-9164-5f7063625858,rev?*%
%TF.SameCoordinates,Original*%
%TF.FileFunction,Legend,Top*%
%TF.FilePolarity,Positive*%
%FSLAX46Y46*%
G04 Gerber Fmt 4.6, Leading zero omitted, Abs format (unit mm)*
G04 Created by KiCad (PCBNEW 8.0.6) date 2026-05-30 16:06:03*
%MOMM*%
%LPD*%
G01*
G04 APERTURE LIST*
%ADD10C,0.100000*%
%ADD11C,0.150000*%
%ADD12C,0.120000*%
G04 APERTURE END LIST*
D10*
X122873182Y-29993719D02*
X123495000Y-30155000D01*
X124267500Y-30225000D01*
X125110000Y-30250000D01*
X126290000Y-30187500D01*
X126760000Y-30010000D01*
X126435000Y-30635000D01*
X126210000Y-31305000D01*
X126060000Y-32060000D01*
X126085000Y-32945000D01*
X126350000Y-34085000D01*
X126625000Y-34665000D01*
X127065000Y-35200000D01*
X127685000Y-35840000D01*
X127510000Y-35705000D01*
X127910000Y-36080000D01*
X128500000Y-36835000D01*
X128680000Y-37260000D01*
X128520000Y-37140000D01*
X128240000Y-37115000D01*
X127580000Y-37575000D01*
X125420000Y-40070000D01*
X124705000Y-40965000D01*
X123950000Y-42340000D01*
X123040000Y-44090000D01*
X122890000Y-45415000D01*
X122090000Y-44910000D01*
X121385000Y-44255000D01*
X120930000Y-43560000D01*
X120570000Y-42705000D01*
X120375000Y-41650000D01*
X120325000Y-40525000D01*
X120295000Y-39780000D01*
X120245000Y-38950000D01*
X120555000Y-37495000D01*
X121235000Y-36305000D01*
X122090000Y-35555000D01*
X122935000Y-34695000D01*
X123340000Y-33785000D01*
X123560000Y-32740000D01*
X123525000Y-31960000D01*
X123255000Y-30850000D01*
X122666364Y-29942437D01*
X122873182Y-29993719D01*
G36*
X122873182Y-29993719D02*
G01*
X123495000Y-30155000D01*
X124267500Y-30225000D01*
X125110000Y-30250000D01*
X126290000Y-30187500D01*
X126760000Y-30010000D01*
X126435000Y-30635000D01*
X126210000Y-31305000D01*
X126060000Y-32060000D01*
X126085000Y-32945000D01*
X126350000Y-34085000D01*
X126625000Y-34665000D01*
X127065000Y-35200000D01*
X127685000Y-35840000D01*
X127510000Y-35705000D01*
X127910000Y-36080000D01*
X128500000Y-36835000D01*
X128680000Y-37260000D01*
X128520000Y-37140000D01*
X128240000Y-37115000D01*
X127580000Y-37575000D01*
X125420000Y-40070000D01*
X124705000Y-40965000D01*
X123950000Y-42340000D01*
X123040000Y-44090000D01*
X122890000Y-45415000D01*
X122090000Y-44910000D01*
X121385000Y-44255000D01*
X120930000Y-43560000D01*
X120570000Y-42705000D01*
X120375000Y-41650000D01*
X120325000Y-40525000D01*
X120295000Y-39780000D01*
X120245000Y-38950000D01*
X120555000Y-37495000D01*
X121235000Y-36305000D01*
X122090000Y-35555000D01*
X122935000Y-34695000D01*
X123340000Y-33785000D01*
X123560000Y-32740000D01*
X123525000Y-31960000D01*
X123255000Y-30850000D01*
X122666364Y-29942437D01*
X122873182Y-29993719D01*
G37*
X128970000Y-38080000D02*
X129005000Y-38070000D01*
X129160000Y-39490000D01*
X129220000Y-40765000D01*
X129130000Y-42365000D01*
X128770000Y-43430000D01*
X128270000Y-44155000D01*
X127800000Y-44700000D01*
X127225000Y-45150000D01*
X126420000Y-45560000D01*
X125525000Y-45775000D01*
X124330000Y-45800000D01*
X124585000Y-44345000D01*
X125595000Y-42290000D01*
X126105000Y-41190000D01*
X127395000Y-39225000D01*
X128205000Y-38095000D01*
X128635000Y-37620000D01*
X128970000Y-38080000D01*
G36*
X128970000Y-38080000D02*
G01*
X129005000Y-38070000D01*
X129160000Y-39490000D01*
X129220000Y-40765000D01*
X129130000Y-42365000D01*
X128770000Y-43430000D01*
X128270000Y-44155000D01*
X127800000Y-44700000D01*
X127225000Y-45150000D01*
X126420000Y-45560000D01*
X125525000Y-45775000D01*
X124330000Y-45800000D01*
X124585000Y-44345000D01*
X125595000Y-42290000D01*
X126105000Y-41190000D01*
X127395000Y-39225000D01*
X128205000Y-38095000D01*
X128635000Y-37620000D01*
X128970000Y-38080000D01*
G37*
X126515000Y-30160000D02*
X126760000Y-30010000D01*
X126065000Y-30215000D02*
X126515000Y-30160000D01*
X125590000Y-30230000D02*
X126065000Y-30215000D01*
X125110000Y-30250000D02*
X125590000Y-30230000D01*
X124645000Y-30250000D02*
X125110000Y-30250000D01*
X123890000Y-30200000D02*
X124645000Y-30250000D01*
X123495000Y-30155000D02*
X123890000Y-30200000D01*
X123080000Y-30045000D02*
X123495000Y-30155000D01*
X122666364Y-29942437D02*
X123080000Y-30045000D01*
X126730000Y-29850000D02*
X126837082Y-29942437D01*
X126490000Y-29800000D02*
X126730000Y-29850000D01*
X126240000Y-29745000D02*
X126490000Y-29800000D01*
X125810000Y-29740000D02*
X126240000Y-29745000D01*
X125250000Y-29720000D02*
X125810000Y-29740000D01*
X124770000Y-29740000D02*
X125250000Y-29720000D01*
X124035000Y-29680000D02*
X124770000Y-29740000D01*
X123605000Y-29720000D02*
X124035000Y-29680000D01*
X123185000Y-29755000D02*
X123605000Y-29720000D01*
X122900000Y-29845000D02*
X123185000Y-29755000D01*
X122666364Y-29942437D02*
X122900000Y-29845000D01*
X127743250Y-35899451D02*
G75*
G02*
X126837079Y-29946446I2686750J3454451D01*
G01*
X122666367Y-29938428D02*
G75*
G02*
X121675020Y-35863508I-3101367J-2526572D01*
G01*
X127743250Y-35899451D02*
G75*
G02*
X129122074Y-39112074I-3053250J-3212623D01*
G01*
X120257926Y-39112074D02*
G75*
G02*
X121675020Y-35863508I4432074J0D01*
G01*
X120367926Y-41422926D02*
X120257926Y-39112074D01*
X129232074Y-41422926D02*
X129122074Y-39112074D01*
X129232074Y-41422926D02*
G75*
G02*
X120367926Y-41422926I-4432074J0D01*
G01*
D11*
X98135112Y-40828040D02*
X98206541Y-40828040D01*
X98206541Y-40828040D02*
X98277969Y-40863754D01*
X98277969Y-40863754D02*
X98313684Y-40899468D01*
X98313684Y-40899468D02*
X98349398Y-40970897D01*
X98349398Y-40970897D02*
X98385112Y-41113754D01*
X98385112Y-41113754D02*
X98385112Y-41292326D01*
X98385112Y-41292326D02*
X98349398Y-41435183D01*
X98349398Y-41435183D02*
X98313684Y-41506611D01*
X98313684Y-41506611D02*
X98277969Y-41542326D01*
X98277969Y-41542326D02*
X98206541Y-41578040D01*
X98206541Y-41578040D02*
X98135112Y-41578040D01*
X98135112Y-41578040D02*
X98063684Y-41542326D01*
X98063684Y-41542326D02*
X98027969Y-41506611D01*
X98027969Y-41506611D02*
X97992255Y-41435183D01*
X97992255Y-41435183D02*
X97956541Y-41292326D01*
X97956541Y-41292326D02*
X97956541Y-41113754D01*
X97956541Y-41113754D02*
X97992255Y-40970897D01*
X97992255Y-40970897D02*
X98027969Y-40899468D01*
X98027969Y-40899468D02*
X98063684Y-40863754D01*
X98063684Y-40863754D02*
X98135112Y-40828040D01*
X99099398Y-41578040D02*
X98670827Y-41578040D01*
X98885112Y-41578040D02*
X98885112Y-40828040D01*
X98885112Y-40828040D02*
X98813684Y-40935183D01*
X98813684Y-40935183D02*
X98742255Y-41006611D01*
X98742255Y-41006611D02*
X98670827Y-41042326D01*
X99813684Y-41578040D02*
X99385113Y-41578040D01*
X99599398Y-41578040D02*
X99599398Y-40828040D01*
X99599398Y-40828040D02*
X99527970Y-40935183D01*
X99527970Y-40935183D02*
X99456541Y-41006611D01*
X99456541Y-41006611D02*
X99385113Y-41042326D01*
X100527970Y-41578040D02*
X100099399Y-41578040D01*
X100313684Y-41578040D02*
X100313684Y-40828040D01*
X100313684Y-40828040D02*
X100242256Y-40935183D01*
X100242256Y-40935183D02*
X100170827Y-41006611D01*
X100170827Y-41006611D02*
X100099399Y-41042326D01*
X100992256Y-40828040D02*
X101063685Y-40828040D01*
X101063685Y-40828040D02*
X101135113Y-40863754D01*
X101135113Y-40863754D02*
X101170828Y-40899468D01*
X101170828Y-40899468D02*
X101206542Y-40970897D01*
X101206542Y-40970897D02*
X101242256Y-41113754D01*
X101242256Y-41113754D02*
X101242256Y-41292326D01*
X101242256Y-41292326D02*
X101206542Y-41435183D01*
X101206542Y-41435183D02*
X101170828Y-41506611D01*
X101170828Y-41506611D02*
X101135113Y-41542326D01*
X101135113Y-41542326D02*
X101063685Y-41578040D01*
X101063685Y-41578040D02*
X100992256Y-41578040D01*
X100992256Y-41578040D02*
X100920828Y-41542326D01*
X100920828Y-41542326D02*
X100885113Y-41506611D01*
X100885113Y-41506611D02*
X100849399Y-41435183D01*
X100849399Y-41435183D02*
X100813685Y-41292326D01*
X100813685Y-41292326D02*
X100813685Y-41113754D01*
X100813685Y-41113754D02*
X100849399Y-40970897D01*
X100849399Y-40970897D02*
X100885113Y-40899468D01*
X100885113Y-40899468D02*
X100920828Y-40863754D01*
X100920828Y-40863754D02*
X100992256Y-40828040D01*
X101956542Y-41578040D02*
X101527971Y-41578040D01*
X101742256Y-41578040D02*
X101742256Y-40828040D01*
X101742256Y-40828040D02*
X101670828Y-40935183D01*
X101670828Y-40935183D02*
X101599399Y-41006611D01*
X101599399Y-41006611D02*
X101527971Y-41042326D01*
X102670828Y-41578040D02*
X102242257Y-41578040D01*
X102456542Y-41578040D02*
X102456542Y-40828040D01*
X102456542Y-40828040D02*
X102385114Y-40935183D01*
X102385114Y-40935183D02*
X102313685Y-41006611D01*
X102313685Y-41006611D02*
X102242257Y-41042326D01*
X103135114Y-40828040D02*
X103206543Y-40828040D01*
X103206543Y-40828040D02*
X103277971Y-40863754D01*
X103277971Y-40863754D02*
X103313686Y-40899468D01*
X103313686Y-40899468D02*
X103349400Y-40970897D01*
X103349400Y-40970897D02*
X103385114Y-41113754D01*
X103385114Y-41113754D02*
X103385114Y-41292326D01*
X103385114Y-41292326D02*
X103349400Y-41435183D01*
X103349400Y-41435183D02*
X103313686Y-41506611D01*
X103313686Y-41506611D02*
X103277971Y-41542326D01*
X103277971Y-41542326D02*
X103206543Y-41578040D01*
X103206543Y-41578040D02*
X103135114Y-41578040D01*
X103135114Y-41578040D02*
X103063686Y-41542326D01*
X103063686Y-41542326D02*
X103027971Y-41506611D01*
X103027971Y-41506611D02*
X102992257Y-41435183D01*
X102992257Y-41435183D02*
X102956543Y-41292326D01*
X102956543Y-41292326D02*
X102956543Y-41113754D01*
X102956543Y-41113754D02*
X102992257Y-40970897D01*
X102992257Y-40970897D02*
X103027971Y-40899468D01*
X103027971Y-40899468D02*
X103063686Y-40863754D01*
X103063686Y-40863754D02*
X103135114Y-40828040D01*
X98135112Y-42035498D02*
X98206541Y-42035498D01*
X98206541Y-42035498D02*
X98277969Y-42071212D01*
X98277969Y-42071212D02*
X98313684Y-42106926D01*
X98313684Y-42106926D02*
X98349398Y-42178355D01*
X98349398Y-42178355D02*
X98385112Y-42321212D01*
X98385112Y-42321212D02*
X98385112Y-42499784D01*
X98385112Y-42499784D02*
X98349398Y-42642641D01*
X98349398Y-42642641D02*
X98313684Y-42714069D01*
X98313684Y-42714069D02*
X98277969Y-42749784D01*
X98277969Y-42749784D02*
X98206541Y-42785498D01*
X98206541Y-42785498D02*
X98135112Y-42785498D01*
X98135112Y-42785498D02*
X98063684Y-42749784D01*
X98063684Y-42749784D02*
X98027969Y-42714069D01*
X98027969Y-42714069D02*
X97992255Y-42642641D01*
X97992255Y-42642641D02*
X97956541Y-42499784D01*
X97956541Y-42499784D02*
X97956541Y-42321212D01*
X97956541Y-42321212D02*
X97992255Y-42178355D01*
X97992255Y-42178355D02*
X98027969Y-42106926D01*
X98027969Y-42106926D02*
X98063684Y-42071212D01*
X98063684Y-42071212D02*
X98135112Y-42035498D01*
X99099398Y-42785498D02*
X98670827Y-42785498D01*
X98885112Y-42785498D02*
X98885112Y-42035498D01*
X98885112Y-42035498D02*
X98813684Y-42142641D01*
X98813684Y-42142641D02*
X98742255Y-42214069D01*
X98742255Y-42214069D02*
X98670827Y-42249784D01*
X99813684Y-42785498D02*
X99385113Y-42785498D01*
X99599398Y-42785498D02*
X99599398Y-42035498D01*
X99599398Y-42035498D02*
X99527970Y-42142641D01*
X99527970Y-42142641D02*
X99456541Y-42214069D01*
X99456541Y-42214069D02*
X99385113Y-42249784D01*
X100277970Y-42035498D02*
X100349399Y-42035498D01*
X100349399Y-42035498D02*
X100420827Y-42071212D01*
X100420827Y-42071212D02*
X100456542Y-42106926D01*
X100456542Y-42106926D02*
X100492256Y-42178355D01*
X100492256Y-42178355D02*
X100527970Y-42321212D01*
X100527970Y-42321212D02*
X100527970Y-42499784D01*
X100527970Y-42499784D02*
X100492256Y-42642641D01*
X100492256Y-42642641D02*
X100456542Y-42714069D01*
X100456542Y-42714069D02*
X100420827Y-42749784D01*
X100420827Y-42749784D02*
X100349399Y-42785498D01*
X100349399Y-42785498D02*
X100277970Y-42785498D01*
X100277970Y-42785498D02*
X100206542Y-42749784D01*
X100206542Y-42749784D02*
X100170827Y-42714069D01*
X100170827Y-42714069D02*
X100135113Y-42642641D01*
X100135113Y-42642641D02*
X100099399Y-42499784D01*
X100099399Y-42499784D02*
X100099399Y-42321212D01*
X100099399Y-42321212D02*
X100135113Y-42178355D01*
X100135113Y-42178355D02*
X100170827Y-42106926D01*
X100170827Y-42106926D02*
X100206542Y-42071212D01*
X100206542Y-42071212D02*
X100277970Y-42035498D01*
X101242256Y-42785498D02*
X100813685Y-42785498D01*
X101027970Y-42785498D02*
X101027970Y-42035498D01*
X101027970Y-42035498D02*
X100956542Y-42142641D01*
X100956542Y-42142641D02*
X100885113Y-42214069D01*
X100885113Y-42214069D02*
X100813685Y-42249784D01*
X101706542Y-42035498D02*
X101777971Y-42035498D01*
X101777971Y-42035498D02*
X101849399Y-42071212D01*
X101849399Y-42071212D02*
X101885114Y-42106926D01*
X101885114Y-42106926D02*
X101920828Y-42178355D01*
X101920828Y-42178355D02*
X101956542Y-42321212D01*
X101956542Y-42321212D02*
X101956542Y-42499784D01*
X101956542Y-42499784D02*
X101920828Y-42642641D01*
X101920828Y-42642641D02*
X101885114Y-42714069D01*
X101885114Y-42714069D02*
X101849399Y-42749784D01*
X101849399Y-42749784D02*
X101777971Y-42785498D01*
X101777971Y-42785498D02*
X101706542Y-42785498D01*
X101706542Y-42785498D02*
X101635114Y-42749784D01*
X101635114Y-42749784D02*
X101599399Y-42714069D01*
X101599399Y-42714069D02*
X101563685Y-42642641D01*
X101563685Y-42642641D02*
X101527971Y-42499784D01*
X101527971Y-42499784D02*
X101527971Y-42321212D01*
X101527971Y-42321212D02*
X101563685Y-42178355D01*
X101563685Y-42178355D02*
X101599399Y-42106926D01*
X101599399Y-42106926D02*
X101635114Y-42071212D01*
X101635114Y-42071212D02*
X101706542Y-42035498D01*
X102420828Y-42035498D02*
X102492257Y-42035498D01*
X102492257Y-42035498D02*
X102563685Y-42071212D01*
X102563685Y-42071212D02*
X102599400Y-42106926D01*
X102599400Y-42106926D02*
X102635114Y-42178355D01*
X102635114Y-42178355D02*
X102670828Y-42321212D01*
X102670828Y-42321212D02*
X102670828Y-42499784D01*
X102670828Y-42499784D02*
X102635114Y-42642641D01*
X102635114Y-42642641D02*
X102599400Y-42714069D01*
X102599400Y-42714069D02*
X102563685Y-42749784D01*
X102563685Y-42749784D02*
X102492257Y-42785498D01*
X102492257Y-42785498D02*
X102420828Y-42785498D01*
X102420828Y-42785498D02*
X102349400Y-42749784D01*
X102349400Y-42749784D02*
X102313685Y-42714069D01*
X102313685Y-42714069D02*
X102277971Y-42642641D01*
X102277971Y-42642641D02*
X102242257Y-42499784D01*
X102242257Y-42499784D02*
X102242257Y-42321212D01*
X102242257Y-42321212D02*
X102277971Y-42178355D01*
X102277971Y-42178355D02*
X102313685Y-42106926D01*
X102313685Y-42106926D02*
X102349400Y-42071212D01*
X102349400Y-42071212D02*
X102420828Y-42035498D01*
X103385114Y-42785498D02*
X102956543Y-42785498D01*
X103170828Y-42785498D02*
X103170828Y-42035498D01*
X103170828Y-42035498D02*
X103099400Y-42142641D01*
X103099400Y-42142641D02*
X103027971Y-42214069D01*
X103027971Y-42214069D02*
X102956543Y-42249784D01*
X98135112Y-43242956D02*
X98206541Y-43242956D01*
X98206541Y-43242956D02*
X98277969Y-43278670D01*
X98277969Y-43278670D02*
X98313684Y-43314384D01*
X98313684Y-43314384D02*
X98349398Y-43385813D01*
X98349398Y-43385813D02*
X98385112Y-43528670D01*
X98385112Y-43528670D02*
X98385112Y-43707242D01*
X98385112Y-43707242D02*
X98349398Y-43850099D01*
X98349398Y-43850099D02*
X98313684Y-43921527D01*
X98313684Y-43921527D02*
X98277969Y-43957242D01*
X98277969Y-43957242D02*
X98206541Y-43992956D01*
X98206541Y-43992956D02*
X98135112Y-43992956D01*
X98135112Y-43992956D02*
X98063684Y-43957242D01*
X98063684Y-43957242D02*
X98027969Y-43921527D01*
X98027969Y-43921527D02*
X97992255Y-43850099D01*
X97992255Y-43850099D02*
X97956541Y-43707242D01*
X97956541Y-43707242D02*
X97956541Y-43528670D01*
X97956541Y-43528670D02*
X97992255Y-43385813D01*
X97992255Y-43385813D02*
X98027969Y-43314384D01*
X98027969Y-43314384D02*
X98063684Y-43278670D01*
X98063684Y-43278670D02*
X98135112Y-43242956D01*
X99099398Y-43992956D02*
X98670827Y-43992956D01*
X98885112Y-43992956D02*
X98885112Y-43242956D01*
X98885112Y-43242956D02*
X98813684Y-43350099D01*
X98813684Y-43350099D02*
X98742255Y-43421527D01*
X98742255Y-43421527D02*
X98670827Y-43457242D01*
X99813684Y-43992956D02*
X99385113Y-43992956D01*
X99599398Y-43992956D02*
X99599398Y-43242956D01*
X99599398Y-43242956D02*
X99527970Y-43350099D01*
X99527970Y-43350099D02*
X99456541Y-43421527D01*
X99456541Y-43421527D02*
X99385113Y-43457242D01*
X100277970Y-43242956D02*
X100349399Y-43242956D01*
X100349399Y-43242956D02*
X100420827Y-43278670D01*
X100420827Y-43278670D02*
X100456542Y-43314384D01*
X100456542Y-43314384D02*
X100492256Y-43385813D01*
X100492256Y-43385813D02*
X100527970Y-43528670D01*
X100527970Y-43528670D02*
X100527970Y-43707242D01*
X100527970Y-43707242D02*
X100492256Y-43850099D01*
X100492256Y-43850099D02*
X100456542Y-43921527D01*
X100456542Y-43921527D02*
X100420827Y-43957242D01*
X100420827Y-43957242D02*
X100349399Y-43992956D01*
X100349399Y-43992956D02*
X100277970Y-43992956D01*
X100277970Y-43992956D02*
X100206542Y-43957242D01*
X100206542Y-43957242D02*
X100170827Y-43921527D01*
X100170827Y-43921527D02*
X100135113Y-43850099D01*
X100135113Y-43850099D02*
X100099399Y-43707242D01*
X100099399Y-43707242D02*
X100099399Y-43528670D01*
X100099399Y-43528670D02*
X100135113Y-43385813D01*
X100135113Y-43385813D02*
X100170827Y-43314384D01*
X100170827Y-43314384D02*
X100206542Y-43278670D01*
X100206542Y-43278670D02*
X100277970Y-43242956D01*
X100992256Y-43242956D02*
X101063685Y-43242956D01*
X101063685Y-43242956D02*
X101135113Y-43278670D01*
X101135113Y-43278670D02*
X101170828Y-43314384D01*
X101170828Y-43314384D02*
X101206542Y-43385813D01*
X101206542Y-43385813D02*
X101242256Y-43528670D01*
X101242256Y-43528670D02*
X101242256Y-43707242D01*
X101242256Y-43707242D02*
X101206542Y-43850099D01*
X101206542Y-43850099D02*
X101170828Y-43921527D01*
X101170828Y-43921527D02*
X101135113Y-43957242D01*
X101135113Y-43957242D02*
X101063685Y-43992956D01*
X101063685Y-43992956D02*
X100992256Y-43992956D01*
X100992256Y-43992956D02*
X100920828Y-43957242D01*
X100920828Y-43957242D02*
X100885113Y-43921527D01*
X100885113Y-43921527D02*
X100849399Y-43850099D01*
X100849399Y-43850099D02*
X100813685Y-43707242D01*
X100813685Y-43707242D02*
X100813685Y-43528670D01*
X100813685Y-43528670D02*
X100849399Y-43385813D01*
X100849399Y-43385813D02*
X100885113Y-43314384D01*
X100885113Y-43314384D02*
X100920828Y-43278670D01*
X100920828Y-43278670D02*
X100992256Y-43242956D01*
X101706542Y-43242956D02*
X101777971Y-43242956D01*
X101777971Y-43242956D02*
X101849399Y-43278670D01*
X101849399Y-43278670D02*
X101885114Y-43314384D01*
X101885114Y-43314384D02*
X101920828Y-43385813D01*
X101920828Y-43385813D02*
X101956542Y-43528670D01*
X101956542Y-43528670D02*
X101956542Y-43707242D01*
X101956542Y-43707242D02*
X101920828Y-43850099D01*
X101920828Y-43850099D02*
X101885114Y-43921527D01*
X101885114Y-43921527D02*
X101849399Y-43957242D01*
X101849399Y-43957242D02*
X101777971Y-43992956D01*
X101777971Y-43992956D02*
X101706542Y-43992956D01*
X101706542Y-43992956D02*
X101635114Y-43957242D01*
X101635114Y-43957242D02*
X101599399Y-43921527D01*
X101599399Y-43921527D02*
X101563685Y-43850099D01*
X101563685Y-43850099D02*
X101527971Y-43707242D01*
X101527971Y-43707242D02*
X101527971Y-43528670D01*
X101527971Y-43528670D02*
X101563685Y-43385813D01*
X101563685Y-43385813D02*
X101599399Y-43314384D01*
X101599399Y-43314384D02*
X101635114Y-43278670D01*
X101635114Y-43278670D02*
X101706542Y-43242956D01*
X102670828Y-43992956D02*
X102242257Y-43992956D01*
X102456542Y-43992956D02*
X102456542Y-43242956D01*
X102456542Y-43242956D02*
X102385114Y-43350099D01*
X102385114Y-43350099D02*
X102313685Y-43421527D01*
X102313685Y-43421527D02*
X102242257Y-43457242D01*
X103385114Y-43992956D02*
X102956543Y-43992956D01*
X103170828Y-43992956D02*
X103170828Y-43242956D01*
X103170828Y-43242956D02*
X103099400Y-43350099D01*
X103099400Y-43350099D02*
X103027971Y-43421527D01*
X103027971Y-43421527D02*
X102956543Y-43457242D01*
X98135112Y-44450414D02*
X98206541Y-44450414D01*
X98206541Y-44450414D02*
X98277969Y-44486128D01*
X98277969Y-44486128D02*
X98313684Y-44521842D01*
X98313684Y-44521842D02*
X98349398Y-44593271D01*
X98349398Y-44593271D02*
X98385112Y-44736128D01*
X98385112Y-44736128D02*
X98385112Y-44914700D01*
X98385112Y-44914700D02*
X98349398Y-45057557D01*
X98349398Y-45057557D02*
X98313684Y-45128985D01*
X98313684Y-45128985D02*
X98277969Y-45164700D01*
X98277969Y-45164700D02*
X98206541Y-45200414D01*
X98206541Y-45200414D02*
X98135112Y-45200414D01*
X98135112Y-45200414D02*
X98063684Y-45164700D01*
X98063684Y-45164700D02*
X98027969Y-45128985D01*
X98027969Y-45128985D02*
X97992255Y-45057557D01*
X97992255Y-45057557D02*
X97956541Y-44914700D01*
X97956541Y-44914700D02*
X97956541Y-44736128D01*
X97956541Y-44736128D02*
X97992255Y-44593271D01*
X97992255Y-44593271D02*
X98027969Y-44521842D01*
X98027969Y-44521842D02*
X98063684Y-44486128D01*
X98063684Y-44486128D02*
X98135112Y-44450414D01*
X99099398Y-45200414D02*
X98670827Y-45200414D01*
X98885112Y-45200414D02*
X98885112Y-44450414D01*
X98885112Y-44450414D02*
X98813684Y-44557557D01*
X98813684Y-44557557D02*
X98742255Y-44628985D01*
X98742255Y-44628985D02*
X98670827Y-44664700D01*
X99813684Y-45200414D02*
X99385113Y-45200414D01*
X99599398Y-45200414D02*
X99599398Y-44450414D01*
X99599398Y-44450414D02*
X99527970Y-44557557D01*
X99527970Y-44557557D02*
X99456541Y-44628985D01*
X99456541Y-44628985D02*
X99385113Y-44664700D01*
X100277970Y-44450414D02*
X100349399Y-44450414D01*
X100349399Y-44450414D02*
X100420827Y-44486128D01*
X100420827Y-44486128D02*
X100456542Y-44521842D01*
X100456542Y-44521842D02*
X100492256Y-44593271D01*
X100492256Y-44593271D02*
X100527970Y-44736128D01*
X100527970Y-44736128D02*
X100527970Y-44914700D01*
X100527970Y-44914700D02*
X100492256Y-45057557D01*
X100492256Y-45057557D02*
X100456542Y-45128985D01*
X100456542Y-45128985D02*
X100420827Y-45164700D01*
X100420827Y-45164700D02*
X100349399Y-45200414D01*
X100349399Y-45200414D02*
X100277970Y-45200414D01*
X100277970Y-45200414D02*
X100206542Y-45164700D01*
X100206542Y-45164700D02*
X100170827Y-45128985D01*
X100170827Y-45128985D02*
X100135113Y-45057557D01*
X100135113Y-45057557D02*
X100099399Y-44914700D01*
X100099399Y-44914700D02*
X100099399Y-44736128D01*
X100099399Y-44736128D02*
X100135113Y-44593271D01*
X100135113Y-44593271D02*
X100170827Y-44521842D01*
X100170827Y-44521842D02*
X100206542Y-44486128D01*
X100206542Y-44486128D02*
X100277970Y-44450414D01*
X101242256Y-45200414D02*
X100813685Y-45200414D01*
X101027970Y-45200414D02*
X101027970Y-44450414D01*
X101027970Y-44450414D02*
X100956542Y-44557557D01*
X100956542Y-44557557D02*
X100885113Y-44628985D01*
X100885113Y-44628985D02*
X100813685Y-44664700D01*
X101706542Y-44450414D02*
X101777971Y-44450414D01*
X101777971Y-44450414D02*
X101849399Y-44486128D01*
X101849399Y-44486128D02*
X101885114Y-44521842D01*
X101885114Y-44521842D02*
X101920828Y-44593271D01*
X101920828Y-44593271D02*
X101956542Y-44736128D01*
X101956542Y-44736128D02*
X101956542Y-44914700D01*
X101956542Y-44914700D02*
X101920828Y-45057557D01*
X101920828Y-45057557D02*
X101885114Y-45128985D01*
X101885114Y-45128985D02*
X101849399Y-45164700D01*
X101849399Y-45164700D02*
X101777971Y-45200414D01*
X101777971Y-45200414D02*
X101706542Y-45200414D01*
X101706542Y-45200414D02*
X101635114Y-45164700D01*
X101635114Y-45164700D02*
X101599399Y-45128985D01*
X101599399Y-45128985D02*
X101563685Y-45057557D01*
X101563685Y-45057557D02*
X101527971Y-44914700D01*
X101527971Y-44914700D02*
X101527971Y-44736128D01*
X101527971Y-44736128D02*
X101563685Y-44593271D01*
X101563685Y-44593271D02*
X101599399Y-44521842D01*
X101599399Y-44521842D02*
X101635114Y-44486128D01*
X101635114Y-44486128D02*
X101706542Y-44450414D01*
X102420828Y-44450414D02*
X102492257Y-44450414D01*
X102492257Y-44450414D02*
X102563685Y-44486128D01*
X102563685Y-44486128D02*
X102599400Y-44521842D01*
X102599400Y-44521842D02*
X102635114Y-44593271D01*
X102635114Y-44593271D02*
X102670828Y-44736128D01*
X102670828Y-44736128D02*
X102670828Y-44914700D01*
X102670828Y-44914700D02*
X102635114Y-45057557D01*
X102635114Y-45057557D02*
X102599400Y-45128985D01*
X102599400Y-45128985D02*
X102563685Y-45164700D01*
X102563685Y-45164700D02*
X102492257Y-45200414D01*
X102492257Y-45200414D02*
X102420828Y-45200414D01*
X102420828Y-45200414D02*
X102349400Y-45164700D01*
X102349400Y-45164700D02*
X102313685Y-45128985D01*
X102313685Y-45128985D02*
X102277971Y-45057557D01*
X102277971Y-45057557D02*
X102242257Y-44914700D01*
X102242257Y-44914700D02*
X102242257Y-44736128D01*
X102242257Y-44736128D02*
X102277971Y-44593271D01*
X102277971Y-44593271D02*
X102313685Y-44521842D01*
X102313685Y-44521842D02*
X102349400Y-44486128D01*
X102349400Y-44486128D02*
X102420828Y-44450414D01*
X103385114Y-45200414D02*
X102956543Y-45200414D01*
X103170828Y-45200414D02*
X103170828Y-44450414D01*
X103170828Y-44450414D02*
X103099400Y-44557557D01*
X103099400Y-44557557D02*
X103027971Y-44628985D01*
X103027971Y-44628985D02*
X102956543Y-44664700D01*
X98135112Y-33133040D02*
X98206541Y-33133040D01*
X98206541Y-33133040D02*
X98277969Y-33168754D01*
X98277969Y-33168754D02*
X98313684Y-33204468D01*
X98313684Y-33204468D02*
X98349398Y-33275897D01*
X98349398Y-33275897D02*
X98385112Y-33418754D01*
X98385112Y-33418754D02*
X98385112Y-33597326D01*
X98385112Y-33597326D02*
X98349398Y-33740183D01*
X98349398Y-33740183D02*
X98313684Y-33811611D01*
X98313684Y-33811611D02*
X98277969Y-33847326D01*
X98277969Y-33847326D02*
X98206541Y-33883040D01*
X98206541Y-33883040D02*
X98135112Y-33883040D01*
X98135112Y-33883040D02*
X98063684Y-33847326D01*
X98063684Y-33847326D02*
X98027969Y-33811611D01*
X98027969Y-33811611D02*
X97992255Y-33740183D01*
X97992255Y-33740183D02*
X97956541Y-33597326D01*
X97956541Y-33597326D02*
X97956541Y-33418754D01*
X97956541Y-33418754D02*
X97992255Y-33275897D01*
X97992255Y-33275897D02*
X98027969Y-33204468D01*
X98027969Y-33204468D02*
X98063684Y-33168754D01*
X98063684Y-33168754D02*
X98135112Y-33133040D01*
X99099398Y-33883040D02*
X98670827Y-33883040D01*
X98885112Y-33883040D02*
X98885112Y-33133040D01*
X98885112Y-33133040D02*
X98813684Y-33240183D01*
X98813684Y-33240183D02*
X98742255Y-33311611D01*
X98742255Y-33311611D02*
X98670827Y-33347326D01*
X99813684Y-33883040D02*
X99385113Y-33883040D01*
X99599398Y-33883040D02*
X99599398Y-33133040D01*
X99599398Y-33133040D02*
X99527970Y-33240183D01*
X99527970Y-33240183D02*
X99456541Y-33311611D01*
X99456541Y-33311611D02*
X99385113Y-33347326D01*
X100527970Y-33883040D02*
X100099399Y-33883040D01*
X100313684Y-33883040D02*
X100313684Y-33133040D01*
X100313684Y-33133040D02*
X100242256Y-33240183D01*
X100242256Y-33240183D02*
X100170827Y-33311611D01*
X100170827Y-33311611D02*
X100099399Y-33347326D01*
X100992256Y-33133040D02*
X101063685Y-33133040D01*
X101063685Y-33133040D02*
X101135113Y-33168754D01*
X101135113Y-33168754D02*
X101170828Y-33204468D01*
X101170828Y-33204468D02*
X101206542Y-33275897D01*
X101206542Y-33275897D02*
X101242256Y-33418754D01*
X101242256Y-33418754D02*
X101242256Y-33597326D01*
X101242256Y-33597326D02*
X101206542Y-33740183D01*
X101206542Y-33740183D02*
X101170828Y-33811611D01*
X101170828Y-33811611D02*
X101135113Y-33847326D01*
X101135113Y-33847326D02*
X101063685Y-33883040D01*
X101063685Y-33883040D02*
X100992256Y-33883040D01*
X100992256Y-33883040D02*
X100920828Y-33847326D01*
X100920828Y-33847326D02*
X100885113Y-33811611D01*
X100885113Y-33811611D02*
X100849399Y-33740183D01*
X100849399Y-33740183D02*
X100813685Y-33597326D01*
X100813685Y-33597326D02*
X100813685Y-33418754D01*
X100813685Y-33418754D02*
X100849399Y-33275897D01*
X100849399Y-33275897D02*
X100885113Y-33204468D01*
X100885113Y-33204468D02*
X100920828Y-33168754D01*
X100920828Y-33168754D02*
X100992256Y-33133040D01*
X101956542Y-33883040D02*
X101527971Y-33883040D01*
X101742256Y-33883040D02*
X101742256Y-33133040D01*
X101742256Y-33133040D02*
X101670828Y-33240183D01*
X101670828Y-33240183D02*
X101599399Y-33311611D01*
X101599399Y-33311611D02*
X101527971Y-33347326D01*
X102670828Y-33883040D02*
X102242257Y-33883040D01*
X102456542Y-33883040D02*
X102456542Y-33133040D01*
X102456542Y-33133040D02*
X102385114Y-33240183D01*
X102385114Y-33240183D02*
X102313685Y-33311611D01*
X102313685Y-33311611D02*
X102242257Y-33347326D01*
X103135114Y-33133040D02*
X103206543Y-33133040D01*
X103206543Y-33133040D02*
X103277971Y-33168754D01*
X103277971Y-33168754D02*
X103313686Y-33204468D01*
X103313686Y-33204468D02*
X103349400Y-33275897D01*
X103349400Y-33275897D02*
X103385114Y-33418754D01*
X103385114Y-33418754D02*
X103385114Y-33597326D01*
X103385114Y-33597326D02*
X103349400Y-33740183D01*
X103349400Y-33740183D02*
X103313686Y-33811611D01*
X103313686Y-33811611D02*
X103277971Y-33847326D01*
X103277971Y-33847326D02*
X103206543Y-33883040D01*
X103206543Y-33883040D02*
X103135114Y-33883040D01*
X103135114Y-33883040D02*
X103063686Y-33847326D01*
X103063686Y-33847326D02*
X103027971Y-33811611D01*
X103027971Y-33811611D02*
X102992257Y-33740183D01*
X102992257Y-33740183D02*
X102956543Y-33597326D01*
X102956543Y-33597326D02*
X102956543Y-33418754D01*
X102956543Y-33418754D02*
X102992257Y-33275897D01*
X102992257Y-33275897D02*
X103027971Y-33204468D01*
X103027971Y-33204468D02*
X103063686Y-33168754D01*
X103063686Y-33168754D02*
X103135114Y-33133040D01*
X98135112Y-34340498D02*
X98206541Y-34340498D01*
X98206541Y-34340498D02*
X98277969Y-34376212D01*
X98277969Y-34376212D02*
X98313684Y-34411926D01*
X98313684Y-34411926D02*
X98349398Y-34483355D01*
X98349398Y-34483355D02*
X98385112Y-34626212D01*
X98385112Y-34626212D02*
X98385112Y-34804784D01*
X98385112Y-34804784D02*
X98349398Y-34947641D01*
X98349398Y-34947641D02*
X98313684Y-35019069D01*
X98313684Y-35019069D02*
X98277969Y-35054784D01*
X98277969Y-35054784D02*
X98206541Y-35090498D01*
X98206541Y-35090498D02*
X98135112Y-35090498D01*
X98135112Y-35090498D02*
X98063684Y-35054784D01*
X98063684Y-35054784D02*
X98027969Y-35019069D01*
X98027969Y-35019069D02*
X97992255Y-34947641D01*
X97992255Y-34947641D02*
X97956541Y-34804784D01*
X97956541Y-34804784D02*
X97956541Y-34626212D01*
X97956541Y-34626212D02*
X97992255Y-34483355D01*
X97992255Y-34483355D02*
X98027969Y-34411926D01*
X98027969Y-34411926D02*
X98063684Y-34376212D01*
X98063684Y-34376212D02*
X98135112Y-34340498D01*
X99099398Y-35090498D02*
X98670827Y-35090498D01*
X98885112Y-35090498D02*
X98885112Y-34340498D01*
X98885112Y-34340498D02*
X98813684Y-34447641D01*
X98813684Y-34447641D02*
X98742255Y-34519069D01*
X98742255Y-34519069D02*
X98670827Y-34554784D01*
X99813684Y-35090498D02*
X99385113Y-35090498D01*
X99599398Y-35090498D02*
X99599398Y-34340498D01*
X99599398Y-34340498D02*
X99527970Y-34447641D01*
X99527970Y-34447641D02*
X99456541Y-34519069D01*
X99456541Y-34519069D02*
X99385113Y-34554784D01*
X100277970Y-34340498D02*
X100349399Y-34340498D01*
X100349399Y-34340498D02*
X100420827Y-34376212D01*
X100420827Y-34376212D02*
X100456542Y-34411926D01*
X100456542Y-34411926D02*
X100492256Y-34483355D01*
X100492256Y-34483355D02*
X100527970Y-34626212D01*
X100527970Y-34626212D02*
X100527970Y-34804784D01*
X100527970Y-34804784D02*
X100492256Y-34947641D01*
X100492256Y-34947641D02*
X100456542Y-35019069D01*
X100456542Y-35019069D02*
X100420827Y-35054784D01*
X100420827Y-35054784D02*
X100349399Y-35090498D01*
X100349399Y-35090498D02*
X100277970Y-35090498D01*
X100277970Y-35090498D02*
X100206542Y-35054784D01*
X100206542Y-35054784D02*
X100170827Y-35019069D01*
X100170827Y-35019069D02*
X100135113Y-34947641D01*
X100135113Y-34947641D02*
X100099399Y-34804784D01*
X100099399Y-34804784D02*
X100099399Y-34626212D01*
X100099399Y-34626212D02*
X100135113Y-34483355D01*
X100135113Y-34483355D02*
X100170827Y-34411926D01*
X100170827Y-34411926D02*
X100206542Y-34376212D01*
X100206542Y-34376212D02*
X100277970Y-34340498D01*
X101242256Y-35090498D02*
X100813685Y-35090498D01*
X101027970Y-35090498D02*
X101027970Y-34340498D01*
X101027970Y-34340498D02*
X100956542Y-34447641D01*
X100956542Y-34447641D02*
X100885113Y-34519069D01*
X100885113Y-34519069D02*
X100813685Y-34554784D01*
X101706542Y-34340498D02*
X101777971Y-34340498D01*
X101777971Y-34340498D02*
X101849399Y-34376212D01*
X101849399Y-34376212D02*
X101885114Y-34411926D01*
X101885114Y-34411926D02*
X101920828Y-34483355D01*
X101920828Y-34483355D02*
X101956542Y-34626212D01*
X101956542Y-34626212D02*
X101956542Y-34804784D01*
X101956542Y-34804784D02*
X101920828Y-34947641D01*
X101920828Y-34947641D02*
X101885114Y-35019069D01*
X101885114Y-35019069D02*
X101849399Y-35054784D01*
X101849399Y-35054784D02*
X101777971Y-35090498D01*
X101777971Y-35090498D02*
X101706542Y-35090498D01*
X101706542Y-35090498D02*
X101635114Y-35054784D01*
X101635114Y-35054784D02*
X101599399Y-35019069D01*
X101599399Y-35019069D02*
X101563685Y-34947641D01*
X101563685Y-34947641D02*
X101527971Y-34804784D01*
X101527971Y-34804784D02*
X101527971Y-34626212D01*
X101527971Y-34626212D02*
X101563685Y-34483355D01*
X101563685Y-34483355D02*
X101599399Y-34411926D01*
X101599399Y-34411926D02*
X101635114Y-34376212D01*
X101635114Y-34376212D02*
X101706542Y-34340498D01*
X102420828Y-34340498D02*
X102492257Y-34340498D01*
X102492257Y-34340498D02*
X102563685Y-34376212D01*
X102563685Y-34376212D02*
X102599400Y-34411926D01*
X102599400Y-34411926D02*
X102635114Y-34483355D01*
X102635114Y-34483355D02*
X102670828Y-34626212D01*
X102670828Y-34626212D02*
X102670828Y-34804784D01*
X102670828Y-34804784D02*
X102635114Y-34947641D01*
X102635114Y-34947641D02*
X102599400Y-35019069D01*
X102599400Y-35019069D02*
X102563685Y-35054784D01*
X102563685Y-35054784D02*
X102492257Y-35090498D01*
X102492257Y-35090498D02*
X102420828Y-35090498D01*
X102420828Y-35090498D02*
X102349400Y-35054784D01*
X102349400Y-35054784D02*
X102313685Y-35019069D01*
X102313685Y-35019069D02*
X102277971Y-34947641D01*
X102277971Y-34947641D02*
X102242257Y-34804784D01*
X102242257Y-34804784D02*
X102242257Y-34626212D01*
X102242257Y-34626212D02*
X102277971Y-34483355D01*
X102277971Y-34483355D02*
X102313685Y-34411926D01*
X102313685Y-34411926D02*
X102349400Y-34376212D01*
X102349400Y-34376212D02*
X102420828Y-34340498D01*
X103385114Y-35090498D02*
X102956543Y-35090498D01*
X103170828Y-35090498D02*
X103170828Y-34340498D01*
X103170828Y-34340498D02*
X103099400Y-34447641D01*
X103099400Y-34447641D02*
X103027971Y-34519069D01*
X103027971Y-34519069D02*
X102956543Y-34554784D01*
X98135112Y-35547956D02*
X98206541Y-35547956D01*
X98206541Y-35547956D02*
X98277969Y-35583670D01*
X98277969Y-35583670D02*
X98313684Y-35619384D01*
X98313684Y-35619384D02*
X98349398Y-35690813D01*
X98349398Y-35690813D02*
X98385112Y-35833670D01*
X98385112Y-35833670D02*
X98385112Y-36012242D01*
X98385112Y-36012242D02*
X98349398Y-36155099D01*
X98349398Y-36155099D02*
X98313684Y-36226527D01*
X98313684Y-36226527D02*
X98277969Y-36262242D01*
X98277969Y-36262242D02*
X98206541Y-36297956D01*
X98206541Y-36297956D02*
X98135112Y-36297956D01*
X98135112Y-36297956D02*
X98063684Y-36262242D01*
X98063684Y-36262242D02*
X98027969Y-36226527D01*
X98027969Y-36226527D02*
X97992255Y-36155099D01*
X97992255Y-36155099D02*
X97956541Y-36012242D01*
X97956541Y-36012242D02*
X97956541Y-35833670D01*
X97956541Y-35833670D02*
X97992255Y-35690813D01*
X97992255Y-35690813D02*
X98027969Y-35619384D01*
X98027969Y-35619384D02*
X98063684Y-35583670D01*
X98063684Y-35583670D02*
X98135112Y-35547956D01*
X99099398Y-36297956D02*
X98670827Y-36297956D01*
X98885112Y-36297956D02*
X98885112Y-35547956D01*
X98885112Y-35547956D02*
X98813684Y-35655099D01*
X98813684Y-35655099D02*
X98742255Y-35726527D01*
X98742255Y-35726527D02*
X98670827Y-35762242D01*
X99813684Y-36297956D02*
X99385113Y-36297956D01*
X99599398Y-36297956D02*
X99599398Y-35547956D01*
X99599398Y-35547956D02*
X99527970Y-35655099D01*
X99527970Y-35655099D02*
X99456541Y-35726527D01*
X99456541Y-35726527D02*
X99385113Y-35762242D01*
X100277970Y-35547956D02*
X100349399Y-35547956D01*
X100349399Y-35547956D02*
X100420827Y-35583670D01*
X100420827Y-35583670D02*
X100456542Y-35619384D01*
X100456542Y-35619384D02*
X100492256Y-35690813D01*
X100492256Y-35690813D02*
X100527970Y-35833670D01*
X100527970Y-35833670D02*
X100527970Y-36012242D01*
X100527970Y-36012242D02*
X100492256Y-36155099D01*
X100492256Y-36155099D02*
X100456542Y-36226527D01*
X100456542Y-36226527D02*
X100420827Y-36262242D01*
X100420827Y-36262242D02*
X100349399Y-36297956D01*
X100349399Y-36297956D02*
X100277970Y-36297956D01*
X100277970Y-36297956D02*
X100206542Y-36262242D01*
X100206542Y-36262242D02*
X100170827Y-36226527D01*
X100170827Y-36226527D02*
X100135113Y-36155099D01*
X100135113Y-36155099D02*
X100099399Y-36012242D01*
X100099399Y-36012242D02*
X100099399Y-35833670D01*
X100099399Y-35833670D02*
X100135113Y-35690813D01*
X100135113Y-35690813D02*
X100170827Y-35619384D01*
X100170827Y-35619384D02*
X100206542Y-35583670D01*
X100206542Y-35583670D02*
X100277970Y-35547956D01*
X100992256Y-35547956D02*
X101063685Y-35547956D01*
X101063685Y-35547956D02*
X101135113Y-35583670D01*
X101135113Y-35583670D02*
X101170828Y-35619384D01*
X101170828Y-35619384D02*
X101206542Y-35690813D01*
X101206542Y-35690813D02*
X101242256Y-35833670D01*
X101242256Y-35833670D02*
X101242256Y-36012242D01*
X101242256Y-36012242D02*
X101206542Y-36155099D01*
X101206542Y-36155099D02*
X101170828Y-36226527D01*
X101170828Y-36226527D02*
X101135113Y-36262242D01*
X101135113Y-36262242D02*
X101063685Y-36297956D01*
X101063685Y-36297956D02*
X100992256Y-36297956D01*
X100992256Y-36297956D02*
X100920828Y-36262242D01*
X100920828Y-36262242D02*
X100885113Y-36226527D01*
X100885113Y-36226527D02*
X100849399Y-36155099D01*
X100849399Y-36155099D02*
X100813685Y-36012242D01*
X100813685Y-36012242D02*
X100813685Y-35833670D01*
X100813685Y-35833670D02*
X100849399Y-35690813D01*
X100849399Y-35690813D02*
X100885113Y-35619384D01*
X100885113Y-35619384D02*
X100920828Y-35583670D01*
X100920828Y-35583670D02*
X100992256Y-35547956D01*
X101956542Y-36297956D02*
X101527971Y-36297956D01*
X101742256Y-36297956D02*
X101742256Y-35547956D01*
X101742256Y-35547956D02*
X101670828Y-35655099D01*
X101670828Y-35655099D02*
X101599399Y-35726527D01*
X101599399Y-35726527D02*
X101527971Y-35762242D01*
X102420828Y-35547956D02*
X102492257Y-35547956D01*
X102492257Y-35547956D02*
X102563685Y-35583670D01*
X102563685Y-35583670D02*
X102599400Y-35619384D01*
X102599400Y-35619384D02*
X102635114Y-35690813D01*
X102635114Y-35690813D02*
X102670828Y-35833670D01*
X102670828Y-35833670D02*
X102670828Y-36012242D01*
X102670828Y-36012242D02*
X102635114Y-36155099D01*
X102635114Y-36155099D02*
X102599400Y-36226527D01*
X102599400Y-36226527D02*
X102563685Y-36262242D01*
X102563685Y-36262242D02*
X102492257Y-36297956D01*
X102492257Y-36297956D02*
X102420828Y-36297956D01*
X102420828Y-36297956D02*
X102349400Y-36262242D01*
X102349400Y-36262242D02*
X102313685Y-36226527D01*
X102313685Y-36226527D02*
X102277971Y-36155099D01*
X102277971Y-36155099D02*
X102242257Y-36012242D01*
X102242257Y-36012242D02*
X102242257Y-35833670D01*
X102242257Y-35833670D02*
X102277971Y-35690813D01*
X102277971Y-35690813D02*
X102313685Y-35619384D01*
X102313685Y-35619384D02*
X102349400Y-35583670D01*
X102349400Y-35583670D02*
X102420828Y-35547956D01*
X103135114Y-35547956D02*
X103206543Y-35547956D01*
X103206543Y-35547956D02*
X103277971Y-35583670D01*
X103277971Y-35583670D02*
X103313686Y-35619384D01*
X103313686Y-35619384D02*
X103349400Y-35690813D01*
X103349400Y-35690813D02*
X103385114Y-35833670D01*
X103385114Y-35833670D02*
X103385114Y-36012242D01*
X103385114Y-36012242D02*
X103349400Y-36155099D01*
X103349400Y-36155099D02*
X103313686Y-36226527D01*
X103313686Y-36226527D02*
X103277971Y-36262242D01*
X103277971Y-36262242D02*
X103206543Y-36297956D01*
X103206543Y-36297956D02*
X103135114Y-36297956D01*
X103135114Y-36297956D02*
X103063686Y-36262242D01*
X103063686Y-36262242D02*
X103027971Y-36226527D01*
X103027971Y-36226527D02*
X102992257Y-36155099D01*
X102992257Y-36155099D02*
X102956543Y-36012242D01*
X102956543Y-36012242D02*
X102956543Y-35833670D01*
X102956543Y-35833670D02*
X102992257Y-35690813D01*
X102992257Y-35690813D02*
X103027971Y-35619384D01*
X103027971Y-35619384D02*
X103063686Y-35583670D01*
X103063686Y-35583670D02*
X103135114Y-35547956D01*
X98135112Y-36755414D02*
X98206541Y-36755414D01*
X98206541Y-36755414D02*
X98277969Y-36791128D01*
X98277969Y-36791128D02*
X98313684Y-36826842D01*
X98313684Y-36826842D02*
X98349398Y-36898271D01*
X98349398Y-36898271D02*
X98385112Y-37041128D01*
X98385112Y-37041128D02*
X98385112Y-37219700D01*
X98385112Y-37219700D02*
X98349398Y-37362557D01*
X98349398Y-37362557D02*
X98313684Y-37433985D01*
X98313684Y-37433985D02*
X98277969Y-37469700D01*
X98277969Y-37469700D02*
X98206541Y-37505414D01*
X98206541Y-37505414D02*
X98135112Y-37505414D01*
X98135112Y-37505414D02*
X98063684Y-37469700D01*
X98063684Y-37469700D02*
X98027969Y-37433985D01*
X98027969Y-37433985D02*
X97992255Y-37362557D01*
X97992255Y-37362557D02*
X97956541Y-37219700D01*
X97956541Y-37219700D02*
X97956541Y-37041128D01*
X97956541Y-37041128D02*
X97992255Y-36898271D01*
X97992255Y-36898271D02*
X98027969Y-36826842D01*
X98027969Y-36826842D02*
X98063684Y-36791128D01*
X98063684Y-36791128D02*
X98135112Y-36755414D01*
X99099398Y-37505414D02*
X98670827Y-37505414D01*
X98885112Y-37505414D02*
X98885112Y-36755414D01*
X98885112Y-36755414D02*
X98813684Y-36862557D01*
X98813684Y-36862557D02*
X98742255Y-36933985D01*
X98742255Y-36933985D02*
X98670827Y-36969700D01*
X99813684Y-37505414D02*
X99385113Y-37505414D01*
X99599398Y-37505414D02*
X99599398Y-36755414D01*
X99599398Y-36755414D02*
X99527970Y-36862557D01*
X99527970Y-36862557D02*
X99456541Y-36933985D01*
X99456541Y-36933985D02*
X99385113Y-36969700D01*
X100277970Y-36755414D02*
X100349399Y-36755414D01*
X100349399Y-36755414D02*
X100420827Y-36791128D01*
X100420827Y-36791128D02*
X100456542Y-36826842D01*
X100456542Y-36826842D02*
X100492256Y-36898271D01*
X100492256Y-36898271D02*
X100527970Y-37041128D01*
X100527970Y-37041128D02*
X100527970Y-37219700D01*
X100527970Y-37219700D02*
X100492256Y-37362557D01*
X100492256Y-37362557D02*
X100456542Y-37433985D01*
X100456542Y-37433985D02*
X100420827Y-37469700D01*
X100420827Y-37469700D02*
X100349399Y-37505414D01*
X100349399Y-37505414D02*
X100277970Y-37505414D01*
X100277970Y-37505414D02*
X100206542Y-37469700D01*
X100206542Y-37469700D02*
X100170827Y-37433985D01*
X100170827Y-37433985D02*
X100135113Y-37362557D01*
X100135113Y-37362557D02*
X100099399Y-37219700D01*
X100099399Y-37219700D02*
X100099399Y-37041128D01*
X100099399Y-37041128D02*
X100135113Y-36898271D01*
X100135113Y-36898271D02*
X100170827Y-36826842D01*
X100170827Y-36826842D02*
X100206542Y-36791128D01*
X100206542Y-36791128D02*
X100277970Y-36755414D01*
X101242256Y-37505414D02*
X100813685Y-37505414D01*
X101027970Y-37505414D02*
X101027970Y-36755414D01*
X101027970Y-36755414D02*
X100956542Y-36862557D01*
X100956542Y-36862557D02*
X100885113Y-36933985D01*
X100885113Y-36933985D02*
X100813685Y-36969700D01*
X101706542Y-36755414D02*
X101777971Y-36755414D01*
X101777971Y-36755414D02*
X101849399Y-36791128D01*
X101849399Y-36791128D02*
X101885114Y-36826842D01*
X101885114Y-36826842D02*
X101920828Y-36898271D01*
X101920828Y-36898271D02*
X101956542Y-37041128D01*
X101956542Y-37041128D02*
X101956542Y-37219700D01*
X101956542Y-37219700D02*
X101920828Y-37362557D01*
X101920828Y-37362557D02*
X101885114Y-37433985D01*
X101885114Y-37433985D02*
X101849399Y-37469700D01*
X101849399Y-37469700D02*
X101777971Y-37505414D01*
X101777971Y-37505414D02*
X101706542Y-37505414D01*
X101706542Y-37505414D02*
X101635114Y-37469700D01*
X101635114Y-37469700D02*
X101599399Y-37433985D01*
X101599399Y-37433985D02*
X101563685Y-37362557D01*
X101563685Y-37362557D02*
X101527971Y-37219700D01*
X101527971Y-37219700D02*
X101527971Y-37041128D01*
X101527971Y-37041128D02*
X101563685Y-36898271D01*
X101563685Y-36898271D02*
X101599399Y-36826842D01*
X101599399Y-36826842D02*
X101635114Y-36791128D01*
X101635114Y-36791128D02*
X101706542Y-36755414D01*
X102420828Y-36755414D02*
X102492257Y-36755414D01*
X102492257Y-36755414D02*
X102563685Y-36791128D01*
X102563685Y-36791128D02*
X102599400Y-36826842D01*
X102599400Y-36826842D02*
X102635114Y-36898271D01*
X102635114Y-36898271D02*
X102670828Y-37041128D01*
X102670828Y-37041128D02*
X102670828Y-37219700D01*
X102670828Y-37219700D02*
X102635114Y-37362557D01*
X102635114Y-37362557D02*
X102599400Y-37433985D01*
X102599400Y-37433985D02*
X102563685Y-37469700D01*
X102563685Y-37469700D02*
X102492257Y-37505414D01*
X102492257Y-37505414D02*
X102420828Y-37505414D01*
X102420828Y-37505414D02*
X102349400Y-37469700D01*
X102349400Y-37469700D02*
X102313685Y-37433985D01*
X102313685Y-37433985D02*
X102277971Y-37362557D01*
X102277971Y-37362557D02*
X102242257Y-37219700D01*
X102242257Y-37219700D02*
X102242257Y-37041128D01*
X102242257Y-37041128D02*
X102277971Y-36898271D01*
X102277971Y-36898271D02*
X102313685Y-36826842D01*
X102313685Y-36826842D02*
X102349400Y-36791128D01*
X102349400Y-36791128D02*
X102420828Y-36755414D01*
X103385114Y-37505414D02*
X102956543Y-37505414D01*
X103170828Y-37505414D02*
X103170828Y-36755414D01*
X103170828Y-36755414D02*
X103099400Y-36862557D01*
X103099400Y-36862557D02*
X103027971Y-36933985D01*
X103027971Y-36933985D02*
X102956543Y-36969700D01*
X98135112Y-25143040D02*
X98206541Y-25143040D01*
X98206541Y-25143040D02*
X98277969Y-25178754D01*
X98277969Y-25178754D02*
X98313684Y-25214468D01*
X98313684Y-25214468D02*
X98349398Y-25285897D01*
X98349398Y-25285897D02*
X98385112Y-25428754D01*
X98385112Y-25428754D02*
X98385112Y-25607326D01*
X98385112Y-25607326D02*
X98349398Y-25750183D01*
X98349398Y-25750183D02*
X98313684Y-25821611D01*
X98313684Y-25821611D02*
X98277969Y-25857326D01*
X98277969Y-25857326D02*
X98206541Y-25893040D01*
X98206541Y-25893040D02*
X98135112Y-25893040D01*
X98135112Y-25893040D02*
X98063684Y-25857326D01*
X98063684Y-25857326D02*
X98027969Y-25821611D01*
X98027969Y-25821611D02*
X97992255Y-25750183D01*
X97992255Y-25750183D02*
X97956541Y-25607326D01*
X97956541Y-25607326D02*
X97956541Y-25428754D01*
X97956541Y-25428754D02*
X97992255Y-25285897D01*
X97992255Y-25285897D02*
X98027969Y-25214468D01*
X98027969Y-25214468D02*
X98063684Y-25178754D01*
X98063684Y-25178754D02*
X98135112Y-25143040D01*
X99099398Y-25893040D02*
X98670827Y-25893040D01*
X98885112Y-25893040D02*
X98885112Y-25143040D01*
X98885112Y-25143040D02*
X98813684Y-25250183D01*
X98813684Y-25250183D02*
X98742255Y-25321611D01*
X98742255Y-25321611D02*
X98670827Y-25357326D01*
X99813684Y-25893040D02*
X99385113Y-25893040D01*
X99599398Y-25893040D02*
X99599398Y-25143040D01*
X99599398Y-25143040D02*
X99527970Y-25250183D01*
X99527970Y-25250183D02*
X99456541Y-25321611D01*
X99456541Y-25321611D02*
X99385113Y-25357326D01*
X100527970Y-25893040D02*
X100099399Y-25893040D01*
X100313684Y-25893040D02*
X100313684Y-25143040D01*
X100313684Y-25143040D02*
X100242256Y-25250183D01*
X100242256Y-25250183D02*
X100170827Y-25321611D01*
X100170827Y-25321611D02*
X100099399Y-25357326D01*
X100992256Y-25143040D02*
X101063685Y-25143040D01*
X101063685Y-25143040D02*
X101135113Y-25178754D01*
X101135113Y-25178754D02*
X101170828Y-25214468D01*
X101170828Y-25214468D02*
X101206542Y-25285897D01*
X101206542Y-25285897D02*
X101242256Y-25428754D01*
X101242256Y-25428754D02*
X101242256Y-25607326D01*
X101242256Y-25607326D02*
X101206542Y-25750183D01*
X101206542Y-25750183D02*
X101170828Y-25821611D01*
X101170828Y-25821611D02*
X101135113Y-25857326D01*
X101135113Y-25857326D02*
X101063685Y-25893040D01*
X101063685Y-25893040D02*
X100992256Y-25893040D01*
X100992256Y-25893040D02*
X100920828Y-25857326D01*
X100920828Y-25857326D02*
X100885113Y-25821611D01*
X100885113Y-25821611D02*
X100849399Y-25750183D01*
X100849399Y-25750183D02*
X100813685Y-25607326D01*
X100813685Y-25607326D02*
X100813685Y-25428754D01*
X100813685Y-25428754D02*
X100849399Y-25285897D01*
X100849399Y-25285897D02*
X100885113Y-25214468D01*
X100885113Y-25214468D02*
X100920828Y-25178754D01*
X100920828Y-25178754D02*
X100992256Y-25143040D01*
X101956542Y-25893040D02*
X101527971Y-25893040D01*
X101742256Y-25893040D02*
X101742256Y-25143040D01*
X101742256Y-25143040D02*
X101670828Y-25250183D01*
X101670828Y-25250183D02*
X101599399Y-25321611D01*
X101599399Y-25321611D02*
X101527971Y-25357326D01*
X102670828Y-25893040D02*
X102242257Y-25893040D01*
X102456542Y-25893040D02*
X102456542Y-25143040D01*
X102456542Y-25143040D02*
X102385114Y-25250183D01*
X102385114Y-25250183D02*
X102313685Y-25321611D01*
X102313685Y-25321611D02*
X102242257Y-25357326D01*
X103135114Y-25143040D02*
X103206543Y-25143040D01*
X103206543Y-25143040D02*
X103277971Y-25178754D01*
X103277971Y-25178754D02*
X103313686Y-25214468D01*
X103313686Y-25214468D02*
X103349400Y-25285897D01*
X103349400Y-25285897D02*
X103385114Y-25428754D01*
X103385114Y-25428754D02*
X103385114Y-25607326D01*
X103385114Y-25607326D02*
X103349400Y-25750183D01*
X103349400Y-25750183D02*
X103313686Y-25821611D01*
X103313686Y-25821611D02*
X103277971Y-25857326D01*
X103277971Y-25857326D02*
X103206543Y-25893040D01*
X103206543Y-25893040D02*
X103135114Y-25893040D01*
X103135114Y-25893040D02*
X103063686Y-25857326D01*
X103063686Y-25857326D02*
X103027971Y-25821611D01*
X103027971Y-25821611D02*
X102992257Y-25750183D01*
X102992257Y-25750183D02*
X102956543Y-25607326D01*
X102956543Y-25607326D02*
X102956543Y-25428754D01*
X102956543Y-25428754D02*
X102992257Y-25285897D01*
X102992257Y-25285897D02*
X103027971Y-25214468D01*
X103027971Y-25214468D02*
X103063686Y-25178754D01*
X103063686Y-25178754D02*
X103135114Y-25143040D01*
X98135112Y-26350498D02*
X98206541Y-26350498D01*
X98206541Y-26350498D02*
X98277969Y-26386212D01*
X98277969Y-26386212D02*
X98313684Y-26421926D01*
X98313684Y-26421926D02*
X98349398Y-26493355D01*
X98349398Y-26493355D02*
X98385112Y-26636212D01*
X98385112Y-26636212D02*
X98385112Y-26814784D01*
X98385112Y-26814784D02*
X98349398Y-26957641D01*
X98349398Y-26957641D02*
X98313684Y-27029069D01*
X98313684Y-27029069D02*
X98277969Y-27064784D01*
X98277969Y-27064784D02*
X98206541Y-27100498D01*
X98206541Y-27100498D02*
X98135112Y-27100498D01*
X98135112Y-27100498D02*
X98063684Y-27064784D01*
X98063684Y-27064784D02*
X98027969Y-27029069D01*
X98027969Y-27029069D02*
X97992255Y-26957641D01*
X97992255Y-26957641D02*
X97956541Y-26814784D01*
X97956541Y-26814784D02*
X97956541Y-26636212D01*
X97956541Y-26636212D02*
X97992255Y-26493355D01*
X97992255Y-26493355D02*
X98027969Y-26421926D01*
X98027969Y-26421926D02*
X98063684Y-26386212D01*
X98063684Y-26386212D02*
X98135112Y-26350498D01*
X99099398Y-27100498D02*
X98670827Y-27100498D01*
X98885112Y-27100498D02*
X98885112Y-26350498D01*
X98885112Y-26350498D02*
X98813684Y-26457641D01*
X98813684Y-26457641D02*
X98742255Y-26529069D01*
X98742255Y-26529069D02*
X98670827Y-26564784D01*
X99813684Y-27100498D02*
X99385113Y-27100498D01*
X99599398Y-27100498D02*
X99599398Y-26350498D01*
X99599398Y-26350498D02*
X99527970Y-26457641D01*
X99527970Y-26457641D02*
X99456541Y-26529069D01*
X99456541Y-26529069D02*
X99385113Y-26564784D01*
X100277970Y-26350498D02*
X100349399Y-26350498D01*
X100349399Y-26350498D02*
X100420827Y-26386212D01*
X100420827Y-26386212D02*
X100456542Y-26421926D01*
X100456542Y-26421926D02*
X100492256Y-26493355D01*
X100492256Y-26493355D02*
X100527970Y-26636212D01*
X100527970Y-26636212D02*
X100527970Y-26814784D01*
X100527970Y-26814784D02*
X100492256Y-26957641D01*
X100492256Y-26957641D02*
X100456542Y-27029069D01*
X100456542Y-27029069D02*
X100420827Y-27064784D01*
X100420827Y-27064784D02*
X100349399Y-27100498D01*
X100349399Y-27100498D02*
X100277970Y-27100498D01*
X100277970Y-27100498D02*
X100206542Y-27064784D01*
X100206542Y-27064784D02*
X100170827Y-27029069D01*
X100170827Y-27029069D02*
X100135113Y-26957641D01*
X100135113Y-26957641D02*
X100099399Y-26814784D01*
X100099399Y-26814784D02*
X100099399Y-26636212D01*
X100099399Y-26636212D02*
X100135113Y-26493355D01*
X100135113Y-26493355D02*
X100170827Y-26421926D01*
X100170827Y-26421926D02*
X100206542Y-26386212D01*
X100206542Y-26386212D02*
X100277970Y-26350498D01*
X100992256Y-26350498D02*
X101063685Y-26350498D01*
X101063685Y-26350498D02*
X101135113Y-26386212D01*
X101135113Y-26386212D02*
X101170828Y-26421926D01*
X101170828Y-26421926D02*
X101206542Y-26493355D01*
X101206542Y-26493355D02*
X101242256Y-26636212D01*
X101242256Y-26636212D02*
X101242256Y-26814784D01*
X101242256Y-26814784D02*
X101206542Y-26957641D01*
X101206542Y-26957641D02*
X101170828Y-27029069D01*
X101170828Y-27029069D02*
X101135113Y-27064784D01*
X101135113Y-27064784D02*
X101063685Y-27100498D01*
X101063685Y-27100498D02*
X100992256Y-27100498D01*
X100992256Y-27100498D02*
X100920828Y-27064784D01*
X100920828Y-27064784D02*
X100885113Y-27029069D01*
X100885113Y-27029069D02*
X100849399Y-26957641D01*
X100849399Y-26957641D02*
X100813685Y-26814784D01*
X100813685Y-26814784D02*
X100813685Y-26636212D01*
X100813685Y-26636212D02*
X100849399Y-26493355D01*
X100849399Y-26493355D02*
X100885113Y-26421926D01*
X100885113Y-26421926D02*
X100920828Y-26386212D01*
X100920828Y-26386212D02*
X100992256Y-26350498D01*
X101956542Y-27100498D02*
X101527971Y-27100498D01*
X101742256Y-27100498D02*
X101742256Y-26350498D01*
X101742256Y-26350498D02*
X101670828Y-26457641D01*
X101670828Y-26457641D02*
X101599399Y-26529069D01*
X101599399Y-26529069D02*
X101527971Y-26564784D01*
X102420828Y-26350498D02*
X102492257Y-26350498D01*
X102492257Y-26350498D02*
X102563685Y-26386212D01*
X102563685Y-26386212D02*
X102599400Y-26421926D01*
X102599400Y-26421926D02*
X102635114Y-26493355D01*
X102635114Y-26493355D02*
X102670828Y-26636212D01*
X102670828Y-26636212D02*
X102670828Y-26814784D01*
X102670828Y-26814784D02*
X102635114Y-26957641D01*
X102635114Y-26957641D02*
X102599400Y-27029069D01*
X102599400Y-27029069D02*
X102563685Y-27064784D01*
X102563685Y-27064784D02*
X102492257Y-27100498D01*
X102492257Y-27100498D02*
X102420828Y-27100498D01*
X102420828Y-27100498D02*
X102349400Y-27064784D01*
X102349400Y-27064784D02*
X102313685Y-27029069D01*
X102313685Y-27029069D02*
X102277971Y-26957641D01*
X102277971Y-26957641D02*
X102242257Y-26814784D01*
X102242257Y-26814784D02*
X102242257Y-26636212D01*
X102242257Y-26636212D02*
X102277971Y-26493355D01*
X102277971Y-26493355D02*
X102313685Y-26421926D01*
X102313685Y-26421926D02*
X102349400Y-26386212D01*
X102349400Y-26386212D02*
X102420828Y-26350498D01*
X103385114Y-27100498D02*
X102956543Y-27100498D01*
X103170828Y-27100498D02*
X103170828Y-26350498D01*
X103170828Y-26350498D02*
X103099400Y-26457641D01*
X103099400Y-26457641D02*
X103027971Y-26529069D01*
X103027971Y-26529069D02*
X102956543Y-26564784D01*
X98135112Y-27557956D02*
X98206541Y-27557956D01*
X98206541Y-27557956D02*
X98277969Y-27593670D01*
X98277969Y-27593670D02*
X98313684Y-27629384D01*
X98313684Y-27629384D02*
X98349398Y-27700813D01*
X98349398Y-27700813D02*
X98385112Y-27843670D01*
X98385112Y-27843670D02*
X98385112Y-28022242D01*
X98385112Y-28022242D02*
X98349398Y-28165099D01*
X98349398Y-28165099D02*
X98313684Y-28236527D01*
X98313684Y-28236527D02*
X98277969Y-28272242D01*
X98277969Y-28272242D02*
X98206541Y-28307956D01*
X98206541Y-28307956D02*
X98135112Y-28307956D01*
X98135112Y-28307956D02*
X98063684Y-28272242D01*
X98063684Y-28272242D02*
X98027969Y-28236527D01*
X98027969Y-28236527D02*
X97992255Y-28165099D01*
X97992255Y-28165099D02*
X97956541Y-28022242D01*
X97956541Y-28022242D02*
X97956541Y-27843670D01*
X97956541Y-27843670D02*
X97992255Y-27700813D01*
X97992255Y-27700813D02*
X98027969Y-27629384D01*
X98027969Y-27629384D02*
X98063684Y-27593670D01*
X98063684Y-27593670D02*
X98135112Y-27557956D01*
X99099398Y-28307956D02*
X98670827Y-28307956D01*
X98885112Y-28307956D02*
X98885112Y-27557956D01*
X98885112Y-27557956D02*
X98813684Y-27665099D01*
X98813684Y-27665099D02*
X98742255Y-27736527D01*
X98742255Y-27736527D02*
X98670827Y-27772242D01*
X99813684Y-28307956D02*
X99385113Y-28307956D01*
X99599398Y-28307956D02*
X99599398Y-27557956D01*
X99599398Y-27557956D02*
X99527970Y-27665099D01*
X99527970Y-27665099D02*
X99456541Y-27736527D01*
X99456541Y-27736527D02*
X99385113Y-27772242D01*
X100277970Y-27557956D02*
X100349399Y-27557956D01*
X100349399Y-27557956D02*
X100420827Y-27593670D01*
X100420827Y-27593670D02*
X100456542Y-27629384D01*
X100456542Y-27629384D02*
X100492256Y-27700813D01*
X100492256Y-27700813D02*
X100527970Y-27843670D01*
X100527970Y-27843670D02*
X100527970Y-28022242D01*
X100527970Y-28022242D02*
X100492256Y-28165099D01*
X100492256Y-28165099D02*
X100456542Y-28236527D01*
X100456542Y-28236527D02*
X100420827Y-28272242D01*
X100420827Y-28272242D02*
X100349399Y-28307956D01*
X100349399Y-28307956D02*
X100277970Y-28307956D01*
X100277970Y-28307956D02*
X100206542Y-28272242D01*
X100206542Y-28272242D02*
X100170827Y-28236527D01*
X100170827Y-28236527D02*
X100135113Y-28165099D01*
X100135113Y-28165099D02*
X100099399Y-28022242D01*
X100099399Y-28022242D02*
X100099399Y-27843670D01*
X100099399Y-27843670D02*
X100135113Y-27700813D01*
X100135113Y-27700813D02*
X100170827Y-27629384D01*
X100170827Y-27629384D02*
X100206542Y-27593670D01*
X100206542Y-27593670D02*
X100277970Y-27557956D01*
X101242256Y-28307956D02*
X100813685Y-28307956D01*
X101027970Y-28307956D02*
X101027970Y-27557956D01*
X101027970Y-27557956D02*
X100956542Y-27665099D01*
X100956542Y-27665099D02*
X100885113Y-27736527D01*
X100885113Y-27736527D02*
X100813685Y-27772242D01*
X101956542Y-28307956D02*
X101527971Y-28307956D01*
X101742256Y-28307956D02*
X101742256Y-27557956D01*
X101742256Y-27557956D02*
X101670828Y-27665099D01*
X101670828Y-27665099D02*
X101599399Y-27736527D01*
X101599399Y-27736527D02*
X101527971Y-27772242D01*
X102670828Y-28307956D02*
X102242257Y-28307956D01*
X102456542Y-28307956D02*
X102456542Y-27557956D01*
X102456542Y-27557956D02*
X102385114Y-27665099D01*
X102385114Y-27665099D02*
X102313685Y-27736527D01*
X102313685Y-27736527D02*
X102242257Y-27772242D01*
X103135114Y-27557956D02*
X103206543Y-27557956D01*
X103206543Y-27557956D02*
X103277971Y-27593670D01*
X103277971Y-27593670D02*
X103313686Y-27629384D01*
X103313686Y-27629384D02*
X103349400Y-27700813D01*
X103349400Y-27700813D02*
X103385114Y-27843670D01*
X103385114Y-27843670D02*
X103385114Y-28022242D01*
X103385114Y-28022242D02*
X103349400Y-28165099D01*
X103349400Y-28165099D02*
X103313686Y-28236527D01*
X103313686Y-28236527D02*
X103277971Y-28272242D01*
X103277971Y-28272242D02*
X103206543Y-28307956D01*
X103206543Y-28307956D02*
X103135114Y-28307956D01*
X103135114Y-28307956D02*
X103063686Y-28272242D01*
X103063686Y-28272242D02*
X103027971Y-28236527D01*
X103027971Y-28236527D02*
X102992257Y-28165099D01*
X102992257Y-28165099D02*
X102956543Y-28022242D01*
X102956543Y-28022242D02*
X102956543Y-27843670D01*
X102956543Y-27843670D02*
X102992257Y-27700813D01*
X102992257Y-27700813D02*
X103027971Y-27629384D01*
X103027971Y-27629384D02*
X103063686Y-27593670D01*
X103063686Y-27593670D02*
X103135114Y-27557956D01*
X98135112Y-28765414D02*
X98206541Y-28765414D01*
X98206541Y-28765414D02*
X98277969Y-28801128D01*
X98277969Y-28801128D02*
X98313684Y-28836842D01*
X98313684Y-28836842D02*
X98349398Y-28908271D01*
X98349398Y-28908271D02*
X98385112Y-29051128D01*
X98385112Y-29051128D02*
X98385112Y-29229700D01*
X98385112Y-29229700D02*
X98349398Y-29372557D01*
X98349398Y-29372557D02*
X98313684Y-29443985D01*
X98313684Y-29443985D02*
X98277969Y-29479700D01*
X98277969Y-29479700D02*
X98206541Y-29515414D01*
X98206541Y-29515414D02*
X98135112Y-29515414D01*
X98135112Y-29515414D02*
X98063684Y-29479700D01*
X98063684Y-29479700D02*
X98027969Y-29443985D01*
X98027969Y-29443985D02*
X97992255Y-29372557D01*
X97992255Y-29372557D02*
X97956541Y-29229700D01*
X97956541Y-29229700D02*
X97956541Y-29051128D01*
X97956541Y-29051128D02*
X97992255Y-28908271D01*
X97992255Y-28908271D02*
X98027969Y-28836842D01*
X98027969Y-28836842D02*
X98063684Y-28801128D01*
X98063684Y-28801128D02*
X98135112Y-28765414D01*
X99099398Y-29515414D02*
X98670827Y-29515414D01*
X98885112Y-29515414D02*
X98885112Y-28765414D01*
X98885112Y-28765414D02*
X98813684Y-28872557D01*
X98813684Y-28872557D02*
X98742255Y-28943985D01*
X98742255Y-28943985D02*
X98670827Y-28979700D01*
X99813684Y-29515414D02*
X99385113Y-29515414D01*
X99599398Y-29515414D02*
X99599398Y-28765414D01*
X99599398Y-28765414D02*
X99527970Y-28872557D01*
X99527970Y-28872557D02*
X99456541Y-28943985D01*
X99456541Y-28943985D02*
X99385113Y-28979700D01*
X100277970Y-28765414D02*
X100349399Y-28765414D01*
X100349399Y-28765414D02*
X100420827Y-28801128D01*
X100420827Y-28801128D02*
X100456542Y-28836842D01*
X100456542Y-28836842D02*
X100492256Y-28908271D01*
X100492256Y-28908271D02*
X100527970Y-29051128D01*
X100527970Y-29051128D02*
X100527970Y-29229700D01*
X100527970Y-29229700D02*
X100492256Y-29372557D01*
X100492256Y-29372557D02*
X100456542Y-29443985D01*
X100456542Y-29443985D02*
X100420827Y-29479700D01*
X100420827Y-29479700D02*
X100349399Y-29515414D01*
X100349399Y-29515414D02*
X100277970Y-29515414D01*
X100277970Y-29515414D02*
X100206542Y-29479700D01*
X100206542Y-29479700D02*
X100170827Y-29443985D01*
X100170827Y-29443985D02*
X100135113Y-29372557D01*
X100135113Y-29372557D02*
X100099399Y-29229700D01*
X100099399Y-29229700D02*
X100099399Y-29051128D01*
X100099399Y-29051128D02*
X100135113Y-28908271D01*
X100135113Y-28908271D02*
X100170827Y-28836842D01*
X100170827Y-28836842D02*
X100206542Y-28801128D01*
X100206542Y-28801128D02*
X100277970Y-28765414D01*
X101242256Y-29515414D02*
X100813685Y-29515414D01*
X101027970Y-29515414D02*
X101027970Y-28765414D01*
X101027970Y-28765414D02*
X100956542Y-28872557D01*
X100956542Y-28872557D02*
X100885113Y-28943985D01*
X100885113Y-28943985D02*
X100813685Y-28979700D01*
X101706542Y-28765414D02*
X101777971Y-28765414D01*
X101777971Y-28765414D02*
X101849399Y-28801128D01*
X101849399Y-28801128D02*
X101885114Y-28836842D01*
X101885114Y-28836842D02*
X101920828Y-28908271D01*
X101920828Y-28908271D02*
X101956542Y-29051128D01*
X101956542Y-29051128D02*
X101956542Y-29229700D01*
X101956542Y-29229700D02*
X101920828Y-29372557D01*
X101920828Y-29372557D02*
X101885114Y-29443985D01*
X101885114Y-29443985D02*
X101849399Y-29479700D01*
X101849399Y-29479700D02*
X101777971Y-29515414D01*
X101777971Y-29515414D02*
X101706542Y-29515414D01*
X101706542Y-29515414D02*
X101635114Y-29479700D01*
X101635114Y-29479700D02*
X101599399Y-29443985D01*
X101599399Y-29443985D02*
X101563685Y-29372557D01*
X101563685Y-29372557D02*
X101527971Y-29229700D01*
X101527971Y-29229700D02*
X101527971Y-29051128D01*
X101527971Y-29051128D02*
X101563685Y-28908271D01*
X101563685Y-28908271D02*
X101599399Y-28836842D01*
X101599399Y-28836842D02*
X101635114Y-28801128D01*
X101635114Y-28801128D02*
X101706542Y-28765414D01*
X102420828Y-28765414D02*
X102492257Y-28765414D01*
X102492257Y-28765414D02*
X102563685Y-28801128D01*
X102563685Y-28801128D02*
X102599400Y-28836842D01*
X102599400Y-28836842D02*
X102635114Y-28908271D01*
X102635114Y-28908271D02*
X102670828Y-29051128D01*
X102670828Y-29051128D02*
X102670828Y-29229700D01*
X102670828Y-29229700D02*
X102635114Y-29372557D01*
X102635114Y-29372557D02*
X102599400Y-29443985D01*
X102599400Y-29443985D02*
X102563685Y-29479700D01*
X102563685Y-29479700D02*
X102492257Y-29515414D01*
X102492257Y-29515414D02*
X102420828Y-29515414D01*
X102420828Y-29515414D02*
X102349400Y-29479700D01*
X102349400Y-29479700D02*
X102313685Y-29443985D01*
X102313685Y-29443985D02*
X102277971Y-29372557D01*
X102277971Y-29372557D02*
X102242257Y-29229700D01*
X102242257Y-29229700D02*
X102242257Y-29051128D01*
X102242257Y-29051128D02*
X102277971Y-28908271D01*
X102277971Y-28908271D02*
X102313685Y-28836842D01*
X102313685Y-28836842D02*
X102349400Y-28801128D01*
X102349400Y-28801128D02*
X102420828Y-28765414D01*
X103385114Y-29515414D02*
X102956543Y-29515414D01*
X103170828Y-29515414D02*
X103170828Y-28765414D01*
X103170828Y-28765414D02*
X103099400Y-28872557D01*
X103099400Y-28872557D02*
X103027971Y-28943985D01*
X103027971Y-28943985D02*
X102956543Y-28979700D01*
D10*
X110095200Y-21681265D02*
X110047580Y-21824122D01*
X110047580Y-21824122D02*
X110047580Y-22062217D01*
X110047580Y-22062217D02*
X110095200Y-22157455D01*
X110095200Y-22157455D02*
X110142819Y-22205074D01*
X110142819Y-22205074D02*
X110238057Y-22252693D01*
X110238057Y-22252693D02*
X110333295Y-22252693D01*
X110333295Y-22252693D02*
X110428533Y-22205074D01*
X110428533Y-22205074D02*
X110476152Y-22157455D01*
X110476152Y-22157455D02*
X110523771Y-22062217D01*
X110523771Y-22062217D02*
X110571390Y-21871741D01*
X110571390Y-21871741D02*
X110619009Y-21776503D01*
X110619009Y-21776503D02*
X110666628Y-21728884D01*
X110666628Y-21728884D02*
X110761866Y-21681265D01*
X110761866Y-21681265D02*
X110857104Y-21681265D01*
X110857104Y-21681265D02*
X110952342Y-21728884D01*
X110952342Y-21728884D02*
X110999961Y-21776503D01*
X110999961Y-21776503D02*
X111047580Y-21871741D01*
X111047580Y-21871741D02*
X111047580Y-22109836D01*
X111047580Y-22109836D02*
X110999961Y-22252693D01*
X110047580Y-22681265D02*
X111047580Y-22681265D01*
X110571390Y-22681265D02*
X110571390Y-23252693D01*
X110047580Y-23252693D02*
X111047580Y-23252693D01*
X111095200Y-24443169D02*
X109809485Y-23586027D01*
X110047580Y-25252693D02*
X110047580Y-24776503D01*
X110047580Y-24776503D02*
X111047580Y-24776503D01*
X110047580Y-25586027D02*
X111047580Y-25586027D01*
X111047580Y-25586027D02*
X111047580Y-25824122D01*
X111047580Y-25824122D02*
X110999961Y-25966979D01*
X110999961Y-25966979D02*
X110904723Y-26062217D01*
X110904723Y-26062217D02*
X110809485Y-26109836D01*
X110809485Y-26109836D02*
X110619009Y-26157455D01*
X110619009Y-26157455D02*
X110476152Y-26157455D01*
X110476152Y-26157455D02*
X110285676Y-26109836D01*
X110285676Y-26109836D02*
X110190438Y-26062217D01*
X110190438Y-26062217D02*
X110095200Y-25966979D01*
X110095200Y-25966979D02*
X110047580Y-25824122D01*
X110047580Y-25824122D02*
X110047580Y-25586027D01*
X116004961Y-22222693D02*
X116052580Y-22127455D01*
X116052580Y-22127455D02*
X116052580Y-21984598D01*
X116052580Y-21984598D02*
X116004961Y-21841741D01*
X116004961Y-21841741D02*
X115909723Y-21746503D01*
X115909723Y-21746503D02*
X115814485Y-21698884D01*
X115814485Y-21698884D02*
X115624009Y-21651265D01*
X115624009Y-21651265D02*
X115481152Y-21651265D01*
X115481152Y-21651265D02*
X115290676Y-21698884D01*
X115290676Y-21698884D02*
X115195438Y-21746503D01*
X115195438Y-21746503D02*
X115100200Y-21841741D01*
X115100200Y-21841741D02*
X115052580Y-21984598D01*
X115052580Y-21984598D02*
X115052580Y-22079836D01*
X115052580Y-22079836D02*
X115100200Y-22222693D01*
X115100200Y-22222693D02*
X115147819Y-22270312D01*
X115147819Y-22270312D02*
X115481152Y-22270312D01*
X115481152Y-22270312D02*
X115481152Y-22079836D01*
X118647580Y-21641027D02*
X117647580Y-21974360D01*
X117647580Y-21974360D02*
X118647580Y-22307693D01*
X117695200Y-23069598D02*
X117647580Y-22974360D01*
X117647580Y-22974360D02*
X117647580Y-22783884D01*
X117647580Y-22783884D02*
X117695200Y-22688646D01*
X117695200Y-22688646D02*
X117742819Y-22641027D01*
X117742819Y-22641027D02*
X117838057Y-22593408D01*
X117838057Y-22593408D02*
X118123771Y-22593408D01*
X118123771Y-22593408D02*
X118219009Y-22641027D01*
X118219009Y-22641027D02*
X118266628Y-22688646D01*
X118266628Y-22688646D02*
X118314247Y-22783884D01*
X118314247Y-22783884D02*
X118314247Y-22974360D01*
X118314247Y-22974360D02*
X118266628Y-23069598D01*
X117695200Y-23926741D02*
X117647580Y-23831503D01*
X117647580Y-23831503D02*
X117647580Y-23641027D01*
X117647580Y-23641027D02*
X117695200Y-23545789D01*
X117695200Y-23545789D02*
X117742819Y-23498170D01*
X117742819Y-23498170D02*
X117838057Y-23450551D01*
X117838057Y-23450551D02*
X118123771Y-23450551D01*
X118123771Y-23450551D02*
X118219009Y-23498170D01*
X118219009Y-23498170D02*
X118266628Y-23545789D01*
X118266628Y-23545789D02*
X118314247Y-23641027D01*
X118314247Y-23641027D02*
X118314247Y-23831503D01*
X118314247Y-23831503D02*
X118266628Y-23926741D01*
X112462342Y-22420550D02*
X112509961Y-22325312D01*
X112509961Y-22325312D02*
X112605200Y-22230074D01*
X112605200Y-22230074D02*
X112748057Y-22087217D01*
X112748057Y-22087217D02*
X112795676Y-21991979D01*
X112795676Y-21991979D02*
X112795676Y-21896741D01*
X112557580Y-21944360D02*
X112605200Y-21849122D01*
X112605200Y-21849122D02*
X112700438Y-21753884D01*
X112700438Y-21753884D02*
X112890914Y-21706265D01*
X112890914Y-21706265D02*
X113224247Y-21706265D01*
X113224247Y-21706265D02*
X113414723Y-21753884D01*
X113414723Y-21753884D02*
X113509961Y-21849122D01*
X113509961Y-21849122D02*
X113557580Y-21944360D01*
X113557580Y-21944360D02*
X113557580Y-22134836D01*
X113557580Y-22134836D02*
X113509961Y-22230074D01*
X113509961Y-22230074D02*
X113414723Y-22325312D01*
X113414723Y-22325312D02*
X113224247Y-22372931D01*
X113224247Y-22372931D02*
X112890914Y-22372931D01*
X112890914Y-22372931D02*
X112700438Y-22325312D01*
X112700438Y-22325312D02*
X112605200Y-22230074D01*
X112605200Y-22230074D02*
X112557580Y-22134836D01*
X112557580Y-22134836D02*
X112557580Y-21944360D01*
X112557580Y-22801503D02*
X113557580Y-22801503D01*
X112557580Y-23230074D02*
X113081390Y-23230074D01*
X113081390Y-23230074D02*
X113176628Y-23182455D01*
X113176628Y-23182455D02*
X113224247Y-23087217D01*
X113224247Y-23087217D02*
X113224247Y-22944360D01*
X113224247Y-22944360D02*
X113176628Y-22849122D01*
X113176628Y-22849122D02*
X113129009Y-22801503D01*
X107562819Y-22310312D02*
X107515200Y-22262693D01*
X107515200Y-22262693D02*
X107467580Y-22119836D01*
X107467580Y-22119836D02*
X107467580Y-22024598D01*
X107467580Y-22024598D02*
X107515200Y-21881741D01*
X107515200Y-21881741D02*
X107610438Y-21786503D01*
X107610438Y-21786503D02*
X107705676Y-21738884D01*
X107705676Y-21738884D02*
X107896152Y-21691265D01*
X107896152Y-21691265D02*
X108039009Y-21691265D01*
X108039009Y-21691265D02*
X108229485Y-21738884D01*
X108229485Y-21738884D02*
X108324723Y-21786503D01*
X108324723Y-21786503D02*
X108419961Y-21881741D01*
X108419961Y-21881741D02*
X108467580Y-22024598D01*
X108467580Y-22024598D02*
X108467580Y-22119836D01*
X108467580Y-22119836D02*
X108419961Y-22262693D01*
X108419961Y-22262693D02*
X108372342Y-22310312D01*
X107467580Y-23215074D02*
X107467580Y-22738884D01*
X107467580Y-22738884D02*
X108467580Y-22738884D01*
X107467580Y-23548408D02*
X108467580Y-23548408D01*
X107467580Y-24119836D02*
X108039009Y-23691265D01*
X108467580Y-24119836D02*
X107896152Y-23548408D01*
X93122693Y-50552419D02*
X92551265Y-50552419D01*
X92836979Y-50552419D02*
X92836979Y-49552419D01*
X92836979Y-49552419D02*
X92741741Y-49695276D01*
X92741741Y-49695276D02*
X92646503Y-49790514D01*
X92646503Y-49790514D02*
X92551265Y-49838133D01*
X93884598Y-50028609D02*
X93551265Y-50028609D01*
X93551265Y-50552419D02*
X93551265Y-49552419D01*
X93551265Y-49552419D02*
X94027455Y-49552419D01*
X82997693Y-50552419D02*
X82426265Y-50552419D01*
X82711979Y-50552419D02*
X82711979Y-49552419D01*
X82711979Y-49552419D02*
X82616741Y-49695276D01*
X82616741Y-49695276D02*
X82521503Y-49790514D01*
X82521503Y-49790514D02*
X82426265Y-49838133D01*
X83759598Y-50028609D02*
X83902455Y-50076228D01*
X83902455Y-50076228D02*
X83950074Y-50123847D01*
X83950074Y-50123847D02*
X83997693Y-50219085D01*
X83997693Y-50219085D02*
X83997693Y-50361942D01*
X83997693Y-50361942D02*
X83950074Y-50457180D01*
X83950074Y-50457180D02*
X83902455Y-50504800D01*
X83902455Y-50504800D02*
X83807217Y-50552419D01*
X83807217Y-50552419D02*
X83426265Y-50552419D01*
X83426265Y-50552419D02*
X83426265Y-49552419D01*
X83426265Y-49552419D02*
X83759598Y-49552419D01*
X83759598Y-49552419D02*
X83854836Y-49600038D01*
X83854836Y-49600038D02*
X83902455Y-49647657D01*
X83902455Y-49647657D02*
X83950074Y-49742895D01*
X83950074Y-49742895D02*
X83950074Y-49838133D01*
X83950074Y-49838133D02*
X83902455Y-49933371D01*
X83902455Y-49933371D02*
X83854836Y-49980990D01*
X83854836Y-49980990D02*
X83759598Y-50028609D01*
X83759598Y-50028609D02*
X83426265Y-50028609D01*
X88012693Y-50617419D02*
X87441265Y-50617419D01*
X87726979Y-50617419D02*
X87726979Y-49617419D01*
X87726979Y-49617419D02*
X87631741Y-49760276D01*
X87631741Y-49760276D02*
X87536503Y-49855514D01*
X87536503Y-49855514D02*
X87441265Y-49903133D01*
X88441265Y-50617419D02*
X88441265Y-49617419D01*
X88441265Y-49617419D02*
X88679360Y-49617419D01*
X88679360Y-49617419D02*
X88822217Y-49665038D01*
X88822217Y-49665038D02*
X88917455Y-49760276D01*
X88917455Y-49760276D02*
X88965074Y-49855514D01*
X88965074Y-49855514D02*
X89012693Y-50045990D01*
X89012693Y-50045990D02*
X89012693Y-50188847D01*
X89012693Y-50188847D02*
X88965074Y-50379323D01*
X88965074Y-50379323D02*
X88917455Y-50474561D01*
X88917455Y-50474561D02*
X88822217Y-50569800D01*
X88822217Y-50569800D02*
X88679360Y-50617419D01*
X88679360Y-50617419D02*
X88441265Y-50617419D01*
X98137693Y-50617419D02*
X97566265Y-50617419D01*
X97851979Y-50617419D02*
X97851979Y-49617419D01*
X97851979Y-49617419D02*
X97756741Y-49760276D01*
X97756741Y-49760276D02*
X97661503Y-49855514D01*
X97661503Y-49855514D02*
X97566265Y-49903133D01*
X98566265Y-50617419D02*
X98566265Y-49617419D01*
X98566265Y-50093609D02*
X99137693Y-50093609D01*
X99137693Y-50617419D02*
X99137693Y-49617419D01*
X90692693Y-50572419D02*
X90121265Y-50572419D01*
X90406979Y-50572419D02*
X90406979Y-49572419D01*
X90406979Y-49572419D02*
X90311741Y-49715276D01*
X90311741Y-49715276D02*
X90216503Y-49810514D01*
X90216503Y-49810514D02*
X90121265Y-49858133D01*
X91121265Y-50048609D02*
X91454598Y-50048609D01*
X91597455Y-50572419D02*
X91121265Y-50572419D01*
X91121265Y-50572419D02*
X91121265Y-49572419D01*
X91121265Y-49572419D02*
X91597455Y-49572419D01*
X85627693Y-50587419D02*
X85056265Y-50587419D01*
X85341979Y-50587419D02*
X85341979Y-49587419D01*
X85341979Y-49587419D02*
X85246741Y-49730276D01*
X85246741Y-49730276D02*
X85151503Y-49825514D01*
X85151503Y-49825514D02*
X85056265Y-49873133D01*
X86627693Y-50492180D02*
X86580074Y-50539800D01*
X86580074Y-50539800D02*
X86437217Y-50587419D01*
X86437217Y-50587419D02*
X86341979Y-50587419D01*
X86341979Y-50587419D02*
X86199122Y-50539800D01*
X86199122Y-50539800D02*
X86103884Y-50444561D01*
X86103884Y-50444561D02*
X86056265Y-50349323D01*
X86056265Y-50349323D02*
X86008646Y-50158847D01*
X86008646Y-50158847D02*
X86008646Y-50015990D01*
X86008646Y-50015990D02*
X86056265Y-49825514D01*
X86056265Y-49825514D02*
X86103884Y-49730276D01*
X86103884Y-49730276D02*
X86199122Y-49635038D01*
X86199122Y-49635038D02*
X86341979Y-49587419D01*
X86341979Y-49587419D02*
X86437217Y-49587419D01*
X86437217Y-49587419D02*
X86580074Y-49635038D01*
X86580074Y-49635038D02*
X86627693Y-49682657D01*
X80567693Y-50572419D02*
X79996265Y-50572419D01*
X80281979Y-50572419D02*
X80281979Y-49572419D01*
X80281979Y-49572419D02*
X80186741Y-49715276D01*
X80186741Y-49715276D02*
X80091503Y-49810514D01*
X80091503Y-49810514D02*
X79996265Y-49858133D01*
X80948646Y-50286704D02*
X81424836Y-50286704D01*
X80853408Y-50572419D02*
X81186741Y-49572419D01*
X81186741Y-49572419D02*
X81520074Y-50572419D01*
X95752693Y-50587419D02*
X95181265Y-50587419D01*
X95466979Y-50587419D02*
X95466979Y-49587419D01*
X95466979Y-49587419D02*
X95371741Y-49730276D01*
X95371741Y-49730276D02*
X95276503Y-49825514D01*
X95276503Y-49825514D02*
X95181265Y-49873133D01*
X96705074Y-49635038D02*
X96609836Y-49587419D01*
X96609836Y-49587419D02*
X96466979Y-49587419D01*
X96466979Y-49587419D02*
X96324122Y-49635038D01*
X96324122Y-49635038D02*
X96228884Y-49730276D01*
X96228884Y-49730276D02*
X96181265Y-49825514D01*
X96181265Y-49825514D02*
X96133646Y-50015990D01*
X96133646Y-50015990D02*
X96133646Y-50158847D01*
X96133646Y-50158847D02*
X96181265Y-50349323D01*
X96181265Y-50349323D02*
X96228884Y-50444561D01*
X96228884Y-50444561D02*
X96324122Y-50539800D01*
X96324122Y-50539800D02*
X96466979Y-50587419D01*
X96466979Y-50587419D02*
X96562217Y-50587419D01*
X96562217Y-50587419D02*
X96705074Y-50539800D01*
X96705074Y-50539800D02*
X96752693Y-50492180D01*
X96752693Y-50492180D02*
X96752693Y-50158847D01*
X96752693Y-50158847D02*
X96562217Y-50158847D01*
X115816265Y-49807657D02*
X115863884Y-49760038D01*
X115863884Y-49760038D02*
X115959122Y-49712419D01*
X115959122Y-49712419D02*
X116197217Y-49712419D01*
X116197217Y-49712419D02*
X116292455Y-49760038D01*
X116292455Y-49760038D02*
X116340074Y-49807657D01*
X116340074Y-49807657D02*
X116387693Y-49902895D01*
X116387693Y-49902895D02*
X116387693Y-49998133D01*
X116387693Y-49998133D02*
X116340074Y-50140990D01*
X116340074Y-50140990D02*
X115768646Y-50712419D01*
X115768646Y-50712419D02*
X116387693Y-50712419D01*
X117149598Y-50188609D02*
X116816265Y-50188609D01*
X116816265Y-50712419D02*
X116816265Y-49712419D01*
X116816265Y-49712419D02*
X117292455Y-49712419D01*
X105691265Y-49807657D02*
X105738884Y-49760038D01*
X105738884Y-49760038D02*
X105834122Y-49712419D01*
X105834122Y-49712419D02*
X106072217Y-49712419D01*
X106072217Y-49712419D02*
X106167455Y-49760038D01*
X106167455Y-49760038D02*
X106215074Y-49807657D01*
X106215074Y-49807657D02*
X106262693Y-49902895D01*
X106262693Y-49902895D02*
X106262693Y-49998133D01*
X106262693Y-49998133D02*
X106215074Y-50140990D01*
X106215074Y-50140990D02*
X105643646Y-50712419D01*
X105643646Y-50712419D02*
X106262693Y-50712419D01*
X107024598Y-50188609D02*
X107167455Y-50236228D01*
X107167455Y-50236228D02*
X107215074Y-50283847D01*
X107215074Y-50283847D02*
X107262693Y-50379085D01*
X107262693Y-50379085D02*
X107262693Y-50521942D01*
X107262693Y-50521942D02*
X107215074Y-50617180D01*
X107215074Y-50617180D02*
X107167455Y-50664800D01*
X107167455Y-50664800D02*
X107072217Y-50712419D01*
X107072217Y-50712419D02*
X106691265Y-50712419D01*
X106691265Y-50712419D02*
X106691265Y-49712419D01*
X106691265Y-49712419D02*
X107024598Y-49712419D01*
X107024598Y-49712419D02*
X107119836Y-49760038D01*
X107119836Y-49760038D02*
X107167455Y-49807657D01*
X107167455Y-49807657D02*
X107215074Y-49902895D01*
X107215074Y-49902895D02*
X107215074Y-49998133D01*
X107215074Y-49998133D02*
X107167455Y-50093371D01*
X107167455Y-50093371D02*
X107119836Y-50140990D01*
X107119836Y-50140990D02*
X107024598Y-50188609D01*
X107024598Y-50188609D02*
X106691265Y-50188609D01*
X110706265Y-49872657D02*
X110753884Y-49825038D01*
X110753884Y-49825038D02*
X110849122Y-49777419D01*
X110849122Y-49777419D02*
X111087217Y-49777419D01*
X111087217Y-49777419D02*
X111182455Y-49825038D01*
X111182455Y-49825038D02*
X111230074Y-49872657D01*
X111230074Y-49872657D02*
X111277693Y-49967895D01*
X111277693Y-49967895D02*
X111277693Y-50063133D01*
X111277693Y-50063133D02*
X111230074Y-50205990D01*
X111230074Y-50205990D02*
X110658646Y-50777419D01*
X110658646Y-50777419D02*
X111277693Y-50777419D01*
X111706265Y-50777419D02*
X111706265Y-49777419D01*
X111706265Y-49777419D02*
X111944360Y-49777419D01*
X111944360Y-49777419D02*
X112087217Y-49825038D01*
X112087217Y-49825038D02*
X112182455Y-49920276D01*
X112182455Y-49920276D02*
X112230074Y-50015514D01*
X112230074Y-50015514D02*
X112277693Y-50205990D01*
X112277693Y-50205990D02*
X112277693Y-50348847D01*
X112277693Y-50348847D02*
X112230074Y-50539323D01*
X112230074Y-50539323D02*
X112182455Y-50634561D01*
X112182455Y-50634561D02*
X112087217Y-50729800D01*
X112087217Y-50729800D02*
X111944360Y-50777419D01*
X111944360Y-50777419D02*
X111706265Y-50777419D01*
X120831265Y-49872657D02*
X120878884Y-49825038D01*
X120878884Y-49825038D02*
X120974122Y-49777419D01*
X120974122Y-49777419D02*
X121212217Y-49777419D01*
X121212217Y-49777419D02*
X121307455Y-49825038D01*
X121307455Y-49825038D02*
X121355074Y-49872657D01*
X121355074Y-49872657D02*
X121402693Y-49967895D01*
X121402693Y-49967895D02*
X121402693Y-50063133D01*
X121402693Y-50063133D02*
X121355074Y-50205990D01*
X121355074Y-50205990D02*
X120783646Y-50777419D01*
X120783646Y-50777419D02*
X121402693Y-50777419D01*
X121831265Y-50777419D02*
X121831265Y-49777419D01*
X121831265Y-50253609D02*
X122402693Y-50253609D01*
X122402693Y-50777419D02*
X122402693Y-49777419D01*
X113386265Y-49827657D02*
X113433884Y-49780038D01*
X113433884Y-49780038D02*
X113529122Y-49732419D01*
X113529122Y-49732419D02*
X113767217Y-49732419D01*
X113767217Y-49732419D02*
X113862455Y-49780038D01*
X113862455Y-49780038D02*
X113910074Y-49827657D01*
X113910074Y-49827657D02*
X113957693Y-49922895D01*
X113957693Y-49922895D02*
X113957693Y-50018133D01*
X113957693Y-50018133D02*
X113910074Y-50160990D01*
X113910074Y-50160990D02*
X113338646Y-50732419D01*
X113338646Y-50732419D02*
X113957693Y-50732419D01*
X114386265Y-50208609D02*
X114719598Y-50208609D01*
X114862455Y-50732419D02*
X114386265Y-50732419D01*
X114386265Y-50732419D02*
X114386265Y-49732419D01*
X114386265Y-49732419D02*
X114862455Y-49732419D01*
X108321265Y-49842657D02*
X108368884Y-49795038D01*
X108368884Y-49795038D02*
X108464122Y-49747419D01*
X108464122Y-49747419D02*
X108702217Y-49747419D01*
X108702217Y-49747419D02*
X108797455Y-49795038D01*
X108797455Y-49795038D02*
X108845074Y-49842657D01*
X108845074Y-49842657D02*
X108892693Y-49937895D01*
X108892693Y-49937895D02*
X108892693Y-50033133D01*
X108892693Y-50033133D02*
X108845074Y-50175990D01*
X108845074Y-50175990D02*
X108273646Y-50747419D01*
X108273646Y-50747419D02*
X108892693Y-50747419D01*
X109892693Y-50652180D02*
X109845074Y-50699800D01*
X109845074Y-50699800D02*
X109702217Y-50747419D01*
X109702217Y-50747419D02*
X109606979Y-50747419D01*
X109606979Y-50747419D02*
X109464122Y-50699800D01*
X109464122Y-50699800D02*
X109368884Y-50604561D01*
X109368884Y-50604561D02*
X109321265Y-50509323D01*
X109321265Y-50509323D02*
X109273646Y-50318847D01*
X109273646Y-50318847D02*
X109273646Y-50175990D01*
X109273646Y-50175990D02*
X109321265Y-49985514D01*
X109321265Y-49985514D02*
X109368884Y-49890276D01*
X109368884Y-49890276D02*
X109464122Y-49795038D01*
X109464122Y-49795038D02*
X109606979Y-49747419D01*
X109606979Y-49747419D02*
X109702217Y-49747419D01*
X109702217Y-49747419D02*
X109845074Y-49795038D01*
X109845074Y-49795038D02*
X109892693Y-49842657D01*
X103261265Y-49827657D02*
X103308884Y-49780038D01*
X103308884Y-49780038D02*
X103404122Y-49732419D01*
X103404122Y-49732419D02*
X103642217Y-49732419D01*
X103642217Y-49732419D02*
X103737455Y-49780038D01*
X103737455Y-49780038D02*
X103785074Y-49827657D01*
X103785074Y-49827657D02*
X103832693Y-49922895D01*
X103832693Y-49922895D02*
X103832693Y-50018133D01*
X103832693Y-50018133D02*
X103785074Y-50160990D01*
X103785074Y-50160990D02*
X103213646Y-50732419D01*
X103213646Y-50732419D02*
X103832693Y-50732419D01*
X104213646Y-50446704D02*
X104689836Y-50446704D01*
X104118408Y-50732419D02*
X104451741Y-49732419D01*
X104451741Y-49732419D02*
X104785074Y-50732419D01*
X118446265Y-49842657D02*
X118493884Y-49795038D01*
X118493884Y-49795038D02*
X118589122Y-49747419D01*
X118589122Y-49747419D02*
X118827217Y-49747419D01*
X118827217Y-49747419D02*
X118922455Y-49795038D01*
X118922455Y-49795038D02*
X118970074Y-49842657D01*
X118970074Y-49842657D02*
X119017693Y-49937895D01*
X119017693Y-49937895D02*
X119017693Y-50033133D01*
X119017693Y-50033133D02*
X118970074Y-50175990D01*
X118970074Y-50175990D02*
X118398646Y-50747419D01*
X118398646Y-50747419D02*
X119017693Y-50747419D01*
X119970074Y-49795038D02*
X119874836Y-49747419D01*
X119874836Y-49747419D02*
X119731979Y-49747419D01*
X119731979Y-49747419D02*
X119589122Y-49795038D01*
X119589122Y-49795038D02*
X119493884Y-49890276D01*
X119493884Y-49890276D02*
X119446265Y-49985514D01*
X119446265Y-49985514D02*
X119398646Y-50175990D01*
X119398646Y-50175990D02*
X119398646Y-50318847D01*
X119398646Y-50318847D02*
X119446265Y-50509323D01*
X119446265Y-50509323D02*
X119493884Y-50604561D01*
X119493884Y-50604561D02*
X119589122Y-50699800D01*
X119589122Y-50699800D02*
X119731979Y-50747419D01*
X119731979Y-50747419D02*
X119827217Y-50747419D01*
X119827217Y-50747419D02*
X119970074Y-50699800D01*
X119970074Y-50699800D02*
X120017693Y-50652180D01*
X120017693Y-50652180D02*
X120017693Y-50318847D01*
X120017693Y-50318847D02*
X119827217Y-50318847D01*
X124030038Y-50677306D02*
X123982419Y-50772544D01*
X123982419Y-50772544D02*
X123982419Y-50915401D01*
X123982419Y-50915401D02*
X124030038Y-51058258D01*
X124030038Y-51058258D02*
X124125276Y-51153496D01*
X124125276Y-51153496D02*
X124220514Y-51201115D01*
X124220514Y-51201115D02*
X124410990Y-51248734D01*
X124410990Y-51248734D02*
X124553847Y-51248734D01*
X124553847Y-51248734D02*
X124744323Y-51201115D01*
X124744323Y-51201115D02*
X124839561Y-51153496D01*
X124839561Y-51153496D02*
X124934800Y-51058258D01*
X124934800Y-51058258D02*
X124982419Y-50915401D01*
X124982419Y-50915401D02*
X124982419Y-50820163D01*
X124982419Y-50820163D02*
X124934800Y-50677306D01*
X124934800Y-50677306D02*
X124887180Y-50629687D01*
X124887180Y-50629687D02*
X124553847Y-50629687D01*
X124553847Y-50629687D02*
X124553847Y-50820163D01*
X124982419Y-50201115D02*
X123982419Y-50201115D01*
X123982419Y-50201115D02*
X124982419Y-49629687D01*
X124982419Y-49629687D02*
X123982419Y-49629687D01*
X124982419Y-49153496D02*
X123982419Y-49153496D01*
X123982419Y-49153496D02*
X123982419Y-48915401D01*
X123982419Y-48915401D02*
X124030038Y-48772544D01*
X124030038Y-48772544D02*
X124125276Y-48677306D01*
X124125276Y-48677306D02*
X124220514Y-48629687D01*
X124220514Y-48629687D02*
X124410990Y-48582068D01*
X124410990Y-48582068D02*
X124553847Y-48582068D01*
X124553847Y-48582068D02*
X124744323Y-48629687D01*
X124744323Y-48629687D02*
X124839561Y-48677306D01*
X124839561Y-48677306D02*
X124934800Y-48772544D01*
X124934800Y-48772544D02*
X124982419Y-48915401D01*
X124982419Y-48915401D02*
X124982419Y-49153496D01*
X128943646Y-49677419D02*
X129562693Y-49677419D01*
X129562693Y-49677419D02*
X129229360Y-50058371D01*
X129229360Y-50058371D02*
X129372217Y-50058371D01*
X129372217Y-50058371D02*
X129467455Y-50105990D01*
X129467455Y-50105990D02*
X129515074Y-50153609D01*
X129515074Y-50153609D02*
X129562693Y-50248847D01*
X129562693Y-50248847D02*
X129562693Y-50486942D01*
X129562693Y-50486942D02*
X129515074Y-50582180D01*
X129515074Y-50582180D02*
X129467455Y-50629800D01*
X129467455Y-50629800D02*
X129372217Y-50677419D01*
X129372217Y-50677419D02*
X129086503Y-50677419D01*
X129086503Y-50677419D02*
X128991265Y-50629800D01*
X128991265Y-50629800D02*
X128943646Y-50582180D01*
X130324598Y-50153609D02*
X130467455Y-50201228D01*
X130467455Y-50201228D02*
X130515074Y-50248847D01*
X130515074Y-50248847D02*
X130562693Y-50344085D01*
X130562693Y-50344085D02*
X130562693Y-50486942D01*
X130562693Y-50486942D02*
X130515074Y-50582180D01*
X130515074Y-50582180D02*
X130467455Y-50629800D01*
X130467455Y-50629800D02*
X130372217Y-50677419D01*
X130372217Y-50677419D02*
X129991265Y-50677419D01*
X129991265Y-50677419D02*
X129991265Y-49677419D01*
X129991265Y-49677419D02*
X130324598Y-49677419D01*
X130324598Y-49677419D02*
X130419836Y-49725038D01*
X130419836Y-49725038D02*
X130467455Y-49772657D01*
X130467455Y-49772657D02*
X130515074Y-49867895D01*
X130515074Y-49867895D02*
X130515074Y-49963133D01*
X130515074Y-49963133D02*
X130467455Y-50058371D01*
X130467455Y-50058371D02*
X130419836Y-50105990D01*
X130419836Y-50105990D02*
X130324598Y-50153609D01*
X130324598Y-50153609D02*
X129991265Y-50153609D01*
X133958646Y-49742419D02*
X134577693Y-49742419D01*
X134577693Y-49742419D02*
X134244360Y-50123371D01*
X134244360Y-50123371D02*
X134387217Y-50123371D01*
X134387217Y-50123371D02*
X134482455Y-50170990D01*
X134482455Y-50170990D02*
X134530074Y-50218609D01*
X134530074Y-50218609D02*
X134577693Y-50313847D01*
X134577693Y-50313847D02*
X134577693Y-50551942D01*
X134577693Y-50551942D02*
X134530074Y-50647180D01*
X134530074Y-50647180D02*
X134482455Y-50694800D01*
X134482455Y-50694800D02*
X134387217Y-50742419D01*
X134387217Y-50742419D02*
X134101503Y-50742419D01*
X134101503Y-50742419D02*
X134006265Y-50694800D01*
X134006265Y-50694800D02*
X133958646Y-50647180D01*
X135006265Y-50742419D02*
X135006265Y-49742419D01*
X135006265Y-49742419D02*
X135244360Y-49742419D01*
X135244360Y-49742419D02*
X135387217Y-49790038D01*
X135387217Y-49790038D02*
X135482455Y-49885276D01*
X135482455Y-49885276D02*
X135530074Y-49980514D01*
X135530074Y-49980514D02*
X135577693Y-50170990D01*
X135577693Y-50170990D02*
X135577693Y-50313847D01*
X135577693Y-50313847D02*
X135530074Y-50504323D01*
X135530074Y-50504323D02*
X135482455Y-50599561D01*
X135482455Y-50599561D02*
X135387217Y-50694800D01*
X135387217Y-50694800D02*
X135244360Y-50742419D01*
X135244360Y-50742419D02*
X135006265Y-50742419D01*
X126513646Y-49697419D02*
X127132693Y-49697419D01*
X127132693Y-49697419D02*
X126799360Y-50078371D01*
X126799360Y-50078371D02*
X126942217Y-50078371D01*
X126942217Y-50078371D02*
X127037455Y-50125990D01*
X127037455Y-50125990D02*
X127085074Y-50173609D01*
X127085074Y-50173609D02*
X127132693Y-50268847D01*
X127132693Y-50268847D02*
X127132693Y-50506942D01*
X127132693Y-50506942D02*
X127085074Y-50602180D01*
X127085074Y-50602180D02*
X127037455Y-50649800D01*
X127037455Y-50649800D02*
X126942217Y-50697419D01*
X126942217Y-50697419D02*
X126656503Y-50697419D01*
X126656503Y-50697419D02*
X126561265Y-50649800D01*
X126561265Y-50649800D02*
X126513646Y-50602180D01*
X127513646Y-50411704D02*
X127989836Y-50411704D01*
X127418408Y-50697419D02*
X127751741Y-49697419D01*
X127751741Y-49697419D02*
X128085074Y-50697419D01*
X131573646Y-49712419D02*
X132192693Y-49712419D01*
X132192693Y-49712419D02*
X131859360Y-50093371D01*
X131859360Y-50093371D02*
X132002217Y-50093371D01*
X132002217Y-50093371D02*
X132097455Y-50140990D01*
X132097455Y-50140990D02*
X132145074Y-50188609D01*
X132145074Y-50188609D02*
X132192693Y-50283847D01*
X132192693Y-50283847D02*
X132192693Y-50521942D01*
X132192693Y-50521942D02*
X132145074Y-50617180D01*
X132145074Y-50617180D02*
X132097455Y-50664800D01*
X132097455Y-50664800D02*
X132002217Y-50712419D01*
X132002217Y-50712419D02*
X131716503Y-50712419D01*
X131716503Y-50712419D02*
X131621265Y-50664800D01*
X131621265Y-50664800D02*
X131573646Y-50617180D01*
X133192693Y-50617180D02*
X133145074Y-50664800D01*
X133145074Y-50664800D02*
X133002217Y-50712419D01*
X133002217Y-50712419D02*
X132906979Y-50712419D01*
X132906979Y-50712419D02*
X132764122Y-50664800D01*
X132764122Y-50664800D02*
X132668884Y-50569561D01*
X132668884Y-50569561D02*
X132621265Y-50474323D01*
X132621265Y-50474323D02*
X132573646Y-50283847D01*
X132573646Y-50283847D02*
X132573646Y-50140990D01*
X132573646Y-50140990D02*
X132621265Y-49950514D01*
X132621265Y-49950514D02*
X132668884Y-49855276D01*
X132668884Y-49855276D02*
X132764122Y-49760038D01*
X132764122Y-49760038D02*
X132906979Y-49712419D01*
X132906979Y-49712419D02*
X133002217Y-49712419D01*
X133002217Y-49712419D02*
X133145074Y-49760038D01*
X133145074Y-49760038D02*
X133192693Y-49807657D01*
X136638646Y-49697419D02*
X137257693Y-49697419D01*
X137257693Y-49697419D02*
X136924360Y-50078371D01*
X136924360Y-50078371D02*
X137067217Y-50078371D01*
X137067217Y-50078371D02*
X137162455Y-50125990D01*
X137162455Y-50125990D02*
X137210074Y-50173609D01*
X137210074Y-50173609D02*
X137257693Y-50268847D01*
X137257693Y-50268847D02*
X137257693Y-50506942D01*
X137257693Y-50506942D02*
X137210074Y-50602180D01*
X137210074Y-50602180D02*
X137162455Y-50649800D01*
X137162455Y-50649800D02*
X137067217Y-50697419D01*
X137067217Y-50697419D02*
X136781503Y-50697419D01*
X136781503Y-50697419D02*
X136686265Y-50649800D01*
X136686265Y-50649800D02*
X136638646Y-50602180D01*
X137686265Y-50173609D02*
X138019598Y-50173609D01*
X138162455Y-50697419D02*
X137686265Y-50697419D01*
X137686265Y-50697419D02*
X137686265Y-49697419D01*
X137686265Y-49697419D02*
X138162455Y-49697419D01*
X139068646Y-49677419D02*
X139687693Y-49677419D01*
X139687693Y-49677419D02*
X139354360Y-50058371D01*
X139354360Y-50058371D02*
X139497217Y-50058371D01*
X139497217Y-50058371D02*
X139592455Y-50105990D01*
X139592455Y-50105990D02*
X139640074Y-50153609D01*
X139640074Y-50153609D02*
X139687693Y-50248847D01*
X139687693Y-50248847D02*
X139687693Y-50486942D01*
X139687693Y-50486942D02*
X139640074Y-50582180D01*
X139640074Y-50582180D02*
X139592455Y-50629800D01*
X139592455Y-50629800D02*
X139497217Y-50677419D01*
X139497217Y-50677419D02*
X139211503Y-50677419D01*
X139211503Y-50677419D02*
X139116265Y-50629800D01*
X139116265Y-50629800D02*
X139068646Y-50582180D01*
X140449598Y-50153609D02*
X140116265Y-50153609D01*
X140116265Y-50677419D02*
X140116265Y-49677419D01*
X140116265Y-49677419D02*
X140592455Y-49677419D01*
X141698646Y-49712419D02*
X142317693Y-49712419D01*
X142317693Y-49712419D02*
X141984360Y-50093371D01*
X141984360Y-50093371D02*
X142127217Y-50093371D01*
X142127217Y-50093371D02*
X142222455Y-50140990D01*
X142222455Y-50140990D02*
X142270074Y-50188609D01*
X142270074Y-50188609D02*
X142317693Y-50283847D01*
X142317693Y-50283847D02*
X142317693Y-50521942D01*
X142317693Y-50521942D02*
X142270074Y-50617180D01*
X142270074Y-50617180D02*
X142222455Y-50664800D01*
X142222455Y-50664800D02*
X142127217Y-50712419D01*
X142127217Y-50712419D02*
X141841503Y-50712419D01*
X141841503Y-50712419D02*
X141746265Y-50664800D01*
X141746265Y-50664800D02*
X141698646Y-50617180D01*
X143270074Y-49760038D02*
X143174836Y-49712419D01*
X143174836Y-49712419D02*
X143031979Y-49712419D01*
X143031979Y-49712419D02*
X142889122Y-49760038D01*
X142889122Y-49760038D02*
X142793884Y-49855276D01*
X142793884Y-49855276D02*
X142746265Y-49950514D01*
X142746265Y-49950514D02*
X142698646Y-50140990D01*
X142698646Y-50140990D02*
X142698646Y-50283847D01*
X142698646Y-50283847D02*
X142746265Y-50474323D01*
X142746265Y-50474323D02*
X142793884Y-50569561D01*
X142793884Y-50569561D02*
X142889122Y-50664800D01*
X142889122Y-50664800D02*
X143031979Y-50712419D01*
X143031979Y-50712419D02*
X143127217Y-50712419D01*
X143127217Y-50712419D02*
X143270074Y-50664800D01*
X143270074Y-50664800D02*
X143317693Y-50617180D01*
X143317693Y-50617180D02*
X143317693Y-50283847D01*
X143317693Y-50283847D02*
X143127217Y-50283847D01*
X144083646Y-49742419D02*
X144702693Y-49742419D01*
X144702693Y-49742419D02*
X144369360Y-50123371D01*
X144369360Y-50123371D02*
X144512217Y-50123371D01*
X144512217Y-50123371D02*
X144607455Y-50170990D01*
X144607455Y-50170990D02*
X144655074Y-50218609D01*
X144655074Y-50218609D02*
X144702693Y-50313847D01*
X144702693Y-50313847D02*
X144702693Y-50551942D01*
X144702693Y-50551942D02*
X144655074Y-50647180D01*
X144655074Y-50647180D02*
X144607455Y-50694800D01*
X144607455Y-50694800D02*
X144512217Y-50742419D01*
X144512217Y-50742419D02*
X144226503Y-50742419D01*
X144226503Y-50742419D02*
X144131265Y-50694800D01*
X144131265Y-50694800D02*
X144083646Y-50647180D01*
X145131265Y-50742419D02*
X145131265Y-49742419D01*
X145131265Y-50218609D02*
X145702693Y-50218609D01*
X145702693Y-50742419D02*
X145702693Y-49742419D01*
D11*
X112113095Y-26254819D02*
X112113095Y-27064342D01*
X112113095Y-27064342D02*
X112160714Y-27159580D01*
X112160714Y-27159580D02*
X112208333Y-27207200D01*
X112208333Y-27207200D02*
X112303571Y-27254819D01*
X112303571Y-27254819D02*
X112494047Y-27254819D01*
X112494047Y-27254819D02*
X112589285Y-27207200D01*
X112589285Y-27207200D02*
X112636904Y-27159580D01*
X112636904Y-27159580D02*
X112684523Y-27064342D01*
X112684523Y-27064342D02*
X112684523Y-26254819D01*
X113113095Y-26350057D02*
X113160714Y-26302438D01*
X113160714Y-26302438D02*
X113255952Y-26254819D01*
X113255952Y-26254819D02*
X113494047Y-26254819D01*
X113494047Y-26254819D02*
X113589285Y-26302438D01*
X113589285Y-26302438D02*
X113636904Y-26350057D01*
X113636904Y-26350057D02*
X113684523Y-26445295D01*
X113684523Y-26445295D02*
X113684523Y-26540533D01*
X113684523Y-26540533D02*
X113636904Y-26683390D01*
X113636904Y-26683390D02*
X113065476Y-27254819D01*
X113065476Y-27254819D02*
X113684523Y-27254819D01*
X135418095Y-26364819D02*
X135418095Y-27174342D01*
X135418095Y-27174342D02*
X135465714Y-27269580D01*
X135465714Y-27269580D02*
X135513333Y-27317200D01*
X135513333Y-27317200D02*
X135608571Y-27364819D01*
X135608571Y-27364819D02*
X135799047Y-27364819D01*
X135799047Y-27364819D02*
X135894285Y-27317200D01*
X135894285Y-27317200D02*
X135941904Y-27269580D01*
X135941904Y-27269580D02*
X135989523Y-27174342D01*
X135989523Y-27174342D02*
X135989523Y-26364819D01*
X136370476Y-26364819D02*
X136989523Y-26364819D01*
X136989523Y-26364819D02*
X136656190Y-26745771D01*
X136656190Y-26745771D02*
X136799047Y-26745771D01*
X136799047Y-26745771D02*
X136894285Y-26793390D01*
X136894285Y-26793390D02*
X136941904Y-26841009D01*
X136941904Y-26841009D02*
X136989523Y-26936247D01*
X136989523Y-26936247D02*
X136989523Y-27174342D01*
X136989523Y-27174342D02*
X136941904Y-27269580D01*
X136941904Y-27269580D02*
X136894285Y-27317200D01*
X136894285Y-27317200D02*
X136799047Y-27364819D01*
X136799047Y-27364819D02*
X136513333Y-27364819D01*
X136513333Y-27364819D02*
X136418095Y-27317200D01*
X136418095Y-27317200D02*
X136370476Y-27269580D01*
X88698095Y-26039819D02*
X88698095Y-26849342D01*
X88698095Y-26849342D02*
X88745714Y-26944580D01*
X88745714Y-26944580D02*
X88793333Y-26992200D01*
X88793333Y-26992200D02*
X88888571Y-27039819D01*
X88888571Y-27039819D02*
X89079047Y-27039819D01*
X89079047Y-27039819D02*
X89174285Y-26992200D01*
X89174285Y-26992200D02*
X89221904Y-26944580D01*
X89221904Y-26944580D02*
X89269523Y-26849342D01*
X89269523Y-26849342D02*
X89269523Y-26039819D01*
X90269523Y-27039819D02*
X89698095Y-27039819D01*
X89983809Y-27039819D02*
X89983809Y-26039819D01*
X89983809Y-26039819D02*
X89888571Y-26182676D01*
X89888571Y-26182676D02*
X89793333Y-26277914D01*
X89793333Y-26277914D02*
X89698095Y-26325533D01*
X104629819Y-19798333D02*
X105344104Y-19798333D01*
X105344104Y-19798333D02*
X105486961Y-19845952D01*
X105486961Y-19845952D02*
X105582200Y-19941190D01*
X105582200Y-19941190D02*
X105629819Y-20084047D01*
X105629819Y-20084047D02*
X105629819Y-20179285D01*
X105629819Y-18798333D02*
X105629819Y-19369761D01*
X105629819Y-19084047D02*
X104629819Y-19084047D01*
X104629819Y-19084047D02*
X104772676Y-19179285D01*
X104772676Y-19179285D02*
X104867914Y-19274523D01*
X104867914Y-19274523D02*
X104915533Y-19369761D01*
D12*
%TO.C,J5*%
X123235000Y-51505000D02*
X123115000Y-51505000D01*
X123115000Y-51505000D02*
X123115000Y-54165000D01*
X125775000Y-52835000D02*
X125775000Y-54165000D01*
X125775000Y-54165000D02*
X124445000Y-54165000D01*
X123235000Y-54165000D02*
X123115000Y-54165000D01*
%TO.C,U2*%
X107735000Y-27740000D02*
X107735000Y-48300000D01*
X107735000Y-48300000D02*
X118015000Y-48300000D01*
X110225000Y-27800000D02*
X110225000Y-48240000D01*
X110225000Y-48240000D02*
X115525000Y-48240000D01*
X111875000Y-27800000D02*
X110225000Y-27800000D01*
X115525000Y-27800000D02*
X113875000Y-27800000D01*
X115525000Y-48240000D02*
X115525000Y-27800000D01*
X118015000Y-27740000D02*
X107735000Y-27740000D01*
X118015000Y-48300000D02*
X118015000Y-27740000D01*
X113875000Y-27800000D02*
G75*
G02*
X111875000Y-27800000I-1000000J0D01*
G01*
%TO.C,U3*%
X131040000Y-27850000D02*
X131040000Y-48410000D01*
X131040000Y-48410000D02*
X141320000Y-48410000D01*
X133530000Y-27910000D02*
X133530000Y-48350000D01*
X133530000Y-48350000D02*
X138830000Y-48350000D01*
X135180000Y-27910000D02*
X133530000Y-27910000D01*
X138830000Y-27910000D02*
X137180000Y-27910000D01*
X138830000Y-48350000D02*
X138830000Y-27910000D01*
X141320000Y-27850000D02*
X131040000Y-27850000D01*
X141320000Y-48410000D02*
X141320000Y-27850000D01*
X137180000Y-27910000D02*
G75*
G02*
X135180000Y-27910000I-1000000J0D01*
G01*
%TO.C,U1*%
X84320000Y-27525000D02*
X84320000Y-48085000D01*
X84320000Y-48085000D02*
X94600000Y-48085000D01*
X86810000Y-27585000D02*
X86810000Y-48025000D01*
X86810000Y-48025000D02*
X92110000Y-48025000D01*
X88460000Y-27585000D02*
X86810000Y-27585000D01*
X92110000Y-27585000D02*
X90460000Y-27585000D01*
X92110000Y-48025000D02*
X92110000Y-27585000D01*
X94600000Y-27525000D02*
X84320000Y-27525000D01*
X94600000Y-48085000D02*
X94600000Y-27525000D01*
X90460000Y-27585000D02*
G75*
G02*
X88460000Y-27585000I-1000000J0D01*
G01*
%TO.C,J4*%
X143725000Y-51405000D02*
X125885000Y-51405000D01*
X143725000Y-51405000D02*
X143725000Y-54065000D01*
X125885000Y-51405000D02*
X125885000Y-54065000D01*
X146325000Y-52735000D02*
X146325000Y-54065000D01*
X146325000Y-54065000D02*
X144995000Y-54065000D01*
X143725000Y-54065000D02*
X125885000Y-54065000D01*
%TO.C,J3*%
X120415000Y-51515000D02*
X102575000Y-51515000D01*
X120415000Y-51515000D02*
X120415000Y-54175000D01*
X102575000Y-51515000D02*
X102575000Y-54175000D01*
X123015000Y-52845000D02*
X123015000Y-54175000D01*
X123015000Y-54175000D02*
X121685000Y-54175000D01*
X120415000Y-54175000D02*
X102575000Y-54175000D01*
%TO.C,J2*%
X97110000Y-51395000D02*
X79270000Y-51395000D01*
X97110000Y-51395000D02*
X97110000Y-54055000D01*
X79270000Y-51395000D02*
X79270000Y-54055000D01*
X99710000Y-52725000D02*
X99710000Y-54055000D01*
X99710000Y-54055000D02*
X98380000Y-54055000D01*
X97110000Y-54055000D02*
X79270000Y-54055000D01*
%TO.C,J1*%
X109215000Y-20795000D02*
X119435000Y-20795000D01*
X109215000Y-20795000D02*
X109215000Y-18135000D01*
X119435000Y-20795000D02*
X119435000Y-18135000D01*
X106615000Y-19465000D02*
X106615000Y-18135000D01*
X106615000Y-18135000D02*
X107945000Y-18135000D01*
X109215000Y-18135000D02*
X119435000Y-18135000D01*
%TD*%
M02*
