%TF.GenerationSoftware,KiCad,Pcbnew,8.0.6*%
%TF.CreationDate,2026-05-30T16:06:03+02:00*%
%TF.ProjectId,_kb,5f6b622e-6b69-4636-9164-5f7063625858,rev?*%
%TF.SameCoordinates,Original*%
%TF.FileFunction,Soldermask,Bot*%
%TF.FilePolarity,Negative*%
%FSLAX46Y46*%
G04 Gerber Fmt 4.6, Leading zero omitted, Abs format (unit mm)*
G04 Created by KiCad (PCBNEW 8.0.6) date 2026-05-30 16:06:03*
%MOMM*%
%LPD*%
G01*
G04 APERTURE LIST*
%ADD10R,1.700000X1.700000*%
%ADD11R,1.600000X1.600000*%
%ADD12O,1.600000X1.600000*%
%ADD13O,1.700000X1.700000*%
G04 APERTURE END LIST*
D10*
%TO.C,J5*%
X124445000Y-52835000D03*
%TD*%
D11*
%TO.C,U2*%
X109065000Y-29130000D03*
D12*
X109065000Y-31670000D03*
X109065000Y-34210000D03*
X109065000Y-36750000D03*
X109065000Y-39290000D03*
X109065000Y-41830000D03*
X109065000Y-44370000D03*
X109065000Y-46910000D03*
X116685000Y-46910000D03*
X116685000Y-44370000D03*
X116685000Y-41830000D03*
X116685000Y-39290000D03*
X116685000Y-36750000D03*
X116685000Y-34210000D03*
X116685000Y-31670000D03*
X116685000Y-29130000D03*
%TD*%
D11*
%TO.C,U3*%
X132370000Y-29240000D03*
D12*
X132370000Y-31780000D03*
X132370000Y-34320000D03*
X132370000Y-36860000D03*
X132370000Y-39400000D03*
X132370000Y-41940000D03*
X132370000Y-44480000D03*
X132370000Y-47020000D03*
X139990000Y-47020000D03*
X139990000Y-44480000D03*
X139990000Y-41940000D03*
X139990000Y-39400000D03*
X139990000Y-36860000D03*
X139990000Y-34320000D03*
X139990000Y-31780000D03*
X139990000Y-29240000D03*
%TD*%
D11*
%TO.C,U1*%
X85650000Y-28915000D03*
D12*
X85650000Y-31455000D03*
X85650000Y-33995000D03*
X85650000Y-36535000D03*
X85650000Y-39075000D03*
X85650000Y-41615000D03*
X85650000Y-44155000D03*
X85650000Y-46695000D03*
X93270000Y-46695000D03*
X93270000Y-44155000D03*
X93270000Y-41615000D03*
X93270000Y-39075000D03*
X93270000Y-36535000D03*
X93270000Y-33995000D03*
X93270000Y-31455000D03*
X93270000Y-28915000D03*
%TD*%
D10*
%TO.C,J4*%
X144995000Y-52735000D03*
D13*
X142455000Y-52735000D03*
X139915000Y-52735000D03*
X137375000Y-52735000D03*
X134835000Y-52735000D03*
X132295000Y-52735000D03*
X129755000Y-52735000D03*
X127215000Y-52735000D03*
%TD*%
D10*
%TO.C,J3*%
X121685000Y-52845000D03*
D13*
X119145000Y-52845000D03*
X116605000Y-52845000D03*
X114065000Y-52845000D03*
X111525000Y-52845000D03*
X108985000Y-52845000D03*
X106445000Y-52845000D03*
X103905000Y-52845000D03*
%TD*%
D10*
%TO.C,J2*%
X98380000Y-52725000D03*
D13*
X95840000Y-52725000D03*
X93300000Y-52725000D03*
X90760000Y-52725000D03*
X88220000Y-52725000D03*
X85680000Y-52725000D03*
X83140000Y-52725000D03*
X80600000Y-52725000D03*
%TD*%
D10*
%TO.C,J1*%
X107945000Y-19465000D03*
D13*
X110485000Y-19465000D03*
X113025000Y-19465000D03*
X115565000Y-19465000D03*
X118105000Y-19465000D03*
%TD*%
M02*
