M48
; DRILL file {KiCad 8.0.6} date 2026-05-30T16:06:01+0200
; FORMAT={-:-/ absolute / inch / decimal}
; #@! TF.CreationDate,2026-05-30T16:06:01+02:00
; #@! TF.GenerationSoftware,Kicad,Pcbnew,8.0.6
; #@! TF.FileFunction,Plated,1,2,PTH
FMAT,2
INCH
; #@! TA.AperFunction,Plated,PTH,ViaDrill
T1C0.0118
; #@! TA.AperFunction,Plated,PTH,ViaDrill
T2C0.0295
; #@! TA.AperFunction,Plated,PTH,ComponentDrill
T3C0.0315
; #@! TA.AperFunction,Plated,PTH,ComponentDrill
T4C0.0394
%
G90
G05
T1
X3.2637Y-1.2064
X3.6126Y-1.0733
X3.738Y-1.0738
X3.8049Y-1.9257
X3.998Y-1.9257
X4.034Y-1.9257
X4.4449Y-1.1116
X4.6921Y-1.3969
X4.725Y-1.9305
X4.762Y-0.8749
X5.3012Y-1.0768
X5.6402Y-1.9069
T2
X4.7244Y-0.9331
T3
X3.372Y-1.1384
X3.372Y-1.2384
X3.372Y-1.3384
X3.372Y-1.4384
X3.372Y-1.5384
X3.372Y-1.6384
X3.372Y-1.7384
X3.372Y-1.8384
X3.672Y-1.1384
X3.672Y-1.2384
X3.672Y-1.3384
X3.672Y-1.4384
X3.672Y-1.5384
X3.672Y-1.6384
X3.672Y-1.7384
X3.672Y-1.8384
X4.2939Y-1.1469
X4.2939Y-1.2469
X4.2939Y-1.3469
X4.2939Y-1.4469
X4.2939Y-1.5469
X4.2939Y-1.6469
X4.2939Y-1.7469
X4.2939Y-1.8469
X4.5939Y-1.1469
X4.5939Y-1.2469
X4.5939Y-1.3469
X4.5939Y-1.4469
X4.5939Y-1.5469
X4.5939Y-1.6469
X4.5939Y-1.7469
X4.5939Y-1.8469
X5.2114Y-1.1512
X5.2114Y-1.2512
X5.2114Y-1.3512
X5.2114Y-1.4512
X5.2114Y-1.5512
X5.2114Y-1.6512
X5.2114Y-1.7512
X5.2114Y-1.8512
X5.5114Y-1.1512
X5.5114Y-1.2512
X5.5114Y-1.3512
X5.5114Y-1.4512
X5.5114Y-1.5512
X5.5114Y-1.6512
X5.5114Y-1.7512
X5.5114Y-1.8512
T4
X3.1732Y-2.0758
X3.2732Y-2.0758
X3.3732Y-2.0758
X3.4732Y-2.0758
X3.5732Y-2.0758
X3.6732Y-2.0758
X3.7732Y-2.0758
X3.8732Y-2.0758
X4.0907Y-2.0805
X4.1907Y-2.0805
X4.2498Y-0.7663
X4.2907Y-2.0805
X4.3498Y-0.7663
X4.3907Y-2.0805
X4.4498Y-0.7663
X4.4907Y-2.0805
X4.5498Y-0.7663
X4.5907Y-2.0805
X4.6498Y-0.7663
X4.6907Y-2.0805
X4.7907Y-2.0805
X4.8994Y-2.0801
X5.0085Y-2.0762
X5.1085Y-2.0762
X5.2085Y-2.0762
X5.3085Y-2.0762
X5.4085Y-2.0762
X5.5085Y-2.0762
X5.6085Y-2.0762
X5.7085Y-2.0762
M30
