M48
; DRILL file {KiCad 8.0.6} date 2026-05-30T20:44:26+0200
; FORMAT={-:-/ absolute / inch / decimal}
; #@! TF.CreationDate,2026-05-30T20:44:26+02:00
; #@! TF.GenerationSoftware,Kicad,Pcbnew,8.0.6
; #@! TF.FileFunction,Plated,1,2,PTH
FMAT,2
INCH
; #@! TA.AperFunction,Plated,PTH,ViaDrill
T1C0.0118
; #@! TA.AperFunction,Plated,PTH,ViaDrill
T2C0.0295
; #@! TA.AperFunction,Plated,PTH,ComponentDrill
T3C0.0315
; #@! TA.AperFunction,Plated,PTH,ComponentDrill
T4C0.0354
; #@! TA.AperFunction,Plated,PTH,ComponentDrill
T5C0.0394
; #@! TA.AperFunction,Plated,PTH,ComponentDrill
T6C0.0433
; #@! TA.AperFunction,Plated,PTH,ComponentDrill
T7C0.0472
; #@! TA.AperFunction,Plated,PTH,ComponentDrill
T8C0.0512
; #@! TA.AperFunction,Plated,PTH,ComponentDrill
T9C0.0669
; #@! TA.AperFunction,Plated,PTH,ComponentDrill
T10C0.1260
%
G90
G05
T1
X2.9849Y-1.7424
X3.3339Y-1.6093
X3.4593Y-1.6099
X3.5262Y-2.4617
X3.6747Y-3.9839
X3.7062Y-3.9839
X3.7193Y-2.4617
X3.7552Y-2.4617
X3.7641Y-3.0776
X4.1661Y-1.6476
X4.2279Y-3.6728
X4.2605Y-3.6728
X4.4134Y-1.9329
X4.4463Y-2.4665
X4.4625Y-3.2748
X4.4833Y-1.4109
X5.0225Y-1.6128
X5.3614Y-2.4429
T2
X4.4457Y-1.4691
T3
X3.0933Y-1.6744
X3.0933Y-1.7744
X3.0933Y-1.8744
X3.0933Y-1.9744
X3.0933Y-2.0744
X3.0933Y-2.1744
X3.0933Y-2.2744
X3.0933Y-2.3744
X3.3933Y-1.6744
X3.3933Y-1.7744
X3.3933Y-1.8744
X3.3933Y-1.9744
X3.3933Y-2.0744
X3.3933Y-2.1744
X3.3933Y-2.2744
X3.3933Y-2.3744
X4.0152Y-1.6829
X4.0152Y-1.7829
X4.0152Y-1.8829
X4.0152Y-1.9829
X4.0152Y-2.0829
X4.0152Y-2.1829
X4.0152Y-2.2829
X4.0152Y-2.3829
X4.3152Y-1.6829
X4.3152Y-1.7829
X4.3152Y-1.8829
X4.3152Y-1.9829
X4.3152Y-2.0829
X4.3152Y-2.1829
X4.3152Y-2.2829
X4.3152Y-2.3829
X4.5881Y-4.1866
X4.5881Y-4.6866
X4.9327Y-1.6872
X4.9327Y-1.7872
X4.9327Y-1.8872
X4.9327Y-1.9872
X4.9327Y-2.0872
X4.9327Y-2.1872
X4.9327Y-2.2872
X4.9327Y-2.3872
X5.2327Y-1.6872
X5.2327Y-1.7872
X5.2327Y-1.8872
X5.2327Y-1.9872
X5.2327Y-2.0872
X5.2327Y-2.1872
X5.2327Y-2.2872
X5.2327Y-2.3872
T4
X4.8907Y-4.5705
X4.9907Y-4.5705
T5
X2.7071Y-2.9467
X2.7071Y-3.0467
X2.7071Y-3.1467
X2.8945Y-2.6118
X2.9945Y-2.6118
X3.0133Y-2.9539
X3.0133Y-3.0539
X3.0133Y-3.1539
X3.0133Y-3.2539
X3.0133Y-3.3539
X3.0945Y-2.6118
X3.1212Y-4.224
X3.1231Y-4.3264
X3.1243Y-4.4287
X3.1945Y-2.6118
X3.22Y-3.709
X3.22Y-3.9058
X3.2212Y-4.224
X3.2231Y-4.3264
X3.2243Y-4.4287
X3.2945Y-2.6118
X3.3212Y-4.224
X3.3231Y-4.3264
X3.3243Y-4.4287
X3.3945Y-2.6118
X3.4212Y-4.224
X3.4231Y-4.3264
X3.4243Y-4.4287
X3.4945Y-2.6118
X3.5212Y-4.224
X3.5231Y-4.3264
X3.5243Y-4.4287
X3.5901Y-3.1539
X3.5901Y-3.2539
X3.5901Y-3.3539
X3.5945Y-2.6118
X3.812Y-2.6165
X3.844Y-2.8559
X3.844Y-2.9559
X3.844Y-3.0559
X3.844Y-3.1559
X3.844Y-3.2559
X3.844Y-3.3559
X3.912Y-2.6165
X3.9711Y-1.3024
X4.012Y-2.6165
X4.0711Y-1.3024
X4.112Y-2.6165
X4.1711Y-1.3024
X4.212Y-2.6165
X4.2711Y-1.3024
X4.312Y-2.6165
X4.3711Y-1.3024
X4.3735Y-3.0441
X4.3735Y-3.1441
X4.3735Y-3.2441
X4.3735Y-3.3441
X4.412Y-2.6165
X4.512Y-2.6165
X4.5901Y-3.6484
X4.5901Y-3.7484
X4.5901Y-3.8484
X4.5901Y-3.9484
X4.6207Y-2.6161
X4.7297Y-2.6122
X4.8297Y-2.6122
X4.9297Y-2.6122
X5.0297Y-2.6122
X5.1297Y-2.6122
X5.2297Y-2.6122
X5.2952Y-3.3614
X5.2952Y-3.6413
X5.3297Y-2.6122
X5.3952Y-3.3614
X5.3952Y-3.6413
X5.4297Y-2.6122
X5.4952Y-3.3614
X5.4952Y-3.6413
X6.8708Y-3.2063
X6.8708Y-3.3063
X6.8708Y-3.4063
X6.8708Y-3.5063
X6.8708Y-3.6063
X6.8708Y-3.7063
T6
X3.7735Y-3.6043
X3.7735Y-3.7043
X3.7735Y-3.8043
X3.7735Y-3.9043
X3.7735Y-4.0043
X3.7735Y-4.1043
X3.7735Y-4.2043
X3.7735Y-4.3043
X3.7735Y-4.4043
X3.7735Y-4.5043
X3.7735Y-4.6043
X3.7735Y-4.7043
X4.3735Y-3.6043
X4.3735Y-3.7043
X4.3735Y-3.8043
X4.3735Y-3.9043
X4.3735Y-4.0043
X4.3735Y-4.1043
X4.3735Y-4.2043
X4.3735Y-4.3043
X4.3735Y-4.4043
X4.3735Y-4.5043
X4.3735Y-4.6043
X4.3735Y-4.7043
T7
X5.8253Y-1.7772
X5.8253Y-4.0803
X5.9631Y-4.0803
X6.3432Y-1.7864
X6.3432Y-4.0896
X6.481Y-4.0896
T8
X1.9482Y-2.4752
X1.9482Y-2.672
X1.9482Y-3.4594
X1.9482Y-3.6563
X2.4404Y-2.4752
X2.4404Y-2.672
X2.4404Y-3.4594
X2.4404Y-3.6563
T9
X5.7288Y-1.9878
X5.7288Y-3.8697
X6.0595Y-1.9406
X6.0595Y-3.9169
X6.2468Y-1.997
X6.2468Y-3.8789
X6.5775Y-1.9498
X6.5775Y-3.9262
T10
X2.1943Y-2.0618
X2.1943Y-2.0618
X2.1943Y-4.0697
X5.4357Y-3.0075
X6.7873Y-1.8837
X6.7995Y-4.1041
M30
