%TF.GenerationSoftware,KiCad,Pcbnew,8.0.6*%
%TF.CreationDate,2026-05-30T20:44:26+02:00*%
%TF.ProjectId,untitled,756e7469-746c-4656-942e-6b696361645f,rev?*%
%TF.SameCoordinates,Original*%
%TF.FileFunction,Drillmap*%
%TF.FilePolarity,Positive*%
%FSLAX45Y45*%
G04 Gerber Fmt 4.5, Leading zero omitted, Abs format (unit mm)*
G04 Created by KiCad (PCBNEW 8.0.6) date 2026-05-30 20:44:26*
%MOMM*%
%LPD*%
G01*
G04 APERTURE LIST*
%ADD10C,0.050000*%
%ADD11C,0.200000*%
%ADD12C,0.100000*%
%ADD13C,0.110000*%
%ADD14C,0.120000*%
%ADD15C,0.130000*%
%ADD16C,0.170000*%
%ADD17C,0.320000*%
G04 APERTURE END LIST*
D10*
X14004000Y-4522000D02*
X14068500Y-4522000D01*
X14071000Y-6843000D02*
X14002000Y-6841500D01*
X14070250Y-6861500D02*
X14071000Y-6843000D01*
X14002500Y-4567000D02*
X14070000Y-4567000D01*
X14070000Y-6792000D01*
X14002500Y-6792000D01*
X14002500Y-4567000D01*
X7073500Y-9437000D02*
X7140000Y-9437000D01*
X7073500Y-6087000D02*
X7138000Y-6087000D01*
X11408769Y-6939018D02*
X11408769Y-6839500D01*
X14002000Y-6841500D02*
X11408769Y-6839500D01*
X7213500Y-6839500D02*
X11231269Y-6839500D01*
X11231269Y-6939018D01*
X7213500Y-6939018D01*
X7213500Y-6839500D01*
X7073500Y-6183500D02*
X7138000Y-6183500D01*
X7138000Y-6791500D01*
X7073500Y-6791500D01*
X7073500Y-6183500D01*
X7073500Y-7008000D02*
X7140000Y-7008000D01*
X7140000Y-9327000D01*
X7073500Y-9327000D01*
X7073500Y-7008000D01*
X11408769Y-8059018D02*
X11408769Y-6939018D01*
X12368769Y-9019018D02*
X12368769Y-11099018D01*
X13078769Y-12184018D02*
X9963769Y-12184018D01*
X9963769Y-12184018D02*
X7133769Y-12184018D01*
X12368769Y-9019018D02*
X11408769Y-8059018D01*
X13078769Y-11099018D02*
X12368769Y-11099018D01*
X7133769Y-12184018D02*
X7140000Y-9437000D01*
X13078769Y-11099018D02*
X13078769Y-12184018D01*
X6423500Y-6087000D02*
X7073500Y-6087000D01*
X6423500Y-9437000D02*
X6423500Y-10737000D01*
X4673500Y-10737000D02*
X4673500Y-4737000D01*
X6423500Y-4737000D02*
X6423500Y-6087000D01*
X4673500Y-4737000D02*
X6423500Y-4737000D01*
X7073500Y-9437000D02*
X6423500Y-9437000D01*
X6423500Y-10737000D02*
X4673500Y-10737000D01*
X8141000Y-3518500D02*
X9662000Y-3519000D01*
X7138000Y-6087000D02*
X7136500Y-4522000D01*
X9662000Y-3107500D02*
X11519500Y-3108000D01*
X7136500Y-4522000D02*
X8141000Y-3518500D01*
X11519500Y-3108000D02*
X11519500Y-3522000D01*
X11519500Y-3522000D02*
X13005000Y-3522000D01*
X13005000Y-3522000D02*
X14004000Y-4522000D01*
X9662000Y-3519000D02*
X9662000Y-3107500D01*
X17269250Y-6862500D02*
X17271250Y-7919500D01*
X17689250Y-10834000D02*
X17689250Y-7919500D01*
X17269250Y-6862500D02*
X17269000Y-5603500D01*
X14068500Y-4342500D02*
X14068500Y-4522000D01*
X14417750Y-8921000D02*
X13092250Y-8921000D01*
X13091250Y-7929500D02*
X14070250Y-6861500D01*
X14417750Y-8863000D02*
X14417750Y-8921000D01*
X13092250Y-8863000D02*
X14417750Y-8863000D01*
X13091750Y-9877500D02*
X14102250Y-9877000D01*
X13092250Y-8921000D02*
X13091750Y-9877500D01*
X13091250Y-7929500D02*
X13092250Y-8863000D01*
X14102250Y-9877000D02*
X14102750Y-10834000D01*
X17271250Y-7919500D02*
X17689250Y-7919500D01*
X14102750Y-10834000D02*
X17689250Y-10834000D01*
X17690250Y-4342000D02*
X14068500Y-4342500D01*
X17269000Y-5603500D02*
X17691250Y-5603500D01*
X17691250Y-5603500D02*
X17690250Y-4342000D01*
D11*
D12*
X7566717Y-4410717D02*
X7596717Y-4440717D01*
X7596717Y-4410717D02*
X7566717Y-4440717D01*
X8453066Y-4072566D02*
X8483066Y-4102566D01*
X8483066Y-4072566D02*
X8453066Y-4102566D01*
X8771566Y-4074066D02*
X8801566Y-4104066D01*
X8801566Y-4074066D02*
X8771566Y-4104066D01*
X8941500Y-6237840D02*
X8971500Y-6267840D01*
X8971500Y-6237840D02*
X8941500Y-6267840D01*
X9318768Y-10104018D02*
X9348768Y-10134018D01*
X9348768Y-10104018D02*
X9318768Y-10134018D01*
X9398769Y-10104018D02*
X9428769Y-10134018D01*
X9428769Y-10104018D02*
X9398769Y-10134018D01*
X9432000Y-6237840D02*
X9462000Y-6267840D01*
X9462000Y-6237840D02*
X9432000Y-6267840D01*
X9523280Y-6237840D02*
X9553280Y-6267840D01*
X9553280Y-6237840D02*
X9523280Y-6267840D01*
X9545768Y-7802085D02*
X9575768Y-7832085D01*
X9575768Y-7802085D02*
X9545768Y-7832085D01*
X10567000Y-4170000D02*
X10597000Y-4200000D01*
X10597000Y-4170000D02*
X10567000Y-4200000D01*
X10723769Y-9314018D02*
X10753769Y-9344018D01*
X10753769Y-9314018D02*
X10723769Y-9344018D01*
X10806619Y-9314018D02*
X10836619Y-9344018D01*
X10836619Y-9314018D02*
X10806619Y-9344018D01*
X11195000Y-4894500D02*
X11225000Y-4924500D01*
X11225000Y-4894500D02*
X11195000Y-4924500D01*
X11278608Y-6249958D02*
X11308608Y-6279958D01*
X11308608Y-6249958D02*
X11278608Y-6279958D01*
X11319736Y-8303051D02*
X11349736Y-8333051D01*
X11349736Y-8303051D02*
X11319736Y-8333051D01*
X11372496Y-3568779D02*
X11402496Y-3598779D01*
X11402496Y-3568779D02*
X11372496Y-3598779D01*
X12742130Y-4081630D02*
X12772130Y-4111630D01*
X12772130Y-4081630D02*
X12742130Y-4111630D01*
X13603000Y-6190000D02*
X13633000Y-6220000D01*
X13633000Y-6190000D02*
X13603000Y-6220000D01*
X11329500Y-3731500D02*
G75*
G02*
X11254500Y-3731500I-37500J0D01*
G01*
X11254500Y-3731500D02*
G75*
G02*
X11329500Y-3731500I37500J0D01*
G01*
X7857000Y-4213000D02*
X7857000Y-4293000D01*
X7817000Y-4253000D02*
X7897000Y-4253000D01*
X7857000Y-4467000D02*
X7857000Y-4547000D01*
X7817000Y-4507000D02*
X7897000Y-4507000D01*
X7857000Y-4721000D02*
X7857000Y-4801000D01*
X7817000Y-4761000D02*
X7897000Y-4761000D01*
X7857000Y-4975000D02*
X7857000Y-5055000D01*
X7817000Y-5015000D02*
X7897000Y-5015000D01*
X7857000Y-5229000D02*
X7857000Y-5309000D01*
X7817000Y-5269000D02*
X7897000Y-5269000D01*
X7857000Y-5483000D02*
X7857000Y-5563000D01*
X7817000Y-5523000D02*
X7897000Y-5523000D01*
X7857000Y-5737000D02*
X7857000Y-5817000D01*
X7817000Y-5777000D02*
X7897000Y-5777000D01*
X7857000Y-5991000D02*
X7857000Y-6071000D01*
X7817000Y-6031000D02*
X7897000Y-6031000D01*
X8619000Y-4213000D02*
X8619000Y-4293000D01*
X8579000Y-4253000D02*
X8659000Y-4253000D01*
X8619000Y-4467000D02*
X8619000Y-4547000D01*
X8579000Y-4507000D02*
X8659000Y-4507000D01*
X8619000Y-4721000D02*
X8619000Y-4801000D01*
X8579000Y-4761000D02*
X8659000Y-4761000D01*
X8619000Y-4975000D02*
X8619000Y-5055000D01*
X8579000Y-5015000D02*
X8659000Y-5015000D01*
X8619000Y-5229000D02*
X8619000Y-5309000D01*
X8579000Y-5269000D02*
X8659000Y-5269000D01*
X8619000Y-5483000D02*
X8619000Y-5563000D01*
X8579000Y-5523000D02*
X8659000Y-5523000D01*
X8619000Y-5737000D02*
X8619000Y-5817000D01*
X8579000Y-5777000D02*
X8659000Y-5777000D01*
X8619000Y-5991000D02*
X8619000Y-6071000D01*
X8579000Y-6031000D02*
X8659000Y-6031000D01*
X10198500Y-4234500D02*
X10198500Y-4314500D01*
X10158500Y-4274500D02*
X10238500Y-4274500D01*
X10198500Y-4488500D02*
X10198500Y-4568500D01*
X10158500Y-4528500D02*
X10238500Y-4528500D01*
X10198500Y-4742500D02*
X10198500Y-4822500D01*
X10158500Y-4782500D02*
X10238500Y-4782500D01*
X10198500Y-4996500D02*
X10198500Y-5076500D01*
X10158500Y-5036500D02*
X10238500Y-5036500D01*
X10198500Y-5250500D02*
X10198500Y-5330500D01*
X10158500Y-5290500D02*
X10238500Y-5290500D01*
X10198500Y-5504500D02*
X10198500Y-5584500D01*
X10158500Y-5544500D02*
X10238500Y-5544500D01*
X10198500Y-5758500D02*
X10198500Y-5838500D01*
X10158500Y-5798500D02*
X10238500Y-5798500D01*
X10198500Y-6012500D02*
X10198500Y-6092500D01*
X10158500Y-6052500D02*
X10238500Y-6052500D01*
X10960500Y-4234500D02*
X10960500Y-4314500D01*
X10920500Y-4274500D02*
X11000500Y-4274500D01*
X10960500Y-4488500D02*
X10960500Y-4568500D01*
X10920500Y-4528500D02*
X11000500Y-4528500D01*
X10960500Y-4742500D02*
X10960500Y-4822500D01*
X10920500Y-4782500D02*
X11000500Y-4782500D01*
X10960500Y-4996500D02*
X10960500Y-5076500D01*
X10920500Y-5036500D02*
X11000500Y-5036500D01*
X10960500Y-5250500D02*
X10960500Y-5330500D01*
X10920500Y-5290500D02*
X11000500Y-5290500D01*
X10960500Y-5504500D02*
X10960500Y-5584500D01*
X10920500Y-5544500D02*
X11000500Y-5544500D01*
X10960500Y-5758500D02*
X10960500Y-5838500D01*
X10920500Y-5798500D02*
X11000500Y-5798500D01*
X10960500Y-6012500D02*
X10960500Y-6092500D01*
X10920500Y-6052500D02*
X11000500Y-6052500D01*
X11653769Y-10594018D02*
X11653769Y-10674018D01*
X11613769Y-10634018D02*
X11693769Y-10634018D01*
X11653769Y-11864018D02*
X11653769Y-11944018D01*
X11613769Y-11904018D02*
X11693769Y-11904018D01*
X12529000Y-4245500D02*
X12529000Y-4325500D01*
X12489000Y-4285500D02*
X12569000Y-4285500D01*
X12529000Y-4499500D02*
X12529000Y-4579500D01*
X12489000Y-4539500D02*
X12569000Y-4539500D01*
X12529000Y-4753500D02*
X12529000Y-4833500D01*
X12489000Y-4793500D02*
X12569000Y-4793500D01*
X12529000Y-5007500D02*
X12529000Y-5087500D01*
X12489000Y-5047500D02*
X12569000Y-5047500D01*
X12529000Y-5261500D02*
X12529000Y-5341500D01*
X12489000Y-5301500D02*
X12569000Y-5301500D01*
X12529000Y-5515500D02*
X12529000Y-5595500D01*
X12489000Y-5555500D02*
X12569000Y-5555500D01*
X12529000Y-5769500D02*
X12529000Y-5849500D01*
X12489000Y-5809500D02*
X12569000Y-5809500D01*
X12529000Y-6023500D02*
X12529000Y-6103500D01*
X12489000Y-6063500D02*
X12569000Y-6063500D01*
X13291000Y-4245500D02*
X13291000Y-4325500D01*
X13251000Y-4285500D02*
X13331000Y-4285500D01*
X13291000Y-4499500D02*
X13291000Y-4579500D01*
X13251000Y-4539500D02*
X13331000Y-4539500D01*
X13291000Y-4753500D02*
X13291000Y-4833500D01*
X13251000Y-4793500D02*
X13331000Y-4793500D01*
X13291000Y-5007500D02*
X13291000Y-5087500D01*
X13251000Y-5047500D02*
X13331000Y-5047500D01*
X13291000Y-5261500D02*
X13291000Y-5341500D01*
X13251000Y-5301500D02*
X13331000Y-5301500D01*
X13291000Y-5515500D02*
X13291000Y-5595500D01*
X13251000Y-5555500D02*
X13331000Y-5555500D01*
X13291000Y-5769500D02*
X13291000Y-5849500D01*
X13251000Y-5809500D02*
X13331000Y-5809500D01*
X13291000Y-6023500D02*
X13291000Y-6103500D01*
X13251000Y-6063500D02*
X13331000Y-6063500D01*
X12454089Y-11640838D02*
X12454089Y-11577197D01*
X12390449Y-11577197D01*
X12390449Y-11640838D01*
X12454089Y-11640838D01*
X12708089Y-11640838D02*
X12708089Y-11577197D01*
X12644449Y-11577197D01*
X12644449Y-11640838D01*
X12708089Y-11640838D01*
X6876000Y-7534500D02*
X6926000Y-7484500D01*
X6876000Y-7434500D01*
X6826000Y-7484500D01*
X6876000Y-7534500D01*
X6876000Y-7788500D02*
X6926000Y-7738500D01*
X6876000Y-7688500D01*
X6826000Y-7738500D01*
X6876000Y-7788500D01*
X6876000Y-8042500D02*
X6926000Y-7992500D01*
X6876000Y-7942500D01*
X6826000Y-7992500D01*
X6876000Y-8042500D01*
X7352000Y-6684000D02*
X7402000Y-6634000D01*
X7352000Y-6584000D01*
X7302000Y-6634000D01*
X7352000Y-6684000D01*
X7606000Y-6684000D02*
X7656000Y-6634000D01*
X7606000Y-6584000D01*
X7556000Y-6634000D01*
X7606000Y-6684000D01*
X7653769Y-7553018D02*
X7703769Y-7503018D01*
X7653769Y-7453018D01*
X7603769Y-7503018D01*
X7653769Y-7553018D01*
X7653769Y-7807018D02*
X7703769Y-7757018D01*
X7653769Y-7707018D01*
X7603769Y-7757018D01*
X7653769Y-7807018D01*
X7653769Y-8061018D02*
X7703769Y-8011018D01*
X7653769Y-7961018D01*
X7603769Y-8011018D01*
X7653769Y-8061018D01*
X7653769Y-8315018D02*
X7703769Y-8265018D01*
X7653769Y-8215018D01*
X7603769Y-8265018D01*
X7653769Y-8315018D01*
X7653769Y-8569018D02*
X7703769Y-8519018D01*
X7653769Y-8469018D01*
X7603769Y-8519018D01*
X7653769Y-8569018D01*
X7860000Y-6684000D02*
X7910000Y-6634000D01*
X7860000Y-6584000D01*
X7810000Y-6634000D01*
X7860000Y-6684000D01*
X7927769Y-10779018D02*
X7977769Y-10729018D01*
X7927769Y-10679018D01*
X7877769Y-10729018D01*
X7927769Y-10779018D01*
X7932769Y-11039018D02*
X7982769Y-10989018D01*
X7932769Y-10939018D01*
X7882769Y-10989018D01*
X7932769Y-11039018D01*
X7935769Y-11299018D02*
X7985769Y-11249018D01*
X7935769Y-11199018D01*
X7885769Y-11249018D01*
X7935769Y-11299018D01*
X8114000Y-6684000D02*
X8164000Y-6634000D01*
X8114000Y-6584000D01*
X8064000Y-6634000D01*
X8114000Y-6684000D01*
X8178769Y-9470788D02*
X8228769Y-9420788D01*
X8178769Y-9370788D01*
X8128769Y-9420788D01*
X8178769Y-9470788D01*
X8178769Y-9970788D02*
X8228769Y-9920788D01*
X8178769Y-9870788D01*
X8128769Y-9920788D01*
X8178769Y-9970788D01*
X8181769Y-10779018D02*
X8231769Y-10729018D01*
X8181769Y-10679018D01*
X8131769Y-10729018D01*
X8181769Y-10779018D01*
X8186769Y-11039018D02*
X8236769Y-10989018D01*
X8186769Y-10939018D01*
X8136769Y-10989018D01*
X8186769Y-11039018D01*
X8189769Y-11299018D02*
X8239769Y-11249018D01*
X8189769Y-11199018D01*
X8139769Y-11249018D01*
X8189769Y-11299018D01*
X8368000Y-6684000D02*
X8418000Y-6634000D01*
X8368000Y-6584000D01*
X8318000Y-6634000D01*
X8368000Y-6684000D01*
X8435769Y-10779018D02*
X8485769Y-10729018D01*
X8435769Y-10679018D01*
X8385769Y-10729018D01*
X8435769Y-10779018D01*
X8440769Y-11039018D02*
X8490769Y-10989018D01*
X8440769Y-10939018D01*
X8390769Y-10989018D01*
X8440769Y-11039018D01*
X8443769Y-11299018D02*
X8493769Y-11249018D01*
X8443769Y-11199018D01*
X8393769Y-11249018D01*
X8443769Y-11299018D01*
X8622000Y-6684000D02*
X8672000Y-6634000D01*
X8622000Y-6584000D01*
X8572000Y-6634000D01*
X8622000Y-6684000D01*
X8689769Y-10779018D02*
X8739769Y-10729018D01*
X8689769Y-10679018D01*
X8639769Y-10729018D01*
X8689769Y-10779018D01*
X8694769Y-11039018D02*
X8744769Y-10989018D01*
X8694769Y-10939018D01*
X8644769Y-10989018D01*
X8694769Y-11039018D01*
X8697769Y-11299018D02*
X8747769Y-11249018D01*
X8697769Y-11199018D01*
X8647769Y-11249018D01*
X8697769Y-11299018D01*
X8876000Y-6684000D02*
X8926000Y-6634000D01*
X8876000Y-6584000D01*
X8826000Y-6634000D01*
X8876000Y-6684000D01*
X8943769Y-10779018D02*
X8993769Y-10729018D01*
X8943769Y-10679018D01*
X8893769Y-10729018D01*
X8943769Y-10779018D01*
X8948769Y-11039018D02*
X8998769Y-10989018D01*
X8948769Y-10939018D01*
X8898769Y-10989018D01*
X8948769Y-11039018D01*
X8951769Y-11299018D02*
X9001769Y-11249018D01*
X8951769Y-11199018D01*
X8901769Y-11249018D01*
X8951769Y-11299018D01*
X9118769Y-8061018D02*
X9168769Y-8011018D01*
X9118769Y-7961018D01*
X9068769Y-8011018D01*
X9118769Y-8061018D01*
X9118769Y-8315018D02*
X9168769Y-8265018D01*
X9118769Y-8215018D01*
X9068769Y-8265018D01*
X9118769Y-8315018D01*
X9118769Y-8569018D02*
X9168769Y-8519018D01*
X9118769Y-8469018D01*
X9068769Y-8519018D01*
X9118769Y-8569018D01*
X9130000Y-6684000D02*
X9180000Y-6634000D01*
X9130000Y-6584000D01*
X9080000Y-6634000D01*
X9130000Y-6684000D01*
X9682500Y-6696000D02*
X9732500Y-6646000D01*
X9682500Y-6596000D01*
X9632500Y-6646000D01*
X9682500Y-6696000D01*
X9763769Y-7304018D02*
X9813769Y-7254018D01*
X9763769Y-7204018D01*
X9713769Y-7254018D01*
X9763769Y-7304018D01*
X9763769Y-7558018D02*
X9813769Y-7508018D01*
X9763769Y-7458018D01*
X9713769Y-7508018D01*
X9763769Y-7558018D01*
X9763769Y-7812018D02*
X9813769Y-7762018D01*
X9763769Y-7712018D01*
X9713769Y-7762018D01*
X9763769Y-7812018D01*
X9763769Y-8066018D02*
X9813769Y-8016018D01*
X9763769Y-7966018D01*
X9713769Y-8016018D01*
X9763769Y-8066018D01*
X9763769Y-8320018D02*
X9813769Y-8270018D01*
X9763769Y-8220018D01*
X9713769Y-8270018D01*
X9763769Y-8320018D01*
X9763769Y-8574018D02*
X9813769Y-8524018D01*
X9763769Y-8474018D01*
X9713769Y-8524018D01*
X9763769Y-8574018D01*
X9936500Y-6696000D02*
X9986500Y-6646000D01*
X9936500Y-6596000D01*
X9886500Y-6646000D01*
X9936500Y-6696000D01*
X10086500Y-3358000D02*
X10136500Y-3308000D01*
X10086500Y-3258000D01*
X10036500Y-3308000D01*
X10086500Y-3358000D01*
X10190500Y-6696000D02*
X10240500Y-6646000D01*
X10190500Y-6596000D01*
X10140500Y-6646000D01*
X10190500Y-6696000D01*
X10340500Y-3358000D02*
X10390500Y-3308000D01*
X10340500Y-3258000D01*
X10290500Y-3308000D01*
X10340500Y-3358000D01*
X10444500Y-6696000D02*
X10494500Y-6646000D01*
X10444500Y-6596000D01*
X10394500Y-6646000D01*
X10444500Y-6696000D01*
X10594500Y-3358000D02*
X10644500Y-3308000D01*
X10594500Y-3258000D01*
X10544500Y-3308000D01*
X10594500Y-3358000D01*
X10698500Y-6696000D02*
X10748500Y-6646000D01*
X10698500Y-6596000D01*
X10648500Y-6646000D01*
X10698500Y-6696000D01*
X10848500Y-3358000D02*
X10898500Y-3308000D01*
X10848500Y-3258000D01*
X10798500Y-3308000D01*
X10848500Y-3358000D01*
X10952500Y-6696000D02*
X11002500Y-6646000D01*
X10952500Y-6596000D01*
X10902500Y-6646000D01*
X10952500Y-6696000D01*
X11102500Y-3358000D02*
X11152500Y-3308000D01*
X11102500Y-3258000D01*
X11052500Y-3308000D01*
X11102500Y-3358000D01*
X11108769Y-7782018D02*
X11158769Y-7732018D01*
X11108769Y-7682018D01*
X11058769Y-7732018D01*
X11108769Y-7782018D01*
X11108769Y-8036018D02*
X11158769Y-7986018D01*
X11108769Y-7936018D01*
X11058769Y-7986018D01*
X11108769Y-8036018D01*
X11108769Y-8290018D02*
X11158769Y-8240018D01*
X11108769Y-8190018D01*
X11058769Y-8240018D01*
X11108769Y-8290018D01*
X11108769Y-8544018D02*
X11158769Y-8494018D01*
X11108769Y-8444018D01*
X11058769Y-8494018D01*
X11108769Y-8544018D01*
X11206500Y-6696000D02*
X11256500Y-6646000D01*
X11206500Y-6596000D01*
X11156500Y-6646000D01*
X11206500Y-6696000D01*
X11460500Y-6696000D02*
X11510500Y-6646000D01*
X11460500Y-6596000D01*
X11410500Y-6646000D01*
X11460500Y-6696000D01*
X11658769Y-9317018D02*
X11708769Y-9267018D01*
X11658769Y-9217018D01*
X11608769Y-9267018D01*
X11658769Y-9317018D01*
X11658769Y-9571018D02*
X11708769Y-9521018D01*
X11658769Y-9471018D01*
X11608769Y-9521018D01*
X11658769Y-9571018D01*
X11658769Y-9825018D02*
X11708769Y-9775018D01*
X11658769Y-9725018D01*
X11608769Y-9775018D01*
X11658769Y-9825018D01*
X11658769Y-10079018D02*
X11708769Y-10029018D01*
X11658769Y-9979018D01*
X11608769Y-10029018D01*
X11658769Y-10079018D01*
X11736500Y-6695000D02*
X11786500Y-6645000D01*
X11736500Y-6595000D01*
X11686500Y-6645000D01*
X11736500Y-6695000D01*
X12013500Y-6685000D02*
X12063500Y-6635000D01*
X12013500Y-6585000D01*
X11963500Y-6635000D01*
X12013500Y-6685000D01*
X12267500Y-6685000D02*
X12317500Y-6635000D01*
X12267500Y-6585000D01*
X12217500Y-6635000D01*
X12267500Y-6685000D01*
X12521500Y-6685000D02*
X12571500Y-6635000D01*
X12521500Y-6585000D01*
X12471500Y-6635000D01*
X12521500Y-6685000D01*
X12775500Y-6685000D02*
X12825500Y-6635000D01*
X12775500Y-6585000D01*
X12725500Y-6635000D01*
X12775500Y-6685000D01*
X13029500Y-6685000D02*
X13079500Y-6635000D01*
X13029500Y-6585000D01*
X12979500Y-6635000D01*
X13029500Y-6685000D01*
X13283500Y-6685000D02*
X13333500Y-6635000D01*
X13283500Y-6585000D01*
X13233500Y-6635000D01*
X13283500Y-6685000D01*
X13449750Y-8588000D02*
X13499750Y-8538000D01*
X13449750Y-8488000D01*
X13399750Y-8538000D01*
X13449750Y-8588000D01*
X13449750Y-9299000D02*
X13499750Y-9249000D01*
X13449750Y-9199000D01*
X13399750Y-9249000D01*
X13449750Y-9299000D01*
X13537500Y-6685000D02*
X13587500Y-6635000D01*
X13537500Y-6585000D01*
X13487500Y-6635000D01*
X13537500Y-6685000D01*
X13703750Y-8588000D02*
X13753750Y-8538000D01*
X13703750Y-8488000D01*
X13653750Y-8538000D01*
X13703750Y-8588000D01*
X13703750Y-9299000D02*
X13753750Y-9249000D01*
X13703750Y-9199000D01*
X13653750Y-9249000D01*
X13703750Y-9299000D01*
X13791500Y-6685000D02*
X13841500Y-6635000D01*
X13791500Y-6585000D01*
X13741500Y-6635000D01*
X13791500Y-6685000D01*
X13957750Y-8588000D02*
X14007750Y-8538000D01*
X13957750Y-8488000D01*
X13907750Y-8538000D01*
X13957750Y-8588000D01*
X13957750Y-9299000D02*
X14007750Y-9249000D01*
X13957750Y-9199000D01*
X13907750Y-9249000D01*
X13957750Y-9299000D01*
X17451750Y-8194000D02*
X17501750Y-8144000D01*
X17451750Y-8094000D01*
X17401750Y-8144000D01*
X17451750Y-8194000D01*
X17451750Y-8448000D02*
X17501750Y-8398000D01*
X17451750Y-8348000D01*
X17401750Y-8398000D01*
X17451750Y-8448000D01*
X17451750Y-8702000D02*
X17501750Y-8652000D01*
X17451750Y-8602000D01*
X17401750Y-8652000D01*
X17451750Y-8702000D01*
X17451750Y-8956000D02*
X17501750Y-8906000D01*
X17451750Y-8856000D01*
X17401750Y-8906000D01*
X17451750Y-8956000D01*
X17451750Y-9210000D02*
X17501750Y-9160000D01*
X17451750Y-9110000D01*
X17401750Y-9160000D01*
X17451750Y-9210000D01*
X17451750Y-9464000D02*
X17501750Y-9414000D01*
X17451750Y-9364000D01*
X17401750Y-9414000D01*
X17451750Y-9464000D01*
D13*
X9529769Y-9100018D02*
X9639769Y-9210018D01*
X9639769Y-9100018D02*
X9529769Y-9210018D01*
X9639769Y-9155018D02*
G75*
G02*
X9529769Y-9155018I-55000J0D01*
G01*
X9529769Y-9155018D02*
G75*
G02*
X9639769Y-9155018I55000J0D01*
G01*
X9529769Y-9354018D02*
X9639769Y-9464018D01*
X9639769Y-9354018D02*
X9529769Y-9464018D01*
X9639769Y-9409018D02*
G75*
G02*
X9529769Y-9409018I-55000J0D01*
G01*
X9529769Y-9409018D02*
G75*
G02*
X9639769Y-9409018I55000J0D01*
G01*
X9529769Y-9608018D02*
X9639769Y-9718018D01*
X9639769Y-9608018D02*
X9529769Y-9718018D01*
X9639769Y-9663018D02*
G75*
G02*
X9529769Y-9663018I-55000J0D01*
G01*
X9529769Y-9663018D02*
G75*
G02*
X9639769Y-9663018I55000J0D01*
G01*
X9529769Y-9862018D02*
X9639769Y-9972018D01*
X9639769Y-9862018D02*
X9529769Y-9972018D01*
X9639769Y-9917018D02*
G75*
G02*
X9529769Y-9917018I-55000J0D01*
G01*
X9529769Y-9917018D02*
G75*
G02*
X9639769Y-9917018I55000J0D01*
G01*
X9529769Y-10116018D02*
X9639769Y-10226018D01*
X9639769Y-10116018D02*
X9529769Y-10226018D01*
X9639769Y-10171018D02*
G75*
G02*
X9529769Y-10171018I-55000J0D01*
G01*
X9529769Y-10171018D02*
G75*
G02*
X9639769Y-10171018I55000J0D01*
G01*
X9529769Y-10370018D02*
X9639769Y-10480018D01*
X9639769Y-10370018D02*
X9529769Y-10480018D01*
X9639769Y-10425018D02*
G75*
G02*
X9529769Y-10425018I-55000J0D01*
G01*
X9529769Y-10425018D02*
G75*
G02*
X9639769Y-10425018I55000J0D01*
G01*
X9529769Y-10624018D02*
X9639769Y-10734018D01*
X9639769Y-10624018D02*
X9529769Y-10734018D01*
X9639769Y-10679018D02*
G75*
G02*
X9529769Y-10679018I-55000J0D01*
G01*
X9529769Y-10679018D02*
G75*
G02*
X9639769Y-10679018I55000J0D01*
G01*
X9529769Y-10878018D02*
X9639769Y-10988018D01*
X9639769Y-10878018D02*
X9529769Y-10988018D01*
X9639769Y-10933018D02*
G75*
G02*
X9529769Y-10933018I-55000J0D01*
G01*
X9529769Y-10933018D02*
G75*
G02*
X9639769Y-10933018I55000J0D01*
G01*
X9529769Y-11132018D02*
X9639769Y-11242018D01*
X9639769Y-11132018D02*
X9529769Y-11242018D01*
X9639769Y-11187018D02*
G75*
G02*
X9529769Y-11187018I-55000J0D01*
G01*
X9529769Y-11187018D02*
G75*
G02*
X9639769Y-11187018I55000J0D01*
G01*
X9529769Y-11386018D02*
X9639769Y-11496018D01*
X9639769Y-11386018D02*
X9529769Y-11496018D01*
X9639769Y-11441018D02*
G75*
G02*
X9529769Y-11441018I-55000J0D01*
G01*
X9529769Y-11441018D02*
G75*
G02*
X9639769Y-11441018I55000J0D01*
G01*
X9529769Y-11640018D02*
X9639769Y-11750018D01*
X9639769Y-11640018D02*
X9529769Y-11750018D01*
X9639769Y-11695018D02*
G75*
G02*
X9529769Y-11695018I-55000J0D01*
G01*
X9529769Y-11695018D02*
G75*
G02*
X9639769Y-11695018I55000J0D01*
G01*
X9529769Y-11894018D02*
X9639769Y-12004018D01*
X9639769Y-11894018D02*
X9529769Y-12004018D01*
X9639769Y-11949018D02*
G75*
G02*
X9529769Y-11949018I-55000J0D01*
G01*
X9529769Y-11949018D02*
G75*
G02*
X9639769Y-11949018I55000J0D01*
G01*
X11053769Y-9100018D02*
X11163769Y-9210018D01*
X11163769Y-9100018D02*
X11053769Y-9210018D01*
X11163769Y-9155018D02*
G75*
G02*
X11053769Y-9155018I-55000J0D01*
G01*
X11053769Y-9155018D02*
G75*
G02*
X11163769Y-9155018I55000J0D01*
G01*
X11053769Y-9354018D02*
X11163769Y-9464018D01*
X11163769Y-9354018D02*
X11053769Y-9464018D01*
X11163769Y-9409018D02*
G75*
G02*
X11053769Y-9409018I-55000J0D01*
G01*
X11053769Y-9409018D02*
G75*
G02*
X11163769Y-9409018I55000J0D01*
G01*
X11053769Y-9608018D02*
X11163769Y-9718018D01*
X11163769Y-9608018D02*
X11053769Y-9718018D01*
X11163769Y-9663018D02*
G75*
G02*
X11053769Y-9663018I-55000J0D01*
G01*
X11053769Y-9663018D02*
G75*
G02*
X11163769Y-9663018I55000J0D01*
G01*
X11053769Y-9862018D02*
X11163769Y-9972018D01*
X11163769Y-9862018D02*
X11053769Y-9972018D01*
X11163769Y-9917018D02*
G75*
G02*
X11053769Y-9917018I-55000J0D01*
G01*
X11053769Y-9917018D02*
G75*
G02*
X11163769Y-9917018I55000J0D01*
G01*
X11053769Y-10116018D02*
X11163769Y-10226018D01*
X11163769Y-10116018D02*
X11053769Y-10226018D01*
X11163769Y-10171018D02*
G75*
G02*
X11053769Y-10171018I-55000J0D01*
G01*
X11053769Y-10171018D02*
G75*
G02*
X11163769Y-10171018I55000J0D01*
G01*
X11053769Y-10370018D02*
X11163769Y-10480018D01*
X11163769Y-10370018D02*
X11053769Y-10480018D01*
X11163769Y-10425018D02*
G75*
G02*
X11053769Y-10425018I-55000J0D01*
G01*
X11053769Y-10425018D02*
G75*
G02*
X11163769Y-10425018I55000J0D01*
G01*
X11053769Y-10624018D02*
X11163769Y-10734018D01*
X11163769Y-10624018D02*
X11053769Y-10734018D01*
X11163769Y-10679018D02*
G75*
G02*
X11053769Y-10679018I-55000J0D01*
G01*
X11053769Y-10679018D02*
G75*
G02*
X11163769Y-10679018I55000J0D01*
G01*
X11053769Y-10878018D02*
X11163769Y-10988018D01*
X11163769Y-10878018D02*
X11053769Y-10988018D01*
X11163769Y-10933018D02*
G75*
G02*
X11053769Y-10933018I-55000J0D01*
G01*
X11053769Y-10933018D02*
G75*
G02*
X11163769Y-10933018I55000J0D01*
G01*
X11053769Y-11132018D02*
X11163769Y-11242018D01*
X11163769Y-11132018D02*
X11053769Y-11242018D01*
X11163769Y-11187018D02*
G75*
G02*
X11053769Y-11187018I-55000J0D01*
G01*
X11053769Y-11187018D02*
G75*
G02*
X11163769Y-11187018I55000J0D01*
G01*
X11053769Y-11386018D02*
X11163769Y-11496018D01*
X11163769Y-11386018D02*
X11053769Y-11496018D01*
X11163769Y-11441018D02*
G75*
G02*
X11053769Y-11441018I-55000J0D01*
G01*
X11053769Y-11441018D02*
G75*
G02*
X11163769Y-11441018I55000J0D01*
G01*
X11053769Y-11640018D02*
X11163769Y-11750018D01*
X11163769Y-11640018D02*
X11053769Y-11750018D01*
X11163769Y-11695018D02*
G75*
G02*
X11053769Y-11695018I-55000J0D01*
G01*
X11053769Y-11695018D02*
G75*
G02*
X11163769Y-11695018I55000J0D01*
G01*
X11053769Y-11894018D02*
X11163769Y-12004018D01*
X11163769Y-11894018D02*
X11053769Y-12004018D01*
X11163769Y-11949018D02*
G75*
G02*
X11053769Y-11949018I-55000J0D01*
G01*
X11053769Y-11949018D02*
G75*
G02*
X11163769Y-11949018I55000J0D01*
G01*
D14*
X14736250Y-4454000D02*
X14856250Y-4574000D01*
X14856250Y-4454000D02*
X14736250Y-4574000D01*
X14796250Y-4454000D02*
X14796250Y-4574000D01*
X14736250Y-4514000D02*
X14856250Y-4514000D01*
X14736250Y-10304000D02*
X14856250Y-10424000D01*
X14856250Y-10304000D02*
X14736250Y-10424000D01*
X14796250Y-10304000D02*
X14796250Y-10424000D01*
X14736250Y-10364000D02*
X14856250Y-10364000D01*
X15086250Y-10304000D02*
X15206250Y-10424000D01*
X15206250Y-10304000D02*
X15086250Y-10424000D01*
X15146250Y-10304000D02*
X15146250Y-10424000D01*
X15086250Y-10364000D02*
X15206250Y-10364000D01*
X16051750Y-4477500D02*
X16171750Y-4597500D01*
X16171750Y-4477500D02*
X16051750Y-4597500D01*
X16111750Y-4477500D02*
X16111750Y-4597500D01*
X16051750Y-4537500D02*
X16171750Y-4537500D01*
X16051750Y-10327500D02*
X16171750Y-10447500D01*
X16171750Y-10327500D02*
X16051750Y-10447500D01*
X16111750Y-10327500D02*
X16111750Y-10447500D01*
X16051750Y-10387500D02*
X16171750Y-10387500D01*
X16401750Y-10327500D02*
X16521750Y-10447500D01*
X16521750Y-10327500D02*
X16401750Y-10447500D01*
X16461750Y-10327500D02*
X16461750Y-10447500D01*
X16401750Y-10387500D02*
X16521750Y-10387500D01*
D15*
X4883500Y-6222000D02*
X5013500Y-6352000D01*
X5013500Y-6222000D02*
X4883500Y-6352000D01*
X4994462Y-6332962D02*
X4994462Y-6241038D01*
X4902538Y-6241038D01*
X4902538Y-6332962D01*
X4994462Y-6332962D01*
X4883500Y-6722000D02*
X5013500Y-6852000D01*
X5013500Y-6722000D02*
X4883500Y-6852000D01*
X4994462Y-6832962D02*
X4994462Y-6741038D01*
X4902538Y-6741038D01*
X4902538Y-6832962D01*
X4994462Y-6832962D01*
X4883500Y-8722000D02*
X5013500Y-8852000D01*
X5013500Y-8722000D02*
X4883500Y-8852000D01*
X4994462Y-8832962D02*
X4994462Y-8741038D01*
X4902538Y-8741038D01*
X4902538Y-8832962D01*
X4994462Y-8832962D01*
X4883500Y-9222000D02*
X5013500Y-9352000D01*
X5013500Y-9222000D02*
X4883500Y-9352000D01*
X4994462Y-9332962D02*
X4994462Y-9241038D01*
X4902538Y-9241038D01*
X4902538Y-9332962D01*
X4994462Y-9332962D01*
X6133500Y-6222000D02*
X6263500Y-6352000D01*
X6263500Y-6222000D02*
X6133500Y-6352000D01*
X6244462Y-6332962D02*
X6244462Y-6241038D01*
X6152538Y-6241038D01*
X6152538Y-6332962D01*
X6244462Y-6332962D01*
X6133500Y-6722000D02*
X6263500Y-6852000D01*
X6263500Y-6722000D02*
X6133500Y-6852000D01*
X6244462Y-6832962D02*
X6244462Y-6741038D01*
X6152538Y-6741038D01*
X6152538Y-6832962D01*
X6244462Y-6832962D01*
X6133500Y-8722000D02*
X6263500Y-8852000D01*
X6263500Y-8722000D02*
X6133500Y-8852000D01*
X6244462Y-8832962D02*
X6244462Y-8741038D01*
X6152538Y-8741038D01*
X6152538Y-8832962D01*
X6244462Y-8832962D01*
X6133500Y-9222000D02*
X6263500Y-9352000D01*
X6263500Y-9222000D02*
X6133500Y-9352000D01*
X6244462Y-9332962D02*
X6244462Y-9241038D01*
X6152538Y-9241038D01*
X6152538Y-9332962D01*
X6244462Y-9332962D01*
D16*
X14466250Y-4964000D02*
X14636250Y-5134000D01*
X14636250Y-4964000D02*
X14466250Y-5134000D01*
X14551250Y-5134000D02*
X14636250Y-5049000D01*
X14551250Y-4964000D01*
X14466250Y-5049000D01*
X14551250Y-5134000D01*
X14466250Y-9744000D02*
X14636250Y-9914000D01*
X14636250Y-9744000D02*
X14466250Y-9914000D01*
X14551250Y-9914000D02*
X14636250Y-9829000D01*
X14551250Y-9744000D01*
X14466250Y-9829000D01*
X14551250Y-9914000D01*
X15306250Y-4844000D02*
X15476250Y-5014000D01*
X15476250Y-4844000D02*
X15306250Y-5014000D01*
X15391250Y-5014000D02*
X15476250Y-4929000D01*
X15391250Y-4844000D01*
X15306250Y-4929000D01*
X15391250Y-5014000D01*
X15306250Y-9864000D02*
X15476250Y-10034000D01*
X15476250Y-9864000D02*
X15306250Y-10034000D01*
X15391250Y-10034000D02*
X15476250Y-9949000D01*
X15391250Y-9864000D01*
X15306250Y-9949000D01*
X15391250Y-10034000D01*
X15781750Y-4987500D02*
X15951750Y-5157500D01*
X15951750Y-4987500D02*
X15781750Y-5157500D01*
X15866750Y-5157500D02*
X15951750Y-5072500D01*
X15866750Y-4987500D01*
X15781750Y-5072500D01*
X15866750Y-5157500D01*
X15781750Y-9767500D02*
X15951750Y-9937500D01*
X15951750Y-9767500D02*
X15781750Y-9937500D01*
X15866750Y-9937500D02*
X15951750Y-9852500D01*
X15866750Y-9767500D01*
X15781750Y-9852500D01*
X15866750Y-9937500D01*
X16621750Y-4867500D02*
X16791750Y-5037500D01*
X16791750Y-4867500D02*
X16621750Y-5037500D01*
X16706750Y-5037500D02*
X16791750Y-4952500D01*
X16706750Y-4867500D01*
X16621750Y-4952500D01*
X16706750Y-5037500D01*
X16621750Y-9887500D02*
X16791750Y-10057500D01*
X16791750Y-9887500D02*
X16621750Y-10057500D01*
X16706750Y-10057500D02*
X16791750Y-9972500D01*
X16706750Y-9887500D01*
X16621750Y-9972500D01*
X16706750Y-10057500D01*
D17*
X5573500Y-5077000D02*
X5573500Y-5397000D01*
X5413500Y-5237000D02*
X5733500Y-5237000D01*
X5733500Y-5237000D02*
G75*
G02*
X5413500Y-5237000I-160000J0D01*
G01*
X5413500Y-5237000D02*
G75*
G02*
X5733500Y-5237000I160000J0D01*
G01*
X5573500Y-5077000D02*
X5573500Y-5397000D01*
X5413500Y-5237000D02*
X5733500Y-5237000D01*
X5733500Y-5237000D02*
G75*
G02*
X5413500Y-5237000I-160000J0D01*
G01*
X5413500Y-5237000D02*
G75*
G02*
X5733500Y-5237000I160000J0D01*
G01*
X5573500Y-10177000D02*
X5573500Y-10497000D01*
X5413500Y-10337000D02*
X5733500Y-10337000D01*
X5733500Y-10337000D02*
G75*
G02*
X5413500Y-10337000I-160000J0D01*
G01*
X5413500Y-10337000D02*
G75*
G02*
X5733500Y-10337000I160000J0D01*
G01*
X13806750Y-7479000D02*
X13806750Y-7799000D01*
X13646750Y-7639000D02*
X13966750Y-7639000D01*
X13966750Y-7639000D02*
G75*
G02*
X13646750Y-7639000I-160000J0D01*
G01*
X13646750Y-7639000D02*
G75*
G02*
X13966750Y-7639000I160000J0D01*
G01*
X17239750Y-4624500D02*
X17239750Y-4944500D01*
X17079750Y-4784500D02*
X17399750Y-4784500D01*
X17399750Y-4784500D02*
G75*
G02*
X17079750Y-4784500I-160000J0D01*
G01*
X17079750Y-4784500D02*
G75*
G02*
X17399750Y-4784500I160000J0D01*
G01*
X17270750Y-10264500D02*
X17270750Y-10584500D01*
X17110750Y-10424500D02*
X17430750Y-10424500D01*
X17430750Y-10424500D02*
G75*
G02*
X17110750Y-10424500I-160000J0D01*
G01*
X17110750Y-10424500D02*
G75*
G02*
X17430750Y-10424500I160000J0D01*
G01*
D11*
X4931777Y-12498001D02*
X4931777Y-12298001D01*
X4931777Y-12298001D02*
X4979396Y-12298001D01*
X4979396Y-12298001D02*
X5007967Y-12307525D01*
X5007967Y-12307525D02*
X5027015Y-12326573D01*
X5027015Y-12326573D02*
X5036539Y-12345620D01*
X5036539Y-12345620D02*
X5046063Y-12383716D01*
X5046063Y-12383716D02*
X5046063Y-12412287D01*
X5046063Y-12412287D02*
X5036539Y-12450382D01*
X5036539Y-12450382D02*
X5027015Y-12469430D01*
X5027015Y-12469430D02*
X5007967Y-12488478D01*
X5007967Y-12488478D02*
X4979396Y-12498001D01*
X4979396Y-12498001D02*
X4931777Y-12498001D01*
X5131777Y-12498001D02*
X5131777Y-12364668D01*
X5131777Y-12402763D02*
X5141301Y-12383716D01*
X5141301Y-12383716D02*
X5150824Y-12374192D01*
X5150824Y-12374192D02*
X5169872Y-12364668D01*
X5169872Y-12364668D02*
X5188920Y-12364668D01*
X5255586Y-12498001D02*
X5255586Y-12364668D01*
X5255586Y-12298001D02*
X5246063Y-12307525D01*
X5246063Y-12307525D02*
X5255586Y-12317049D01*
X5255586Y-12317049D02*
X5265110Y-12307525D01*
X5265110Y-12307525D02*
X5255586Y-12298001D01*
X5255586Y-12298001D02*
X5255586Y-12317049D01*
X5379396Y-12498001D02*
X5360348Y-12488478D01*
X5360348Y-12488478D02*
X5350824Y-12469430D01*
X5350824Y-12469430D02*
X5350824Y-12298001D01*
X5484158Y-12498001D02*
X5465110Y-12488478D01*
X5465110Y-12488478D02*
X5455586Y-12469430D01*
X5455586Y-12469430D02*
X5455586Y-12298001D01*
X5712729Y-12498001D02*
X5712729Y-12298001D01*
X5712729Y-12298001D02*
X5779396Y-12440858D01*
X5779396Y-12440858D02*
X5846062Y-12298001D01*
X5846062Y-12298001D02*
X5846062Y-12498001D01*
X6027015Y-12498001D02*
X6027015Y-12393239D01*
X6027015Y-12393239D02*
X6017491Y-12374192D01*
X6017491Y-12374192D02*
X5998443Y-12364668D01*
X5998443Y-12364668D02*
X5960348Y-12364668D01*
X5960348Y-12364668D02*
X5941301Y-12374192D01*
X6027015Y-12488478D02*
X6007967Y-12498001D01*
X6007967Y-12498001D02*
X5960348Y-12498001D01*
X5960348Y-12498001D02*
X5941301Y-12488478D01*
X5941301Y-12488478D02*
X5931777Y-12469430D01*
X5931777Y-12469430D02*
X5931777Y-12450382D01*
X5931777Y-12450382D02*
X5941301Y-12431335D01*
X5941301Y-12431335D02*
X5960348Y-12421811D01*
X5960348Y-12421811D02*
X6007967Y-12421811D01*
X6007967Y-12421811D02*
X6027015Y-12412287D01*
X6122253Y-12364668D02*
X6122253Y-12564668D01*
X6122253Y-12374192D02*
X6141301Y-12364668D01*
X6141301Y-12364668D02*
X6179396Y-12364668D01*
X6179396Y-12364668D02*
X6198443Y-12374192D01*
X6198443Y-12374192D02*
X6207967Y-12383716D01*
X6207967Y-12383716D02*
X6217491Y-12402763D01*
X6217491Y-12402763D02*
X6217491Y-12459906D01*
X6217491Y-12459906D02*
X6207967Y-12478954D01*
X6207967Y-12478954D02*
X6198443Y-12488478D01*
X6198443Y-12488478D02*
X6179396Y-12498001D01*
X6179396Y-12498001D02*
X6141301Y-12498001D01*
X6141301Y-12498001D02*
X6122253Y-12488478D01*
X6303205Y-12478954D02*
X6312729Y-12488478D01*
X6312729Y-12488478D02*
X6303205Y-12498001D01*
X6303205Y-12498001D02*
X6293682Y-12488478D01*
X6293682Y-12488478D02*
X6303205Y-12478954D01*
X6303205Y-12478954D02*
X6303205Y-12498001D01*
X6303205Y-12374192D02*
X6312729Y-12383716D01*
X6312729Y-12383716D02*
X6303205Y-12393239D01*
X6303205Y-12393239D02*
X6293682Y-12383716D01*
X6293682Y-12383716D02*
X6303205Y-12374192D01*
X6303205Y-12374192D02*
X6303205Y-12393239D01*
D12*
X4641000Y-12811518D02*
X4671000Y-12841518D01*
X4671000Y-12811518D02*
X4641000Y-12841518D01*
D11*
X4969872Y-12718001D02*
X4988920Y-12718001D01*
X4988920Y-12718001D02*
X5007967Y-12727525D01*
X5007967Y-12727525D02*
X5017491Y-12737049D01*
X5017491Y-12737049D02*
X5027015Y-12756097D01*
X5027015Y-12756097D02*
X5036539Y-12794192D01*
X5036539Y-12794192D02*
X5036539Y-12841811D01*
X5036539Y-12841811D02*
X5027015Y-12879906D01*
X5027015Y-12879906D02*
X5017491Y-12898954D01*
X5017491Y-12898954D02*
X5007967Y-12908478D01*
X5007967Y-12908478D02*
X4988920Y-12918001D01*
X4988920Y-12918001D02*
X4969872Y-12918001D01*
X4969872Y-12918001D02*
X4950824Y-12908478D01*
X4950824Y-12908478D02*
X4941301Y-12898954D01*
X4941301Y-12898954D02*
X4931777Y-12879906D01*
X4931777Y-12879906D02*
X4922253Y-12841811D01*
X4922253Y-12841811D02*
X4922253Y-12794192D01*
X4922253Y-12794192D02*
X4931777Y-12756097D01*
X4931777Y-12756097D02*
X4941301Y-12737049D01*
X4941301Y-12737049D02*
X4950824Y-12727525D01*
X4950824Y-12727525D02*
X4969872Y-12718001D01*
X5122253Y-12898954D02*
X5131777Y-12908478D01*
X5131777Y-12908478D02*
X5122253Y-12918001D01*
X5122253Y-12918001D02*
X5112729Y-12908478D01*
X5112729Y-12908478D02*
X5122253Y-12898954D01*
X5122253Y-12898954D02*
X5122253Y-12918001D01*
X5198444Y-12718001D02*
X5322253Y-12718001D01*
X5322253Y-12718001D02*
X5255586Y-12794192D01*
X5255586Y-12794192D02*
X5284158Y-12794192D01*
X5284158Y-12794192D02*
X5303205Y-12803716D01*
X5303205Y-12803716D02*
X5312729Y-12813239D01*
X5312729Y-12813239D02*
X5322253Y-12832287D01*
X5322253Y-12832287D02*
X5322253Y-12879906D01*
X5322253Y-12879906D02*
X5312729Y-12898954D01*
X5312729Y-12898954D02*
X5303205Y-12908478D01*
X5303205Y-12908478D02*
X5284158Y-12918001D01*
X5284158Y-12918001D02*
X5227015Y-12918001D01*
X5227015Y-12918001D02*
X5207967Y-12908478D01*
X5207967Y-12908478D02*
X5198444Y-12898954D01*
X5446063Y-12718001D02*
X5465110Y-12718001D01*
X5465110Y-12718001D02*
X5484158Y-12727525D01*
X5484158Y-12727525D02*
X5493682Y-12737049D01*
X5493682Y-12737049D02*
X5503205Y-12756097D01*
X5503205Y-12756097D02*
X5512729Y-12794192D01*
X5512729Y-12794192D02*
X5512729Y-12841811D01*
X5512729Y-12841811D02*
X5503205Y-12879906D01*
X5503205Y-12879906D02*
X5493682Y-12898954D01*
X5493682Y-12898954D02*
X5484158Y-12908478D01*
X5484158Y-12908478D02*
X5465110Y-12918001D01*
X5465110Y-12918001D02*
X5446063Y-12918001D01*
X5446063Y-12918001D02*
X5427015Y-12908478D01*
X5427015Y-12908478D02*
X5417491Y-12898954D01*
X5417491Y-12898954D02*
X5407967Y-12879906D01*
X5407967Y-12879906D02*
X5398444Y-12841811D01*
X5398444Y-12841811D02*
X5398444Y-12794192D01*
X5398444Y-12794192D02*
X5407967Y-12756097D01*
X5407967Y-12756097D02*
X5417491Y-12737049D01*
X5417491Y-12737049D02*
X5427015Y-12727525D01*
X5427015Y-12727525D02*
X5446063Y-12718001D01*
X5636539Y-12718001D02*
X5655586Y-12718001D01*
X5655586Y-12718001D02*
X5674634Y-12727525D01*
X5674634Y-12727525D02*
X5684158Y-12737049D01*
X5684158Y-12737049D02*
X5693682Y-12756097D01*
X5693682Y-12756097D02*
X5703205Y-12794192D01*
X5703205Y-12794192D02*
X5703205Y-12841811D01*
X5703205Y-12841811D02*
X5693682Y-12879906D01*
X5693682Y-12879906D02*
X5684158Y-12898954D01*
X5684158Y-12898954D02*
X5674634Y-12908478D01*
X5674634Y-12908478D02*
X5655586Y-12918001D01*
X5655586Y-12918001D02*
X5636539Y-12918001D01*
X5636539Y-12918001D02*
X5617491Y-12908478D01*
X5617491Y-12908478D02*
X5607967Y-12898954D01*
X5607967Y-12898954D02*
X5598443Y-12879906D01*
X5598443Y-12879906D02*
X5588920Y-12841811D01*
X5588920Y-12841811D02*
X5588920Y-12794192D01*
X5588920Y-12794192D02*
X5598443Y-12756097D01*
X5598443Y-12756097D02*
X5607967Y-12737049D01*
X5607967Y-12737049D02*
X5617491Y-12727525D01*
X5617491Y-12727525D02*
X5636539Y-12718001D01*
X5788920Y-12918001D02*
X5788920Y-12784668D01*
X5788920Y-12803716D02*
X5798443Y-12794192D01*
X5798443Y-12794192D02*
X5817491Y-12784668D01*
X5817491Y-12784668D02*
X5846063Y-12784668D01*
X5846063Y-12784668D02*
X5865110Y-12794192D01*
X5865110Y-12794192D02*
X5874634Y-12813239D01*
X5874634Y-12813239D02*
X5874634Y-12918001D01*
X5874634Y-12813239D02*
X5884158Y-12794192D01*
X5884158Y-12794192D02*
X5903205Y-12784668D01*
X5903205Y-12784668D02*
X5931777Y-12784668D01*
X5931777Y-12784668D02*
X5950824Y-12794192D01*
X5950824Y-12794192D02*
X5960348Y-12813239D01*
X5960348Y-12813239D02*
X5960348Y-12918001D01*
X6055586Y-12918001D02*
X6055586Y-12784668D01*
X6055586Y-12803716D02*
X6065110Y-12794192D01*
X6065110Y-12794192D02*
X6084158Y-12784668D01*
X6084158Y-12784668D02*
X6112729Y-12784668D01*
X6112729Y-12784668D02*
X6131777Y-12794192D01*
X6131777Y-12794192D02*
X6141301Y-12813239D01*
X6141301Y-12813239D02*
X6141301Y-12918001D01*
X6141301Y-12813239D02*
X6150824Y-12794192D01*
X6150824Y-12794192D02*
X6169872Y-12784668D01*
X6169872Y-12784668D02*
X6198443Y-12784668D01*
X6198443Y-12784668D02*
X6217491Y-12794192D01*
X6217491Y-12794192D02*
X6227015Y-12813239D01*
X6227015Y-12813239D02*
X6227015Y-12918001D01*
X6617491Y-12708478D02*
X6446063Y-12965620D01*
X6874634Y-12718001D02*
X6893682Y-12718001D01*
X6893682Y-12718001D02*
X6912729Y-12727525D01*
X6912729Y-12727525D02*
X6922253Y-12737049D01*
X6922253Y-12737049D02*
X6931777Y-12756097D01*
X6931777Y-12756097D02*
X6941301Y-12794192D01*
X6941301Y-12794192D02*
X6941301Y-12841811D01*
X6941301Y-12841811D02*
X6931777Y-12879906D01*
X6931777Y-12879906D02*
X6922253Y-12898954D01*
X6922253Y-12898954D02*
X6912729Y-12908478D01*
X6912729Y-12908478D02*
X6893682Y-12918001D01*
X6893682Y-12918001D02*
X6874634Y-12918001D01*
X6874634Y-12918001D02*
X6855586Y-12908478D01*
X6855586Y-12908478D02*
X6846063Y-12898954D01*
X6846063Y-12898954D02*
X6836539Y-12879906D01*
X6836539Y-12879906D02*
X6827015Y-12841811D01*
X6827015Y-12841811D02*
X6827015Y-12794192D01*
X6827015Y-12794192D02*
X6836539Y-12756097D01*
X6836539Y-12756097D02*
X6846063Y-12737049D01*
X6846063Y-12737049D02*
X6855586Y-12727525D01*
X6855586Y-12727525D02*
X6874634Y-12718001D01*
X7027015Y-12898954D02*
X7036539Y-12908478D01*
X7036539Y-12908478D02*
X7027015Y-12918001D01*
X7027015Y-12918001D02*
X7017491Y-12908478D01*
X7017491Y-12908478D02*
X7027015Y-12898954D01*
X7027015Y-12898954D02*
X7027015Y-12918001D01*
X7160348Y-12718001D02*
X7179396Y-12718001D01*
X7179396Y-12718001D02*
X7198444Y-12727525D01*
X7198444Y-12727525D02*
X7207967Y-12737049D01*
X7207967Y-12737049D02*
X7217491Y-12756097D01*
X7217491Y-12756097D02*
X7227015Y-12794192D01*
X7227015Y-12794192D02*
X7227015Y-12841811D01*
X7227015Y-12841811D02*
X7217491Y-12879906D01*
X7217491Y-12879906D02*
X7207967Y-12898954D01*
X7207967Y-12898954D02*
X7198444Y-12908478D01*
X7198444Y-12908478D02*
X7179396Y-12918001D01*
X7179396Y-12918001D02*
X7160348Y-12918001D01*
X7160348Y-12918001D02*
X7141301Y-12908478D01*
X7141301Y-12908478D02*
X7131777Y-12898954D01*
X7131777Y-12898954D02*
X7122253Y-12879906D01*
X7122253Y-12879906D02*
X7112729Y-12841811D01*
X7112729Y-12841811D02*
X7112729Y-12794192D01*
X7112729Y-12794192D02*
X7122253Y-12756097D01*
X7122253Y-12756097D02*
X7131777Y-12737049D01*
X7131777Y-12737049D02*
X7141301Y-12727525D01*
X7141301Y-12727525D02*
X7160348Y-12718001D01*
X7417491Y-12918001D02*
X7303206Y-12918001D01*
X7360348Y-12918001D02*
X7360348Y-12718001D01*
X7360348Y-12718001D02*
X7341301Y-12746573D01*
X7341301Y-12746573D02*
X7322253Y-12765620D01*
X7322253Y-12765620D02*
X7303206Y-12775144D01*
X7607967Y-12918001D02*
X7493682Y-12918001D01*
X7550825Y-12918001D02*
X7550825Y-12718001D01*
X7550825Y-12718001D02*
X7531777Y-12746573D01*
X7531777Y-12746573D02*
X7512729Y-12765620D01*
X7512729Y-12765620D02*
X7493682Y-12775144D01*
X7722253Y-12803716D02*
X7703206Y-12794192D01*
X7703206Y-12794192D02*
X7693682Y-12784668D01*
X7693682Y-12784668D02*
X7684158Y-12765620D01*
X7684158Y-12765620D02*
X7684158Y-12756097D01*
X7684158Y-12756097D02*
X7693682Y-12737049D01*
X7693682Y-12737049D02*
X7703206Y-12727525D01*
X7703206Y-12727525D02*
X7722253Y-12718001D01*
X7722253Y-12718001D02*
X7760348Y-12718001D01*
X7760348Y-12718001D02*
X7779396Y-12727525D01*
X7779396Y-12727525D02*
X7788920Y-12737049D01*
X7788920Y-12737049D02*
X7798444Y-12756097D01*
X7798444Y-12756097D02*
X7798444Y-12765620D01*
X7798444Y-12765620D02*
X7788920Y-12784668D01*
X7788920Y-12784668D02*
X7779396Y-12794192D01*
X7779396Y-12794192D02*
X7760348Y-12803716D01*
X7760348Y-12803716D02*
X7722253Y-12803716D01*
X7722253Y-12803716D02*
X7703206Y-12813239D01*
X7703206Y-12813239D02*
X7693682Y-12822763D01*
X7693682Y-12822763D02*
X7684158Y-12841811D01*
X7684158Y-12841811D02*
X7684158Y-12879906D01*
X7684158Y-12879906D02*
X7693682Y-12898954D01*
X7693682Y-12898954D02*
X7703206Y-12908478D01*
X7703206Y-12908478D02*
X7722253Y-12918001D01*
X7722253Y-12918001D02*
X7760348Y-12918001D01*
X7760348Y-12918001D02*
X7779396Y-12908478D01*
X7779396Y-12908478D02*
X7788920Y-12898954D01*
X7788920Y-12898954D02*
X7798444Y-12879906D01*
X7798444Y-12879906D02*
X7798444Y-12841811D01*
X7798444Y-12841811D02*
X7788920Y-12822763D01*
X7788920Y-12822763D02*
X7779396Y-12813239D01*
X7779396Y-12813239D02*
X7760348Y-12803716D01*
X7874634Y-12718001D02*
X7874634Y-12756097D01*
X7950825Y-12718001D02*
X7950825Y-12756097D01*
X8246063Y-12994192D02*
X8236539Y-12984668D01*
X8236539Y-12984668D02*
X8217491Y-12956097D01*
X8217491Y-12956097D02*
X8207968Y-12937049D01*
X8207968Y-12937049D02*
X8198444Y-12908478D01*
X8198444Y-12908478D02*
X8188920Y-12860858D01*
X8188920Y-12860858D02*
X8188920Y-12822763D01*
X8188920Y-12822763D02*
X8198444Y-12775144D01*
X8198444Y-12775144D02*
X8207968Y-12746573D01*
X8207968Y-12746573D02*
X8217491Y-12727525D01*
X8217491Y-12727525D02*
X8236539Y-12698954D01*
X8236539Y-12698954D02*
X8246063Y-12689430D01*
X8427015Y-12918001D02*
X8312729Y-12918001D01*
X8369872Y-12918001D02*
X8369872Y-12718001D01*
X8369872Y-12718001D02*
X8350825Y-12746573D01*
X8350825Y-12746573D02*
X8331777Y-12765620D01*
X8331777Y-12765620D02*
X8312729Y-12775144D01*
X8541301Y-12803716D02*
X8522253Y-12794192D01*
X8522253Y-12794192D02*
X8512730Y-12784668D01*
X8512730Y-12784668D02*
X8503206Y-12765620D01*
X8503206Y-12765620D02*
X8503206Y-12756097D01*
X8503206Y-12756097D02*
X8512730Y-12737049D01*
X8512730Y-12737049D02*
X8522253Y-12727525D01*
X8522253Y-12727525D02*
X8541301Y-12718001D01*
X8541301Y-12718001D02*
X8579396Y-12718001D01*
X8579396Y-12718001D02*
X8598444Y-12727525D01*
X8598444Y-12727525D02*
X8607968Y-12737049D01*
X8607968Y-12737049D02*
X8617491Y-12756097D01*
X8617491Y-12756097D02*
X8617491Y-12765620D01*
X8617491Y-12765620D02*
X8607968Y-12784668D01*
X8607968Y-12784668D02*
X8598444Y-12794192D01*
X8598444Y-12794192D02*
X8579396Y-12803716D01*
X8579396Y-12803716D02*
X8541301Y-12803716D01*
X8541301Y-12803716D02*
X8522253Y-12813239D01*
X8522253Y-12813239D02*
X8512730Y-12822763D01*
X8512730Y-12822763D02*
X8503206Y-12841811D01*
X8503206Y-12841811D02*
X8503206Y-12879906D01*
X8503206Y-12879906D02*
X8512730Y-12898954D01*
X8512730Y-12898954D02*
X8522253Y-12908478D01*
X8522253Y-12908478D02*
X8541301Y-12918001D01*
X8541301Y-12918001D02*
X8579396Y-12918001D01*
X8579396Y-12918001D02*
X8598444Y-12908478D01*
X8598444Y-12908478D02*
X8607968Y-12898954D01*
X8607968Y-12898954D02*
X8617491Y-12879906D01*
X8617491Y-12879906D02*
X8617491Y-12841811D01*
X8617491Y-12841811D02*
X8607968Y-12822763D01*
X8607968Y-12822763D02*
X8598444Y-12813239D01*
X8598444Y-12813239D02*
X8579396Y-12803716D01*
X8855587Y-12918001D02*
X8855587Y-12718001D01*
X8941301Y-12918001D02*
X8941301Y-12813239D01*
X8941301Y-12813239D02*
X8931777Y-12794192D01*
X8931777Y-12794192D02*
X8912730Y-12784668D01*
X8912730Y-12784668D02*
X8884158Y-12784668D01*
X8884158Y-12784668D02*
X8865111Y-12794192D01*
X8865111Y-12794192D02*
X8855587Y-12803716D01*
X9065111Y-12918001D02*
X9046063Y-12908478D01*
X9046063Y-12908478D02*
X9036539Y-12898954D01*
X9036539Y-12898954D02*
X9027015Y-12879906D01*
X9027015Y-12879906D02*
X9027015Y-12822763D01*
X9027015Y-12822763D02*
X9036539Y-12803716D01*
X9036539Y-12803716D02*
X9046063Y-12794192D01*
X9046063Y-12794192D02*
X9065111Y-12784668D01*
X9065111Y-12784668D02*
X9093682Y-12784668D01*
X9093682Y-12784668D02*
X9112730Y-12794192D01*
X9112730Y-12794192D02*
X9122253Y-12803716D01*
X9122253Y-12803716D02*
X9131777Y-12822763D01*
X9131777Y-12822763D02*
X9131777Y-12879906D01*
X9131777Y-12879906D02*
X9122253Y-12898954D01*
X9122253Y-12898954D02*
X9112730Y-12908478D01*
X9112730Y-12908478D02*
X9093682Y-12918001D01*
X9093682Y-12918001D02*
X9065111Y-12918001D01*
X9246063Y-12918001D02*
X9227015Y-12908478D01*
X9227015Y-12908478D02*
X9217492Y-12889430D01*
X9217492Y-12889430D02*
X9217492Y-12718001D01*
X9398444Y-12908478D02*
X9379396Y-12918001D01*
X9379396Y-12918001D02*
X9341301Y-12918001D01*
X9341301Y-12918001D02*
X9322253Y-12908478D01*
X9322253Y-12908478D02*
X9312730Y-12889430D01*
X9312730Y-12889430D02*
X9312730Y-12813239D01*
X9312730Y-12813239D02*
X9322253Y-12794192D01*
X9322253Y-12794192D02*
X9341301Y-12784668D01*
X9341301Y-12784668D02*
X9379396Y-12784668D01*
X9379396Y-12784668D02*
X9398444Y-12794192D01*
X9398444Y-12794192D02*
X9407968Y-12813239D01*
X9407968Y-12813239D02*
X9407968Y-12832287D01*
X9407968Y-12832287D02*
X9312730Y-12851335D01*
X9484158Y-12908478D02*
X9503206Y-12918001D01*
X9503206Y-12918001D02*
X9541301Y-12918001D01*
X9541301Y-12918001D02*
X9560349Y-12908478D01*
X9560349Y-12908478D02*
X9569873Y-12889430D01*
X9569873Y-12889430D02*
X9569873Y-12879906D01*
X9569873Y-12879906D02*
X9560349Y-12860858D01*
X9560349Y-12860858D02*
X9541301Y-12851335D01*
X9541301Y-12851335D02*
X9512730Y-12851335D01*
X9512730Y-12851335D02*
X9493682Y-12841811D01*
X9493682Y-12841811D02*
X9484158Y-12822763D01*
X9484158Y-12822763D02*
X9484158Y-12813239D01*
X9484158Y-12813239D02*
X9493682Y-12794192D01*
X9493682Y-12794192D02*
X9512730Y-12784668D01*
X9512730Y-12784668D02*
X9541301Y-12784668D01*
X9541301Y-12784668D02*
X9560349Y-12794192D01*
X9636539Y-12994192D02*
X9646063Y-12984668D01*
X9646063Y-12984668D02*
X9665111Y-12956097D01*
X9665111Y-12956097D02*
X9674634Y-12937049D01*
X9674634Y-12937049D02*
X9684158Y-12908478D01*
X9684158Y-12908478D02*
X9693682Y-12860858D01*
X9693682Y-12860858D02*
X9693682Y-12822763D01*
X9693682Y-12822763D02*
X9684158Y-12775144D01*
X9684158Y-12775144D02*
X9674634Y-12746573D01*
X9674634Y-12746573D02*
X9665111Y-12727525D01*
X9665111Y-12727525D02*
X9646063Y-12698954D01*
X9646063Y-12698954D02*
X9636539Y-12689430D01*
D12*
X4671000Y-13090518D02*
G75*
G02*
X4596000Y-13090518I-37500J0D01*
G01*
X4596000Y-13090518D02*
G75*
G02*
X4671000Y-13090518I37500J0D01*
G01*
D11*
X4969872Y-12982001D02*
X4988920Y-12982001D01*
X4988920Y-12982001D02*
X5007967Y-12991525D01*
X5007967Y-12991525D02*
X5017491Y-13001049D01*
X5017491Y-13001049D02*
X5027015Y-13020097D01*
X5027015Y-13020097D02*
X5036539Y-13058192D01*
X5036539Y-13058192D02*
X5036539Y-13105811D01*
X5036539Y-13105811D02*
X5027015Y-13143906D01*
X5027015Y-13143906D02*
X5017491Y-13162954D01*
X5017491Y-13162954D02*
X5007967Y-13172478D01*
X5007967Y-13172478D02*
X4988920Y-13182001D01*
X4988920Y-13182001D02*
X4969872Y-13182001D01*
X4969872Y-13182001D02*
X4950824Y-13172478D01*
X4950824Y-13172478D02*
X4941301Y-13162954D01*
X4941301Y-13162954D02*
X4931777Y-13143906D01*
X4931777Y-13143906D02*
X4922253Y-13105811D01*
X4922253Y-13105811D02*
X4922253Y-13058192D01*
X4922253Y-13058192D02*
X4931777Y-13020097D01*
X4931777Y-13020097D02*
X4941301Y-13001049D01*
X4941301Y-13001049D02*
X4950824Y-12991525D01*
X4950824Y-12991525D02*
X4969872Y-12982001D01*
X5122253Y-13162954D02*
X5131777Y-13172478D01*
X5131777Y-13172478D02*
X5122253Y-13182001D01*
X5122253Y-13182001D02*
X5112729Y-13172478D01*
X5112729Y-13172478D02*
X5122253Y-13162954D01*
X5122253Y-13162954D02*
X5122253Y-13182001D01*
X5198444Y-12982001D02*
X5331777Y-12982001D01*
X5331777Y-12982001D02*
X5246063Y-13182001D01*
X5503205Y-12982001D02*
X5407967Y-12982001D01*
X5407967Y-12982001D02*
X5398444Y-13077239D01*
X5398444Y-13077239D02*
X5407967Y-13067716D01*
X5407967Y-13067716D02*
X5427015Y-13058192D01*
X5427015Y-13058192D02*
X5474634Y-13058192D01*
X5474634Y-13058192D02*
X5493682Y-13067716D01*
X5493682Y-13067716D02*
X5503205Y-13077239D01*
X5503205Y-13077239D02*
X5512729Y-13096287D01*
X5512729Y-13096287D02*
X5512729Y-13143906D01*
X5512729Y-13143906D02*
X5503205Y-13162954D01*
X5503205Y-13162954D02*
X5493682Y-13172478D01*
X5493682Y-13172478D02*
X5474634Y-13182001D01*
X5474634Y-13182001D02*
X5427015Y-13182001D01*
X5427015Y-13182001D02*
X5407967Y-13172478D01*
X5407967Y-13172478D02*
X5398444Y-13162954D01*
X5636539Y-12982001D02*
X5655586Y-12982001D01*
X5655586Y-12982001D02*
X5674634Y-12991525D01*
X5674634Y-12991525D02*
X5684158Y-13001049D01*
X5684158Y-13001049D02*
X5693682Y-13020097D01*
X5693682Y-13020097D02*
X5703205Y-13058192D01*
X5703205Y-13058192D02*
X5703205Y-13105811D01*
X5703205Y-13105811D02*
X5693682Y-13143906D01*
X5693682Y-13143906D02*
X5684158Y-13162954D01*
X5684158Y-13162954D02*
X5674634Y-13172478D01*
X5674634Y-13172478D02*
X5655586Y-13182001D01*
X5655586Y-13182001D02*
X5636539Y-13182001D01*
X5636539Y-13182001D02*
X5617491Y-13172478D01*
X5617491Y-13172478D02*
X5607967Y-13162954D01*
X5607967Y-13162954D02*
X5598443Y-13143906D01*
X5598443Y-13143906D02*
X5588920Y-13105811D01*
X5588920Y-13105811D02*
X5588920Y-13058192D01*
X5588920Y-13058192D02*
X5598443Y-13020097D01*
X5598443Y-13020097D02*
X5607967Y-13001049D01*
X5607967Y-13001049D02*
X5617491Y-12991525D01*
X5617491Y-12991525D02*
X5636539Y-12982001D01*
X5788920Y-13182001D02*
X5788920Y-13048668D01*
X5788920Y-13067716D02*
X5798443Y-13058192D01*
X5798443Y-13058192D02*
X5817491Y-13048668D01*
X5817491Y-13048668D02*
X5846063Y-13048668D01*
X5846063Y-13048668D02*
X5865110Y-13058192D01*
X5865110Y-13058192D02*
X5874634Y-13077239D01*
X5874634Y-13077239D02*
X5874634Y-13182001D01*
X5874634Y-13077239D02*
X5884158Y-13058192D01*
X5884158Y-13058192D02*
X5903205Y-13048668D01*
X5903205Y-13048668D02*
X5931777Y-13048668D01*
X5931777Y-13048668D02*
X5950824Y-13058192D01*
X5950824Y-13058192D02*
X5960348Y-13077239D01*
X5960348Y-13077239D02*
X5960348Y-13182001D01*
X6055586Y-13182001D02*
X6055586Y-13048668D01*
X6055586Y-13067716D02*
X6065110Y-13058192D01*
X6065110Y-13058192D02*
X6084158Y-13048668D01*
X6084158Y-13048668D02*
X6112729Y-13048668D01*
X6112729Y-13048668D02*
X6131777Y-13058192D01*
X6131777Y-13058192D02*
X6141301Y-13077239D01*
X6141301Y-13077239D02*
X6141301Y-13182001D01*
X6141301Y-13077239D02*
X6150824Y-13058192D01*
X6150824Y-13058192D02*
X6169872Y-13048668D01*
X6169872Y-13048668D02*
X6198443Y-13048668D01*
X6198443Y-13048668D02*
X6217491Y-13058192D01*
X6217491Y-13058192D02*
X6227015Y-13077239D01*
X6227015Y-13077239D02*
X6227015Y-13182001D01*
X6617491Y-12972478D02*
X6446063Y-13229620D01*
X6874634Y-12982001D02*
X6893682Y-12982001D01*
X6893682Y-12982001D02*
X6912729Y-12991525D01*
X6912729Y-12991525D02*
X6922253Y-13001049D01*
X6922253Y-13001049D02*
X6931777Y-13020097D01*
X6931777Y-13020097D02*
X6941301Y-13058192D01*
X6941301Y-13058192D02*
X6941301Y-13105811D01*
X6941301Y-13105811D02*
X6931777Y-13143906D01*
X6931777Y-13143906D02*
X6922253Y-13162954D01*
X6922253Y-13162954D02*
X6912729Y-13172478D01*
X6912729Y-13172478D02*
X6893682Y-13182001D01*
X6893682Y-13182001D02*
X6874634Y-13182001D01*
X6874634Y-13182001D02*
X6855586Y-13172478D01*
X6855586Y-13172478D02*
X6846063Y-13162954D01*
X6846063Y-13162954D02*
X6836539Y-13143906D01*
X6836539Y-13143906D02*
X6827015Y-13105811D01*
X6827015Y-13105811D02*
X6827015Y-13058192D01*
X6827015Y-13058192D02*
X6836539Y-13020097D01*
X6836539Y-13020097D02*
X6846063Y-13001049D01*
X6846063Y-13001049D02*
X6855586Y-12991525D01*
X6855586Y-12991525D02*
X6874634Y-12982001D01*
X7027015Y-13162954D02*
X7036539Y-13172478D01*
X7036539Y-13172478D02*
X7027015Y-13182001D01*
X7027015Y-13182001D02*
X7017491Y-13172478D01*
X7017491Y-13172478D02*
X7027015Y-13162954D01*
X7027015Y-13162954D02*
X7027015Y-13182001D01*
X7160348Y-12982001D02*
X7179396Y-12982001D01*
X7179396Y-12982001D02*
X7198444Y-12991525D01*
X7198444Y-12991525D02*
X7207967Y-13001049D01*
X7207967Y-13001049D02*
X7217491Y-13020097D01*
X7217491Y-13020097D02*
X7227015Y-13058192D01*
X7227015Y-13058192D02*
X7227015Y-13105811D01*
X7227015Y-13105811D02*
X7217491Y-13143906D01*
X7217491Y-13143906D02*
X7207967Y-13162954D01*
X7207967Y-13162954D02*
X7198444Y-13172478D01*
X7198444Y-13172478D02*
X7179396Y-13182001D01*
X7179396Y-13182001D02*
X7160348Y-13182001D01*
X7160348Y-13182001D02*
X7141301Y-13172478D01*
X7141301Y-13172478D02*
X7131777Y-13162954D01*
X7131777Y-13162954D02*
X7122253Y-13143906D01*
X7122253Y-13143906D02*
X7112729Y-13105811D01*
X7112729Y-13105811D02*
X7112729Y-13058192D01*
X7112729Y-13058192D02*
X7122253Y-13020097D01*
X7122253Y-13020097D02*
X7131777Y-13001049D01*
X7131777Y-13001049D02*
X7141301Y-12991525D01*
X7141301Y-12991525D02*
X7160348Y-12982001D01*
X7303206Y-13001049D02*
X7312729Y-12991525D01*
X7312729Y-12991525D02*
X7331777Y-12982001D01*
X7331777Y-12982001D02*
X7379396Y-12982001D01*
X7379396Y-12982001D02*
X7398444Y-12991525D01*
X7398444Y-12991525D02*
X7407967Y-13001049D01*
X7407967Y-13001049D02*
X7417491Y-13020097D01*
X7417491Y-13020097D02*
X7417491Y-13039144D01*
X7417491Y-13039144D02*
X7407967Y-13067716D01*
X7407967Y-13067716D02*
X7293682Y-13182001D01*
X7293682Y-13182001D02*
X7417491Y-13182001D01*
X7512729Y-13182001D02*
X7550825Y-13182001D01*
X7550825Y-13182001D02*
X7569872Y-13172478D01*
X7569872Y-13172478D02*
X7579396Y-13162954D01*
X7579396Y-13162954D02*
X7598444Y-13134382D01*
X7598444Y-13134382D02*
X7607967Y-13096287D01*
X7607967Y-13096287D02*
X7607967Y-13020097D01*
X7607967Y-13020097D02*
X7598444Y-13001049D01*
X7598444Y-13001049D02*
X7588920Y-12991525D01*
X7588920Y-12991525D02*
X7569872Y-12982001D01*
X7569872Y-12982001D02*
X7531777Y-12982001D01*
X7531777Y-12982001D02*
X7512729Y-12991525D01*
X7512729Y-12991525D02*
X7503206Y-13001049D01*
X7503206Y-13001049D02*
X7493682Y-13020097D01*
X7493682Y-13020097D02*
X7493682Y-13067716D01*
X7493682Y-13067716D02*
X7503206Y-13086763D01*
X7503206Y-13086763D02*
X7512729Y-13096287D01*
X7512729Y-13096287D02*
X7531777Y-13105811D01*
X7531777Y-13105811D02*
X7569872Y-13105811D01*
X7569872Y-13105811D02*
X7588920Y-13096287D01*
X7588920Y-13096287D02*
X7598444Y-13086763D01*
X7598444Y-13086763D02*
X7607967Y-13067716D01*
X7788920Y-12982001D02*
X7693682Y-12982001D01*
X7693682Y-12982001D02*
X7684158Y-13077239D01*
X7684158Y-13077239D02*
X7693682Y-13067716D01*
X7693682Y-13067716D02*
X7712729Y-13058192D01*
X7712729Y-13058192D02*
X7760348Y-13058192D01*
X7760348Y-13058192D02*
X7779396Y-13067716D01*
X7779396Y-13067716D02*
X7788920Y-13077239D01*
X7788920Y-13077239D02*
X7798444Y-13096287D01*
X7798444Y-13096287D02*
X7798444Y-13143906D01*
X7798444Y-13143906D02*
X7788920Y-13162954D01*
X7788920Y-13162954D02*
X7779396Y-13172478D01*
X7779396Y-13172478D02*
X7760348Y-13182001D01*
X7760348Y-13182001D02*
X7712729Y-13182001D01*
X7712729Y-13182001D02*
X7693682Y-13172478D01*
X7693682Y-13172478D02*
X7684158Y-13162954D01*
X7874634Y-12982001D02*
X7874634Y-13020097D01*
X7950825Y-12982001D02*
X7950825Y-13020097D01*
X8246063Y-13258192D02*
X8236539Y-13248668D01*
X8236539Y-13248668D02*
X8217491Y-13220097D01*
X8217491Y-13220097D02*
X8207968Y-13201049D01*
X8207968Y-13201049D02*
X8198444Y-13172478D01*
X8198444Y-13172478D02*
X8188920Y-13124858D01*
X8188920Y-13124858D02*
X8188920Y-13086763D01*
X8188920Y-13086763D02*
X8198444Y-13039144D01*
X8198444Y-13039144D02*
X8207968Y-13010573D01*
X8207968Y-13010573D02*
X8217491Y-12991525D01*
X8217491Y-12991525D02*
X8236539Y-12962954D01*
X8236539Y-12962954D02*
X8246063Y-12953430D01*
X8427015Y-13182001D02*
X8312729Y-13182001D01*
X8369872Y-13182001D02*
X8369872Y-12982001D01*
X8369872Y-12982001D02*
X8350825Y-13010573D01*
X8350825Y-13010573D02*
X8331777Y-13029620D01*
X8331777Y-13029620D02*
X8312729Y-13039144D01*
X8665111Y-13182001D02*
X8665111Y-12982001D01*
X8750825Y-13182001D02*
X8750825Y-13077239D01*
X8750825Y-13077239D02*
X8741301Y-13058192D01*
X8741301Y-13058192D02*
X8722253Y-13048668D01*
X8722253Y-13048668D02*
X8693682Y-13048668D01*
X8693682Y-13048668D02*
X8674634Y-13058192D01*
X8674634Y-13058192D02*
X8665111Y-13067716D01*
X8874634Y-13182001D02*
X8855587Y-13172478D01*
X8855587Y-13172478D02*
X8846063Y-13162954D01*
X8846063Y-13162954D02*
X8836539Y-13143906D01*
X8836539Y-13143906D02*
X8836539Y-13086763D01*
X8836539Y-13086763D02*
X8846063Y-13067716D01*
X8846063Y-13067716D02*
X8855587Y-13058192D01*
X8855587Y-13058192D02*
X8874634Y-13048668D01*
X8874634Y-13048668D02*
X8903206Y-13048668D01*
X8903206Y-13048668D02*
X8922253Y-13058192D01*
X8922253Y-13058192D02*
X8931777Y-13067716D01*
X8931777Y-13067716D02*
X8941301Y-13086763D01*
X8941301Y-13086763D02*
X8941301Y-13143906D01*
X8941301Y-13143906D02*
X8931777Y-13162954D01*
X8931777Y-13162954D02*
X8922253Y-13172478D01*
X8922253Y-13172478D02*
X8903206Y-13182001D01*
X8903206Y-13182001D02*
X8874634Y-13182001D01*
X9055587Y-13182001D02*
X9036539Y-13172478D01*
X9036539Y-13172478D02*
X9027015Y-13153430D01*
X9027015Y-13153430D02*
X9027015Y-12982001D01*
X9207968Y-13172478D02*
X9188920Y-13182001D01*
X9188920Y-13182001D02*
X9150825Y-13182001D01*
X9150825Y-13182001D02*
X9131777Y-13172478D01*
X9131777Y-13172478D02*
X9122253Y-13153430D01*
X9122253Y-13153430D02*
X9122253Y-13077239D01*
X9122253Y-13077239D02*
X9131777Y-13058192D01*
X9131777Y-13058192D02*
X9150825Y-13048668D01*
X9150825Y-13048668D02*
X9188920Y-13048668D01*
X9188920Y-13048668D02*
X9207968Y-13058192D01*
X9207968Y-13058192D02*
X9217492Y-13077239D01*
X9217492Y-13077239D02*
X9217492Y-13096287D01*
X9217492Y-13096287D02*
X9122253Y-13115335D01*
X9284158Y-13258192D02*
X9293682Y-13248668D01*
X9293682Y-13248668D02*
X9312730Y-13220097D01*
X9312730Y-13220097D02*
X9322253Y-13201049D01*
X9322253Y-13201049D02*
X9331777Y-13172478D01*
X9331777Y-13172478D02*
X9341301Y-13124858D01*
X9341301Y-13124858D02*
X9341301Y-13086763D01*
X9341301Y-13086763D02*
X9331777Y-13039144D01*
X9331777Y-13039144D02*
X9322253Y-13010573D01*
X9322253Y-13010573D02*
X9312730Y-12991525D01*
X9312730Y-12991525D02*
X9293682Y-12962954D01*
X9293682Y-12962954D02*
X9284158Y-12953430D01*
D12*
X4631000Y-13314518D02*
X4631000Y-13394518D01*
X4591000Y-13354518D02*
X4671000Y-13354518D01*
D11*
X4969872Y-13246001D02*
X4988920Y-13246001D01*
X4988920Y-13246001D02*
X5007967Y-13255525D01*
X5007967Y-13255525D02*
X5017491Y-13265049D01*
X5017491Y-13265049D02*
X5027015Y-13284097D01*
X5027015Y-13284097D02*
X5036539Y-13322192D01*
X5036539Y-13322192D02*
X5036539Y-13369811D01*
X5036539Y-13369811D02*
X5027015Y-13407906D01*
X5027015Y-13407906D02*
X5017491Y-13426954D01*
X5017491Y-13426954D02*
X5007967Y-13436478D01*
X5007967Y-13436478D02*
X4988920Y-13446001D01*
X4988920Y-13446001D02*
X4969872Y-13446001D01*
X4969872Y-13446001D02*
X4950824Y-13436478D01*
X4950824Y-13436478D02*
X4941301Y-13426954D01*
X4941301Y-13426954D02*
X4931777Y-13407906D01*
X4931777Y-13407906D02*
X4922253Y-13369811D01*
X4922253Y-13369811D02*
X4922253Y-13322192D01*
X4922253Y-13322192D02*
X4931777Y-13284097D01*
X4931777Y-13284097D02*
X4941301Y-13265049D01*
X4941301Y-13265049D02*
X4950824Y-13255525D01*
X4950824Y-13255525D02*
X4969872Y-13246001D01*
X5122253Y-13426954D02*
X5131777Y-13436478D01*
X5131777Y-13436478D02*
X5122253Y-13446001D01*
X5122253Y-13446001D02*
X5112729Y-13436478D01*
X5112729Y-13436478D02*
X5122253Y-13426954D01*
X5122253Y-13426954D02*
X5122253Y-13446001D01*
X5246063Y-13331716D02*
X5227015Y-13322192D01*
X5227015Y-13322192D02*
X5217491Y-13312668D01*
X5217491Y-13312668D02*
X5207967Y-13293620D01*
X5207967Y-13293620D02*
X5207967Y-13284097D01*
X5207967Y-13284097D02*
X5217491Y-13265049D01*
X5217491Y-13265049D02*
X5227015Y-13255525D01*
X5227015Y-13255525D02*
X5246063Y-13246001D01*
X5246063Y-13246001D02*
X5284158Y-13246001D01*
X5284158Y-13246001D02*
X5303205Y-13255525D01*
X5303205Y-13255525D02*
X5312729Y-13265049D01*
X5312729Y-13265049D02*
X5322253Y-13284097D01*
X5322253Y-13284097D02*
X5322253Y-13293620D01*
X5322253Y-13293620D02*
X5312729Y-13312668D01*
X5312729Y-13312668D02*
X5303205Y-13322192D01*
X5303205Y-13322192D02*
X5284158Y-13331716D01*
X5284158Y-13331716D02*
X5246063Y-13331716D01*
X5246063Y-13331716D02*
X5227015Y-13341239D01*
X5227015Y-13341239D02*
X5217491Y-13350763D01*
X5217491Y-13350763D02*
X5207967Y-13369811D01*
X5207967Y-13369811D02*
X5207967Y-13407906D01*
X5207967Y-13407906D02*
X5217491Y-13426954D01*
X5217491Y-13426954D02*
X5227015Y-13436478D01*
X5227015Y-13436478D02*
X5246063Y-13446001D01*
X5246063Y-13446001D02*
X5284158Y-13446001D01*
X5284158Y-13446001D02*
X5303205Y-13436478D01*
X5303205Y-13436478D02*
X5312729Y-13426954D01*
X5312729Y-13426954D02*
X5322253Y-13407906D01*
X5322253Y-13407906D02*
X5322253Y-13369811D01*
X5322253Y-13369811D02*
X5312729Y-13350763D01*
X5312729Y-13350763D02*
X5303205Y-13341239D01*
X5303205Y-13341239D02*
X5284158Y-13331716D01*
X5446063Y-13246001D02*
X5465110Y-13246001D01*
X5465110Y-13246001D02*
X5484158Y-13255525D01*
X5484158Y-13255525D02*
X5493682Y-13265049D01*
X5493682Y-13265049D02*
X5503205Y-13284097D01*
X5503205Y-13284097D02*
X5512729Y-13322192D01*
X5512729Y-13322192D02*
X5512729Y-13369811D01*
X5512729Y-13369811D02*
X5503205Y-13407906D01*
X5503205Y-13407906D02*
X5493682Y-13426954D01*
X5493682Y-13426954D02*
X5484158Y-13436478D01*
X5484158Y-13436478D02*
X5465110Y-13446001D01*
X5465110Y-13446001D02*
X5446063Y-13446001D01*
X5446063Y-13446001D02*
X5427015Y-13436478D01*
X5427015Y-13436478D02*
X5417491Y-13426954D01*
X5417491Y-13426954D02*
X5407967Y-13407906D01*
X5407967Y-13407906D02*
X5398444Y-13369811D01*
X5398444Y-13369811D02*
X5398444Y-13322192D01*
X5398444Y-13322192D02*
X5407967Y-13284097D01*
X5407967Y-13284097D02*
X5417491Y-13265049D01*
X5417491Y-13265049D02*
X5427015Y-13255525D01*
X5427015Y-13255525D02*
X5446063Y-13246001D01*
X5636539Y-13246001D02*
X5655586Y-13246001D01*
X5655586Y-13246001D02*
X5674634Y-13255525D01*
X5674634Y-13255525D02*
X5684158Y-13265049D01*
X5684158Y-13265049D02*
X5693682Y-13284097D01*
X5693682Y-13284097D02*
X5703205Y-13322192D01*
X5703205Y-13322192D02*
X5703205Y-13369811D01*
X5703205Y-13369811D02*
X5693682Y-13407906D01*
X5693682Y-13407906D02*
X5684158Y-13426954D01*
X5684158Y-13426954D02*
X5674634Y-13436478D01*
X5674634Y-13436478D02*
X5655586Y-13446001D01*
X5655586Y-13446001D02*
X5636539Y-13446001D01*
X5636539Y-13446001D02*
X5617491Y-13436478D01*
X5617491Y-13436478D02*
X5607967Y-13426954D01*
X5607967Y-13426954D02*
X5598443Y-13407906D01*
X5598443Y-13407906D02*
X5588920Y-13369811D01*
X5588920Y-13369811D02*
X5588920Y-13322192D01*
X5588920Y-13322192D02*
X5598443Y-13284097D01*
X5598443Y-13284097D02*
X5607967Y-13265049D01*
X5607967Y-13265049D02*
X5617491Y-13255525D01*
X5617491Y-13255525D02*
X5636539Y-13246001D01*
X5788920Y-13446001D02*
X5788920Y-13312668D01*
X5788920Y-13331716D02*
X5798443Y-13322192D01*
X5798443Y-13322192D02*
X5817491Y-13312668D01*
X5817491Y-13312668D02*
X5846063Y-13312668D01*
X5846063Y-13312668D02*
X5865110Y-13322192D01*
X5865110Y-13322192D02*
X5874634Y-13341239D01*
X5874634Y-13341239D02*
X5874634Y-13446001D01*
X5874634Y-13341239D02*
X5884158Y-13322192D01*
X5884158Y-13322192D02*
X5903205Y-13312668D01*
X5903205Y-13312668D02*
X5931777Y-13312668D01*
X5931777Y-13312668D02*
X5950824Y-13322192D01*
X5950824Y-13322192D02*
X5960348Y-13341239D01*
X5960348Y-13341239D02*
X5960348Y-13446001D01*
X6055586Y-13446001D02*
X6055586Y-13312668D01*
X6055586Y-13331716D02*
X6065110Y-13322192D01*
X6065110Y-13322192D02*
X6084158Y-13312668D01*
X6084158Y-13312668D02*
X6112729Y-13312668D01*
X6112729Y-13312668D02*
X6131777Y-13322192D01*
X6131777Y-13322192D02*
X6141301Y-13341239D01*
X6141301Y-13341239D02*
X6141301Y-13446001D01*
X6141301Y-13341239D02*
X6150824Y-13322192D01*
X6150824Y-13322192D02*
X6169872Y-13312668D01*
X6169872Y-13312668D02*
X6198443Y-13312668D01*
X6198443Y-13312668D02*
X6217491Y-13322192D01*
X6217491Y-13322192D02*
X6227015Y-13341239D01*
X6227015Y-13341239D02*
X6227015Y-13446001D01*
X6617491Y-13236478D02*
X6446063Y-13493620D01*
X6874634Y-13246001D02*
X6893682Y-13246001D01*
X6893682Y-13246001D02*
X6912729Y-13255525D01*
X6912729Y-13255525D02*
X6922253Y-13265049D01*
X6922253Y-13265049D02*
X6931777Y-13284097D01*
X6931777Y-13284097D02*
X6941301Y-13322192D01*
X6941301Y-13322192D02*
X6941301Y-13369811D01*
X6941301Y-13369811D02*
X6931777Y-13407906D01*
X6931777Y-13407906D02*
X6922253Y-13426954D01*
X6922253Y-13426954D02*
X6912729Y-13436478D01*
X6912729Y-13436478D02*
X6893682Y-13446001D01*
X6893682Y-13446001D02*
X6874634Y-13446001D01*
X6874634Y-13446001D02*
X6855586Y-13436478D01*
X6855586Y-13436478D02*
X6846063Y-13426954D01*
X6846063Y-13426954D02*
X6836539Y-13407906D01*
X6836539Y-13407906D02*
X6827015Y-13369811D01*
X6827015Y-13369811D02*
X6827015Y-13322192D01*
X6827015Y-13322192D02*
X6836539Y-13284097D01*
X6836539Y-13284097D02*
X6846063Y-13265049D01*
X6846063Y-13265049D02*
X6855586Y-13255525D01*
X6855586Y-13255525D02*
X6874634Y-13246001D01*
X7027015Y-13426954D02*
X7036539Y-13436478D01*
X7036539Y-13436478D02*
X7027015Y-13446001D01*
X7027015Y-13446001D02*
X7017491Y-13436478D01*
X7017491Y-13436478D02*
X7027015Y-13426954D01*
X7027015Y-13426954D02*
X7027015Y-13446001D01*
X7160348Y-13246001D02*
X7179396Y-13246001D01*
X7179396Y-13246001D02*
X7198444Y-13255525D01*
X7198444Y-13255525D02*
X7207967Y-13265049D01*
X7207967Y-13265049D02*
X7217491Y-13284097D01*
X7217491Y-13284097D02*
X7227015Y-13322192D01*
X7227015Y-13322192D02*
X7227015Y-13369811D01*
X7227015Y-13369811D02*
X7217491Y-13407906D01*
X7217491Y-13407906D02*
X7207967Y-13426954D01*
X7207967Y-13426954D02*
X7198444Y-13436478D01*
X7198444Y-13436478D02*
X7179396Y-13446001D01*
X7179396Y-13446001D02*
X7160348Y-13446001D01*
X7160348Y-13446001D02*
X7141301Y-13436478D01*
X7141301Y-13436478D02*
X7131777Y-13426954D01*
X7131777Y-13426954D02*
X7122253Y-13407906D01*
X7122253Y-13407906D02*
X7112729Y-13369811D01*
X7112729Y-13369811D02*
X7112729Y-13322192D01*
X7112729Y-13322192D02*
X7122253Y-13284097D01*
X7122253Y-13284097D02*
X7131777Y-13265049D01*
X7131777Y-13265049D02*
X7141301Y-13255525D01*
X7141301Y-13255525D02*
X7160348Y-13246001D01*
X7293682Y-13246001D02*
X7417491Y-13246001D01*
X7417491Y-13246001D02*
X7350825Y-13322192D01*
X7350825Y-13322192D02*
X7379396Y-13322192D01*
X7379396Y-13322192D02*
X7398444Y-13331716D01*
X7398444Y-13331716D02*
X7407967Y-13341239D01*
X7407967Y-13341239D02*
X7417491Y-13360287D01*
X7417491Y-13360287D02*
X7417491Y-13407906D01*
X7417491Y-13407906D02*
X7407967Y-13426954D01*
X7407967Y-13426954D02*
X7398444Y-13436478D01*
X7398444Y-13436478D02*
X7379396Y-13446001D01*
X7379396Y-13446001D02*
X7322253Y-13446001D01*
X7322253Y-13446001D02*
X7303206Y-13436478D01*
X7303206Y-13436478D02*
X7293682Y-13426954D01*
X7607967Y-13446001D02*
X7493682Y-13446001D01*
X7550825Y-13446001D02*
X7550825Y-13246001D01*
X7550825Y-13246001D02*
X7531777Y-13274573D01*
X7531777Y-13274573D02*
X7512729Y-13293620D01*
X7512729Y-13293620D02*
X7493682Y-13303144D01*
X7788920Y-13246001D02*
X7693682Y-13246001D01*
X7693682Y-13246001D02*
X7684158Y-13341239D01*
X7684158Y-13341239D02*
X7693682Y-13331716D01*
X7693682Y-13331716D02*
X7712729Y-13322192D01*
X7712729Y-13322192D02*
X7760348Y-13322192D01*
X7760348Y-13322192D02*
X7779396Y-13331716D01*
X7779396Y-13331716D02*
X7788920Y-13341239D01*
X7788920Y-13341239D02*
X7798444Y-13360287D01*
X7798444Y-13360287D02*
X7798444Y-13407906D01*
X7798444Y-13407906D02*
X7788920Y-13426954D01*
X7788920Y-13426954D02*
X7779396Y-13436478D01*
X7779396Y-13436478D02*
X7760348Y-13446001D01*
X7760348Y-13446001D02*
X7712729Y-13446001D01*
X7712729Y-13446001D02*
X7693682Y-13436478D01*
X7693682Y-13436478D02*
X7684158Y-13426954D01*
X7874634Y-13246001D02*
X7874634Y-13284097D01*
X7950825Y-13246001D02*
X7950825Y-13284097D01*
X8246063Y-13522192D02*
X8236539Y-13512668D01*
X8236539Y-13512668D02*
X8217491Y-13484097D01*
X8217491Y-13484097D02*
X8207968Y-13465049D01*
X8207968Y-13465049D02*
X8198444Y-13436478D01*
X8198444Y-13436478D02*
X8188920Y-13388858D01*
X8188920Y-13388858D02*
X8188920Y-13350763D01*
X8188920Y-13350763D02*
X8198444Y-13303144D01*
X8198444Y-13303144D02*
X8207968Y-13274573D01*
X8207968Y-13274573D02*
X8217491Y-13255525D01*
X8217491Y-13255525D02*
X8236539Y-13226954D01*
X8236539Y-13226954D02*
X8246063Y-13217430D01*
X8417491Y-13246001D02*
X8322253Y-13246001D01*
X8322253Y-13246001D02*
X8312729Y-13341239D01*
X8312729Y-13341239D02*
X8322253Y-13331716D01*
X8322253Y-13331716D02*
X8341301Y-13322192D01*
X8341301Y-13322192D02*
X8388920Y-13322192D01*
X8388920Y-13322192D02*
X8407968Y-13331716D01*
X8407968Y-13331716D02*
X8417491Y-13341239D01*
X8417491Y-13341239D02*
X8427015Y-13360287D01*
X8427015Y-13360287D02*
X8427015Y-13407906D01*
X8427015Y-13407906D02*
X8417491Y-13426954D01*
X8417491Y-13426954D02*
X8407968Y-13436478D01*
X8407968Y-13436478D02*
X8388920Y-13446001D01*
X8388920Y-13446001D02*
X8341301Y-13446001D01*
X8341301Y-13446001D02*
X8322253Y-13436478D01*
X8322253Y-13436478D02*
X8312729Y-13426954D01*
X8550825Y-13246001D02*
X8569872Y-13246001D01*
X8569872Y-13246001D02*
X8588920Y-13255525D01*
X8588920Y-13255525D02*
X8598444Y-13265049D01*
X8598444Y-13265049D02*
X8607968Y-13284097D01*
X8607968Y-13284097D02*
X8617491Y-13322192D01*
X8617491Y-13322192D02*
X8617491Y-13369811D01*
X8617491Y-13369811D02*
X8607968Y-13407906D01*
X8607968Y-13407906D02*
X8598444Y-13426954D01*
X8598444Y-13426954D02*
X8588920Y-13436478D01*
X8588920Y-13436478D02*
X8569872Y-13446001D01*
X8569872Y-13446001D02*
X8550825Y-13446001D01*
X8550825Y-13446001D02*
X8531777Y-13436478D01*
X8531777Y-13436478D02*
X8522253Y-13426954D01*
X8522253Y-13426954D02*
X8512730Y-13407906D01*
X8512730Y-13407906D02*
X8503206Y-13369811D01*
X8503206Y-13369811D02*
X8503206Y-13322192D01*
X8503206Y-13322192D02*
X8512730Y-13284097D01*
X8512730Y-13284097D02*
X8522253Y-13265049D01*
X8522253Y-13265049D02*
X8531777Y-13255525D01*
X8531777Y-13255525D02*
X8550825Y-13246001D01*
X8855587Y-13446001D02*
X8855587Y-13246001D01*
X8941301Y-13446001D02*
X8941301Y-13341239D01*
X8941301Y-13341239D02*
X8931777Y-13322192D01*
X8931777Y-13322192D02*
X8912730Y-13312668D01*
X8912730Y-13312668D02*
X8884158Y-13312668D01*
X8884158Y-13312668D02*
X8865111Y-13322192D01*
X8865111Y-13322192D02*
X8855587Y-13331716D01*
X9065111Y-13446001D02*
X9046063Y-13436478D01*
X9046063Y-13436478D02*
X9036539Y-13426954D01*
X9036539Y-13426954D02*
X9027015Y-13407906D01*
X9027015Y-13407906D02*
X9027015Y-13350763D01*
X9027015Y-13350763D02*
X9036539Y-13331716D01*
X9036539Y-13331716D02*
X9046063Y-13322192D01*
X9046063Y-13322192D02*
X9065111Y-13312668D01*
X9065111Y-13312668D02*
X9093682Y-13312668D01*
X9093682Y-13312668D02*
X9112730Y-13322192D01*
X9112730Y-13322192D02*
X9122253Y-13331716D01*
X9122253Y-13331716D02*
X9131777Y-13350763D01*
X9131777Y-13350763D02*
X9131777Y-13407906D01*
X9131777Y-13407906D02*
X9122253Y-13426954D01*
X9122253Y-13426954D02*
X9112730Y-13436478D01*
X9112730Y-13436478D02*
X9093682Y-13446001D01*
X9093682Y-13446001D02*
X9065111Y-13446001D01*
X9246063Y-13446001D02*
X9227015Y-13436478D01*
X9227015Y-13436478D02*
X9217492Y-13417430D01*
X9217492Y-13417430D02*
X9217492Y-13246001D01*
X9398444Y-13436478D02*
X9379396Y-13446001D01*
X9379396Y-13446001D02*
X9341301Y-13446001D01*
X9341301Y-13446001D02*
X9322253Y-13436478D01*
X9322253Y-13436478D02*
X9312730Y-13417430D01*
X9312730Y-13417430D02*
X9312730Y-13341239D01*
X9312730Y-13341239D02*
X9322253Y-13322192D01*
X9322253Y-13322192D02*
X9341301Y-13312668D01*
X9341301Y-13312668D02*
X9379396Y-13312668D01*
X9379396Y-13312668D02*
X9398444Y-13322192D01*
X9398444Y-13322192D02*
X9407968Y-13341239D01*
X9407968Y-13341239D02*
X9407968Y-13360287D01*
X9407968Y-13360287D02*
X9312730Y-13379335D01*
X9484158Y-13436478D02*
X9503206Y-13446001D01*
X9503206Y-13446001D02*
X9541301Y-13446001D01*
X9541301Y-13446001D02*
X9560349Y-13436478D01*
X9560349Y-13436478D02*
X9569873Y-13417430D01*
X9569873Y-13417430D02*
X9569873Y-13407906D01*
X9569873Y-13407906D02*
X9560349Y-13388858D01*
X9560349Y-13388858D02*
X9541301Y-13379335D01*
X9541301Y-13379335D02*
X9512730Y-13379335D01*
X9512730Y-13379335D02*
X9493682Y-13369811D01*
X9493682Y-13369811D02*
X9484158Y-13350763D01*
X9484158Y-13350763D02*
X9484158Y-13341239D01*
X9484158Y-13341239D02*
X9493682Y-13322192D01*
X9493682Y-13322192D02*
X9512730Y-13312668D01*
X9512730Y-13312668D02*
X9541301Y-13312668D01*
X9541301Y-13312668D02*
X9560349Y-13322192D01*
X9636539Y-13522192D02*
X9646063Y-13512668D01*
X9646063Y-13512668D02*
X9665111Y-13484097D01*
X9665111Y-13484097D02*
X9674634Y-13465049D01*
X9674634Y-13465049D02*
X9684158Y-13436478D01*
X9684158Y-13436478D02*
X9693682Y-13388858D01*
X9693682Y-13388858D02*
X9693682Y-13350763D01*
X9693682Y-13350763D02*
X9684158Y-13303144D01*
X9684158Y-13303144D02*
X9674634Y-13274573D01*
X9674634Y-13274573D02*
X9665111Y-13255525D01*
X9665111Y-13255525D02*
X9646063Y-13226954D01*
X9646063Y-13226954D02*
X9636539Y-13217430D01*
D12*
X4657820Y-13650338D02*
X4657820Y-13586697D01*
X4594180Y-13586697D01*
X4594180Y-13650338D01*
X4657820Y-13650338D01*
D11*
X4969872Y-13510001D02*
X4988920Y-13510001D01*
X4988920Y-13510001D02*
X5007967Y-13519525D01*
X5007967Y-13519525D02*
X5017491Y-13529049D01*
X5017491Y-13529049D02*
X5027015Y-13548097D01*
X5027015Y-13548097D02*
X5036539Y-13586192D01*
X5036539Y-13586192D02*
X5036539Y-13633811D01*
X5036539Y-13633811D02*
X5027015Y-13671906D01*
X5027015Y-13671906D02*
X5017491Y-13690954D01*
X5017491Y-13690954D02*
X5007967Y-13700478D01*
X5007967Y-13700478D02*
X4988920Y-13710001D01*
X4988920Y-13710001D02*
X4969872Y-13710001D01*
X4969872Y-13710001D02*
X4950824Y-13700478D01*
X4950824Y-13700478D02*
X4941301Y-13690954D01*
X4941301Y-13690954D02*
X4931777Y-13671906D01*
X4931777Y-13671906D02*
X4922253Y-13633811D01*
X4922253Y-13633811D02*
X4922253Y-13586192D01*
X4922253Y-13586192D02*
X4931777Y-13548097D01*
X4931777Y-13548097D02*
X4941301Y-13529049D01*
X4941301Y-13529049D02*
X4950824Y-13519525D01*
X4950824Y-13519525D02*
X4969872Y-13510001D01*
X5122253Y-13690954D02*
X5131777Y-13700478D01*
X5131777Y-13700478D02*
X5122253Y-13710001D01*
X5122253Y-13710001D02*
X5112729Y-13700478D01*
X5112729Y-13700478D02*
X5122253Y-13690954D01*
X5122253Y-13690954D02*
X5122253Y-13710001D01*
X5227015Y-13710001D02*
X5265110Y-13710001D01*
X5265110Y-13710001D02*
X5284158Y-13700478D01*
X5284158Y-13700478D02*
X5293682Y-13690954D01*
X5293682Y-13690954D02*
X5312729Y-13662382D01*
X5312729Y-13662382D02*
X5322253Y-13624287D01*
X5322253Y-13624287D02*
X5322253Y-13548097D01*
X5322253Y-13548097D02*
X5312729Y-13529049D01*
X5312729Y-13529049D02*
X5303205Y-13519525D01*
X5303205Y-13519525D02*
X5284158Y-13510001D01*
X5284158Y-13510001D02*
X5246063Y-13510001D01*
X5246063Y-13510001D02*
X5227015Y-13519525D01*
X5227015Y-13519525D02*
X5217491Y-13529049D01*
X5217491Y-13529049D02*
X5207967Y-13548097D01*
X5207967Y-13548097D02*
X5207967Y-13595716D01*
X5207967Y-13595716D02*
X5217491Y-13614763D01*
X5217491Y-13614763D02*
X5227015Y-13624287D01*
X5227015Y-13624287D02*
X5246063Y-13633811D01*
X5246063Y-13633811D02*
X5284158Y-13633811D01*
X5284158Y-13633811D02*
X5303205Y-13624287D01*
X5303205Y-13624287D02*
X5312729Y-13614763D01*
X5312729Y-13614763D02*
X5322253Y-13595716D01*
X5446063Y-13510001D02*
X5465110Y-13510001D01*
X5465110Y-13510001D02*
X5484158Y-13519525D01*
X5484158Y-13519525D02*
X5493682Y-13529049D01*
X5493682Y-13529049D02*
X5503205Y-13548097D01*
X5503205Y-13548097D02*
X5512729Y-13586192D01*
X5512729Y-13586192D02*
X5512729Y-13633811D01*
X5512729Y-13633811D02*
X5503205Y-13671906D01*
X5503205Y-13671906D02*
X5493682Y-13690954D01*
X5493682Y-13690954D02*
X5484158Y-13700478D01*
X5484158Y-13700478D02*
X5465110Y-13710001D01*
X5465110Y-13710001D02*
X5446063Y-13710001D01*
X5446063Y-13710001D02*
X5427015Y-13700478D01*
X5427015Y-13700478D02*
X5417491Y-13690954D01*
X5417491Y-13690954D02*
X5407967Y-13671906D01*
X5407967Y-13671906D02*
X5398444Y-13633811D01*
X5398444Y-13633811D02*
X5398444Y-13586192D01*
X5398444Y-13586192D02*
X5407967Y-13548097D01*
X5407967Y-13548097D02*
X5417491Y-13529049D01*
X5417491Y-13529049D02*
X5427015Y-13519525D01*
X5427015Y-13519525D02*
X5446063Y-13510001D01*
X5636539Y-13510001D02*
X5655586Y-13510001D01*
X5655586Y-13510001D02*
X5674634Y-13519525D01*
X5674634Y-13519525D02*
X5684158Y-13529049D01*
X5684158Y-13529049D02*
X5693682Y-13548097D01*
X5693682Y-13548097D02*
X5703205Y-13586192D01*
X5703205Y-13586192D02*
X5703205Y-13633811D01*
X5703205Y-13633811D02*
X5693682Y-13671906D01*
X5693682Y-13671906D02*
X5684158Y-13690954D01*
X5684158Y-13690954D02*
X5674634Y-13700478D01*
X5674634Y-13700478D02*
X5655586Y-13710001D01*
X5655586Y-13710001D02*
X5636539Y-13710001D01*
X5636539Y-13710001D02*
X5617491Y-13700478D01*
X5617491Y-13700478D02*
X5607967Y-13690954D01*
X5607967Y-13690954D02*
X5598443Y-13671906D01*
X5598443Y-13671906D02*
X5588920Y-13633811D01*
X5588920Y-13633811D02*
X5588920Y-13586192D01*
X5588920Y-13586192D02*
X5598443Y-13548097D01*
X5598443Y-13548097D02*
X5607967Y-13529049D01*
X5607967Y-13529049D02*
X5617491Y-13519525D01*
X5617491Y-13519525D02*
X5636539Y-13510001D01*
X5788920Y-13710001D02*
X5788920Y-13576668D01*
X5788920Y-13595716D02*
X5798443Y-13586192D01*
X5798443Y-13586192D02*
X5817491Y-13576668D01*
X5817491Y-13576668D02*
X5846063Y-13576668D01*
X5846063Y-13576668D02*
X5865110Y-13586192D01*
X5865110Y-13586192D02*
X5874634Y-13605239D01*
X5874634Y-13605239D02*
X5874634Y-13710001D01*
X5874634Y-13605239D02*
X5884158Y-13586192D01*
X5884158Y-13586192D02*
X5903205Y-13576668D01*
X5903205Y-13576668D02*
X5931777Y-13576668D01*
X5931777Y-13576668D02*
X5950824Y-13586192D01*
X5950824Y-13586192D02*
X5960348Y-13605239D01*
X5960348Y-13605239D02*
X5960348Y-13710001D01*
X6055586Y-13710001D02*
X6055586Y-13576668D01*
X6055586Y-13595716D02*
X6065110Y-13586192D01*
X6065110Y-13586192D02*
X6084158Y-13576668D01*
X6084158Y-13576668D02*
X6112729Y-13576668D01*
X6112729Y-13576668D02*
X6131777Y-13586192D01*
X6131777Y-13586192D02*
X6141301Y-13605239D01*
X6141301Y-13605239D02*
X6141301Y-13710001D01*
X6141301Y-13605239D02*
X6150824Y-13586192D01*
X6150824Y-13586192D02*
X6169872Y-13576668D01*
X6169872Y-13576668D02*
X6198443Y-13576668D01*
X6198443Y-13576668D02*
X6217491Y-13586192D01*
X6217491Y-13586192D02*
X6227015Y-13605239D01*
X6227015Y-13605239D02*
X6227015Y-13710001D01*
X6617491Y-13500478D02*
X6446063Y-13757620D01*
X6874634Y-13510001D02*
X6893682Y-13510001D01*
X6893682Y-13510001D02*
X6912729Y-13519525D01*
X6912729Y-13519525D02*
X6922253Y-13529049D01*
X6922253Y-13529049D02*
X6931777Y-13548097D01*
X6931777Y-13548097D02*
X6941301Y-13586192D01*
X6941301Y-13586192D02*
X6941301Y-13633811D01*
X6941301Y-13633811D02*
X6931777Y-13671906D01*
X6931777Y-13671906D02*
X6922253Y-13690954D01*
X6922253Y-13690954D02*
X6912729Y-13700478D01*
X6912729Y-13700478D02*
X6893682Y-13710001D01*
X6893682Y-13710001D02*
X6874634Y-13710001D01*
X6874634Y-13710001D02*
X6855586Y-13700478D01*
X6855586Y-13700478D02*
X6846063Y-13690954D01*
X6846063Y-13690954D02*
X6836539Y-13671906D01*
X6836539Y-13671906D02*
X6827015Y-13633811D01*
X6827015Y-13633811D02*
X6827015Y-13586192D01*
X6827015Y-13586192D02*
X6836539Y-13548097D01*
X6836539Y-13548097D02*
X6846063Y-13529049D01*
X6846063Y-13529049D02*
X6855586Y-13519525D01*
X6855586Y-13519525D02*
X6874634Y-13510001D01*
X7027015Y-13690954D02*
X7036539Y-13700478D01*
X7036539Y-13700478D02*
X7027015Y-13710001D01*
X7027015Y-13710001D02*
X7017491Y-13700478D01*
X7017491Y-13700478D02*
X7027015Y-13690954D01*
X7027015Y-13690954D02*
X7027015Y-13710001D01*
X7160348Y-13510001D02*
X7179396Y-13510001D01*
X7179396Y-13510001D02*
X7198444Y-13519525D01*
X7198444Y-13519525D02*
X7207967Y-13529049D01*
X7207967Y-13529049D02*
X7217491Y-13548097D01*
X7217491Y-13548097D02*
X7227015Y-13586192D01*
X7227015Y-13586192D02*
X7227015Y-13633811D01*
X7227015Y-13633811D02*
X7217491Y-13671906D01*
X7217491Y-13671906D02*
X7207967Y-13690954D01*
X7207967Y-13690954D02*
X7198444Y-13700478D01*
X7198444Y-13700478D02*
X7179396Y-13710001D01*
X7179396Y-13710001D02*
X7160348Y-13710001D01*
X7160348Y-13710001D02*
X7141301Y-13700478D01*
X7141301Y-13700478D02*
X7131777Y-13690954D01*
X7131777Y-13690954D02*
X7122253Y-13671906D01*
X7122253Y-13671906D02*
X7112729Y-13633811D01*
X7112729Y-13633811D02*
X7112729Y-13586192D01*
X7112729Y-13586192D02*
X7122253Y-13548097D01*
X7122253Y-13548097D02*
X7131777Y-13529049D01*
X7131777Y-13529049D02*
X7141301Y-13519525D01*
X7141301Y-13519525D02*
X7160348Y-13510001D01*
X7293682Y-13510001D02*
X7417491Y-13510001D01*
X7417491Y-13510001D02*
X7350825Y-13586192D01*
X7350825Y-13586192D02*
X7379396Y-13586192D01*
X7379396Y-13586192D02*
X7398444Y-13595716D01*
X7398444Y-13595716D02*
X7407967Y-13605239D01*
X7407967Y-13605239D02*
X7417491Y-13624287D01*
X7417491Y-13624287D02*
X7417491Y-13671906D01*
X7417491Y-13671906D02*
X7407967Y-13690954D01*
X7407967Y-13690954D02*
X7398444Y-13700478D01*
X7398444Y-13700478D02*
X7379396Y-13710001D01*
X7379396Y-13710001D02*
X7322253Y-13710001D01*
X7322253Y-13710001D02*
X7303206Y-13700478D01*
X7303206Y-13700478D02*
X7293682Y-13690954D01*
X7598444Y-13510001D02*
X7503206Y-13510001D01*
X7503206Y-13510001D02*
X7493682Y-13605239D01*
X7493682Y-13605239D02*
X7503206Y-13595716D01*
X7503206Y-13595716D02*
X7522253Y-13586192D01*
X7522253Y-13586192D02*
X7569872Y-13586192D01*
X7569872Y-13586192D02*
X7588920Y-13595716D01*
X7588920Y-13595716D02*
X7598444Y-13605239D01*
X7598444Y-13605239D02*
X7607967Y-13624287D01*
X7607967Y-13624287D02*
X7607967Y-13671906D01*
X7607967Y-13671906D02*
X7598444Y-13690954D01*
X7598444Y-13690954D02*
X7588920Y-13700478D01*
X7588920Y-13700478D02*
X7569872Y-13710001D01*
X7569872Y-13710001D02*
X7522253Y-13710001D01*
X7522253Y-13710001D02*
X7503206Y-13700478D01*
X7503206Y-13700478D02*
X7493682Y-13690954D01*
X7779396Y-13576668D02*
X7779396Y-13710001D01*
X7731777Y-13500478D02*
X7684158Y-13643335D01*
X7684158Y-13643335D02*
X7807967Y-13643335D01*
X7874634Y-13510001D02*
X7874634Y-13548097D01*
X7950825Y-13510001D02*
X7950825Y-13548097D01*
X8246063Y-13786192D02*
X8236539Y-13776668D01*
X8236539Y-13776668D02*
X8217491Y-13748097D01*
X8217491Y-13748097D02*
X8207968Y-13729049D01*
X8207968Y-13729049D02*
X8198444Y-13700478D01*
X8198444Y-13700478D02*
X8188920Y-13652858D01*
X8188920Y-13652858D02*
X8188920Y-13614763D01*
X8188920Y-13614763D02*
X8198444Y-13567144D01*
X8198444Y-13567144D02*
X8207968Y-13538573D01*
X8207968Y-13538573D02*
X8217491Y-13519525D01*
X8217491Y-13519525D02*
X8236539Y-13490954D01*
X8236539Y-13490954D02*
X8246063Y-13481430D01*
X8312729Y-13529049D02*
X8322253Y-13519525D01*
X8322253Y-13519525D02*
X8341301Y-13510001D01*
X8341301Y-13510001D02*
X8388920Y-13510001D01*
X8388920Y-13510001D02*
X8407968Y-13519525D01*
X8407968Y-13519525D02*
X8417491Y-13529049D01*
X8417491Y-13529049D02*
X8427015Y-13548097D01*
X8427015Y-13548097D02*
X8427015Y-13567144D01*
X8427015Y-13567144D02*
X8417491Y-13595716D01*
X8417491Y-13595716D02*
X8303206Y-13710001D01*
X8303206Y-13710001D02*
X8427015Y-13710001D01*
X8665111Y-13710001D02*
X8665111Y-13510001D01*
X8750825Y-13710001D02*
X8750825Y-13605239D01*
X8750825Y-13605239D02*
X8741301Y-13586192D01*
X8741301Y-13586192D02*
X8722253Y-13576668D01*
X8722253Y-13576668D02*
X8693682Y-13576668D01*
X8693682Y-13576668D02*
X8674634Y-13586192D01*
X8674634Y-13586192D02*
X8665111Y-13595716D01*
X8874634Y-13710001D02*
X8855587Y-13700478D01*
X8855587Y-13700478D02*
X8846063Y-13690954D01*
X8846063Y-13690954D02*
X8836539Y-13671906D01*
X8836539Y-13671906D02*
X8836539Y-13614763D01*
X8836539Y-13614763D02*
X8846063Y-13595716D01*
X8846063Y-13595716D02*
X8855587Y-13586192D01*
X8855587Y-13586192D02*
X8874634Y-13576668D01*
X8874634Y-13576668D02*
X8903206Y-13576668D01*
X8903206Y-13576668D02*
X8922253Y-13586192D01*
X8922253Y-13586192D02*
X8931777Y-13595716D01*
X8931777Y-13595716D02*
X8941301Y-13614763D01*
X8941301Y-13614763D02*
X8941301Y-13671906D01*
X8941301Y-13671906D02*
X8931777Y-13690954D01*
X8931777Y-13690954D02*
X8922253Y-13700478D01*
X8922253Y-13700478D02*
X8903206Y-13710001D01*
X8903206Y-13710001D02*
X8874634Y-13710001D01*
X9055587Y-13710001D02*
X9036539Y-13700478D01*
X9036539Y-13700478D02*
X9027015Y-13681430D01*
X9027015Y-13681430D02*
X9027015Y-13510001D01*
X9207968Y-13700478D02*
X9188920Y-13710001D01*
X9188920Y-13710001D02*
X9150825Y-13710001D01*
X9150825Y-13710001D02*
X9131777Y-13700478D01*
X9131777Y-13700478D02*
X9122253Y-13681430D01*
X9122253Y-13681430D02*
X9122253Y-13605239D01*
X9122253Y-13605239D02*
X9131777Y-13586192D01*
X9131777Y-13586192D02*
X9150825Y-13576668D01*
X9150825Y-13576668D02*
X9188920Y-13576668D01*
X9188920Y-13576668D02*
X9207968Y-13586192D01*
X9207968Y-13586192D02*
X9217492Y-13605239D01*
X9217492Y-13605239D02*
X9217492Y-13624287D01*
X9217492Y-13624287D02*
X9122253Y-13643335D01*
X9293682Y-13700478D02*
X9312730Y-13710001D01*
X9312730Y-13710001D02*
X9350825Y-13710001D01*
X9350825Y-13710001D02*
X9369873Y-13700478D01*
X9369873Y-13700478D02*
X9379396Y-13681430D01*
X9379396Y-13681430D02*
X9379396Y-13671906D01*
X9379396Y-13671906D02*
X9369873Y-13652858D01*
X9369873Y-13652858D02*
X9350825Y-13643335D01*
X9350825Y-13643335D02*
X9322253Y-13643335D01*
X9322253Y-13643335D02*
X9303206Y-13633811D01*
X9303206Y-13633811D02*
X9293682Y-13614763D01*
X9293682Y-13614763D02*
X9293682Y-13605239D01*
X9293682Y-13605239D02*
X9303206Y-13586192D01*
X9303206Y-13586192D02*
X9322253Y-13576668D01*
X9322253Y-13576668D02*
X9350825Y-13576668D01*
X9350825Y-13576668D02*
X9369873Y-13586192D01*
X9446063Y-13786192D02*
X9455587Y-13776668D01*
X9455587Y-13776668D02*
X9474634Y-13748097D01*
X9474634Y-13748097D02*
X9484158Y-13729049D01*
X9484158Y-13729049D02*
X9493682Y-13700478D01*
X9493682Y-13700478D02*
X9503206Y-13652858D01*
X9503206Y-13652858D02*
X9503206Y-13614763D01*
X9503206Y-13614763D02*
X9493682Y-13567144D01*
X9493682Y-13567144D02*
X9484158Y-13538573D01*
X9484158Y-13538573D02*
X9474634Y-13519525D01*
X9474634Y-13519525D02*
X9455587Y-13490954D01*
X9455587Y-13490954D02*
X9446063Y-13481430D01*
D12*
X4621000Y-13932518D02*
X4671000Y-13882518D01*
X4621000Y-13832518D01*
X4571000Y-13882518D01*
X4621000Y-13932518D01*
D11*
X5036539Y-13974001D02*
X4922253Y-13974001D01*
X4979396Y-13974001D02*
X4979396Y-13774001D01*
X4979396Y-13774001D02*
X4960348Y-13802573D01*
X4960348Y-13802573D02*
X4941301Y-13821620D01*
X4941301Y-13821620D02*
X4922253Y-13831144D01*
X5122253Y-13954954D02*
X5131777Y-13964478D01*
X5131777Y-13964478D02*
X5122253Y-13974001D01*
X5122253Y-13974001D02*
X5112729Y-13964478D01*
X5112729Y-13964478D02*
X5122253Y-13954954D01*
X5122253Y-13954954D02*
X5122253Y-13974001D01*
X5255586Y-13774001D02*
X5274634Y-13774001D01*
X5274634Y-13774001D02*
X5293682Y-13783525D01*
X5293682Y-13783525D02*
X5303205Y-13793049D01*
X5303205Y-13793049D02*
X5312729Y-13812097D01*
X5312729Y-13812097D02*
X5322253Y-13850192D01*
X5322253Y-13850192D02*
X5322253Y-13897811D01*
X5322253Y-13897811D02*
X5312729Y-13935906D01*
X5312729Y-13935906D02*
X5303205Y-13954954D01*
X5303205Y-13954954D02*
X5293682Y-13964478D01*
X5293682Y-13964478D02*
X5274634Y-13974001D01*
X5274634Y-13974001D02*
X5255586Y-13974001D01*
X5255586Y-13974001D02*
X5236539Y-13964478D01*
X5236539Y-13964478D02*
X5227015Y-13954954D01*
X5227015Y-13954954D02*
X5217491Y-13935906D01*
X5217491Y-13935906D02*
X5207967Y-13897811D01*
X5207967Y-13897811D02*
X5207967Y-13850192D01*
X5207967Y-13850192D02*
X5217491Y-13812097D01*
X5217491Y-13812097D02*
X5227015Y-13793049D01*
X5227015Y-13793049D02*
X5236539Y-13783525D01*
X5236539Y-13783525D02*
X5255586Y-13774001D01*
X5446063Y-13774001D02*
X5465110Y-13774001D01*
X5465110Y-13774001D02*
X5484158Y-13783525D01*
X5484158Y-13783525D02*
X5493682Y-13793049D01*
X5493682Y-13793049D02*
X5503205Y-13812097D01*
X5503205Y-13812097D02*
X5512729Y-13850192D01*
X5512729Y-13850192D02*
X5512729Y-13897811D01*
X5512729Y-13897811D02*
X5503205Y-13935906D01*
X5503205Y-13935906D02*
X5493682Y-13954954D01*
X5493682Y-13954954D02*
X5484158Y-13964478D01*
X5484158Y-13964478D02*
X5465110Y-13974001D01*
X5465110Y-13974001D02*
X5446063Y-13974001D01*
X5446063Y-13974001D02*
X5427015Y-13964478D01*
X5427015Y-13964478D02*
X5417491Y-13954954D01*
X5417491Y-13954954D02*
X5407967Y-13935906D01*
X5407967Y-13935906D02*
X5398444Y-13897811D01*
X5398444Y-13897811D02*
X5398444Y-13850192D01*
X5398444Y-13850192D02*
X5407967Y-13812097D01*
X5407967Y-13812097D02*
X5417491Y-13793049D01*
X5417491Y-13793049D02*
X5427015Y-13783525D01*
X5427015Y-13783525D02*
X5446063Y-13774001D01*
X5636539Y-13774001D02*
X5655586Y-13774001D01*
X5655586Y-13774001D02*
X5674634Y-13783525D01*
X5674634Y-13783525D02*
X5684158Y-13793049D01*
X5684158Y-13793049D02*
X5693682Y-13812097D01*
X5693682Y-13812097D02*
X5703205Y-13850192D01*
X5703205Y-13850192D02*
X5703205Y-13897811D01*
X5703205Y-13897811D02*
X5693682Y-13935906D01*
X5693682Y-13935906D02*
X5684158Y-13954954D01*
X5684158Y-13954954D02*
X5674634Y-13964478D01*
X5674634Y-13964478D02*
X5655586Y-13974001D01*
X5655586Y-13974001D02*
X5636539Y-13974001D01*
X5636539Y-13974001D02*
X5617491Y-13964478D01*
X5617491Y-13964478D02*
X5607967Y-13954954D01*
X5607967Y-13954954D02*
X5598443Y-13935906D01*
X5598443Y-13935906D02*
X5588920Y-13897811D01*
X5588920Y-13897811D02*
X5588920Y-13850192D01*
X5588920Y-13850192D02*
X5598443Y-13812097D01*
X5598443Y-13812097D02*
X5607967Y-13793049D01*
X5607967Y-13793049D02*
X5617491Y-13783525D01*
X5617491Y-13783525D02*
X5636539Y-13774001D01*
X5788920Y-13974001D02*
X5788920Y-13840668D01*
X5788920Y-13859716D02*
X5798443Y-13850192D01*
X5798443Y-13850192D02*
X5817491Y-13840668D01*
X5817491Y-13840668D02*
X5846063Y-13840668D01*
X5846063Y-13840668D02*
X5865110Y-13850192D01*
X5865110Y-13850192D02*
X5874634Y-13869239D01*
X5874634Y-13869239D02*
X5874634Y-13974001D01*
X5874634Y-13869239D02*
X5884158Y-13850192D01*
X5884158Y-13850192D02*
X5903205Y-13840668D01*
X5903205Y-13840668D02*
X5931777Y-13840668D01*
X5931777Y-13840668D02*
X5950824Y-13850192D01*
X5950824Y-13850192D02*
X5960348Y-13869239D01*
X5960348Y-13869239D02*
X5960348Y-13974001D01*
X6055586Y-13974001D02*
X6055586Y-13840668D01*
X6055586Y-13859716D02*
X6065110Y-13850192D01*
X6065110Y-13850192D02*
X6084158Y-13840668D01*
X6084158Y-13840668D02*
X6112729Y-13840668D01*
X6112729Y-13840668D02*
X6131777Y-13850192D01*
X6131777Y-13850192D02*
X6141301Y-13869239D01*
X6141301Y-13869239D02*
X6141301Y-13974001D01*
X6141301Y-13869239D02*
X6150824Y-13850192D01*
X6150824Y-13850192D02*
X6169872Y-13840668D01*
X6169872Y-13840668D02*
X6198443Y-13840668D01*
X6198443Y-13840668D02*
X6217491Y-13850192D01*
X6217491Y-13850192D02*
X6227015Y-13869239D01*
X6227015Y-13869239D02*
X6227015Y-13974001D01*
X6617491Y-13764478D02*
X6446063Y-14021620D01*
X6874634Y-13774001D02*
X6893682Y-13774001D01*
X6893682Y-13774001D02*
X6912729Y-13783525D01*
X6912729Y-13783525D02*
X6922253Y-13793049D01*
X6922253Y-13793049D02*
X6931777Y-13812097D01*
X6931777Y-13812097D02*
X6941301Y-13850192D01*
X6941301Y-13850192D02*
X6941301Y-13897811D01*
X6941301Y-13897811D02*
X6931777Y-13935906D01*
X6931777Y-13935906D02*
X6922253Y-13954954D01*
X6922253Y-13954954D02*
X6912729Y-13964478D01*
X6912729Y-13964478D02*
X6893682Y-13974001D01*
X6893682Y-13974001D02*
X6874634Y-13974001D01*
X6874634Y-13974001D02*
X6855586Y-13964478D01*
X6855586Y-13964478D02*
X6846063Y-13954954D01*
X6846063Y-13954954D02*
X6836539Y-13935906D01*
X6836539Y-13935906D02*
X6827015Y-13897811D01*
X6827015Y-13897811D02*
X6827015Y-13850192D01*
X6827015Y-13850192D02*
X6836539Y-13812097D01*
X6836539Y-13812097D02*
X6846063Y-13793049D01*
X6846063Y-13793049D02*
X6855586Y-13783525D01*
X6855586Y-13783525D02*
X6874634Y-13774001D01*
X7027015Y-13954954D02*
X7036539Y-13964478D01*
X7036539Y-13964478D02*
X7027015Y-13974001D01*
X7027015Y-13974001D02*
X7017491Y-13964478D01*
X7017491Y-13964478D02*
X7027015Y-13954954D01*
X7027015Y-13954954D02*
X7027015Y-13974001D01*
X7160348Y-13774001D02*
X7179396Y-13774001D01*
X7179396Y-13774001D02*
X7198444Y-13783525D01*
X7198444Y-13783525D02*
X7207967Y-13793049D01*
X7207967Y-13793049D02*
X7217491Y-13812097D01*
X7217491Y-13812097D02*
X7227015Y-13850192D01*
X7227015Y-13850192D02*
X7227015Y-13897811D01*
X7227015Y-13897811D02*
X7217491Y-13935906D01*
X7217491Y-13935906D02*
X7207967Y-13954954D01*
X7207967Y-13954954D02*
X7198444Y-13964478D01*
X7198444Y-13964478D02*
X7179396Y-13974001D01*
X7179396Y-13974001D02*
X7160348Y-13974001D01*
X7160348Y-13974001D02*
X7141301Y-13964478D01*
X7141301Y-13964478D02*
X7131777Y-13954954D01*
X7131777Y-13954954D02*
X7122253Y-13935906D01*
X7122253Y-13935906D02*
X7112729Y-13897811D01*
X7112729Y-13897811D02*
X7112729Y-13850192D01*
X7112729Y-13850192D02*
X7122253Y-13812097D01*
X7122253Y-13812097D02*
X7131777Y-13793049D01*
X7131777Y-13793049D02*
X7141301Y-13783525D01*
X7141301Y-13783525D02*
X7160348Y-13774001D01*
X7293682Y-13774001D02*
X7417491Y-13774001D01*
X7417491Y-13774001D02*
X7350825Y-13850192D01*
X7350825Y-13850192D02*
X7379396Y-13850192D01*
X7379396Y-13850192D02*
X7398444Y-13859716D01*
X7398444Y-13859716D02*
X7407967Y-13869239D01*
X7407967Y-13869239D02*
X7417491Y-13888287D01*
X7417491Y-13888287D02*
X7417491Y-13935906D01*
X7417491Y-13935906D02*
X7407967Y-13954954D01*
X7407967Y-13954954D02*
X7398444Y-13964478D01*
X7398444Y-13964478D02*
X7379396Y-13974001D01*
X7379396Y-13974001D02*
X7322253Y-13974001D01*
X7322253Y-13974001D02*
X7303206Y-13964478D01*
X7303206Y-13964478D02*
X7293682Y-13954954D01*
X7512729Y-13974001D02*
X7550825Y-13974001D01*
X7550825Y-13974001D02*
X7569872Y-13964478D01*
X7569872Y-13964478D02*
X7579396Y-13954954D01*
X7579396Y-13954954D02*
X7598444Y-13926382D01*
X7598444Y-13926382D02*
X7607967Y-13888287D01*
X7607967Y-13888287D02*
X7607967Y-13812097D01*
X7607967Y-13812097D02*
X7598444Y-13793049D01*
X7598444Y-13793049D02*
X7588920Y-13783525D01*
X7588920Y-13783525D02*
X7569872Y-13774001D01*
X7569872Y-13774001D02*
X7531777Y-13774001D01*
X7531777Y-13774001D02*
X7512729Y-13783525D01*
X7512729Y-13783525D02*
X7503206Y-13793049D01*
X7503206Y-13793049D02*
X7493682Y-13812097D01*
X7493682Y-13812097D02*
X7493682Y-13859716D01*
X7493682Y-13859716D02*
X7503206Y-13878763D01*
X7503206Y-13878763D02*
X7512729Y-13888287D01*
X7512729Y-13888287D02*
X7531777Y-13897811D01*
X7531777Y-13897811D02*
X7569872Y-13897811D01*
X7569872Y-13897811D02*
X7588920Y-13888287D01*
X7588920Y-13888287D02*
X7598444Y-13878763D01*
X7598444Y-13878763D02*
X7607967Y-13859716D01*
X7779396Y-13840668D02*
X7779396Y-13974001D01*
X7731777Y-13764478D02*
X7684158Y-13907335D01*
X7684158Y-13907335D02*
X7807967Y-13907335D01*
X7874634Y-13774001D02*
X7874634Y-13812097D01*
X7950825Y-13774001D02*
X7950825Y-13812097D01*
X8246063Y-14050192D02*
X8236539Y-14040668D01*
X8236539Y-14040668D02*
X8217491Y-14012097D01*
X8217491Y-14012097D02*
X8207968Y-13993049D01*
X8207968Y-13993049D02*
X8198444Y-13964478D01*
X8198444Y-13964478D02*
X8188920Y-13916858D01*
X8188920Y-13916858D02*
X8188920Y-13878763D01*
X8188920Y-13878763D02*
X8198444Y-13831144D01*
X8198444Y-13831144D02*
X8207968Y-13802573D01*
X8207968Y-13802573D02*
X8217491Y-13783525D01*
X8217491Y-13783525D02*
X8236539Y-13754954D01*
X8236539Y-13754954D02*
X8246063Y-13745430D01*
X8350825Y-13859716D02*
X8331777Y-13850192D01*
X8331777Y-13850192D02*
X8322253Y-13840668D01*
X8322253Y-13840668D02*
X8312729Y-13821620D01*
X8312729Y-13821620D02*
X8312729Y-13812097D01*
X8312729Y-13812097D02*
X8322253Y-13793049D01*
X8322253Y-13793049D02*
X8331777Y-13783525D01*
X8331777Y-13783525D02*
X8350825Y-13774001D01*
X8350825Y-13774001D02*
X8388920Y-13774001D01*
X8388920Y-13774001D02*
X8407968Y-13783525D01*
X8407968Y-13783525D02*
X8417491Y-13793049D01*
X8417491Y-13793049D02*
X8427015Y-13812097D01*
X8427015Y-13812097D02*
X8427015Y-13821620D01*
X8427015Y-13821620D02*
X8417491Y-13840668D01*
X8417491Y-13840668D02*
X8407968Y-13850192D01*
X8407968Y-13850192D02*
X8388920Y-13859716D01*
X8388920Y-13859716D02*
X8350825Y-13859716D01*
X8350825Y-13859716D02*
X8331777Y-13869239D01*
X8331777Y-13869239D02*
X8322253Y-13878763D01*
X8322253Y-13878763D02*
X8312729Y-13897811D01*
X8312729Y-13897811D02*
X8312729Y-13935906D01*
X8312729Y-13935906D02*
X8322253Y-13954954D01*
X8322253Y-13954954D02*
X8331777Y-13964478D01*
X8331777Y-13964478D02*
X8350825Y-13974001D01*
X8350825Y-13974001D02*
X8388920Y-13974001D01*
X8388920Y-13974001D02*
X8407968Y-13964478D01*
X8407968Y-13964478D02*
X8417491Y-13954954D01*
X8417491Y-13954954D02*
X8427015Y-13935906D01*
X8427015Y-13935906D02*
X8427015Y-13897811D01*
X8427015Y-13897811D02*
X8417491Y-13878763D01*
X8417491Y-13878763D02*
X8407968Y-13869239D01*
X8407968Y-13869239D02*
X8388920Y-13859716D01*
X8598444Y-13840668D02*
X8598444Y-13974001D01*
X8550825Y-13764478D02*
X8503206Y-13907335D01*
X8503206Y-13907335D02*
X8627015Y-13907335D01*
X8855587Y-13974001D02*
X8855587Y-13774001D01*
X8941301Y-13974001D02*
X8941301Y-13869239D01*
X8941301Y-13869239D02*
X8931777Y-13850192D01*
X8931777Y-13850192D02*
X8912730Y-13840668D01*
X8912730Y-13840668D02*
X8884158Y-13840668D01*
X8884158Y-13840668D02*
X8865111Y-13850192D01*
X8865111Y-13850192D02*
X8855587Y-13859716D01*
X9065111Y-13974001D02*
X9046063Y-13964478D01*
X9046063Y-13964478D02*
X9036539Y-13954954D01*
X9036539Y-13954954D02*
X9027015Y-13935906D01*
X9027015Y-13935906D02*
X9027015Y-13878763D01*
X9027015Y-13878763D02*
X9036539Y-13859716D01*
X9036539Y-13859716D02*
X9046063Y-13850192D01*
X9046063Y-13850192D02*
X9065111Y-13840668D01*
X9065111Y-13840668D02*
X9093682Y-13840668D01*
X9093682Y-13840668D02*
X9112730Y-13850192D01*
X9112730Y-13850192D02*
X9122253Y-13859716D01*
X9122253Y-13859716D02*
X9131777Y-13878763D01*
X9131777Y-13878763D02*
X9131777Y-13935906D01*
X9131777Y-13935906D02*
X9122253Y-13954954D01*
X9122253Y-13954954D02*
X9112730Y-13964478D01*
X9112730Y-13964478D02*
X9093682Y-13974001D01*
X9093682Y-13974001D02*
X9065111Y-13974001D01*
X9246063Y-13974001D02*
X9227015Y-13964478D01*
X9227015Y-13964478D02*
X9217492Y-13945430D01*
X9217492Y-13945430D02*
X9217492Y-13774001D01*
X9398444Y-13964478D02*
X9379396Y-13974001D01*
X9379396Y-13974001D02*
X9341301Y-13974001D01*
X9341301Y-13974001D02*
X9322253Y-13964478D01*
X9322253Y-13964478D02*
X9312730Y-13945430D01*
X9312730Y-13945430D02*
X9312730Y-13869239D01*
X9312730Y-13869239D02*
X9322253Y-13850192D01*
X9322253Y-13850192D02*
X9341301Y-13840668D01*
X9341301Y-13840668D02*
X9379396Y-13840668D01*
X9379396Y-13840668D02*
X9398444Y-13850192D01*
X9398444Y-13850192D02*
X9407968Y-13869239D01*
X9407968Y-13869239D02*
X9407968Y-13888287D01*
X9407968Y-13888287D02*
X9312730Y-13907335D01*
X9484158Y-13964478D02*
X9503206Y-13974001D01*
X9503206Y-13974001D02*
X9541301Y-13974001D01*
X9541301Y-13974001D02*
X9560349Y-13964478D01*
X9560349Y-13964478D02*
X9569873Y-13945430D01*
X9569873Y-13945430D02*
X9569873Y-13935906D01*
X9569873Y-13935906D02*
X9560349Y-13916858D01*
X9560349Y-13916858D02*
X9541301Y-13907335D01*
X9541301Y-13907335D02*
X9512730Y-13907335D01*
X9512730Y-13907335D02*
X9493682Y-13897811D01*
X9493682Y-13897811D02*
X9484158Y-13878763D01*
X9484158Y-13878763D02*
X9484158Y-13869239D01*
X9484158Y-13869239D02*
X9493682Y-13850192D01*
X9493682Y-13850192D02*
X9512730Y-13840668D01*
X9512730Y-13840668D02*
X9541301Y-13840668D01*
X9541301Y-13840668D02*
X9560349Y-13850192D01*
X9636539Y-14050192D02*
X9646063Y-14040668D01*
X9646063Y-14040668D02*
X9665111Y-14012097D01*
X9665111Y-14012097D02*
X9674634Y-13993049D01*
X9674634Y-13993049D02*
X9684158Y-13964478D01*
X9684158Y-13964478D02*
X9693682Y-13916858D01*
X9693682Y-13916858D02*
X9693682Y-13878763D01*
X9693682Y-13878763D02*
X9684158Y-13831144D01*
X9684158Y-13831144D02*
X9674634Y-13802573D01*
X9674634Y-13802573D02*
X9665111Y-13783525D01*
X9665111Y-13783525D02*
X9646063Y-13754954D01*
X9646063Y-13754954D02*
X9636539Y-13745430D01*
D13*
X4561000Y-14091518D02*
X4671000Y-14201518D01*
X4671000Y-14091518D02*
X4561000Y-14201518D01*
X4671000Y-14146518D02*
G75*
G02*
X4561000Y-14146518I-55000J0D01*
G01*
X4561000Y-14146518D02*
G75*
G02*
X4671000Y-14146518I55000J0D01*
G01*
D11*
X5036539Y-14238001D02*
X4922253Y-14238001D01*
X4979396Y-14238001D02*
X4979396Y-14038001D01*
X4979396Y-14038001D02*
X4960348Y-14066573D01*
X4960348Y-14066573D02*
X4941301Y-14085620D01*
X4941301Y-14085620D02*
X4922253Y-14095144D01*
X5122253Y-14218954D02*
X5131777Y-14228478D01*
X5131777Y-14228478D02*
X5122253Y-14238001D01*
X5122253Y-14238001D02*
X5112729Y-14228478D01*
X5112729Y-14228478D02*
X5122253Y-14218954D01*
X5122253Y-14218954D02*
X5122253Y-14238001D01*
X5322253Y-14238001D02*
X5207967Y-14238001D01*
X5265110Y-14238001D02*
X5265110Y-14038001D01*
X5265110Y-14038001D02*
X5246063Y-14066573D01*
X5246063Y-14066573D02*
X5227015Y-14085620D01*
X5227015Y-14085620D02*
X5207967Y-14095144D01*
X5446063Y-14038001D02*
X5465110Y-14038001D01*
X5465110Y-14038001D02*
X5484158Y-14047525D01*
X5484158Y-14047525D02*
X5493682Y-14057049D01*
X5493682Y-14057049D02*
X5503205Y-14076097D01*
X5503205Y-14076097D02*
X5512729Y-14114192D01*
X5512729Y-14114192D02*
X5512729Y-14161811D01*
X5512729Y-14161811D02*
X5503205Y-14199906D01*
X5503205Y-14199906D02*
X5493682Y-14218954D01*
X5493682Y-14218954D02*
X5484158Y-14228478D01*
X5484158Y-14228478D02*
X5465110Y-14238001D01*
X5465110Y-14238001D02*
X5446063Y-14238001D01*
X5446063Y-14238001D02*
X5427015Y-14228478D01*
X5427015Y-14228478D02*
X5417491Y-14218954D01*
X5417491Y-14218954D02*
X5407967Y-14199906D01*
X5407967Y-14199906D02*
X5398444Y-14161811D01*
X5398444Y-14161811D02*
X5398444Y-14114192D01*
X5398444Y-14114192D02*
X5407967Y-14076097D01*
X5407967Y-14076097D02*
X5417491Y-14057049D01*
X5417491Y-14057049D02*
X5427015Y-14047525D01*
X5427015Y-14047525D02*
X5446063Y-14038001D01*
X5636539Y-14038001D02*
X5655586Y-14038001D01*
X5655586Y-14038001D02*
X5674634Y-14047525D01*
X5674634Y-14047525D02*
X5684158Y-14057049D01*
X5684158Y-14057049D02*
X5693682Y-14076097D01*
X5693682Y-14076097D02*
X5703205Y-14114192D01*
X5703205Y-14114192D02*
X5703205Y-14161811D01*
X5703205Y-14161811D02*
X5693682Y-14199906D01*
X5693682Y-14199906D02*
X5684158Y-14218954D01*
X5684158Y-14218954D02*
X5674634Y-14228478D01*
X5674634Y-14228478D02*
X5655586Y-14238001D01*
X5655586Y-14238001D02*
X5636539Y-14238001D01*
X5636539Y-14238001D02*
X5617491Y-14228478D01*
X5617491Y-14228478D02*
X5607967Y-14218954D01*
X5607967Y-14218954D02*
X5598443Y-14199906D01*
X5598443Y-14199906D02*
X5588920Y-14161811D01*
X5588920Y-14161811D02*
X5588920Y-14114192D01*
X5588920Y-14114192D02*
X5598443Y-14076097D01*
X5598443Y-14076097D02*
X5607967Y-14057049D01*
X5607967Y-14057049D02*
X5617491Y-14047525D01*
X5617491Y-14047525D02*
X5636539Y-14038001D01*
X5788920Y-14238001D02*
X5788920Y-14104668D01*
X5788920Y-14123716D02*
X5798443Y-14114192D01*
X5798443Y-14114192D02*
X5817491Y-14104668D01*
X5817491Y-14104668D02*
X5846063Y-14104668D01*
X5846063Y-14104668D02*
X5865110Y-14114192D01*
X5865110Y-14114192D02*
X5874634Y-14133239D01*
X5874634Y-14133239D02*
X5874634Y-14238001D01*
X5874634Y-14133239D02*
X5884158Y-14114192D01*
X5884158Y-14114192D02*
X5903205Y-14104668D01*
X5903205Y-14104668D02*
X5931777Y-14104668D01*
X5931777Y-14104668D02*
X5950824Y-14114192D01*
X5950824Y-14114192D02*
X5960348Y-14133239D01*
X5960348Y-14133239D02*
X5960348Y-14238001D01*
X6055586Y-14238001D02*
X6055586Y-14104668D01*
X6055586Y-14123716D02*
X6065110Y-14114192D01*
X6065110Y-14114192D02*
X6084158Y-14104668D01*
X6084158Y-14104668D02*
X6112729Y-14104668D01*
X6112729Y-14104668D02*
X6131777Y-14114192D01*
X6131777Y-14114192D02*
X6141301Y-14133239D01*
X6141301Y-14133239D02*
X6141301Y-14238001D01*
X6141301Y-14133239D02*
X6150824Y-14114192D01*
X6150824Y-14114192D02*
X6169872Y-14104668D01*
X6169872Y-14104668D02*
X6198443Y-14104668D01*
X6198443Y-14104668D02*
X6217491Y-14114192D01*
X6217491Y-14114192D02*
X6227015Y-14133239D01*
X6227015Y-14133239D02*
X6227015Y-14238001D01*
X6617491Y-14028478D02*
X6446063Y-14285620D01*
X6874634Y-14038001D02*
X6893682Y-14038001D01*
X6893682Y-14038001D02*
X6912729Y-14047525D01*
X6912729Y-14047525D02*
X6922253Y-14057049D01*
X6922253Y-14057049D02*
X6931777Y-14076097D01*
X6931777Y-14076097D02*
X6941301Y-14114192D01*
X6941301Y-14114192D02*
X6941301Y-14161811D01*
X6941301Y-14161811D02*
X6931777Y-14199906D01*
X6931777Y-14199906D02*
X6922253Y-14218954D01*
X6922253Y-14218954D02*
X6912729Y-14228478D01*
X6912729Y-14228478D02*
X6893682Y-14238001D01*
X6893682Y-14238001D02*
X6874634Y-14238001D01*
X6874634Y-14238001D02*
X6855586Y-14228478D01*
X6855586Y-14228478D02*
X6846063Y-14218954D01*
X6846063Y-14218954D02*
X6836539Y-14199906D01*
X6836539Y-14199906D02*
X6827015Y-14161811D01*
X6827015Y-14161811D02*
X6827015Y-14114192D01*
X6827015Y-14114192D02*
X6836539Y-14076097D01*
X6836539Y-14076097D02*
X6846063Y-14057049D01*
X6846063Y-14057049D02*
X6855586Y-14047525D01*
X6855586Y-14047525D02*
X6874634Y-14038001D01*
X7027015Y-14218954D02*
X7036539Y-14228478D01*
X7036539Y-14228478D02*
X7027015Y-14238001D01*
X7027015Y-14238001D02*
X7017491Y-14228478D01*
X7017491Y-14228478D02*
X7027015Y-14218954D01*
X7027015Y-14218954D02*
X7027015Y-14238001D01*
X7160348Y-14038001D02*
X7179396Y-14038001D01*
X7179396Y-14038001D02*
X7198444Y-14047525D01*
X7198444Y-14047525D02*
X7207967Y-14057049D01*
X7207967Y-14057049D02*
X7217491Y-14076097D01*
X7217491Y-14076097D02*
X7227015Y-14114192D01*
X7227015Y-14114192D02*
X7227015Y-14161811D01*
X7227015Y-14161811D02*
X7217491Y-14199906D01*
X7217491Y-14199906D02*
X7207967Y-14218954D01*
X7207967Y-14218954D02*
X7198444Y-14228478D01*
X7198444Y-14228478D02*
X7179396Y-14238001D01*
X7179396Y-14238001D02*
X7160348Y-14238001D01*
X7160348Y-14238001D02*
X7141301Y-14228478D01*
X7141301Y-14228478D02*
X7131777Y-14218954D01*
X7131777Y-14218954D02*
X7122253Y-14199906D01*
X7122253Y-14199906D02*
X7112729Y-14161811D01*
X7112729Y-14161811D02*
X7112729Y-14114192D01*
X7112729Y-14114192D02*
X7122253Y-14076097D01*
X7122253Y-14076097D02*
X7131777Y-14057049D01*
X7131777Y-14057049D02*
X7141301Y-14047525D01*
X7141301Y-14047525D02*
X7160348Y-14038001D01*
X7398444Y-14104668D02*
X7398444Y-14238001D01*
X7350825Y-14028478D02*
X7303206Y-14171335D01*
X7303206Y-14171335D02*
X7427015Y-14171335D01*
X7484158Y-14038001D02*
X7607967Y-14038001D01*
X7607967Y-14038001D02*
X7541301Y-14114192D01*
X7541301Y-14114192D02*
X7569872Y-14114192D01*
X7569872Y-14114192D02*
X7588920Y-14123716D01*
X7588920Y-14123716D02*
X7598444Y-14133239D01*
X7598444Y-14133239D02*
X7607967Y-14152287D01*
X7607967Y-14152287D02*
X7607967Y-14199906D01*
X7607967Y-14199906D02*
X7598444Y-14218954D01*
X7598444Y-14218954D02*
X7588920Y-14228478D01*
X7588920Y-14228478D02*
X7569872Y-14238001D01*
X7569872Y-14238001D02*
X7512729Y-14238001D01*
X7512729Y-14238001D02*
X7493682Y-14228478D01*
X7493682Y-14228478D02*
X7484158Y-14218954D01*
X7674634Y-14038001D02*
X7798444Y-14038001D01*
X7798444Y-14038001D02*
X7731777Y-14114192D01*
X7731777Y-14114192D02*
X7760348Y-14114192D01*
X7760348Y-14114192D02*
X7779396Y-14123716D01*
X7779396Y-14123716D02*
X7788920Y-14133239D01*
X7788920Y-14133239D02*
X7798444Y-14152287D01*
X7798444Y-14152287D02*
X7798444Y-14199906D01*
X7798444Y-14199906D02*
X7788920Y-14218954D01*
X7788920Y-14218954D02*
X7779396Y-14228478D01*
X7779396Y-14228478D02*
X7760348Y-14238001D01*
X7760348Y-14238001D02*
X7703206Y-14238001D01*
X7703206Y-14238001D02*
X7684158Y-14228478D01*
X7684158Y-14228478D02*
X7674634Y-14218954D01*
X7874634Y-14038001D02*
X7874634Y-14076097D01*
X7950825Y-14038001D02*
X7950825Y-14076097D01*
X8246063Y-14314192D02*
X8236539Y-14304668D01*
X8236539Y-14304668D02*
X8217491Y-14276097D01*
X8217491Y-14276097D02*
X8207968Y-14257049D01*
X8207968Y-14257049D02*
X8198444Y-14228478D01*
X8198444Y-14228478D02*
X8188920Y-14180858D01*
X8188920Y-14180858D02*
X8188920Y-14142763D01*
X8188920Y-14142763D02*
X8198444Y-14095144D01*
X8198444Y-14095144D02*
X8207968Y-14066573D01*
X8207968Y-14066573D02*
X8217491Y-14047525D01*
X8217491Y-14047525D02*
X8236539Y-14018954D01*
X8236539Y-14018954D02*
X8246063Y-14009430D01*
X8312729Y-14057049D02*
X8322253Y-14047525D01*
X8322253Y-14047525D02*
X8341301Y-14038001D01*
X8341301Y-14038001D02*
X8388920Y-14038001D01*
X8388920Y-14038001D02*
X8407968Y-14047525D01*
X8407968Y-14047525D02*
X8417491Y-14057049D01*
X8417491Y-14057049D02*
X8427015Y-14076097D01*
X8427015Y-14076097D02*
X8427015Y-14095144D01*
X8427015Y-14095144D02*
X8417491Y-14123716D01*
X8417491Y-14123716D02*
X8303206Y-14238001D01*
X8303206Y-14238001D02*
X8427015Y-14238001D01*
X8598444Y-14104668D02*
X8598444Y-14238001D01*
X8550825Y-14028478D02*
X8503206Y-14171335D01*
X8503206Y-14171335D02*
X8627015Y-14171335D01*
X8855587Y-14238001D02*
X8855587Y-14038001D01*
X8941301Y-14238001D02*
X8941301Y-14133239D01*
X8941301Y-14133239D02*
X8931777Y-14114192D01*
X8931777Y-14114192D02*
X8912730Y-14104668D01*
X8912730Y-14104668D02*
X8884158Y-14104668D01*
X8884158Y-14104668D02*
X8865111Y-14114192D01*
X8865111Y-14114192D02*
X8855587Y-14123716D01*
X9065111Y-14238001D02*
X9046063Y-14228478D01*
X9046063Y-14228478D02*
X9036539Y-14218954D01*
X9036539Y-14218954D02*
X9027015Y-14199906D01*
X9027015Y-14199906D02*
X9027015Y-14142763D01*
X9027015Y-14142763D02*
X9036539Y-14123716D01*
X9036539Y-14123716D02*
X9046063Y-14114192D01*
X9046063Y-14114192D02*
X9065111Y-14104668D01*
X9065111Y-14104668D02*
X9093682Y-14104668D01*
X9093682Y-14104668D02*
X9112730Y-14114192D01*
X9112730Y-14114192D02*
X9122253Y-14123716D01*
X9122253Y-14123716D02*
X9131777Y-14142763D01*
X9131777Y-14142763D02*
X9131777Y-14199906D01*
X9131777Y-14199906D02*
X9122253Y-14218954D01*
X9122253Y-14218954D02*
X9112730Y-14228478D01*
X9112730Y-14228478D02*
X9093682Y-14238001D01*
X9093682Y-14238001D02*
X9065111Y-14238001D01*
X9246063Y-14238001D02*
X9227015Y-14228478D01*
X9227015Y-14228478D02*
X9217492Y-14209430D01*
X9217492Y-14209430D02*
X9217492Y-14038001D01*
X9398444Y-14228478D02*
X9379396Y-14238001D01*
X9379396Y-14238001D02*
X9341301Y-14238001D01*
X9341301Y-14238001D02*
X9322253Y-14228478D01*
X9322253Y-14228478D02*
X9312730Y-14209430D01*
X9312730Y-14209430D02*
X9312730Y-14133239D01*
X9312730Y-14133239D02*
X9322253Y-14114192D01*
X9322253Y-14114192D02*
X9341301Y-14104668D01*
X9341301Y-14104668D02*
X9379396Y-14104668D01*
X9379396Y-14104668D02*
X9398444Y-14114192D01*
X9398444Y-14114192D02*
X9407968Y-14133239D01*
X9407968Y-14133239D02*
X9407968Y-14152287D01*
X9407968Y-14152287D02*
X9312730Y-14171335D01*
X9484158Y-14228478D02*
X9503206Y-14238001D01*
X9503206Y-14238001D02*
X9541301Y-14238001D01*
X9541301Y-14238001D02*
X9560349Y-14228478D01*
X9560349Y-14228478D02*
X9569873Y-14209430D01*
X9569873Y-14209430D02*
X9569873Y-14199906D01*
X9569873Y-14199906D02*
X9560349Y-14180858D01*
X9560349Y-14180858D02*
X9541301Y-14171335D01*
X9541301Y-14171335D02*
X9512730Y-14171335D01*
X9512730Y-14171335D02*
X9493682Y-14161811D01*
X9493682Y-14161811D02*
X9484158Y-14142763D01*
X9484158Y-14142763D02*
X9484158Y-14133239D01*
X9484158Y-14133239D02*
X9493682Y-14114192D01*
X9493682Y-14114192D02*
X9512730Y-14104668D01*
X9512730Y-14104668D02*
X9541301Y-14104668D01*
X9541301Y-14104668D02*
X9560349Y-14114192D01*
X9636539Y-14314192D02*
X9646063Y-14304668D01*
X9646063Y-14304668D02*
X9665111Y-14276097D01*
X9665111Y-14276097D02*
X9674634Y-14257049D01*
X9674634Y-14257049D02*
X9684158Y-14228478D01*
X9684158Y-14228478D02*
X9693682Y-14180858D01*
X9693682Y-14180858D02*
X9693682Y-14142763D01*
X9693682Y-14142763D02*
X9684158Y-14095144D01*
X9684158Y-14095144D02*
X9674634Y-14066573D01*
X9674634Y-14066573D02*
X9665111Y-14047525D01*
X9665111Y-14047525D02*
X9646063Y-14018954D01*
X9646063Y-14018954D02*
X9636539Y-14009430D01*
D14*
X4551000Y-14350518D02*
X4671000Y-14470518D01*
X4671000Y-14350518D02*
X4551000Y-14470518D01*
X4611000Y-14350518D02*
X4611000Y-14470518D01*
X4551000Y-14410518D02*
X4671000Y-14410518D01*
D11*
X5036539Y-14502001D02*
X4922253Y-14502001D01*
X4979396Y-14502001D02*
X4979396Y-14302001D01*
X4979396Y-14302001D02*
X4960348Y-14330573D01*
X4960348Y-14330573D02*
X4941301Y-14349620D01*
X4941301Y-14349620D02*
X4922253Y-14359144D01*
X5122253Y-14482954D02*
X5131777Y-14492478D01*
X5131777Y-14492478D02*
X5122253Y-14502001D01*
X5122253Y-14502001D02*
X5112729Y-14492478D01*
X5112729Y-14492478D02*
X5122253Y-14482954D01*
X5122253Y-14482954D02*
X5122253Y-14502001D01*
X5207967Y-14321049D02*
X5217491Y-14311525D01*
X5217491Y-14311525D02*
X5236539Y-14302001D01*
X5236539Y-14302001D02*
X5284158Y-14302001D01*
X5284158Y-14302001D02*
X5303205Y-14311525D01*
X5303205Y-14311525D02*
X5312729Y-14321049D01*
X5312729Y-14321049D02*
X5322253Y-14340097D01*
X5322253Y-14340097D02*
X5322253Y-14359144D01*
X5322253Y-14359144D02*
X5312729Y-14387716D01*
X5312729Y-14387716D02*
X5198444Y-14502001D01*
X5198444Y-14502001D02*
X5322253Y-14502001D01*
X5446063Y-14302001D02*
X5465110Y-14302001D01*
X5465110Y-14302001D02*
X5484158Y-14311525D01*
X5484158Y-14311525D02*
X5493682Y-14321049D01*
X5493682Y-14321049D02*
X5503205Y-14340097D01*
X5503205Y-14340097D02*
X5512729Y-14378192D01*
X5512729Y-14378192D02*
X5512729Y-14425811D01*
X5512729Y-14425811D02*
X5503205Y-14463906D01*
X5503205Y-14463906D02*
X5493682Y-14482954D01*
X5493682Y-14482954D02*
X5484158Y-14492478D01*
X5484158Y-14492478D02*
X5465110Y-14502001D01*
X5465110Y-14502001D02*
X5446063Y-14502001D01*
X5446063Y-14502001D02*
X5427015Y-14492478D01*
X5427015Y-14492478D02*
X5417491Y-14482954D01*
X5417491Y-14482954D02*
X5407967Y-14463906D01*
X5407967Y-14463906D02*
X5398444Y-14425811D01*
X5398444Y-14425811D02*
X5398444Y-14378192D01*
X5398444Y-14378192D02*
X5407967Y-14340097D01*
X5407967Y-14340097D02*
X5417491Y-14321049D01*
X5417491Y-14321049D02*
X5427015Y-14311525D01*
X5427015Y-14311525D02*
X5446063Y-14302001D01*
X5636539Y-14302001D02*
X5655586Y-14302001D01*
X5655586Y-14302001D02*
X5674634Y-14311525D01*
X5674634Y-14311525D02*
X5684158Y-14321049D01*
X5684158Y-14321049D02*
X5693682Y-14340097D01*
X5693682Y-14340097D02*
X5703205Y-14378192D01*
X5703205Y-14378192D02*
X5703205Y-14425811D01*
X5703205Y-14425811D02*
X5693682Y-14463906D01*
X5693682Y-14463906D02*
X5684158Y-14482954D01*
X5684158Y-14482954D02*
X5674634Y-14492478D01*
X5674634Y-14492478D02*
X5655586Y-14502001D01*
X5655586Y-14502001D02*
X5636539Y-14502001D01*
X5636539Y-14502001D02*
X5617491Y-14492478D01*
X5617491Y-14492478D02*
X5607967Y-14482954D01*
X5607967Y-14482954D02*
X5598443Y-14463906D01*
X5598443Y-14463906D02*
X5588920Y-14425811D01*
X5588920Y-14425811D02*
X5588920Y-14378192D01*
X5588920Y-14378192D02*
X5598443Y-14340097D01*
X5598443Y-14340097D02*
X5607967Y-14321049D01*
X5607967Y-14321049D02*
X5617491Y-14311525D01*
X5617491Y-14311525D02*
X5636539Y-14302001D01*
X5788920Y-14502001D02*
X5788920Y-14368668D01*
X5788920Y-14387716D02*
X5798443Y-14378192D01*
X5798443Y-14378192D02*
X5817491Y-14368668D01*
X5817491Y-14368668D02*
X5846063Y-14368668D01*
X5846063Y-14368668D02*
X5865110Y-14378192D01*
X5865110Y-14378192D02*
X5874634Y-14397239D01*
X5874634Y-14397239D02*
X5874634Y-14502001D01*
X5874634Y-14397239D02*
X5884158Y-14378192D01*
X5884158Y-14378192D02*
X5903205Y-14368668D01*
X5903205Y-14368668D02*
X5931777Y-14368668D01*
X5931777Y-14368668D02*
X5950824Y-14378192D01*
X5950824Y-14378192D02*
X5960348Y-14397239D01*
X5960348Y-14397239D02*
X5960348Y-14502001D01*
X6055586Y-14502001D02*
X6055586Y-14368668D01*
X6055586Y-14387716D02*
X6065110Y-14378192D01*
X6065110Y-14378192D02*
X6084158Y-14368668D01*
X6084158Y-14368668D02*
X6112729Y-14368668D01*
X6112729Y-14368668D02*
X6131777Y-14378192D01*
X6131777Y-14378192D02*
X6141301Y-14397239D01*
X6141301Y-14397239D02*
X6141301Y-14502001D01*
X6141301Y-14397239D02*
X6150824Y-14378192D01*
X6150824Y-14378192D02*
X6169872Y-14368668D01*
X6169872Y-14368668D02*
X6198443Y-14368668D01*
X6198443Y-14368668D02*
X6217491Y-14378192D01*
X6217491Y-14378192D02*
X6227015Y-14397239D01*
X6227015Y-14397239D02*
X6227015Y-14502001D01*
X6617491Y-14292478D02*
X6446063Y-14549620D01*
X6874634Y-14302001D02*
X6893682Y-14302001D01*
X6893682Y-14302001D02*
X6912729Y-14311525D01*
X6912729Y-14311525D02*
X6922253Y-14321049D01*
X6922253Y-14321049D02*
X6931777Y-14340097D01*
X6931777Y-14340097D02*
X6941301Y-14378192D01*
X6941301Y-14378192D02*
X6941301Y-14425811D01*
X6941301Y-14425811D02*
X6931777Y-14463906D01*
X6931777Y-14463906D02*
X6922253Y-14482954D01*
X6922253Y-14482954D02*
X6912729Y-14492478D01*
X6912729Y-14492478D02*
X6893682Y-14502001D01*
X6893682Y-14502001D02*
X6874634Y-14502001D01*
X6874634Y-14502001D02*
X6855586Y-14492478D01*
X6855586Y-14492478D02*
X6846063Y-14482954D01*
X6846063Y-14482954D02*
X6836539Y-14463906D01*
X6836539Y-14463906D02*
X6827015Y-14425811D01*
X6827015Y-14425811D02*
X6827015Y-14378192D01*
X6827015Y-14378192D02*
X6836539Y-14340097D01*
X6836539Y-14340097D02*
X6846063Y-14321049D01*
X6846063Y-14321049D02*
X6855586Y-14311525D01*
X6855586Y-14311525D02*
X6874634Y-14302001D01*
X7027015Y-14482954D02*
X7036539Y-14492478D01*
X7036539Y-14492478D02*
X7027015Y-14502001D01*
X7027015Y-14502001D02*
X7017491Y-14492478D01*
X7017491Y-14492478D02*
X7027015Y-14482954D01*
X7027015Y-14482954D02*
X7027015Y-14502001D01*
X7160348Y-14302001D02*
X7179396Y-14302001D01*
X7179396Y-14302001D02*
X7198444Y-14311525D01*
X7198444Y-14311525D02*
X7207967Y-14321049D01*
X7207967Y-14321049D02*
X7217491Y-14340097D01*
X7217491Y-14340097D02*
X7227015Y-14378192D01*
X7227015Y-14378192D02*
X7227015Y-14425811D01*
X7227015Y-14425811D02*
X7217491Y-14463906D01*
X7217491Y-14463906D02*
X7207967Y-14482954D01*
X7207967Y-14482954D02*
X7198444Y-14492478D01*
X7198444Y-14492478D02*
X7179396Y-14502001D01*
X7179396Y-14502001D02*
X7160348Y-14502001D01*
X7160348Y-14502001D02*
X7141301Y-14492478D01*
X7141301Y-14492478D02*
X7131777Y-14482954D01*
X7131777Y-14482954D02*
X7122253Y-14463906D01*
X7122253Y-14463906D02*
X7112729Y-14425811D01*
X7112729Y-14425811D02*
X7112729Y-14378192D01*
X7112729Y-14378192D02*
X7122253Y-14340097D01*
X7122253Y-14340097D02*
X7131777Y-14321049D01*
X7131777Y-14321049D02*
X7141301Y-14311525D01*
X7141301Y-14311525D02*
X7160348Y-14302001D01*
X7398444Y-14368668D02*
X7398444Y-14502001D01*
X7350825Y-14292478D02*
X7303206Y-14435335D01*
X7303206Y-14435335D02*
X7427015Y-14435335D01*
X7484158Y-14302001D02*
X7617491Y-14302001D01*
X7617491Y-14302001D02*
X7531777Y-14502001D01*
X7684158Y-14321049D02*
X7693682Y-14311525D01*
X7693682Y-14311525D02*
X7712729Y-14302001D01*
X7712729Y-14302001D02*
X7760348Y-14302001D01*
X7760348Y-14302001D02*
X7779396Y-14311525D01*
X7779396Y-14311525D02*
X7788920Y-14321049D01*
X7788920Y-14321049D02*
X7798444Y-14340097D01*
X7798444Y-14340097D02*
X7798444Y-14359144D01*
X7798444Y-14359144D02*
X7788920Y-14387716D01*
X7788920Y-14387716D02*
X7674634Y-14502001D01*
X7674634Y-14502001D02*
X7798444Y-14502001D01*
X7874634Y-14302001D02*
X7874634Y-14340097D01*
X7950825Y-14302001D02*
X7950825Y-14340097D01*
X8246063Y-14578192D02*
X8236539Y-14568668D01*
X8236539Y-14568668D02*
X8217491Y-14540097D01*
X8217491Y-14540097D02*
X8207968Y-14521049D01*
X8207968Y-14521049D02*
X8198444Y-14492478D01*
X8198444Y-14492478D02*
X8188920Y-14444858D01*
X8188920Y-14444858D02*
X8188920Y-14406763D01*
X8188920Y-14406763D02*
X8198444Y-14359144D01*
X8198444Y-14359144D02*
X8207968Y-14330573D01*
X8207968Y-14330573D02*
X8217491Y-14311525D01*
X8217491Y-14311525D02*
X8236539Y-14282954D01*
X8236539Y-14282954D02*
X8246063Y-14273430D01*
X8407968Y-14302001D02*
X8369872Y-14302001D01*
X8369872Y-14302001D02*
X8350825Y-14311525D01*
X8350825Y-14311525D02*
X8341301Y-14321049D01*
X8341301Y-14321049D02*
X8322253Y-14349620D01*
X8322253Y-14349620D02*
X8312729Y-14387716D01*
X8312729Y-14387716D02*
X8312729Y-14463906D01*
X8312729Y-14463906D02*
X8322253Y-14482954D01*
X8322253Y-14482954D02*
X8331777Y-14492478D01*
X8331777Y-14492478D02*
X8350825Y-14502001D01*
X8350825Y-14502001D02*
X8388920Y-14502001D01*
X8388920Y-14502001D02*
X8407968Y-14492478D01*
X8407968Y-14492478D02*
X8417491Y-14482954D01*
X8417491Y-14482954D02*
X8427015Y-14463906D01*
X8427015Y-14463906D02*
X8427015Y-14416287D01*
X8427015Y-14416287D02*
X8417491Y-14397239D01*
X8417491Y-14397239D02*
X8407968Y-14387716D01*
X8407968Y-14387716D02*
X8388920Y-14378192D01*
X8388920Y-14378192D02*
X8350825Y-14378192D01*
X8350825Y-14378192D02*
X8331777Y-14387716D01*
X8331777Y-14387716D02*
X8322253Y-14397239D01*
X8322253Y-14397239D02*
X8312729Y-14416287D01*
X8665111Y-14502001D02*
X8665111Y-14302001D01*
X8750825Y-14502001D02*
X8750825Y-14397239D01*
X8750825Y-14397239D02*
X8741301Y-14378192D01*
X8741301Y-14378192D02*
X8722253Y-14368668D01*
X8722253Y-14368668D02*
X8693682Y-14368668D01*
X8693682Y-14368668D02*
X8674634Y-14378192D01*
X8674634Y-14378192D02*
X8665111Y-14387716D01*
X8874634Y-14502001D02*
X8855587Y-14492478D01*
X8855587Y-14492478D02*
X8846063Y-14482954D01*
X8846063Y-14482954D02*
X8836539Y-14463906D01*
X8836539Y-14463906D02*
X8836539Y-14406763D01*
X8836539Y-14406763D02*
X8846063Y-14387716D01*
X8846063Y-14387716D02*
X8855587Y-14378192D01*
X8855587Y-14378192D02*
X8874634Y-14368668D01*
X8874634Y-14368668D02*
X8903206Y-14368668D01*
X8903206Y-14368668D02*
X8922253Y-14378192D01*
X8922253Y-14378192D02*
X8931777Y-14387716D01*
X8931777Y-14387716D02*
X8941301Y-14406763D01*
X8941301Y-14406763D02*
X8941301Y-14463906D01*
X8941301Y-14463906D02*
X8931777Y-14482954D01*
X8931777Y-14482954D02*
X8922253Y-14492478D01*
X8922253Y-14492478D02*
X8903206Y-14502001D01*
X8903206Y-14502001D02*
X8874634Y-14502001D01*
X9055587Y-14502001D02*
X9036539Y-14492478D01*
X9036539Y-14492478D02*
X9027015Y-14473430D01*
X9027015Y-14473430D02*
X9027015Y-14302001D01*
X9207968Y-14492478D02*
X9188920Y-14502001D01*
X9188920Y-14502001D02*
X9150825Y-14502001D01*
X9150825Y-14502001D02*
X9131777Y-14492478D01*
X9131777Y-14492478D02*
X9122253Y-14473430D01*
X9122253Y-14473430D02*
X9122253Y-14397239D01*
X9122253Y-14397239D02*
X9131777Y-14378192D01*
X9131777Y-14378192D02*
X9150825Y-14368668D01*
X9150825Y-14368668D02*
X9188920Y-14368668D01*
X9188920Y-14368668D02*
X9207968Y-14378192D01*
X9207968Y-14378192D02*
X9217492Y-14397239D01*
X9217492Y-14397239D02*
X9217492Y-14416287D01*
X9217492Y-14416287D02*
X9122253Y-14435335D01*
X9293682Y-14492478D02*
X9312730Y-14502001D01*
X9312730Y-14502001D02*
X9350825Y-14502001D01*
X9350825Y-14502001D02*
X9369873Y-14492478D01*
X9369873Y-14492478D02*
X9379396Y-14473430D01*
X9379396Y-14473430D02*
X9379396Y-14463906D01*
X9379396Y-14463906D02*
X9369873Y-14444858D01*
X9369873Y-14444858D02*
X9350825Y-14435335D01*
X9350825Y-14435335D02*
X9322253Y-14435335D01*
X9322253Y-14435335D02*
X9303206Y-14425811D01*
X9303206Y-14425811D02*
X9293682Y-14406763D01*
X9293682Y-14406763D02*
X9293682Y-14397239D01*
X9293682Y-14397239D02*
X9303206Y-14378192D01*
X9303206Y-14378192D02*
X9322253Y-14368668D01*
X9322253Y-14368668D02*
X9350825Y-14368668D01*
X9350825Y-14368668D02*
X9369873Y-14378192D01*
X9446063Y-14578192D02*
X9455587Y-14568668D01*
X9455587Y-14568668D02*
X9474634Y-14540097D01*
X9474634Y-14540097D02*
X9484158Y-14521049D01*
X9484158Y-14521049D02*
X9493682Y-14492478D01*
X9493682Y-14492478D02*
X9503206Y-14444858D01*
X9503206Y-14444858D02*
X9503206Y-14406763D01*
X9503206Y-14406763D02*
X9493682Y-14359144D01*
X9493682Y-14359144D02*
X9484158Y-14330573D01*
X9484158Y-14330573D02*
X9474634Y-14311525D01*
X9474634Y-14311525D02*
X9455587Y-14282954D01*
X9455587Y-14282954D02*
X9446063Y-14273430D01*
D15*
X4541000Y-14609518D02*
X4671000Y-14739518D01*
X4671000Y-14609518D02*
X4541000Y-14739518D01*
X4651962Y-14720480D02*
X4651962Y-14628555D01*
X4560038Y-14628555D01*
X4560038Y-14720480D01*
X4651962Y-14720480D01*
D11*
X5036539Y-14766001D02*
X4922253Y-14766001D01*
X4979396Y-14766001D02*
X4979396Y-14566001D01*
X4979396Y-14566001D02*
X4960348Y-14594573D01*
X4960348Y-14594573D02*
X4941301Y-14613620D01*
X4941301Y-14613620D02*
X4922253Y-14623144D01*
X5122253Y-14746954D02*
X5131777Y-14756478D01*
X5131777Y-14756478D02*
X5122253Y-14766001D01*
X5122253Y-14766001D02*
X5112729Y-14756478D01*
X5112729Y-14756478D02*
X5122253Y-14746954D01*
X5122253Y-14746954D02*
X5122253Y-14766001D01*
X5198444Y-14566001D02*
X5322253Y-14566001D01*
X5322253Y-14566001D02*
X5255586Y-14642192D01*
X5255586Y-14642192D02*
X5284158Y-14642192D01*
X5284158Y-14642192D02*
X5303205Y-14651716D01*
X5303205Y-14651716D02*
X5312729Y-14661239D01*
X5312729Y-14661239D02*
X5322253Y-14680287D01*
X5322253Y-14680287D02*
X5322253Y-14727906D01*
X5322253Y-14727906D02*
X5312729Y-14746954D01*
X5312729Y-14746954D02*
X5303205Y-14756478D01*
X5303205Y-14756478D02*
X5284158Y-14766001D01*
X5284158Y-14766001D02*
X5227015Y-14766001D01*
X5227015Y-14766001D02*
X5207967Y-14756478D01*
X5207967Y-14756478D02*
X5198444Y-14746954D01*
X5446063Y-14566001D02*
X5465110Y-14566001D01*
X5465110Y-14566001D02*
X5484158Y-14575525D01*
X5484158Y-14575525D02*
X5493682Y-14585049D01*
X5493682Y-14585049D02*
X5503205Y-14604097D01*
X5503205Y-14604097D02*
X5512729Y-14642192D01*
X5512729Y-14642192D02*
X5512729Y-14689811D01*
X5512729Y-14689811D02*
X5503205Y-14727906D01*
X5503205Y-14727906D02*
X5493682Y-14746954D01*
X5493682Y-14746954D02*
X5484158Y-14756478D01*
X5484158Y-14756478D02*
X5465110Y-14766001D01*
X5465110Y-14766001D02*
X5446063Y-14766001D01*
X5446063Y-14766001D02*
X5427015Y-14756478D01*
X5427015Y-14756478D02*
X5417491Y-14746954D01*
X5417491Y-14746954D02*
X5407967Y-14727906D01*
X5407967Y-14727906D02*
X5398444Y-14689811D01*
X5398444Y-14689811D02*
X5398444Y-14642192D01*
X5398444Y-14642192D02*
X5407967Y-14604097D01*
X5407967Y-14604097D02*
X5417491Y-14585049D01*
X5417491Y-14585049D02*
X5427015Y-14575525D01*
X5427015Y-14575525D02*
X5446063Y-14566001D01*
X5636539Y-14566001D02*
X5655586Y-14566001D01*
X5655586Y-14566001D02*
X5674634Y-14575525D01*
X5674634Y-14575525D02*
X5684158Y-14585049D01*
X5684158Y-14585049D02*
X5693682Y-14604097D01*
X5693682Y-14604097D02*
X5703205Y-14642192D01*
X5703205Y-14642192D02*
X5703205Y-14689811D01*
X5703205Y-14689811D02*
X5693682Y-14727906D01*
X5693682Y-14727906D02*
X5684158Y-14746954D01*
X5684158Y-14746954D02*
X5674634Y-14756478D01*
X5674634Y-14756478D02*
X5655586Y-14766001D01*
X5655586Y-14766001D02*
X5636539Y-14766001D01*
X5636539Y-14766001D02*
X5617491Y-14756478D01*
X5617491Y-14756478D02*
X5607967Y-14746954D01*
X5607967Y-14746954D02*
X5598443Y-14727906D01*
X5598443Y-14727906D02*
X5588920Y-14689811D01*
X5588920Y-14689811D02*
X5588920Y-14642192D01*
X5588920Y-14642192D02*
X5598443Y-14604097D01*
X5598443Y-14604097D02*
X5607967Y-14585049D01*
X5607967Y-14585049D02*
X5617491Y-14575525D01*
X5617491Y-14575525D02*
X5636539Y-14566001D01*
X5788920Y-14766001D02*
X5788920Y-14632668D01*
X5788920Y-14651716D02*
X5798443Y-14642192D01*
X5798443Y-14642192D02*
X5817491Y-14632668D01*
X5817491Y-14632668D02*
X5846063Y-14632668D01*
X5846063Y-14632668D02*
X5865110Y-14642192D01*
X5865110Y-14642192D02*
X5874634Y-14661239D01*
X5874634Y-14661239D02*
X5874634Y-14766001D01*
X5874634Y-14661239D02*
X5884158Y-14642192D01*
X5884158Y-14642192D02*
X5903205Y-14632668D01*
X5903205Y-14632668D02*
X5931777Y-14632668D01*
X5931777Y-14632668D02*
X5950824Y-14642192D01*
X5950824Y-14642192D02*
X5960348Y-14661239D01*
X5960348Y-14661239D02*
X5960348Y-14766001D01*
X6055586Y-14766001D02*
X6055586Y-14632668D01*
X6055586Y-14651716D02*
X6065110Y-14642192D01*
X6065110Y-14642192D02*
X6084158Y-14632668D01*
X6084158Y-14632668D02*
X6112729Y-14632668D01*
X6112729Y-14632668D02*
X6131777Y-14642192D01*
X6131777Y-14642192D02*
X6141301Y-14661239D01*
X6141301Y-14661239D02*
X6141301Y-14766001D01*
X6141301Y-14661239D02*
X6150824Y-14642192D01*
X6150824Y-14642192D02*
X6169872Y-14632668D01*
X6169872Y-14632668D02*
X6198443Y-14632668D01*
X6198443Y-14632668D02*
X6217491Y-14642192D01*
X6217491Y-14642192D02*
X6227015Y-14661239D01*
X6227015Y-14661239D02*
X6227015Y-14766001D01*
X6617491Y-14556478D02*
X6446063Y-14813620D01*
X6874634Y-14566001D02*
X6893682Y-14566001D01*
X6893682Y-14566001D02*
X6912729Y-14575525D01*
X6912729Y-14575525D02*
X6922253Y-14585049D01*
X6922253Y-14585049D02*
X6931777Y-14604097D01*
X6931777Y-14604097D02*
X6941301Y-14642192D01*
X6941301Y-14642192D02*
X6941301Y-14689811D01*
X6941301Y-14689811D02*
X6931777Y-14727906D01*
X6931777Y-14727906D02*
X6922253Y-14746954D01*
X6922253Y-14746954D02*
X6912729Y-14756478D01*
X6912729Y-14756478D02*
X6893682Y-14766001D01*
X6893682Y-14766001D02*
X6874634Y-14766001D01*
X6874634Y-14766001D02*
X6855586Y-14756478D01*
X6855586Y-14756478D02*
X6846063Y-14746954D01*
X6846063Y-14746954D02*
X6836539Y-14727906D01*
X6836539Y-14727906D02*
X6827015Y-14689811D01*
X6827015Y-14689811D02*
X6827015Y-14642192D01*
X6827015Y-14642192D02*
X6836539Y-14604097D01*
X6836539Y-14604097D02*
X6846063Y-14585049D01*
X6846063Y-14585049D02*
X6855586Y-14575525D01*
X6855586Y-14575525D02*
X6874634Y-14566001D01*
X7027015Y-14746954D02*
X7036539Y-14756478D01*
X7036539Y-14756478D02*
X7027015Y-14766001D01*
X7027015Y-14766001D02*
X7017491Y-14756478D01*
X7017491Y-14756478D02*
X7027015Y-14746954D01*
X7027015Y-14746954D02*
X7027015Y-14766001D01*
X7160348Y-14566001D02*
X7179396Y-14566001D01*
X7179396Y-14566001D02*
X7198444Y-14575525D01*
X7198444Y-14575525D02*
X7207967Y-14585049D01*
X7207967Y-14585049D02*
X7217491Y-14604097D01*
X7217491Y-14604097D02*
X7227015Y-14642192D01*
X7227015Y-14642192D02*
X7227015Y-14689811D01*
X7227015Y-14689811D02*
X7217491Y-14727906D01*
X7217491Y-14727906D02*
X7207967Y-14746954D01*
X7207967Y-14746954D02*
X7198444Y-14756478D01*
X7198444Y-14756478D02*
X7179396Y-14766001D01*
X7179396Y-14766001D02*
X7160348Y-14766001D01*
X7160348Y-14766001D02*
X7141301Y-14756478D01*
X7141301Y-14756478D02*
X7131777Y-14746954D01*
X7131777Y-14746954D02*
X7122253Y-14727906D01*
X7122253Y-14727906D02*
X7112729Y-14689811D01*
X7112729Y-14689811D02*
X7112729Y-14642192D01*
X7112729Y-14642192D02*
X7122253Y-14604097D01*
X7122253Y-14604097D02*
X7131777Y-14585049D01*
X7131777Y-14585049D02*
X7141301Y-14575525D01*
X7141301Y-14575525D02*
X7160348Y-14566001D01*
X7407967Y-14566001D02*
X7312729Y-14566001D01*
X7312729Y-14566001D02*
X7303206Y-14661239D01*
X7303206Y-14661239D02*
X7312729Y-14651716D01*
X7312729Y-14651716D02*
X7331777Y-14642192D01*
X7331777Y-14642192D02*
X7379396Y-14642192D01*
X7379396Y-14642192D02*
X7398444Y-14651716D01*
X7398444Y-14651716D02*
X7407967Y-14661239D01*
X7407967Y-14661239D02*
X7417491Y-14680287D01*
X7417491Y-14680287D02*
X7417491Y-14727906D01*
X7417491Y-14727906D02*
X7407967Y-14746954D01*
X7407967Y-14746954D02*
X7398444Y-14756478D01*
X7398444Y-14756478D02*
X7379396Y-14766001D01*
X7379396Y-14766001D02*
X7331777Y-14766001D01*
X7331777Y-14766001D02*
X7312729Y-14756478D01*
X7312729Y-14756478D02*
X7303206Y-14746954D01*
X7607967Y-14766001D02*
X7493682Y-14766001D01*
X7550825Y-14766001D02*
X7550825Y-14566001D01*
X7550825Y-14566001D02*
X7531777Y-14594573D01*
X7531777Y-14594573D02*
X7512729Y-14613620D01*
X7512729Y-14613620D02*
X7493682Y-14623144D01*
X7684158Y-14585049D02*
X7693682Y-14575525D01*
X7693682Y-14575525D02*
X7712729Y-14566001D01*
X7712729Y-14566001D02*
X7760348Y-14566001D01*
X7760348Y-14566001D02*
X7779396Y-14575525D01*
X7779396Y-14575525D02*
X7788920Y-14585049D01*
X7788920Y-14585049D02*
X7798444Y-14604097D01*
X7798444Y-14604097D02*
X7798444Y-14623144D01*
X7798444Y-14623144D02*
X7788920Y-14651716D01*
X7788920Y-14651716D02*
X7674634Y-14766001D01*
X7674634Y-14766001D02*
X7798444Y-14766001D01*
X7874634Y-14566001D02*
X7874634Y-14604097D01*
X7950825Y-14566001D02*
X7950825Y-14604097D01*
X8246063Y-14842192D02*
X8236539Y-14832668D01*
X8236539Y-14832668D02*
X8217491Y-14804097D01*
X8217491Y-14804097D02*
X8207968Y-14785049D01*
X8207968Y-14785049D02*
X8198444Y-14756478D01*
X8198444Y-14756478D02*
X8188920Y-14708858D01*
X8188920Y-14708858D02*
X8188920Y-14670763D01*
X8188920Y-14670763D02*
X8198444Y-14623144D01*
X8198444Y-14623144D02*
X8207968Y-14594573D01*
X8207968Y-14594573D02*
X8217491Y-14575525D01*
X8217491Y-14575525D02*
X8236539Y-14546954D01*
X8236539Y-14546954D02*
X8246063Y-14537430D01*
X8350825Y-14651716D02*
X8331777Y-14642192D01*
X8331777Y-14642192D02*
X8322253Y-14632668D01*
X8322253Y-14632668D02*
X8312729Y-14613620D01*
X8312729Y-14613620D02*
X8312729Y-14604097D01*
X8312729Y-14604097D02*
X8322253Y-14585049D01*
X8322253Y-14585049D02*
X8331777Y-14575525D01*
X8331777Y-14575525D02*
X8350825Y-14566001D01*
X8350825Y-14566001D02*
X8388920Y-14566001D01*
X8388920Y-14566001D02*
X8407968Y-14575525D01*
X8407968Y-14575525D02*
X8417491Y-14585049D01*
X8417491Y-14585049D02*
X8427015Y-14604097D01*
X8427015Y-14604097D02*
X8427015Y-14613620D01*
X8427015Y-14613620D02*
X8417491Y-14632668D01*
X8417491Y-14632668D02*
X8407968Y-14642192D01*
X8407968Y-14642192D02*
X8388920Y-14651716D01*
X8388920Y-14651716D02*
X8350825Y-14651716D01*
X8350825Y-14651716D02*
X8331777Y-14661239D01*
X8331777Y-14661239D02*
X8322253Y-14670763D01*
X8322253Y-14670763D02*
X8312729Y-14689811D01*
X8312729Y-14689811D02*
X8312729Y-14727906D01*
X8312729Y-14727906D02*
X8322253Y-14746954D01*
X8322253Y-14746954D02*
X8331777Y-14756478D01*
X8331777Y-14756478D02*
X8350825Y-14766001D01*
X8350825Y-14766001D02*
X8388920Y-14766001D01*
X8388920Y-14766001D02*
X8407968Y-14756478D01*
X8407968Y-14756478D02*
X8417491Y-14746954D01*
X8417491Y-14746954D02*
X8427015Y-14727906D01*
X8427015Y-14727906D02*
X8427015Y-14689811D01*
X8427015Y-14689811D02*
X8417491Y-14670763D01*
X8417491Y-14670763D02*
X8407968Y-14661239D01*
X8407968Y-14661239D02*
X8388920Y-14651716D01*
X8665111Y-14766001D02*
X8665111Y-14566001D01*
X8750825Y-14766001D02*
X8750825Y-14661239D01*
X8750825Y-14661239D02*
X8741301Y-14642192D01*
X8741301Y-14642192D02*
X8722253Y-14632668D01*
X8722253Y-14632668D02*
X8693682Y-14632668D01*
X8693682Y-14632668D02*
X8674634Y-14642192D01*
X8674634Y-14642192D02*
X8665111Y-14651716D01*
X8874634Y-14766001D02*
X8855587Y-14756478D01*
X8855587Y-14756478D02*
X8846063Y-14746954D01*
X8846063Y-14746954D02*
X8836539Y-14727906D01*
X8836539Y-14727906D02*
X8836539Y-14670763D01*
X8836539Y-14670763D02*
X8846063Y-14651716D01*
X8846063Y-14651716D02*
X8855587Y-14642192D01*
X8855587Y-14642192D02*
X8874634Y-14632668D01*
X8874634Y-14632668D02*
X8903206Y-14632668D01*
X8903206Y-14632668D02*
X8922253Y-14642192D01*
X8922253Y-14642192D02*
X8931777Y-14651716D01*
X8931777Y-14651716D02*
X8941301Y-14670763D01*
X8941301Y-14670763D02*
X8941301Y-14727906D01*
X8941301Y-14727906D02*
X8931777Y-14746954D01*
X8931777Y-14746954D02*
X8922253Y-14756478D01*
X8922253Y-14756478D02*
X8903206Y-14766001D01*
X8903206Y-14766001D02*
X8874634Y-14766001D01*
X9055587Y-14766001D02*
X9036539Y-14756478D01*
X9036539Y-14756478D02*
X9027015Y-14737430D01*
X9027015Y-14737430D02*
X9027015Y-14566001D01*
X9207968Y-14756478D02*
X9188920Y-14766001D01*
X9188920Y-14766001D02*
X9150825Y-14766001D01*
X9150825Y-14766001D02*
X9131777Y-14756478D01*
X9131777Y-14756478D02*
X9122253Y-14737430D01*
X9122253Y-14737430D02*
X9122253Y-14661239D01*
X9122253Y-14661239D02*
X9131777Y-14642192D01*
X9131777Y-14642192D02*
X9150825Y-14632668D01*
X9150825Y-14632668D02*
X9188920Y-14632668D01*
X9188920Y-14632668D02*
X9207968Y-14642192D01*
X9207968Y-14642192D02*
X9217492Y-14661239D01*
X9217492Y-14661239D02*
X9217492Y-14680287D01*
X9217492Y-14680287D02*
X9122253Y-14699335D01*
X9293682Y-14756478D02*
X9312730Y-14766001D01*
X9312730Y-14766001D02*
X9350825Y-14766001D01*
X9350825Y-14766001D02*
X9369873Y-14756478D01*
X9369873Y-14756478D02*
X9379396Y-14737430D01*
X9379396Y-14737430D02*
X9379396Y-14727906D01*
X9379396Y-14727906D02*
X9369873Y-14708858D01*
X9369873Y-14708858D02*
X9350825Y-14699335D01*
X9350825Y-14699335D02*
X9322253Y-14699335D01*
X9322253Y-14699335D02*
X9303206Y-14689811D01*
X9303206Y-14689811D02*
X9293682Y-14670763D01*
X9293682Y-14670763D02*
X9293682Y-14661239D01*
X9293682Y-14661239D02*
X9303206Y-14642192D01*
X9303206Y-14642192D02*
X9322253Y-14632668D01*
X9322253Y-14632668D02*
X9350825Y-14632668D01*
X9350825Y-14632668D02*
X9369873Y-14642192D01*
X9446063Y-14842192D02*
X9455587Y-14832668D01*
X9455587Y-14832668D02*
X9474634Y-14804097D01*
X9474634Y-14804097D02*
X9484158Y-14785049D01*
X9484158Y-14785049D02*
X9493682Y-14756478D01*
X9493682Y-14756478D02*
X9503206Y-14708858D01*
X9503206Y-14708858D02*
X9503206Y-14670763D01*
X9503206Y-14670763D02*
X9493682Y-14623144D01*
X9493682Y-14623144D02*
X9484158Y-14594573D01*
X9484158Y-14594573D02*
X9474634Y-14575525D01*
X9474634Y-14575525D02*
X9455587Y-14546954D01*
X9455587Y-14546954D02*
X9446063Y-14537430D01*
D16*
X4501000Y-14853518D02*
X4671000Y-15023518D01*
X4671000Y-14853518D02*
X4501000Y-15023518D01*
X4586000Y-15023518D02*
X4671000Y-14938518D01*
X4586000Y-14853518D01*
X4501000Y-14938518D01*
X4586000Y-15023518D01*
D11*
X5036539Y-15030001D02*
X4922253Y-15030001D01*
X4979396Y-15030001D02*
X4979396Y-14830001D01*
X4979396Y-14830001D02*
X4960348Y-14858573D01*
X4960348Y-14858573D02*
X4941301Y-14877620D01*
X4941301Y-14877620D02*
X4922253Y-14887144D01*
X5122253Y-15010954D02*
X5131777Y-15020478D01*
X5131777Y-15020478D02*
X5122253Y-15030001D01*
X5122253Y-15030001D02*
X5112729Y-15020478D01*
X5112729Y-15020478D02*
X5122253Y-15010954D01*
X5122253Y-15010954D02*
X5122253Y-15030001D01*
X5198444Y-14830001D02*
X5331777Y-14830001D01*
X5331777Y-14830001D02*
X5246063Y-15030001D01*
X5446063Y-14830001D02*
X5465110Y-14830001D01*
X5465110Y-14830001D02*
X5484158Y-14839525D01*
X5484158Y-14839525D02*
X5493682Y-14849049D01*
X5493682Y-14849049D02*
X5503205Y-14868097D01*
X5503205Y-14868097D02*
X5512729Y-14906192D01*
X5512729Y-14906192D02*
X5512729Y-14953811D01*
X5512729Y-14953811D02*
X5503205Y-14991906D01*
X5503205Y-14991906D02*
X5493682Y-15010954D01*
X5493682Y-15010954D02*
X5484158Y-15020478D01*
X5484158Y-15020478D02*
X5465110Y-15030001D01*
X5465110Y-15030001D02*
X5446063Y-15030001D01*
X5446063Y-15030001D02*
X5427015Y-15020478D01*
X5427015Y-15020478D02*
X5417491Y-15010954D01*
X5417491Y-15010954D02*
X5407967Y-14991906D01*
X5407967Y-14991906D02*
X5398444Y-14953811D01*
X5398444Y-14953811D02*
X5398444Y-14906192D01*
X5398444Y-14906192D02*
X5407967Y-14868097D01*
X5407967Y-14868097D02*
X5417491Y-14849049D01*
X5417491Y-14849049D02*
X5427015Y-14839525D01*
X5427015Y-14839525D02*
X5446063Y-14830001D01*
X5636539Y-14830001D02*
X5655586Y-14830001D01*
X5655586Y-14830001D02*
X5674634Y-14839525D01*
X5674634Y-14839525D02*
X5684158Y-14849049D01*
X5684158Y-14849049D02*
X5693682Y-14868097D01*
X5693682Y-14868097D02*
X5703205Y-14906192D01*
X5703205Y-14906192D02*
X5703205Y-14953811D01*
X5703205Y-14953811D02*
X5693682Y-14991906D01*
X5693682Y-14991906D02*
X5684158Y-15010954D01*
X5684158Y-15010954D02*
X5674634Y-15020478D01*
X5674634Y-15020478D02*
X5655586Y-15030001D01*
X5655586Y-15030001D02*
X5636539Y-15030001D01*
X5636539Y-15030001D02*
X5617491Y-15020478D01*
X5617491Y-15020478D02*
X5607967Y-15010954D01*
X5607967Y-15010954D02*
X5598443Y-14991906D01*
X5598443Y-14991906D02*
X5588920Y-14953811D01*
X5588920Y-14953811D02*
X5588920Y-14906192D01*
X5588920Y-14906192D02*
X5598443Y-14868097D01*
X5598443Y-14868097D02*
X5607967Y-14849049D01*
X5607967Y-14849049D02*
X5617491Y-14839525D01*
X5617491Y-14839525D02*
X5636539Y-14830001D01*
X5788920Y-15030001D02*
X5788920Y-14896668D01*
X5788920Y-14915716D02*
X5798443Y-14906192D01*
X5798443Y-14906192D02*
X5817491Y-14896668D01*
X5817491Y-14896668D02*
X5846063Y-14896668D01*
X5846063Y-14896668D02*
X5865110Y-14906192D01*
X5865110Y-14906192D02*
X5874634Y-14925239D01*
X5874634Y-14925239D02*
X5874634Y-15030001D01*
X5874634Y-14925239D02*
X5884158Y-14906192D01*
X5884158Y-14906192D02*
X5903205Y-14896668D01*
X5903205Y-14896668D02*
X5931777Y-14896668D01*
X5931777Y-14896668D02*
X5950824Y-14906192D01*
X5950824Y-14906192D02*
X5960348Y-14925239D01*
X5960348Y-14925239D02*
X5960348Y-15030001D01*
X6055586Y-15030001D02*
X6055586Y-14896668D01*
X6055586Y-14915716D02*
X6065110Y-14906192D01*
X6065110Y-14906192D02*
X6084158Y-14896668D01*
X6084158Y-14896668D02*
X6112729Y-14896668D01*
X6112729Y-14896668D02*
X6131777Y-14906192D01*
X6131777Y-14906192D02*
X6141301Y-14925239D01*
X6141301Y-14925239D02*
X6141301Y-15030001D01*
X6141301Y-14925239D02*
X6150824Y-14906192D01*
X6150824Y-14906192D02*
X6169872Y-14896668D01*
X6169872Y-14896668D02*
X6198443Y-14896668D01*
X6198443Y-14896668D02*
X6217491Y-14906192D01*
X6217491Y-14906192D02*
X6227015Y-14925239D01*
X6227015Y-14925239D02*
X6227015Y-15030001D01*
X6617491Y-14820478D02*
X6446063Y-15077620D01*
X6874634Y-14830001D02*
X6893682Y-14830001D01*
X6893682Y-14830001D02*
X6912729Y-14839525D01*
X6912729Y-14839525D02*
X6922253Y-14849049D01*
X6922253Y-14849049D02*
X6931777Y-14868097D01*
X6931777Y-14868097D02*
X6941301Y-14906192D01*
X6941301Y-14906192D02*
X6941301Y-14953811D01*
X6941301Y-14953811D02*
X6931777Y-14991906D01*
X6931777Y-14991906D02*
X6922253Y-15010954D01*
X6922253Y-15010954D02*
X6912729Y-15020478D01*
X6912729Y-15020478D02*
X6893682Y-15030001D01*
X6893682Y-15030001D02*
X6874634Y-15030001D01*
X6874634Y-15030001D02*
X6855586Y-15020478D01*
X6855586Y-15020478D02*
X6846063Y-15010954D01*
X6846063Y-15010954D02*
X6836539Y-14991906D01*
X6836539Y-14991906D02*
X6827015Y-14953811D01*
X6827015Y-14953811D02*
X6827015Y-14906192D01*
X6827015Y-14906192D02*
X6836539Y-14868097D01*
X6836539Y-14868097D02*
X6846063Y-14849049D01*
X6846063Y-14849049D02*
X6855586Y-14839525D01*
X6855586Y-14839525D02*
X6874634Y-14830001D01*
X7027015Y-15010954D02*
X7036539Y-15020478D01*
X7036539Y-15020478D02*
X7027015Y-15030001D01*
X7027015Y-15030001D02*
X7017491Y-15020478D01*
X7017491Y-15020478D02*
X7027015Y-15010954D01*
X7027015Y-15010954D02*
X7027015Y-15030001D01*
X7160348Y-14830001D02*
X7179396Y-14830001D01*
X7179396Y-14830001D02*
X7198444Y-14839525D01*
X7198444Y-14839525D02*
X7207967Y-14849049D01*
X7207967Y-14849049D02*
X7217491Y-14868097D01*
X7217491Y-14868097D02*
X7227015Y-14906192D01*
X7227015Y-14906192D02*
X7227015Y-14953811D01*
X7227015Y-14953811D02*
X7217491Y-14991906D01*
X7217491Y-14991906D02*
X7207967Y-15010954D01*
X7207967Y-15010954D02*
X7198444Y-15020478D01*
X7198444Y-15020478D02*
X7179396Y-15030001D01*
X7179396Y-15030001D02*
X7160348Y-15030001D01*
X7160348Y-15030001D02*
X7141301Y-15020478D01*
X7141301Y-15020478D02*
X7131777Y-15010954D01*
X7131777Y-15010954D02*
X7122253Y-14991906D01*
X7122253Y-14991906D02*
X7112729Y-14953811D01*
X7112729Y-14953811D02*
X7112729Y-14906192D01*
X7112729Y-14906192D02*
X7122253Y-14868097D01*
X7122253Y-14868097D02*
X7131777Y-14849049D01*
X7131777Y-14849049D02*
X7141301Y-14839525D01*
X7141301Y-14839525D02*
X7160348Y-14830001D01*
X7398444Y-14830001D02*
X7360348Y-14830001D01*
X7360348Y-14830001D02*
X7341301Y-14839525D01*
X7341301Y-14839525D02*
X7331777Y-14849049D01*
X7331777Y-14849049D02*
X7312729Y-14877620D01*
X7312729Y-14877620D02*
X7303206Y-14915716D01*
X7303206Y-14915716D02*
X7303206Y-14991906D01*
X7303206Y-14991906D02*
X7312729Y-15010954D01*
X7312729Y-15010954D02*
X7322253Y-15020478D01*
X7322253Y-15020478D02*
X7341301Y-15030001D01*
X7341301Y-15030001D02*
X7379396Y-15030001D01*
X7379396Y-15030001D02*
X7398444Y-15020478D01*
X7398444Y-15020478D02*
X7407967Y-15010954D01*
X7407967Y-15010954D02*
X7417491Y-14991906D01*
X7417491Y-14991906D02*
X7417491Y-14944287D01*
X7417491Y-14944287D02*
X7407967Y-14925239D01*
X7407967Y-14925239D02*
X7398444Y-14915716D01*
X7398444Y-14915716D02*
X7379396Y-14906192D01*
X7379396Y-14906192D02*
X7341301Y-14906192D01*
X7341301Y-14906192D02*
X7322253Y-14915716D01*
X7322253Y-14915716D02*
X7312729Y-14925239D01*
X7312729Y-14925239D02*
X7303206Y-14944287D01*
X7588920Y-14830001D02*
X7550825Y-14830001D01*
X7550825Y-14830001D02*
X7531777Y-14839525D01*
X7531777Y-14839525D02*
X7522253Y-14849049D01*
X7522253Y-14849049D02*
X7503206Y-14877620D01*
X7503206Y-14877620D02*
X7493682Y-14915716D01*
X7493682Y-14915716D02*
X7493682Y-14991906D01*
X7493682Y-14991906D02*
X7503206Y-15010954D01*
X7503206Y-15010954D02*
X7512729Y-15020478D01*
X7512729Y-15020478D02*
X7531777Y-15030001D01*
X7531777Y-15030001D02*
X7569872Y-15030001D01*
X7569872Y-15030001D02*
X7588920Y-15020478D01*
X7588920Y-15020478D02*
X7598444Y-15010954D01*
X7598444Y-15010954D02*
X7607967Y-14991906D01*
X7607967Y-14991906D02*
X7607967Y-14944287D01*
X7607967Y-14944287D02*
X7598444Y-14925239D01*
X7598444Y-14925239D02*
X7588920Y-14915716D01*
X7588920Y-14915716D02*
X7569872Y-14906192D01*
X7569872Y-14906192D02*
X7531777Y-14906192D01*
X7531777Y-14906192D02*
X7512729Y-14915716D01*
X7512729Y-14915716D02*
X7503206Y-14925239D01*
X7503206Y-14925239D02*
X7493682Y-14944287D01*
X7703206Y-15030001D02*
X7741301Y-15030001D01*
X7741301Y-15030001D02*
X7760348Y-15020478D01*
X7760348Y-15020478D02*
X7769872Y-15010954D01*
X7769872Y-15010954D02*
X7788920Y-14982382D01*
X7788920Y-14982382D02*
X7798444Y-14944287D01*
X7798444Y-14944287D02*
X7798444Y-14868097D01*
X7798444Y-14868097D02*
X7788920Y-14849049D01*
X7788920Y-14849049D02*
X7779396Y-14839525D01*
X7779396Y-14839525D02*
X7760348Y-14830001D01*
X7760348Y-14830001D02*
X7722253Y-14830001D01*
X7722253Y-14830001D02*
X7703206Y-14839525D01*
X7703206Y-14839525D02*
X7693682Y-14849049D01*
X7693682Y-14849049D02*
X7684158Y-14868097D01*
X7684158Y-14868097D02*
X7684158Y-14915716D01*
X7684158Y-14915716D02*
X7693682Y-14934763D01*
X7693682Y-14934763D02*
X7703206Y-14944287D01*
X7703206Y-14944287D02*
X7722253Y-14953811D01*
X7722253Y-14953811D02*
X7760348Y-14953811D01*
X7760348Y-14953811D02*
X7779396Y-14944287D01*
X7779396Y-14944287D02*
X7788920Y-14934763D01*
X7788920Y-14934763D02*
X7798444Y-14915716D01*
X7874634Y-14830001D02*
X7874634Y-14868097D01*
X7950825Y-14830001D02*
X7950825Y-14868097D01*
X8246063Y-15106192D02*
X8236539Y-15096668D01*
X8236539Y-15096668D02*
X8217491Y-15068097D01*
X8217491Y-15068097D02*
X8207968Y-15049049D01*
X8207968Y-15049049D02*
X8198444Y-15020478D01*
X8198444Y-15020478D02*
X8188920Y-14972858D01*
X8188920Y-14972858D02*
X8188920Y-14934763D01*
X8188920Y-14934763D02*
X8198444Y-14887144D01*
X8198444Y-14887144D02*
X8207968Y-14858573D01*
X8207968Y-14858573D02*
X8217491Y-14839525D01*
X8217491Y-14839525D02*
X8236539Y-14810954D01*
X8236539Y-14810954D02*
X8246063Y-14801430D01*
X8350825Y-14915716D02*
X8331777Y-14906192D01*
X8331777Y-14906192D02*
X8322253Y-14896668D01*
X8322253Y-14896668D02*
X8312729Y-14877620D01*
X8312729Y-14877620D02*
X8312729Y-14868097D01*
X8312729Y-14868097D02*
X8322253Y-14849049D01*
X8322253Y-14849049D02*
X8331777Y-14839525D01*
X8331777Y-14839525D02*
X8350825Y-14830001D01*
X8350825Y-14830001D02*
X8388920Y-14830001D01*
X8388920Y-14830001D02*
X8407968Y-14839525D01*
X8407968Y-14839525D02*
X8417491Y-14849049D01*
X8417491Y-14849049D02*
X8427015Y-14868097D01*
X8427015Y-14868097D02*
X8427015Y-14877620D01*
X8427015Y-14877620D02*
X8417491Y-14896668D01*
X8417491Y-14896668D02*
X8407968Y-14906192D01*
X8407968Y-14906192D02*
X8388920Y-14915716D01*
X8388920Y-14915716D02*
X8350825Y-14915716D01*
X8350825Y-14915716D02*
X8331777Y-14925239D01*
X8331777Y-14925239D02*
X8322253Y-14934763D01*
X8322253Y-14934763D02*
X8312729Y-14953811D01*
X8312729Y-14953811D02*
X8312729Y-14991906D01*
X8312729Y-14991906D02*
X8322253Y-15010954D01*
X8322253Y-15010954D02*
X8331777Y-15020478D01*
X8331777Y-15020478D02*
X8350825Y-15030001D01*
X8350825Y-15030001D02*
X8388920Y-15030001D01*
X8388920Y-15030001D02*
X8407968Y-15020478D01*
X8407968Y-15020478D02*
X8417491Y-15010954D01*
X8417491Y-15010954D02*
X8427015Y-14991906D01*
X8427015Y-14991906D02*
X8427015Y-14953811D01*
X8427015Y-14953811D02*
X8417491Y-14934763D01*
X8417491Y-14934763D02*
X8407968Y-14925239D01*
X8407968Y-14925239D02*
X8388920Y-14915716D01*
X8665111Y-15030001D02*
X8665111Y-14830001D01*
X8750825Y-15030001D02*
X8750825Y-14925239D01*
X8750825Y-14925239D02*
X8741301Y-14906192D01*
X8741301Y-14906192D02*
X8722253Y-14896668D01*
X8722253Y-14896668D02*
X8693682Y-14896668D01*
X8693682Y-14896668D02*
X8674634Y-14906192D01*
X8674634Y-14906192D02*
X8665111Y-14915716D01*
X8874634Y-15030001D02*
X8855587Y-15020478D01*
X8855587Y-15020478D02*
X8846063Y-15010954D01*
X8846063Y-15010954D02*
X8836539Y-14991906D01*
X8836539Y-14991906D02*
X8836539Y-14934763D01*
X8836539Y-14934763D02*
X8846063Y-14915716D01*
X8846063Y-14915716D02*
X8855587Y-14906192D01*
X8855587Y-14906192D02*
X8874634Y-14896668D01*
X8874634Y-14896668D02*
X8903206Y-14896668D01*
X8903206Y-14896668D02*
X8922253Y-14906192D01*
X8922253Y-14906192D02*
X8931777Y-14915716D01*
X8931777Y-14915716D02*
X8941301Y-14934763D01*
X8941301Y-14934763D02*
X8941301Y-14991906D01*
X8941301Y-14991906D02*
X8931777Y-15010954D01*
X8931777Y-15010954D02*
X8922253Y-15020478D01*
X8922253Y-15020478D02*
X8903206Y-15030001D01*
X8903206Y-15030001D02*
X8874634Y-15030001D01*
X9055587Y-15030001D02*
X9036539Y-15020478D01*
X9036539Y-15020478D02*
X9027015Y-15001430D01*
X9027015Y-15001430D02*
X9027015Y-14830001D01*
X9207968Y-15020478D02*
X9188920Y-15030001D01*
X9188920Y-15030001D02*
X9150825Y-15030001D01*
X9150825Y-15030001D02*
X9131777Y-15020478D01*
X9131777Y-15020478D02*
X9122253Y-15001430D01*
X9122253Y-15001430D02*
X9122253Y-14925239D01*
X9122253Y-14925239D02*
X9131777Y-14906192D01*
X9131777Y-14906192D02*
X9150825Y-14896668D01*
X9150825Y-14896668D02*
X9188920Y-14896668D01*
X9188920Y-14896668D02*
X9207968Y-14906192D01*
X9207968Y-14906192D02*
X9217492Y-14925239D01*
X9217492Y-14925239D02*
X9217492Y-14944287D01*
X9217492Y-14944287D02*
X9122253Y-14963335D01*
X9293682Y-15020478D02*
X9312730Y-15030001D01*
X9312730Y-15030001D02*
X9350825Y-15030001D01*
X9350825Y-15030001D02*
X9369873Y-15020478D01*
X9369873Y-15020478D02*
X9379396Y-15001430D01*
X9379396Y-15001430D02*
X9379396Y-14991906D01*
X9379396Y-14991906D02*
X9369873Y-14972858D01*
X9369873Y-14972858D02*
X9350825Y-14963335D01*
X9350825Y-14963335D02*
X9322253Y-14963335D01*
X9322253Y-14963335D02*
X9303206Y-14953811D01*
X9303206Y-14953811D02*
X9293682Y-14934763D01*
X9293682Y-14934763D02*
X9293682Y-14925239D01*
X9293682Y-14925239D02*
X9303206Y-14906192D01*
X9303206Y-14906192D02*
X9322253Y-14896668D01*
X9322253Y-14896668D02*
X9350825Y-14896668D01*
X9350825Y-14896668D02*
X9369873Y-14906192D01*
X9446063Y-15106192D02*
X9455587Y-15096668D01*
X9455587Y-15096668D02*
X9474634Y-15068097D01*
X9474634Y-15068097D02*
X9484158Y-15049049D01*
X9484158Y-15049049D02*
X9493682Y-15020478D01*
X9493682Y-15020478D02*
X9503206Y-14972858D01*
X9503206Y-14972858D02*
X9503206Y-14934763D01*
X9503206Y-14934763D02*
X9493682Y-14887144D01*
X9493682Y-14887144D02*
X9484158Y-14858573D01*
X9484158Y-14858573D02*
X9474634Y-14839525D01*
X9474634Y-14839525D02*
X9455587Y-14810954D01*
X9455587Y-14810954D02*
X9446063Y-14801430D01*
X4571000Y-15128518D02*
X4571000Y-15328518D01*
X4471000Y-15228518D02*
X4671000Y-15228518D01*
X4671000Y-15228518D02*
G75*
G02*
X4471000Y-15228518I-100000J0D01*
G01*
X4471000Y-15228518D02*
G75*
G02*
X4671000Y-15228518I100000J0D01*
G01*
X4912729Y-15120001D02*
X5036539Y-15120001D01*
X5036539Y-15120001D02*
X4969872Y-15196192D01*
X4969872Y-15196192D02*
X4998444Y-15196192D01*
X4998444Y-15196192D02*
X5017491Y-15205716D01*
X5017491Y-15205716D02*
X5027015Y-15215239D01*
X5027015Y-15215239D02*
X5036539Y-15234287D01*
X5036539Y-15234287D02*
X5036539Y-15281906D01*
X5036539Y-15281906D02*
X5027015Y-15300954D01*
X5027015Y-15300954D02*
X5017491Y-15310478D01*
X5017491Y-15310478D02*
X4998444Y-15320001D01*
X4998444Y-15320001D02*
X4941301Y-15320001D01*
X4941301Y-15320001D02*
X4922253Y-15310478D01*
X4922253Y-15310478D02*
X4912729Y-15300954D01*
X5122253Y-15300954D02*
X5131777Y-15310478D01*
X5131777Y-15310478D02*
X5122253Y-15320001D01*
X5122253Y-15320001D02*
X5112729Y-15310478D01*
X5112729Y-15310478D02*
X5122253Y-15300954D01*
X5122253Y-15300954D02*
X5122253Y-15320001D01*
X5207967Y-15139049D02*
X5217491Y-15129525D01*
X5217491Y-15129525D02*
X5236539Y-15120001D01*
X5236539Y-15120001D02*
X5284158Y-15120001D01*
X5284158Y-15120001D02*
X5303205Y-15129525D01*
X5303205Y-15129525D02*
X5312729Y-15139049D01*
X5312729Y-15139049D02*
X5322253Y-15158097D01*
X5322253Y-15158097D02*
X5322253Y-15177144D01*
X5322253Y-15177144D02*
X5312729Y-15205716D01*
X5312729Y-15205716D02*
X5198444Y-15320001D01*
X5198444Y-15320001D02*
X5322253Y-15320001D01*
X5446063Y-15120001D02*
X5465110Y-15120001D01*
X5465110Y-15120001D02*
X5484158Y-15129525D01*
X5484158Y-15129525D02*
X5493682Y-15139049D01*
X5493682Y-15139049D02*
X5503205Y-15158097D01*
X5503205Y-15158097D02*
X5512729Y-15196192D01*
X5512729Y-15196192D02*
X5512729Y-15243811D01*
X5512729Y-15243811D02*
X5503205Y-15281906D01*
X5503205Y-15281906D02*
X5493682Y-15300954D01*
X5493682Y-15300954D02*
X5484158Y-15310478D01*
X5484158Y-15310478D02*
X5465110Y-15320001D01*
X5465110Y-15320001D02*
X5446063Y-15320001D01*
X5446063Y-15320001D02*
X5427015Y-15310478D01*
X5427015Y-15310478D02*
X5417491Y-15300954D01*
X5417491Y-15300954D02*
X5407967Y-15281906D01*
X5407967Y-15281906D02*
X5398444Y-15243811D01*
X5398444Y-15243811D02*
X5398444Y-15196192D01*
X5398444Y-15196192D02*
X5407967Y-15158097D01*
X5407967Y-15158097D02*
X5417491Y-15139049D01*
X5417491Y-15139049D02*
X5427015Y-15129525D01*
X5427015Y-15129525D02*
X5446063Y-15120001D01*
X5636539Y-15120001D02*
X5655586Y-15120001D01*
X5655586Y-15120001D02*
X5674634Y-15129525D01*
X5674634Y-15129525D02*
X5684158Y-15139049D01*
X5684158Y-15139049D02*
X5693682Y-15158097D01*
X5693682Y-15158097D02*
X5703205Y-15196192D01*
X5703205Y-15196192D02*
X5703205Y-15243811D01*
X5703205Y-15243811D02*
X5693682Y-15281906D01*
X5693682Y-15281906D02*
X5684158Y-15300954D01*
X5684158Y-15300954D02*
X5674634Y-15310478D01*
X5674634Y-15310478D02*
X5655586Y-15320001D01*
X5655586Y-15320001D02*
X5636539Y-15320001D01*
X5636539Y-15320001D02*
X5617491Y-15310478D01*
X5617491Y-15310478D02*
X5607967Y-15300954D01*
X5607967Y-15300954D02*
X5598443Y-15281906D01*
X5598443Y-15281906D02*
X5588920Y-15243811D01*
X5588920Y-15243811D02*
X5588920Y-15196192D01*
X5588920Y-15196192D02*
X5598443Y-15158097D01*
X5598443Y-15158097D02*
X5607967Y-15139049D01*
X5607967Y-15139049D02*
X5617491Y-15129525D01*
X5617491Y-15129525D02*
X5636539Y-15120001D01*
X5788920Y-15320001D02*
X5788920Y-15186668D01*
X5788920Y-15205716D02*
X5798443Y-15196192D01*
X5798443Y-15196192D02*
X5817491Y-15186668D01*
X5817491Y-15186668D02*
X5846063Y-15186668D01*
X5846063Y-15186668D02*
X5865110Y-15196192D01*
X5865110Y-15196192D02*
X5874634Y-15215239D01*
X5874634Y-15215239D02*
X5874634Y-15320001D01*
X5874634Y-15215239D02*
X5884158Y-15196192D01*
X5884158Y-15196192D02*
X5903205Y-15186668D01*
X5903205Y-15186668D02*
X5931777Y-15186668D01*
X5931777Y-15186668D02*
X5950824Y-15196192D01*
X5950824Y-15196192D02*
X5960348Y-15215239D01*
X5960348Y-15215239D02*
X5960348Y-15320001D01*
X6055586Y-15320001D02*
X6055586Y-15186668D01*
X6055586Y-15205716D02*
X6065110Y-15196192D01*
X6065110Y-15196192D02*
X6084158Y-15186668D01*
X6084158Y-15186668D02*
X6112729Y-15186668D01*
X6112729Y-15186668D02*
X6131777Y-15196192D01*
X6131777Y-15196192D02*
X6141301Y-15215239D01*
X6141301Y-15215239D02*
X6141301Y-15320001D01*
X6141301Y-15215239D02*
X6150824Y-15196192D01*
X6150824Y-15196192D02*
X6169872Y-15186668D01*
X6169872Y-15186668D02*
X6198443Y-15186668D01*
X6198443Y-15186668D02*
X6217491Y-15196192D01*
X6217491Y-15196192D02*
X6227015Y-15215239D01*
X6227015Y-15215239D02*
X6227015Y-15320001D01*
X6617491Y-15110478D02*
X6446063Y-15367620D01*
X6874634Y-15120001D02*
X6893682Y-15120001D01*
X6893682Y-15120001D02*
X6912729Y-15129525D01*
X6912729Y-15129525D02*
X6922253Y-15139049D01*
X6922253Y-15139049D02*
X6931777Y-15158097D01*
X6931777Y-15158097D02*
X6941301Y-15196192D01*
X6941301Y-15196192D02*
X6941301Y-15243811D01*
X6941301Y-15243811D02*
X6931777Y-15281906D01*
X6931777Y-15281906D02*
X6922253Y-15300954D01*
X6922253Y-15300954D02*
X6912729Y-15310478D01*
X6912729Y-15310478D02*
X6893682Y-15320001D01*
X6893682Y-15320001D02*
X6874634Y-15320001D01*
X6874634Y-15320001D02*
X6855586Y-15310478D01*
X6855586Y-15310478D02*
X6846063Y-15300954D01*
X6846063Y-15300954D02*
X6836539Y-15281906D01*
X6836539Y-15281906D02*
X6827015Y-15243811D01*
X6827015Y-15243811D02*
X6827015Y-15196192D01*
X6827015Y-15196192D02*
X6836539Y-15158097D01*
X6836539Y-15158097D02*
X6846063Y-15139049D01*
X6846063Y-15139049D02*
X6855586Y-15129525D01*
X6855586Y-15129525D02*
X6874634Y-15120001D01*
X7027015Y-15300954D02*
X7036539Y-15310478D01*
X7036539Y-15310478D02*
X7027015Y-15320001D01*
X7027015Y-15320001D02*
X7017491Y-15310478D01*
X7017491Y-15310478D02*
X7027015Y-15300954D01*
X7027015Y-15300954D02*
X7027015Y-15320001D01*
X7227015Y-15320001D02*
X7112729Y-15320001D01*
X7169872Y-15320001D02*
X7169872Y-15120001D01*
X7169872Y-15120001D02*
X7150825Y-15148573D01*
X7150825Y-15148573D02*
X7131777Y-15167620D01*
X7131777Y-15167620D02*
X7112729Y-15177144D01*
X7303206Y-15139049D02*
X7312729Y-15129525D01*
X7312729Y-15129525D02*
X7331777Y-15120001D01*
X7331777Y-15120001D02*
X7379396Y-15120001D01*
X7379396Y-15120001D02*
X7398444Y-15129525D01*
X7398444Y-15129525D02*
X7407967Y-15139049D01*
X7407967Y-15139049D02*
X7417491Y-15158097D01*
X7417491Y-15158097D02*
X7417491Y-15177144D01*
X7417491Y-15177144D02*
X7407967Y-15205716D01*
X7407967Y-15205716D02*
X7293682Y-15320001D01*
X7293682Y-15320001D02*
X7417491Y-15320001D01*
X7588920Y-15120001D02*
X7550825Y-15120001D01*
X7550825Y-15120001D02*
X7531777Y-15129525D01*
X7531777Y-15129525D02*
X7522253Y-15139049D01*
X7522253Y-15139049D02*
X7503206Y-15167620D01*
X7503206Y-15167620D02*
X7493682Y-15205716D01*
X7493682Y-15205716D02*
X7493682Y-15281906D01*
X7493682Y-15281906D02*
X7503206Y-15300954D01*
X7503206Y-15300954D02*
X7512729Y-15310478D01*
X7512729Y-15310478D02*
X7531777Y-15320001D01*
X7531777Y-15320001D02*
X7569872Y-15320001D01*
X7569872Y-15320001D02*
X7588920Y-15310478D01*
X7588920Y-15310478D02*
X7598444Y-15300954D01*
X7598444Y-15300954D02*
X7607967Y-15281906D01*
X7607967Y-15281906D02*
X7607967Y-15234287D01*
X7607967Y-15234287D02*
X7598444Y-15215239D01*
X7598444Y-15215239D02*
X7588920Y-15205716D01*
X7588920Y-15205716D02*
X7569872Y-15196192D01*
X7569872Y-15196192D02*
X7531777Y-15196192D01*
X7531777Y-15196192D02*
X7512729Y-15205716D01*
X7512729Y-15205716D02*
X7503206Y-15215239D01*
X7503206Y-15215239D02*
X7493682Y-15234287D01*
X7731777Y-15120001D02*
X7750825Y-15120001D01*
X7750825Y-15120001D02*
X7769872Y-15129525D01*
X7769872Y-15129525D02*
X7779396Y-15139049D01*
X7779396Y-15139049D02*
X7788920Y-15158097D01*
X7788920Y-15158097D02*
X7798444Y-15196192D01*
X7798444Y-15196192D02*
X7798444Y-15243811D01*
X7798444Y-15243811D02*
X7788920Y-15281906D01*
X7788920Y-15281906D02*
X7779396Y-15300954D01*
X7779396Y-15300954D02*
X7769872Y-15310478D01*
X7769872Y-15310478D02*
X7750825Y-15320001D01*
X7750825Y-15320001D02*
X7731777Y-15320001D01*
X7731777Y-15320001D02*
X7712729Y-15310478D01*
X7712729Y-15310478D02*
X7703206Y-15300954D01*
X7703206Y-15300954D02*
X7693682Y-15281906D01*
X7693682Y-15281906D02*
X7684158Y-15243811D01*
X7684158Y-15243811D02*
X7684158Y-15196192D01*
X7684158Y-15196192D02*
X7693682Y-15158097D01*
X7693682Y-15158097D02*
X7703206Y-15139049D01*
X7703206Y-15139049D02*
X7712729Y-15129525D01*
X7712729Y-15129525D02*
X7731777Y-15120001D01*
X7874634Y-15120001D02*
X7874634Y-15158097D01*
X7950825Y-15120001D02*
X7950825Y-15158097D01*
X8246063Y-15396192D02*
X8236539Y-15386668D01*
X8236539Y-15386668D02*
X8217491Y-15358097D01*
X8217491Y-15358097D02*
X8207968Y-15339049D01*
X8207968Y-15339049D02*
X8198444Y-15310478D01*
X8198444Y-15310478D02*
X8188920Y-15262858D01*
X8188920Y-15262858D02*
X8188920Y-15224763D01*
X8188920Y-15224763D02*
X8198444Y-15177144D01*
X8198444Y-15177144D02*
X8207968Y-15148573D01*
X8207968Y-15148573D02*
X8217491Y-15129525D01*
X8217491Y-15129525D02*
X8236539Y-15100954D01*
X8236539Y-15100954D02*
X8246063Y-15091430D01*
X8407968Y-15120001D02*
X8369872Y-15120001D01*
X8369872Y-15120001D02*
X8350825Y-15129525D01*
X8350825Y-15129525D02*
X8341301Y-15139049D01*
X8341301Y-15139049D02*
X8322253Y-15167620D01*
X8322253Y-15167620D02*
X8312729Y-15205716D01*
X8312729Y-15205716D02*
X8312729Y-15281906D01*
X8312729Y-15281906D02*
X8322253Y-15300954D01*
X8322253Y-15300954D02*
X8331777Y-15310478D01*
X8331777Y-15310478D02*
X8350825Y-15320001D01*
X8350825Y-15320001D02*
X8388920Y-15320001D01*
X8388920Y-15320001D02*
X8407968Y-15310478D01*
X8407968Y-15310478D02*
X8417491Y-15300954D01*
X8417491Y-15300954D02*
X8427015Y-15281906D01*
X8427015Y-15281906D02*
X8427015Y-15234287D01*
X8427015Y-15234287D02*
X8417491Y-15215239D01*
X8417491Y-15215239D02*
X8407968Y-15205716D01*
X8407968Y-15205716D02*
X8388920Y-15196192D01*
X8388920Y-15196192D02*
X8350825Y-15196192D01*
X8350825Y-15196192D02*
X8331777Y-15205716D01*
X8331777Y-15205716D02*
X8322253Y-15215239D01*
X8322253Y-15215239D02*
X8312729Y-15234287D01*
X8665111Y-15320001D02*
X8665111Y-15120001D01*
X8750825Y-15320001D02*
X8750825Y-15215239D01*
X8750825Y-15215239D02*
X8741301Y-15196192D01*
X8741301Y-15196192D02*
X8722253Y-15186668D01*
X8722253Y-15186668D02*
X8693682Y-15186668D01*
X8693682Y-15186668D02*
X8674634Y-15196192D01*
X8674634Y-15196192D02*
X8665111Y-15205716D01*
X8874634Y-15320001D02*
X8855587Y-15310478D01*
X8855587Y-15310478D02*
X8846063Y-15300954D01*
X8846063Y-15300954D02*
X8836539Y-15281906D01*
X8836539Y-15281906D02*
X8836539Y-15224763D01*
X8836539Y-15224763D02*
X8846063Y-15205716D01*
X8846063Y-15205716D02*
X8855587Y-15196192D01*
X8855587Y-15196192D02*
X8874634Y-15186668D01*
X8874634Y-15186668D02*
X8903206Y-15186668D01*
X8903206Y-15186668D02*
X8922253Y-15196192D01*
X8922253Y-15196192D02*
X8931777Y-15205716D01*
X8931777Y-15205716D02*
X8941301Y-15224763D01*
X8941301Y-15224763D02*
X8941301Y-15281906D01*
X8941301Y-15281906D02*
X8931777Y-15300954D01*
X8931777Y-15300954D02*
X8922253Y-15310478D01*
X8922253Y-15310478D02*
X8903206Y-15320001D01*
X8903206Y-15320001D02*
X8874634Y-15320001D01*
X9055587Y-15320001D02*
X9036539Y-15310478D01*
X9036539Y-15310478D02*
X9027015Y-15291430D01*
X9027015Y-15291430D02*
X9027015Y-15120001D01*
X9207968Y-15310478D02*
X9188920Y-15320001D01*
X9188920Y-15320001D02*
X9150825Y-15320001D01*
X9150825Y-15320001D02*
X9131777Y-15310478D01*
X9131777Y-15310478D02*
X9122253Y-15291430D01*
X9122253Y-15291430D02*
X9122253Y-15215239D01*
X9122253Y-15215239D02*
X9131777Y-15196192D01*
X9131777Y-15196192D02*
X9150825Y-15186668D01*
X9150825Y-15186668D02*
X9188920Y-15186668D01*
X9188920Y-15186668D02*
X9207968Y-15196192D01*
X9207968Y-15196192D02*
X9217492Y-15215239D01*
X9217492Y-15215239D02*
X9217492Y-15234287D01*
X9217492Y-15234287D02*
X9122253Y-15253335D01*
X9293682Y-15310478D02*
X9312730Y-15320001D01*
X9312730Y-15320001D02*
X9350825Y-15320001D01*
X9350825Y-15320001D02*
X9369873Y-15310478D01*
X9369873Y-15310478D02*
X9379396Y-15291430D01*
X9379396Y-15291430D02*
X9379396Y-15281906D01*
X9379396Y-15281906D02*
X9369873Y-15262858D01*
X9369873Y-15262858D02*
X9350825Y-15253335D01*
X9350825Y-15253335D02*
X9322253Y-15253335D01*
X9322253Y-15253335D02*
X9303206Y-15243811D01*
X9303206Y-15243811D02*
X9293682Y-15224763D01*
X9293682Y-15224763D02*
X9293682Y-15215239D01*
X9293682Y-15215239D02*
X9303206Y-15196192D01*
X9303206Y-15196192D02*
X9322253Y-15186668D01*
X9322253Y-15186668D02*
X9350825Y-15186668D01*
X9350825Y-15186668D02*
X9369873Y-15196192D01*
X9446063Y-15396192D02*
X9455587Y-15386668D01*
X9455587Y-15386668D02*
X9474634Y-15358097D01*
X9474634Y-15358097D02*
X9484158Y-15339049D01*
X9484158Y-15339049D02*
X9493682Y-15310478D01*
X9493682Y-15310478D02*
X9503206Y-15262858D01*
X9503206Y-15262858D02*
X9503206Y-15224763D01*
X9503206Y-15224763D02*
X9493682Y-15177144D01*
X9493682Y-15177144D02*
X9484158Y-15148573D01*
X9484158Y-15148573D02*
X9474634Y-15129525D01*
X9474634Y-15129525D02*
X9455587Y-15100954D01*
X9455587Y-15100954D02*
X9446063Y-15091430D01*
M02*
