%TF.GenerationSoftware,KiCad,Pcbnew,8.0.6*%
%TF.CreationDate,2026-05-30T20:44:26+02:00*%
%TF.ProjectId,untitled,756e7469-746c-4656-942e-6b696361645f,rev?*%
%TF.SameCoordinates,Original*%
%TF.FileFunction,Drillmap*%
%TF.FilePolarity,Positive*%
%FSLAX45Y45*%
G04 Gerber Fmt 4.5, Leading zero omitted, Abs format (unit mm)*
G04 Created by KiCad (PCBNEW 8.0.6) date 2026-05-30 20:44:26*
%MOMM*%
%LPD*%
G01*
G04 APERTURE LIST*
%ADD10C,0.050000*%
%ADD11C,0.200000*%
G04 APERTURE END LIST*
D10*
X14004000Y-4522000D02*
X14068500Y-4522000D01*
X14071000Y-6843000D02*
X14002000Y-6841500D01*
X14070250Y-6861500D02*
X14071000Y-6843000D01*
X14002500Y-4567000D02*
X14070000Y-4567000D01*
X14070000Y-6792000D01*
X14002500Y-6792000D01*
X14002500Y-4567000D01*
X7073500Y-9437000D02*
X7140000Y-9437000D01*
X7073500Y-6087000D02*
X7138000Y-6087000D01*
X11408769Y-6939018D02*
X11408769Y-6839500D01*
X14002000Y-6841500D02*
X11408769Y-6839500D01*
X7213500Y-6839500D02*
X11231269Y-6839500D01*
X11231269Y-6939018D01*
X7213500Y-6939018D01*
X7213500Y-6839500D01*
X7073500Y-6183500D02*
X7138000Y-6183500D01*
X7138000Y-6791500D01*
X7073500Y-6791500D01*
X7073500Y-6183500D01*
X7073500Y-7008000D02*
X7140000Y-7008000D01*
X7140000Y-9327000D01*
X7073500Y-9327000D01*
X7073500Y-7008000D01*
X11408769Y-8059018D02*
X11408769Y-6939018D01*
X12368769Y-9019018D02*
X12368769Y-11099018D01*
X13078769Y-12184018D02*
X9963769Y-12184018D01*
X9963769Y-12184018D02*
X7133769Y-12184018D01*
X12368769Y-9019018D02*
X11408769Y-8059018D01*
X13078769Y-11099018D02*
X12368769Y-11099018D01*
X7133769Y-12184018D02*
X7140000Y-9437000D01*
X13078769Y-11099018D02*
X13078769Y-12184018D01*
X6423500Y-6087000D02*
X7073500Y-6087000D01*
X6423500Y-9437000D02*
X6423500Y-10737000D01*
X4673500Y-10737000D02*
X4673500Y-4737000D01*
X6423500Y-4737000D02*
X6423500Y-6087000D01*
X4673500Y-4737000D02*
X6423500Y-4737000D01*
X7073500Y-9437000D02*
X6423500Y-9437000D01*
X6423500Y-10737000D02*
X4673500Y-10737000D01*
X8141000Y-3518500D02*
X9662000Y-3519000D01*
X7138000Y-6087000D02*
X7136500Y-4522000D01*
X9662000Y-3107500D02*
X11519500Y-3108000D01*
X7136500Y-4522000D02*
X8141000Y-3518500D01*
X11519500Y-3108000D02*
X11519500Y-3522000D01*
X11519500Y-3522000D02*
X13005000Y-3522000D01*
X13005000Y-3522000D02*
X14004000Y-4522000D01*
X9662000Y-3519000D02*
X9662000Y-3107500D01*
X17269250Y-6862500D02*
X17271250Y-7919500D01*
X17689250Y-10834000D02*
X17689250Y-7919500D01*
X17269250Y-6862500D02*
X17269000Y-5603500D01*
X14068500Y-4342500D02*
X14068500Y-4522000D01*
X14417750Y-8921000D02*
X13092250Y-8921000D01*
X13091250Y-7929500D02*
X14070250Y-6861500D01*
X14417750Y-8863000D02*
X14417750Y-8921000D01*
X13092250Y-8863000D02*
X14417750Y-8863000D01*
X13091750Y-9877500D02*
X14102250Y-9877000D01*
X13092250Y-8921000D02*
X13091750Y-9877500D01*
X13091250Y-7929500D02*
X13092250Y-8863000D01*
X14102250Y-9877000D02*
X14102750Y-10834000D01*
X17271250Y-7919500D02*
X17689250Y-7919500D01*
X14102750Y-10834000D02*
X17689250Y-10834000D01*
X17690250Y-4342000D02*
X14068500Y-4342500D01*
X17269000Y-5603500D02*
X17691250Y-5603500D01*
X17691250Y-5603500D02*
X17690250Y-4342000D01*
D11*
X4931777Y-12498001D02*
X4931777Y-12298001D01*
X4931777Y-12298001D02*
X4979396Y-12298001D01*
X4979396Y-12298001D02*
X5007967Y-12307525D01*
X5007967Y-12307525D02*
X5027015Y-12326573D01*
X5027015Y-12326573D02*
X5036539Y-12345620D01*
X5036539Y-12345620D02*
X5046063Y-12383716D01*
X5046063Y-12383716D02*
X5046063Y-12412287D01*
X5046063Y-12412287D02*
X5036539Y-12450382D01*
X5036539Y-12450382D02*
X5027015Y-12469430D01*
X5027015Y-12469430D02*
X5007967Y-12488478D01*
X5007967Y-12488478D02*
X4979396Y-12498001D01*
X4979396Y-12498001D02*
X4931777Y-12498001D01*
X5131777Y-12498001D02*
X5131777Y-12364668D01*
X5131777Y-12402763D02*
X5141301Y-12383716D01*
X5141301Y-12383716D02*
X5150824Y-12374192D01*
X5150824Y-12374192D02*
X5169872Y-12364668D01*
X5169872Y-12364668D02*
X5188920Y-12364668D01*
X5255586Y-12498001D02*
X5255586Y-12364668D01*
X5255586Y-12298001D02*
X5246063Y-12307525D01*
X5246063Y-12307525D02*
X5255586Y-12317049D01*
X5255586Y-12317049D02*
X5265110Y-12307525D01*
X5265110Y-12307525D02*
X5255586Y-12298001D01*
X5255586Y-12298001D02*
X5255586Y-12317049D01*
X5379396Y-12498001D02*
X5360348Y-12488478D01*
X5360348Y-12488478D02*
X5350824Y-12469430D01*
X5350824Y-12469430D02*
X5350824Y-12298001D01*
X5484158Y-12498001D02*
X5465110Y-12488478D01*
X5465110Y-12488478D02*
X5455586Y-12469430D01*
X5455586Y-12469430D02*
X5455586Y-12298001D01*
X5712729Y-12498001D02*
X5712729Y-12298001D01*
X5712729Y-12298001D02*
X5779396Y-12440858D01*
X5779396Y-12440858D02*
X5846062Y-12298001D01*
X5846062Y-12298001D02*
X5846062Y-12498001D01*
X6027015Y-12498001D02*
X6027015Y-12393239D01*
X6027015Y-12393239D02*
X6017491Y-12374192D01*
X6017491Y-12374192D02*
X5998443Y-12364668D01*
X5998443Y-12364668D02*
X5960348Y-12364668D01*
X5960348Y-12364668D02*
X5941301Y-12374192D01*
X6027015Y-12488478D02*
X6007967Y-12498001D01*
X6007967Y-12498001D02*
X5960348Y-12498001D01*
X5960348Y-12498001D02*
X5941301Y-12488478D01*
X5941301Y-12488478D02*
X5931777Y-12469430D01*
X5931777Y-12469430D02*
X5931777Y-12450382D01*
X5931777Y-12450382D02*
X5941301Y-12431335D01*
X5941301Y-12431335D02*
X5960348Y-12421811D01*
X5960348Y-12421811D02*
X6007967Y-12421811D01*
X6007967Y-12421811D02*
X6027015Y-12412287D01*
X6122253Y-12364668D02*
X6122253Y-12564668D01*
X6122253Y-12374192D02*
X6141301Y-12364668D01*
X6141301Y-12364668D02*
X6179396Y-12364668D01*
X6179396Y-12364668D02*
X6198443Y-12374192D01*
X6198443Y-12374192D02*
X6207967Y-12383716D01*
X6207967Y-12383716D02*
X6217491Y-12402763D01*
X6217491Y-12402763D02*
X6217491Y-12459906D01*
X6217491Y-12459906D02*
X6207967Y-12478954D01*
X6207967Y-12478954D02*
X6198443Y-12488478D01*
X6198443Y-12488478D02*
X6179396Y-12498001D01*
X6179396Y-12498001D02*
X6141301Y-12498001D01*
X6141301Y-12498001D02*
X6122253Y-12488478D01*
X6303205Y-12478954D02*
X6312729Y-12488478D01*
X6312729Y-12488478D02*
X6303205Y-12498001D01*
X6303205Y-12498001D02*
X6293682Y-12488478D01*
X6293682Y-12488478D02*
X6303205Y-12478954D01*
X6303205Y-12478954D02*
X6303205Y-12498001D01*
X6303205Y-12374192D02*
X6312729Y-12383716D01*
X6312729Y-12383716D02*
X6303205Y-12393239D01*
X6303205Y-12393239D02*
X6293682Y-12383716D01*
X6293682Y-12383716D02*
X6303205Y-12374192D01*
X6303205Y-12374192D02*
X6303205Y-12393239D01*
M02*
