%TF.GenerationSoftware,KiCad,Pcbnew,8.0.6*%
%TF.CreationDate,2026-05-30T20:44:28+02:00*%
%TF.ProjectId,untitled,756e7469-746c-4656-942e-6b696361645f,rev?*%
%TF.SameCoordinates,Original*%
%TF.FileFunction,Copper,L2,Bot*%
%TF.FilePolarity,Positive*%
%FSLAX46Y46*%
G04 Gerber Fmt 4.6, Leading zero omitted, Abs format (unit mm)*
G04 Created by KiCad (PCBNEW 8.0.6) date 2026-05-30 20:44:28*
%MOMM*%
%LPD*%
G01*
G04 APERTURE LIST*
%TA.AperFunction,ComponentPad*%
%ADD10R,1.800000X1.800000*%
%TD*%
%TA.AperFunction,ComponentPad*%
%ADD11C,1.800000*%
%TD*%
%TA.AperFunction,ComponentPad*%
%ADD12R,1.700000X1.700000*%
%TD*%
%TA.AperFunction,ComponentPad*%
%ADD13O,1.700000X1.700000*%
%TD*%
%TA.AperFunction,ComponentPad*%
%ADD14R,2.000000X2.000000*%
%TD*%
%TA.AperFunction,ComponentPad*%
%ADD15C,2.000000*%
%TD*%
%TA.AperFunction,ComponentPad*%
%ADD16R,1.600000X1.600000*%
%TD*%
%TA.AperFunction,ComponentPad*%
%ADD17C,1.600000*%
%TD*%
%TA.AperFunction,ComponentPad*%
%ADD18O,1.600000X1.600000*%
%TD*%
%TA.AperFunction,ComponentPad*%
%ADD19O,3.200000X1.900000*%
%TD*%
%TA.AperFunction,ComponentPad*%
%ADD20C,5.700000*%
%TD*%
%TA.AperFunction,ComponentPad*%
%ADD21R,1.750000X1.750000*%
%TD*%
%TA.AperFunction,ComponentPad*%
%ADD22C,1.750000*%
%TD*%
%TA.AperFunction,ComponentPad*%
%ADD23C,2.700000*%
%TD*%
%TA.AperFunction,ComponentPad*%
%ADD24C,5.600000*%
%TD*%
%TA.AperFunction,ViaPad*%
%ADD25C,0.600000*%
%TD*%
%TA.AperFunction,ViaPad*%
%ADD26C,1.500000*%
%TD*%
%TA.AperFunction,Conductor*%
%ADD27C,0.500000*%
%TD*%
%TA.AperFunction,Conductor*%
%ADD28C,2.000000*%
%TD*%
%TA.AperFunction,Conductor*%
%ADD29C,1.699800*%
%TD*%
%TA.AperFunction,Conductor*%
%ADD30C,1.599800*%
%TD*%
G04 APERTURE END LIST*
D10*
%TO.P,D1,1,K*%
%TO.N,N/C*%
X126762687Y-116090176D03*
D11*
%TO.P,D1,2,A*%
X124222687Y-116090176D03*
%TD*%
D12*
%TO.P,J2,1,Pin_1*%
%TO.N,N/C*%
X91187687Y-85190176D03*
D13*
%TO.P,J2,2,Pin_2*%
X91187687Y-82650176D03*
%TO.P,J2,3,Pin_3*%
X91187687Y-80110176D03*
%TD*%
D14*
%TO.P,C1,1*%
%TO.N,N/C*%
X81787687Y-99207876D03*
D15*
%TO.P,C1,2*%
X81787687Y-94207876D03*
%TD*%
D12*
%TO.P,J3,1,Pin_1*%
%TO.N,N/C*%
X76537687Y-85190176D03*
D13*
%TO.P,J3,2,Pin_2*%
X76537687Y-82650176D03*
%TO.P,J3,3,Pin_3*%
X76537687Y-80110176D03*
%TO.P,J3,4,Pin_4*%
X76537687Y-77570176D03*
%TO.P,J3,5,Pin_5*%
X76537687Y-75030176D03*
%TD*%
D12*
%TO.P,J8,1,Pin_1*%
%TO.N,N/C*%
X89487687Y-109890176D03*
D13*
%TO.P,J8,2,Pin_2*%
X86947687Y-109890176D03*
%TO.P,J8,3,Pin_3*%
X84407687Y-109890176D03*
%TO.P,J8,4,Pin_4*%
X81867687Y-109890176D03*
%TO.P,J8,5,Pin_5*%
X79327687Y-109890176D03*
%TD*%
D16*
%TO.P,U1,1,TX*%
%TO.N,N/C*%
X111087687Y-119490176D03*
D17*
%TO.P,U1,2,RX*%
X111087687Y-116950176D03*
%TO.P,U1,3,GND*%
X111087687Y-114410176D03*
%TO.P,U1,4,GND*%
X111087687Y-111870176D03*
%TO.P,U1,5,SDA*%
X111087687Y-109330176D03*
%TO.P,U1,6,SCL*%
X111087687Y-106790176D03*
%TO.P,U1,7,D4*%
X111087687Y-104250176D03*
%TO.P,U1,8,C6*%
X111087687Y-101710176D03*
%TO.P,U1,9,D7*%
X111087687Y-99170176D03*
%TO.P,U1,10,E6*%
X111087687Y-96630176D03*
%TO.P,U1,11,B4*%
X111087687Y-94090176D03*
%TO.P,U1,12,B5*%
X111087687Y-91550176D03*
%TO.P,U1,13,B6*%
X95847687Y-91550176D03*
%TO.P,U1,14,B2*%
X95847687Y-94090176D03*
%TO.P,U1,15,B3*%
X95847687Y-96630176D03*
%TO.P,U1,16,B1*%
X95847687Y-99170176D03*
%TO.P,U1,17,F7*%
X95847687Y-101710176D03*
%TO.P,U1,18,F6*%
X95847687Y-104250176D03*
%TO.P,U1,19,F5*%
X95847687Y-106790176D03*
%TO.P,U1,20,F4*%
X95847687Y-109330176D03*
%TO.P,U1,21,VCC*%
X95847687Y-111870176D03*
%TO.P,U1,22,RST*%
X95847687Y-114410176D03*
%TO.P,U1,23,GND*%
X95847687Y-116950176D03*
%TO.P,U1,24,RAW*%
X95847687Y-119490176D03*
%TD*%
D12*
%TO.P,J7,1,Pin_1*%
%TO.N,N/C*%
X89437687Y-107290176D03*
D13*
%TO.P,J7,2,Pin_2*%
X86897687Y-107290176D03*
%TO.P,J7,3,Pin_3*%
X84357687Y-107290176D03*
%TO.P,J7,4,Pin_4*%
X81817687Y-107290176D03*
%TO.P,J7,5,Pin_5*%
X79277687Y-107290176D03*
%TD*%
D17*
%TO.P,R1,1*%
%TO.N,N/C*%
X116537687Y-119040176D03*
D18*
%TO.P,R1,2*%
X116537687Y-106340176D03*
%TD*%
D12*
%TO.P,J5,1,Pin_1*%
%TO.N,N/C*%
X116587687Y-100290176D03*
D13*
%TO.P,J5,2,Pin_2*%
X116587687Y-97750176D03*
%TO.P,J5,3,Pin_3*%
X116587687Y-95210176D03*
%TO.P,J5,4,Pin_4*%
X116587687Y-92670176D03*
%TD*%
D12*
%TO.P,J4,1,Pin_1*%
%TO.N,N/C*%
X111087687Y-84940176D03*
D13*
%TO.P,J4,2,Pin_2*%
X111087687Y-82400176D03*
%TO.P,J4,3,Pin_3*%
X111087687Y-79860176D03*
%TO.P,J4,4,Pin_4*%
X111087687Y-77320176D03*
%TD*%
D12*
%TO.P,J6,1,Pin_1*%
%TO.N,N/C*%
X89517687Y-112490176D03*
D13*
%TO.P,J6,2,Pin_2*%
X86977687Y-112490176D03*
%TO.P,J6,3,Pin_3*%
X84437687Y-112490176D03*
%TO.P,J6,4,Pin_4*%
X81897687Y-112490176D03*
%TO.P,J6,5,Pin_5*%
X79357687Y-112490176D03*
%TD*%
D12*
%TO.P,J1,1,Pin_1*%
%TO.N,N/C*%
X97637687Y-85240176D03*
D13*
%TO.P,J1,2,Pin_2*%
X97637687Y-82700176D03*
%TO.P,J1,3,Pin_3*%
X97637687Y-80160176D03*
%TO.P,J1,4,Pin_4*%
X97637687Y-77620176D03*
%TO.P,J1,5,Pin_5*%
X97637687Y-75080176D03*
%TO.P,J1,6,Pin_6*%
X97637687Y-72540176D03*
%TD*%
D19*
%TO.P,SW1,4,4*%
%TO.N,N/C*%
X49485000Y-87870000D03*
%TO.P,SW1,3,3*%
X61985000Y-87870000D03*
%TO.P,SW1,2,2*%
X49485000Y-92870000D03*
%TO.P,SW1,1,1*%
X61985000Y-92870000D03*
%TD*%
D20*
%TO.P,REF\u002A\u002A,1*%
%TO.N,N/C*%
X55735000Y-52370000D03*
%TD*%
D19*
%TO.P,SW2,4,4*%
%TO.N,N/C*%
X49485000Y-62870000D03*
%TO.P,SW2,3,3*%
X61985000Y-62870000D03*
%TO.P,SW2,2,2*%
X49485000Y-67870000D03*
%TO.P,SW2,1,1*%
X61985000Y-67870000D03*
%TD*%
D20*
%TO.P,REF\u002A\u002A,1*%
%TO.N,N/C*%
X55735000Y-103370000D03*
%TD*%
%TO.P,,1*%
%TO.N,N/C*%
X55735000Y-52370000D03*
%TD*%
D13*
%TO.P,J1,3,Pin_3*%
%TO.N,N/C*%
X68760000Y-79925000D03*
%TO.P,J1,2,Pin_2*%
X68760000Y-77385000D03*
D12*
%TO.P,J1,1,Pin_1*%
X68760000Y-74845000D03*
%TD*%
%TO.P,J1,1,Pin_1*%
%TO.N,N/C*%
X100865000Y-33080000D03*
D13*
%TO.P,J1,2,Pin_2*%
X103405000Y-33080000D03*
%TO.P,J1,3,Pin_3*%
X105945000Y-33080000D03*
%TO.P,J1,4,Pin_4*%
X108485000Y-33080000D03*
%TO.P,J1,5,Pin_5*%
X111025000Y-33080000D03*
%TD*%
D16*
%TO.P,U3,1,Ds*%
%TO.N,N/C*%
X125290000Y-42855000D03*
D18*
%TO.P,U3,2,A*%
X125290000Y-45395000D03*
%TO.P,U3,3,B*%
X125290000Y-47935000D03*
%TO.P,U3,4,C*%
X125290000Y-50475000D03*
%TO.P,U3,5,D*%
X125290000Y-53015000D03*
%TO.P,U3,6,CE*%
X125290000Y-55555000D03*
%TO.P,U3,7,Clk*%
X125290000Y-58095000D03*
%TO.P,U3,8,GND*%
X125290000Y-60635000D03*
%TO.P,U3,9,Clr*%
X132910000Y-60635000D03*
%TO.P,U3,10,E*%
X132910000Y-58095000D03*
%TO.P,U3,11,F*%
X132910000Y-55555000D03*
%TO.P,U3,12,G*%
X132910000Y-53015000D03*
%TO.P,U3,13,Qh*%
X132910000Y-50475000D03*
%TO.P,U3,14,H*%
X132910000Y-47935000D03*
%TO.P,U3,15,PE*%
X132910000Y-45395000D03*
%TO.P,U3,16,VCC*%
X132910000Y-42855000D03*
%TD*%
D12*
%TO.P,J2,1,Pin_1*%
%TO.N,N/C*%
X91300000Y-66340000D03*
D13*
%TO.P,J2,2,Pin_2*%
X88760000Y-66340000D03*
%TO.P,J2,3,Pin_3*%
X86220000Y-66340000D03*
%TO.P,J2,4,Pin_4*%
X83680000Y-66340000D03*
%TO.P,J2,5,Pin_5*%
X81140000Y-66340000D03*
%TO.P,J2,6,Pin_6*%
X78600000Y-66340000D03*
%TO.P,J2,7,Pin_7*%
X76060000Y-66340000D03*
%TO.P,J2,8,Pin_8*%
X73520000Y-66340000D03*
%TD*%
D12*
%TO.P,J5,1,Pin_1*%
%TO.N,N/C*%
X117365000Y-66450000D03*
%TD*%
D16*
%TO.P,U2,1,Ds*%
%TO.N,N/C*%
X101985000Y-42745000D03*
D18*
%TO.P,U2,2,A*%
X101985000Y-45285000D03*
%TO.P,U2,3,B*%
X101985000Y-47825000D03*
%TO.P,U2,4,C*%
X101985000Y-50365000D03*
%TO.P,U2,5,D*%
X101985000Y-52905000D03*
%TO.P,U2,6,CE*%
X101985000Y-55445000D03*
%TO.P,U2,7,Clk*%
X101985000Y-57985000D03*
%TO.P,U2,8,GND*%
X101985000Y-60525000D03*
%TO.P,U2,9,Clr*%
X109605000Y-60525000D03*
%TO.P,U2,10,E*%
X109605000Y-57985000D03*
%TO.P,U2,11,F*%
X109605000Y-55445000D03*
%TO.P,U2,12,G*%
X109605000Y-52905000D03*
%TO.P,U2,13,Qh*%
X109605000Y-50365000D03*
%TO.P,U2,14,H*%
X109605000Y-47825000D03*
%TO.P,U2,15,PE*%
X109605000Y-45285000D03*
%TO.P,U2,16,VCC*%
X109605000Y-42745000D03*
%TD*%
D12*
%TO.P,J4,1,Pin_1*%
%TO.N,N/C*%
X137915000Y-66350000D03*
D13*
%TO.P,J4,2,Pin_2*%
X135375000Y-66350000D03*
%TO.P,J4,3,Pin_3*%
X132835000Y-66350000D03*
%TO.P,J4,4,Pin_4*%
X130295000Y-66350000D03*
%TO.P,J4,5,Pin_5*%
X127755000Y-66350000D03*
%TO.P,J4,6,Pin_6*%
X125215000Y-66350000D03*
%TO.P,J4,7,Pin_7*%
X122675000Y-66350000D03*
%TO.P,J4,8,Pin_8*%
X120135000Y-66350000D03*
%TD*%
D12*
%TO.P,J3,1,Pin_1*%
%TO.N,N/C*%
X114605000Y-66460000D03*
D13*
%TO.P,J3,2,Pin_2*%
X112065000Y-66460000D03*
%TO.P,J3,3,Pin_3*%
X109525000Y-66460000D03*
%TO.P,J3,4,Pin_4*%
X106985000Y-66460000D03*
%TO.P,J3,5,Pin_5*%
X104445000Y-66460000D03*
%TO.P,J3,6,Pin_6*%
X101905000Y-66460000D03*
%TO.P,J3,7,Pin_7*%
X99365000Y-66460000D03*
%TO.P,J3,8,Pin_8*%
X96825000Y-66460000D03*
%TD*%
D16*
%TO.P,U1,1,Ds*%
%TO.N,N/C*%
X78570000Y-42530000D03*
D18*
%TO.P,U1,2,A*%
X78570000Y-45070000D03*
%TO.P,U1,3,B*%
X78570000Y-47610000D03*
%TO.P,U1,4,C*%
X78570000Y-50150000D03*
%TO.P,U1,5,D*%
X78570000Y-52690000D03*
%TO.P,U1,6,CE*%
X78570000Y-55230000D03*
%TO.P,U1,7,Clk*%
X78570000Y-57770000D03*
%TO.P,U1,8,GND*%
X78570000Y-60310000D03*
%TO.P,U1,9,Clr*%
X86190000Y-60310000D03*
%TO.P,U1,10,E*%
X86190000Y-57770000D03*
%TO.P,U1,11,F*%
X86190000Y-55230000D03*
%TO.P,U1,12,G*%
X86190000Y-52690000D03*
%TO.P,U1,13,Qh*%
X86190000Y-50150000D03*
%TO.P,U1,14,H*%
X86190000Y-47610000D03*
%TO.P,U1,15,PE*%
X86190000Y-45070000D03*
%TO.P,U1,16,VCC*%
X86190000Y-42530000D03*
%TD*%
D21*
%TO.P,RV1,1,1*%
%TO.N,N/C*%
X161117500Y-103875000D03*
D22*
%TO.P,RV1,2,2*%
X164617500Y-103875000D03*
%TO.P,RV1,3,3*%
X161117500Y-45375000D03*
D23*
%TO.P,RV1,MP*%
X167067500Y-99725000D03*
X158667500Y-98525000D03*
X158667500Y-50725000D03*
X167067500Y-49525000D03*
%TD*%
D21*
%TO.P,RV2,1,1*%
%TO.N,N/C*%
X147962500Y-103640000D03*
D22*
%TO.P,RV2,2,2*%
X151462500Y-103640000D03*
%TO.P,RV2,3,3*%
X147962500Y-45140000D03*
D23*
%TO.P,RV2,MP*%
X153912500Y-99490000D03*
X145512500Y-98290000D03*
X145512500Y-50490000D03*
X153912500Y-49290000D03*
%TD*%
D24*
%TO.P,REF\u002A\u002A,1*%
%TO.N,N/C*%
X138067500Y-76390000D03*
%TD*%
%TO.P,REF\u002A\u002A,1*%
%TO.N,N/C*%
X172397500Y-47845000D03*
%TD*%
D12*
%TO.P,RV3,1,1*%
%TO.N,N/C*%
X134497500Y-92490000D03*
D13*
%TO.P,RV3,2,2*%
X137037500Y-92490000D03*
%TO.P,RV3,3,3*%
X139577500Y-92490000D03*
%TD*%
D12*
%TO.P,J1,1,Pin_1*%
%TO.N,N/C*%
X174517500Y-94140000D03*
D13*
%TO.P,J1,2,Pin_2*%
X174517500Y-91600000D03*
%TO.P,J1,3,Pin_3*%
X174517500Y-89060000D03*
%TO.P,J1,4,Pin_4*%
X174517500Y-86520000D03*
%TO.P,J1,5,Pin_5*%
X174517500Y-83980000D03*
%TO.P,J1,6,Pin_6*%
X174517500Y-81440000D03*
%TD*%
D24*
%TO.P,REF\u002A\u002A,1*%
%TO.N,N/C*%
X172707500Y-104245000D03*
%TD*%
D12*
%TO.P,RV4,1,1*%
%TO.N,N/C*%
X134497500Y-85380000D03*
D13*
%TO.P,RV4,2,2*%
X137037500Y-85380000D03*
%TO.P,RV4,3,3*%
X139577500Y-85380000D03*
%TD*%
D25*
%TO.N,*%
X94137687Y-101190176D03*
X113347356Y-83180507D03*
X93337684Y-101190176D03*
X108216187Y-93290176D03*
X107387687Y-93290176D03*
X95607679Y-78170846D03*
X95382800Y-62528400D03*
X136180000Y-62050000D03*
X94470000Y-62528400D03*
X75817169Y-44257169D03*
X112100000Y-49095000D03*
D26*
X112920000Y-37315000D03*
D25*
X84680661Y-40875661D03*
X105820000Y-41850000D03*
X89565000Y-62528400D03*
X87865661Y-40890661D03*
X127571300Y-40966300D03*
X112936082Y-62649580D03*
X113874961Y-35837795D03*
%TD*%
D27*
%TO.N,*%
X94757687Y-99170176D02*
X95847687Y-99170176D01*
X94137687Y-101190176D02*
X94137687Y-99790176D01*
X94137687Y-99790176D02*
X94757687Y-99170176D01*
X112927687Y-116950176D02*
X113706787Y-116171076D01*
X93257356Y-101109848D02*
X93257356Y-97570507D01*
X111087687Y-119490176D02*
X113287687Y-119490176D01*
X93337684Y-101190176D02*
X93257356Y-101109848D01*
X113337687Y-78090176D02*
X112567687Y-77320176D01*
X113337687Y-83170838D02*
X113337687Y-78090176D01*
X113287687Y-119490176D02*
X114687687Y-118090176D01*
X116587687Y-101640176D02*
X116587687Y-100290176D01*
X113706787Y-116171076D02*
X113706787Y-100631076D01*
X114687687Y-103540176D02*
X116587687Y-101640176D01*
X112567687Y-77320176D02*
X111087687Y-77320176D01*
X111087687Y-109330176D02*
X109956317Y-109330176D01*
X113347356Y-83180507D02*
X113337687Y-83170838D01*
X107387687Y-106761546D02*
X107387687Y-93290176D01*
X109187687Y-106790176D02*
X111087687Y-106790176D01*
X111087687Y-116950176D02*
X112927687Y-116950176D01*
X108216187Y-93290176D02*
X108216187Y-105818676D01*
X114687687Y-118090176D02*
X114687687Y-103540176D01*
X109956317Y-109330176D02*
X107387687Y-106761546D01*
X113706787Y-100631076D02*
X116587687Y-97750176D01*
X93257356Y-97570507D02*
X94197687Y-96630176D01*
X94197687Y-96630176D02*
X95847687Y-96630176D01*
X108216187Y-105818676D02*
X109187687Y-106790176D01*
X95847687Y-109330176D02*
X97247687Y-109330176D01*
X93497687Y-104250176D02*
X95847687Y-104250176D01*
X97892387Y-105935476D02*
X97037687Y-106790176D01*
X96917687Y-101710176D02*
X95847687Y-101710176D01*
X92939587Y-103692076D02*
X93497687Y-104250176D01*
X96357679Y-78481507D02*
X96357679Y-78020184D01*
X95187687Y-78590838D02*
X95187687Y-87582626D01*
X94447687Y-91550176D02*
X95847687Y-91550176D01*
X91187687Y-82650176D02*
X92797687Y-82650176D01*
X97637687Y-75080176D02*
X96097687Y-75080176D01*
D28*
X116537687Y-106340176D02*
X116537687Y-113490176D01*
X116537687Y-113490176D02*
X119137687Y-116090176D01*
D27*
X95918340Y-78920846D02*
X96357679Y-78481507D01*
X90687687Y-72540176D02*
X87737687Y-75490176D01*
X96357679Y-78020184D02*
X96757687Y-77620176D01*
X97137487Y-90522376D02*
X97137487Y-101490376D01*
X96097687Y-75080176D02*
X94487687Y-76690176D01*
X93787687Y-90890176D02*
X94447687Y-91550176D01*
X97892387Y-90287326D02*
X97892387Y-105935476D01*
X95607679Y-78170846D02*
X95187687Y-78590838D01*
X95187687Y-87582626D02*
X97892387Y-90287326D01*
X95887687Y-78920846D02*
X95918340Y-78920846D01*
D28*
X90962687Y-109890176D02*
X91437587Y-109890176D01*
D27*
X92797687Y-82650176D02*
X93787687Y-83640176D01*
D28*
X81787687Y-94571076D02*
X91489587Y-104272976D01*
D27*
X97037687Y-106790176D02*
X95847687Y-106790176D01*
D28*
X119137687Y-116090176D02*
X124222687Y-116090176D01*
X107152887Y-84772876D02*
X113487687Y-91107676D01*
D27*
X92939587Y-103672366D02*
X92939587Y-103692076D01*
X98594087Y-89999076D02*
X95887687Y-87292676D01*
X87737687Y-75490176D02*
X87737687Y-98470466D01*
X97247687Y-109330176D02*
X98594087Y-107983776D01*
X97637687Y-72540176D02*
X90687687Y-72540176D01*
X94487687Y-76690176D02*
X94487687Y-87872576D01*
X95887687Y-87292676D02*
X95887687Y-78920846D01*
X93787687Y-83640176D02*
X93787687Y-90890176D01*
X94487687Y-87872576D02*
X97137487Y-90522376D01*
X87737687Y-98470466D02*
X92939587Y-103672366D01*
X96757687Y-77620176D02*
X97637687Y-77620176D01*
X97137487Y-101490376D02*
X96917687Y-101710176D01*
X98594087Y-107983776D02*
X98594087Y-89999076D01*
D28*
X92717687Y-114814976D02*
X94313087Y-116410376D01*
X79277687Y-105190176D02*
X79277687Y-107290176D01*
X124687687Y-112490176D02*
X126762687Y-114565176D01*
D29*
X109035787Y-82889976D02*
X109137787Y-82787976D01*
X91489587Y-109340376D02*
X91437587Y-109392376D01*
D28*
X91489587Y-104272976D02*
X91489587Y-109340376D01*
X81787687Y-99207876D02*
X81787687Y-101457876D01*
D29*
X89487687Y-109890176D02*
X90962687Y-109890176D01*
D28*
X113487687Y-94090176D02*
X114607687Y-95210176D01*
X86947687Y-109890176D02*
X89487687Y-109890176D01*
X77487687Y-78059976D02*
X80357487Y-78059976D01*
X116587687Y-95210176D02*
X120607687Y-95210176D01*
X121335687Y-110759496D02*
X123066367Y-112490176D01*
X116587687Y-90440176D02*
X116587687Y-92670176D01*
X111087687Y-84940176D02*
X116587687Y-90440176D01*
X121335687Y-95938176D02*
X121335687Y-110759496D01*
X79327687Y-109890176D02*
X81867687Y-109890176D01*
X81787687Y-101457876D02*
X81817687Y-101487876D01*
X109035787Y-82889976D02*
X107152887Y-84772876D01*
X107152887Y-84772876D02*
X106685587Y-85240176D01*
X106685587Y-85240176D02*
X97637687Y-85240176D01*
X123066367Y-112490176D02*
X124687687Y-112490176D01*
X120607687Y-95210176D02*
X121335687Y-95938176D01*
D29*
X109137787Y-82787976D02*
X109137787Y-82400176D01*
D28*
X80357487Y-78059976D02*
X81787687Y-79490176D01*
D29*
X77027487Y-78059976D02*
X76537687Y-77570176D01*
D28*
X126762687Y-114565176D02*
X126762687Y-116090176D01*
X81867687Y-109890176D02*
X84407687Y-109890176D01*
D29*
X91437587Y-109392376D02*
X91437587Y-109890176D01*
D28*
X76537687Y-75030176D02*
X73877687Y-75030176D01*
X73877687Y-75030176D02*
X73287687Y-75620176D01*
X113487687Y-91107676D02*
X113487687Y-94090176D01*
X84407687Y-109890176D02*
X86947687Y-109890176D01*
D30*
X94313087Y-116410376D02*
X95307887Y-116410376D01*
D28*
X81787687Y-79490176D02*
X81787687Y-94207876D01*
X73287687Y-99200176D02*
X79277687Y-105190176D01*
X92717687Y-111170276D02*
X92717687Y-114814976D01*
X73287687Y-75620176D02*
X73287687Y-99200176D01*
X81817687Y-101487876D02*
X81817687Y-107290176D01*
X81867687Y-109890176D02*
X84407687Y-109890176D01*
X114607687Y-95210176D02*
X116587687Y-95210176D01*
X89487687Y-109890176D02*
X86947687Y-109890176D01*
X81787687Y-94207876D02*
X81787687Y-94571076D01*
D30*
X95307887Y-116410376D02*
X95847687Y-116950176D01*
D29*
X77487687Y-78059976D02*
X77027487Y-78059976D01*
X111087687Y-82400176D02*
X109137787Y-82400176D01*
D28*
X91437587Y-109890176D02*
X92717687Y-111170276D01*
X111025000Y-35420000D02*
X112920000Y-37315000D01*
X111025000Y-33080000D02*
X111025000Y-35420000D01*
X105820000Y-57821400D02*
X103116000Y-60525000D01*
X82120000Y-57645000D02*
X82020000Y-57745000D01*
X82120000Y-52615000D02*
X82120000Y-57645000D01*
X128920000Y-57293400D02*
X125578000Y-60635000D01*
X79505000Y-55230000D02*
X82120000Y-52615000D01*
X117365000Y-40830000D02*
X117365000Y-66450000D01*
X116615000Y-40080000D02*
X124285000Y-40080000D01*
X82120000Y-52615000D02*
X82120000Y-57645000D01*
X105820000Y-52515000D02*
X102890000Y-55445000D01*
X116615000Y-40080000D02*
X117365000Y-40830000D01*
X128920000Y-52213400D02*
X127290000Y-53843400D01*
X108485000Y-40350000D02*
X108755000Y-40080000D01*
X128920000Y-42615000D02*
X128920000Y-52213400D01*
X82120000Y-41315000D02*
X82120000Y-52615000D01*
X103116000Y-60525000D02*
X101985000Y-60525000D01*
X125290000Y-41085000D02*
X125290000Y-42855000D01*
X108485000Y-40350000D02*
X104320000Y-40350000D01*
X125578000Y-60635000D02*
X125290000Y-60635000D01*
X105820000Y-52515000D02*
X105820000Y-57821400D01*
X108485000Y-33080000D02*
X108485000Y-40350000D01*
X127290000Y-53843400D02*
X125578000Y-55555000D01*
X125578000Y-55555000D02*
X125290000Y-55555000D01*
X82020000Y-57991400D02*
X79701400Y-60310000D01*
X107450000Y-39315000D02*
X84120000Y-39315000D01*
X125290000Y-42855000D02*
X125530000Y-42615000D01*
X84120000Y-39315000D02*
X82120000Y-41315000D01*
X104320000Y-40350000D02*
X104320000Y-51015000D01*
X102890000Y-55445000D02*
X101985000Y-55445000D01*
X124285000Y-40080000D02*
X125290000Y-41085000D01*
X125530000Y-42615000D02*
X128920000Y-42615000D01*
X82020000Y-57745000D02*
X82020000Y-57991400D01*
X79701400Y-60310000D02*
X78570000Y-60310000D01*
X104320000Y-51015000D02*
X105820000Y-52515000D01*
X108485000Y-40350000D02*
X107450000Y-39315000D01*
X108755000Y-40080000D02*
X116615000Y-40080000D01*
X78570000Y-55230000D02*
X79505000Y-55230000D01*
X128920000Y-52213400D02*
X128920000Y-57293400D01*
D27*
X109605000Y-50365000D02*
X106770000Y-50365000D01*
X123380000Y-50255000D02*
X125070000Y-50255000D01*
X99775600Y-42745000D02*
X101985000Y-42745000D01*
X95382800Y-62528400D02*
X95382800Y-47137800D01*
X125215000Y-64290000D02*
X124830000Y-63905000D01*
X105820000Y-49415000D02*
X105820000Y-41850000D01*
X84695661Y-40890661D02*
X84680661Y-40875661D01*
X123240000Y-63905000D02*
X122430000Y-63094900D01*
X122430000Y-63094900D02*
X122430000Y-51205000D01*
X125070000Y-50255000D02*
X125295000Y-50255000D01*
X136180000Y-62050000D02*
X136318800Y-61911200D01*
X130295000Y-58840000D02*
X130295000Y-66350000D01*
X95382800Y-47137800D02*
X99775600Y-42745000D01*
X106770000Y-50365000D02*
X105820000Y-49415000D01*
X132915000Y-57875000D02*
X132690000Y-57875000D01*
X87865661Y-40890661D02*
X84695661Y-40890661D01*
X132690000Y-57875000D02*
X131260000Y-57875000D01*
X136318800Y-61911200D02*
X136318800Y-52583800D01*
X124830000Y-63905000D02*
X123240000Y-63905000D01*
X125215000Y-66350000D02*
X125215000Y-64290000D01*
X122430000Y-51205000D02*
X123380000Y-50255000D01*
X125070000Y-50255000D02*
X125290000Y-50475000D01*
X134210000Y-50475000D02*
X132910000Y-50475000D01*
X136318800Y-52583800D02*
X134210000Y-50475000D01*
X122675000Y-64350000D02*
X121730000Y-63405000D01*
X123130000Y-53405000D02*
X123130000Y-62805000D01*
X100070000Y-50365000D02*
X101985000Y-50365000D01*
X123740000Y-52795000D02*
X123130000Y-53405000D01*
X111410000Y-52905000D02*
X112120000Y-53615000D01*
X112120000Y-53615000D02*
X112120000Y-66405000D01*
X131260000Y-57875000D02*
X130295000Y-58840000D01*
X133130000Y-47715000D02*
X132910000Y-47935000D01*
X132690000Y-57875000D02*
X132910000Y-58095000D01*
X133130000Y-55335000D02*
X134360000Y-55335000D01*
X114605000Y-50200000D02*
X112230000Y-47825000D01*
X134360000Y-55335000D02*
X134730000Y-55705000D01*
X137915000Y-50090000D02*
X135540000Y-47715000D01*
X121730000Y-63405000D02*
X121730000Y-49405000D01*
X123530000Y-63205000D02*
X127030000Y-63205000D01*
X112230000Y-47825000D02*
X109605000Y-47825000D01*
X133130000Y-52795000D02*
X132910000Y-53015000D01*
X104445000Y-64040000D02*
X104445000Y-66460000D01*
X100220000Y-63315000D02*
X103720000Y-63315000D01*
X135540000Y-47715000D02*
X133130000Y-47715000D01*
X109605000Y-57985000D02*
X107950000Y-57985000D01*
X98250000Y-45285000D02*
X101985000Y-45285000D01*
X134730000Y-55705000D02*
X134730000Y-62205000D01*
X120135000Y-66350000D02*
X120135000Y-46600000D01*
X99120000Y-51315000D02*
X100070000Y-50365000D01*
X133130000Y-52795000D02*
X134720000Y-52795000D01*
X132915000Y-55335000D02*
X133130000Y-55335000D01*
X99120000Y-63204900D02*
X99120000Y-51315000D01*
X121730000Y-49405000D02*
X123420000Y-47715000D01*
X125295000Y-52795000D02*
X125070000Y-52795000D01*
X133130000Y-55335000D02*
X132910000Y-55555000D01*
X125070000Y-47715000D02*
X125290000Y-47935000D01*
X122675000Y-66350000D02*
X122675000Y-64350000D01*
X96825000Y-66460000D02*
X96825000Y-46710000D01*
X125070000Y-45175000D02*
X125290000Y-45395000D01*
X125070000Y-45175000D02*
X125295000Y-45175000D01*
X112120000Y-66405000D02*
X112065000Y-66460000D01*
X135430000Y-53505000D02*
X135430000Y-66295000D01*
X101905000Y-66460000D02*
X101905000Y-64400000D01*
X99930000Y-64015000D02*
X99120000Y-63204900D01*
X134730000Y-62205000D02*
X132835000Y-64100000D01*
X132835000Y-64100000D02*
X132835000Y-66350000D01*
X125070000Y-52795000D02*
X125290000Y-53015000D01*
X127755000Y-63930000D02*
X127755000Y-66350000D01*
X123130000Y-62805000D02*
X123530000Y-63205000D01*
X96825000Y-46710000D02*
X98250000Y-45285000D01*
X114605000Y-66460000D02*
X114605000Y-50200000D01*
X135430000Y-66295000D02*
X135375000Y-66350000D01*
X120135000Y-46600000D02*
X121560000Y-45175000D01*
X123420000Y-47715000D02*
X125070000Y-47715000D01*
X101905000Y-64400000D02*
X101520000Y-64015000D01*
X125070000Y-47715000D02*
X125295000Y-47715000D01*
X125070000Y-52795000D02*
X123740000Y-52795000D01*
X132915000Y-52795000D02*
X133130000Y-52795000D01*
X133130000Y-47715000D02*
X132915000Y-47715000D01*
X134720000Y-52795000D02*
X135430000Y-53505000D01*
X107950000Y-57985000D02*
X106985000Y-58950000D01*
X127030000Y-63205000D02*
X127755000Y-63930000D01*
X121560000Y-45175000D02*
X125070000Y-45175000D01*
X137915000Y-66350000D02*
X137915000Y-50090000D01*
X109605000Y-52905000D02*
X111410000Y-52905000D01*
X106985000Y-58950000D02*
X106985000Y-66460000D01*
X101520000Y-64015000D02*
X99930000Y-64015000D01*
X99820000Y-62915000D02*
X100220000Y-63315000D01*
X86300000Y-55325000D02*
X86285000Y-55325000D01*
X111050000Y-55445000D02*
X111420000Y-55815000D01*
X78600000Y-66340000D02*
X78600000Y-64280000D01*
X76515000Y-62795000D02*
X76915000Y-63195000D01*
X99820000Y-53515000D02*
X99820000Y-62915000D01*
X103720000Y-63315000D02*
X104445000Y-64040000D01*
X86095000Y-57865000D02*
X86190000Y-57770000D01*
X86285000Y-52785000D02*
X86190000Y-52690000D01*
X100430000Y-52905000D02*
X99820000Y-53515000D01*
X101985000Y-52905000D02*
X100430000Y-52905000D01*
X99365000Y-66460000D02*
X99365000Y-64460000D01*
X98420000Y-49515000D02*
X100110000Y-47825000D01*
X86300000Y-47705000D02*
X86285000Y-47705000D01*
X98420000Y-63515000D02*
X98420000Y-49515000D01*
X100110000Y-47825000D02*
X101985000Y-47825000D01*
X109525000Y-64210000D02*
X109525000Y-66460000D01*
X78600000Y-64280000D02*
X78215000Y-63895000D01*
X76765000Y-50245000D02*
X78475000Y-50245000D01*
X73520000Y-66340000D02*
X73520000Y-46590000D01*
X86285000Y-47705000D02*
X86190000Y-47610000D01*
X91300000Y-66340000D02*
X91300000Y-50080000D01*
X76060000Y-64340000D02*
X75115000Y-63395000D01*
X86285000Y-55325000D02*
X86190000Y-55230000D01*
X81140000Y-63920000D02*
X81140000Y-66340000D01*
X88105000Y-52785000D02*
X88815000Y-53495000D01*
X83680000Y-58830000D02*
X83680000Y-66340000D01*
X78475000Y-45165000D02*
X78680000Y-45165000D01*
X84645000Y-57865000D02*
X83680000Y-58830000D01*
X109605000Y-55445000D02*
X111050000Y-55445000D01*
X75815000Y-63084900D02*
X75815000Y-51195000D01*
X88925000Y-47705000D02*
X86300000Y-47705000D01*
X78475000Y-52785000D02*
X78570000Y-52690000D01*
X86300000Y-52785000D02*
X88105000Y-52785000D01*
X74945000Y-45165000D02*
X78475000Y-45165000D01*
X88115000Y-55695000D02*
X88115000Y-62195000D01*
X80415000Y-63195000D02*
X81140000Y-63920000D01*
X78475000Y-52785000D02*
X77125000Y-52785000D01*
X111420000Y-62315000D02*
X109525000Y-64210000D01*
X78680000Y-52785000D02*
X78475000Y-52785000D01*
X75115000Y-63395000D02*
X75115000Y-49395000D01*
X88115000Y-62195000D02*
X86220000Y-64090000D01*
X76515000Y-53395000D02*
X76515000Y-62795000D01*
X111420000Y-55815000D02*
X111420000Y-62315000D01*
X78215000Y-63895000D02*
X76625100Y-63895000D01*
X78475000Y-45165000D02*
X78570000Y-45070000D01*
X88815000Y-66285000D02*
X88760000Y-66340000D01*
X99365000Y-64460000D02*
X98420000Y-63515000D01*
X76625100Y-63895000D02*
X75815000Y-63084900D01*
X78475000Y-50245000D02*
X78570000Y-50150000D01*
X75815000Y-51195000D02*
X76765000Y-50245000D01*
X76805000Y-47705000D02*
X78475000Y-47705000D01*
X78475000Y-47705000D02*
X78570000Y-47610000D01*
X78475000Y-50245000D02*
X78680000Y-50245000D01*
X86300000Y-57865000D02*
X86095000Y-57865000D01*
X77125000Y-52785000D02*
X76515000Y-53395000D01*
X91300000Y-50080000D02*
X88925000Y-47705000D01*
X75115000Y-49395000D02*
X76805000Y-47705000D01*
X76915000Y-63195000D02*
X80415000Y-63195000D01*
X73520000Y-46590000D02*
X74945000Y-45165000D01*
X88815000Y-53495000D02*
X88815000Y-66285000D01*
X76060000Y-66340000D02*
X76060000Y-64340000D01*
X86300000Y-52785000D02*
X86285000Y-52785000D01*
X78475000Y-47705000D02*
X78680000Y-47705000D01*
X86095000Y-57865000D02*
X84645000Y-57865000D01*
X131176400Y-43661400D02*
X131176400Y-40966300D01*
X112936082Y-62649580D02*
X113320000Y-62265662D01*
X131176400Y-40966300D02*
X127571300Y-40966300D01*
X113320000Y-62265662D02*
X113320000Y-50315000D01*
X76690000Y-42027193D02*
X78402193Y-40315000D01*
X87745000Y-55325000D02*
X88115000Y-55695000D01*
X114717795Y-35837795D02*
X117300000Y-38420000D01*
X86220000Y-64090000D02*
X86220000Y-66340000D01*
X86300000Y-55325000D02*
X87745000Y-55325000D01*
X76690000Y-43384338D02*
X76690000Y-42027193D01*
X92051400Y-49631400D02*
X87490000Y-45070000D01*
X78402193Y-40315000D02*
X81069390Y-40315000D01*
X125025000Y-38420000D02*
X127571300Y-40966300D01*
X89842200Y-52502200D02*
X87490000Y-50150000D01*
X132910000Y-45395000D02*
X131176400Y-43661400D01*
X84019390Y-37365000D02*
X101660000Y-37365000D01*
X81069390Y-40315000D02*
X84019390Y-37365000D01*
X89565000Y-62528400D02*
X89842200Y-62251200D01*
X87490000Y-50150000D02*
X86190000Y-50150000D01*
X75817169Y-44257169D02*
X76690000Y-43384338D01*
X89842200Y-62251200D02*
X89842200Y-52502200D01*
X113320000Y-50315000D02*
X112100000Y-49095000D01*
X92387000Y-62528400D02*
X92051400Y-62192800D01*
X92051400Y-62192800D02*
X92051400Y-49631400D01*
X113874961Y-35837795D02*
X114717795Y-35837795D01*
X101660000Y-37365000D02*
X105945000Y-33080000D01*
X117300000Y-38420000D02*
X125025000Y-38420000D01*
X94470000Y-62528400D02*
X92387000Y-62528400D01*
X87490000Y-45070000D02*
X86190000Y-45070000D01*
D28*
X137930419Y-87475000D02*
X171092500Y-87475000D01*
X137037500Y-91287919D02*
X138075419Y-90250000D01*
X172677500Y-89060000D02*
X174517500Y-89060000D01*
X170756230Y-90250000D02*
X172106230Y-91600000D01*
X138075419Y-90250000D02*
X170756230Y-90250000D01*
X137037500Y-92490000D02*
X137037500Y-91287919D01*
X137037500Y-86582081D02*
X137930419Y-87475000D01*
X137037500Y-85380000D02*
X137037500Y-86582081D01*
X171092500Y-87475000D02*
X172677500Y-89060000D01*
X172106230Y-91600000D02*
X174517500Y-91600000D01*
%TD*%
M02*
