%TF.GenerationSoftware,KiCad,Pcbnew,8.0.6*%
%TF.CreationDate,2026-05-30T20:44:27+02:00*%
%TF.ProjectId,untitled,756e7469-746c-4656-942e-6b696361645f,rev?*%
%TF.SameCoordinates,Original*%
%TF.FileFunction,Copper,L1,Top*%
%TF.FilePolarity,Positive*%
%FSLAX46Y46*%
G04 Gerber Fmt 4.6, Leading zero omitted, Abs format (unit mm)*
G04 Created by KiCad (PCBNEW 8.0.6) date 2026-05-30 20:44:27*
%MOMM*%
%LPD*%
G01*
G04 APERTURE LIST*
%TA.AperFunction,NonConductor*%
%ADD10C,2.000000*%
%TD*%
%TA.AperFunction,NonConductor*%
%ADD11C,0.200000*%
%TD*%
%TA.AperFunction,ComponentPad*%
%ADD12R,1.800000X1.800000*%
%TD*%
%TA.AperFunction,ComponentPad*%
%ADD13C,1.800000*%
%TD*%
%TA.AperFunction,ComponentPad*%
%ADD14R,1.700000X1.700000*%
%TD*%
%TA.AperFunction,ComponentPad*%
%ADD15O,1.700000X1.700000*%
%TD*%
%TA.AperFunction,ComponentPad*%
%ADD16R,2.000000X2.000000*%
%TD*%
%TA.AperFunction,ComponentPad*%
%ADD17C,2.000000*%
%TD*%
%TA.AperFunction,ComponentPad*%
%ADD18R,1.600000X1.600000*%
%TD*%
%TA.AperFunction,ComponentPad*%
%ADD19C,1.600000*%
%TD*%
%TA.AperFunction,ComponentPad*%
%ADD20O,1.600000X1.600000*%
%TD*%
%TA.AperFunction,ComponentPad*%
%ADD21O,3.200000X1.900000*%
%TD*%
%TA.AperFunction,ComponentPad*%
%ADD22C,5.700000*%
%TD*%
%TA.AperFunction,ComponentPad*%
%ADD23R,1.750000X1.750000*%
%TD*%
%TA.AperFunction,ComponentPad*%
%ADD24C,1.750000*%
%TD*%
%TA.AperFunction,ComponentPad*%
%ADD25C,2.700000*%
%TD*%
%TA.AperFunction,ComponentPad*%
%ADD26C,5.600000*%
%TD*%
%TA.AperFunction,ViaPad*%
%ADD27C,0.600000*%
%TD*%
%TA.AperFunction,ViaPad*%
%ADD28C,1.500000*%
%TD*%
%TA.AperFunction,Conductor*%
%ADD29C,0.500000*%
%TD*%
%TA.AperFunction,Conductor*%
%ADD30C,2.000000*%
%TD*%
%TA.AperFunction,Conductor*%
%ADD31C,1.699800*%
%TD*%
G04 APERTURE END LIST*
D10*
X62735000Y-77370000D02*
X49735000Y-92370000D01*
X49735000Y-62370000D01*
X62735000Y-77370000D01*
%TA.AperFunction,NonConductor*%
G36*
X62735000Y-77370000D02*
G01*
X49735000Y-92370000D01*
X49735000Y-62370000D01*
X62735000Y-77370000D01*
G37*
%TD.AperFunction*%
X68760000Y-74845000D02*
X63735000Y-72370000D01*
X62485000Y-62870000D01*
X68735000Y-62870000D01*
X68760000Y-74845000D01*
%TA.AperFunction,NonConductor*%
G36*
X68760000Y-74845000D02*
G01*
X63735000Y-72370000D01*
X62485000Y-62870000D01*
X68735000Y-62870000D01*
X68760000Y-74845000D01*
G37*
%TD.AperFunction*%
X68735000Y-92870000D02*
X61985000Y-92870000D01*
X62735000Y-82870000D01*
X68735000Y-79870000D01*
X68735000Y-92870000D01*
%TA.AperFunction,NonConductor*%
G36*
X68735000Y-92870000D02*
G01*
X61985000Y-92870000D01*
X62735000Y-82870000D01*
X68735000Y-79870000D01*
X68735000Y-92870000D01*
G37*
%TD.AperFunction*%
D11*
X53735000Y-77370000D02*
X49735000Y-80370000D01*
X49735000Y-73370000D01*
X53735000Y-77370000D01*
%TA.AperFunction,NonConductor*%
G36*
X53735000Y-77370000D02*
G01*
X49735000Y-80370000D01*
X49735000Y-73370000D01*
X53735000Y-77370000D01*
G37*
%TD.AperFunction*%
D12*
%TO.P,D1,1,K*%
%TO.N,N/C*%
X126762687Y-116090176D03*
D13*
%TO.P,D1,2,A*%
X124222687Y-116090176D03*
%TD*%
D14*
%TO.P,J2,1,Pin_1*%
%TO.N,N/C*%
X91187687Y-85190176D03*
D15*
%TO.P,J2,2,Pin_2*%
X91187687Y-82650176D03*
%TO.P,J2,3,Pin_3*%
X91187687Y-80110176D03*
%TD*%
D16*
%TO.P,C1,1*%
%TO.N,N/C*%
X81787687Y-99207876D03*
D17*
%TO.P,C1,2*%
X81787687Y-94207876D03*
%TD*%
D14*
%TO.P,J3,1,Pin_1*%
%TO.N,N/C*%
X76537687Y-85190176D03*
D15*
%TO.P,J3,2,Pin_2*%
X76537687Y-82650176D03*
%TO.P,J3,3,Pin_3*%
X76537687Y-80110176D03*
%TO.P,J3,4,Pin_4*%
X76537687Y-77570176D03*
%TO.P,J3,5,Pin_5*%
X76537687Y-75030176D03*
%TD*%
D14*
%TO.P,J8,1,Pin_1*%
%TO.N,N/C*%
X89487687Y-109890176D03*
D15*
%TO.P,J8,2,Pin_2*%
X86947687Y-109890176D03*
%TO.P,J8,3,Pin_3*%
X84407687Y-109890176D03*
%TO.P,J8,4,Pin_4*%
X81867687Y-109890176D03*
%TO.P,J8,5,Pin_5*%
X79327687Y-109890176D03*
%TD*%
D18*
%TO.P,U1,1,TX*%
%TO.N,N/C*%
X111087687Y-119490176D03*
D19*
%TO.P,U1,2,RX*%
X111087687Y-116950176D03*
%TO.P,U1,3,GND*%
X111087687Y-114410176D03*
%TO.P,U1,4,GND*%
X111087687Y-111870176D03*
%TO.P,U1,5,SDA*%
X111087687Y-109330176D03*
%TO.P,U1,6,SCL*%
X111087687Y-106790176D03*
%TO.P,U1,7,D4*%
X111087687Y-104250176D03*
%TO.P,U1,8,C6*%
X111087687Y-101710176D03*
%TO.P,U1,9,D7*%
X111087687Y-99170176D03*
%TO.P,U1,10,E6*%
X111087687Y-96630176D03*
%TO.P,U1,11,B4*%
X111087687Y-94090176D03*
%TO.P,U1,12,B5*%
X111087687Y-91550176D03*
%TO.P,U1,13,B6*%
X95847687Y-91550176D03*
%TO.P,U1,14,B2*%
X95847687Y-94090176D03*
%TO.P,U1,15,B3*%
X95847687Y-96630176D03*
%TO.P,U1,16,B1*%
X95847687Y-99170176D03*
%TO.P,U1,17,F7*%
X95847687Y-101710176D03*
%TO.P,U1,18,F6*%
X95847687Y-104250176D03*
%TO.P,U1,19,F5*%
X95847687Y-106790176D03*
%TO.P,U1,20,F4*%
X95847687Y-109330176D03*
%TO.P,U1,21,VCC*%
X95847687Y-111870176D03*
%TO.P,U1,22,RST*%
X95847687Y-114410176D03*
%TO.P,U1,23,GND*%
X95847687Y-116950176D03*
%TO.P,U1,24,RAW*%
X95847687Y-119490176D03*
%TD*%
D14*
%TO.P,J7,1,Pin_1*%
%TO.N,N/C*%
X89437687Y-107290176D03*
D15*
%TO.P,J7,2,Pin_2*%
X86897687Y-107290176D03*
%TO.P,J7,3,Pin_3*%
X84357687Y-107290176D03*
%TO.P,J7,4,Pin_4*%
X81817687Y-107290176D03*
%TO.P,J7,5,Pin_5*%
X79277687Y-107290176D03*
%TD*%
D19*
%TO.P,R1,1*%
%TO.N,N/C*%
X116537687Y-119040176D03*
D20*
%TO.P,R1,2*%
X116537687Y-106340176D03*
%TD*%
D14*
%TO.P,J5,1,Pin_1*%
%TO.N,N/C*%
X116587687Y-100290176D03*
D15*
%TO.P,J5,2,Pin_2*%
X116587687Y-97750176D03*
%TO.P,J5,3,Pin_3*%
X116587687Y-95210176D03*
%TO.P,J5,4,Pin_4*%
X116587687Y-92670176D03*
%TD*%
D14*
%TO.P,J4,1,Pin_1*%
%TO.N,N/C*%
X111087687Y-84940176D03*
D15*
%TO.P,J4,2,Pin_2*%
X111087687Y-82400176D03*
%TO.P,J4,3,Pin_3*%
X111087687Y-79860176D03*
%TO.P,J4,4,Pin_4*%
X111087687Y-77320176D03*
%TD*%
D14*
%TO.P,J6,1,Pin_1*%
%TO.N,N/C*%
X89517687Y-112490176D03*
D15*
%TO.P,J6,2,Pin_2*%
X86977687Y-112490176D03*
%TO.P,J6,3,Pin_3*%
X84437687Y-112490176D03*
%TO.P,J6,4,Pin_4*%
X81897687Y-112490176D03*
%TO.P,J6,5,Pin_5*%
X79357687Y-112490176D03*
%TD*%
D14*
%TO.P,J1,1,Pin_1*%
%TO.N,N/C*%
X97637687Y-85240176D03*
D15*
%TO.P,J1,2,Pin_2*%
X97637687Y-82700176D03*
%TO.P,J1,3,Pin_3*%
X97637687Y-80160176D03*
%TO.P,J1,4,Pin_4*%
X97637687Y-77620176D03*
%TO.P,J1,5,Pin_5*%
X97637687Y-75080176D03*
%TO.P,J1,6,Pin_6*%
X97637687Y-72540176D03*
%TD*%
D21*
%TO.P,SW1,4,4*%
%TO.N,N/C*%
X49485000Y-87870000D03*
%TO.P,SW1,3,3*%
X61985000Y-87870000D03*
%TO.P,SW1,2,2*%
X49485000Y-92870000D03*
%TO.P,SW1,1,1*%
X61985000Y-92870000D03*
%TD*%
D22*
%TO.P,REF\u002A\u002A,1*%
%TO.N,N/C*%
X55735000Y-52370000D03*
%TD*%
D21*
%TO.P,SW2,4,4*%
%TO.N,N/C*%
X49485000Y-62870000D03*
%TO.P,SW2,3,3*%
X61985000Y-62870000D03*
%TO.P,SW2,2,2*%
X49485000Y-67870000D03*
%TO.P,SW2,1,1*%
X61985000Y-67870000D03*
%TD*%
D22*
%TO.P,REF\u002A\u002A,1*%
%TO.N,N/C*%
X55735000Y-103370000D03*
%TD*%
%TO.P,,1*%
%TO.N,N/C*%
X55735000Y-52370000D03*
%TD*%
D15*
%TO.P,J1,3,Pin_3*%
%TO.N,N/C*%
X68760000Y-79925000D03*
%TO.P,J1,2,Pin_2*%
X68760000Y-77385000D03*
D14*
%TO.P,J1,1,Pin_1*%
X68760000Y-74845000D03*
%TD*%
%TO.P,J1,1,Pin_1*%
%TO.N,N/C*%
X100865000Y-33080000D03*
D15*
%TO.P,J1,2,Pin_2*%
X103405000Y-33080000D03*
%TO.P,J1,3,Pin_3*%
X105945000Y-33080000D03*
%TO.P,J1,4,Pin_4*%
X108485000Y-33080000D03*
%TO.P,J1,5,Pin_5*%
X111025000Y-33080000D03*
%TD*%
D18*
%TO.P,U3,1,Ds*%
%TO.N,N/C*%
X125290000Y-42855000D03*
D20*
%TO.P,U3,2,A*%
X125290000Y-45395000D03*
%TO.P,U3,3,B*%
X125290000Y-47935000D03*
%TO.P,U3,4,C*%
X125290000Y-50475000D03*
%TO.P,U3,5,D*%
X125290000Y-53015000D03*
%TO.P,U3,6,CE*%
X125290000Y-55555000D03*
%TO.P,U3,7,Clk*%
X125290000Y-58095000D03*
%TO.P,U3,8,GND*%
X125290000Y-60635000D03*
%TO.P,U3,9,Clr*%
X132910000Y-60635000D03*
%TO.P,U3,10,E*%
X132910000Y-58095000D03*
%TO.P,U3,11,F*%
X132910000Y-55555000D03*
%TO.P,U3,12,G*%
X132910000Y-53015000D03*
%TO.P,U3,13,Qh*%
X132910000Y-50475000D03*
%TO.P,U3,14,H*%
X132910000Y-47935000D03*
%TO.P,U3,15,PE*%
X132910000Y-45395000D03*
%TO.P,U3,16,VCC*%
X132910000Y-42855000D03*
%TD*%
D14*
%TO.P,J2,1,Pin_1*%
%TO.N,N/C*%
X91300000Y-66340000D03*
D15*
%TO.P,J2,2,Pin_2*%
X88760000Y-66340000D03*
%TO.P,J2,3,Pin_3*%
X86220000Y-66340000D03*
%TO.P,J2,4,Pin_4*%
X83680000Y-66340000D03*
%TO.P,J2,5,Pin_5*%
X81140000Y-66340000D03*
%TO.P,J2,6,Pin_6*%
X78600000Y-66340000D03*
%TO.P,J2,7,Pin_7*%
X76060000Y-66340000D03*
%TO.P,J2,8,Pin_8*%
X73520000Y-66340000D03*
%TD*%
D14*
%TO.P,J5,1,Pin_1*%
%TO.N,N/C*%
X117365000Y-66450000D03*
%TD*%
D18*
%TO.P,U2,1,Ds*%
%TO.N,N/C*%
X101985000Y-42745000D03*
D20*
%TO.P,U2,2,A*%
X101985000Y-45285000D03*
%TO.P,U2,3,B*%
X101985000Y-47825000D03*
%TO.P,U2,4,C*%
X101985000Y-50365000D03*
%TO.P,U2,5,D*%
X101985000Y-52905000D03*
%TO.P,U2,6,CE*%
X101985000Y-55445000D03*
%TO.P,U2,7,Clk*%
X101985000Y-57985000D03*
%TO.P,U2,8,GND*%
X101985000Y-60525000D03*
%TO.P,U2,9,Clr*%
X109605000Y-60525000D03*
%TO.P,U2,10,E*%
X109605000Y-57985000D03*
%TO.P,U2,11,F*%
X109605000Y-55445000D03*
%TO.P,U2,12,G*%
X109605000Y-52905000D03*
%TO.P,U2,13,Qh*%
X109605000Y-50365000D03*
%TO.P,U2,14,H*%
X109605000Y-47825000D03*
%TO.P,U2,15,PE*%
X109605000Y-45285000D03*
%TO.P,U2,16,VCC*%
X109605000Y-42745000D03*
%TD*%
D14*
%TO.P,J4,1,Pin_1*%
%TO.N,N/C*%
X137915000Y-66350000D03*
D15*
%TO.P,J4,2,Pin_2*%
X135375000Y-66350000D03*
%TO.P,J4,3,Pin_3*%
X132835000Y-66350000D03*
%TO.P,J4,4,Pin_4*%
X130295000Y-66350000D03*
%TO.P,J4,5,Pin_5*%
X127755000Y-66350000D03*
%TO.P,J4,6,Pin_6*%
X125215000Y-66350000D03*
%TO.P,J4,7,Pin_7*%
X122675000Y-66350000D03*
%TO.P,J4,8,Pin_8*%
X120135000Y-66350000D03*
%TD*%
D14*
%TO.P,J3,1,Pin_1*%
%TO.N,N/C*%
X114605000Y-66460000D03*
D15*
%TO.P,J3,2,Pin_2*%
X112065000Y-66460000D03*
%TO.P,J3,3,Pin_3*%
X109525000Y-66460000D03*
%TO.P,J3,4,Pin_4*%
X106985000Y-66460000D03*
%TO.P,J3,5,Pin_5*%
X104445000Y-66460000D03*
%TO.P,J3,6,Pin_6*%
X101905000Y-66460000D03*
%TO.P,J3,7,Pin_7*%
X99365000Y-66460000D03*
%TO.P,J3,8,Pin_8*%
X96825000Y-66460000D03*
%TD*%
D18*
%TO.P,U1,1,Ds*%
%TO.N,N/C*%
X78570000Y-42530000D03*
D20*
%TO.P,U1,2,A*%
X78570000Y-45070000D03*
%TO.P,U1,3,B*%
X78570000Y-47610000D03*
%TO.P,U1,4,C*%
X78570000Y-50150000D03*
%TO.P,U1,5,D*%
X78570000Y-52690000D03*
%TO.P,U1,6,CE*%
X78570000Y-55230000D03*
%TO.P,U1,7,Clk*%
X78570000Y-57770000D03*
%TO.P,U1,8,GND*%
X78570000Y-60310000D03*
%TO.P,U1,9,Clr*%
X86190000Y-60310000D03*
%TO.P,U1,10,E*%
X86190000Y-57770000D03*
%TO.P,U1,11,F*%
X86190000Y-55230000D03*
%TO.P,U1,12,G*%
X86190000Y-52690000D03*
%TO.P,U1,13,Qh*%
X86190000Y-50150000D03*
%TO.P,U1,14,H*%
X86190000Y-47610000D03*
%TO.P,U1,15,PE*%
X86190000Y-45070000D03*
%TO.P,U1,16,VCC*%
X86190000Y-42530000D03*
%TD*%
D23*
%TO.P,RV1,1,1*%
%TO.N,N/C*%
X161117500Y-103875000D03*
D24*
%TO.P,RV1,2,2*%
X164617500Y-103875000D03*
%TO.P,RV1,3,3*%
X161117500Y-45375000D03*
D25*
%TO.P,RV1,MP*%
X167067500Y-99725000D03*
X158667500Y-98525000D03*
X158667500Y-50725000D03*
X167067500Y-49525000D03*
%TD*%
D23*
%TO.P,RV2,1,1*%
%TO.N,N/C*%
X147962500Y-103640000D03*
D24*
%TO.P,RV2,2,2*%
X151462500Y-103640000D03*
%TO.P,RV2,3,3*%
X147962500Y-45140000D03*
D25*
%TO.P,RV2,MP*%
X153912500Y-99490000D03*
X145512500Y-98290000D03*
X145512500Y-50490000D03*
X153912500Y-49290000D03*
%TD*%
D26*
%TO.P,REF\u002A\u002A,1*%
%TO.N,N/C*%
X138067500Y-76390000D03*
%TD*%
%TO.P,REF\u002A\u002A,1*%
%TO.N,N/C*%
X172397500Y-47845000D03*
%TD*%
D14*
%TO.P,RV3,1,1*%
%TO.N,N/C*%
X134497500Y-92490000D03*
D15*
%TO.P,RV3,2,2*%
X137037500Y-92490000D03*
%TO.P,RV3,3,3*%
X139577500Y-92490000D03*
%TD*%
D14*
%TO.P,J1,1,Pin_1*%
%TO.N,N/C*%
X174517500Y-94140000D03*
D15*
%TO.P,J1,2,Pin_2*%
X174517500Y-91600000D03*
%TO.P,J1,3,Pin_3*%
X174517500Y-89060000D03*
%TO.P,J1,4,Pin_4*%
X174517500Y-86520000D03*
%TO.P,J1,5,Pin_5*%
X174517500Y-83980000D03*
%TO.P,J1,6,Pin_6*%
X174517500Y-81440000D03*
%TD*%
D26*
%TO.P,REF\u002A\u002A,1*%
%TO.N,N/C*%
X172707500Y-104245000D03*
%TD*%
D14*
%TO.P,RV4,1,1*%
%TO.N,N/C*%
X134497500Y-85380000D03*
D15*
%TO.P,RV4,2,2*%
X137037500Y-85380000D03*
%TO.P,RV4,3,3*%
X139577500Y-85380000D03*
%TD*%
D27*
%TO.N,*%
X94137687Y-101190176D03*
X113347356Y-83180507D03*
X93337684Y-101190176D03*
X108216187Y-93290176D03*
X107387687Y-93290176D03*
X95607679Y-78170846D03*
X95382800Y-62528400D03*
X136180000Y-62050000D03*
X94470000Y-62528400D03*
X75817169Y-44257169D03*
X112100000Y-49095000D03*
D28*
X112920000Y-37315000D03*
D27*
X84680661Y-40875661D03*
X105820000Y-41850000D03*
X89565000Y-62528400D03*
X87865661Y-40890661D03*
X127571300Y-40966300D03*
X112936082Y-62649580D03*
X113874961Y-35837795D03*
%TD*%
D29*
%TO.N,*%
X77871487Y-105356376D02*
X77134287Y-106093576D01*
X99527687Y-118200176D02*
X109687687Y-108040176D01*
X77134287Y-106093576D02*
X77134287Y-112236776D01*
X94137687Y-104690176D02*
X93471487Y-105356376D01*
X109687687Y-108040176D02*
X112537687Y-108040176D01*
X84437687Y-112560176D02*
X84437687Y-115790176D01*
X99687687Y-120740176D02*
X109847687Y-110580176D01*
X86997687Y-112510176D02*
X86997687Y-115900176D01*
X89297687Y-118200176D02*
X99527687Y-118200176D01*
X109847687Y-110580176D02*
X112847687Y-110580176D01*
X113687687Y-94150176D02*
X111087687Y-91550176D01*
X112847687Y-110580176D02*
X113687687Y-109740176D01*
X84437687Y-115790176D02*
X89387687Y-120740176D01*
X113687687Y-109740176D02*
X113687687Y-94150176D01*
X89387687Y-120740176D02*
X99687687Y-120740176D01*
X84457687Y-112540176D02*
X84437687Y-112560176D01*
X112987687Y-107590176D02*
X112987687Y-95990176D01*
X86977687Y-112490176D02*
X86997687Y-112510176D01*
X112987687Y-95990176D02*
X111087687Y-94090176D01*
X86997687Y-115900176D02*
X89297687Y-118200176D01*
X77134287Y-112236776D02*
X77387687Y-112490176D01*
X94137687Y-101190176D02*
X94137687Y-104690176D01*
X93471487Y-105356376D02*
X77871487Y-105356376D01*
X77387687Y-112490176D02*
X79357687Y-112490176D01*
X113337687Y-80900836D02*
X113337687Y-80340176D01*
X81897687Y-114280176D02*
X81897687Y-112490176D01*
X76434287Y-105803626D02*
X76434287Y-114036776D01*
X76434287Y-114036776D02*
X77387687Y-114990176D01*
X81187687Y-114990176D02*
X81897687Y-114280176D01*
X92971487Y-104656376D02*
X77581537Y-104656376D01*
X114687687Y-86440176D02*
X114687687Y-82250836D01*
X90757687Y-115660176D02*
X89517687Y-114420176D01*
X111487687Y-89640176D02*
X114687687Y-86440176D01*
X110637687Y-89640176D02*
X111487687Y-89640176D01*
X108216187Y-93290176D02*
X108216187Y-92061676D01*
X108216187Y-92061676D02*
X110637687Y-89640176D01*
X113337687Y-80340176D02*
X112857687Y-79860176D01*
X93337687Y-101190179D02*
X93337687Y-104290176D01*
X93337684Y-101190176D02*
X93337687Y-101190179D01*
X111087687Y-104250176D02*
X99677687Y-115660176D01*
X89517687Y-114420176D02*
X89517687Y-112490176D01*
X99677687Y-115660176D02*
X90757687Y-115660176D01*
X114687687Y-82250836D02*
X113337687Y-80900836D01*
X107387687Y-91900226D02*
X113347356Y-85940557D01*
X112537687Y-108040176D02*
X112987687Y-107590176D01*
X113347356Y-85940557D02*
X113347356Y-83180507D01*
X93337687Y-104290176D02*
X92971487Y-104656376D01*
X77387687Y-114990176D02*
X81187687Y-114990176D01*
X77581537Y-104656376D02*
X76434287Y-105803626D01*
X112857687Y-79860176D02*
X111087687Y-79860176D01*
X105077687Y-96630176D02*
X111087687Y-96630176D01*
X77887687Y-80110176D02*
X93137687Y-95360176D01*
X104767687Y-99170176D02*
X111087687Y-99170176D01*
X97637687Y-80160176D02*
X96784367Y-80160176D01*
X76537687Y-82650176D02*
X77887687Y-82650176D01*
X96393087Y-78956254D02*
X95607679Y-78170846D01*
X93137687Y-97900176D02*
X103497687Y-97900176D01*
X107387687Y-93290176D02*
X107387687Y-91900226D01*
X104607687Y-101710176D02*
X111087687Y-101710176D01*
X93137687Y-100440176D02*
X103337687Y-100440176D01*
X96784367Y-80160176D02*
X96393087Y-79768896D01*
X76537687Y-85190176D02*
X77887687Y-85190176D01*
X91187687Y-85190176D02*
X91187687Y-92040176D01*
X77887687Y-85190176D02*
X93137687Y-100440176D01*
X103337687Y-100440176D02*
X104607687Y-101710176D01*
X93137687Y-95360176D02*
X103807687Y-95360176D01*
X76537687Y-80110176D02*
X77887687Y-80110176D01*
X96393087Y-79768896D02*
X96393087Y-78956254D01*
X103807687Y-95360176D02*
X105077687Y-96630176D01*
X93237687Y-94090176D02*
X95847687Y-94090176D01*
X91187687Y-92040176D02*
X93237687Y-94090176D01*
X77887687Y-82650176D02*
X93137687Y-97900176D01*
X103497687Y-97900176D02*
X104767687Y-99170176D01*
D30*
X92314418Y-80110176D02*
X92743087Y-80538845D01*
X94487687Y-84990176D02*
X94737687Y-85240176D01*
X80407487Y-78059976D02*
X78093087Y-78059976D01*
X92743087Y-80538845D02*
X92743087Y-81280776D01*
X94737687Y-85240176D02*
X97637687Y-85240176D01*
D31*
X77027487Y-78059976D02*
X76537687Y-77570176D01*
X78093087Y-78059976D02*
X77027487Y-78059976D01*
D30*
X92743087Y-81280776D02*
X94487687Y-83025376D01*
D31*
X118143087Y-93159976D02*
X117077487Y-93159976D01*
D30*
X91187687Y-80110176D02*
X92314418Y-80110176D01*
X93467687Y-111870176D02*
X91687687Y-110090176D01*
X91187687Y-80110176D02*
X82457687Y-80110176D01*
X82457687Y-80110176D02*
X80407487Y-78059976D01*
X79277687Y-107290176D02*
X81817687Y-107290176D01*
X94487687Y-83025376D02*
X94487687Y-84990176D01*
X76537687Y-75030176D02*
X93027687Y-75030176D01*
X116537687Y-119040176D02*
X118287687Y-119040176D01*
X91687687Y-110090176D02*
X91687687Y-107440176D01*
X118641987Y-93658876D02*
X118143087Y-93159976D01*
X84357687Y-107290176D02*
X86897687Y-107290176D01*
D31*
X117077487Y-93159976D02*
X116587687Y-92670176D01*
D30*
X93027687Y-75030176D02*
X93737687Y-75740176D01*
X118641987Y-118685876D02*
X118641987Y-93658876D01*
D31*
X110597887Y-84450376D02*
X111087687Y-84940176D01*
D30*
X93737687Y-78422175D02*
X94943087Y-79627575D01*
X118287687Y-119040176D02*
X118641987Y-118685876D01*
X93737687Y-75740176D02*
X93737687Y-78422175D01*
D31*
X109532287Y-84450376D02*
X110597887Y-84450376D01*
D30*
X86897687Y-107290176D02*
X89437687Y-107290176D01*
X94943087Y-80369506D02*
X97273757Y-82700176D01*
X81817687Y-107290176D02*
X84357687Y-107290176D01*
X91537687Y-107290176D02*
X89437687Y-107290176D01*
X94943087Y-79627575D02*
X94943087Y-80369506D01*
X97637687Y-82700176D02*
X107782087Y-82700176D01*
X95847687Y-111870176D02*
X93467687Y-111870176D01*
X91687687Y-107440176D02*
X91537687Y-107290176D01*
X107782087Y-82700176D02*
X109532287Y-84450376D01*
X97273757Y-82700176D02*
X97637687Y-82700176D01*
X49485000Y-92870000D02*
X49485000Y-87870000D01*
X65210000Y-74845000D02*
X61985000Y-71620000D01*
X65180000Y-79925000D02*
X68760000Y-79925000D01*
X49485000Y-67870000D02*
X49485000Y-62870000D01*
X68760000Y-77385000D02*
X59970000Y-77385000D01*
X61985000Y-67870000D02*
X61985000Y-62870000D01*
X61985000Y-83120000D02*
X65180000Y-79925000D01*
X61985000Y-87870000D02*
X61985000Y-83120000D01*
X49485000Y-67870000D02*
X49485000Y-87870000D01*
X59970000Y-77385000D02*
X53750000Y-77385000D01*
X61985000Y-92870000D02*
X61985000Y-87870000D01*
X68760000Y-74845000D02*
X65210000Y-74845000D01*
X61985000Y-71620000D02*
X61985000Y-67870000D01*
X59970000Y-77385000D02*
X53720000Y-77385000D01*
X49485000Y-81620000D02*
X49485000Y-87870000D01*
X53750000Y-77385000D02*
X49485000Y-73120000D01*
X53720000Y-77385000D02*
X49485000Y-81620000D01*
X49485000Y-73120000D02*
X49485000Y-67870000D01*
X109720000Y-37315000D02*
X112920000Y-37315000D01*
X129620000Y-37315000D02*
X132910000Y-40605000D01*
D29*
X111850000Y-45285000D02*
X110905000Y-45285000D01*
D30*
X111025000Y-41325000D02*
X109605000Y-42745000D01*
X111025000Y-39915000D02*
X111025000Y-41325000D01*
D29*
X110905000Y-45285000D02*
X109605000Y-45285000D01*
D30*
X112920000Y-37315000D02*
X111025000Y-39210000D01*
X105820000Y-58215000D02*
X108130000Y-60525000D01*
X109720000Y-37315000D02*
X89320000Y-37315000D01*
X89320000Y-37315000D02*
X86190000Y-40445000D01*
X132910000Y-40605000D02*
X132910000Y-42855000D01*
X128920000Y-58315000D02*
X131240000Y-60635000D01*
X106420000Y-45315000D02*
X106420000Y-57215000D01*
X105820000Y-57815000D02*
X105820000Y-58215000D01*
X108130000Y-60525000D02*
X109605000Y-60525000D01*
X111025000Y-37315000D02*
X111025000Y-39915000D01*
X106420000Y-57215000D02*
X105820000Y-57815000D01*
X83505000Y-42530000D02*
X82120000Y-43915000D01*
X109605000Y-42745000D02*
X108990000Y-42745000D01*
D29*
X112100000Y-49095000D02*
X112100000Y-45695000D01*
D30*
X111025000Y-39210000D02*
X111025000Y-41325000D01*
X82120000Y-43915000D02*
X82120000Y-57371400D01*
X86190000Y-42530000D02*
X83505000Y-42530000D01*
X85058600Y-60310000D02*
X86190000Y-60310000D01*
X108990000Y-42745000D02*
X106420000Y-45315000D01*
D29*
X94470000Y-62676261D02*
X95173639Y-63379900D01*
D30*
X82120000Y-57371400D02*
X85058600Y-60310000D01*
X112920000Y-37315000D02*
X115035000Y-37315000D01*
X131240000Y-60635000D02*
X132910000Y-60635000D01*
X86190000Y-40445000D02*
X86190000Y-42530000D01*
D29*
X112205762Y-63379900D02*
X112936082Y-62649580D01*
D30*
X129980000Y-42855000D02*
X128920000Y-43915000D01*
X115035000Y-37315000D02*
X129620000Y-37315000D01*
X128920000Y-43915000D02*
X128920000Y-58315000D01*
X132910000Y-42855000D02*
X129980000Y-42855000D01*
D29*
X122655000Y-61300000D02*
X122655000Y-60080000D01*
X114327850Y-58850000D02*
X112645000Y-60532850D01*
X95534300Y-62679900D02*
X95382800Y-62528400D01*
X124310000Y-62955000D02*
X122655000Y-61300000D01*
X112645000Y-60532850D02*
X112645000Y-61880000D01*
X104860661Y-40890661D02*
X87865661Y-40890661D01*
X79059339Y-40875661D02*
X78570000Y-41365000D01*
X135275000Y-62955000D02*
X124310000Y-62955000D01*
X122655000Y-60080000D02*
X121425000Y-58850000D01*
X84680661Y-40875661D02*
X79059339Y-40875661D01*
X78570000Y-41365000D02*
X78570000Y-42530000D01*
X111845100Y-62679900D02*
X95534300Y-62679900D01*
X112645000Y-61880000D02*
X111845100Y-62679900D01*
X136180000Y-62050000D02*
X135275000Y-62955000D01*
X121425000Y-58850000D02*
X114327850Y-58850000D01*
X105820000Y-41850000D02*
X104860661Y-40890661D01*
X83878400Y-61778400D02*
X96891600Y-61778400D01*
X103405000Y-35500102D02*
X103405000Y-33080000D01*
X100865000Y-34770000D02*
X100865000Y-33080000D01*
X74520000Y-46615000D02*
X74520000Y-56732700D01*
X127571300Y-40966300D02*
X116168700Y-40966300D01*
X74520000Y-46615000D02*
X76720000Y-44415000D01*
X89565000Y-62528400D02*
X89207700Y-62885700D01*
X73820000Y-59680000D02*
X73820000Y-46325050D01*
X95173639Y-63379900D02*
X112205762Y-63379900D01*
X113874961Y-35837795D02*
X103742693Y-35837795D01*
X101985000Y-57985000D02*
X100685000Y-57985000D01*
X75557300Y-57770000D02*
X78570000Y-57770000D01*
X74520000Y-56732700D02*
X75557300Y-57770000D01*
X89207700Y-62885700D02*
X77025700Y-62885700D01*
X76720000Y-41815000D02*
X82770000Y-35765000D01*
X110208000Y-61979900D02*
X114092900Y-58095000D01*
X76720000Y-44415000D02*
X76720000Y-41815000D01*
X99133100Y-59536900D02*
X101576000Y-61979900D01*
X114092900Y-58095000D02*
X125290000Y-58095000D01*
X79870000Y-57770000D02*
X83878400Y-61778400D01*
X78570000Y-57770000D02*
X79870000Y-57770000D01*
X116168700Y-40966300D02*
X111850000Y-45285000D01*
X101576000Y-61979900D02*
X110208000Y-61979900D01*
X99870000Y-35765000D02*
X100865000Y-34770000D01*
X96891600Y-61778400D02*
X99133100Y-59536900D01*
X77025700Y-62885700D02*
X73820000Y-59680000D01*
X99133100Y-59536900D02*
X100685000Y-57985000D01*
X103742693Y-35837795D02*
X103405000Y-35500102D01*
X73820000Y-46325050D02*
X75817169Y-44327881D01*
X111690000Y-45285000D02*
X110905000Y-45285000D01*
X82770000Y-35765000D02*
X99870000Y-35765000D01*
X75817169Y-44327881D02*
X75817169Y-44257169D01*
X94470000Y-62528400D02*
X94470000Y-62676261D01*
X112100000Y-45695000D02*
X111690000Y-45285000D01*
D30*
X170697500Y-95225000D02*
X171782500Y-94140000D01*
X161712500Y-105950000D02*
X161117500Y-105355000D01*
X134497500Y-90290000D02*
X145352500Y-90290000D01*
X134497500Y-94395000D02*
X134497500Y-92490000D01*
X162897500Y-86520000D02*
X174517500Y-86520000D01*
X145352500Y-87580000D02*
X134497500Y-87580000D01*
X150817500Y-106495000D02*
X147962500Y-103640000D01*
X147897500Y-103705000D02*
X145647500Y-103705000D01*
X162686273Y-106460461D02*
X166536273Y-106460461D01*
X161117500Y-105355000D02*
X161117500Y-103875000D01*
X145352500Y-90290000D02*
X145352500Y-87580000D01*
X149792500Y-101970000D02*
X151462500Y-103640000D01*
X134792500Y-94690000D02*
X134497500Y-94395000D01*
X166817500Y-104165000D02*
X170697500Y-100285000D01*
X171782500Y-94140000D02*
X174517500Y-94140000D01*
X164617500Y-103875000D02*
X162897500Y-102155000D01*
X134497500Y-87580000D02*
X134497500Y-85380000D01*
X142797500Y-100855000D02*
X142797500Y-96625000D01*
X166536273Y-106460461D02*
X166817500Y-106179234D01*
X166817500Y-106179234D02*
X166817500Y-104165000D01*
X174517500Y-83980000D02*
X149978770Y-83980000D01*
X149978770Y-83980000D02*
X149792500Y-84166270D01*
X134497500Y-92490000D02*
X134497500Y-90290000D01*
X142797500Y-96625000D02*
X140862500Y-94690000D01*
X147962500Y-103640000D02*
X147897500Y-103705000D01*
X170697500Y-100285000D02*
X170697500Y-95225000D01*
X140862500Y-94690000D02*
X134792500Y-94690000D01*
X162897500Y-102155000D02*
X162897500Y-86520000D01*
X149792500Y-84166270D02*
X149792500Y-101970000D01*
X163397500Y-81440000D02*
X163027500Y-81070000D01*
X142312500Y-84780000D02*
X141712500Y-85380000D01*
X163027500Y-47285000D02*
X161117500Y-45375000D01*
X149717500Y-81440000D02*
X149712500Y-81435000D01*
X163027500Y-81070000D02*
X163027500Y-47285000D01*
X147091230Y-85380000D02*
X139577500Y-85380000D01*
X149712500Y-81435000D02*
X149712500Y-46890000D01*
X147552500Y-92490000D02*
X147552500Y-85868730D01*
X174517500Y-81440000D02*
X147552500Y-81440000D01*
X149712500Y-46890000D02*
X147962500Y-45140000D01*
X145647500Y-103705000D02*
X142797500Y-100855000D01*
X162257500Y-106495000D02*
X150817500Y-106495000D01*
X147566230Y-85855000D02*
X147091230Y-85380000D01*
X174517500Y-81440000D02*
X163397500Y-81440000D01*
X147552500Y-85868730D02*
X147566230Y-85855000D01*
X147552500Y-81440000D02*
X147552500Y-85868730D01*
X139577500Y-92490000D02*
X147552500Y-92490000D01*
X141712500Y-85380000D02*
X139577500Y-85380000D01*
%TD*%
M02*
