%TF.GenerationSoftware,KiCad,Pcbnew,8.0.6*%
%TF.CreationDate,2026-05-30T20:44:28+02:00*%
%TF.ProjectId,untitled,756e7469-746c-4656-942e-6b696361645f,rev?*%
%TF.SameCoordinates,Original*%
%TF.FileFunction,Soldermask,Top*%
%TF.FilePolarity,Negative*%
%FSLAX46Y46*%
G04 Gerber Fmt 4.6, Leading zero omitted, Abs format (unit mm)*
G04 Created by KiCad (PCBNEW 8.0.6) date 2026-05-30 20:44:28*
%MOMM*%
%LPD*%
G01*
G04 APERTURE LIST*
%ADD10R,1.800000X1.800000*%
%ADD11C,1.800000*%
%ADD12R,1.700000X1.700000*%
%ADD13O,1.700000X1.700000*%
%ADD14R,2.000000X2.000000*%
%ADD15C,2.000000*%
%ADD16R,1.600000X1.600000*%
%ADD17C,1.600000*%
%ADD18O,1.600000X1.600000*%
%ADD19O,3.200000X1.900000*%
%ADD20C,5.700000*%
%ADD21R,1.750000X1.750000*%
%ADD22C,1.750000*%
%ADD23C,2.700000*%
%ADD24C,5.600000*%
G04 APERTURE END LIST*
D10*
%TO.C,D1*%
X126762687Y-116090176D03*
D11*
X124222687Y-116090176D03*
%TD*%
D12*
%TO.C,J2*%
X91187687Y-85190176D03*
D13*
X91187687Y-82650176D03*
X91187687Y-80110176D03*
%TD*%
D14*
%TO.C,C1*%
X81787687Y-99207876D03*
D15*
X81787687Y-94207876D03*
%TD*%
D12*
%TO.C,J3*%
X76537687Y-85190176D03*
D13*
X76537687Y-82650176D03*
X76537687Y-80110176D03*
X76537687Y-77570176D03*
X76537687Y-75030176D03*
%TD*%
D12*
%TO.C,J8*%
X89487687Y-109890176D03*
D13*
X86947687Y-109890176D03*
X84407687Y-109890176D03*
X81867687Y-109890176D03*
X79327687Y-109890176D03*
%TD*%
D16*
%TO.C,U1*%
X111087687Y-119490176D03*
D17*
X111087687Y-116950176D03*
X111087687Y-114410176D03*
X111087687Y-111870176D03*
X111087687Y-109330176D03*
X111087687Y-106790176D03*
X111087687Y-104250176D03*
X111087687Y-101710176D03*
X111087687Y-99170176D03*
X111087687Y-96630176D03*
X111087687Y-94090176D03*
X111087687Y-91550176D03*
X95847687Y-91550176D03*
X95847687Y-94090176D03*
X95847687Y-96630176D03*
X95847687Y-99170176D03*
X95847687Y-101710176D03*
X95847687Y-104250176D03*
X95847687Y-106790176D03*
X95847687Y-109330176D03*
X95847687Y-111870176D03*
X95847687Y-114410176D03*
X95847687Y-116950176D03*
X95847687Y-119490176D03*
%TD*%
D12*
%TO.C,J7*%
X89437687Y-107290176D03*
D13*
X86897687Y-107290176D03*
X84357687Y-107290176D03*
X81817687Y-107290176D03*
X79277687Y-107290176D03*
%TD*%
D17*
%TO.C,R1*%
X116537687Y-119040176D03*
D18*
X116537687Y-106340176D03*
%TD*%
D12*
%TO.C,J5*%
X116587687Y-100290176D03*
D13*
X116587687Y-97750176D03*
X116587687Y-95210176D03*
X116587687Y-92670176D03*
%TD*%
D12*
%TO.C,J4*%
X111087687Y-84940176D03*
D13*
X111087687Y-82400176D03*
X111087687Y-79860176D03*
X111087687Y-77320176D03*
%TD*%
D12*
%TO.C,J6*%
X89517687Y-112490176D03*
D13*
X86977687Y-112490176D03*
X84437687Y-112490176D03*
X81897687Y-112490176D03*
X79357687Y-112490176D03*
%TD*%
D12*
%TO.C,J1*%
X97637687Y-85240176D03*
D13*
X97637687Y-82700176D03*
X97637687Y-80160176D03*
X97637687Y-77620176D03*
X97637687Y-75080176D03*
X97637687Y-72540176D03*
%TD*%
D19*
%TO.C,SW1*%
X49485000Y-87870000D03*
X61985000Y-87870000D03*
X49485000Y-92870000D03*
X61985000Y-92870000D03*
%TD*%
D20*
%TO.C,REF\u002A\u002A*%
X55735000Y-52370000D03*
%TD*%
D19*
%TO.C,SW2*%
X49485000Y-62870000D03*
X61985000Y-62870000D03*
X49485000Y-67870000D03*
X61985000Y-67870000D03*
%TD*%
D20*
%TO.C,REF\u002A\u002A*%
X55735000Y-103370000D03*
%TD*%
%TO.C,*%
X55735000Y-52370000D03*
%TD*%
D13*
%TO.C,J1*%
X68760000Y-79925000D03*
X68760000Y-77385000D03*
D12*
X68760000Y-74845000D03*
%TD*%
%TO.C,J1*%
X100865000Y-33080000D03*
D13*
X103405000Y-33080000D03*
X105945000Y-33080000D03*
X108485000Y-33080000D03*
X111025000Y-33080000D03*
%TD*%
D16*
%TO.C,U3*%
X125290000Y-42855000D03*
D18*
X125290000Y-45395000D03*
X125290000Y-47935000D03*
X125290000Y-50475000D03*
X125290000Y-53015000D03*
X125290000Y-55555000D03*
X125290000Y-58095000D03*
X125290000Y-60635000D03*
X132910000Y-60635000D03*
X132910000Y-58095000D03*
X132910000Y-55555000D03*
X132910000Y-53015000D03*
X132910000Y-50475000D03*
X132910000Y-47935000D03*
X132910000Y-45395000D03*
X132910000Y-42855000D03*
%TD*%
D12*
%TO.C,J2*%
X91300000Y-66340000D03*
D13*
X88760000Y-66340000D03*
X86220000Y-66340000D03*
X83680000Y-66340000D03*
X81140000Y-66340000D03*
X78600000Y-66340000D03*
X76060000Y-66340000D03*
X73520000Y-66340000D03*
%TD*%
D12*
%TO.C,J5*%
X117365000Y-66450000D03*
%TD*%
D16*
%TO.C,U2*%
X101985000Y-42745000D03*
D18*
X101985000Y-45285000D03*
X101985000Y-47825000D03*
X101985000Y-50365000D03*
X101985000Y-52905000D03*
X101985000Y-55445000D03*
X101985000Y-57985000D03*
X101985000Y-60525000D03*
X109605000Y-60525000D03*
X109605000Y-57985000D03*
X109605000Y-55445000D03*
X109605000Y-52905000D03*
X109605000Y-50365000D03*
X109605000Y-47825000D03*
X109605000Y-45285000D03*
X109605000Y-42745000D03*
%TD*%
D12*
%TO.C,J4*%
X137915000Y-66350000D03*
D13*
X135375000Y-66350000D03*
X132835000Y-66350000D03*
X130295000Y-66350000D03*
X127755000Y-66350000D03*
X125215000Y-66350000D03*
X122675000Y-66350000D03*
X120135000Y-66350000D03*
%TD*%
D12*
%TO.C,J3*%
X114605000Y-66460000D03*
D13*
X112065000Y-66460000D03*
X109525000Y-66460000D03*
X106985000Y-66460000D03*
X104445000Y-66460000D03*
X101905000Y-66460000D03*
X99365000Y-66460000D03*
X96825000Y-66460000D03*
%TD*%
D16*
%TO.C,U1*%
X78570000Y-42530000D03*
D18*
X78570000Y-45070000D03*
X78570000Y-47610000D03*
X78570000Y-50150000D03*
X78570000Y-52690000D03*
X78570000Y-55230000D03*
X78570000Y-57770000D03*
X78570000Y-60310000D03*
X86190000Y-60310000D03*
X86190000Y-57770000D03*
X86190000Y-55230000D03*
X86190000Y-52690000D03*
X86190000Y-50150000D03*
X86190000Y-47610000D03*
X86190000Y-45070000D03*
X86190000Y-42530000D03*
%TD*%
D21*
%TO.C,RV1*%
X161117500Y-103875000D03*
D22*
X164617500Y-103875000D03*
X161117500Y-45375000D03*
D23*
X167067500Y-99725000D03*
X158667500Y-98525000D03*
X158667500Y-50725000D03*
X167067500Y-49525000D03*
%TD*%
D21*
%TO.C,RV2*%
X147962500Y-103640000D03*
D22*
X151462500Y-103640000D03*
X147962500Y-45140000D03*
D23*
X153912500Y-99490000D03*
X145512500Y-98290000D03*
X145512500Y-50490000D03*
X153912500Y-49290000D03*
%TD*%
D24*
%TO.C,REF\u002A\u002A*%
X138067500Y-76390000D03*
%TD*%
%TO.C,REF\u002A\u002A*%
X172397500Y-47845000D03*
%TD*%
D12*
%TO.C,RV3*%
X134497500Y-92490000D03*
D13*
X137037500Y-92490000D03*
X139577500Y-92490000D03*
%TD*%
D12*
%TO.C,J1*%
X174517500Y-94140000D03*
D13*
X174517500Y-91600000D03*
X174517500Y-89060000D03*
X174517500Y-86520000D03*
X174517500Y-83980000D03*
X174517500Y-81440000D03*
%TD*%
D24*
%TO.C,REF\u002A\u002A*%
X172707500Y-104245000D03*
%TD*%
D12*
%TO.C,RV4*%
X134497500Y-85380000D03*
D13*
X137037500Y-85380000D03*
X139577500Y-85380000D03*
%TD*%
M02*
