%TF.GenerationSoftware,KiCad,Pcbnew,8.0.6*%
%TF.CreationDate,2026-05-30T13:23:38+02:00*%
%TF.ProjectId,_carrier,5f636172-7269-4657-922e-6b696361645f,rev?*%
%TF.SameCoordinates,Original*%
%TF.FileFunction,Drillmap*%
%TF.FilePolarity,Positive*%
%FSLAX45Y45*%
G04 Gerber Fmt 4.5, Leading zero omitted, Abs format (unit mm)*
G04 Created by KiCad (PCBNEW 8.0.6) date 2026-05-30 13:23:38*
%MOMM*%
%LPD*%
G01*
G04 APERTURE LIST*
%ADD10C,0.050000*%
%ADD11C,0.200000*%
G04 APERTURE END LIST*
D10*
X14060000Y-7660000D02*
X14060000Y-6540000D01*
X15730000Y-10700000D02*
X15730000Y-11785000D01*
X9785000Y-11785000D02*
X9790000Y-6535000D01*
X15730000Y-10700000D02*
X15020000Y-10700000D01*
X15730000Y-11785000D02*
X12615000Y-11785000D01*
X15020000Y-8620000D02*
X14060000Y-7660000D01*
X9790000Y-6535000D02*
X14060000Y-6540000D01*
X15020000Y-8620000D02*
X15020000Y-10700000D01*
X12615000Y-11785000D02*
X9785000Y-11785000D01*
D11*
X10043277Y-12098984D02*
X10043277Y-11898984D01*
X10043277Y-11898984D02*
X10090896Y-11898984D01*
X10090896Y-11898984D02*
X10119467Y-11908508D01*
X10119467Y-11908508D02*
X10138515Y-11927555D01*
X10138515Y-11927555D02*
X10148039Y-11946603D01*
X10148039Y-11946603D02*
X10157563Y-11984698D01*
X10157563Y-11984698D02*
X10157563Y-12013269D01*
X10157563Y-12013269D02*
X10148039Y-12051365D01*
X10148039Y-12051365D02*
X10138515Y-12070412D01*
X10138515Y-12070412D02*
X10119467Y-12089460D01*
X10119467Y-12089460D02*
X10090896Y-12098984D01*
X10090896Y-12098984D02*
X10043277Y-12098984D01*
X10243277Y-12098984D02*
X10243277Y-11965650D01*
X10243277Y-12003746D02*
X10252801Y-11984698D01*
X10252801Y-11984698D02*
X10262324Y-11975174D01*
X10262324Y-11975174D02*
X10281372Y-11965650D01*
X10281372Y-11965650D02*
X10300420Y-11965650D01*
X10367086Y-12098984D02*
X10367086Y-11965650D01*
X10367086Y-11898984D02*
X10357563Y-11908508D01*
X10357563Y-11908508D02*
X10367086Y-11918031D01*
X10367086Y-11918031D02*
X10376610Y-11908508D01*
X10376610Y-11908508D02*
X10367086Y-11898984D01*
X10367086Y-11898984D02*
X10367086Y-11918031D01*
X10490896Y-12098984D02*
X10471848Y-12089460D01*
X10471848Y-12089460D02*
X10462324Y-12070412D01*
X10462324Y-12070412D02*
X10462324Y-11898984D01*
X10595658Y-12098984D02*
X10576610Y-12089460D01*
X10576610Y-12089460D02*
X10567086Y-12070412D01*
X10567086Y-12070412D02*
X10567086Y-11898984D01*
X10824229Y-12098984D02*
X10824229Y-11898984D01*
X10824229Y-11898984D02*
X10890896Y-12041841D01*
X10890896Y-12041841D02*
X10957563Y-11898984D01*
X10957563Y-11898984D02*
X10957563Y-12098984D01*
X11138515Y-12098984D02*
X11138515Y-11994222D01*
X11138515Y-11994222D02*
X11128991Y-11975174D01*
X11128991Y-11975174D02*
X11109944Y-11965650D01*
X11109944Y-11965650D02*
X11071848Y-11965650D01*
X11071848Y-11965650D02*
X11052801Y-11975174D01*
X11138515Y-12089460D02*
X11119467Y-12098984D01*
X11119467Y-12098984D02*
X11071848Y-12098984D01*
X11071848Y-12098984D02*
X11052801Y-12089460D01*
X11052801Y-12089460D02*
X11043277Y-12070412D01*
X11043277Y-12070412D02*
X11043277Y-12051365D01*
X11043277Y-12051365D02*
X11052801Y-12032317D01*
X11052801Y-12032317D02*
X11071848Y-12022793D01*
X11071848Y-12022793D02*
X11119467Y-12022793D01*
X11119467Y-12022793D02*
X11138515Y-12013269D01*
X11233753Y-11965650D02*
X11233753Y-12165650D01*
X11233753Y-11975174D02*
X11252801Y-11965650D01*
X11252801Y-11965650D02*
X11290896Y-11965650D01*
X11290896Y-11965650D02*
X11309943Y-11975174D01*
X11309943Y-11975174D02*
X11319467Y-11984698D01*
X11319467Y-11984698D02*
X11328991Y-12003746D01*
X11328991Y-12003746D02*
X11328991Y-12060888D01*
X11328991Y-12060888D02*
X11319467Y-12079936D01*
X11319467Y-12079936D02*
X11309943Y-12089460D01*
X11309943Y-12089460D02*
X11290896Y-12098984D01*
X11290896Y-12098984D02*
X11252801Y-12098984D01*
X11252801Y-12098984D02*
X11233753Y-12089460D01*
X11414705Y-12079936D02*
X11424229Y-12089460D01*
X11424229Y-12089460D02*
X11414705Y-12098984D01*
X11414705Y-12098984D02*
X11405182Y-12089460D01*
X11405182Y-12089460D02*
X11414705Y-12079936D01*
X11414705Y-12079936D02*
X11414705Y-12098984D01*
X11414705Y-11975174D02*
X11424229Y-11984698D01*
X11424229Y-11984698D02*
X11414705Y-11994222D01*
X11414705Y-11994222D02*
X11405182Y-11984698D01*
X11405182Y-11984698D02*
X11414705Y-11975174D01*
X11414705Y-11975174D02*
X11414705Y-11994222D01*
M02*
