%TF.GenerationSoftware,KiCad,Pcbnew,8.0.6*%
%TF.CreationDate,2026-05-30T13:23:42+02:00*%
%TF.ProjectId,_carrier,5f636172-7269-4657-922e-6b696361645f,rev?*%
%TF.SameCoordinates,Original*%
%TF.FileFunction,Copper,L1,Top*%
%TF.FilePolarity,Positive*%
%FSLAX46Y46*%
G04 Gerber Fmt 4.6, Leading zero omitted, Abs format (unit mm)*
G04 Created by KiCad (PCBNEW 8.0.6) date 2026-05-30 13:23:42*
%MOMM*%
%LPD*%
G01*
G04 APERTURE LIST*
%TA.AperFunction,ComponentPad*%
%ADD10R,1.700000X1.700000*%
%TD*%
%TA.AperFunction,ComponentPad*%
%ADD11O,1.700000X1.700000*%
%TD*%
%TA.AperFunction,ComponentPad*%
%ADD12R,2.000000X2.000000*%
%TD*%
%TA.AperFunction,ComponentPad*%
%ADD13C,2.000000*%
%TD*%
%TA.AperFunction,ComponentPad*%
%ADD14C,1.600000*%
%TD*%
%TA.AperFunction,ComponentPad*%
%ADD15O,1.600000X1.600000*%
%TD*%
%TA.AperFunction,ComponentPad*%
%ADD16R,1.600000X1.600000*%
%TD*%
%TA.AperFunction,ComponentPad*%
%ADD17R,1.800000X1.800000*%
%TD*%
%TA.AperFunction,ComponentPad*%
%ADD18C,1.800000*%
%TD*%
%TA.AperFunction,ViaPad*%
%ADD19C,0.600000*%
%TD*%
%TA.AperFunction,Conductor*%
%ADD20C,2.000000*%
%TD*%
%TA.AperFunction,Conductor*%
%ADD21C,1.699800*%
%TD*%
%TA.AperFunction,Conductor*%
%ADD22C,0.500000*%
%TD*%
G04 APERTURE END LIST*
D10*
%TO.P,J4,1,Pin_1*%
%TO.N,+5V*%
X137600000Y-80950000D03*
D11*
%TO.P,J4,2,Pin_2*%
%TO.N,GND*%
X137600000Y-78410000D03*
%TO.P,J4,3,Pin_3*%
%TO.N,SCL*%
X137600000Y-75870000D03*
%TO.P,J4,4,Pin_4*%
%TO.N,SDA*%
X137600000Y-73330000D03*
%TD*%
D10*
%TO.P,J1,1,Pin_1*%
%TO.N,GND*%
X124150000Y-81250000D03*
D11*
%TO.P,J1,2,Pin_2*%
%TO.N,+5V*%
X124150000Y-78710000D03*
%TO.P,J1,3,Pin_3*%
%TO.N,RVSLD2*%
X124150000Y-76170000D03*
%TO.P,J1,4,Pin_4*%
%TO.N,RVSLD1*%
X124150000Y-73630000D03*
%TO.P,J1,5,Pin_5*%
%TO.N,RVROT2*%
X124150000Y-71090000D03*
%TO.P,J1,6,Pin_6*%
%TO.N,RVROT1*%
X124150000Y-68550000D03*
%TD*%
D10*
%TO.P,J3,1,Pin_1*%
%TO.N,CLK*%
X103050000Y-81200000D03*
D11*
%TO.P,J3,2,Pin_2*%
%TO.N,SH{slash}LD*%
X103050000Y-78660000D03*
%TO.P,J3,3,Pin_3*%
%TO.N,Qh*%
X103050000Y-76120000D03*
%TO.P,J3,4,Pin_4*%
%TO.N,GND*%
X103050000Y-73580000D03*
%TO.P,J3,5,Pin_5*%
%TO.N,+5V*%
X103050000Y-71040000D03*
%TD*%
D10*
%TO.P,J6,1,Pin_1*%
%TO.N,4*%
X116030000Y-108500000D03*
D11*
%TO.P,J6,2,Pin_2*%
%TO.N,8*%
X113490000Y-108500000D03*
%TO.P,J6,3,Pin_3*%
%TO.N,9*%
X110950000Y-108500000D03*
%TO.P,J6,4,Pin_4*%
%TO.N,14*%
X108410000Y-108500000D03*
%TO.P,J6,5,Pin_5*%
%TO.N,15*%
X105870000Y-108500000D03*
%TD*%
D12*
%TO.P,C1,1*%
%TO.N,+5V*%
X108300000Y-95217700D03*
D13*
%TO.P,C1,2*%
%TO.N,GND*%
X108300000Y-90217700D03*
%TD*%
D10*
%TO.P,J5,1,Pin_1*%
%TO.N,Tx*%
X143100000Y-96300000D03*
D11*
%TO.P,J5,2,Pin_2*%
%TO.N,Rx*%
X143100000Y-93760000D03*
%TO.P,J5,3,Pin_3*%
%TO.N,GND*%
X143100000Y-91220000D03*
%TO.P,J5,4,Pin_4*%
%TO.N,+5V*%
X143100000Y-88680000D03*
%TD*%
D14*
%TO.P,R1,1*%
%TO.N,+5V*%
X143050000Y-115050000D03*
D15*
%TO.P,R1,2*%
%TO.N,Net-(D1-A)*%
X143050000Y-102350000D03*
%TD*%
D10*
%TO.P,J7,1,Pin_1*%
%TO.N,+5V*%
X115950000Y-103300000D03*
D11*
%TO.P,J7,2,Pin_2*%
X113410000Y-103300000D03*
%TO.P,J7,3,Pin_3*%
X110870000Y-103300000D03*
%TO.P,J7,4,Pin_4*%
X108330000Y-103300000D03*
%TO.P,J7,5,Pin_5*%
X105790000Y-103300000D03*
%TD*%
D10*
%TO.P,J2,1,Pin_1*%
%TO.N,OCT+*%
X117700000Y-81200000D03*
D11*
%TO.P,J2,2,Pin_2*%
%TO.N,OCT-*%
X117700000Y-78660000D03*
%TO.P,J2,3,Pin_3*%
%TO.N,GND*%
X117700000Y-76120000D03*
%TD*%
D16*
%TO.P,U1,1,TX*%
%TO.N,Tx*%
X137600000Y-115500000D03*
D14*
%TO.P,U1,2,RX*%
%TO.N,Rx*%
X137600000Y-112960000D03*
%TO.P,U1,3,GND*%
%TO.N,unconnected-(U1-GND-Pad3)*%
X137600000Y-110420000D03*
%TO.P,U1,4,GND*%
%TO.N,unconnected-(U1-GND-Pad4)*%
X137600000Y-107880000D03*
%TO.P,U1,5,SDA*%
%TO.N,SDA*%
X137600000Y-105340000D03*
%TO.P,U1,6,SCL*%
%TO.N,SCL*%
X137600000Y-102800000D03*
%TO.P,U1,7,D4*%
%TO.N,4*%
X137600000Y-100260000D03*
%TO.P,U1,8,C6*%
%TO.N,CLK*%
X137600000Y-97720000D03*
%TO.P,U1,9,D7*%
%TO.N,SH{slash}LD*%
X137600000Y-95180000D03*
%TO.P,U1,10,E6*%
%TO.N,Qh*%
X137600000Y-92640000D03*
%TO.P,U1,11,B4*%
%TO.N,8*%
X137600000Y-90100000D03*
%TO.P,U1,12,B5*%
%TO.N,9*%
X137600000Y-87560000D03*
%TO.P,U1,13,B6*%
%TO.N,OCT-*%
X122360000Y-87560000D03*
%TO.P,U1,14,B2*%
%TO.N,OCT+*%
X122360000Y-90100000D03*
%TO.P,U1,15,B3*%
%TO.N,14*%
X122360000Y-92640000D03*
%TO.P,U1,16,B1*%
%TO.N,15*%
X122360000Y-95180000D03*
%TO.P,U1,17,F7*%
%TO.N,RVROT2*%
X122360000Y-97720000D03*
%TO.P,U1,18,F6*%
%TO.N,RVROT1*%
X122360000Y-100260000D03*
%TO.P,U1,19,F5*%
%TO.N,RVSLD2*%
X122360000Y-102800000D03*
%TO.P,U1,20,F4*%
%TO.N,RVSLD1*%
X122360000Y-105340000D03*
%TO.P,U1,21,VCC*%
%TO.N,+5V*%
X122360000Y-107880000D03*
%TO.P,U1,22,RST*%
%TO.N,unconnected-(U1-RST-Pad22)*%
X122360000Y-110420000D03*
%TO.P,U1,23,GND*%
%TO.N,GND*%
X122360000Y-112960000D03*
%TO.P,U1,24,RAW*%
%TO.N,unconnected-(U1-RAW-Pad24)*%
X122360000Y-115500000D03*
%TD*%
D10*
%TO.P,J8,1,Pin_1*%
%TO.N,GND*%
X116000000Y-105900000D03*
D11*
%TO.P,J8,2,Pin_2*%
X113460000Y-105900000D03*
%TO.P,J8,3,Pin_3*%
X110920000Y-105900000D03*
%TO.P,J8,4,Pin_4*%
X108380000Y-105900000D03*
%TO.P,J8,5,Pin_5*%
X105840000Y-105900000D03*
%TD*%
D17*
%TO.P,D1,1,K*%
%TO.N,GND*%
X153275000Y-112100000D03*
D18*
%TO.P,D1,2,A*%
%TO.N,Net-(D1-A)*%
X150735000Y-112100000D03*
%TD*%
D19*
%TO.N,RVSLD2*%
X122119992Y-74180670D03*
%TO.N,SDA*%
X133900000Y-89300000D03*
X139859669Y-79190331D03*
%TO.N,SCL*%
X134728500Y-89300000D03*
%TO.N,14*%
X119849997Y-97200000D03*
%TO.N,15*%
X120650000Y-97200000D03*
%TD*%
D20*
%TO.N,+5V*%
X144800000Y-115050000D02*
X145154300Y-114695700D01*
X120250000Y-74431999D02*
X121455400Y-75637399D01*
X122360000Y-107880000D02*
X119980000Y-107880000D01*
X123786070Y-78710000D02*
X124150000Y-78710000D01*
X145154300Y-114695700D02*
X145154300Y-89668700D01*
X119540000Y-71040000D02*
X120250000Y-71750000D01*
D21*
X137110200Y-80460200D02*
X137600000Y-80950000D01*
X143589800Y-89169800D02*
X143100000Y-88680000D01*
X136044600Y-80460200D02*
X137110200Y-80460200D01*
D20*
X110870000Y-103300000D02*
X113410000Y-103300000D01*
X134294400Y-78710000D02*
X136044600Y-80460200D01*
X118200000Y-103450000D02*
X118050000Y-103300000D01*
X145154300Y-89668700D02*
X144655400Y-89169800D01*
X118200000Y-106100000D02*
X118200000Y-103450000D01*
X124150000Y-78710000D02*
X134294400Y-78710000D01*
X121455400Y-75637399D02*
X121455400Y-76379330D01*
X118050000Y-103300000D02*
X115950000Y-103300000D01*
X108330000Y-103300000D02*
X110870000Y-103300000D01*
X121455400Y-76379330D02*
X123786070Y-78710000D01*
X113410000Y-103300000D02*
X115950000Y-103300000D01*
X120250000Y-71750000D02*
X120250000Y-74431999D01*
D21*
X144655400Y-89169800D02*
X143589800Y-89169800D01*
D20*
X143050000Y-115050000D02*
X144800000Y-115050000D01*
X119980000Y-107880000D02*
X118200000Y-106100000D01*
X105790000Y-103300000D02*
X108330000Y-103300000D01*
X103050000Y-71040000D02*
X119540000Y-71040000D01*
%TO.N,GND*%
X106919800Y-74069800D02*
X104605400Y-74069800D01*
X119255400Y-77290600D02*
X121000000Y-79035200D01*
X108970000Y-76120000D02*
X106919800Y-74069800D01*
X121000000Y-81000000D02*
X121250000Y-81250000D01*
D21*
X104605400Y-74069800D02*
X103539800Y-74069800D01*
X103539800Y-74069800D02*
X103050000Y-73580000D01*
D20*
X121000000Y-79035200D02*
X121000000Y-81000000D01*
X119255400Y-76548669D02*
X119255400Y-77290600D01*
X118826731Y-76120000D02*
X119255400Y-76548669D01*
X117700000Y-76120000D02*
X118826731Y-76120000D01*
X121250000Y-81250000D02*
X124150000Y-81250000D01*
X117700000Y-76120000D02*
X108970000Y-76120000D01*
D22*
%TO.N,RVSLD2*%
X123296680Y-76170000D02*
X122905400Y-75778720D01*
X122905400Y-74966078D02*
X122119992Y-74180670D01*
X124150000Y-76170000D02*
X123296680Y-76170000D01*
X122905400Y-75778720D02*
X122905400Y-74966078D01*
%TO.N,OCT+*%
X117700000Y-88050000D02*
X119750000Y-90100000D01*
X119750000Y-90100000D02*
X122360000Y-90100000D01*
X117700000Y-81200000D02*
X117700000Y-88050000D01*
%TO.N,SH{slash}LD*%
X119650000Y-93910000D02*
X130010000Y-93910000D01*
X103050000Y-78660000D02*
X104400000Y-78660000D01*
X131280000Y-95180000D02*
X137600000Y-95180000D01*
X130010000Y-93910000D02*
X131280000Y-95180000D01*
X104400000Y-78660000D02*
X119650000Y-93910000D01*
%TO.N,Qh*%
X103050000Y-76120000D02*
X104400000Y-76120000D01*
X104400000Y-76120000D02*
X119650000Y-91370000D01*
X130320000Y-91370000D02*
X131590000Y-92640000D01*
X131590000Y-92640000D02*
X137600000Y-92640000D01*
X119650000Y-91370000D02*
X130320000Y-91370000D01*
%TO.N,CLK*%
X129850000Y-96450000D02*
X131120000Y-97720000D01*
X104400000Y-81200000D02*
X119650000Y-96450000D01*
X103050000Y-81200000D02*
X104400000Y-81200000D01*
X119650000Y-96450000D02*
X129850000Y-96450000D01*
X131120000Y-97720000D02*
X137600000Y-97720000D01*
%TO.N,SDA*%
X133900000Y-89300000D02*
X133900000Y-87910050D01*
X139859669Y-81950381D02*
X139859669Y-79190331D01*
X133900000Y-87910050D02*
X139859669Y-81950381D01*
%TO.N,SCL*%
X134728500Y-89300000D02*
X134728500Y-88071500D01*
X141200000Y-78260660D02*
X139850000Y-76910660D01*
X141200000Y-82450000D02*
X141200000Y-78260660D01*
X134728500Y-88071500D02*
X137150000Y-85650000D01*
X137150000Y-85650000D02*
X138000000Y-85650000D01*
X138000000Y-85650000D02*
X141200000Y-82450000D01*
X139850000Y-76350000D02*
X139370000Y-75870000D01*
X139850000Y-76910660D02*
X139850000Y-76350000D01*
X139370000Y-75870000D02*
X137600000Y-75870000D01*
%TO.N,4*%
X116030000Y-110430000D02*
X116030000Y-108500000D01*
X126190000Y-111670000D02*
X117270000Y-111670000D01*
X117270000Y-111670000D02*
X116030000Y-110430000D01*
X137600000Y-100260000D02*
X126190000Y-111670000D01*
%TO.N,14*%
X119483800Y-100666200D02*
X104093850Y-100666200D01*
X119849997Y-97200000D02*
X119850000Y-97200003D01*
X104093850Y-100666200D02*
X102946600Y-101813450D01*
X119850000Y-100300000D02*
X119483800Y-100666200D01*
X119850000Y-97200003D02*
X119850000Y-100300000D01*
X107700000Y-111000000D02*
X108410000Y-110290000D01*
X102946600Y-110046600D02*
X103900000Y-111000000D01*
X102946600Y-101813450D02*
X102946600Y-110046600D01*
X108410000Y-110290000D02*
X108410000Y-108500000D01*
X103900000Y-111000000D02*
X107700000Y-111000000D01*
%TO.N,8*%
X139050000Y-104050000D02*
X139500000Y-103600000D01*
X139500000Y-92000000D02*
X137600000Y-90100000D01*
X115810000Y-114210000D02*
X126040000Y-114210000D01*
X113510000Y-111910000D02*
X115810000Y-114210000D01*
X126040000Y-114210000D02*
X136200000Y-104050000D01*
X113490000Y-108500000D02*
X113510000Y-108520000D01*
X136200000Y-104050000D02*
X139050000Y-104050000D01*
X113510000Y-108520000D02*
X113510000Y-111910000D01*
X139500000Y-103600000D02*
X139500000Y-92000000D01*
%TO.N,9*%
X110970000Y-108550000D02*
X110950000Y-108570000D01*
X115900000Y-116750000D02*
X126200000Y-116750000D01*
X136360000Y-106590000D02*
X139360000Y-106590000D01*
X140200000Y-105750000D02*
X140200000Y-90160000D01*
X110950000Y-111800000D02*
X115900000Y-116750000D01*
X139360000Y-106590000D02*
X140200000Y-105750000D01*
X140200000Y-90160000D02*
X137600000Y-87560000D01*
X126200000Y-116750000D02*
X136360000Y-106590000D01*
X110950000Y-108570000D02*
X110950000Y-111800000D01*
%TO.N,15*%
X120650000Y-100700000D02*
X119983800Y-101366200D01*
X103646600Y-102103400D02*
X103646600Y-108246600D01*
X104383800Y-101366200D02*
X103646600Y-102103400D01*
X103900000Y-108500000D02*
X105870000Y-108500000D01*
X119983800Y-101366200D02*
X104383800Y-101366200D01*
X120650000Y-97200000D02*
X120650000Y-100700000D01*
X103646600Y-108246600D02*
X103900000Y-108500000D01*
%TD*%
M02*
