%TF.GenerationSoftware,KiCad,Pcbnew,8.0.6*%
%TF.CreationDate,2026-05-30T13:23:42+02:00*%
%TF.ProjectId,_carrier,5f636172-7269-4657-922e-6b696361645f,rev?*%
%TF.SameCoordinates,Original*%
%TF.FileFunction,Legend,Top*%
%TF.FilePolarity,Positive*%
%FSLAX46Y46*%
G04 Gerber Fmt 4.6, Leading zero omitted, Abs format (unit mm)*
G04 Created by KiCad (PCBNEW 8.0.6) date 2026-05-30 13:23:42*
%MOMM*%
%LPD*%
G01*
G04 APERTURE LIST*
%ADD10C,0.100000*%
%ADD11C,0.150000*%
%ADD12C,0.120000*%
%ADD13R,1.600000X1.600000*%
%ADD14C,1.600000*%
G04 APERTURE END LIST*
D10*
X110577580Y-110851503D02*
X110577580Y-111041979D01*
X110577580Y-111041979D02*
X110625200Y-111137217D01*
X110625200Y-111137217D02*
X110672819Y-111184836D01*
X110672819Y-111184836D02*
X110815676Y-111280074D01*
X110815676Y-111280074D02*
X111006152Y-111327693D01*
X111006152Y-111327693D02*
X111387104Y-111327693D01*
X111387104Y-111327693D02*
X111482342Y-111280074D01*
X111482342Y-111280074D02*
X111529961Y-111232455D01*
X111529961Y-111232455D02*
X111577580Y-111137217D01*
X111577580Y-111137217D02*
X111577580Y-110946741D01*
X111577580Y-110946741D02*
X111529961Y-110851503D01*
X111529961Y-110851503D02*
X111482342Y-110803884D01*
X111482342Y-110803884D02*
X111387104Y-110756265D01*
X111387104Y-110756265D02*
X111149009Y-110756265D01*
X111149009Y-110756265D02*
X111053771Y-110803884D01*
X111053771Y-110803884D02*
X111006152Y-110851503D01*
X111006152Y-110851503D02*
X110958533Y-110946741D01*
X110958533Y-110946741D02*
X110958533Y-111137217D01*
X110958533Y-111137217D02*
X111006152Y-111232455D01*
X111006152Y-111232455D02*
X111053771Y-111280074D01*
X111053771Y-111280074D02*
X111149009Y-111327693D01*
X112877693Y-75570038D02*
X112782455Y-75522419D01*
X112782455Y-75522419D02*
X112639598Y-75522419D01*
X112639598Y-75522419D02*
X112496741Y-75570038D01*
X112496741Y-75570038D02*
X112401503Y-75665276D01*
X112401503Y-75665276D02*
X112353884Y-75760514D01*
X112353884Y-75760514D02*
X112306265Y-75950990D01*
X112306265Y-75950990D02*
X112306265Y-76093847D01*
X112306265Y-76093847D02*
X112353884Y-76284323D01*
X112353884Y-76284323D02*
X112401503Y-76379561D01*
X112401503Y-76379561D02*
X112496741Y-76474800D01*
X112496741Y-76474800D02*
X112639598Y-76522419D01*
X112639598Y-76522419D02*
X112734836Y-76522419D01*
X112734836Y-76522419D02*
X112877693Y-76474800D01*
X112877693Y-76474800D02*
X112925312Y-76427180D01*
X112925312Y-76427180D02*
X112925312Y-76093847D01*
X112925312Y-76093847D02*
X112734836Y-76093847D01*
X147646115Y-90770038D02*
X147550877Y-90722419D01*
X147550877Y-90722419D02*
X147408020Y-90722419D01*
X147408020Y-90722419D02*
X147265163Y-90770038D01*
X147265163Y-90770038D02*
X147169925Y-90865276D01*
X147169925Y-90865276D02*
X147122306Y-90960514D01*
X147122306Y-90960514D02*
X147074687Y-91150990D01*
X147074687Y-91150990D02*
X147074687Y-91293847D01*
X147074687Y-91293847D02*
X147122306Y-91484323D01*
X147122306Y-91484323D02*
X147169925Y-91579561D01*
X147169925Y-91579561D02*
X147265163Y-91674800D01*
X147265163Y-91674800D02*
X147408020Y-91722419D01*
X147408020Y-91722419D02*
X147503258Y-91722419D01*
X147503258Y-91722419D02*
X147646115Y-91674800D01*
X147646115Y-91674800D02*
X147693734Y-91627180D01*
X147693734Y-91627180D02*
X147693734Y-91293847D01*
X147693734Y-91293847D02*
X147503258Y-91293847D01*
X106724687Y-71391466D02*
X107486592Y-71391466D01*
X107105639Y-71772419D02*
X107105639Y-71010514D01*
X108438972Y-70772419D02*
X107962782Y-70772419D01*
X107962782Y-70772419D02*
X107915163Y-71248609D01*
X107915163Y-71248609D02*
X107962782Y-71200990D01*
X107962782Y-71200990D02*
X108058020Y-71153371D01*
X108058020Y-71153371D02*
X108296115Y-71153371D01*
X108296115Y-71153371D02*
X108391353Y-71200990D01*
X108391353Y-71200990D02*
X108438972Y-71248609D01*
X108438972Y-71248609D02*
X108486591Y-71343847D01*
X108486591Y-71343847D02*
X108486591Y-71581942D01*
X108486591Y-71581942D02*
X108438972Y-71677180D01*
X108438972Y-71677180D02*
X108391353Y-71724800D01*
X108391353Y-71724800D02*
X108296115Y-71772419D01*
X108296115Y-71772419D02*
X108058020Y-71772419D01*
X108058020Y-71772419D02*
X107962782Y-71724800D01*
X107962782Y-71724800D02*
X107915163Y-71677180D01*
X108772306Y-70772419D02*
X109105639Y-71772419D01*
X109105639Y-71772419D02*
X109438972Y-70772419D01*
X105217542Y-78974800D02*
X105360399Y-79022419D01*
X105360399Y-79022419D02*
X105598494Y-79022419D01*
X105598494Y-79022419D02*
X105693732Y-78974800D01*
X105693732Y-78974800D02*
X105741351Y-78927180D01*
X105741351Y-78927180D02*
X105788970Y-78831942D01*
X105788970Y-78831942D02*
X105788970Y-78736704D01*
X105788970Y-78736704D02*
X105741351Y-78641466D01*
X105741351Y-78641466D02*
X105693732Y-78593847D01*
X105693732Y-78593847D02*
X105598494Y-78546228D01*
X105598494Y-78546228D02*
X105408018Y-78498609D01*
X105408018Y-78498609D02*
X105312780Y-78450990D01*
X105312780Y-78450990D02*
X105265161Y-78403371D01*
X105265161Y-78403371D02*
X105217542Y-78308133D01*
X105217542Y-78308133D02*
X105217542Y-78212895D01*
X105217542Y-78212895D02*
X105265161Y-78117657D01*
X105265161Y-78117657D02*
X105312780Y-78070038D01*
X105312780Y-78070038D02*
X105408018Y-78022419D01*
X105408018Y-78022419D02*
X105646113Y-78022419D01*
X105646113Y-78022419D02*
X105788970Y-78070038D01*
X106217542Y-79022419D02*
X106217542Y-78022419D01*
X106217542Y-78498609D02*
X106788970Y-78498609D01*
X106788970Y-79022419D02*
X106788970Y-78022419D01*
X107979446Y-77974800D02*
X107122304Y-79260514D01*
X108788970Y-79022419D02*
X108312780Y-79022419D01*
X108312780Y-79022419D02*
X108312780Y-78022419D01*
X109122304Y-79022419D02*
X109122304Y-78022419D01*
X109122304Y-78022419D02*
X109360399Y-78022419D01*
X109360399Y-78022419D02*
X109503256Y-78070038D01*
X109503256Y-78070038D02*
X109598494Y-78165276D01*
X109598494Y-78165276D02*
X109646113Y-78260514D01*
X109646113Y-78260514D02*
X109693732Y-78450990D01*
X109693732Y-78450990D02*
X109693732Y-78593847D01*
X109693732Y-78593847D02*
X109646113Y-78784323D01*
X109646113Y-78784323D02*
X109598494Y-78879561D01*
X109598494Y-78879561D02*
X109503256Y-78974800D01*
X109503256Y-78974800D02*
X109360399Y-79022419D01*
X109360399Y-79022419D02*
X109122304Y-79022419D01*
X130496115Y-80720038D02*
X130400877Y-80672419D01*
X130400877Y-80672419D02*
X130258020Y-80672419D01*
X130258020Y-80672419D02*
X130115163Y-80720038D01*
X130115163Y-80720038D02*
X130019925Y-80815276D01*
X130019925Y-80815276D02*
X129972306Y-80910514D01*
X129972306Y-80910514D02*
X129924687Y-81100990D01*
X129924687Y-81100990D02*
X129924687Y-81243847D01*
X129924687Y-81243847D02*
X129972306Y-81434323D01*
X129972306Y-81434323D02*
X130019925Y-81529561D01*
X130019925Y-81529561D02*
X130115163Y-81624800D01*
X130115163Y-81624800D02*
X130258020Y-81672419D01*
X130258020Y-81672419D02*
X130353258Y-81672419D01*
X130353258Y-81672419D02*
X130496115Y-81624800D01*
X130496115Y-81624800D02*
X130543734Y-81577180D01*
X130543734Y-81577180D02*
X130543734Y-81243847D01*
X130543734Y-81243847D02*
X130353258Y-81243847D01*
X108027580Y-111277693D02*
X108027580Y-110706265D01*
X108027580Y-110991979D02*
X109027580Y-110991979D01*
X109027580Y-110991979D02*
X108884723Y-110896741D01*
X108884723Y-110896741D02*
X108789485Y-110801503D01*
X108789485Y-110801503D02*
X108741866Y-110706265D01*
X108694247Y-112134836D02*
X108027580Y-112134836D01*
X109075200Y-111896741D02*
X108360914Y-111658646D01*
X108360914Y-111658646D02*
X108360914Y-112277693D01*
X108836589Y-76667657D02*
X108741351Y-76620038D01*
X108741351Y-76620038D02*
X108646113Y-76524800D01*
X108646113Y-76524800D02*
X108503256Y-76381942D01*
X108503256Y-76381942D02*
X108408018Y-76334323D01*
X108408018Y-76334323D02*
X108312780Y-76334323D01*
X108360399Y-76572419D02*
X108265161Y-76524800D01*
X108265161Y-76524800D02*
X108169923Y-76429561D01*
X108169923Y-76429561D02*
X108122304Y-76239085D01*
X108122304Y-76239085D02*
X108122304Y-75905752D01*
X108122304Y-75905752D02*
X108169923Y-75715276D01*
X108169923Y-75715276D02*
X108265161Y-75620038D01*
X108265161Y-75620038D02*
X108360399Y-75572419D01*
X108360399Y-75572419D02*
X108550875Y-75572419D01*
X108550875Y-75572419D02*
X108646113Y-75620038D01*
X108646113Y-75620038D02*
X108741351Y-75715276D01*
X108741351Y-75715276D02*
X108788970Y-75905752D01*
X108788970Y-75905752D02*
X108788970Y-76239085D01*
X108788970Y-76239085D02*
X108741351Y-76429561D01*
X108741351Y-76429561D02*
X108646113Y-76524800D01*
X108646113Y-76524800D02*
X108550875Y-76572419D01*
X108550875Y-76572419D02*
X108360399Y-76572419D01*
X109217542Y-76572419D02*
X109217542Y-75572419D01*
X109646113Y-76572419D02*
X109646113Y-76048609D01*
X109646113Y-76048609D02*
X109598494Y-75953371D01*
X109598494Y-75953371D02*
X109503256Y-75905752D01*
X109503256Y-75905752D02*
X109360399Y-75905752D01*
X109360399Y-75905752D02*
X109265161Y-75953371D01*
X109265161Y-75953371D02*
X109217542Y-76000990D01*
X127510401Y-73824800D02*
X127653258Y-73872419D01*
X127653258Y-73872419D02*
X127891353Y-73872419D01*
X127891353Y-73872419D02*
X127986591Y-73824800D01*
X127986591Y-73824800D02*
X128034210Y-73777180D01*
X128034210Y-73777180D02*
X128081829Y-73681942D01*
X128081829Y-73681942D02*
X128081829Y-73586704D01*
X128081829Y-73586704D02*
X128034210Y-73491466D01*
X128034210Y-73491466D02*
X127986591Y-73443847D01*
X127986591Y-73443847D02*
X127891353Y-73396228D01*
X127891353Y-73396228D02*
X127700877Y-73348609D01*
X127700877Y-73348609D02*
X127605639Y-73300990D01*
X127605639Y-73300990D02*
X127558020Y-73253371D01*
X127558020Y-73253371D02*
X127510401Y-73158133D01*
X127510401Y-73158133D02*
X127510401Y-73062895D01*
X127510401Y-73062895D02*
X127558020Y-72967657D01*
X127558020Y-72967657D02*
X127605639Y-72920038D01*
X127605639Y-72920038D02*
X127700877Y-72872419D01*
X127700877Y-72872419D02*
X127938972Y-72872419D01*
X127938972Y-72872419D02*
X128081829Y-72920038D01*
X128986591Y-73872419D02*
X128510401Y-73872419D01*
X128510401Y-73872419D02*
X128510401Y-72872419D01*
X129319925Y-73872419D02*
X129319925Y-72872419D01*
X129319925Y-72872419D02*
X129558020Y-72872419D01*
X129558020Y-72872419D02*
X129700877Y-72920038D01*
X129700877Y-72920038D02*
X129796115Y-73015276D01*
X129796115Y-73015276D02*
X129843734Y-73110514D01*
X129843734Y-73110514D02*
X129891353Y-73300990D01*
X129891353Y-73300990D02*
X129891353Y-73443847D01*
X129891353Y-73443847D02*
X129843734Y-73634323D01*
X129843734Y-73634323D02*
X129796115Y-73729561D01*
X129796115Y-73729561D02*
X129700877Y-73824800D01*
X129700877Y-73824800D02*
X129558020Y-73872419D01*
X129558020Y-73872419D02*
X129319925Y-73872419D01*
X130843734Y-73872419D02*
X130272306Y-73872419D01*
X130558020Y-73872419D02*
X130558020Y-72872419D01*
X130558020Y-72872419D02*
X130462782Y-73015276D01*
X130462782Y-73015276D02*
X130367544Y-73110514D01*
X130367544Y-73110514D02*
X130272306Y-73158133D01*
X129203884Y-115172419D02*
X129203884Y-115981942D01*
X129203884Y-115981942D02*
X129251503Y-116077180D01*
X129251503Y-116077180D02*
X129299122Y-116124800D01*
X129299122Y-116124800D02*
X129394360Y-116172419D01*
X129394360Y-116172419D02*
X129584836Y-116172419D01*
X129584836Y-116172419D02*
X129680074Y-116124800D01*
X129680074Y-116124800D02*
X129727693Y-116077180D01*
X129727693Y-116077180D02*
X129775312Y-115981942D01*
X129775312Y-115981942D02*
X129775312Y-115172419D01*
X130203884Y-116124800D02*
X130346741Y-116172419D01*
X130346741Y-116172419D02*
X130584836Y-116172419D01*
X130584836Y-116172419D02*
X130680074Y-116124800D01*
X130680074Y-116124800D02*
X130727693Y-116077180D01*
X130727693Y-116077180D02*
X130775312Y-115981942D01*
X130775312Y-115981942D02*
X130775312Y-115886704D01*
X130775312Y-115886704D02*
X130727693Y-115791466D01*
X130727693Y-115791466D02*
X130680074Y-115743847D01*
X130680074Y-115743847D02*
X130584836Y-115696228D01*
X130584836Y-115696228D02*
X130394360Y-115648609D01*
X130394360Y-115648609D02*
X130299122Y-115600990D01*
X130299122Y-115600990D02*
X130251503Y-115553371D01*
X130251503Y-115553371D02*
X130203884Y-115458133D01*
X130203884Y-115458133D02*
X130203884Y-115362895D01*
X130203884Y-115362895D02*
X130251503Y-115267657D01*
X130251503Y-115267657D02*
X130299122Y-115220038D01*
X130299122Y-115220038D02*
X130394360Y-115172419D01*
X130394360Y-115172419D02*
X130632455Y-115172419D01*
X130632455Y-115172419D02*
X130775312Y-115220038D01*
X131537217Y-115648609D02*
X131680074Y-115696228D01*
X131680074Y-115696228D02*
X131727693Y-115743847D01*
X131727693Y-115743847D02*
X131775312Y-115839085D01*
X131775312Y-115839085D02*
X131775312Y-115981942D01*
X131775312Y-115981942D02*
X131727693Y-116077180D01*
X131727693Y-116077180D02*
X131680074Y-116124800D01*
X131680074Y-116124800D02*
X131584836Y-116172419D01*
X131584836Y-116172419D02*
X131203884Y-116172419D01*
X131203884Y-116172419D02*
X131203884Y-115172419D01*
X131203884Y-115172419D02*
X131537217Y-115172419D01*
X131537217Y-115172419D02*
X131632455Y-115220038D01*
X131632455Y-115220038D02*
X131680074Y-115267657D01*
X131680074Y-115267657D02*
X131727693Y-115362895D01*
X131727693Y-115362895D02*
X131727693Y-115458133D01*
X131727693Y-115458133D02*
X131680074Y-115553371D01*
X131680074Y-115553371D02*
X131632455Y-115600990D01*
X131632455Y-115600990D02*
X131537217Y-115648609D01*
X131537217Y-115648609D02*
X131203884Y-115648609D01*
X132824687Y-81041466D02*
X133586592Y-81041466D01*
X133205639Y-81422419D02*
X133205639Y-80660514D01*
X134538972Y-80422419D02*
X134062782Y-80422419D01*
X134062782Y-80422419D02*
X134015163Y-80898609D01*
X134015163Y-80898609D02*
X134062782Y-80850990D01*
X134062782Y-80850990D02*
X134158020Y-80803371D01*
X134158020Y-80803371D02*
X134396115Y-80803371D01*
X134396115Y-80803371D02*
X134491353Y-80850990D01*
X134491353Y-80850990D02*
X134538972Y-80898609D01*
X134538972Y-80898609D02*
X134586591Y-80993847D01*
X134586591Y-80993847D02*
X134586591Y-81231942D01*
X134586591Y-81231942D02*
X134538972Y-81327180D01*
X134538972Y-81327180D02*
X134491353Y-81374800D01*
X134491353Y-81374800D02*
X134396115Y-81422419D01*
X134396115Y-81422419D02*
X134158020Y-81422419D01*
X134158020Y-81422419D02*
X134062782Y-81374800D01*
X134062782Y-81374800D02*
X134015163Y-81327180D01*
X134872306Y-80422419D02*
X135205639Y-81422419D01*
X135205639Y-81422419D02*
X135538972Y-80422419D01*
X111118169Y-73007040D02*
X111118169Y-70149897D01*
X111118169Y-76226928D02*
X111118169Y-73369785D01*
X111118169Y-79446816D02*
X111118169Y-76589673D01*
X111118169Y-82666704D02*
X111118169Y-79809561D01*
X135346115Y-77870038D02*
X135250877Y-77822419D01*
X135250877Y-77822419D02*
X135108020Y-77822419D01*
X135108020Y-77822419D02*
X134965163Y-77870038D01*
X134965163Y-77870038D02*
X134869925Y-77965276D01*
X134869925Y-77965276D02*
X134822306Y-78060514D01*
X134822306Y-78060514D02*
X134774687Y-78250990D01*
X134774687Y-78250990D02*
X134774687Y-78393847D01*
X134774687Y-78393847D02*
X134822306Y-78584323D01*
X134822306Y-78584323D02*
X134869925Y-78679561D01*
X134869925Y-78679561D02*
X134965163Y-78774800D01*
X134965163Y-78774800D02*
X135108020Y-78822419D01*
X135108020Y-78822419D02*
X135203258Y-78822419D01*
X135203258Y-78822419D02*
X135346115Y-78774800D01*
X135346115Y-78774800D02*
X135393734Y-78727180D01*
X135393734Y-78727180D02*
X135393734Y-78393847D01*
X135393734Y-78393847D02*
X135203258Y-78393847D01*
X132856265Y-73974800D02*
X132999122Y-74022419D01*
X132999122Y-74022419D02*
X133237217Y-74022419D01*
X133237217Y-74022419D02*
X133332455Y-73974800D01*
X133332455Y-73974800D02*
X133380074Y-73927180D01*
X133380074Y-73927180D02*
X133427693Y-73831942D01*
X133427693Y-73831942D02*
X133427693Y-73736704D01*
X133427693Y-73736704D02*
X133380074Y-73641466D01*
X133380074Y-73641466D02*
X133332455Y-73593847D01*
X133332455Y-73593847D02*
X133237217Y-73546228D01*
X133237217Y-73546228D02*
X133046741Y-73498609D01*
X133046741Y-73498609D02*
X132951503Y-73450990D01*
X132951503Y-73450990D02*
X132903884Y-73403371D01*
X132903884Y-73403371D02*
X132856265Y-73308133D01*
X132856265Y-73308133D02*
X132856265Y-73212895D01*
X132856265Y-73212895D02*
X132903884Y-73117657D01*
X132903884Y-73117657D02*
X132951503Y-73070038D01*
X132951503Y-73070038D02*
X133046741Y-73022419D01*
X133046741Y-73022419D02*
X133284836Y-73022419D01*
X133284836Y-73022419D02*
X133427693Y-73070038D01*
X133856265Y-74022419D02*
X133856265Y-73022419D01*
X133856265Y-73022419D02*
X134094360Y-73022419D01*
X134094360Y-73022419D02*
X134237217Y-73070038D01*
X134237217Y-73070038D02*
X134332455Y-73165276D01*
X134332455Y-73165276D02*
X134380074Y-73260514D01*
X134380074Y-73260514D02*
X134427693Y-73450990D01*
X134427693Y-73450990D02*
X134427693Y-73593847D01*
X134427693Y-73593847D02*
X134380074Y-73784323D01*
X134380074Y-73784323D02*
X134332455Y-73879561D01*
X134332455Y-73879561D02*
X134237217Y-73974800D01*
X134237217Y-73974800D02*
X134094360Y-74022419D01*
X134094360Y-74022419D02*
X133856265Y-74022419D01*
X134808646Y-73736704D02*
X135284836Y-73736704D01*
X134713408Y-74022419D02*
X135046741Y-73022419D01*
X135046741Y-73022419D02*
X135380074Y-74022419D01*
X132018169Y-69237152D02*
X132018169Y-66380009D01*
X132018169Y-72457040D02*
X132018169Y-69599897D01*
X132018169Y-75676928D02*
X132018169Y-72819785D01*
X132018169Y-78896816D02*
X132018169Y-76039673D01*
X132018169Y-82116704D02*
X132018169Y-79259561D01*
X116144247Y-111332455D02*
X115477580Y-111332455D01*
X116525200Y-111094360D02*
X115810914Y-110856265D01*
X115810914Y-110856265D02*
X115810914Y-111475312D01*
X103829961Y-106196115D02*
X103877580Y-106100877D01*
X103877580Y-106100877D02*
X103877580Y-105958020D01*
X103877580Y-105958020D02*
X103829961Y-105815163D01*
X103829961Y-105815163D02*
X103734723Y-105719925D01*
X103734723Y-105719925D02*
X103639485Y-105672306D01*
X103639485Y-105672306D02*
X103449009Y-105624687D01*
X103449009Y-105624687D02*
X103306152Y-105624687D01*
X103306152Y-105624687D02*
X103115676Y-105672306D01*
X103115676Y-105672306D02*
X103020438Y-105719925D01*
X103020438Y-105719925D02*
X102925200Y-105815163D01*
X102925200Y-105815163D02*
X102877580Y-105958020D01*
X102877580Y-105958020D02*
X102877580Y-106053258D01*
X102877580Y-106053258D02*
X102925200Y-106196115D01*
X102925200Y-106196115D02*
X102972819Y-106243734D01*
X102972819Y-106243734D02*
X103306152Y-106243734D01*
X103306152Y-106243734D02*
X103306152Y-106053258D01*
X127560401Y-76274800D02*
X127703258Y-76322419D01*
X127703258Y-76322419D02*
X127941353Y-76322419D01*
X127941353Y-76322419D02*
X128036591Y-76274800D01*
X128036591Y-76274800D02*
X128084210Y-76227180D01*
X128084210Y-76227180D02*
X128131829Y-76131942D01*
X128131829Y-76131942D02*
X128131829Y-76036704D01*
X128131829Y-76036704D02*
X128084210Y-75941466D01*
X128084210Y-75941466D02*
X128036591Y-75893847D01*
X128036591Y-75893847D02*
X127941353Y-75846228D01*
X127941353Y-75846228D02*
X127750877Y-75798609D01*
X127750877Y-75798609D02*
X127655639Y-75750990D01*
X127655639Y-75750990D02*
X127608020Y-75703371D01*
X127608020Y-75703371D02*
X127560401Y-75608133D01*
X127560401Y-75608133D02*
X127560401Y-75512895D01*
X127560401Y-75512895D02*
X127608020Y-75417657D01*
X127608020Y-75417657D02*
X127655639Y-75370038D01*
X127655639Y-75370038D02*
X127750877Y-75322419D01*
X127750877Y-75322419D02*
X127988972Y-75322419D01*
X127988972Y-75322419D02*
X128131829Y-75370038D01*
X129036591Y-76322419D02*
X128560401Y-76322419D01*
X128560401Y-76322419D02*
X128560401Y-75322419D01*
X129369925Y-76322419D02*
X129369925Y-75322419D01*
X129369925Y-75322419D02*
X129608020Y-75322419D01*
X129608020Y-75322419D02*
X129750877Y-75370038D01*
X129750877Y-75370038D02*
X129846115Y-75465276D01*
X129846115Y-75465276D02*
X129893734Y-75560514D01*
X129893734Y-75560514D02*
X129941353Y-75750990D01*
X129941353Y-75750990D02*
X129941353Y-75893847D01*
X129941353Y-75893847D02*
X129893734Y-76084323D01*
X129893734Y-76084323D02*
X129846115Y-76179561D01*
X129846115Y-76179561D02*
X129750877Y-76274800D01*
X129750877Y-76274800D02*
X129608020Y-76322419D01*
X129608020Y-76322419D02*
X129369925Y-76322419D01*
X130322306Y-75417657D02*
X130369925Y-75370038D01*
X130369925Y-75370038D02*
X130465163Y-75322419D01*
X130465163Y-75322419D02*
X130703258Y-75322419D01*
X130703258Y-75322419D02*
X130798496Y-75370038D01*
X130798496Y-75370038D02*
X130846115Y-75417657D01*
X130846115Y-75417657D02*
X130893734Y-75512895D01*
X130893734Y-75512895D02*
X130893734Y-75608133D01*
X130893734Y-75608133D02*
X130846115Y-75750990D01*
X130846115Y-75750990D02*
X130274687Y-76322419D01*
X130274687Y-76322419D02*
X130893734Y-76322419D01*
X127881829Y-69072419D02*
X127548496Y-68596228D01*
X127310401Y-69072419D02*
X127310401Y-68072419D01*
X127310401Y-68072419D02*
X127691353Y-68072419D01*
X127691353Y-68072419D02*
X127786591Y-68120038D01*
X127786591Y-68120038D02*
X127834210Y-68167657D01*
X127834210Y-68167657D02*
X127881829Y-68262895D01*
X127881829Y-68262895D02*
X127881829Y-68405752D01*
X127881829Y-68405752D02*
X127834210Y-68500990D01*
X127834210Y-68500990D02*
X127786591Y-68548609D01*
X127786591Y-68548609D02*
X127691353Y-68596228D01*
X127691353Y-68596228D02*
X127310401Y-68596228D01*
X128500877Y-68072419D02*
X128691353Y-68072419D01*
X128691353Y-68072419D02*
X128786591Y-68120038D01*
X128786591Y-68120038D02*
X128881829Y-68215276D01*
X128881829Y-68215276D02*
X128929448Y-68405752D01*
X128929448Y-68405752D02*
X128929448Y-68739085D01*
X128929448Y-68739085D02*
X128881829Y-68929561D01*
X128881829Y-68929561D02*
X128786591Y-69024800D01*
X128786591Y-69024800D02*
X128691353Y-69072419D01*
X128691353Y-69072419D02*
X128500877Y-69072419D01*
X128500877Y-69072419D02*
X128405639Y-69024800D01*
X128405639Y-69024800D02*
X128310401Y-68929561D01*
X128310401Y-68929561D02*
X128262782Y-68739085D01*
X128262782Y-68739085D02*
X128262782Y-68405752D01*
X128262782Y-68405752D02*
X128310401Y-68215276D01*
X128310401Y-68215276D02*
X128405639Y-68120038D01*
X128405639Y-68120038D02*
X128500877Y-68072419D01*
X129215163Y-68072419D02*
X129786591Y-68072419D01*
X129500877Y-69072419D02*
X129500877Y-68072419D01*
X130643734Y-69072419D02*
X130072306Y-69072419D01*
X130358020Y-69072419D02*
X130358020Y-68072419D01*
X130358020Y-68072419D02*
X130262782Y-68215276D01*
X130262782Y-68215276D02*
X130167544Y-68310514D01*
X130167544Y-68310514D02*
X130072306Y-68358133D01*
X112446741Y-81622419D02*
X112351503Y-81574800D01*
X112351503Y-81574800D02*
X112303884Y-81527180D01*
X112303884Y-81527180D02*
X112256265Y-81431942D01*
X112256265Y-81431942D02*
X112256265Y-81146228D01*
X112256265Y-81146228D02*
X112303884Y-81050990D01*
X112303884Y-81050990D02*
X112351503Y-81003371D01*
X112351503Y-81003371D02*
X112446741Y-80955752D01*
X112446741Y-80955752D02*
X112589598Y-80955752D01*
X112589598Y-80955752D02*
X112684836Y-81003371D01*
X112684836Y-81003371D02*
X112732455Y-81050990D01*
X112732455Y-81050990D02*
X112780074Y-81146228D01*
X112780074Y-81146228D02*
X112780074Y-81431942D01*
X112780074Y-81431942D02*
X112732455Y-81527180D01*
X112732455Y-81527180D02*
X112684836Y-81574800D01*
X112684836Y-81574800D02*
X112589598Y-81622419D01*
X112589598Y-81622419D02*
X112446741Y-81622419D01*
X113637217Y-81574800D02*
X113541979Y-81622419D01*
X113541979Y-81622419D02*
X113351503Y-81622419D01*
X113351503Y-81622419D02*
X113256265Y-81574800D01*
X113256265Y-81574800D02*
X113208646Y-81527180D01*
X113208646Y-81527180D02*
X113161027Y-81431942D01*
X113161027Y-81431942D02*
X113161027Y-81146228D01*
X113161027Y-81146228D02*
X113208646Y-81050990D01*
X113208646Y-81050990D02*
X113256265Y-81003371D01*
X113256265Y-81003371D02*
X113351503Y-80955752D01*
X113351503Y-80955752D02*
X113541979Y-80955752D01*
X113541979Y-80955752D02*
X113637217Y-81003371D01*
X113922932Y-80955752D02*
X114303884Y-80955752D01*
X114065789Y-80622419D02*
X114065789Y-81479561D01*
X114065789Y-81479561D02*
X114113408Y-81574800D01*
X114113408Y-81574800D02*
X114208646Y-81622419D01*
X114208646Y-81622419D02*
X114303884Y-81622419D01*
X114637218Y-81241466D02*
X115399123Y-81241466D01*
X115018170Y-81622419D02*
X115018170Y-80860514D01*
X132956265Y-76024800D02*
X133099122Y-76072419D01*
X133099122Y-76072419D02*
X133337217Y-76072419D01*
X133337217Y-76072419D02*
X133432455Y-76024800D01*
X133432455Y-76024800D02*
X133480074Y-75977180D01*
X133480074Y-75977180D02*
X133527693Y-75881942D01*
X133527693Y-75881942D02*
X133527693Y-75786704D01*
X133527693Y-75786704D02*
X133480074Y-75691466D01*
X133480074Y-75691466D02*
X133432455Y-75643847D01*
X133432455Y-75643847D02*
X133337217Y-75596228D01*
X133337217Y-75596228D02*
X133146741Y-75548609D01*
X133146741Y-75548609D02*
X133051503Y-75500990D01*
X133051503Y-75500990D02*
X133003884Y-75453371D01*
X133003884Y-75453371D02*
X132956265Y-75358133D01*
X132956265Y-75358133D02*
X132956265Y-75262895D01*
X132956265Y-75262895D02*
X133003884Y-75167657D01*
X133003884Y-75167657D02*
X133051503Y-75120038D01*
X133051503Y-75120038D02*
X133146741Y-75072419D01*
X133146741Y-75072419D02*
X133384836Y-75072419D01*
X133384836Y-75072419D02*
X133527693Y-75120038D01*
X134527693Y-75977180D02*
X134480074Y-76024800D01*
X134480074Y-76024800D02*
X134337217Y-76072419D01*
X134337217Y-76072419D02*
X134241979Y-76072419D01*
X134241979Y-76072419D02*
X134099122Y-76024800D01*
X134099122Y-76024800D02*
X134003884Y-75929561D01*
X134003884Y-75929561D02*
X133956265Y-75834323D01*
X133956265Y-75834323D02*
X133908646Y-75643847D01*
X133908646Y-75643847D02*
X133908646Y-75500990D01*
X133908646Y-75500990D02*
X133956265Y-75310514D01*
X133956265Y-75310514D02*
X134003884Y-75215276D01*
X134003884Y-75215276D02*
X134099122Y-75120038D01*
X134099122Y-75120038D02*
X134241979Y-75072419D01*
X134241979Y-75072419D02*
X134337217Y-75072419D01*
X134337217Y-75072419D02*
X134480074Y-75120038D01*
X134480074Y-75120038D02*
X134527693Y-75167657D01*
X135432455Y-76072419D02*
X134956265Y-76072419D01*
X134956265Y-76072419D02*
X134956265Y-75072419D01*
X112446741Y-79122419D02*
X112351503Y-79074800D01*
X112351503Y-79074800D02*
X112303884Y-79027180D01*
X112303884Y-79027180D02*
X112256265Y-78931942D01*
X112256265Y-78931942D02*
X112256265Y-78646228D01*
X112256265Y-78646228D02*
X112303884Y-78550990D01*
X112303884Y-78550990D02*
X112351503Y-78503371D01*
X112351503Y-78503371D02*
X112446741Y-78455752D01*
X112446741Y-78455752D02*
X112589598Y-78455752D01*
X112589598Y-78455752D02*
X112684836Y-78503371D01*
X112684836Y-78503371D02*
X112732455Y-78550990D01*
X112732455Y-78550990D02*
X112780074Y-78646228D01*
X112780074Y-78646228D02*
X112780074Y-78931942D01*
X112780074Y-78931942D02*
X112732455Y-79027180D01*
X112732455Y-79027180D02*
X112684836Y-79074800D01*
X112684836Y-79074800D02*
X112589598Y-79122419D01*
X112589598Y-79122419D02*
X112446741Y-79122419D01*
X113637217Y-79074800D02*
X113541979Y-79122419D01*
X113541979Y-79122419D02*
X113351503Y-79122419D01*
X113351503Y-79122419D02*
X113256265Y-79074800D01*
X113256265Y-79074800D02*
X113208646Y-79027180D01*
X113208646Y-79027180D02*
X113161027Y-78931942D01*
X113161027Y-78931942D02*
X113161027Y-78646228D01*
X113161027Y-78646228D02*
X113208646Y-78550990D01*
X113208646Y-78550990D02*
X113256265Y-78503371D01*
X113256265Y-78503371D02*
X113351503Y-78455752D01*
X113351503Y-78455752D02*
X113541979Y-78455752D01*
X113541979Y-78455752D02*
X113637217Y-78503371D01*
X113922932Y-78455752D02*
X114303884Y-78455752D01*
X114065789Y-78122419D02*
X114065789Y-78979561D01*
X114065789Y-78979561D02*
X114113408Y-79074800D01*
X114113408Y-79074800D02*
X114208646Y-79122419D01*
X114208646Y-79122419D02*
X114303884Y-79122419D01*
X114637218Y-78741466D02*
X115399123Y-78741466D01*
X128224687Y-78741466D02*
X128986592Y-78741466D01*
X128605639Y-79122419D02*
X128605639Y-78360514D01*
X129938972Y-78122419D02*
X129462782Y-78122419D01*
X129462782Y-78122419D02*
X129415163Y-78598609D01*
X129415163Y-78598609D02*
X129462782Y-78550990D01*
X129462782Y-78550990D02*
X129558020Y-78503371D01*
X129558020Y-78503371D02*
X129796115Y-78503371D01*
X129796115Y-78503371D02*
X129891353Y-78550990D01*
X129891353Y-78550990D02*
X129938972Y-78598609D01*
X129938972Y-78598609D02*
X129986591Y-78693847D01*
X129986591Y-78693847D02*
X129986591Y-78931942D01*
X129986591Y-78931942D02*
X129938972Y-79027180D01*
X129938972Y-79027180D02*
X129891353Y-79074800D01*
X129891353Y-79074800D02*
X129796115Y-79122419D01*
X129796115Y-79122419D02*
X129558020Y-79122419D01*
X129558020Y-79122419D02*
X129462782Y-79074800D01*
X129462782Y-79074800D02*
X129415163Y-79027180D01*
X130272306Y-78122419D02*
X130605639Y-79122419D01*
X130605639Y-79122419D02*
X130938972Y-78122419D01*
X109346113Y-73020038D02*
X109250875Y-72972419D01*
X109250875Y-72972419D02*
X109108018Y-72972419D01*
X109108018Y-72972419D02*
X108965161Y-73020038D01*
X108965161Y-73020038D02*
X108869923Y-73115276D01*
X108869923Y-73115276D02*
X108822304Y-73210514D01*
X108822304Y-73210514D02*
X108774685Y-73400990D01*
X108774685Y-73400990D02*
X108774685Y-73543847D01*
X108774685Y-73543847D02*
X108822304Y-73734323D01*
X108822304Y-73734323D02*
X108869923Y-73829561D01*
X108869923Y-73829561D02*
X108965161Y-73924800D01*
X108965161Y-73924800D02*
X109108018Y-73972419D01*
X109108018Y-73972419D02*
X109203256Y-73972419D01*
X109203256Y-73972419D02*
X109346113Y-73924800D01*
X109346113Y-73924800D02*
X109393732Y-73877180D01*
X109393732Y-73877180D02*
X109393732Y-73543847D01*
X109393732Y-73543847D02*
X109203256Y-73543847D01*
X107784208Y-81627180D02*
X107736589Y-81674800D01*
X107736589Y-81674800D02*
X107593732Y-81722419D01*
X107593732Y-81722419D02*
X107498494Y-81722419D01*
X107498494Y-81722419D02*
X107355637Y-81674800D01*
X107355637Y-81674800D02*
X107260399Y-81579561D01*
X107260399Y-81579561D02*
X107212780Y-81484323D01*
X107212780Y-81484323D02*
X107165161Y-81293847D01*
X107165161Y-81293847D02*
X107165161Y-81150990D01*
X107165161Y-81150990D02*
X107212780Y-80960514D01*
X107212780Y-80960514D02*
X107260399Y-80865276D01*
X107260399Y-80865276D02*
X107355637Y-80770038D01*
X107355637Y-80770038D02*
X107498494Y-80722419D01*
X107498494Y-80722419D02*
X107593732Y-80722419D01*
X107593732Y-80722419D02*
X107736589Y-80770038D01*
X107736589Y-80770038D02*
X107784208Y-80817657D01*
X108688970Y-81722419D02*
X108212780Y-81722419D01*
X108212780Y-81722419D02*
X108212780Y-80722419D01*
X109022304Y-81722419D02*
X109022304Y-80722419D01*
X109593732Y-81722419D02*
X109165161Y-81150990D01*
X109593732Y-80722419D02*
X109022304Y-81293847D01*
X103258533Y-101874687D02*
X103258533Y-102636592D01*
X102877580Y-102255639D02*
X103639485Y-102255639D01*
X103877580Y-103588972D02*
X103877580Y-103112782D01*
X103877580Y-103112782D02*
X103401390Y-103065163D01*
X103401390Y-103065163D02*
X103449009Y-103112782D01*
X103449009Y-103112782D02*
X103496628Y-103208020D01*
X103496628Y-103208020D02*
X103496628Y-103446115D01*
X103496628Y-103446115D02*
X103449009Y-103541353D01*
X103449009Y-103541353D02*
X103401390Y-103588972D01*
X103401390Y-103588972D02*
X103306152Y-103636591D01*
X103306152Y-103636591D02*
X103068057Y-103636591D01*
X103068057Y-103636591D02*
X102972819Y-103588972D01*
X102972819Y-103588972D02*
X102925200Y-103541353D01*
X102925200Y-103541353D02*
X102877580Y-103446115D01*
X102877580Y-103446115D02*
X102877580Y-103208020D01*
X102877580Y-103208020D02*
X102925200Y-103112782D01*
X102925200Y-103112782D02*
X102972819Y-103065163D01*
X103877580Y-103922306D02*
X102877580Y-104255639D01*
X102877580Y-104255639D02*
X103877580Y-104588972D01*
X145124687Y-88741466D02*
X145886592Y-88741466D01*
X145505639Y-89122419D02*
X145505639Y-88360514D01*
X146838972Y-88122419D02*
X146362782Y-88122419D01*
X146362782Y-88122419D02*
X146315163Y-88598609D01*
X146315163Y-88598609D02*
X146362782Y-88550990D01*
X146362782Y-88550990D02*
X146458020Y-88503371D01*
X146458020Y-88503371D02*
X146696115Y-88503371D01*
X146696115Y-88503371D02*
X146791353Y-88550990D01*
X146791353Y-88550990D02*
X146838972Y-88598609D01*
X146838972Y-88598609D02*
X146886591Y-88693847D01*
X146886591Y-88693847D02*
X146886591Y-88931942D01*
X146886591Y-88931942D02*
X146838972Y-89027180D01*
X146838972Y-89027180D02*
X146791353Y-89074800D01*
X146791353Y-89074800D02*
X146696115Y-89122419D01*
X146696115Y-89122419D02*
X146458020Y-89122419D01*
X146458020Y-89122419D02*
X146362782Y-89074800D01*
X146362782Y-89074800D02*
X146315163Y-89027180D01*
X147172306Y-88122419D02*
X147505639Y-89122419D01*
X147505639Y-89122419D02*
X147838972Y-88122419D01*
X105327580Y-111277693D02*
X105327580Y-110706265D01*
X105327580Y-110991979D02*
X106327580Y-110991979D01*
X106327580Y-110991979D02*
X106184723Y-110896741D01*
X106184723Y-110896741D02*
X106089485Y-110801503D01*
X106089485Y-110801503D02*
X106041866Y-110706265D01*
X106327580Y-112182455D02*
X106327580Y-111706265D01*
X106327580Y-111706265D02*
X105851390Y-111658646D01*
X105851390Y-111658646D02*
X105899009Y-111706265D01*
X105899009Y-111706265D02*
X105946628Y-111801503D01*
X105946628Y-111801503D02*
X105946628Y-112039598D01*
X105946628Y-112039598D02*
X105899009Y-112134836D01*
X105899009Y-112134836D02*
X105851390Y-112182455D01*
X105851390Y-112182455D02*
X105756152Y-112230074D01*
X105756152Y-112230074D02*
X105518057Y-112230074D01*
X105518057Y-112230074D02*
X105422819Y-112182455D01*
X105422819Y-112182455D02*
X105375200Y-112134836D01*
X105375200Y-112134836D02*
X105327580Y-112039598D01*
X105327580Y-112039598D02*
X105327580Y-111801503D01*
X105327580Y-111801503D02*
X105375200Y-111706265D01*
X105375200Y-111706265D02*
X105422819Y-111658646D01*
X113649009Y-110996741D02*
X113696628Y-110901503D01*
X113696628Y-110901503D02*
X113744247Y-110853884D01*
X113744247Y-110853884D02*
X113839485Y-110806265D01*
X113839485Y-110806265D02*
X113887104Y-110806265D01*
X113887104Y-110806265D02*
X113982342Y-110853884D01*
X113982342Y-110853884D02*
X114029961Y-110901503D01*
X114029961Y-110901503D02*
X114077580Y-110996741D01*
X114077580Y-110996741D02*
X114077580Y-111187217D01*
X114077580Y-111187217D02*
X114029961Y-111282455D01*
X114029961Y-111282455D02*
X113982342Y-111330074D01*
X113982342Y-111330074D02*
X113887104Y-111377693D01*
X113887104Y-111377693D02*
X113839485Y-111377693D01*
X113839485Y-111377693D02*
X113744247Y-111330074D01*
X113744247Y-111330074D02*
X113696628Y-111282455D01*
X113696628Y-111282455D02*
X113649009Y-111187217D01*
X113649009Y-111187217D02*
X113649009Y-110996741D01*
X113649009Y-110996741D02*
X113601390Y-110901503D01*
X113601390Y-110901503D02*
X113553771Y-110853884D01*
X113553771Y-110853884D02*
X113458533Y-110806265D01*
X113458533Y-110806265D02*
X113268057Y-110806265D01*
X113268057Y-110806265D02*
X113172819Y-110853884D01*
X113172819Y-110853884D02*
X113125200Y-110901503D01*
X113125200Y-110901503D02*
X113077580Y-110996741D01*
X113077580Y-110996741D02*
X113077580Y-111187217D01*
X113077580Y-111187217D02*
X113125200Y-111282455D01*
X113125200Y-111282455D02*
X113172819Y-111330074D01*
X113172819Y-111330074D02*
X113268057Y-111377693D01*
X113268057Y-111377693D02*
X113458533Y-111377693D01*
X113458533Y-111377693D02*
X113553771Y-111330074D01*
X113553771Y-111330074D02*
X113601390Y-111282455D01*
X113601390Y-111282455D02*
X113649009Y-111187217D01*
X146875312Y-94422419D02*
X146541979Y-93946228D01*
X146303884Y-94422419D02*
X146303884Y-93422419D01*
X146303884Y-93422419D02*
X146684836Y-93422419D01*
X146684836Y-93422419D02*
X146780074Y-93470038D01*
X146780074Y-93470038D02*
X146827693Y-93517657D01*
X146827693Y-93517657D02*
X146875312Y-93612895D01*
X146875312Y-93612895D02*
X146875312Y-93755752D01*
X146875312Y-93755752D02*
X146827693Y-93850990D01*
X146827693Y-93850990D02*
X146780074Y-93898609D01*
X146780074Y-93898609D02*
X146684836Y-93946228D01*
X146684836Y-93946228D02*
X146303884Y-93946228D01*
X147208646Y-94422419D02*
X147732455Y-93755752D01*
X147208646Y-93755752D02*
X147732455Y-94422419D01*
X146311027Y-95622419D02*
X146882455Y-95622419D01*
X146596741Y-96622419D02*
X146596741Y-95622419D01*
X147120551Y-96622419D02*
X147644360Y-95955752D01*
X147120551Y-95955752D02*
X147644360Y-96622419D01*
X127831829Y-71322419D02*
X127498496Y-70846228D01*
X127260401Y-71322419D02*
X127260401Y-70322419D01*
X127260401Y-70322419D02*
X127641353Y-70322419D01*
X127641353Y-70322419D02*
X127736591Y-70370038D01*
X127736591Y-70370038D02*
X127784210Y-70417657D01*
X127784210Y-70417657D02*
X127831829Y-70512895D01*
X127831829Y-70512895D02*
X127831829Y-70655752D01*
X127831829Y-70655752D02*
X127784210Y-70750990D01*
X127784210Y-70750990D02*
X127736591Y-70798609D01*
X127736591Y-70798609D02*
X127641353Y-70846228D01*
X127641353Y-70846228D02*
X127260401Y-70846228D01*
X128450877Y-70322419D02*
X128641353Y-70322419D01*
X128641353Y-70322419D02*
X128736591Y-70370038D01*
X128736591Y-70370038D02*
X128831829Y-70465276D01*
X128831829Y-70465276D02*
X128879448Y-70655752D01*
X128879448Y-70655752D02*
X128879448Y-70989085D01*
X128879448Y-70989085D02*
X128831829Y-71179561D01*
X128831829Y-71179561D02*
X128736591Y-71274800D01*
X128736591Y-71274800D02*
X128641353Y-71322419D01*
X128641353Y-71322419D02*
X128450877Y-71322419D01*
X128450877Y-71322419D02*
X128355639Y-71274800D01*
X128355639Y-71274800D02*
X128260401Y-71179561D01*
X128260401Y-71179561D02*
X128212782Y-70989085D01*
X128212782Y-70989085D02*
X128212782Y-70655752D01*
X128212782Y-70655752D02*
X128260401Y-70465276D01*
X128260401Y-70465276D02*
X128355639Y-70370038D01*
X128355639Y-70370038D02*
X128450877Y-70322419D01*
X129165163Y-70322419D02*
X129736591Y-70322419D01*
X129450877Y-71322419D02*
X129450877Y-70322419D01*
X130022306Y-70417657D02*
X130069925Y-70370038D01*
X130069925Y-70370038D02*
X130165163Y-70322419D01*
X130165163Y-70322419D02*
X130403258Y-70322419D01*
X130403258Y-70322419D02*
X130498496Y-70370038D01*
X130498496Y-70370038D02*
X130546115Y-70417657D01*
X130546115Y-70417657D02*
X130593734Y-70512895D01*
X130593734Y-70512895D02*
X130593734Y-70608133D01*
X130593734Y-70608133D02*
X130546115Y-70750990D01*
X130546115Y-70750990D02*
X129974687Y-71322419D01*
X129974687Y-71322419D02*
X130593734Y-71322419D01*
D11*
X136695238Y-71704819D02*
X136695238Y-71038152D01*
X136695238Y-70704819D02*
X136647619Y-70752438D01*
X136647619Y-70752438D02*
X136695238Y-70800057D01*
X136695238Y-70800057D02*
X136742857Y-70752438D01*
X136742857Y-70752438D02*
X136695238Y-70704819D01*
X136695238Y-70704819D02*
X136695238Y-70800057D01*
X137123809Y-70800057D02*
X137171428Y-70752438D01*
X137171428Y-70752438D02*
X137266666Y-70704819D01*
X137266666Y-70704819D02*
X137504761Y-70704819D01*
X137504761Y-70704819D02*
X137599999Y-70752438D01*
X137599999Y-70752438D02*
X137647618Y-70800057D01*
X137647618Y-70800057D02*
X137695237Y-70895295D01*
X137695237Y-70895295D02*
X137695237Y-70990533D01*
X137695237Y-70990533D02*
X137647618Y-71133390D01*
X137647618Y-71133390D02*
X137076190Y-71704819D01*
X137076190Y-71704819D02*
X137695237Y-71704819D01*
X138552380Y-71657200D02*
X138457142Y-71704819D01*
X138457142Y-71704819D02*
X138266666Y-71704819D01*
X138266666Y-71704819D02*
X138171428Y-71657200D01*
X138171428Y-71657200D02*
X138123809Y-71609580D01*
X138123809Y-71609580D02*
X138076190Y-71514342D01*
X138076190Y-71514342D02*
X138076190Y-71228628D01*
X138076190Y-71228628D02*
X138123809Y-71133390D01*
X138123809Y-71133390D02*
X138171428Y-71085771D01*
X138171428Y-71085771D02*
X138266666Y-71038152D01*
X138266666Y-71038152D02*
X138457142Y-71038152D01*
X138457142Y-71038152D02*
X138552380Y-71085771D01*
X122654762Y-66669104D02*
X123130952Y-66669104D01*
X122559524Y-66954819D02*
X122892857Y-65954819D01*
X122892857Y-65954819D02*
X123226190Y-66954819D01*
X123559524Y-66954819D02*
X123559524Y-65954819D01*
X123559524Y-65954819D02*
X124130952Y-66954819D01*
X124130952Y-66954819D02*
X124130952Y-65954819D01*
X124559524Y-66669104D02*
X125035714Y-66669104D01*
X124464286Y-66954819D02*
X124797619Y-65954819D01*
X124797619Y-65954819D02*
X125130952Y-66954819D01*
X125940476Y-66954819D02*
X125464286Y-66954819D01*
X125464286Y-66954819D02*
X125464286Y-65954819D01*
X102288095Y-69454819D02*
X102288095Y-68454819D01*
X102859523Y-69454819D02*
X102430952Y-68883390D01*
X102859523Y-68454819D02*
X102288095Y-69026247D01*
X103621428Y-68931009D02*
X103764285Y-68978628D01*
X103764285Y-68978628D02*
X103811904Y-69026247D01*
X103811904Y-69026247D02*
X103859523Y-69121485D01*
X103859523Y-69121485D02*
X103859523Y-69264342D01*
X103859523Y-69264342D02*
X103811904Y-69359580D01*
X103811904Y-69359580D02*
X103764285Y-69407200D01*
X103764285Y-69407200D02*
X103669047Y-69454819D01*
X103669047Y-69454819D02*
X103288095Y-69454819D01*
X103288095Y-69454819D02*
X103288095Y-68454819D01*
X103288095Y-68454819D02*
X103621428Y-68454819D01*
X103621428Y-68454819D02*
X103716666Y-68502438D01*
X103716666Y-68502438D02*
X103764285Y-68550057D01*
X103764285Y-68550057D02*
X103811904Y-68645295D01*
X103811904Y-68645295D02*
X103811904Y-68740533D01*
X103811904Y-68740533D02*
X103764285Y-68835771D01*
X103764285Y-68835771D02*
X103716666Y-68883390D01*
X103716666Y-68883390D02*
X103621428Y-68931009D01*
X103621428Y-68931009D02*
X103288095Y-68931009D01*
X102409580Y-92884366D02*
X102457200Y-92931985D01*
X102457200Y-92931985D02*
X102504819Y-93074842D01*
X102504819Y-93074842D02*
X102504819Y-93170080D01*
X102504819Y-93170080D02*
X102457200Y-93312937D01*
X102457200Y-93312937D02*
X102361961Y-93408175D01*
X102361961Y-93408175D02*
X102266723Y-93455794D01*
X102266723Y-93455794D02*
X102076247Y-93503413D01*
X102076247Y-93503413D02*
X101933390Y-93503413D01*
X101933390Y-93503413D02*
X101742914Y-93455794D01*
X101742914Y-93455794D02*
X101647676Y-93408175D01*
X101647676Y-93408175D02*
X101552438Y-93312937D01*
X101552438Y-93312937D02*
X101504819Y-93170080D01*
X101504819Y-93170080D02*
X101504819Y-93074842D01*
X101504819Y-93074842D02*
X101552438Y-92931985D01*
X101552438Y-92931985D02*
X101600057Y-92884366D01*
X102504819Y-91931985D02*
X102504819Y-92503413D01*
X102504819Y-92217699D02*
X101504819Y-92217699D01*
X101504819Y-92217699D02*
X101647676Y-92312937D01*
X101647676Y-92312937D02*
X101742914Y-92408175D01*
X101742914Y-92408175D02*
X101790533Y-92503413D01*
X141504762Y-85954819D02*
X141504762Y-86764342D01*
X141504762Y-86764342D02*
X141552381Y-86859580D01*
X141552381Y-86859580D02*
X141600000Y-86907200D01*
X141600000Y-86907200D02*
X141695238Y-86954819D01*
X141695238Y-86954819D02*
X141885714Y-86954819D01*
X141885714Y-86954819D02*
X141980952Y-86907200D01*
X141980952Y-86907200D02*
X142028571Y-86859580D01*
X142028571Y-86859580D02*
X142076190Y-86764342D01*
X142076190Y-86764342D02*
X142076190Y-85954819D01*
X142504762Y-86669104D02*
X142980952Y-86669104D01*
X142409524Y-86954819D02*
X142742857Y-85954819D01*
X142742857Y-85954819D02*
X143076190Y-86954819D01*
X143980952Y-86954819D02*
X143647619Y-86478628D01*
X143409524Y-86954819D02*
X143409524Y-85954819D01*
X143409524Y-85954819D02*
X143790476Y-85954819D01*
X143790476Y-85954819D02*
X143885714Y-86002438D01*
X143885714Y-86002438D02*
X143933333Y-86050057D01*
X143933333Y-86050057D02*
X143980952Y-86145295D01*
X143980952Y-86145295D02*
X143980952Y-86288152D01*
X143980952Y-86288152D02*
X143933333Y-86383390D01*
X143933333Y-86383390D02*
X143885714Y-86431009D01*
X143885714Y-86431009D02*
X143790476Y-86478628D01*
X143790476Y-86478628D02*
X143409524Y-86478628D01*
X144266667Y-85954819D02*
X144838095Y-85954819D01*
X144552381Y-86954819D02*
X144552381Y-85954819D01*
X140784819Y-108866666D02*
X140308628Y-109199999D01*
X140784819Y-109438094D02*
X139784819Y-109438094D01*
X139784819Y-109438094D02*
X139784819Y-109057142D01*
X139784819Y-109057142D02*
X139832438Y-108961904D01*
X139832438Y-108961904D02*
X139880057Y-108914285D01*
X139880057Y-108914285D02*
X139975295Y-108866666D01*
X139975295Y-108866666D02*
X140118152Y-108866666D01*
X140118152Y-108866666D02*
X140213390Y-108914285D01*
X140213390Y-108914285D02*
X140261009Y-108961904D01*
X140261009Y-108961904D02*
X140308628Y-109057142D01*
X140308628Y-109057142D02*
X140308628Y-109438094D01*
X140784819Y-107914285D02*
X140784819Y-108485713D01*
X140784819Y-108199999D02*
X139784819Y-108199999D01*
X139784819Y-108199999D02*
X139927676Y-108295237D01*
X139927676Y-108295237D02*
X140022914Y-108390475D01*
X140022914Y-108390475D02*
X140070533Y-108485713D01*
X115366666Y-73454819D02*
X115557142Y-73454819D01*
X115557142Y-73454819D02*
X115652380Y-73502438D01*
X115652380Y-73502438D02*
X115747618Y-73597676D01*
X115747618Y-73597676D02*
X115795237Y-73788152D01*
X115795237Y-73788152D02*
X115795237Y-74121485D01*
X115795237Y-74121485D02*
X115747618Y-74311961D01*
X115747618Y-74311961D02*
X115652380Y-74407200D01*
X115652380Y-74407200D02*
X115557142Y-74454819D01*
X115557142Y-74454819D02*
X115366666Y-74454819D01*
X115366666Y-74454819D02*
X115271428Y-74407200D01*
X115271428Y-74407200D02*
X115176190Y-74311961D01*
X115176190Y-74311961D02*
X115128571Y-74121485D01*
X115128571Y-74121485D02*
X115128571Y-73788152D01*
X115128571Y-73788152D02*
X115176190Y-73597676D01*
X115176190Y-73597676D02*
X115271428Y-73502438D01*
X115271428Y-73502438D02*
X115366666Y-73454819D01*
X116795237Y-74359580D02*
X116747618Y-74407200D01*
X116747618Y-74407200D02*
X116604761Y-74454819D01*
X116604761Y-74454819D02*
X116509523Y-74454819D01*
X116509523Y-74454819D02*
X116366666Y-74407200D01*
X116366666Y-74407200D02*
X116271428Y-74311961D01*
X116271428Y-74311961D02*
X116223809Y-74216723D01*
X116223809Y-74216723D02*
X116176190Y-74026247D01*
X116176190Y-74026247D02*
X116176190Y-73883390D01*
X116176190Y-73883390D02*
X116223809Y-73692914D01*
X116223809Y-73692914D02*
X116271428Y-73597676D01*
X116271428Y-73597676D02*
X116366666Y-73502438D01*
X116366666Y-73502438D02*
X116509523Y-73454819D01*
X116509523Y-73454819D02*
X116604761Y-73454819D01*
X116604761Y-73454819D02*
X116747618Y-73502438D01*
X116747618Y-73502438D02*
X116795237Y-73550057D01*
X117080952Y-73454819D02*
X117652380Y-73454819D01*
X117366666Y-74454819D02*
X117366666Y-73454819D01*
X117938095Y-74407200D02*
X118080952Y-74454819D01*
X118080952Y-74454819D02*
X118319047Y-74454819D01*
X118319047Y-74454819D02*
X118414285Y-74407200D01*
X118414285Y-74407200D02*
X118461904Y-74359580D01*
X118461904Y-74359580D02*
X118509523Y-74264342D01*
X118509523Y-74264342D02*
X118509523Y-74169104D01*
X118509523Y-74169104D02*
X118461904Y-74073866D01*
X118461904Y-74073866D02*
X118414285Y-74026247D01*
X118414285Y-74026247D02*
X118319047Y-73978628D01*
X118319047Y-73978628D02*
X118128571Y-73931009D01*
X118128571Y-73931009D02*
X118033333Y-73883390D01*
X118033333Y-73883390D02*
X117985714Y-73835771D01*
X117985714Y-73835771D02*
X117938095Y-73740533D01*
X117938095Y-73740533D02*
X117938095Y-73645295D01*
X117938095Y-73645295D02*
X117985714Y-73550057D01*
X117985714Y-73550057D02*
X118033333Y-73502438D01*
X118033333Y-73502438D02*
X118128571Y-73454819D01*
X118128571Y-73454819D02*
X118366666Y-73454819D01*
X118366666Y-73454819D02*
X118509523Y-73502438D01*
X118795238Y-73454819D02*
X119366666Y-73454819D01*
X119080952Y-74454819D02*
X119080952Y-73454819D01*
X119700000Y-74454819D02*
X119700000Y-73454819D01*
X119700000Y-73454819D02*
X120080952Y-73454819D01*
X120080952Y-73454819D02*
X120176190Y-73502438D01*
X120176190Y-73502438D02*
X120223809Y-73550057D01*
X120223809Y-73550057D02*
X120271428Y-73645295D01*
X120271428Y-73645295D02*
X120271428Y-73788152D01*
X120271428Y-73788152D02*
X120223809Y-73883390D01*
X120223809Y-73883390D02*
X120176190Y-73931009D01*
X120176190Y-73931009D02*
X120080952Y-73978628D01*
X120080952Y-73978628D02*
X119700000Y-73978628D01*
X151266905Y-116514819D02*
X151266905Y-115514819D01*
X151266905Y-115514819D02*
X151505000Y-115514819D01*
X151505000Y-115514819D02*
X151647857Y-115562438D01*
X151647857Y-115562438D02*
X151743095Y-115657676D01*
X151743095Y-115657676D02*
X151790714Y-115752914D01*
X151790714Y-115752914D02*
X151838333Y-115943390D01*
X151838333Y-115943390D02*
X151838333Y-116086247D01*
X151838333Y-116086247D02*
X151790714Y-116276723D01*
X151790714Y-116276723D02*
X151743095Y-116371961D01*
X151743095Y-116371961D02*
X151647857Y-116467200D01*
X151647857Y-116467200D02*
X151505000Y-116514819D01*
X151505000Y-116514819D02*
X151266905Y-116514819D01*
X152790714Y-116514819D02*
X152219286Y-116514819D01*
X152505000Y-116514819D02*
X152505000Y-115514819D01*
X152505000Y-115514819D02*
X152409762Y-115657676D01*
X152409762Y-115657676D02*
X152314524Y-115752914D01*
X152314524Y-115752914D02*
X152219286Y-115800533D01*
D12*
%TO.C,J4*%
X136270000Y-79680000D02*
X136270000Y-72000000D01*
X136270000Y-82280000D02*
X136270000Y-80950000D01*
X137600000Y-82280000D02*
X136270000Y-82280000D01*
X138930000Y-72000000D02*
X136270000Y-72000000D01*
X138930000Y-79680000D02*
X136270000Y-79680000D01*
X138930000Y-79680000D02*
X138930000Y-72000000D01*
%TO.C,J1*%
X122820000Y-79980000D02*
X122820000Y-67220000D01*
X122820000Y-82580000D02*
X122820000Y-81250000D01*
X124150000Y-82580000D02*
X122820000Y-82580000D01*
X125480000Y-67220000D02*
X122820000Y-67220000D01*
X125480000Y-79980000D02*
X122820000Y-79980000D01*
X125480000Y-79980000D02*
X125480000Y-67220000D01*
%TO.C,J3*%
X101720000Y-79930000D02*
X101720000Y-69710000D01*
X101720000Y-82530000D02*
X101720000Y-81200000D01*
X103050000Y-82530000D02*
X101720000Y-82530000D01*
X104380000Y-69710000D02*
X101720000Y-69710000D01*
X104380000Y-79930000D02*
X101720000Y-79930000D01*
X104380000Y-79930000D02*
X104380000Y-69710000D01*
%TO.C,J6*%
X104540000Y-107170000D02*
X104540000Y-109830000D01*
X114760000Y-107170000D02*
X104540000Y-107170000D01*
X114760000Y-107170000D02*
X114760000Y-109830000D01*
X114760000Y-109830000D02*
X104540000Y-109830000D01*
X117360000Y-108500000D02*
X117360000Y-109830000D01*
X117360000Y-109830000D02*
X116030000Y-109830000D01*
%TO.C,C1*%
X103220000Y-92637700D02*
X113380000Y-92637700D01*
X103220000Y-92677700D02*
X113380000Y-92677700D01*
X103220000Y-92717700D02*
X113380000Y-92717700D01*
X103221000Y-92597700D02*
X113379000Y-92597700D01*
X103222000Y-92557700D02*
X113378000Y-92557700D01*
X103223000Y-92517700D02*
X113377000Y-92517700D01*
X103225000Y-92477700D02*
X113375000Y-92477700D01*
X103227000Y-92437700D02*
X113373000Y-92437700D01*
X103230000Y-92397700D02*
X113370000Y-92397700D01*
X103232000Y-92357700D02*
X113368000Y-92357700D01*
X103235000Y-92317700D02*
X113365000Y-92317700D01*
X103238000Y-92277700D02*
X113362000Y-92277700D01*
X103242000Y-92237700D02*
X113358000Y-92237700D01*
X103246000Y-92197700D02*
X113354000Y-92197700D01*
X103250000Y-92157700D02*
X113350000Y-92157700D01*
X103255000Y-92117700D02*
X113345000Y-92117700D01*
X103260000Y-92077700D02*
X113340000Y-92077700D01*
X103265000Y-92037700D02*
X113335000Y-92037700D01*
X103270000Y-91996700D02*
X113330000Y-91996700D01*
X103276000Y-91956700D02*
X113324000Y-91956700D01*
X103282000Y-91916700D02*
X113318000Y-91916700D01*
X103289000Y-91876700D02*
X113311000Y-91876700D01*
X103296000Y-91836700D02*
X113304000Y-91836700D01*
X103303000Y-91796700D02*
X113297000Y-91796700D01*
X103310000Y-91756700D02*
X113290000Y-91756700D01*
X103318000Y-91716700D02*
X113282000Y-91716700D01*
X103326000Y-91676700D02*
X113274000Y-91676700D01*
X103335000Y-91636700D02*
X113265000Y-91636700D01*
X103344000Y-91596700D02*
X113256000Y-91596700D01*
X103353000Y-91556700D02*
X113247000Y-91556700D01*
X103362000Y-91516700D02*
X113238000Y-91516700D01*
X103372000Y-91476700D02*
X113228000Y-91476700D01*
X103382000Y-91436700D02*
X107059000Y-91436700D01*
X103393000Y-91396700D02*
X107059000Y-91396700D01*
X103403000Y-91356700D02*
X107059000Y-91356700D01*
X103415000Y-91316700D02*
X107059000Y-91316700D01*
X103426000Y-91276700D02*
X107059000Y-91276700D01*
X103438000Y-91236700D02*
X107059000Y-91236700D01*
X103450000Y-91196700D02*
X107059000Y-91196700D01*
X103463000Y-91156700D02*
X107059000Y-91156700D01*
X103476000Y-91116700D02*
X107059000Y-91116700D01*
X103489000Y-91076700D02*
X107059000Y-91076700D01*
X103503000Y-91036700D02*
X107059000Y-91036700D01*
X103517000Y-90996700D02*
X107059000Y-90996700D01*
X103532000Y-90956700D02*
X107059000Y-90956700D01*
X103546000Y-90916700D02*
X107059000Y-90916700D01*
X103562000Y-90876700D02*
X107059000Y-90876700D01*
X103577000Y-90836700D02*
X107059000Y-90836700D01*
X103593000Y-90796700D02*
X107059000Y-90796700D01*
X103610000Y-90756700D02*
X107059000Y-90756700D01*
X103626000Y-90716700D02*
X107059000Y-90716700D01*
X103643000Y-90676700D02*
X107059000Y-90676700D01*
X103661000Y-90636700D02*
X107059000Y-90636700D01*
X103679000Y-90596700D02*
X107059000Y-90596700D01*
X103697000Y-90556700D02*
X107059000Y-90556700D01*
X103716000Y-90516700D02*
X107059000Y-90516700D01*
X103736000Y-90476700D02*
X107059000Y-90476700D01*
X103755000Y-90436700D02*
X107059000Y-90436700D01*
X103775000Y-90396700D02*
X107059000Y-90396700D01*
X103796000Y-90356700D02*
X107059000Y-90356700D01*
X103817000Y-90316700D02*
X107059000Y-90316700D01*
X103838000Y-90276700D02*
X107059000Y-90276700D01*
X103860000Y-90236700D02*
X107059000Y-90236700D01*
X103883000Y-90196700D02*
X107059000Y-90196700D01*
X103905000Y-90156700D02*
X107059000Y-90156700D01*
X103929000Y-90116700D02*
X107059000Y-90116700D01*
X103953000Y-90076700D02*
X107059000Y-90076700D01*
X103977000Y-90036700D02*
X107059000Y-90036700D01*
X104002000Y-89996700D02*
X107059000Y-89996700D01*
X104027000Y-89956700D02*
X107059000Y-89956700D01*
X104053000Y-89916700D02*
X107059000Y-89916700D01*
X104079000Y-89876700D02*
X107059000Y-89876700D01*
X104106000Y-89836700D02*
X107059000Y-89836700D01*
X104134000Y-89796700D02*
X107059000Y-89796700D01*
X104162000Y-89756700D02*
X107059000Y-89756700D01*
X104190000Y-89716700D02*
X107059000Y-89716700D01*
X104220000Y-89676700D02*
X107059000Y-89676700D01*
X104250000Y-89636700D02*
X107059000Y-89636700D01*
X104280000Y-89596700D02*
X107059000Y-89596700D01*
X104311000Y-89556700D02*
X107059000Y-89556700D01*
X104343000Y-89516700D02*
X107059000Y-89516700D01*
X104375000Y-89476700D02*
X107059000Y-89476700D01*
X104408000Y-89436700D02*
X107059000Y-89436700D01*
X104442000Y-89396700D02*
X107059000Y-89396700D01*
X104476000Y-89356700D02*
X107059000Y-89356700D01*
X104511000Y-89316700D02*
X107059000Y-89316700D01*
X104547000Y-89276700D02*
X107059000Y-89276700D01*
X104584000Y-89236700D02*
X107059000Y-89236700D01*
X104621000Y-89196700D02*
X107059000Y-89196700D01*
X104660000Y-89156700D02*
X107059000Y-89156700D01*
X104699000Y-89116700D02*
X107059000Y-89116700D01*
X104739000Y-89076700D02*
X107059000Y-89076700D01*
X104780000Y-89036700D02*
X107059000Y-89036700D01*
X104822000Y-88996700D02*
X107059000Y-88996700D01*
X104864000Y-88956700D02*
X111736000Y-88956700D01*
X104908000Y-88916700D02*
X111692000Y-88916700D01*
X104925000Y-97697346D02*
X105925000Y-97697346D01*
X104953000Y-88876700D02*
X111647000Y-88876700D01*
X104999000Y-88836700D02*
X111601000Y-88836700D01*
X105046000Y-88796700D02*
X111554000Y-88796700D01*
X105094000Y-88756700D02*
X111506000Y-88756700D01*
X105144000Y-88716700D02*
X111456000Y-88716700D01*
X105194000Y-88676700D02*
X111406000Y-88676700D01*
X105246000Y-88636700D02*
X111354000Y-88636700D01*
X105300000Y-88596700D02*
X111300000Y-88596700D01*
X105355000Y-88556700D02*
X111245000Y-88556700D01*
X105411000Y-88516700D02*
X111189000Y-88516700D01*
X105425000Y-98197346D02*
X105425000Y-97197346D01*
X105470000Y-88476700D02*
X111130000Y-88476700D01*
X105530000Y-88436700D02*
X111070000Y-88436700D01*
X105591000Y-88396700D02*
X111009000Y-88396700D01*
X105655000Y-88356700D02*
X110945000Y-88356700D01*
X105721000Y-88316700D02*
X110879000Y-88316700D01*
X105790000Y-88276700D02*
X110810000Y-88276700D01*
X105861000Y-88236700D02*
X110739000Y-88236700D01*
X105935000Y-88196700D02*
X110665000Y-88196700D01*
X106011000Y-88156700D02*
X110589000Y-88156700D01*
X106091000Y-88116700D02*
X110509000Y-88116700D01*
X106175000Y-88076700D02*
X110425000Y-88076700D01*
X106263000Y-88036700D02*
X110337000Y-88036700D01*
X106356000Y-87996700D02*
X110244000Y-87996700D01*
X106454000Y-87956700D02*
X110146000Y-87956700D01*
X106558000Y-87916700D02*
X110042000Y-87916700D01*
X106670000Y-87876700D02*
X109930000Y-87876700D01*
X106790000Y-87836700D02*
X109810000Y-87836700D01*
X106922000Y-87796700D02*
X109678000Y-87796700D01*
X107070000Y-87756700D02*
X109530000Y-87756700D01*
X107238000Y-87716700D02*
X109362000Y-87716700D01*
X107438000Y-87676700D02*
X109162000Y-87676700D01*
X107701000Y-87636700D02*
X108899000Y-87636700D01*
X109541000Y-88996700D02*
X111778000Y-88996700D01*
X109541000Y-89036700D02*
X111820000Y-89036700D01*
X109541000Y-89076700D02*
X111861000Y-89076700D01*
X109541000Y-89116700D02*
X111901000Y-89116700D01*
X109541000Y-89156700D02*
X111940000Y-89156700D01*
X109541000Y-89196700D02*
X111979000Y-89196700D01*
X109541000Y-89236700D02*
X112016000Y-89236700D01*
X109541000Y-89276700D02*
X112053000Y-89276700D01*
X109541000Y-89316700D02*
X112089000Y-89316700D01*
X109541000Y-89356700D02*
X112124000Y-89356700D01*
X109541000Y-89396700D02*
X112158000Y-89396700D01*
X109541000Y-89436700D02*
X112192000Y-89436700D01*
X109541000Y-89476700D02*
X112225000Y-89476700D01*
X109541000Y-89516700D02*
X112257000Y-89516700D01*
X109541000Y-89556700D02*
X112289000Y-89556700D01*
X109541000Y-89596700D02*
X112320000Y-89596700D01*
X109541000Y-89636700D02*
X112350000Y-89636700D01*
X109541000Y-89676700D02*
X112380000Y-89676700D01*
X109541000Y-89716700D02*
X112410000Y-89716700D01*
X109541000Y-89756700D02*
X112438000Y-89756700D01*
X109541000Y-89796700D02*
X112466000Y-89796700D01*
X109541000Y-89836700D02*
X112494000Y-89836700D01*
X109541000Y-89876700D02*
X112521000Y-89876700D01*
X109541000Y-89916700D02*
X112547000Y-89916700D01*
X109541000Y-89956700D02*
X112573000Y-89956700D01*
X109541000Y-89996700D02*
X112598000Y-89996700D01*
X109541000Y-90036700D02*
X112623000Y-90036700D01*
X109541000Y-90076700D02*
X112647000Y-90076700D01*
X109541000Y-90116700D02*
X112671000Y-90116700D01*
X109541000Y-90156700D02*
X112695000Y-90156700D01*
X109541000Y-90196700D02*
X112717000Y-90196700D01*
X109541000Y-90236700D02*
X112740000Y-90236700D01*
X109541000Y-90276700D02*
X112762000Y-90276700D01*
X109541000Y-90316700D02*
X112783000Y-90316700D01*
X109541000Y-90356700D02*
X112804000Y-90356700D01*
X109541000Y-90396700D02*
X112825000Y-90396700D01*
X109541000Y-90436700D02*
X112845000Y-90436700D01*
X109541000Y-90476700D02*
X112864000Y-90476700D01*
X109541000Y-90516700D02*
X112884000Y-90516700D01*
X109541000Y-90556700D02*
X112903000Y-90556700D01*
X109541000Y-90596700D02*
X112921000Y-90596700D01*
X109541000Y-90636700D02*
X112939000Y-90636700D01*
X109541000Y-90676700D02*
X112957000Y-90676700D01*
X109541000Y-90716700D02*
X112974000Y-90716700D01*
X109541000Y-90756700D02*
X112990000Y-90756700D01*
X109541000Y-90796700D02*
X113007000Y-90796700D01*
X109541000Y-90836700D02*
X113023000Y-90836700D01*
X109541000Y-90876700D02*
X113038000Y-90876700D01*
X109541000Y-90916700D02*
X113054000Y-90916700D01*
X109541000Y-90956700D02*
X113068000Y-90956700D01*
X109541000Y-90996700D02*
X113083000Y-90996700D01*
X109541000Y-91036700D02*
X113097000Y-91036700D01*
X109541000Y-91076700D02*
X113111000Y-91076700D01*
X109541000Y-91116700D02*
X113124000Y-91116700D01*
X109541000Y-91156700D02*
X113137000Y-91156700D01*
X109541000Y-91196700D02*
X113150000Y-91196700D01*
X109541000Y-91236700D02*
X113162000Y-91236700D01*
X109541000Y-91276700D02*
X113174000Y-91276700D01*
X109541000Y-91316700D02*
X113185000Y-91316700D01*
X109541000Y-91356700D02*
X113197000Y-91356700D01*
X109541000Y-91396700D02*
X113207000Y-91396700D01*
X109541000Y-91436700D02*
X113218000Y-91436700D01*
X113420000Y-92717700D02*
G75*
G02*
X103180000Y-92717700I-5120000J0D01*
G01*
X103180000Y-92717700D02*
G75*
G02*
X113420000Y-92717700I5120000J0D01*
G01*
%TO.C,J5*%
X141770000Y-95030000D02*
X141770000Y-87350000D01*
X141770000Y-97630000D02*
X141770000Y-96300000D01*
X143100000Y-97630000D02*
X141770000Y-97630000D01*
X144430000Y-87350000D02*
X141770000Y-87350000D01*
X144430000Y-95030000D02*
X141770000Y-95030000D01*
X144430000Y-95030000D02*
X144430000Y-87350000D01*
%TO.C,R1*%
X141330000Y-104080000D02*
X141330000Y-113320000D01*
X141330000Y-113320000D02*
X144770000Y-113320000D01*
X143050000Y-103390000D02*
X143050000Y-104080000D01*
X143050000Y-114010000D02*
X143050000Y-113320000D01*
X144770000Y-104080000D02*
X141330000Y-104080000D01*
X144770000Y-113320000D02*
X144770000Y-104080000D01*
%TO.C,J7*%
X104460000Y-101970000D02*
X104460000Y-104630000D01*
X114680000Y-101970000D02*
X104460000Y-101970000D01*
X114680000Y-101970000D02*
X114680000Y-104630000D01*
X114680000Y-104630000D02*
X104460000Y-104630000D01*
X117280000Y-103300000D02*
X117280000Y-104630000D01*
X117280000Y-104630000D02*
X115950000Y-104630000D01*
%TO.C,J2*%
X116370000Y-79930000D02*
X116370000Y-74790000D01*
X116370000Y-82530000D02*
X116370000Y-81200000D01*
X117700000Y-82530000D02*
X116370000Y-82530000D01*
X119030000Y-74790000D02*
X116370000Y-74790000D01*
X119030000Y-79930000D02*
X116370000Y-79930000D01*
X119030000Y-79930000D02*
X119030000Y-74790000D01*
D11*
%TO.C,U1*%
X121090000Y-86290000D02*
X138870000Y-86290000D01*
X121090000Y-116770000D02*
X121090000Y-86290000D01*
X126170000Y-116770000D02*
X121090000Y-116770000D01*
X138870000Y-116770000D02*
X126170000Y-116770000D01*
X138870000Y-116770000D02*
X138870000Y-86290000D01*
D12*
%TO.C,J8*%
X104510000Y-104570000D02*
X104510000Y-107230000D01*
X114730000Y-104570000D02*
X104510000Y-104570000D01*
X114730000Y-104570000D02*
X114730000Y-107230000D01*
X114730000Y-107230000D02*
X104510000Y-107230000D01*
X117330000Y-105900000D02*
X117330000Y-107230000D01*
X117330000Y-107230000D02*
X116000000Y-107230000D01*
%TO.C,D1*%
X154565000Y-113645000D02*
X154565000Y-110555000D01*
X149015000Y-112100462D02*
G75*
G02*
X154565000Y-110555170I2990000J462D01*
G01*
X154565000Y-113644830D02*
G75*
G02*
X149015000Y-112099538I-2560000J1544830D01*
G01*
X154505000Y-112100000D02*
G75*
G02*
X149505000Y-112100000I-2500000J0D01*
G01*
X149505000Y-112100000D02*
G75*
G02*
X154505000Y-112100000I2500000J0D01*
G01*
%TD*%
D13*
%TO.C,U1*%
X137600000Y-115500000D03*
D14*
X137600000Y-112960000D03*
X137600000Y-110420000D03*
X137600000Y-107880000D03*
X137600000Y-105340000D03*
X137600000Y-102800000D03*
X137600000Y-100260000D03*
X137600000Y-97720000D03*
X137600000Y-95180000D03*
X137600000Y-92640000D03*
X137600000Y-90100000D03*
X137600000Y-87560000D03*
X122360000Y-87560000D03*
X122360000Y-90100000D03*
X122360000Y-92640000D03*
X122360000Y-95180000D03*
X122360000Y-97720000D03*
X122360000Y-100260000D03*
X122360000Y-102800000D03*
X122360000Y-105340000D03*
X122360000Y-107880000D03*
X122360000Y-110420000D03*
X122360000Y-112960000D03*
X122360000Y-115500000D03*
%TD*%
M02*
