%TF.GenerationSoftware,KiCad,Pcbnew,8.0.6*%
%TF.CreationDate,2026-05-30T13:23:38+02:00*%
%TF.ProjectId,_carrier,5f636172-7269-4657-922e-6b696361645f,rev?*%
%TF.SameCoordinates,Original*%
%TF.FileFunction,Drillmap*%
%TF.FilePolarity,Positive*%
%FSLAX45Y45*%
G04 Gerber Fmt 4.5, Leading zero omitted, Abs format (unit mm)*
G04 Created by KiCad (PCBNEW 8.0.6) date 2026-05-30 13:23:38*
%MOMM*%
%LPD*%
G01*
G04 APERTURE LIST*
%ADD10C,0.050000*%
%ADD11C,0.200000*%
%ADD12C,0.100000*%
%ADD13C,0.110000*%
G04 APERTURE END LIST*
D10*
X14060000Y-7660000D02*
X14060000Y-6540000D01*
X15730000Y-10700000D02*
X15730000Y-11785000D01*
X9785000Y-11785000D02*
X9790000Y-6535000D01*
X15730000Y-10700000D02*
X15020000Y-10700000D01*
X15730000Y-11785000D02*
X12615000Y-11785000D01*
X15020000Y-8620000D02*
X14060000Y-7660000D01*
X9790000Y-6535000D02*
X14060000Y-6540000D01*
X15020000Y-8620000D02*
X15020000Y-10700000D01*
X12615000Y-11785000D02*
X9785000Y-11785000D01*
D11*
D12*
X11970000Y-9705000D02*
X12000000Y-9735000D01*
X12000000Y-9705000D02*
X11970000Y-9735000D01*
X12050000Y-9705000D02*
X12080000Y-9735000D01*
X12080000Y-9705000D02*
X12050000Y-9735000D01*
X12196999Y-7403067D02*
X12226999Y-7433067D01*
X12226999Y-7403067D02*
X12196999Y-7433067D01*
X13375000Y-8915000D02*
X13405000Y-8945000D01*
X13405000Y-8915000D02*
X13375000Y-8945000D01*
X13457850Y-8915000D02*
X13487850Y-8945000D01*
X13487850Y-8915000D02*
X13457850Y-8945000D01*
X13970967Y-7904033D02*
X14000967Y-7934033D01*
X14000967Y-7904033D02*
X13970967Y-7934033D01*
X14345000Y-10235000D02*
G75*
G02*
X14265000Y-10235000I-40000J0D01*
G01*
X14265000Y-10235000D02*
G75*
G02*
X14345000Y-10235000I40000J0D01*
G01*
X14345000Y-11505000D02*
G75*
G02*
X14265000Y-11505000I-40000J0D01*
G01*
X14265000Y-11505000D02*
G75*
G02*
X14345000Y-11505000I40000J0D01*
G01*
X15073500Y-11165000D02*
X15073500Y-11255000D01*
X15028500Y-11210000D02*
X15118500Y-11210000D01*
X15327500Y-11165000D02*
X15327500Y-11255000D01*
X15282500Y-11210000D02*
X15372500Y-11210000D01*
X10340356Y-7139356D02*
X10340356Y-7068644D01*
X10269644Y-7068644D01*
X10269644Y-7139356D01*
X10340356Y-7139356D01*
X10340356Y-7393356D02*
X10340356Y-7322644D01*
X10269644Y-7322644D01*
X10269644Y-7393356D01*
X10340356Y-7393356D01*
X10340356Y-7647356D02*
X10340356Y-7576644D01*
X10269644Y-7576644D01*
X10269644Y-7647356D01*
X10340356Y-7647356D01*
X10340356Y-7901356D02*
X10340356Y-7830644D01*
X10269644Y-7830644D01*
X10269644Y-7901356D01*
X10340356Y-7901356D01*
X10340356Y-8155356D02*
X10340356Y-8084644D01*
X10269644Y-8084644D01*
X10269644Y-8155356D01*
X10340356Y-8155356D01*
X10614356Y-10365356D02*
X10614356Y-10294644D01*
X10543644Y-10294644D01*
X10543644Y-10365356D01*
X10614356Y-10365356D01*
X10619356Y-10625356D02*
X10619356Y-10554644D01*
X10548644Y-10554644D01*
X10548644Y-10625356D01*
X10619356Y-10625356D01*
X10622356Y-10885356D02*
X10622356Y-10814644D01*
X10551644Y-10814644D01*
X10551644Y-10885356D01*
X10622356Y-10885356D01*
X10865356Y-9057126D02*
X10865356Y-8986414D01*
X10794644Y-8986414D01*
X10794644Y-9057126D01*
X10865356Y-9057126D01*
X10865356Y-9557126D02*
X10865356Y-9486414D01*
X10794644Y-9486414D01*
X10794644Y-9557126D01*
X10865356Y-9557126D01*
X10868356Y-10365356D02*
X10868356Y-10294644D01*
X10797644Y-10294644D01*
X10797644Y-10365356D01*
X10868356Y-10365356D01*
X10873356Y-10625356D02*
X10873356Y-10554644D01*
X10802644Y-10554644D01*
X10802644Y-10625356D01*
X10873356Y-10625356D01*
X10876356Y-10885356D02*
X10876356Y-10814644D01*
X10805644Y-10814644D01*
X10805644Y-10885356D01*
X10876356Y-10885356D01*
X11122356Y-10365356D02*
X11122356Y-10294644D01*
X11051644Y-10294644D01*
X11051644Y-10365356D01*
X11122356Y-10365356D01*
X11127356Y-10625356D02*
X11127356Y-10554644D01*
X11056644Y-10554644D01*
X11056644Y-10625356D01*
X11127356Y-10625356D01*
X11130356Y-10885356D02*
X11130356Y-10814644D01*
X11059644Y-10814644D01*
X11059644Y-10885356D01*
X11130356Y-10885356D01*
X11376356Y-10365356D02*
X11376356Y-10294644D01*
X11305644Y-10294644D01*
X11305644Y-10365356D01*
X11376356Y-10365356D01*
X11381356Y-10625356D02*
X11381356Y-10554644D01*
X11310644Y-10554644D01*
X11310644Y-10625356D01*
X11381356Y-10625356D01*
X11384356Y-10885356D02*
X11384356Y-10814644D01*
X11313644Y-10814644D01*
X11313644Y-10885356D01*
X11384356Y-10885356D01*
X11630356Y-10365356D02*
X11630356Y-10294644D01*
X11559644Y-10294644D01*
X11559644Y-10365356D01*
X11630356Y-10365356D01*
X11635356Y-10625356D02*
X11635356Y-10554644D01*
X11564644Y-10554644D01*
X11564644Y-10625356D01*
X11635356Y-10625356D01*
X11638356Y-10885356D02*
X11638356Y-10814644D01*
X11567644Y-10814644D01*
X11567644Y-10885356D01*
X11638356Y-10885356D01*
X11805356Y-7647356D02*
X11805356Y-7576644D01*
X11734644Y-7576644D01*
X11734644Y-7647356D01*
X11805356Y-7647356D01*
X11805356Y-7901356D02*
X11805356Y-7830644D01*
X11734644Y-7830644D01*
X11734644Y-7901356D01*
X11805356Y-7901356D01*
X11805356Y-8155356D02*
X11805356Y-8084644D01*
X11734644Y-8084644D01*
X11734644Y-8155356D01*
X11805356Y-8155356D01*
X12450356Y-6890356D02*
X12450356Y-6819644D01*
X12379644Y-6819644D01*
X12379644Y-6890356D01*
X12450356Y-6890356D01*
X12450356Y-7144356D02*
X12450356Y-7073644D01*
X12379644Y-7073644D01*
X12379644Y-7144356D01*
X12450356Y-7144356D01*
X12450356Y-7398356D02*
X12450356Y-7327644D01*
X12379644Y-7327644D01*
X12379644Y-7398356D01*
X12450356Y-7398356D01*
X12450356Y-7652356D02*
X12450356Y-7581644D01*
X12379644Y-7581644D01*
X12379644Y-7652356D01*
X12450356Y-7652356D01*
X12450356Y-7906356D02*
X12450356Y-7835644D01*
X12379644Y-7835644D01*
X12379644Y-7906356D01*
X12450356Y-7906356D01*
X12450356Y-8160356D02*
X12450356Y-8089644D01*
X12379644Y-8089644D01*
X12379644Y-8160356D01*
X12450356Y-8160356D01*
X13795356Y-7368356D02*
X13795356Y-7297644D01*
X13724644Y-7297644D01*
X13724644Y-7368356D01*
X13795356Y-7368356D01*
X13795356Y-7622356D02*
X13795356Y-7551644D01*
X13724644Y-7551644D01*
X13724644Y-7622356D01*
X13795356Y-7622356D01*
X13795356Y-7876356D02*
X13795356Y-7805644D01*
X13724644Y-7805644D01*
X13724644Y-7876356D01*
X13795356Y-7876356D01*
X13795356Y-8130356D02*
X13795356Y-8059644D01*
X13724644Y-8059644D01*
X13724644Y-8130356D01*
X13795356Y-8130356D01*
X14345356Y-8903356D02*
X14345356Y-8832644D01*
X14274644Y-8832644D01*
X14274644Y-8903356D01*
X14345356Y-8903356D01*
X14345356Y-9157356D02*
X14345356Y-9086644D01*
X14274644Y-9086644D01*
X14274644Y-9157356D01*
X14345356Y-9157356D01*
X14345356Y-9411356D02*
X14345356Y-9340644D01*
X14274644Y-9340644D01*
X14274644Y-9411356D01*
X14345356Y-9411356D01*
X14345356Y-9665356D02*
X14345356Y-9594644D01*
X14274644Y-9594644D01*
X14274644Y-9665356D01*
X14345356Y-9665356D01*
D13*
X12236000Y-8811000D02*
X12291000Y-8756000D01*
X12236000Y-8701000D01*
X12181000Y-8756000D01*
X12236000Y-8811000D01*
X12236000Y-9065000D02*
X12291000Y-9010000D01*
X12236000Y-8955000D01*
X12181000Y-9010000D01*
X12236000Y-9065000D01*
X12236000Y-9319000D02*
X12291000Y-9264000D01*
X12236000Y-9209000D01*
X12181000Y-9264000D01*
X12236000Y-9319000D01*
X12236000Y-9573000D02*
X12291000Y-9518000D01*
X12236000Y-9463000D01*
X12181000Y-9518000D01*
X12236000Y-9573000D01*
X12236000Y-9827000D02*
X12291000Y-9772000D01*
X12236000Y-9717000D01*
X12181000Y-9772000D01*
X12236000Y-9827000D01*
X12236000Y-10081000D02*
X12291000Y-10026000D01*
X12236000Y-9971000D01*
X12181000Y-10026000D01*
X12236000Y-10081000D01*
X12236000Y-10335000D02*
X12291000Y-10280000D01*
X12236000Y-10225000D01*
X12181000Y-10280000D01*
X12236000Y-10335000D01*
X12236000Y-10589000D02*
X12291000Y-10534000D01*
X12236000Y-10479000D01*
X12181000Y-10534000D01*
X12236000Y-10589000D01*
X12236000Y-10843000D02*
X12291000Y-10788000D01*
X12236000Y-10733000D01*
X12181000Y-10788000D01*
X12236000Y-10843000D01*
X12236000Y-11097000D02*
X12291000Y-11042000D01*
X12236000Y-10987000D01*
X12181000Y-11042000D01*
X12236000Y-11097000D01*
X12236000Y-11351000D02*
X12291000Y-11296000D01*
X12236000Y-11241000D01*
X12181000Y-11296000D01*
X12236000Y-11351000D01*
X12236000Y-11605000D02*
X12291000Y-11550000D01*
X12236000Y-11495000D01*
X12181000Y-11550000D01*
X12236000Y-11605000D01*
X13760000Y-8811000D02*
X13815000Y-8756000D01*
X13760000Y-8701000D01*
X13705000Y-8756000D01*
X13760000Y-8811000D01*
X13760000Y-9065000D02*
X13815000Y-9010000D01*
X13760000Y-8955000D01*
X13705000Y-9010000D01*
X13760000Y-9065000D01*
X13760000Y-9319000D02*
X13815000Y-9264000D01*
X13760000Y-9209000D01*
X13705000Y-9264000D01*
X13760000Y-9319000D01*
X13760000Y-9573000D02*
X13815000Y-9518000D01*
X13760000Y-9463000D01*
X13705000Y-9518000D01*
X13760000Y-9573000D01*
X13760000Y-9827000D02*
X13815000Y-9772000D01*
X13760000Y-9717000D01*
X13705000Y-9772000D01*
X13760000Y-9827000D01*
X13760000Y-10081000D02*
X13815000Y-10026000D01*
X13760000Y-9971000D01*
X13705000Y-10026000D01*
X13760000Y-10081000D01*
X13760000Y-10335000D02*
X13815000Y-10280000D01*
X13760000Y-10225000D01*
X13705000Y-10280000D01*
X13760000Y-10335000D01*
X13760000Y-10589000D02*
X13815000Y-10534000D01*
X13760000Y-10479000D01*
X13705000Y-10534000D01*
X13760000Y-10589000D01*
X13760000Y-10843000D02*
X13815000Y-10788000D01*
X13760000Y-10733000D01*
X13705000Y-10788000D01*
X13760000Y-10843000D01*
X13760000Y-11097000D02*
X13815000Y-11042000D01*
X13760000Y-10987000D01*
X13705000Y-11042000D01*
X13760000Y-11097000D01*
X13760000Y-11351000D02*
X13815000Y-11296000D01*
X13760000Y-11241000D01*
X13705000Y-11296000D01*
X13760000Y-11351000D01*
X13760000Y-11605000D02*
X13815000Y-11550000D01*
X13760000Y-11495000D01*
X13705000Y-11550000D01*
X13760000Y-11605000D01*
D11*
X10043277Y-12098984D02*
X10043277Y-11898984D01*
X10043277Y-11898984D02*
X10090896Y-11898984D01*
X10090896Y-11898984D02*
X10119467Y-11908508D01*
X10119467Y-11908508D02*
X10138515Y-11927555D01*
X10138515Y-11927555D02*
X10148039Y-11946603D01*
X10148039Y-11946603D02*
X10157563Y-11984698D01*
X10157563Y-11984698D02*
X10157563Y-12013269D01*
X10157563Y-12013269D02*
X10148039Y-12051365D01*
X10148039Y-12051365D02*
X10138515Y-12070412D01*
X10138515Y-12070412D02*
X10119467Y-12089460D01*
X10119467Y-12089460D02*
X10090896Y-12098984D01*
X10090896Y-12098984D02*
X10043277Y-12098984D01*
X10243277Y-12098984D02*
X10243277Y-11965650D01*
X10243277Y-12003746D02*
X10252801Y-11984698D01*
X10252801Y-11984698D02*
X10262324Y-11975174D01*
X10262324Y-11975174D02*
X10281372Y-11965650D01*
X10281372Y-11965650D02*
X10300420Y-11965650D01*
X10367086Y-12098984D02*
X10367086Y-11965650D01*
X10367086Y-11898984D02*
X10357563Y-11908508D01*
X10357563Y-11908508D02*
X10367086Y-11918031D01*
X10367086Y-11918031D02*
X10376610Y-11908508D01*
X10376610Y-11908508D02*
X10367086Y-11898984D01*
X10367086Y-11898984D02*
X10367086Y-11918031D01*
X10490896Y-12098984D02*
X10471848Y-12089460D01*
X10471848Y-12089460D02*
X10462324Y-12070412D01*
X10462324Y-12070412D02*
X10462324Y-11898984D01*
X10595658Y-12098984D02*
X10576610Y-12089460D01*
X10576610Y-12089460D02*
X10567086Y-12070412D01*
X10567086Y-12070412D02*
X10567086Y-11898984D01*
X10824229Y-12098984D02*
X10824229Y-11898984D01*
X10824229Y-11898984D02*
X10890896Y-12041841D01*
X10890896Y-12041841D02*
X10957563Y-11898984D01*
X10957563Y-11898984D02*
X10957563Y-12098984D01*
X11138515Y-12098984D02*
X11138515Y-11994222D01*
X11138515Y-11994222D02*
X11128991Y-11975174D01*
X11128991Y-11975174D02*
X11109944Y-11965650D01*
X11109944Y-11965650D02*
X11071848Y-11965650D01*
X11071848Y-11965650D02*
X11052801Y-11975174D01*
X11138515Y-12089460D02*
X11119467Y-12098984D01*
X11119467Y-12098984D02*
X11071848Y-12098984D01*
X11071848Y-12098984D02*
X11052801Y-12089460D01*
X11052801Y-12089460D02*
X11043277Y-12070412D01*
X11043277Y-12070412D02*
X11043277Y-12051365D01*
X11043277Y-12051365D02*
X11052801Y-12032317D01*
X11052801Y-12032317D02*
X11071848Y-12022793D01*
X11071848Y-12022793D02*
X11119467Y-12022793D01*
X11119467Y-12022793D02*
X11138515Y-12013269D01*
X11233753Y-11965650D02*
X11233753Y-12165650D01*
X11233753Y-11975174D02*
X11252801Y-11965650D01*
X11252801Y-11965650D02*
X11290896Y-11965650D01*
X11290896Y-11965650D02*
X11309943Y-11975174D01*
X11309943Y-11975174D02*
X11319467Y-11984698D01*
X11319467Y-11984698D02*
X11328991Y-12003746D01*
X11328991Y-12003746D02*
X11328991Y-12060888D01*
X11328991Y-12060888D02*
X11319467Y-12079936D01*
X11319467Y-12079936D02*
X11309943Y-12089460D01*
X11309943Y-12089460D02*
X11290896Y-12098984D01*
X11290896Y-12098984D02*
X11252801Y-12098984D01*
X11252801Y-12098984D02*
X11233753Y-12089460D01*
X11414705Y-12079936D02*
X11424229Y-12089460D01*
X11424229Y-12089460D02*
X11414705Y-12098984D01*
X11414705Y-12098984D02*
X11405182Y-12089460D01*
X11405182Y-12089460D02*
X11414705Y-12079936D01*
X11414705Y-12079936D02*
X11414705Y-12098984D01*
X11414705Y-11975174D02*
X11424229Y-11984698D01*
X11424229Y-11984698D02*
X11414705Y-11994222D01*
X11414705Y-11994222D02*
X11405182Y-11984698D01*
X11405182Y-11984698D02*
X11414705Y-11975174D01*
X11414705Y-11975174D02*
X11414705Y-11994222D01*
D12*
X9752500Y-12412500D02*
X9782500Y-12442500D01*
X9782500Y-12412500D02*
X9752500Y-12442500D01*
D11*
X10081372Y-12318984D02*
X10100420Y-12318984D01*
X10100420Y-12318984D02*
X10119467Y-12328508D01*
X10119467Y-12328508D02*
X10128991Y-12338031D01*
X10128991Y-12338031D02*
X10138515Y-12357079D01*
X10138515Y-12357079D02*
X10148039Y-12395174D01*
X10148039Y-12395174D02*
X10148039Y-12442793D01*
X10148039Y-12442793D02*
X10138515Y-12480888D01*
X10138515Y-12480888D02*
X10128991Y-12499936D01*
X10128991Y-12499936D02*
X10119467Y-12509460D01*
X10119467Y-12509460D02*
X10100420Y-12518984D01*
X10100420Y-12518984D02*
X10081372Y-12518984D01*
X10081372Y-12518984D02*
X10062324Y-12509460D01*
X10062324Y-12509460D02*
X10052801Y-12499936D01*
X10052801Y-12499936D02*
X10043277Y-12480888D01*
X10043277Y-12480888D02*
X10033753Y-12442793D01*
X10033753Y-12442793D02*
X10033753Y-12395174D01*
X10033753Y-12395174D02*
X10043277Y-12357079D01*
X10043277Y-12357079D02*
X10052801Y-12338031D01*
X10052801Y-12338031D02*
X10062324Y-12328508D01*
X10062324Y-12328508D02*
X10081372Y-12318984D01*
X10233753Y-12499936D02*
X10243277Y-12509460D01*
X10243277Y-12509460D02*
X10233753Y-12518984D01*
X10233753Y-12518984D02*
X10224229Y-12509460D01*
X10224229Y-12509460D02*
X10233753Y-12499936D01*
X10233753Y-12499936D02*
X10233753Y-12518984D01*
X10309944Y-12318984D02*
X10433753Y-12318984D01*
X10433753Y-12318984D02*
X10367086Y-12395174D01*
X10367086Y-12395174D02*
X10395658Y-12395174D01*
X10395658Y-12395174D02*
X10414705Y-12404698D01*
X10414705Y-12404698D02*
X10424229Y-12414222D01*
X10424229Y-12414222D02*
X10433753Y-12433269D01*
X10433753Y-12433269D02*
X10433753Y-12480888D01*
X10433753Y-12480888D02*
X10424229Y-12499936D01*
X10424229Y-12499936D02*
X10414705Y-12509460D01*
X10414705Y-12509460D02*
X10395658Y-12518984D01*
X10395658Y-12518984D02*
X10338515Y-12518984D01*
X10338515Y-12518984D02*
X10319467Y-12509460D01*
X10319467Y-12509460D02*
X10309944Y-12499936D01*
X10557563Y-12318984D02*
X10576610Y-12318984D01*
X10576610Y-12318984D02*
X10595658Y-12328508D01*
X10595658Y-12328508D02*
X10605182Y-12338031D01*
X10605182Y-12338031D02*
X10614705Y-12357079D01*
X10614705Y-12357079D02*
X10624229Y-12395174D01*
X10624229Y-12395174D02*
X10624229Y-12442793D01*
X10624229Y-12442793D02*
X10614705Y-12480888D01*
X10614705Y-12480888D02*
X10605182Y-12499936D01*
X10605182Y-12499936D02*
X10595658Y-12509460D01*
X10595658Y-12509460D02*
X10576610Y-12518984D01*
X10576610Y-12518984D02*
X10557563Y-12518984D01*
X10557563Y-12518984D02*
X10538515Y-12509460D01*
X10538515Y-12509460D02*
X10528991Y-12499936D01*
X10528991Y-12499936D02*
X10519467Y-12480888D01*
X10519467Y-12480888D02*
X10509944Y-12442793D01*
X10509944Y-12442793D02*
X10509944Y-12395174D01*
X10509944Y-12395174D02*
X10519467Y-12357079D01*
X10519467Y-12357079D02*
X10528991Y-12338031D01*
X10528991Y-12338031D02*
X10538515Y-12328508D01*
X10538515Y-12328508D02*
X10557563Y-12318984D01*
X10748039Y-12318984D02*
X10767086Y-12318984D01*
X10767086Y-12318984D02*
X10786134Y-12328508D01*
X10786134Y-12328508D02*
X10795658Y-12338031D01*
X10795658Y-12338031D02*
X10805182Y-12357079D01*
X10805182Y-12357079D02*
X10814705Y-12395174D01*
X10814705Y-12395174D02*
X10814705Y-12442793D01*
X10814705Y-12442793D02*
X10805182Y-12480888D01*
X10805182Y-12480888D02*
X10795658Y-12499936D01*
X10795658Y-12499936D02*
X10786134Y-12509460D01*
X10786134Y-12509460D02*
X10767086Y-12518984D01*
X10767086Y-12518984D02*
X10748039Y-12518984D01*
X10748039Y-12518984D02*
X10728991Y-12509460D01*
X10728991Y-12509460D02*
X10719467Y-12499936D01*
X10719467Y-12499936D02*
X10709944Y-12480888D01*
X10709944Y-12480888D02*
X10700420Y-12442793D01*
X10700420Y-12442793D02*
X10700420Y-12395174D01*
X10700420Y-12395174D02*
X10709944Y-12357079D01*
X10709944Y-12357079D02*
X10719467Y-12338031D01*
X10719467Y-12338031D02*
X10728991Y-12328508D01*
X10728991Y-12328508D02*
X10748039Y-12318984D01*
X10900420Y-12518984D02*
X10900420Y-12385650D01*
X10900420Y-12404698D02*
X10909944Y-12395174D01*
X10909944Y-12395174D02*
X10928991Y-12385650D01*
X10928991Y-12385650D02*
X10957563Y-12385650D01*
X10957563Y-12385650D02*
X10976610Y-12395174D01*
X10976610Y-12395174D02*
X10986134Y-12414222D01*
X10986134Y-12414222D02*
X10986134Y-12518984D01*
X10986134Y-12414222D02*
X10995658Y-12395174D01*
X10995658Y-12395174D02*
X11014705Y-12385650D01*
X11014705Y-12385650D02*
X11043277Y-12385650D01*
X11043277Y-12385650D02*
X11062325Y-12395174D01*
X11062325Y-12395174D02*
X11071848Y-12414222D01*
X11071848Y-12414222D02*
X11071848Y-12518984D01*
X11167086Y-12518984D02*
X11167086Y-12385650D01*
X11167086Y-12404698D02*
X11176610Y-12395174D01*
X11176610Y-12395174D02*
X11195658Y-12385650D01*
X11195658Y-12385650D02*
X11224229Y-12385650D01*
X11224229Y-12385650D02*
X11243277Y-12395174D01*
X11243277Y-12395174D02*
X11252801Y-12414222D01*
X11252801Y-12414222D02*
X11252801Y-12518984D01*
X11252801Y-12414222D02*
X11262324Y-12395174D01*
X11262324Y-12395174D02*
X11281372Y-12385650D01*
X11281372Y-12385650D02*
X11309943Y-12385650D01*
X11309943Y-12385650D02*
X11328991Y-12395174D01*
X11328991Y-12395174D02*
X11338515Y-12414222D01*
X11338515Y-12414222D02*
X11338515Y-12518984D01*
X11728991Y-12309460D02*
X11557563Y-12566603D01*
X11986134Y-12318984D02*
X12005182Y-12318984D01*
X12005182Y-12318984D02*
X12024229Y-12328508D01*
X12024229Y-12328508D02*
X12033753Y-12338031D01*
X12033753Y-12338031D02*
X12043277Y-12357079D01*
X12043277Y-12357079D02*
X12052801Y-12395174D01*
X12052801Y-12395174D02*
X12052801Y-12442793D01*
X12052801Y-12442793D02*
X12043277Y-12480888D01*
X12043277Y-12480888D02*
X12033753Y-12499936D01*
X12033753Y-12499936D02*
X12024229Y-12509460D01*
X12024229Y-12509460D02*
X12005182Y-12518984D01*
X12005182Y-12518984D02*
X11986134Y-12518984D01*
X11986134Y-12518984D02*
X11967086Y-12509460D01*
X11967086Y-12509460D02*
X11957563Y-12499936D01*
X11957563Y-12499936D02*
X11948039Y-12480888D01*
X11948039Y-12480888D02*
X11938515Y-12442793D01*
X11938515Y-12442793D02*
X11938515Y-12395174D01*
X11938515Y-12395174D02*
X11948039Y-12357079D01*
X11948039Y-12357079D02*
X11957563Y-12338031D01*
X11957563Y-12338031D02*
X11967086Y-12328508D01*
X11967086Y-12328508D02*
X11986134Y-12318984D01*
X12138515Y-12499936D02*
X12148039Y-12509460D01*
X12148039Y-12509460D02*
X12138515Y-12518984D01*
X12138515Y-12518984D02*
X12128991Y-12509460D01*
X12128991Y-12509460D02*
X12138515Y-12499936D01*
X12138515Y-12499936D02*
X12138515Y-12518984D01*
X12271848Y-12318984D02*
X12290896Y-12318984D01*
X12290896Y-12318984D02*
X12309944Y-12328508D01*
X12309944Y-12328508D02*
X12319467Y-12338031D01*
X12319467Y-12338031D02*
X12328991Y-12357079D01*
X12328991Y-12357079D02*
X12338515Y-12395174D01*
X12338515Y-12395174D02*
X12338515Y-12442793D01*
X12338515Y-12442793D02*
X12328991Y-12480888D01*
X12328991Y-12480888D02*
X12319467Y-12499936D01*
X12319467Y-12499936D02*
X12309944Y-12509460D01*
X12309944Y-12509460D02*
X12290896Y-12518984D01*
X12290896Y-12518984D02*
X12271848Y-12518984D01*
X12271848Y-12518984D02*
X12252801Y-12509460D01*
X12252801Y-12509460D02*
X12243277Y-12499936D01*
X12243277Y-12499936D02*
X12233753Y-12480888D01*
X12233753Y-12480888D02*
X12224229Y-12442793D01*
X12224229Y-12442793D02*
X12224229Y-12395174D01*
X12224229Y-12395174D02*
X12233753Y-12357079D01*
X12233753Y-12357079D02*
X12243277Y-12338031D01*
X12243277Y-12338031D02*
X12252801Y-12328508D01*
X12252801Y-12328508D02*
X12271848Y-12318984D01*
X12528991Y-12518984D02*
X12414706Y-12518984D01*
X12471848Y-12518984D02*
X12471848Y-12318984D01*
X12471848Y-12318984D02*
X12452801Y-12347555D01*
X12452801Y-12347555D02*
X12433753Y-12366603D01*
X12433753Y-12366603D02*
X12414706Y-12376127D01*
X12719467Y-12518984D02*
X12605182Y-12518984D01*
X12662325Y-12518984D02*
X12662325Y-12318984D01*
X12662325Y-12318984D02*
X12643277Y-12347555D01*
X12643277Y-12347555D02*
X12624229Y-12366603D01*
X12624229Y-12366603D02*
X12605182Y-12376127D01*
X12833753Y-12404698D02*
X12814706Y-12395174D01*
X12814706Y-12395174D02*
X12805182Y-12385650D01*
X12805182Y-12385650D02*
X12795658Y-12366603D01*
X12795658Y-12366603D02*
X12795658Y-12357079D01*
X12795658Y-12357079D02*
X12805182Y-12338031D01*
X12805182Y-12338031D02*
X12814706Y-12328508D01*
X12814706Y-12328508D02*
X12833753Y-12318984D01*
X12833753Y-12318984D02*
X12871848Y-12318984D01*
X12871848Y-12318984D02*
X12890896Y-12328508D01*
X12890896Y-12328508D02*
X12900420Y-12338031D01*
X12900420Y-12338031D02*
X12909944Y-12357079D01*
X12909944Y-12357079D02*
X12909944Y-12366603D01*
X12909944Y-12366603D02*
X12900420Y-12385650D01*
X12900420Y-12385650D02*
X12890896Y-12395174D01*
X12890896Y-12395174D02*
X12871848Y-12404698D01*
X12871848Y-12404698D02*
X12833753Y-12404698D01*
X12833753Y-12404698D02*
X12814706Y-12414222D01*
X12814706Y-12414222D02*
X12805182Y-12423746D01*
X12805182Y-12423746D02*
X12795658Y-12442793D01*
X12795658Y-12442793D02*
X12795658Y-12480888D01*
X12795658Y-12480888D02*
X12805182Y-12499936D01*
X12805182Y-12499936D02*
X12814706Y-12509460D01*
X12814706Y-12509460D02*
X12833753Y-12518984D01*
X12833753Y-12518984D02*
X12871848Y-12518984D01*
X12871848Y-12518984D02*
X12890896Y-12509460D01*
X12890896Y-12509460D02*
X12900420Y-12499936D01*
X12900420Y-12499936D02*
X12909944Y-12480888D01*
X12909944Y-12480888D02*
X12909944Y-12442793D01*
X12909944Y-12442793D02*
X12900420Y-12423746D01*
X12900420Y-12423746D02*
X12890896Y-12414222D01*
X12890896Y-12414222D02*
X12871848Y-12404698D01*
X12986134Y-12318984D02*
X12986134Y-12357079D01*
X13062325Y-12318984D02*
X13062325Y-12357079D01*
X13357563Y-12595174D02*
X13348039Y-12585650D01*
X13348039Y-12585650D02*
X13328991Y-12557079D01*
X13328991Y-12557079D02*
X13319468Y-12538031D01*
X13319468Y-12538031D02*
X13309944Y-12509460D01*
X13309944Y-12509460D02*
X13300420Y-12461841D01*
X13300420Y-12461841D02*
X13300420Y-12423746D01*
X13300420Y-12423746D02*
X13309944Y-12376127D01*
X13309944Y-12376127D02*
X13319468Y-12347555D01*
X13319468Y-12347555D02*
X13328991Y-12328508D01*
X13328991Y-12328508D02*
X13348039Y-12299936D01*
X13348039Y-12299936D02*
X13357563Y-12290412D01*
X13519468Y-12318984D02*
X13481372Y-12318984D01*
X13481372Y-12318984D02*
X13462325Y-12328508D01*
X13462325Y-12328508D02*
X13452801Y-12338031D01*
X13452801Y-12338031D02*
X13433753Y-12366603D01*
X13433753Y-12366603D02*
X13424229Y-12404698D01*
X13424229Y-12404698D02*
X13424229Y-12480888D01*
X13424229Y-12480888D02*
X13433753Y-12499936D01*
X13433753Y-12499936D02*
X13443277Y-12509460D01*
X13443277Y-12509460D02*
X13462325Y-12518984D01*
X13462325Y-12518984D02*
X13500420Y-12518984D01*
X13500420Y-12518984D02*
X13519468Y-12509460D01*
X13519468Y-12509460D02*
X13528991Y-12499936D01*
X13528991Y-12499936D02*
X13538515Y-12480888D01*
X13538515Y-12480888D02*
X13538515Y-12433269D01*
X13538515Y-12433269D02*
X13528991Y-12414222D01*
X13528991Y-12414222D02*
X13519468Y-12404698D01*
X13519468Y-12404698D02*
X13500420Y-12395174D01*
X13500420Y-12395174D02*
X13462325Y-12395174D01*
X13462325Y-12395174D02*
X13443277Y-12404698D01*
X13443277Y-12404698D02*
X13433753Y-12414222D01*
X13433753Y-12414222D02*
X13424229Y-12433269D01*
X13776610Y-12518984D02*
X13776610Y-12318984D01*
X13862325Y-12518984D02*
X13862325Y-12414222D01*
X13862325Y-12414222D02*
X13852801Y-12395174D01*
X13852801Y-12395174D02*
X13833753Y-12385650D01*
X13833753Y-12385650D02*
X13805182Y-12385650D01*
X13805182Y-12385650D02*
X13786134Y-12395174D01*
X13786134Y-12395174D02*
X13776610Y-12404698D01*
X13986134Y-12518984D02*
X13967087Y-12509460D01*
X13967087Y-12509460D02*
X13957563Y-12499936D01*
X13957563Y-12499936D02*
X13948039Y-12480888D01*
X13948039Y-12480888D02*
X13948039Y-12423746D01*
X13948039Y-12423746D02*
X13957563Y-12404698D01*
X13957563Y-12404698D02*
X13967087Y-12395174D01*
X13967087Y-12395174D02*
X13986134Y-12385650D01*
X13986134Y-12385650D02*
X14014706Y-12385650D01*
X14014706Y-12385650D02*
X14033753Y-12395174D01*
X14033753Y-12395174D02*
X14043277Y-12404698D01*
X14043277Y-12404698D02*
X14052801Y-12423746D01*
X14052801Y-12423746D02*
X14052801Y-12480888D01*
X14052801Y-12480888D02*
X14043277Y-12499936D01*
X14043277Y-12499936D02*
X14033753Y-12509460D01*
X14033753Y-12509460D02*
X14014706Y-12518984D01*
X14014706Y-12518984D02*
X13986134Y-12518984D01*
X14167087Y-12518984D02*
X14148039Y-12509460D01*
X14148039Y-12509460D02*
X14138515Y-12490412D01*
X14138515Y-12490412D02*
X14138515Y-12318984D01*
X14319468Y-12509460D02*
X14300420Y-12518984D01*
X14300420Y-12518984D02*
X14262325Y-12518984D01*
X14262325Y-12518984D02*
X14243277Y-12509460D01*
X14243277Y-12509460D02*
X14233753Y-12490412D01*
X14233753Y-12490412D02*
X14233753Y-12414222D01*
X14233753Y-12414222D02*
X14243277Y-12395174D01*
X14243277Y-12395174D02*
X14262325Y-12385650D01*
X14262325Y-12385650D02*
X14300420Y-12385650D01*
X14300420Y-12385650D02*
X14319468Y-12395174D01*
X14319468Y-12395174D02*
X14328991Y-12414222D01*
X14328991Y-12414222D02*
X14328991Y-12433269D01*
X14328991Y-12433269D02*
X14233753Y-12452317D01*
X14405182Y-12509460D02*
X14424230Y-12518984D01*
X14424230Y-12518984D02*
X14462325Y-12518984D01*
X14462325Y-12518984D02*
X14481372Y-12509460D01*
X14481372Y-12509460D02*
X14490896Y-12490412D01*
X14490896Y-12490412D02*
X14490896Y-12480888D01*
X14490896Y-12480888D02*
X14481372Y-12461841D01*
X14481372Y-12461841D02*
X14462325Y-12452317D01*
X14462325Y-12452317D02*
X14433753Y-12452317D01*
X14433753Y-12452317D02*
X14414706Y-12442793D01*
X14414706Y-12442793D02*
X14405182Y-12423746D01*
X14405182Y-12423746D02*
X14405182Y-12414222D01*
X14405182Y-12414222D02*
X14414706Y-12395174D01*
X14414706Y-12395174D02*
X14433753Y-12385650D01*
X14433753Y-12385650D02*
X14462325Y-12385650D01*
X14462325Y-12385650D02*
X14481372Y-12395174D01*
X14557563Y-12595174D02*
X14567087Y-12585650D01*
X14567087Y-12585650D02*
X14586134Y-12557079D01*
X14586134Y-12557079D02*
X14595658Y-12538031D01*
X14595658Y-12538031D02*
X14605182Y-12509460D01*
X14605182Y-12509460D02*
X14614706Y-12461841D01*
X14614706Y-12461841D02*
X14614706Y-12423746D01*
X14614706Y-12423746D02*
X14605182Y-12376127D01*
X14605182Y-12376127D02*
X14595658Y-12347555D01*
X14595658Y-12347555D02*
X14586134Y-12328508D01*
X14586134Y-12328508D02*
X14567087Y-12299936D01*
X14567087Y-12299936D02*
X14557563Y-12290412D01*
D12*
X9782500Y-12691500D02*
G75*
G02*
X9702500Y-12691500I-40000J0D01*
G01*
X9702500Y-12691500D02*
G75*
G02*
X9782500Y-12691500I40000J0D01*
G01*
D11*
X10081372Y-12582984D02*
X10100420Y-12582984D01*
X10100420Y-12582984D02*
X10119467Y-12592508D01*
X10119467Y-12592508D02*
X10128991Y-12602031D01*
X10128991Y-12602031D02*
X10138515Y-12621079D01*
X10138515Y-12621079D02*
X10148039Y-12659174D01*
X10148039Y-12659174D02*
X10148039Y-12706793D01*
X10148039Y-12706793D02*
X10138515Y-12744888D01*
X10138515Y-12744888D02*
X10128991Y-12763936D01*
X10128991Y-12763936D02*
X10119467Y-12773460D01*
X10119467Y-12773460D02*
X10100420Y-12782984D01*
X10100420Y-12782984D02*
X10081372Y-12782984D01*
X10081372Y-12782984D02*
X10062324Y-12773460D01*
X10062324Y-12773460D02*
X10052801Y-12763936D01*
X10052801Y-12763936D02*
X10043277Y-12744888D01*
X10043277Y-12744888D02*
X10033753Y-12706793D01*
X10033753Y-12706793D02*
X10033753Y-12659174D01*
X10033753Y-12659174D02*
X10043277Y-12621079D01*
X10043277Y-12621079D02*
X10052801Y-12602031D01*
X10052801Y-12602031D02*
X10062324Y-12592508D01*
X10062324Y-12592508D02*
X10081372Y-12582984D01*
X10233753Y-12763936D02*
X10243277Y-12773460D01*
X10243277Y-12773460D02*
X10233753Y-12782984D01*
X10233753Y-12782984D02*
X10224229Y-12773460D01*
X10224229Y-12773460D02*
X10233753Y-12763936D01*
X10233753Y-12763936D02*
X10233753Y-12782984D01*
X10357563Y-12668698D02*
X10338515Y-12659174D01*
X10338515Y-12659174D02*
X10328991Y-12649650D01*
X10328991Y-12649650D02*
X10319467Y-12630603D01*
X10319467Y-12630603D02*
X10319467Y-12621079D01*
X10319467Y-12621079D02*
X10328991Y-12602031D01*
X10328991Y-12602031D02*
X10338515Y-12592508D01*
X10338515Y-12592508D02*
X10357563Y-12582984D01*
X10357563Y-12582984D02*
X10395658Y-12582984D01*
X10395658Y-12582984D02*
X10414705Y-12592508D01*
X10414705Y-12592508D02*
X10424229Y-12602031D01*
X10424229Y-12602031D02*
X10433753Y-12621079D01*
X10433753Y-12621079D02*
X10433753Y-12630603D01*
X10433753Y-12630603D02*
X10424229Y-12649650D01*
X10424229Y-12649650D02*
X10414705Y-12659174D01*
X10414705Y-12659174D02*
X10395658Y-12668698D01*
X10395658Y-12668698D02*
X10357563Y-12668698D01*
X10357563Y-12668698D02*
X10338515Y-12678222D01*
X10338515Y-12678222D02*
X10328991Y-12687746D01*
X10328991Y-12687746D02*
X10319467Y-12706793D01*
X10319467Y-12706793D02*
X10319467Y-12744888D01*
X10319467Y-12744888D02*
X10328991Y-12763936D01*
X10328991Y-12763936D02*
X10338515Y-12773460D01*
X10338515Y-12773460D02*
X10357563Y-12782984D01*
X10357563Y-12782984D02*
X10395658Y-12782984D01*
X10395658Y-12782984D02*
X10414705Y-12773460D01*
X10414705Y-12773460D02*
X10424229Y-12763936D01*
X10424229Y-12763936D02*
X10433753Y-12744888D01*
X10433753Y-12744888D02*
X10433753Y-12706793D01*
X10433753Y-12706793D02*
X10424229Y-12687746D01*
X10424229Y-12687746D02*
X10414705Y-12678222D01*
X10414705Y-12678222D02*
X10395658Y-12668698D01*
X10557563Y-12582984D02*
X10576610Y-12582984D01*
X10576610Y-12582984D02*
X10595658Y-12592508D01*
X10595658Y-12592508D02*
X10605182Y-12602031D01*
X10605182Y-12602031D02*
X10614705Y-12621079D01*
X10614705Y-12621079D02*
X10624229Y-12659174D01*
X10624229Y-12659174D02*
X10624229Y-12706793D01*
X10624229Y-12706793D02*
X10614705Y-12744888D01*
X10614705Y-12744888D02*
X10605182Y-12763936D01*
X10605182Y-12763936D02*
X10595658Y-12773460D01*
X10595658Y-12773460D02*
X10576610Y-12782984D01*
X10576610Y-12782984D02*
X10557563Y-12782984D01*
X10557563Y-12782984D02*
X10538515Y-12773460D01*
X10538515Y-12773460D02*
X10528991Y-12763936D01*
X10528991Y-12763936D02*
X10519467Y-12744888D01*
X10519467Y-12744888D02*
X10509944Y-12706793D01*
X10509944Y-12706793D02*
X10509944Y-12659174D01*
X10509944Y-12659174D02*
X10519467Y-12621079D01*
X10519467Y-12621079D02*
X10528991Y-12602031D01*
X10528991Y-12602031D02*
X10538515Y-12592508D01*
X10538515Y-12592508D02*
X10557563Y-12582984D01*
X10748039Y-12582984D02*
X10767086Y-12582984D01*
X10767086Y-12582984D02*
X10786134Y-12592508D01*
X10786134Y-12592508D02*
X10795658Y-12602031D01*
X10795658Y-12602031D02*
X10805182Y-12621079D01*
X10805182Y-12621079D02*
X10814705Y-12659174D01*
X10814705Y-12659174D02*
X10814705Y-12706793D01*
X10814705Y-12706793D02*
X10805182Y-12744888D01*
X10805182Y-12744888D02*
X10795658Y-12763936D01*
X10795658Y-12763936D02*
X10786134Y-12773460D01*
X10786134Y-12773460D02*
X10767086Y-12782984D01*
X10767086Y-12782984D02*
X10748039Y-12782984D01*
X10748039Y-12782984D02*
X10728991Y-12773460D01*
X10728991Y-12773460D02*
X10719467Y-12763936D01*
X10719467Y-12763936D02*
X10709944Y-12744888D01*
X10709944Y-12744888D02*
X10700420Y-12706793D01*
X10700420Y-12706793D02*
X10700420Y-12659174D01*
X10700420Y-12659174D02*
X10709944Y-12621079D01*
X10709944Y-12621079D02*
X10719467Y-12602031D01*
X10719467Y-12602031D02*
X10728991Y-12592508D01*
X10728991Y-12592508D02*
X10748039Y-12582984D01*
X10900420Y-12782984D02*
X10900420Y-12649650D01*
X10900420Y-12668698D02*
X10909944Y-12659174D01*
X10909944Y-12659174D02*
X10928991Y-12649650D01*
X10928991Y-12649650D02*
X10957563Y-12649650D01*
X10957563Y-12649650D02*
X10976610Y-12659174D01*
X10976610Y-12659174D02*
X10986134Y-12678222D01*
X10986134Y-12678222D02*
X10986134Y-12782984D01*
X10986134Y-12678222D02*
X10995658Y-12659174D01*
X10995658Y-12659174D02*
X11014705Y-12649650D01*
X11014705Y-12649650D02*
X11043277Y-12649650D01*
X11043277Y-12649650D02*
X11062325Y-12659174D01*
X11062325Y-12659174D02*
X11071848Y-12678222D01*
X11071848Y-12678222D02*
X11071848Y-12782984D01*
X11167086Y-12782984D02*
X11167086Y-12649650D01*
X11167086Y-12668698D02*
X11176610Y-12659174D01*
X11176610Y-12659174D02*
X11195658Y-12649650D01*
X11195658Y-12649650D02*
X11224229Y-12649650D01*
X11224229Y-12649650D02*
X11243277Y-12659174D01*
X11243277Y-12659174D02*
X11252801Y-12678222D01*
X11252801Y-12678222D02*
X11252801Y-12782984D01*
X11252801Y-12678222D02*
X11262324Y-12659174D01*
X11262324Y-12659174D02*
X11281372Y-12649650D01*
X11281372Y-12649650D02*
X11309943Y-12649650D01*
X11309943Y-12649650D02*
X11328991Y-12659174D01*
X11328991Y-12659174D02*
X11338515Y-12678222D01*
X11338515Y-12678222D02*
X11338515Y-12782984D01*
X11728991Y-12573460D02*
X11557563Y-12830603D01*
X11986134Y-12582984D02*
X12005182Y-12582984D01*
X12005182Y-12582984D02*
X12024229Y-12592508D01*
X12024229Y-12592508D02*
X12033753Y-12602031D01*
X12033753Y-12602031D02*
X12043277Y-12621079D01*
X12043277Y-12621079D02*
X12052801Y-12659174D01*
X12052801Y-12659174D02*
X12052801Y-12706793D01*
X12052801Y-12706793D02*
X12043277Y-12744888D01*
X12043277Y-12744888D02*
X12033753Y-12763936D01*
X12033753Y-12763936D02*
X12024229Y-12773460D01*
X12024229Y-12773460D02*
X12005182Y-12782984D01*
X12005182Y-12782984D02*
X11986134Y-12782984D01*
X11986134Y-12782984D02*
X11967086Y-12773460D01*
X11967086Y-12773460D02*
X11957563Y-12763936D01*
X11957563Y-12763936D02*
X11948039Y-12744888D01*
X11948039Y-12744888D02*
X11938515Y-12706793D01*
X11938515Y-12706793D02*
X11938515Y-12659174D01*
X11938515Y-12659174D02*
X11948039Y-12621079D01*
X11948039Y-12621079D02*
X11957563Y-12602031D01*
X11957563Y-12602031D02*
X11967086Y-12592508D01*
X11967086Y-12592508D02*
X11986134Y-12582984D01*
X12138515Y-12763936D02*
X12148039Y-12773460D01*
X12148039Y-12773460D02*
X12138515Y-12782984D01*
X12138515Y-12782984D02*
X12128991Y-12773460D01*
X12128991Y-12773460D02*
X12138515Y-12763936D01*
X12138515Y-12763936D02*
X12138515Y-12782984D01*
X12271848Y-12582984D02*
X12290896Y-12582984D01*
X12290896Y-12582984D02*
X12309944Y-12592508D01*
X12309944Y-12592508D02*
X12319467Y-12602031D01*
X12319467Y-12602031D02*
X12328991Y-12621079D01*
X12328991Y-12621079D02*
X12338515Y-12659174D01*
X12338515Y-12659174D02*
X12338515Y-12706793D01*
X12338515Y-12706793D02*
X12328991Y-12744888D01*
X12328991Y-12744888D02*
X12319467Y-12763936D01*
X12319467Y-12763936D02*
X12309944Y-12773460D01*
X12309944Y-12773460D02*
X12290896Y-12782984D01*
X12290896Y-12782984D02*
X12271848Y-12782984D01*
X12271848Y-12782984D02*
X12252801Y-12773460D01*
X12252801Y-12773460D02*
X12243277Y-12763936D01*
X12243277Y-12763936D02*
X12233753Y-12744888D01*
X12233753Y-12744888D02*
X12224229Y-12706793D01*
X12224229Y-12706793D02*
X12224229Y-12659174D01*
X12224229Y-12659174D02*
X12233753Y-12621079D01*
X12233753Y-12621079D02*
X12243277Y-12602031D01*
X12243277Y-12602031D02*
X12252801Y-12592508D01*
X12252801Y-12592508D02*
X12271848Y-12582984D01*
X12405182Y-12582984D02*
X12528991Y-12582984D01*
X12528991Y-12582984D02*
X12462325Y-12659174D01*
X12462325Y-12659174D02*
X12490896Y-12659174D01*
X12490896Y-12659174D02*
X12509944Y-12668698D01*
X12509944Y-12668698D02*
X12519467Y-12678222D01*
X12519467Y-12678222D02*
X12528991Y-12697269D01*
X12528991Y-12697269D02*
X12528991Y-12744888D01*
X12528991Y-12744888D02*
X12519467Y-12763936D01*
X12519467Y-12763936D02*
X12509944Y-12773460D01*
X12509944Y-12773460D02*
X12490896Y-12782984D01*
X12490896Y-12782984D02*
X12433753Y-12782984D01*
X12433753Y-12782984D02*
X12414706Y-12773460D01*
X12414706Y-12773460D02*
X12405182Y-12763936D01*
X12719467Y-12782984D02*
X12605182Y-12782984D01*
X12662325Y-12782984D02*
X12662325Y-12582984D01*
X12662325Y-12582984D02*
X12643277Y-12611555D01*
X12643277Y-12611555D02*
X12624229Y-12630603D01*
X12624229Y-12630603D02*
X12605182Y-12640127D01*
X12900420Y-12582984D02*
X12805182Y-12582984D01*
X12805182Y-12582984D02*
X12795658Y-12678222D01*
X12795658Y-12678222D02*
X12805182Y-12668698D01*
X12805182Y-12668698D02*
X12824229Y-12659174D01*
X12824229Y-12659174D02*
X12871848Y-12659174D01*
X12871848Y-12659174D02*
X12890896Y-12668698D01*
X12890896Y-12668698D02*
X12900420Y-12678222D01*
X12900420Y-12678222D02*
X12909944Y-12697269D01*
X12909944Y-12697269D02*
X12909944Y-12744888D01*
X12909944Y-12744888D02*
X12900420Y-12763936D01*
X12900420Y-12763936D02*
X12890896Y-12773460D01*
X12890896Y-12773460D02*
X12871848Y-12782984D01*
X12871848Y-12782984D02*
X12824229Y-12782984D01*
X12824229Y-12782984D02*
X12805182Y-12773460D01*
X12805182Y-12773460D02*
X12795658Y-12763936D01*
X12986134Y-12582984D02*
X12986134Y-12621079D01*
X13062325Y-12582984D02*
X13062325Y-12621079D01*
X13357563Y-12859174D02*
X13348039Y-12849650D01*
X13348039Y-12849650D02*
X13328991Y-12821079D01*
X13328991Y-12821079D02*
X13319468Y-12802031D01*
X13319468Y-12802031D02*
X13309944Y-12773460D01*
X13309944Y-12773460D02*
X13300420Y-12725841D01*
X13300420Y-12725841D02*
X13300420Y-12687746D01*
X13300420Y-12687746D02*
X13309944Y-12640127D01*
X13309944Y-12640127D02*
X13319468Y-12611555D01*
X13319468Y-12611555D02*
X13328991Y-12592508D01*
X13328991Y-12592508D02*
X13348039Y-12563936D01*
X13348039Y-12563936D02*
X13357563Y-12554412D01*
X13424229Y-12602031D02*
X13433753Y-12592508D01*
X13433753Y-12592508D02*
X13452801Y-12582984D01*
X13452801Y-12582984D02*
X13500420Y-12582984D01*
X13500420Y-12582984D02*
X13519468Y-12592508D01*
X13519468Y-12592508D02*
X13528991Y-12602031D01*
X13528991Y-12602031D02*
X13538515Y-12621079D01*
X13538515Y-12621079D02*
X13538515Y-12640127D01*
X13538515Y-12640127D02*
X13528991Y-12668698D01*
X13528991Y-12668698D02*
X13414706Y-12782984D01*
X13414706Y-12782984D02*
X13538515Y-12782984D01*
X13776610Y-12782984D02*
X13776610Y-12582984D01*
X13862325Y-12782984D02*
X13862325Y-12678222D01*
X13862325Y-12678222D02*
X13852801Y-12659174D01*
X13852801Y-12659174D02*
X13833753Y-12649650D01*
X13833753Y-12649650D02*
X13805182Y-12649650D01*
X13805182Y-12649650D02*
X13786134Y-12659174D01*
X13786134Y-12659174D02*
X13776610Y-12668698D01*
X13986134Y-12782984D02*
X13967087Y-12773460D01*
X13967087Y-12773460D02*
X13957563Y-12763936D01*
X13957563Y-12763936D02*
X13948039Y-12744888D01*
X13948039Y-12744888D02*
X13948039Y-12687746D01*
X13948039Y-12687746D02*
X13957563Y-12668698D01*
X13957563Y-12668698D02*
X13967087Y-12659174D01*
X13967087Y-12659174D02*
X13986134Y-12649650D01*
X13986134Y-12649650D02*
X14014706Y-12649650D01*
X14014706Y-12649650D02*
X14033753Y-12659174D01*
X14033753Y-12659174D02*
X14043277Y-12668698D01*
X14043277Y-12668698D02*
X14052801Y-12687746D01*
X14052801Y-12687746D02*
X14052801Y-12744888D01*
X14052801Y-12744888D02*
X14043277Y-12763936D01*
X14043277Y-12763936D02*
X14033753Y-12773460D01*
X14033753Y-12773460D02*
X14014706Y-12782984D01*
X14014706Y-12782984D02*
X13986134Y-12782984D01*
X14167087Y-12782984D02*
X14148039Y-12773460D01*
X14148039Y-12773460D02*
X14138515Y-12754412D01*
X14138515Y-12754412D02*
X14138515Y-12582984D01*
X14319468Y-12773460D02*
X14300420Y-12782984D01*
X14300420Y-12782984D02*
X14262325Y-12782984D01*
X14262325Y-12782984D02*
X14243277Y-12773460D01*
X14243277Y-12773460D02*
X14233753Y-12754412D01*
X14233753Y-12754412D02*
X14233753Y-12678222D01*
X14233753Y-12678222D02*
X14243277Y-12659174D01*
X14243277Y-12659174D02*
X14262325Y-12649650D01*
X14262325Y-12649650D02*
X14300420Y-12649650D01*
X14300420Y-12649650D02*
X14319468Y-12659174D01*
X14319468Y-12659174D02*
X14328991Y-12678222D01*
X14328991Y-12678222D02*
X14328991Y-12697269D01*
X14328991Y-12697269D02*
X14233753Y-12716317D01*
X14405182Y-12773460D02*
X14424230Y-12782984D01*
X14424230Y-12782984D02*
X14462325Y-12782984D01*
X14462325Y-12782984D02*
X14481372Y-12773460D01*
X14481372Y-12773460D02*
X14490896Y-12754412D01*
X14490896Y-12754412D02*
X14490896Y-12744888D01*
X14490896Y-12744888D02*
X14481372Y-12725841D01*
X14481372Y-12725841D02*
X14462325Y-12716317D01*
X14462325Y-12716317D02*
X14433753Y-12716317D01*
X14433753Y-12716317D02*
X14414706Y-12706793D01*
X14414706Y-12706793D02*
X14405182Y-12687746D01*
X14405182Y-12687746D02*
X14405182Y-12678222D01*
X14405182Y-12678222D02*
X14414706Y-12659174D01*
X14414706Y-12659174D02*
X14433753Y-12649650D01*
X14433753Y-12649650D02*
X14462325Y-12649650D01*
X14462325Y-12649650D02*
X14481372Y-12659174D01*
X14557563Y-12859174D02*
X14567087Y-12849650D01*
X14567087Y-12849650D02*
X14586134Y-12821079D01*
X14586134Y-12821079D02*
X14595658Y-12802031D01*
X14595658Y-12802031D02*
X14605182Y-12773460D01*
X14605182Y-12773460D02*
X14614706Y-12725841D01*
X14614706Y-12725841D02*
X14614706Y-12687746D01*
X14614706Y-12687746D02*
X14605182Y-12640127D01*
X14605182Y-12640127D02*
X14595658Y-12611555D01*
X14595658Y-12611555D02*
X14586134Y-12592508D01*
X14586134Y-12592508D02*
X14567087Y-12563936D01*
X14567087Y-12563936D02*
X14557563Y-12554412D01*
D12*
X9737500Y-12910500D02*
X9737500Y-13000500D01*
X9692500Y-12955500D02*
X9782500Y-12955500D01*
D11*
X10081372Y-12846984D02*
X10100420Y-12846984D01*
X10100420Y-12846984D02*
X10119467Y-12856508D01*
X10119467Y-12856508D02*
X10128991Y-12866031D01*
X10128991Y-12866031D02*
X10138515Y-12885079D01*
X10138515Y-12885079D02*
X10148039Y-12923174D01*
X10148039Y-12923174D02*
X10148039Y-12970793D01*
X10148039Y-12970793D02*
X10138515Y-13008888D01*
X10138515Y-13008888D02*
X10128991Y-13027936D01*
X10128991Y-13027936D02*
X10119467Y-13037460D01*
X10119467Y-13037460D02*
X10100420Y-13046984D01*
X10100420Y-13046984D02*
X10081372Y-13046984D01*
X10081372Y-13046984D02*
X10062324Y-13037460D01*
X10062324Y-13037460D02*
X10052801Y-13027936D01*
X10052801Y-13027936D02*
X10043277Y-13008888D01*
X10043277Y-13008888D02*
X10033753Y-12970793D01*
X10033753Y-12970793D02*
X10033753Y-12923174D01*
X10033753Y-12923174D02*
X10043277Y-12885079D01*
X10043277Y-12885079D02*
X10052801Y-12866031D01*
X10052801Y-12866031D02*
X10062324Y-12856508D01*
X10062324Y-12856508D02*
X10081372Y-12846984D01*
X10233753Y-13027936D02*
X10243277Y-13037460D01*
X10243277Y-13037460D02*
X10233753Y-13046984D01*
X10233753Y-13046984D02*
X10224229Y-13037460D01*
X10224229Y-13037460D02*
X10233753Y-13027936D01*
X10233753Y-13027936D02*
X10233753Y-13046984D01*
X10338515Y-13046984D02*
X10376610Y-13046984D01*
X10376610Y-13046984D02*
X10395658Y-13037460D01*
X10395658Y-13037460D02*
X10405182Y-13027936D01*
X10405182Y-13027936D02*
X10424229Y-12999365D01*
X10424229Y-12999365D02*
X10433753Y-12961269D01*
X10433753Y-12961269D02*
X10433753Y-12885079D01*
X10433753Y-12885079D02*
X10424229Y-12866031D01*
X10424229Y-12866031D02*
X10414705Y-12856508D01*
X10414705Y-12856508D02*
X10395658Y-12846984D01*
X10395658Y-12846984D02*
X10357563Y-12846984D01*
X10357563Y-12846984D02*
X10338515Y-12856508D01*
X10338515Y-12856508D02*
X10328991Y-12866031D01*
X10328991Y-12866031D02*
X10319467Y-12885079D01*
X10319467Y-12885079D02*
X10319467Y-12932698D01*
X10319467Y-12932698D02*
X10328991Y-12951746D01*
X10328991Y-12951746D02*
X10338515Y-12961269D01*
X10338515Y-12961269D02*
X10357563Y-12970793D01*
X10357563Y-12970793D02*
X10395658Y-12970793D01*
X10395658Y-12970793D02*
X10414705Y-12961269D01*
X10414705Y-12961269D02*
X10424229Y-12951746D01*
X10424229Y-12951746D02*
X10433753Y-12932698D01*
X10557563Y-12846984D02*
X10576610Y-12846984D01*
X10576610Y-12846984D02*
X10595658Y-12856508D01*
X10595658Y-12856508D02*
X10605182Y-12866031D01*
X10605182Y-12866031D02*
X10614705Y-12885079D01*
X10614705Y-12885079D02*
X10624229Y-12923174D01*
X10624229Y-12923174D02*
X10624229Y-12970793D01*
X10624229Y-12970793D02*
X10614705Y-13008888D01*
X10614705Y-13008888D02*
X10605182Y-13027936D01*
X10605182Y-13027936D02*
X10595658Y-13037460D01*
X10595658Y-13037460D02*
X10576610Y-13046984D01*
X10576610Y-13046984D02*
X10557563Y-13046984D01*
X10557563Y-13046984D02*
X10538515Y-13037460D01*
X10538515Y-13037460D02*
X10528991Y-13027936D01*
X10528991Y-13027936D02*
X10519467Y-13008888D01*
X10519467Y-13008888D02*
X10509944Y-12970793D01*
X10509944Y-12970793D02*
X10509944Y-12923174D01*
X10509944Y-12923174D02*
X10519467Y-12885079D01*
X10519467Y-12885079D02*
X10528991Y-12866031D01*
X10528991Y-12866031D02*
X10538515Y-12856508D01*
X10538515Y-12856508D02*
X10557563Y-12846984D01*
X10748039Y-12846984D02*
X10767086Y-12846984D01*
X10767086Y-12846984D02*
X10786134Y-12856508D01*
X10786134Y-12856508D02*
X10795658Y-12866031D01*
X10795658Y-12866031D02*
X10805182Y-12885079D01*
X10805182Y-12885079D02*
X10814705Y-12923174D01*
X10814705Y-12923174D02*
X10814705Y-12970793D01*
X10814705Y-12970793D02*
X10805182Y-13008888D01*
X10805182Y-13008888D02*
X10795658Y-13027936D01*
X10795658Y-13027936D02*
X10786134Y-13037460D01*
X10786134Y-13037460D02*
X10767086Y-13046984D01*
X10767086Y-13046984D02*
X10748039Y-13046984D01*
X10748039Y-13046984D02*
X10728991Y-13037460D01*
X10728991Y-13037460D02*
X10719467Y-13027936D01*
X10719467Y-13027936D02*
X10709944Y-13008888D01*
X10709944Y-13008888D02*
X10700420Y-12970793D01*
X10700420Y-12970793D02*
X10700420Y-12923174D01*
X10700420Y-12923174D02*
X10709944Y-12885079D01*
X10709944Y-12885079D02*
X10719467Y-12866031D01*
X10719467Y-12866031D02*
X10728991Y-12856508D01*
X10728991Y-12856508D02*
X10748039Y-12846984D01*
X10900420Y-13046984D02*
X10900420Y-12913650D01*
X10900420Y-12932698D02*
X10909944Y-12923174D01*
X10909944Y-12923174D02*
X10928991Y-12913650D01*
X10928991Y-12913650D02*
X10957563Y-12913650D01*
X10957563Y-12913650D02*
X10976610Y-12923174D01*
X10976610Y-12923174D02*
X10986134Y-12942222D01*
X10986134Y-12942222D02*
X10986134Y-13046984D01*
X10986134Y-12942222D02*
X10995658Y-12923174D01*
X10995658Y-12923174D02*
X11014705Y-12913650D01*
X11014705Y-12913650D02*
X11043277Y-12913650D01*
X11043277Y-12913650D02*
X11062325Y-12923174D01*
X11062325Y-12923174D02*
X11071848Y-12942222D01*
X11071848Y-12942222D02*
X11071848Y-13046984D01*
X11167086Y-13046984D02*
X11167086Y-12913650D01*
X11167086Y-12932698D02*
X11176610Y-12923174D01*
X11176610Y-12923174D02*
X11195658Y-12913650D01*
X11195658Y-12913650D02*
X11224229Y-12913650D01*
X11224229Y-12913650D02*
X11243277Y-12923174D01*
X11243277Y-12923174D02*
X11252801Y-12942222D01*
X11252801Y-12942222D02*
X11252801Y-13046984D01*
X11252801Y-12942222D02*
X11262324Y-12923174D01*
X11262324Y-12923174D02*
X11281372Y-12913650D01*
X11281372Y-12913650D02*
X11309943Y-12913650D01*
X11309943Y-12913650D02*
X11328991Y-12923174D01*
X11328991Y-12923174D02*
X11338515Y-12942222D01*
X11338515Y-12942222D02*
X11338515Y-13046984D01*
X11728991Y-12837460D02*
X11557563Y-13094603D01*
X11986134Y-12846984D02*
X12005182Y-12846984D01*
X12005182Y-12846984D02*
X12024229Y-12856508D01*
X12024229Y-12856508D02*
X12033753Y-12866031D01*
X12033753Y-12866031D02*
X12043277Y-12885079D01*
X12043277Y-12885079D02*
X12052801Y-12923174D01*
X12052801Y-12923174D02*
X12052801Y-12970793D01*
X12052801Y-12970793D02*
X12043277Y-13008888D01*
X12043277Y-13008888D02*
X12033753Y-13027936D01*
X12033753Y-13027936D02*
X12024229Y-13037460D01*
X12024229Y-13037460D02*
X12005182Y-13046984D01*
X12005182Y-13046984D02*
X11986134Y-13046984D01*
X11986134Y-13046984D02*
X11967086Y-13037460D01*
X11967086Y-13037460D02*
X11957563Y-13027936D01*
X11957563Y-13027936D02*
X11948039Y-13008888D01*
X11948039Y-13008888D02*
X11938515Y-12970793D01*
X11938515Y-12970793D02*
X11938515Y-12923174D01*
X11938515Y-12923174D02*
X11948039Y-12885079D01*
X11948039Y-12885079D02*
X11957563Y-12866031D01*
X11957563Y-12866031D02*
X11967086Y-12856508D01*
X11967086Y-12856508D02*
X11986134Y-12846984D01*
X12138515Y-13027936D02*
X12148039Y-13037460D01*
X12148039Y-13037460D02*
X12138515Y-13046984D01*
X12138515Y-13046984D02*
X12128991Y-13037460D01*
X12128991Y-13037460D02*
X12138515Y-13027936D01*
X12138515Y-13027936D02*
X12138515Y-13046984D01*
X12271848Y-12846984D02*
X12290896Y-12846984D01*
X12290896Y-12846984D02*
X12309944Y-12856508D01*
X12309944Y-12856508D02*
X12319467Y-12866031D01*
X12319467Y-12866031D02*
X12328991Y-12885079D01*
X12328991Y-12885079D02*
X12338515Y-12923174D01*
X12338515Y-12923174D02*
X12338515Y-12970793D01*
X12338515Y-12970793D02*
X12328991Y-13008888D01*
X12328991Y-13008888D02*
X12319467Y-13027936D01*
X12319467Y-13027936D02*
X12309944Y-13037460D01*
X12309944Y-13037460D02*
X12290896Y-13046984D01*
X12290896Y-13046984D02*
X12271848Y-13046984D01*
X12271848Y-13046984D02*
X12252801Y-13037460D01*
X12252801Y-13037460D02*
X12243277Y-13027936D01*
X12243277Y-13027936D02*
X12233753Y-13008888D01*
X12233753Y-13008888D02*
X12224229Y-12970793D01*
X12224229Y-12970793D02*
X12224229Y-12923174D01*
X12224229Y-12923174D02*
X12233753Y-12885079D01*
X12233753Y-12885079D02*
X12243277Y-12866031D01*
X12243277Y-12866031D02*
X12252801Y-12856508D01*
X12252801Y-12856508D02*
X12271848Y-12846984D01*
X12405182Y-12846984D02*
X12528991Y-12846984D01*
X12528991Y-12846984D02*
X12462325Y-12923174D01*
X12462325Y-12923174D02*
X12490896Y-12923174D01*
X12490896Y-12923174D02*
X12509944Y-12932698D01*
X12509944Y-12932698D02*
X12519467Y-12942222D01*
X12519467Y-12942222D02*
X12528991Y-12961269D01*
X12528991Y-12961269D02*
X12528991Y-13008888D01*
X12528991Y-13008888D02*
X12519467Y-13027936D01*
X12519467Y-13027936D02*
X12509944Y-13037460D01*
X12509944Y-13037460D02*
X12490896Y-13046984D01*
X12490896Y-13046984D02*
X12433753Y-13046984D01*
X12433753Y-13046984D02*
X12414706Y-13037460D01*
X12414706Y-13037460D02*
X12405182Y-13027936D01*
X12709944Y-12846984D02*
X12614706Y-12846984D01*
X12614706Y-12846984D02*
X12605182Y-12942222D01*
X12605182Y-12942222D02*
X12614706Y-12932698D01*
X12614706Y-12932698D02*
X12633753Y-12923174D01*
X12633753Y-12923174D02*
X12681372Y-12923174D01*
X12681372Y-12923174D02*
X12700420Y-12932698D01*
X12700420Y-12932698D02*
X12709944Y-12942222D01*
X12709944Y-12942222D02*
X12719467Y-12961269D01*
X12719467Y-12961269D02*
X12719467Y-13008888D01*
X12719467Y-13008888D02*
X12709944Y-13027936D01*
X12709944Y-13027936D02*
X12700420Y-13037460D01*
X12700420Y-13037460D02*
X12681372Y-13046984D01*
X12681372Y-13046984D02*
X12633753Y-13046984D01*
X12633753Y-13046984D02*
X12614706Y-13037460D01*
X12614706Y-13037460D02*
X12605182Y-13027936D01*
X12890896Y-12913650D02*
X12890896Y-13046984D01*
X12843277Y-12837460D02*
X12795658Y-12980317D01*
X12795658Y-12980317D02*
X12919467Y-12980317D01*
X12986134Y-12846984D02*
X12986134Y-12885079D01*
X13062325Y-12846984D02*
X13062325Y-12885079D01*
X13357563Y-13123174D02*
X13348039Y-13113650D01*
X13348039Y-13113650D02*
X13328991Y-13085079D01*
X13328991Y-13085079D02*
X13319468Y-13066031D01*
X13319468Y-13066031D02*
X13309944Y-13037460D01*
X13309944Y-13037460D02*
X13300420Y-12989841D01*
X13300420Y-12989841D02*
X13300420Y-12951746D01*
X13300420Y-12951746D02*
X13309944Y-12904127D01*
X13309944Y-12904127D02*
X13319468Y-12875555D01*
X13319468Y-12875555D02*
X13328991Y-12856508D01*
X13328991Y-12856508D02*
X13348039Y-12827936D01*
X13348039Y-12827936D02*
X13357563Y-12818412D01*
X13424229Y-12866031D02*
X13433753Y-12856508D01*
X13433753Y-12856508D02*
X13452801Y-12846984D01*
X13452801Y-12846984D02*
X13500420Y-12846984D01*
X13500420Y-12846984D02*
X13519468Y-12856508D01*
X13519468Y-12856508D02*
X13528991Y-12866031D01*
X13528991Y-12866031D02*
X13538515Y-12885079D01*
X13538515Y-12885079D02*
X13538515Y-12904127D01*
X13538515Y-12904127D02*
X13528991Y-12932698D01*
X13528991Y-12932698D02*
X13414706Y-13046984D01*
X13414706Y-13046984D02*
X13538515Y-13046984D01*
X13776610Y-13046984D02*
X13776610Y-12846984D01*
X13862325Y-13046984D02*
X13862325Y-12942222D01*
X13862325Y-12942222D02*
X13852801Y-12923174D01*
X13852801Y-12923174D02*
X13833753Y-12913650D01*
X13833753Y-12913650D02*
X13805182Y-12913650D01*
X13805182Y-12913650D02*
X13786134Y-12923174D01*
X13786134Y-12923174D02*
X13776610Y-12932698D01*
X13986134Y-13046984D02*
X13967087Y-13037460D01*
X13967087Y-13037460D02*
X13957563Y-13027936D01*
X13957563Y-13027936D02*
X13948039Y-13008888D01*
X13948039Y-13008888D02*
X13948039Y-12951746D01*
X13948039Y-12951746D02*
X13957563Y-12932698D01*
X13957563Y-12932698D02*
X13967087Y-12923174D01*
X13967087Y-12923174D02*
X13986134Y-12913650D01*
X13986134Y-12913650D02*
X14014706Y-12913650D01*
X14014706Y-12913650D02*
X14033753Y-12923174D01*
X14033753Y-12923174D02*
X14043277Y-12932698D01*
X14043277Y-12932698D02*
X14052801Y-12951746D01*
X14052801Y-12951746D02*
X14052801Y-13008888D01*
X14052801Y-13008888D02*
X14043277Y-13027936D01*
X14043277Y-13027936D02*
X14033753Y-13037460D01*
X14033753Y-13037460D02*
X14014706Y-13046984D01*
X14014706Y-13046984D02*
X13986134Y-13046984D01*
X14167087Y-13046984D02*
X14148039Y-13037460D01*
X14148039Y-13037460D02*
X14138515Y-13018412D01*
X14138515Y-13018412D02*
X14138515Y-12846984D01*
X14319468Y-13037460D02*
X14300420Y-13046984D01*
X14300420Y-13046984D02*
X14262325Y-13046984D01*
X14262325Y-13046984D02*
X14243277Y-13037460D01*
X14243277Y-13037460D02*
X14233753Y-13018412D01*
X14233753Y-13018412D02*
X14233753Y-12942222D01*
X14233753Y-12942222D02*
X14243277Y-12923174D01*
X14243277Y-12923174D02*
X14262325Y-12913650D01*
X14262325Y-12913650D02*
X14300420Y-12913650D01*
X14300420Y-12913650D02*
X14319468Y-12923174D01*
X14319468Y-12923174D02*
X14328991Y-12942222D01*
X14328991Y-12942222D02*
X14328991Y-12961269D01*
X14328991Y-12961269D02*
X14233753Y-12980317D01*
X14405182Y-13037460D02*
X14424230Y-13046984D01*
X14424230Y-13046984D02*
X14462325Y-13046984D01*
X14462325Y-13046984D02*
X14481372Y-13037460D01*
X14481372Y-13037460D02*
X14490896Y-13018412D01*
X14490896Y-13018412D02*
X14490896Y-13008888D01*
X14490896Y-13008888D02*
X14481372Y-12989841D01*
X14481372Y-12989841D02*
X14462325Y-12980317D01*
X14462325Y-12980317D02*
X14433753Y-12980317D01*
X14433753Y-12980317D02*
X14414706Y-12970793D01*
X14414706Y-12970793D02*
X14405182Y-12951746D01*
X14405182Y-12951746D02*
X14405182Y-12942222D01*
X14405182Y-12942222D02*
X14414706Y-12923174D01*
X14414706Y-12923174D02*
X14433753Y-12913650D01*
X14433753Y-12913650D02*
X14462325Y-12913650D01*
X14462325Y-12913650D02*
X14481372Y-12923174D01*
X14557563Y-13123174D02*
X14567087Y-13113650D01*
X14567087Y-13113650D02*
X14586134Y-13085079D01*
X14586134Y-13085079D02*
X14595658Y-13066031D01*
X14595658Y-13066031D02*
X14605182Y-13037460D01*
X14605182Y-13037460D02*
X14614706Y-12989841D01*
X14614706Y-12989841D02*
X14614706Y-12951746D01*
X14614706Y-12951746D02*
X14605182Y-12904127D01*
X14605182Y-12904127D02*
X14595658Y-12875555D01*
X14595658Y-12875555D02*
X14586134Y-12856508D01*
X14586134Y-12856508D02*
X14567087Y-12827936D01*
X14567087Y-12827936D02*
X14557563Y-12818412D01*
D12*
X9767856Y-13254856D02*
X9767856Y-13184144D01*
X9697144Y-13184144D01*
X9697144Y-13254856D01*
X9767856Y-13254856D01*
D11*
X10148039Y-13310984D02*
X10033753Y-13310984D01*
X10090896Y-13310984D02*
X10090896Y-13110984D01*
X10090896Y-13110984D02*
X10071848Y-13139555D01*
X10071848Y-13139555D02*
X10052801Y-13158603D01*
X10052801Y-13158603D02*
X10033753Y-13168127D01*
X10233753Y-13291936D02*
X10243277Y-13301460D01*
X10243277Y-13301460D02*
X10233753Y-13310984D01*
X10233753Y-13310984D02*
X10224229Y-13301460D01*
X10224229Y-13301460D02*
X10233753Y-13291936D01*
X10233753Y-13291936D02*
X10233753Y-13310984D01*
X10367086Y-13110984D02*
X10386134Y-13110984D01*
X10386134Y-13110984D02*
X10405182Y-13120508D01*
X10405182Y-13120508D02*
X10414705Y-13130031D01*
X10414705Y-13130031D02*
X10424229Y-13149079D01*
X10424229Y-13149079D02*
X10433753Y-13187174D01*
X10433753Y-13187174D02*
X10433753Y-13234793D01*
X10433753Y-13234793D02*
X10424229Y-13272888D01*
X10424229Y-13272888D02*
X10414705Y-13291936D01*
X10414705Y-13291936D02*
X10405182Y-13301460D01*
X10405182Y-13301460D02*
X10386134Y-13310984D01*
X10386134Y-13310984D02*
X10367086Y-13310984D01*
X10367086Y-13310984D02*
X10348039Y-13301460D01*
X10348039Y-13301460D02*
X10338515Y-13291936D01*
X10338515Y-13291936D02*
X10328991Y-13272888D01*
X10328991Y-13272888D02*
X10319467Y-13234793D01*
X10319467Y-13234793D02*
X10319467Y-13187174D01*
X10319467Y-13187174D02*
X10328991Y-13149079D01*
X10328991Y-13149079D02*
X10338515Y-13130031D01*
X10338515Y-13130031D02*
X10348039Y-13120508D01*
X10348039Y-13120508D02*
X10367086Y-13110984D01*
X10557563Y-13110984D02*
X10576610Y-13110984D01*
X10576610Y-13110984D02*
X10595658Y-13120508D01*
X10595658Y-13120508D02*
X10605182Y-13130031D01*
X10605182Y-13130031D02*
X10614705Y-13149079D01*
X10614705Y-13149079D02*
X10624229Y-13187174D01*
X10624229Y-13187174D02*
X10624229Y-13234793D01*
X10624229Y-13234793D02*
X10614705Y-13272888D01*
X10614705Y-13272888D02*
X10605182Y-13291936D01*
X10605182Y-13291936D02*
X10595658Y-13301460D01*
X10595658Y-13301460D02*
X10576610Y-13310984D01*
X10576610Y-13310984D02*
X10557563Y-13310984D01*
X10557563Y-13310984D02*
X10538515Y-13301460D01*
X10538515Y-13301460D02*
X10528991Y-13291936D01*
X10528991Y-13291936D02*
X10519467Y-13272888D01*
X10519467Y-13272888D02*
X10509944Y-13234793D01*
X10509944Y-13234793D02*
X10509944Y-13187174D01*
X10509944Y-13187174D02*
X10519467Y-13149079D01*
X10519467Y-13149079D02*
X10528991Y-13130031D01*
X10528991Y-13130031D02*
X10538515Y-13120508D01*
X10538515Y-13120508D02*
X10557563Y-13110984D01*
X10748039Y-13110984D02*
X10767086Y-13110984D01*
X10767086Y-13110984D02*
X10786134Y-13120508D01*
X10786134Y-13120508D02*
X10795658Y-13130031D01*
X10795658Y-13130031D02*
X10805182Y-13149079D01*
X10805182Y-13149079D02*
X10814705Y-13187174D01*
X10814705Y-13187174D02*
X10814705Y-13234793D01*
X10814705Y-13234793D02*
X10805182Y-13272888D01*
X10805182Y-13272888D02*
X10795658Y-13291936D01*
X10795658Y-13291936D02*
X10786134Y-13301460D01*
X10786134Y-13301460D02*
X10767086Y-13310984D01*
X10767086Y-13310984D02*
X10748039Y-13310984D01*
X10748039Y-13310984D02*
X10728991Y-13301460D01*
X10728991Y-13301460D02*
X10719467Y-13291936D01*
X10719467Y-13291936D02*
X10709944Y-13272888D01*
X10709944Y-13272888D02*
X10700420Y-13234793D01*
X10700420Y-13234793D02*
X10700420Y-13187174D01*
X10700420Y-13187174D02*
X10709944Y-13149079D01*
X10709944Y-13149079D02*
X10719467Y-13130031D01*
X10719467Y-13130031D02*
X10728991Y-13120508D01*
X10728991Y-13120508D02*
X10748039Y-13110984D01*
X10900420Y-13310984D02*
X10900420Y-13177650D01*
X10900420Y-13196698D02*
X10909944Y-13187174D01*
X10909944Y-13187174D02*
X10928991Y-13177650D01*
X10928991Y-13177650D02*
X10957563Y-13177650D01*
X10957563Y-13177650D02*
X10976610Y-13187174D01*
X10976610Y-13187174D02*
X10986134Y-13206222D01*
X10986134Y-13206222D02*
X10986134Y-13310984D01*
X10986134Y-13206222D02*
X10995658Y-13187174D01*
X10995658Y-13187174D02*
X11014705Y-13177650D01*
X11014705Y-13177650D02*
X11043277Y-13177650D01*
X11043277Y-13177650D02*
X11062325Y-13187174D01*
X11062325Y-13187174D02*
X11071848Y-13206222D01*
X11071848Y-13206222D02*
X11071848Y-13310984D01*
X11167086Y-13310984D02*
X11167086Y-13177650D01*
X11167086Y-13196698D02*
X11176610Y-13187174D01*
X11176610Y-13187174D02*
X11195658Y-13177650D01*
X11195658Y-13177650D02*
X11224229Y-13177650D01*
X11224229Y-13177650D02*
X11243277Y-13187174D01*
X11243277Y-13187174D02*
X11252801Y-13206222D01*
X11252801Y-13206222D02*
X11252801Y-13310984D01*
X11252801Y-13206222D02*
X11262324Y-13187174D01*
X11262324Y-13187174D02*
X11281372Y-13177650D01*
X11281372Y-13177650D02*
X11309943Y-13177650D01*
X11309943Y-13177650D02*
X11328991Y-13187174D01*
X11328991Y-13187174D02*
X11338515Y-13206222D01*
X11338515Y-13206222D02*
X11338515Y-13310984D01*
X11728991Y-13101460D02*
X11557563Y-13358603D01*
X11986134Y-13110984D02*
X12005182Y-13110984D01*
X12005182Y-13110984D02*
X12024229Y-13120508D01*
X12024229Y-13120508D02*
X12033753Y-13130031D01*
X12033753Y-13130031D02*
X12043277Y-13149079D01*
X12043277Y-13149079D02*
X12052801Y-13187174D01*
X12052801Y-13187174D02*
X12052801Y-13234793D01*
X12052801Y-13234793D02*
X12043277Y-13272888D01*
X12043277Y-13272888D02*
X12033753Y-13291936D01*
X12033753Y-13291936D02*
X12024229Y-13301460D01*
X12024229Y-13301460D02*
X12005182Y-13310984D01*
X12005182Y-13310984D02*
X11986134Y-13310984D01*
X11986134Y-13310984D02*
X11967086Y-13301460D01*
X11967086Y-13301460D02*
X11957563Y-13291936D01*
X11957563Y-13291936D02*
X11948039Y-13272888D01*
X11948039Y-13272888D02*
X11938515Y-13234793D01*
X11938515Y-13234793D02*
X11938515Y-13187174D01*
X11938515Y-13187174D02*
X11948039Y-13149079D01*
X11948039Y-13149079D02*
X11957563Y-13130031D01*
X11957563Y-13130031D02*
X11967086Y-13120508D01*
X11967086Y-13120508D02*
X11986134Y-13110984D01*
X12138515Y-13291936D02*
X12148039Y-13301460D01*
X12148039Y-13301460D02*
X12138515Y-13310984D01*
X12138515Y-13310984D02*
X12128991Y-13301460D01*
X12128991Y-13301460D02*
X12138515Y-13291936D01*
X12138515Y-13291936D02*
X12138515Y-13310984D01*
X12271848Y-13110984D02*
X12290896Y-13110984D01*
X12290896Y-13110984D02*
X12309944Y-13120508D01*
X12309944Y-13120508D02*
X12319467Y-13130031D01*
X12319467Y-13130031D02*
X12328991Y-13149079D01*
X12328991Y-13149079D02*
X12338515Y-13187174D01*
X12338515Y-13187174D02*
X12338515Y-13234793D01*
X12338515Y-13234793D02*
X12328991Y-13272888D01*
X12328991Y-13272888D02*
X12319467Y-13291936D01*
X12319467Y-13291936D02*
X12309944Y-13301460D01*
X12309944Y-13301460D02*
X12290896Y-13310984D01*
X12290896Y-13310984D02*
X12271848Y-13310984D01*
X12271848Y-13310984D02*
X12252801Y-13301460D01*
X12252801Y-13301460D02*
X12243277Y-13291936D01*
X12243277Y-13291936D02*
X12233753Y-13272888D01*
X12233753Y-13272888D02*
X12224229Y-13234793D01*
X12224229Y-13234793D02*
X12224229Y-13187174D01*
X12224229Y-13187174D02*
X12233753Y-13149079D01*
X12233753Y-13149079D02*
X12243277Y-13130031D01*
X12243277Y-13130031D02*
X12252801Y-13120508D01*
X12252801Y-13120508D02*
X12271848Y-13110984D01*
X12405182Y-13110984D02*
X12528991Y-13110984D01*
X12528991Y-13110984D02*
X12462325Y-13187174D01*
X12462325Y-13187174D02*
X12490896Y-13187174D01*
X12490896Y-13187174D02*
X12509944Y-13196698D01*
X12509944Y-13196698D02*
X12519467Y-13206222D01*
X12519467Y-13206222D02*
X12528991Y-13225269D01*
X12528991Y-13225269D02*
X12528991Y-13272888D01*
X12528991Y-13272888D02*
X12519467Y-13291936D01*
X12519467Y-13291936D02*
X12509944Y-13301460D01*
X12509944Y-13301460D02*
X12490896Y-13310984D01*
X12490896Y-13310984D02*
X12433753Y-13310984D01*
X12433753Y-13310984D02*
X12414706Y-13301460D01*
X12414706Y-13301460D02*
X12405182Y-13291936D01*
X12624229Y-13310984D02*
X12662325Y-13310984D01*
X12662325Y-13310984D02*
X12681372Y-13301460D01*
X12681372Y-13301460D02*
X12690896Y-13291936D01*
X12690896Y-13291936D02*
X12709944Y-13263365D01*
X12709944Y-13263365D02*
X12719467Y-13225269D01*
X12719467Y-13225269D02*
X12719467Y-13149079D01*
X12719467Y-13149079D02*
X12709944Y-13130031D01*
X12709944Y-13130031D02*
X12700420Y-13120508D01*
X12700420Y-13120508D02*
X12681372Y-13110984D01*
X12681372Y-13110984D02*
X12643277Y-13110984D01*
X12643277Y-13110984D02*
X12624229Y-13120508D01*
X12624229Y-13120508D02*
X12614706Y-13130031D01*
X12614706Y-13130031D02*
X12605182Y-13149079D01*
X12605182Y-13149079D02*
X12605182Y-13196698D01*
X12605182Y-13196698D02*
X12614706Y-13215746D01*
X12614706Y-13215746D02*
X12624229Y-13225269D01*
X12624229Y-13225269D02*
X12643277Y-13234793D01*
X12643277Y-13234793D02*
X12681372Y-13234793D01*
X12681372Y-13234793D02*
X12700420Y-13225269D01*
X12700420Y-13225269D02*
X12709944Y-13215746D01*
X12709944Y-13215746D02*
X12719467Y-13196698D01*
X12890896Y-13177650D02*
X12890896Y-13310984D01*
X12843277Y-13101460D02*
X12795658Y-13244317D01*
X12795658Y-13244317D02*
X12919467Y-13244317D01*
X12986134Y-13110984D02*
X12986134Y-13149079D01*
X13062325Y-13110984D02*
X13062325Y-13149079D01*
X13357563Y-13387174D02*
X13348039Y-13377650D01*
X13348039Y-13377650D02*
X13328991Y-13349079D01*
X13328991Y-13349079D02*
X13319468Y-13330031D01*
X13319468Y-13330031D02*
X13309944Y-13301460D01*
X13309944Y-13301460D02*
X13300420Y-13253841D01*
X13300420Y-13253841D02*
X13300420Y-13215746D01*
X13300420Y-13215746D02*
X13309944Y-13168127D01*
X13309944Y-13168127D02*
X13319468Y-13139555D01*
X13319468Y-13139555D02*
X13328991Y-13120508D01*
X13328991Y-13120508D02*
X13348039Y-13091936D01*
X13348039Y-13091936D02*
X13357563Y-13082412D01*
X13414706Y-13110984D02*
X13538515Y-13110984D01*
X13538515Y-13110984D02*
X13471848Y-13187174D01*
X13471848Y-13187174D02*
X13500420Y-13187174D01*
X13500420Y-13187174D02*
X13519468Y-13196698D01*
X13519468Y-13196698D02*
X13528991Y-13206222D01*
X13528991Y-13206222D02*
X13538515Y-13225269D01*
X13538515Y-13225269D02*
X13538515Y-13272888D01*
X13538515Y-13272888D02*
X13528991Y-13291936D01*
X13528991Y-13291936D02*
X13519468Y-13301460D01*
X13519468Y-13301460D02*
X13500420Y-13310984D01*
X13500420Y-13310984D02*
X13443277Y-13310984D01*
X13443277Y-13310984D02*
X13424229Y-13301460D01*
X13424229Y-13301460D02*
X13414706Y-13291936D01*
X13633753Y-13310984D02*
X13671848Y-13310984D01*
X13671848Y-13310984D02*
X13690896Y-13301460D01*
X13690896Y-13301460D02*
X13700420Y-13291936D01*
X13700420Y-13291936D02*
X13719468Y-13263365D01*
X13719468Y-13263365D02*
X13728991Y-13225269D01*
X13728991Y-13225269D02*
X13728991Y-13149079D01*
X13728991Y-13149079D02*
X13719468Y-13130031D01*
X13719468Y-13130031D02*
X13709944Y-13120508D01*
X13709944Y-13120508D02*
X13690896Y-13110984D01*
X13690896Y-13110984D02*
X13652801Y-13110984D01*
X13652801Y-13110984D02*
X13633753Y-13120508D01*
X13633753Y-13120508D02*
X13624229Y-13130031D01*
X13624229Y-13130031D02*
X13614706Y-13149079D01*
X13614706Y-13149079D02*
X13614706Y-13196698D01*
X13614706Y-13196698D02*
X13624229Y-13215746D01*
X13624229Y-13215746D02*
X13633753Y-13225269D01*
X13633753Y-13225269D02*
X13652801Y-13234793D01*
X13652801Y-13234793D02*
X13690896Y-13234793D01*
X13690896Y-13234793D02*
X13709944Y-13225269D01*
X13709944Y-13225269D02*
X13719468Y-13215746D01*
X13719468Y-13215746D02*
X13728991Y-13196698D01*
X13967087Y-13310984D02*
X13967087Y-13110984D01*
X14052801Y-13310984D02*
X14052801Y-13206222D01*
X14052801Y-13206222D02*
X14043277Y-13187174D01*
X14043277Y-13187174D02*
X14024230Y-13177650D01*
X14024230Y-13177650D02*
X13995658Y-13177650D01*
X13995658Y-13177650D02*
X13976610Y-13187174D01*
X13976610Y-13187174D02*
X13967087Y-13196698D01*
X14176610Y-13310984D02*
X14157563Y-13301460D01*
X14157563Y-13301460D02*
X14148039Y-13291936D01*
X14148039Y-13291936D02*
X14138515Y-13272888D01*
X14138515Y-13272888D02*
X14138515Y-13215746D01*
X14138515Y-13215746D02*
X14148039Y-13196698D01*
X14148039Y-13196698D02*
X14157563Y-13187174D01*
X14157563Y-13187174D02*
X14176610Y-13177650D01*
X14176610Y-13177650D02*
X14205182Y-13177650D01*
X14205182Y-13177650D02*
X14224230Y-13187174D01*
X14224230Y-13187174D02*
X14233753Y-13196698D01*
X14233753Y-13196698D02*
X14243277Y-13215746D01*
X14243277Y-13215746D02*
X14243277Y-13272888D01*
X14243277Y-13272888D02*
X14233753Y-13291936D01*
X14233753Y-13291936D02*
X14224230Y-13301460D01*
X14224230Y-13301460D02*
X14205182Y-13310984D01*
X14205182Y-13310984D02*
X14176610Y-13310984D01*
X14357563Y-13310984D02*
X14338515Y-13301460D01*
X14338515Y-13301460D02*
X14328991Y-13282412D01*
X14328991Y-13282412D02*
X14328991Y-13110984D01*
X14509944Y-13301460D02*
X14490896Y-13310984D01*
X14490896Y-13310984D02*
X14452801Y-13310984D01*
X14452801Y-13310984D02*
X14433753Y-13301460D01*
X14433753Y-13301460D02*
X14424230Y-13282412D01*
X14424230Y-13282412D02*
X14424230Y-13206222D01*
X14424230Y-13206222D02*
X14433753Y-13187174D01*
X14433753Y-13187174D02*
X14452801Y-13177650D01*
X14452801Y-13177650D02*
X14490896Y-13177650D01*
X14490896Y-13177650D02*
X14509944Y-13187174D01*
X14509944Y-13187174D02*
X14519468Y-13206222D01*
X14519468Y-13206222D02*
X14519468Y-13225269D01*
X14519468Y-13225269D02*
X14424230Y-13244317D01*
X14595658Y-13301460D02*
X14614706Y-13310984D01*
X14614706Y-13310984D02*
X14652801Y-13310984D01*
X14652801Y-13310984D02*
X14671849Y-13301460D01*
X14671849Y-13301460D02*
X14681372Y-13282412D01*
X14681372Y-13282412D02*
X14681372Y-13272888D01*
X14681372Y-13272888D02*
X14671849Y-13253841D01*
X14671849Y-13253841D02*
X14652801Y-13244317D01*
X14652801Y-13244317D02*
X14624230Y-13244317D01*
X14624230Y-13244317D02*
X14605182Y-13234793D01*
X14605182Y-13234793D02*
X14595658Y-13215746D01*
X14595658Y-13215746D02*
X14595658Y-13206222D01*
X14595658Y-13206222D02*
X14605182Y-13187174D01*
X14605182Y-13187174D02*
X14624230Y-13177650D01*
X14624230Y-13177650D02*
X14652801Y-13177650D01*
X14652801Y-13177650D02*
X14671849Y-13187174D01*
X14748039Y-13387174D02*
X14757563Y-13377650D01*
X14757563Y-13377650D02*
X14776611Y-13349079D01*
X14776611Y-13349079D02*
X14786134Y-13330031D01*
X14786134Y-13330031D02*
X14795658Y-13301460D01*
X14795658Y-13301460D02*
X14805182Y-13253841D01*
X14805182Y-13253841D02*
X14805182Y-13215746D01*
X14805182Y-13215746D02*
X14795658Y-13168127D01*
X14795658Y-13168127D02*
X14786134Y-13139555D01*
X14786134Y-13139555D02*
X14776611Y-13120508D01*
X14776611Y-13120508D02*
X14757563Y-13091936D01*
X14757563Y-13091936D02*
X14748039Y-13082412D01*
D13*
X9727500Y-13538500D02*
X9782500Y-13483500D01*
X9727500Y-13428500D01*
X9672500Y-13483500D01*
X9727500Y-13538500D01*
D11*
X10148039Y-13574984D02*
X10033753Y-13574984D01*
X10090896Y-13574984D02*
X10090896Y-13374984D01*
X10090896Y-13374984D02*
X10071848Y-13403555D01*
X10071848Y-13403555D02*
X10052801Y-13422603D01*
X10052801Y-13422603D02*
X10033753Y-13432127D01*
X10233753Y-13555936D02*
X10243277Y-13565460D01*
X10243277Y-13565460D02*
X10233753Y-13574984D01*
X10233753Y-13574984D02*
X10224229Y-13565460D01*
X10224229Y-13565460D02*
X10233753Y-13555936D01*
X10233753Y-13555936D02*
X10233753Y-13574984D01*
X10433753Y-13574984D02*
X10319467Y-13574984D01*
X10376610Y-13574984D02*
X10376610Y-13374984D01*
X10376610Y-13374984D02*
X10357563Y-13403555D01*
X10357563Y-13403555D02*
X10338515Y-13422603D01*
X10338515Y-13422603D02*
X10319467Y-13432127D01*
X10557563Y-13374984D02*
X10576610Y-13374984D01*
X10576610Y-13374984D02*
X10595658Y-13384508D01*
X10595658Y-13384508D02*
X10605182Y-13394031D01*
X10605182Y-13394031D02*
X10614705Y-13413079D01*
X10614705Y-13413079D02*
X10624229Y-13451174D01*
X10624229Y-13451174D02*
X10624229Y-13498793D01*
X10624229Y-13498793D02*
X10614705Y-13536888D01*
X10614705Y-13536888D02*
X10605182Y-13555936D01*
X10605182Y-13555936D02*
X10595658Y-13565460D01*
X10595658Y-13565460D02*
X10576610Y-13574984D01*
X10576610Y-13574984D02*
X10557563Y-13574984D01*
X10557563Y-13574984D02*
X10538515Y-13565460D01*
X10538515Y-13565460D02*
X10528991Y-13555936D01*
X10528991Y-13555936D02*
X10519467Y-13536888D01*
X10519467Y-13536888D02*
X10509944Y-13498793D01*
X10509944Y-13498793D02*
X10509944Y-13451174D01*
X10509944Y-13451174D02*
X10519467Y-13413079D01*
X10519467Y-13413079D02*
X10528991Y-13394031D01*
X10528991Y-13394031D02*
X10538515Y-13384508D01*
X10538515Y-13384508D02*
X10557563Y-13374984D01*
X10748039Y-13374984D02*
X10767086Y-13374984D01*
X10767086Y-13374984D02*
X10786134Y-13384508D01*
X10786134Y-13384508D02*
X10795658Y-13394031D01*
X10795658Y-13394031D02*
X10805182Y-13413079D01*
X10805182Y-13413079D02*
X10814705Y-13451174D01*
X10814705Y-13451174D02*
X10814705Y-13498793D01*
X10814705Y-13498793D02*
X10805182Y-13536888D01*
X10805182Y-13536888D02*
X10795658Y-13555936D01*
X10795658Y-13555936D02*
X10786134Y-13565460D01*
X10786134Y-13565460D02*
X10767086Y-13574984D01*
X10767086Y-13574984D02*
X10748039Y-13574984D01*
X10748039Y-13574984D02*
X10728991Y-13565460D01*
X10728991Y-13565460D02*
X10719467Y-13555936D01*
X10719467Y-13555936D02*
X10709944Y-13536888D01*
X10709944Y-13536888D02*
X10700420Y-13498793D01*
X10700420Y-13498793D02*
X10700420Y-13451174D01*
X10700420Y-13451174D02*
X10709944Y-13413079D01*
X10709944Y-13413079D02*
X10719467Y-13394031D01*
X10719467Y-13394031D02*
X10728991Y-13384508D01*
X10728991Y-13384508D02*
X10748039Y-13374984D01*
X10900420Y-13574984D02*
X10900420Y-13441650D01*
X10900420Y-13460698D02*
X10909944Y-13451174D01*
X10909944Y-13451174D02*
X10928991Y-13441650D01*
X10928991Y-13441650D02*
X10957563Y-13441650D01*
X10957563Y-13441650D02*
X10976610Y-13451174D01*
X10976610Y-13451174D02*
X10986134Y-13470222D01*
X10986134Y-13470222D02*
X10986134Y-13574984D01*
X10986134Y-13470222D02*
X10995658Y-13451174D01*
X10995658Y-13451174D02*
X11014705Y-13441650D01*
X11014705Y-13441650D02*
X11043277Y-13441650D01*
X11043277Y-13441650D02*
X11062325Y-13451174D01*
X11062325Y-13451174D02*
X11071848Y-13470222D01*
X11071848Y-13470222D02*
X11071848Y-13574984D01*
X11167086Y-13574984D02*
X11167086Y-13441650D01*
X11167086Y-13460698D02*
X11176610Y-13451174D01*
X11176610Y-13451174D02*
X11195658Y-13441650D01*
X11195658Y-13441650D02*
X11224229Y-13441650D01*
X11224229Y-13441650D02*
X11243277Y-13451174D01*
X11243277Y-13451174D02*
X11252801Y-13470222D01*
X11252801Y-13470222D02*
X11252801Y-13574984D01*
X11252801Y-13470222D02*
X11262324Y-13451174D01*
X11262324Y-13451174D02*
X11281372Y-13441650D01*
X11281372Y-13441650D02*
X11309943Y-13441650D01*
X11309943Y-13441650D02*
X11328991Y-13451174D01*
X11328991Y-13451174D02*
X11338515Y-13470222D01*
X11338515Y-13470222D02*
X11338515Y-13574984D01*
X11728991Y-13365460D02*
X11557563Y-13622603D01*
X11986134Y-13374984D02*
X12005182Y-13374984D01*
X12005182Y-13374984D02*
X12024229Y-13384508D01*
X12024229Y-13384508D02*
X12033753Y-13394031D01*
X12033753Y-13394031D02*
X12043277Y-13413079D01*
X12043277Y-13413079D02*
X12052801Y-13451174D01*
X12052801Y-13451174D02*
X12052801Y-13498793D01*
X12052801Y-13498793D02*
X12043277Y-13536888D01*
X12043277Y-13536888D02*
X12033753Y-13555936D01*
X12033753Y-13555936D02*
X12024229Y-13565460D01*
X12024229Y-13565460D02*
X12005182Y-13574984D01*
X12005182Y-13574984D02*
X11986134Y-13574984D01*
X11986134Y-13574984D02*
X11967086Y-13565460D01*
X11967086Y-13565460D02*
X11957563Y-13555936D01*
X11957563Y-13555936D02*
X11948039Y-13536888D01*
X11948039Y-13536888D02*
X11938515Y-13498793D01*
X11938515Y-13498793D02*
X11938515Y-13451174D01*
X11938515Y-13451174D02*
X11948039Y-13413079D01*
X11948039Y-13413079D02*
X11957563Y-13394031D01*
X11957563Y-13394031D02*
X11967086Y-13384508D01*
X11967086Y-13384508D02*
X11986134Y-13374984D01*
X12138515Y-13555936D02*
X12148039Y-13565460D01*
X12148039Y-13565460D02*
X12138515Y-13574984D01*
X12138515Y-13574984D02*
X12128991Y-13565460D01*
X12128991Y-13565460D02*
X12138515Y-13555936D01*
X12138515Y-13555936D02*
X12138515Y-13574984D01*
X12271848Y-13374984D02*
X12290896Y-13374984D01*
X12290896Y-13374984D02*
X12309944Y-13384508D01*
X12309944Y-13384508D02*
X12319467Y-13394031D01*
X12319467Y-13394031D02*
X12328991Y-13413079D01*
X12328991Y-13413079D02*
X12338515Y-13451174D01*
X12338515Y-13451174D02*
X12338515Y-13498793D01*
X12338515Y-13498793D02*
X12328991Y-13536888D01*
X12328991Y-13536888D02*
X12319467Y-13555936D01*
X12319467Y-13555936D02*
X12309944Y-13565460D01*
X12309944Y-13565460D02*
X12290896Y-13574984D01*
X12290896Y-13574984D02*
X12271848Y-13574984D01*
X12271848Y-13574984D02*
X12252801Y-13565460D01*
X12252801Y-13565460D02*
X12243277Y-13555936D01*
X12243277Y-13555936D02*
X12233753Y-13536888D01*
X12233753Y-13536888D02*
X12224229Y-13498793D01*
X12224229Y-13498793D02*
X12224229Y-13451174D01*
X12224229Y-13451174D02*
X12233753Y-13413079D01*
X12233753Y-13413079D02*
X12243277Y-13394031D01*
X12243277Y-13394031D02*
X12252801Y-13384508D01*
X12252801Y-13384508D02*
X12271848Y-13374984D01*
X12509944Y-13441650D02*
X12509944Y-13574984D01*
X12462325Y-13365460D02*
X12414706Y-13508317D01*
X12414706Y-13508317D02*
X12538515Y-13508317D01*
X12595658Y-13374984D02*
X12719467Y-13374984D01*
X12719467Y-13374984D02*
X12652801Y-13451174D01*
X12652801Y-13451174D02*
X12681372Y-13451174D01*
X12681372Y-13451174D02*
X12700420Y-13460698D01*
X12700420Y-13460698D02*
X12709944Y-13470222D01*
X12709944Y-13470222D02*
X12719467Y-13489269D01*
X12719467Y-13489269D02*
X12719467Y-13536888D01*
X12719467Y-13536888D02*
X12709944Y-13555936D01*
X12709944Y-13555936D02*
X12700420Y-13565460D01*
X12700420Y-13565460D02*
X12681372Y-13574984D01*
X12681372Y-13574984D02*
X12624229Y-13574984D01*
X12624229Y-13574984D02*
X12605182Y-13565460D01*
X12605182Y-13565460D02*
X12595658Y-13555936D01*
X12786134Y-13374984D02*
X12909944Y-13374984D01*
X12909944Y-13374984D02*
X12843277Y-13451174D01*
X12843277Y-13451174D02*
X12871848Y-13451174D01*
X12871848Y-13451174D02*
X12890896Y-13460698D01*
X12890896Y-13460698D02*
X12900420Y-13470222D01*
X12900420Y-13470222D02*
X12909944Y-13489269D01*
X12909944Y-13489269D02*
X12909944Y-13536888D01*
X12909944Y-13536888D02*
X12900420Y-13555936D01*
X12900420Y-13555936D02*
X12890896Y-13565460D01*
X12890896Y-13565460D02*
X12871848Y-13574984D01*
X12871848Y-13574984D02*
X12814706Y-13574984D01*
X12814706Y-13574984D02*
X12795658Y-13565460D01*
X12795658Y-13565460D02*
X12786134Y-13555936D01*
X12986134Y-13374984D02*
X12986134Y-13413079D01*
X13062325Y-13374984D02*
X13062325Y-13413079D01*
X13357563Y-13651174D02*
X13348039Y-13641650D01*
X13348039Y-13641650D02*
X13328991Y-13613079D01*
X13328991Y-13613079D02*
X13319468Y-13594031D01*
X13319468Y-13594031D02*
X13309944Y-13565460D01*
X13309944Y-13565460D02*
X13300420Y-13517841D01*
X13300420Y-13517841D02*
X13300420Y-13479746D01*
X13300420Y-13479746D02*
X13309944Y-13432127D01*
X13309944Y-13432127D02*
X13319468Y-13403555D01*
X13319468Y-13403555D02*
X13328991Y-13384508D01*
X13328991Y-13384508D02*
X13348039Y-13355936D01*
X13348039Y-13355936D02*
X13357563Y-13346412D01*
X13424229Y-13394031D02*
X13433753Y-13384508D01*
X13433753Y-13384508D02*
X13452801Y-13374984D01*
X13452801Y-13374984D02*
X13500420Y-13374984D01*
X13500420Y-13374984D02*
X13519468Y-13384508D01*
X13519468Y-13384508D02*
X13528991Y-13394031D01*
X13528991Y-13394031D02*
X13538515Y-13413079D01*
X13538515Y-13413079D02*
X13538515Y-13432127D01*
X13538515Y-13432127D02*
X13528991Y-13460698D01*
X13528991Y-13460698D02*
X13414706Y-13574984D01*
X13414706Y-13574984D02*
X13538515Y-13574984D01*
X13709944Y-13441650D02*
X13709944Y-13574984D01*
X13662325Y-13365460D02*
X13614706Y-13508317D01*
X13614706Y-13508317D02*
X13738515Y-13508317D01*
X13967087Y-13574984D02*
X13967087Y-13374984D01*
X14052801Y-13574984D02*
X14052801Y-13470222D01*
X14052801Y-13470222D02*
X14043277Y-13451174D01*
X14043277Y-13451174D02*
X14024230Y-13441650D01*
X14024230Y-13441650D02*
X13995658Y-13441650D01*
X13995658Y-13441650D02*
X13976610Y-13451174D01*
X13976610Y-13451174D02*
X13967087Y-13460698D01*
X14176610Y-13574984D02*
X14157563Y-13565460D01*
X14157563Y-13565460D02*
X14148039Y-13555936D01*
X14148039Y-13555936D02*
X14138515Y-13536888D01*
X14138515Y-13536888D02*
X14138515Y-13479746D01*
X14138515Y-13479746D02*
X14148039Y-13460698D01*
X14148039Y-13460698D02*
X14157563Y-13451174D01*
X14157563Y-13451174D02*
X14176610Y-13441650D01*
X14176610Y-13441650D02*
X14205182Y-13441650D01*
X14205182Y-13441650D02*
X14224230Y-13451174D01*
X14224230Y-13451174D02*
X14233753Y-13460698D01*
X14233753Y-13460698D02*
X14243277Y-13479746D01*
X14243277Y-13479746D02*
X14243277Y-13536888D01*
X14243277Y-13536888D02*
X14233753Y-13555936D01*
X14233753Y-13555936D02*
X14224230Y-13565460D01*
X14224230Y-13565460D02*
X14205182Y-13574984D01*
X14205182Y-13574984D02*
X14176610Y-13574984D01*
X14357563Y-13574984D02*
X14338515Y-13565460D01*
X14338515Y-13565460D02*
X14328991Y-13546412D01*
X14328991Y-13546412D02*
X14328991Y-13374984D01*
X14509944Y-13565460D02*
X14490896Y-13574984D01*
X14490896Y-13574984D02*
X14452801Y-13574984D01*
X14452801Y-13574984D02*
X14433753Y-13565460D01*
X14433753Y-13565460D02*
X14424230Y-13546412D01*
X14424230Y-13546412D02*
X14424230Y-13470222D01*
X14424230Y-13470222D02*
X14433753Y-13451174D01*
X14433753Y-13451174D02*
X14452801Y-13441650D01*
X14452801Y-13441650D02*
X14490896Y-13441650D01*
X14490896Y-13441650D02*
X14509944Y-13451174D01*
X14509944Y-13451174D02*
X14519468Y-13470222D01*
X14519468Y-13470222D02*
X14519468Y-13489269D01*
X14519468Y-13489269D02*
X14424230Y-13508317D01*
X14595658Y-13565460D02*
X14614706Y-13574984D01*
X14614706Y-13574984D02*
X14652801Y-13574984D01*
X14652801Y-13574984D02*
X14671849Y-13565460D01*
X14671849Y-13565460D02*
X14681372Y-13546412D01*
X14681372Y-13546412D02*
X14681372Y-13536888D01*
X14681372Y-13536888D02*
X14671849Y-13517841D01*
X14671849Y-13517841D02*
X14652801Y-13508317D01*
X14652801Y-13508317D02*
X14624230Y-13508317D01*
X14624230Y-13508317D02*
X14605182Y-13498793D01*
X14605182Y-13498793D02*
X14595658Y-13479746D01*
X14595658Y-13479746D02*
X14595658Y-13470222D01*
X14595658Y-13470222D02*
X14605182Y-13451174D01*
X14605182Y-13451174D02*
X14624230Y-13441650D01*
X14624230Y-13441650D02*
X14652801Y-13441650D01*
X14652801Y-13441650D02*
X14671849Y-13451174D01*
X14748039Y-13651174D02*
X14757563Y-13641650D01*
X14757563Y-13641650D02*
X14776611Y-13613079D01*
X14776611Y-13613079D02*
X14786134Y-13594031D01*
X14786134Y-13594031D02*
X14795658Y-13565460D01*
X14795658Y-13565460D02*
X14805182Y-13517841D01*
X14805182Y-13517841D02*
X14805182Y-13479746D01*
X14805182Y-13479746D02*
X14795658Y-13432127D01*
X14795658Y-13432127D02*
X14786134Y-13403555D01*
X14786134Y-13403555D02*
X14776611Y-13384508D01*
X14776611Y-13384508D02*
X14757563Y-13355936D01*
X14757563Y-13355936D02*
X14748039Y-13346412D01*
M02*
