M48
; DRILL file {KiCad 8.0.6} date 2026-05-30T13:23:37+0200
; FORMAT={-:-/ absolute / inch / decimal}
; #@! TF.CreationDate,2026-05-30T13:23:37+02:00
; #@! TF.GenerationSoftware,Kicad,Pcbnew,8.0.6
; #@! TF.FileFunction,Plated,1,2,PTH
FMAT,2
INCH
; #@! TA.AperFunction,Plated,PTH,ViaDrill
T1C0.0118
; #@! TA.AperFunction,Plated,PTH,ComponentDrill
T2C0.0315
; #@! TA.AperFunction,Plated,PTH,ComponentDrill
T3C0.0354
; #@! TA.AperFunction,Plated,PTH,ComponentDrill
T4C0.0394
; #@! TA.AperFunction,Plated,PTH,ComponentDrill
T5C0.0433
%
G90
G05
T1
X4.7185Y-3.8268
X4.75Y-3.8268
X4.8079Y-2.9205
X5.2717Y-3.5157
X5.3043Y-3.5157
X5.5063Y-3.1177
T2
X5.6319Y-4.0295
X5.6319Y-4.5295
T3
X5.9344Y-4.4134
X6.0344Y-4.4134
T4
X4.0571Y-2.7969
X4.0571Y-2.8969
X4.0571Y-2.9969
X4.0571Y-3.0969
X4.0571Y-3.1969
X4.165Y-4.0669
X4.1669Y-4.1693
X4.1681Y-4.2717
X4.2638Y-3.5519
X4.2638Y-3.7487
X4.265Y-4.0669
X4.2669Y-4.1693
X4.2681Y-4.2717
X4.365Y-4.0669
X4.3669Y-4.1693
X4.3681Y-4.2717
X4.465Y-4.0669
X4.4669Y-4.1693
X4.4681Y-4.2717
X4.565Y-4.0669
X4.5669Y-4.1693
X4.5681Y-4.2717
X4.6339Y-2.9969
X4.6339Y-3.0969
X4.6339Y-3.1969
X4.8878Y-2.6988
X4.8878Y-2.7988
X4.8878Y-2.8988
X4.8878Y-2.9988
X4.8878Y-3.0988
X4.8878Y-3.1988
X5.4173Y-2.887
X5.4173Y-2.987
X5.4173Y-3.087
X5.4173Y-3.187
X5.6339Y-3.4913
X5.6339Y-3.5913
X5.6339Y-3.6913
X5.6339Y-3.7913
T5
X4.8173Y-3.4472
X4.8173Y-3.5472
X4.8173Y-3.6472
X4.8173Y-3.7472
X4.8173Y-3.8472
X4.8173Y-3.9472
X4.8173Y-4.0472
X4.8173Y-4.1472
X4.8173Y-4.2472
X4.8173Y-4.3472
X4.8173Y-4.4472
X4.8173Y-4.5472
X5.4173Y-3.4472
X5.4173Y-3.5472
X5.4173Y-3.6472
X5.4173Y-3.7472
X5.4173Y-3.8472
X5.4173Y-3.9472
X5.4173Y-4.0472
X5.4173Y-4.1472
X5.4173Y-4.2472
X5.4173Y-4.3472
X5.4173Y-4.4472
X5.4173Y-4.5472
M30
