%TF.GenerationSoftware,KiCad,Pcbnew,8.0.6*%
%TF.CreationDate,2026-05-30T19:08:05+02:00*%
%TF.ProjectId,_octstp,5f6f6374-7374-4702-9e6b-696361645f70,rev?*%
%TF.SameCoordinates,Original*%
%TF.FileFunction,Legend,Top*%
%TF.FilePolarity,Positive*%
%FSLAX46Y46*%
G04 Gerber Fmt 4.6, Leading zero omitted, Abs format (unit mm)*
G04 Created by KiCad (PCBNEW 8.0.6) date 2026-05-30 19:08:05*
%MOMM*%
%LPD*%
G01*
G04 APERTURE LIST*
%ADD10C,0.100000*%
%ADD11C,0.150000*%
%ADD12C,0.120000*%
G04 APERTURE END LIST*
D10*
X181802500Y-74315000D02*
X178473048Y-74317500D01*
X176532500Y-73630000D02*
X176532500Y-72575000D01*
X167755000Y-79560000D02*
X174618685Y-79562500D01*
X176532500Y-72575000D02*
X177017500Y-72575000D01*
X174787500Y-73630000D02*
X178277500Y-73630000D01*
X178473048Y-74317500D02*
G75*
G02*
X178141952Y-74317500I-165548J0D01*
G01*
X178141952Y-74317500D02*
G75*
G02*
X178473048Y-74317500I165548J0D01*
G01*
X167772500Y-76920000D02*
X181837500Y-76920000D01*
X174998816Y-79562500D02*
G75*
G02*
X174618684Y-79562500I-190066J0D01*
G01*
X174618684Y-79562500D02*
G75*
G02*
X174998816Y-79562500I190066J0D01*
G01*
X181837500Y-76920000D02*
X181820000Y-79560000D01*
X175002566Y-74320000D02*
G75*
G02*
X174622434Y-74320000I-190066J0D01*
G01*
X174622434Y-74320000D02*
G75*
G02*
X175002566Y-74320000I190066J0D01*
G01*
X181820000Y-79560000D02*
X178469298Y-79560000D01*
X176532500Y-72575000D02*
X176047500Y-72575000D01*
X176552500Y-77895000D02*
X177037500Y-77895000D01*
X176552500Y-77895000D02*
X176067500Y-77895000D01*
X167822500Y-74325000D02*
X174622435Y-74320000D01*
X167805000Y-76965000D02*
X181805000Y-76955000D01*
X181805000Y-76955000D02*
X181802500Y-74315000D01*
X174807500Y-78950000D02*
X178297500Y-78950000D01*
X176552500Y-78950000D02*
X176552500Y-77895000D01*
X178469298Y-79560000D02*
G75*
G02*
X178138202Y-79560000I-165548J0D01*
G01*
X178138202Y-79560000D02*
G75*
G02*
X178469298Y-79560000I165548J0D01*
G01*
X165327693Y-76420038D02*
X165232455Y-76372419D01*
X165232455Y-76372419D02*
X165089598Y-76372419D01*
X165089598Y-76372419D02*
X164946741Y-76420038D01*
X164946741Y-76420038D02*
X164851503Y-76515276D01*
X164851503Y-76515276D02*
X164803884Y-76610514D01*
X164803884Y-76610514D02*
X164756265Y-76800990D01*
X164756265Y-76800990D02*
X164756265Y-76943847D01*
X164756265Y-76943847D02*
X164803884Y-77134323D01*
X164803884Y-77134323D02*
X164851503Y-77229561D01*
X164851503Y-77229561D02*
X164946741Y-77324800D01*
X164946741Y-77324800D02*
X165089598Y-77372419D01*
X165089598Y-77372419D02*
X165184836Y-77372419D01*
X165184836Y-77372419D02*
X165327693Y-77324800D01*
X165327693Y-77324800D02*
X165375312Y-77277180D01*
X165375312Y-77277180D02*
X165375312Y-76943847D01*
X165375312Y-76943847D02*
X165184836Y-76943847D01*
X164756265Y-78967657D02*
X164803884Y-78920038D01*
X164803884Y-78920038D02*
X164899122Y-78872419D01*
X164899122Y-78872419D02*
X165137217Y-78872419D01*
X165137217Y-78872419D02*
X165232455Y-78920038D01*
X165232455Y-78920038D02*
X165280074Y-78967657D01*
X165280074Y-78967657D02*
X165327693Y-79062895D01*
X165327693Y-79062895D02*
X165327693Y-79158133D01*
X165327693Y-79158133D02*
X165280074Y-79300990D01*
X165280074Y-79300990D02*
X164708646Y-79872419D01*
X164708646Y-79872419D02*
X165327693Y-79872419D01*
X165327693Y-74872419D02*
X164756265Y-74872419D01*
X165041979Y-74872419D02*
X165041979Y-73872419D01*
X165041979Y-73872419D02*
X164946741Y-74015276D01*
X164946741Y-74015276D02*
X164851503Y-74110514D01*
X164851503Y-74110514D02*
X164756265Y-74158133D01*
D11*
X169171667Y-71312200D02*
X169314524Y-71359819D01*
X169314524Y-71359819D02*
X169552619Y-71359819D01*
X169552619Y-71359819D02*
X169647857Y-71312200D01*
X169647857Y-71312200D02*
X169695476Y-71264580D01*
X169695476Y-71264580D02*
X169743095Y-71169342D01*
X169743095Y-71169342D02*
X169743095Y-71074104D01*
X169743095Y-71074104D02*
X169695476Y-70978866D01*
X169695476Y-70978866D02*
X169647857Y-70931247D01*
X169647857Y-70931247D02*
X169552619Y-70883628D01*
X169552619Y-70883628D02*
X169362143Y-70836009D01*
X169362143Y-70836009D02*
X169266905Y-70788390D01*
X169266905Y-70788390D02*
X169219286Y-70740771D01*
X169219286Y-70740771D02*
X169171667Y-70645533D01*
X169171667Y-70645533D02*
X169171667Y-70550295D01*
X169171667Y-70550295D02*
X169219286Y-70455057D01*
X169219286Y-70455057D02*
X169266905Y-70407438D01*
X169266905Y-70407438D02*
X169362143Y-70359819D01*
X169362143Y-70359819D02*
X169600238Y-70359819D01*
X169600238Y-70359819D02*
X169743095Y-70407438D01*
X170076429Y-70359819D02*
X170314524Y-71359819D01*
X170314524Y-71359819D02*
X170505000Y-70645533D01*
X170505000Y-70645533D02*
X170695476Y-71359819D01*
X170695476Y-71359819D02*
X170933572Y-70359819D01*
X171838333Y-71359819D02*
X171266905Y-71359819D01*
X171552619Y-71359819D02*
X171552619Y-70359819D01*
X171552619Y-70359819D02*
X171457381Y-70502676D01*
X171457381Y-70502676D02*
X171362143Y-70597914D01*
X171362143Y-70597914D02*
X171266905Y-70645533D01*
X169341667Y-82402200D02*
X169484524Y-82449819D01*
X169484524Y-82449819D02*
X169722619Y-82449819D01*
X169722619Y-82449819D02*
X169817857Y-82402200D01*
X169817857Y-82402200D02*
X169865476Y-82354580D01*
X169865476Y-82354580D02*
X169913095Y-82259342D01*
X169913095Y-82259342D02*
X169913095Y-82164104D01*
X169913095Y-82164104D02*
X169865476Y-82068866D01*
X169865476Y-82068866D02*
X169817857Y-82021247D01*
X169817857Y-82021247D02*
X169722619Y-81973628D01*
X169722619Y-81973628D02*
X169532143Y-81926009D01*
X169532143Y-81926009D02*
X169436905Y-81878390D01*
X169436905Y-81878390D02*
X169389286Y-81830771D01*
X169389286Y-81830771D02*
X169341667Y-81735533D01*
X169341667Y-81735533D02*
X169341667Y-81640295D01*
X169341667Y-81640295D02*
X169389286Y-81545057D01*
X169389286Y-81545057D02*
X169436905Y-81497438D01*
X169436905Y-81497438D02*
X169532143Y-81449819D01*
X169532143Y-81449819D02*
X169770238Y-81449819D01*
X169770238Y-81449819D02*
X169913095Y-81497438D01*
X170246429Y-81449819D02*
X170484524Y-82449819D01*
X170484524Y-82449819D02*
X170675000Y-81735533D01*
X170675000Y-81735533D02*
X170865476Y-82449819D01*
X170865476Y-82449819D02*
X171103572Y-81449819D01*
X171436905Y-81545057D02*
X171484524Y-81497438D01*
X171484524Y-81497438D02*
X171579762Y-81449819D01*
X171579762Y-81449819D02*
X171817857Y-81449819D01*
X171817857Y-81449819D02*
X171913095Y-81497438D01*
X171913095Y-81497438D02*
X171960714Y-81545057D01*
X171960714Y-81545057D02*
X172008333Y-81640295D01*
X172008333Y-81640295D02*
X172008333Y-81735533D01*
X172008333Y-81735533D02*
X171960714Y-81878390D01*
X171960714Y-81878390D02*
X171389286Y-82449819D01*
X171389286Y-82449819D02*
X172008333Y-82449819D01*
D12*
%TO.C,J1*%
X160645000Y-78255000D02*
X160645000Y-73115000D01*
X160645000Y-80855000D02*
X160645000Y-79525000D01*
X161975000Y-80855000D02*
X160645000Y-80855000D01*
X163305000Y-73115000D02*
X160645000Y-73115000D01*
X163305000Y-78255000D02*
X160645000Y-78255000D01*
X163305000Y-78255000D02*
X163305000Y-73115000D01*
%TO.C,SW1*%
X168890000Y-57890000D02*
X168890000Y-60400000D01*
X168890000Y-57890000D02*
X181110000Y-57890000D01*
X168890000Y-62700000D02*
X168890000Y-65300000D01*
X168890000Y-67600000D02*
X168890000Y-70110000D01*
X181110000Y-57890000D02*
X181110000Y-60400000D01*
X181110000Y-62700000D02*
X181110000Y-65300000D01*
X181110000Y-67600000D02*
X181110000Y-70110000D01*
X181110000Y-70110000D02*
X168890000Y-70110000D01*
X178550000Y-64000000D02*
G75*
G02*
X171450000Y-64000000I-3550000J0D01*
G01*
X171450000Y-64000000D02*
G75*
G02*
X178550000Y-64000000I3550000J0D01*
G01*
%TO.C,SW2*%
X168890000Y-82890000D02*
X168890000Y-85400000D01*
X168890000Y-82890000D02*
X181110000Y-82890000D01*
X168890000Y-87700000D02*
X168890000Y-90300000D01*
X168890000Y-92600000D02*
X168890000Y-95110000D01*
X181110000Y-82890000D02*
X181110000Y-85400000D01*
X181110000Y-87700000D02*
X181110000Y-90300000D01*
X181110000Y-92600000D02*
X181110000Y-95110000D01*
X181110000Y-95110000D02*
X168890000Y-95110000D01*
X178550000Y-89000000D02*
G75*
G02*
X171450000Y-89000000I-3550000J0D01*
G01*
X171450000Y-89000000D02*
G75*
G02*
X178550000Y-89000000I3550000J0D01*
G01*
%TD*%
M02*
