%TF.GenerationSoftware,KiCad,Pcbnew,8.0.6*%
%TF.CreationDate,2026-05-30T19:08:05+02:00*%
%TF.ProjectId,_octstp,5f6f6374-7374-4702-9e6b-696361645f70,rev?*%
%TF.SameCoordinates,Original*%
%TF.FileFunction,Copper,L1,Top*%
%TF.FilePolarity,Positive*%
%FSLAX46Y46*%
G04 Gerber Fmt 4.6, Leading zero omitted, Abs format (unit mm)*
G04 Created by KiCad (PCBNEW 8.0.6) date 2026-05-30 19:08:05*
%MOMM*%
%LPD*%
G01*
G04 APERTURE LIST*
%TA.AperFunction,Conductor*%
%ADD10C,0.200000*%
%TD*%
%TA.AperFunction,Conductor*%
%ADD11C,2.000000*%
%TD*%
%TA.AperFunction,ComponentPad*%
%ADD12R,1.700000X1.700000*%
%TD*%
%TA.AperFunction,ComponentPad*%
%ADD13O,1.700000X1.700000*%
%TD*%
%TA.AperFunction,ComponentPad*%
%ADD14O,3.200000X1.900000*%
%TD*%
%TA.AperFunction,ComponentPad*%
%ADD15C,5.700000*%
%TD*%
G04 APERTURE END LIST*
D10*
%TO.N,Net-(J1-Pin_2)*%
X181000000Y-81000000D02*
X177000000Y-77000000D01*
X181000000Y-74000000D01*
X181000000Y-81000000D01*
%TA.AperFunction,Conductor*%
G36*
X181000000Y-81000000D02*
G01*
X177000000Y-77000000D01*
X181000000Y-74000000D01*
X181000000Y-81000000D01*
G37*
%TD.AperFunction*%
D11*
%TO.N,Net-(J1-Pin_3)*%
X168000000Y-71500000D02*
X162000000Y-74500000D01*
X162000000Y-61500000D01*
X168750000Y-61500000D01*
X168000000Y-71500000D01*
%TA.AperFunction,Conductor*%
G36*
X168000000Y-71500000D02*
G01*
X162000000Y-74500000D01*
X162000000Y-61500000D01*
X168750000Y-61500000D01*
X168000000Y-71500000D01*
G37*
%TD.AperFunction*%
%TO.N,Net-(J1-Pin_1)*%
X167000000Y-82000000D02*
X168250000Y-91500000D01*
X162000000Y-91500000D01*
X161975000Y-79525000D01*
X167000000Y-82000000D01*
%TA.AperFunction,Conductor*%
G36*
X167000000Y-82000000D02*
G01*
X168250000Y-91500000D01*
X162000000Y-91500000D01*
X161975000Y-79525000D01*
X167000000Y-82000000D01*
G37*
%TD.AperFunction*%
%TO.N,Net-(J1-Pin_2)*%
X181000000Y-92000000D02*
X168000000Y-77000000D01*
X181000000Y-62000000D01*
X181000000Y-92000000D01*
%TA.AperFunction,Conductor*%
G36*
X181000000Y-92000000D02*
G01*
X168000000Y-77000000D01*
X181000000Y-62000000D01*
X181000000Y-92000000D01*
G37*
%TD.AperFunction*%
%TD*%
D12*
%TO.P,J1,1,Pin_1*%
%TO.N,Net-(J1-Pin_1)*%
X161975000Y-79525000D03*
D13*
%TO.P,J1,2,Pin_2*%
%TO.N,Net-(J1-Pin_2)*%
X161975000Y-76985000D03*
%TO.P,J1,3,Pin_3*%
%TO.N,Net-(J1-Pin_3)*%
X161975000Y-74445000D03*
%TD*%
D14*
%TO.P,SW1,1,1*%
%TO.N,Net-(J1-Pin_3)*%
X168750000Y-61500000D03*
%TO.P,SW1,2,2*%
%TO.N,Net-(J1-Pin_2)*%
X181250000Y-61500000D03*
%TO.P,SW1,3,3*%
%TO.N,Net-(J1-Pin_3)*%
X168750000Y-66500000D03*
%TO.P,SW1,4,4*%
%TO.N,Net-(J1-Pin_2)*%
X181250000Y-66500000D03*
%TD*%
%TO.P,SW2,1,1*%
%TO.N,Net-(J1-Pin_1)*%
X168750000Y-86500000D03*
%TO.P,SW2,2,2*%
%TO.N,Net-(J1-Pin_2)*%
X181250000Y-86500000D03*
%TO.P,SW2,3,3*%
%TO.N,Net-(J1-Pin_1)*%
X168750000Y-91500000D03*
%TO.P,SW2,4,4*%
%TO.N,Net-(J1-Pin_2)*%
X181250000Y-91500000D03*
%TD*%
D15*
%TO.P,REF\u002A\u002A,1*%
%TO.N,N/C*%
X175000000Y-102000000D03*
%TD*%
%TO.P,,1*%
%TO.N,N/C*%
X175000000Y-102000000D03*
%TD*%
%TO.P,REF\u002A\u002A,1*%
%TO.N,N/C*%
X175000000Y-51000000D03*
%TD*%
D11*
%TO.N,Net-(J1-Pin_2)*%
X181250000Y-86500000D02*
X181250000Y-66500000D01*
X161975000Y-76985000D02*
X170765000Y-76985000D01*
X170765000Y-76985000D02*
X176985000Y-76985000D01*
X181250000Y-81250000D02*
X181250000Y-86500000D01*
X177015000Y-76985000D02*
X181250000Y-72750000D01*
X181250000Y-86500000D02*
X181250000Y-91500000D01*
X181250000Y-72750000D02*
X181250000Y-66500000D01*
X176985000Y-76985000D02*
X181250000Y-81250000D01*
X181250000Y-61500000D02*
X181250000Y-66500000D01*
X170765000Y-76985000D02*
X177015000Y-76985000D01*
%TO.N,Net-(J1-Pin_3)*%
X168750000Y-61500000D02*
X168750000Y-66500000D01*
X165555000Y-74445000D02*
X161975000Y-74445000D01*
X168750000Y-66500000D02*
X168750000Y-71250000D01*
X168750000Y-71250000D02*
X165555000Y-74445000D01*
%TO.N,Net-(J1-Pin_1)*%
X165525000Y-79525000D02*
X168750000Y-82750000D01*
X168750000Y-86500000D02*
X168750000Y-91500000D01*
X168750000Y-82750000D02*
X168750000Y-86500000D01*
X161975000Y-79525000D02*
X165525000Y-79525000D01*
%TD*%
M02*
